<?xml version="1.0" encoding="UTF-8"?>
<!DOCTYPE svg PUBLIC "-//W3C//DTD SVG 1.1//EN" "http://www.w3.org/Graphics/SVG/1.1/DTD/svg11.dtd">
<svg xmlns="http://www.w3.org/2000/svg" version="1.1" width="500px" height="500px" style="shape-rendering:geometricPrecision; text-rendering:geometricPrecision; image-rendering:optimizeQuality; fill-rule:evenodd; clip-rule:evenodd" xmlns:xlink="http://www.w3.org/1999/xlink">
<g><path style="opacity:0.535" fill="#db7ab1" d="M 249.5,183.5 C 243.667,178.169 237.667,173.002 231.5,168C 223.149,166.496 214.816,164.83 206.5,163C 182.833,162.333 159.167,162.333 135.5,163C 126.804,162.585 120.471,166.085 116.5,173.5C 116.491,171.692 116.991,170.025 118,168.5C 121.068,165.917 124.235,163.584 127.5,161.5C 156.51,160.176 185.51,160.343 214.5,162C 227.603,163.138 238.436,168.638 247,178.5C 248.094,180.078 248.928,181.745 249.5,183.5 Z"/></g>
<g><path style="opacity:0.416" fill="#d995bb" d="M 127.5,161.5 C 124.235,163.584 121.068,165.917 118,168.5C 116.991,170.025 116.491,171.692 116.5,173.5C 116.5,174.167 116.167,174.5 115.5,174.5C 113.797,164.697 117.797,160.364 127.5,161.5 Z"/></g>
<g><path style="opacity:0.929" fill="#e11687" d="M 277.5,217.5 C 279.415,217.784 281.081,217.451 282.5,216.5C 284.179,216.285 285.179,216.952 285.5,218.5C 265.669,232.181 257.169,251.181 260,275.5C 260.432,280.497 261.599,285.163 263.5,289.5C 263.433,290.959 263.766,292.292 264.5,293.5C 264.557,294.609 264.89,295.609 265.5,296.5C 265.217,297.289 264.717,297.956 264,298.5C 262.048,296.002 259.715,295.335 257,296.5C 255.667,295.833 254.667,294.833 254,293.5C 253.617,294.056 253.117,294.389 252.5,294.5C 254.368,286.948 254.868,279.281 254,271.5C 253.399,267.048 251.899,263.048 249.5,259.5C 246.684,252.528 242.018,247.195 235.5,243.5C 235.167,242.833 234.833,242.167 234.5,241.5C 235.286,239.959 236.286,238.626 237.5,237.5C 241.576,233.698 244.409,229.031 246,223.5C 251.781,192.293 238.947,175.127 207.5,172C 179.835,171.5 152.169,171.333 124.5,171.5C 126.803,169.745 129.47,168.578 132.5,168C 159.5,167.333 186.5,167.333 213.5,168C 221.211,171.012 228.878,174.012 236.5,177C 239.28,178.812 241.78,180.979 244,183.5C 245.575,188.91 247.908,193.91 251,198.5C 252.803,206.848 252.803,215.181 251,223.5C 248.26,228.65 245.76,233.983 243.5,239.5C 245.022,245.876 248.855,250.209 255,252.5C 258.477,249.315 260.477,245.315 261,240.5C 264.626,238.053 266.459,234.887 266.5,231C 269.837,226.115 273.504,221.615 277.5,217.5 Z"/></g>
<g><path style="opacity:0.501" fill="#de85b6" d="M 359.5,201.5 C 359.831,194.137 359.497,186.803 358.5,179.5C 355.437,177.975 352.77,175.975 350.5,173.5C 348.591,172.652 346.591,172.318 344.5,172.5C 322.996,171.172 301.33,171.172 279.5,172.5C 279.003,175.55 277.503,176.55 275,175.5C 273.811,177.233 272.644,178.9 271.5,180.5C 271.398,175.934 273.398,172.768 277.5,171C 302.827,169.146 328.161,169.146 353.5,171C 356.455,171.392 358.622,172.892 360,175.5C 360.362,180.681 360.862,185.848 361.5,191C 361.145,194.697 360.478,198.197 359.5,201.5 Z"/></g>
<g><path style="opacity:0.565" fill="#d96eaa" d="M 344.5,172.5 C 324.831,172.333 305.164,172.5 285.5,173C 281.423,174.787 277.59,176.954 274,179.5C 272.971,183.573 272.138,187.573 271.5,191.5C 271.5,187.833 271.5,184.167 271.5,180.5C 272.644,178.9 273.811,177.233 275,175.5C 277.503,176.55 279.003,175.55 279.5,172.5C 301.33,171.172 322.996,171.172 344.5,172.5 Z"/></g>
<g><path style="opacity:0.733" fill="#da489b" d="M 349.5,177.5 C 347.692,177.509 346.025,177.009 344.5,176C 327.5,175.333 310.5,175.333 293.5,176C 278.257,176.647 272.424,184.48 276,199.5C 277.128,201.345 277.628,203.345 277.5,205.5C 274.672,204.004 273.006,201.671 272.5,198.5C 273.327,193.349 273.827,188.016 274,182.5C 277.742,178.418 282.242,175.585 287.5,174C 305.5,173.333 323.5,173.333 341.5,174C 344.792,174.004 347.458,175.17 349.5,177.5 Z"/></g>
<g><path style="opacity:0.604" fill="#d761a6" d="M 344.5,172.5 C 346.591,172.318 348.591,172.652 350.5,173.5C 352.77,175.975 355.437,177.975 358.5,179.5C 359.497,186.803 359.831,194.137 359.5,201.5C 359.155,204.198 357.822,206.198 355.5,207.5C 357.25,202.829 358.25,197.996 358.5,193C 358.333,190.833 358.167,188.667 358,186.5C 357.722,185.584 357.222,184.918 356.5,184.5C 356.649,183.448 356.483,182.448 356,181.5C 353.931,179.915 351.764,178.581 349.5,177.5C 347.458,175.17 344.792,174.004 341.5,174C 323.5,173.333 305.5,173.333 287.5,174C 282.242,175.585 277.742,178.418 274,182.5C 273.827,188.016 273.327,193.349 272.5,198.5C 272.326,196.139 271.993,193.806 271.5,191.5C 272.138,187.573 272.971,183.573 274,179.5C 277.59,176.954 281.423,174.787 285.5,173C 305.164,172.5 324.831,172.333 344.5,172.5 Z"/></g>
<g><path style="opacity:1" fill="#fe4eb5" d="M 124.5,171.5 C 152.169,171.333 179.835,171.5 207.5,172C 238.947,175.127 251.781,192.293 246,223.5C 244.409,229.031 241.576,233.698 237.5,237.5C 237.036,234.998 238.036,232.832 240.5,231C 239.845,229.513 238.845,228.347 237.5,227.5C 234.878,230.492 232.211,233.492 229.5,236.5C 226.158,238.171 222.824,239.838 219.5,241.5C 223.855,244.149 227.855,247.149 231.5,250.5C 224.959,248.487 218.625,245.987 212.5,243C 218.858,240.252 224.858,236.918 230.5,233C 238.559,222.766 240.725,211.266 237,198.5C 230.442,187.297 220.609,181.297 207.5,180.5C 206.167,180.5 204.833,180.5 203.5,180.5C 183.007,179.503 162.34,179.169 141.5,179.5C 141.369,178.624 141.702,177.957 142.5,177.5C 148.114,178.621 153.78,178.788 159.5,178C 158.692,177.692 158.025,177.192 157.5,176.5C 172.551,175.003 187.551,175.336 202.5,177.5C 204.167,177.167 205.833,176.833 207.5,176.5C 205.257,175.526 202.924,175.192 200.5,175.5C 200.649,174.448 200.483,173.448 200,172.5C 176.303,172.543 152.636,172.543 129,172.5C 127.42,174.921 126.587,177.587 126.5,180.5C 126.363,226.557 126.53,272.89 127,319.5C 127.333,321.167 127.667,322.833 128,324.5C 128.725,325.059 129.558,325.392 130.5,325.5C 154.823,324.186 179.156,324.186 203.5,325.5C 205.926,325.596 208.093,324.93 210,323.5C 210.561,324.022 211.228,324.355 212,324.5C 216.29,321.78 220.79,320.78 225.5,321.5C 220.348,323.268 215.015,324.768 209.5,326C 181.502,326.5 153.502,326.667 125.5,326.5C 124.539,324.735 124.205,322.735 124.5,320.5C 124.5,272.167 124.5,223.833 124.5,175.5C 124.5,174.167 124.5,172.833 124.5,171.5 Z M 174.5,208.5 C 180.535,208.537 186.535,209.037 192.5,210C 194.833,211 196.5,212.667 197.5,215C 194.289,221.197 189.123,224.03 182,223.5C 177.739,223.383 173.739,222.383 170,220.5C 168.562,217.179 168.395,213.846 169.5,210.5C 171.291,209.83 172.958,209.163 174.5,208.5 Z"/></g>
<g><path style="opacity:1" fill="#fd51b6" d="M 141.5,179.5 C 138.833,179.5 136.167,179.5 133.5,179.5C 133.5,225.833 133.5,272.167 133.5,318.5C 157.006,318.831 180.339,318.498 203.5,317.5C 212.956,316.78 221.956,314.28 230.5,310C 232.373,308.296 234.04,306.463 235.5,304.5C 236.721,303.972 237.887,303.305 239,302.5C 245.317,289.17 246.15,275.504 241.5,261.5C 244.486,262.363 245.486,264.03 244.5,266.5C 245.911,272.298 246.911,278.132 247.5,284C 244.742,288.715 245.075,293.215 248.5,297.5C 249.496,295.535 249.496,293.202 248.5,290.5C 250.566,287.018 251.566,283.184 251.5,279C 249.717,272.547 249.05,266.047 249.5,259.5C 251.899,263.048 253.399,267.048 254,271.5C 254.868,279.281 254.368,286.948 252.5,294.5C 247.743,307.718 238.743,316.718 225.5,321.5C 220.79,320.78 216.29,321.78 212,324.5C 211.228,324.355 210.561,324.022 210,323.5C 208.093,324.93 205.926,325.596 203.5,325.5C 179.156,324.186 154.823,324.186 130.5,325.5C 129.558,325.392 128.725,325.059 128,324.5C 127.667,322.833 127.333,321.167 127,319.5C 126.53,272.89 126.363,226.557 126.5,180.5C 126.587,177.587 127.42,174.921 129,172.5C 152.636,172.543 176.303,172.543 200,172.5C 200.483,173.448 200.649,174.448 200.5,175.5C 202.924,175.192 205.257,175.526 207.5,176.5C 205.833,176.833 204.167,177.167 202.5,177.5C 187.551,175.336 172.551,175.003 157.5,176.5C 158.025,177.192 158.692,177.692 159.5,178C 153.78,178.788 148.114,178.621 142.5,177.5C 141.702,177.957 141.369,178.624 141.5,179.5 Z M 171.5,286.5 C 171.167,285.5 170.5,284.833 169.5,284.5C 168.913,278.697 169.58,273.197 171.5,268C 181.181,265.585 190.514,266.585 199.5,271C 203.461,275.536 203.461,280.036 199.5,284.5C 190.292,286.934 180.959,287.601 171.5,286.5 Z"/></g>
<g><path style="opacity:0.934" fill="#de258c" d="M 349.5,177.5 C 351.764,178.581 353.931,179.915 356,181.5C 356.483,182.448 356.649,183.448 356.5,184.5C 356.666,189.844 356.499,195.177 356,200.5C 354.5,203.5 353,206.5 351.5,209.5C 353.253,213.089 355.919,215.923 359.5,218C 360.252,218.671 360.586,219.504 360.5,220.5C 354.556,218.241 350.556,214.241 348.5,208.5C 351.248,205.919 353.414,202.919 355,199.5C 355.83,193.804 355.663,188.137 354.5,182.5C 353.583,181.873 352.583,181.539 351.5,181.5C 328.339,180.502 305.006,180.169 281.5,180.5C 280.868,188.573 281.535,196.24 283.5,203.5C 283.196,204.15 282.863,204.817 282.5,205.5C 284.154,207.143 285.487,208.976 286.5,211C 285.702,213.287 284.369,215.12 282.5,216.5C 281.081,217.451 279.415,217.784 277.5,217.5C 279.279,216.33 280.279,214.664 280.5,212.5C 281.429,211.685 282.429,210.852 283.5,210C 281.316,208.637 279.316,207.137 277.5,205.5C 277.628,203.345 277.128,201.345 276,199.5C 272.424,184.48 278.257,176.647 293.5,176C 310.5,175.333 327.5,175.333 344.5,176C 346.025,177.009 347.692,177.509 349.5,177.5 Z"/></g>
<g><path style="opacity:0.727" fill="#e11285" d="M 203.5,180.5 C 204.833,180.5 206.167,180.5 207.5,180.5C 207.611,182.648 206.944,182.981 205.5,181.5C 196.878,182.361 188.545,183.027 180.5,183.5C 168.169,182.841 155.836,182.675 143.5,183C 141.356,183.792 140.023,185.292 139.5,187.5C 138.71,188.609 138.21,189.942 138,191.5C 137.167,230.504 137.333,269.504 138.5,308.5C 139.687,309.653 140.687,309.653 141.5,308.5C 142.167,308.833 142.833,309.167 143.5,309.5C 143.5,310.833 143.5,312.167 143.5,313.5C 138.169,312.121 135.169,308.787 134.5,303.5C 134.5,262.5 134.5,221.5 134.5,180.5C 157.5,180.5 180.5,180.5 203.5,180.5 Z"/></g>
<g><path style="opacity:1" fill="#fe51b6" d="M 351.5,181.5 C 351.5,188.833 351.5,196.167 351.5,203.5C 350.167,203.5 348.833,203.5 347.5,203.5C 326.167,203.5 304.833,203.5 283.5,203.5C 281.535,196.24 280.868,188.573 281.5,180.5C 305.006,180.169 328.339,180.502 351.5,181.5 Z"/></g>
<g><path style="opacity:0.953" fill="#f0138d" d="M 289.5,189.5 C 307.167,189.5 324.833,189.5 342.5,189.5C 342.5,191.5 342.5,193.5 342.5,195.5C 324.833,195.5 307.167,195.5 289.5,195.5C 289.5,193.5 289.5,191.5 289.5,189.5 Z"/></g>
<g><path style="opacity:0.996" fill="#f22899" d="M 141.5,179.5 C 162.34,179.169 183.007,179.503 203.5,180.5C 180.5,180.5 157.5,180.5 134.5,180.5C 134.5,221.5 134.5,262.5 134.5,303.5C 134.5,308.167 134.5,312.833 134.5,317.5C 157.5,317.5 180.5,317.5 203.5,317.5C 180.339,318.498 157.006,318.831 133.5,318.5C 133.5,272.167 133.5,225.833 133.5,179.5C 136.167,179.5 138.833,179.5 141.5,179.5 Z"/></g>
<g><path style="opacity:0.949" fill="#ea118b" d="M 283.5,203.5 C 304.833,203.5 326.167,203.5 347.5,203.5C 346.653,204.966 345.32,205.8 343.5,206C 344.86,207.938 344.527,209.604 342.5,211C 343.448,211.483 344.448,211.649 345.5,211.5C 345.715,213.179 345.048,214.179 343.5,214.5C 323.485,206.733 304.152,208.066 285.5,218.5C 285.179,216.952 284.179,216.285 282.5,216.5C 284.369,215.12 285.702,213.287 286.5,211C 285.487,208.976 284.154,207.143 282.5,205.5C 282.863,204.817 283.196,204.15 283.5,203.5 Z"/></g>
<g><path style="opacity:0.859" fill="#de2991" d="M 215.5,236.5 C 214.791,235.596 213.791,235.263 212.5,235.5C 217.848,225.429 218.848,214.929 215.5,204C 215.528,202.93 215.861,202.097 216.5,201.5C 218.502,204.512 219.669,207.845 220,211.5C 220.007,217.876 220.173,224.209 220.5,230.5C 229.272,225.672 233.272,218.172 232.5,208C 232.218,204.277 231.218,200.777 229.5,197.5C 229.56,196.957 229.893,196.624 230.5,196.5C 233.461,200.839 234.794,205.672 234.5,211C 234.051,216.374 232.885,221.541 231,226.5C 225.971,230.112 220.804,233.445 215.5,236.5 Z"/></g>
<g><path style="opacity:1" fill="#fe50b6" d="M 343.5,214.5 C 345.952,216.974 348.618,218.974 351.5,220.5C 351.756,222.937 352.423,225.271 353.5,227.5C 351.54,228.519 349.54,228.519 347.5,227.5C 343.018,224.22 338.018,221.887 332.5,220.5C 312.009,214.373 294.342,219.04 279.5,234.5C 279.586,233.504 279.252,232.671 278.5,232C 276.555,232.128 274.722,231.962 273,231.5C 260.968,249.203 257.801,268.536 263.5,289.5C 261.599,285.163 260.432,280.497 260,275.5C 257.169,251.181 265.669,232.181 285.5,218.5C 304.152,208.066 323.485,206.733 343.5,214.5 Z"/></g>
<g><path style="opacity:0.694" fill="#d8529f" d="M 356.5,184.5 C 357.222,184.918 357.722,185.584 358,186.5C 358.167,188.667 358.333,190.833 358.5,193C 358.25,197.996 357.25,202.829 355.5,207.5C 354.697,208.423 354.53,209.423 355,210.5C 359.186,213.497 363.019,216.83 366.5,220.5C 367.176,224.699 369.343,228.033 373,230.5C 374.477,234.43 375.644,238.43 376.5,242.5C 375.527,240.861 374.194,239.527 372.5,238.5C 372.671,235.512 371.338,233.512 368.5,232.5C 365.81,228.435 363.143,224.435 360.5,220.5C 360.586,219.504 360.252,218.671 359.5,218C 355.919,215.923 353.253,213.089 351.5,209.5C 353,206.5 354.5,203.5 356,200.5C 356.499,195.177 356.666,189.844 356.5,184.5 Z"/></g>
<g><path style="opacity:0.663" fill="#d64f9e" d="M 280.5,212.5 C 280.279,214.664 279.279,216.33 277.5,217.5C 274.698,220.169 271.531,222.502 268,224.5C 265.971,228.58 263.471,232.246 260.5,235.5C 263.896,225.097 270.562,217.43 280.5,212.5 Z"/></g>
<g><path style="opacity:0.945" fill="#e9118a" d="M 332.5,220.5 C 327.851,219.705 323.184,219.539 318.5,220C 321.638,221.244 324.972,221.911 328.5,222C 329.667,222.5 330.5,223.333 331,224.5C 331.333,223.833 331.667,223.167 332,222.5C 333.509,223.09 335.009,223.756 336.5,224.5C 335.738,224.911 334.738,225.077 333.5,225C 334.184,226.693 335.184,228.193 336.5,229.5C 335.5,229.833 334.5,230.167 333.5,230.5C 329.636,228.974 325.636,228.308 321.5,228.5C 315.316,228.035 309.316,228.701 303.5,230.5C 300.737,230.744 298.571,232.077 297,234.5C 294.787,232.751 293.787,230.751 294,228.5C 292.025,231.081 289.525,233.081 286.5,234.5C 284.824,235.728 284.491,237.061 285.5,238.5C 284.833,238.5 284.5,238.833 284.5,239.5C 283.127,239.343 281.793,239.51 280.5,240C 279.427,243.312 277.427,244.479 274.5,243.5C 275.925,240.312 277.592,237.312 279.5,234.5C 294.342,219.04 312.009,214.373 332.5,220.5 Z"/></g>
<g><path style="opacity:0.67" fill="#d761a5" d="M 249.5,183.5 C 254.658,191.602 256.991,200.602 256.5,210.5C 256.76,218.104 255.093,225.104 251.5,231.5C 253.46,224.317 254.46,216.983 254.5,209.5C 254.167,206.167 253.833,202.833 253.5,199.5C 252.667,198.5 251.833,197.5 251,196.5C 250.226,192.853 249.559,189.186 249,185.5C 243.355,179.838 237.189,175.005 230.5,171C 225.058,169.772 219.724,168.272 214.5,166.5C 210.979,165.629 207.312,164.795 203.5,164C 182.167,163.333 160.833,163.333 139.5,164C 136.149,164.057 133.149,164.891 130.5,166.5C 125.059,167.212 121.726,170.212 120.5,175.5C 119.662,175.842 119.328,176.508 119.5,177.5C 118.691,179.292 118.191,181.292 118,183.5C 117.333,225.833 117.333,268.167 118,310.5C 118.181,313.695 118.681,316.695 119.5,319.5C 119.5,320.167 119.5,320.833 119.5,321.5C 119.687,323.564 120.187,325.564 121,327.5C 124.182,330.552 127.682,332.886 131.5,334.5C 129.396,334.799 127.396,334.466 125.5,333.5C 122.621,332.119 120.121,330.119 118,327.5C 117.275,324.21 116.108,321.21 114.5,318.5C 115.466,270.515 115.799,222.515 115.5,174.5C 116.167,174.5 116.5,174.167 116.5,173.5C 120.471,166.085 126.804,162.585 135.5,163C 159.167,162.333 182.833,162.333 206.5,163C 214.816,164.83 223.149,166.496 231.5,168C 237.667,173.002 243.667,178.169 249.5,183.5 Z M 174.5,208.5 C 172.958,209.163 171.291,209.83 169.5,210.5C 168.395,213.846 168.562,217.179 170,220.5C 173.739,222.383 177.739,223.383 182,223.5C 189.123,224.03 194.289,221.197 197.5,215C 196.5,212.667 194.833,211 192.5,210C 186.535,209.037 180.535,208.537 174.5,208.5 Z"/></g>
<g><path style="opacity:0.725" fill="#d9499c" d="M 214.5,166.5 C 186.483,165.212 158.483,165.212 130.5,166.5C 133.149,164.891 136.149,164.057 139.5,164C 160.833,163.333 182.167,163.333 203.5,164C 207.312,164.795 210.979,165.629 214.5,166.5 Z"/></g>
<g><path style="opacity:0.753" fill="#db439b" d="M 119.5,177.5 C 119.5,224.833 119.5,272.167 119.5,319.5C 118.681,316.695 118.181,313.695 118,310.5C 117.333,268.167 117.333,225.833 118,183.5C 118.191,181.292 118.691,179.292 119.5,177.5 Z"/></g>
<g><path style="opacity:0.931" fill="#de1284" d="M 121.5,175.5 C 122.5,175.5 123.5,175.5 124.5,175.5C 124.5,223.833 124.5,272.167 124.5,320.5C 123.778,320.918 123.278,321.584 123,322.5C 122.667,321.833 122.333,321.167 122,320.5C 121.5,272.168 121.333,223.834 121.5,175.5 Z"/></g>
<g><path style="opacity:1" fill="#fe51b6" d="M 321.5,228.5 C 329.028,229.6 335.028,233.267 339.5,239.5C 343.184,245.908 344.851,252.908 344.5,260.5C 325.833,260.5 307.167,260.5 288.5,260.5C 288.208,247.75 293.208,237.75 303.5,230.5C 309.316,228.701 315.316,228.035 321.5,228.5 Z M 315.5,239.5 C 319.623,239.798 323.623,240.631 327.5,242C 329.211,243.133 329.711,244.633 329,246.5C 325.676,248.244 322.176,249.577 318.5,250.5C 314.142,248.659 310.142,246.325 306.5,243.5C 309.285,241.432 312.285,240.098 315.5,239.5 Z"/></g>
<g><path style="opacity:0.306" fill="#e41a8b" d="M 216.5,201.5 C 215.861,202.097 215.528,202.93 215.5,204C 218.848,214.929 217.848,225.429 212.5,235.5C 203.885,238.555 194.885,240.221 185.5,240.5C 174.822,239.817 164.156,238.984 153.5,238C 151.062,235.705 149.562,232.872 149,229.5C 148.333,219.5 148.333,209.5 149,199.5C 149.406,196.506 150.906,194.339 153.5,193C 163.536,191.489 173.536,189.655 183.5,187.5C 191.743,188.789 199.743,190.956 207.5,194C 211.3,195.642 214.3,198.142 216.5,201.5 Z M 174.5,208.5 C 172.958,209.163 171.291,209.83 169.5,210.5C 168.395,213.846 168.562,217.179 170,220.5C 173.739,222.383 177.739,223.383 182,223.5C 189.123,224.03 194.289,221.197 197.5,215C 196.5,212.667 194.833,211 192.5,210C 186.535,209.037 180.535,208.537 174.5,208.5 Z"/></g>
<g><path style="opacity:1" fill="#fd50b6" d="M 153.5,195.5 C 167.837,195.333 182.171,195.5 196.5,196C 212.272,198.693 218.106,207.86 214,223.5C 211.014,229.82 206.181,233.987 199.5,236C 184.17,236.5 168.837,236.667 153.5,236.5C 153.5,222.833 153.5,209.167 153.5,195.5 Z M 174.5,208.5 C 172.958,209.163 171.291,209.83 169.5,210.5C 168.395,213.846 168.562,217.179 170,220.5C 173.739,222.383 177.739,223.383 182,223.5C 189.123,224.03 194.289,221.197 197.5,215C 196.5,212.667 194.833,211 192.5,210C 186.535,209.037 180.535,208.537 174.5,208.5 Z"/></g>
<g><path style="opacity:0.942" fill="#e41689" d="M 162.5,228.5 C 161.549,227.081 161.216,225.415 161.5,223.5C 161.5,216.833 161.5,210.167 161.5,203.5C 173.562,203.085 185.562,203.585 197.5,205C 203.43,206.03 206.097,209.53 205.5,215.5C 205.419,221.17 202.753,225.003 197.5,227C 185.896,228.412 174.229,228.912 162.5,228.5 Z M 174.5,208.5 C 172.958,209.163 171.291,209.83 169.5,210.5C 168.395,213.846 168.562,217.179 170,220.5C 173.739,222.383 177.739,223.383 182,223.5C 189.123,224.03 194.289,221.197 197.5,215C 196.5,212.667 194.833,211 192.5,210C 186.535,209.037 180.535,208.537 174.5,208.5 Z"/></g>
<g><path style="opacity:1" fill="#fe53b7" d="M 161.5,223.5 C 161.216,225.415 161.549,227.081 162.5,228.5C 166.231,229.196 170.065,229.862 174,230.5C 178.58,229.63 183.247,229.297 188,229.5C 191.339,229.423 194.505,230.09 197.5,231.5C 195.755,233.459 193.589,234.792 191,235.5C 179.135,235.774 167.468,235.44 156,234.5C 154.501,222.872 154.168,211.206 155,199.5C 155.667,198.167 156.333,198.167 157,199.5C 157.419,198.328 158.085,197.328 159,196.5C 161.719,197.444 164.552,197.777 167.5,197.5C 167.5,198.833 167.5,200.167 167.5,201.5C 165.801,201.66 164.134,201.494 162.5,201C 163.696,200.346 163.696,199.846 162.5,199.5C 161.368,201.598 160.368,203.765 159.5,206C 160.106,211.978 160.773,217.811 161.5,223.5 Z"/></g>
<g><path style="opacity:0.932" fill="#de1886" d="M 351.5,181.5 C 352.583,181.539 353.583,181.873 354.5,182.5C 355.663,188.137 355.83,193.804 355,199.5C 353.414,202.919 351.248,205.919 348.5,208.5C 350.556,214.241 354.556,218.241 360.5,220.5C 363.143,224.435 365.81,228.435 368.5,232.5C 371.338,233.512 372.671,235.512 372.5,238.5C 375.18,250.366 376.68,262.366 377,274.5C 376.292,275.381 375.458,276.047 374.5,276.5C 374.821,270.974 374.488,265.64 373.5,260.5C 372.518,249.047 368.684,238.714 362,229.5C 358.922,225.915 355.422,222.915 351.5,220.5C 348.618,218.974 345.952,216.974 343.5,214.5C 345.048,214.179 345.715,213.179 345.5,211.5C 344.448,211.649 343.448,211.483 342.5,211C 344.527,209.604 344.86,207.938 343.5,206C 345.32,205.8 346.653,204.966 347.5,203.5C 348.833,203.5 350.167,203.5 351.5,203.5C 351.5,196.167 351.5,188.833 351.5,181.5 Z"/></g>
<g><path style="opacity:0.776" fill="#e31a8b" d="M 303.5,230.5 C 293.208,237.75 288.208,247.75 288.5,260.5C 307.167,260.5 325.833,260.5 344.5,260.5C 344.851,252.908 343.184,245.908 339.5,239.5C 340.167,239.833 340.833,240.167 341.5,240.5C 344.413,247.496 346.747,254.663 348.5,262C 354.811,265.019 358.144,263.185 358.5,256.5C 359.458,256.047 360.292,255.381 361,254.5C 361.167,255.667 361.333,256.833 361.5,258C 360.972,260.881 360.306,263.715 359.5,266.5C 356.475,266.877 353.475,267.044 350.5,267C 347.785,266.125 346.452,264.292 346.5,261.5C 327.155,261.167 307.822,261.5 288.5,262.5C 289.111,265.236 289.445,267.902 289.5,270.5C 288.167,273.5 288.167,276.5 289.5,279.5C 289.911,287.985 293.244,294.985 299.5,300.5C 298.351,300.791 297.684,301.624 297.5,303C 297.943,304.825 298.277,306.658 298.5,308.5C 297.178,308.33 296.011,308.663 295,309.5C 291.592,306.909 288.425,304.242 285.5,301.5C 288.38,301.967 290.713,301.134 292.5,299C 291.305,295.44 289.471,292.274 287,289.5C 285.994,285.402 285.494,281.236 285.5,277C 286.076,266.837 286.576,256.67 287,246.5C 287.689,243.592 288.855,240.925 290.5,238.5C 288.833,237.334 287.166,237.334 285.5,238.5C 284.491,237.061 284.824,235.728 286.5,234.5C 289.525,233.081 292.025,231.081 294,228.5C 293.787,230.751 294.787,232.751 297,234.5C 298.571,232.077 300.737,230.744 303.5,230.5 Z M 315.5,239.5 C 312.285,240.098 309.285,241.432 306.5,243.5C 310.142,246.325 314.142,248.659 318.5,250.5C 322.176,249.577 325.676,248.244 329,246.5C 329.711,244.633 329.211,243.133 327.5,242C 323.623,240.631 319.623,239.798 315.5,239.5 Z"/></g>
<g><path style="opacity:0.796" fill="#db3694" d="M 214.5,166.5 C 219.724,168.272 225.058,169.772 230.5,171C 237.189,175.005 243.355,179.838 249,185.5C 249.559,189.186 250.226,192.853 251,196.5C 251.833,197.5 252.667,198.5 253.5,199.5C 253.833,202.833 254.167,206.167 254.5,209.5C 254.46,216.983 253.46,224.317 251.5,231.5C 250.204,234.771 248.871,238.105 247.5,241.5C 248.098,245.033 249.931,247.699 253,249.5C 254.221,248.728 255.221,247.728 256,246.5C 257.038,242.532 258.538,238.865 260.5,235.5C 263.471,232.246 265.971,228.58 268,224.5C 271.531,222.502 274.698,220.169 277.5,217.5C 273.504,221.615 269.837,226.115 266.5,231C 266.459,234.887 264.626,238.053 261,240.5C 260.477,245.315 258.477,249.315 255,252.5C 248.855,250.209 245.022,245.876 243.5,239.5C 245.76,233.983 248.26,228.65 251,223.5C 252.803,215.181 252.803,206.848 251,198.5C 247.908,193.91 245.575,188.91 244,183.5C 241.78,180.979 239.28,178.812 236.5,177C 228.878,174.012 221.211,171.012 213.5,168C 186.5,167.333 159.5,167.333 132.5,168C 129.47,168.578 126.803,169.745 124.5,171.5C 124.5,172.833 124.5,174.167 124.5,175.5C 123.5,175.5 122.5,175.5 121.5,175.5C 121.167,175.5 120.833,175.5 120.5,175.5C 121.726,170.212 125.059,167.212 130.5,166.5C 158.483,165.212 186.483,165.212 214.5,166.5 Z"/></g>
<g><path style="opacity:1" fill="#fd53b6" d="M 279.5,234.5 C 277.592,237.312 275.925,240.312 274.5,243.5C 271.805,247.738 269.972,252.405 269,257.5C 268.302,265.528 268.468,273.528 269.5,281.5C 269.394,287.583 271.06,293.083 274.5,298C 273.833,298.667 273.167,299.333 272.5,300C 273.602,302.391 272.936,302.891 270.5,301.5C 268.517,299.19 267.517,296.523 267.5,293.5C 266.5,293.5 265.5,293.5 264.5,293.5C 263.766,292.292 263.433,290.959 263.5,289.5C 257.801,268.536 260.968,249.203 273,231.5C 274.722,231.962 276.555,232.128 278.5,232C 279.252,232.671 279.586,233.504 279.5,234.5 Z"/></g>
<g><path style="opacity:0.92" fill="#e9138a" d="M 311.5,237.5 C 316.887,237.405 322.22,237.905 327.5,239C 332.3,242.233 334.967,246.733 335.5,252.5C 323.167,252.5 310.833,252.5 298.5,252.5C 299.373,244.378 303.707,239.378 311.5,237.5 Z M 315.5,239.5 C 312.285,240.098 309.285,241.432 306.5,243.5C 310.142,246.325 314.142,248.659 318.5,250.5C 322.176,249.577 325.676,248.244 329,246.5C 329.711,244.633 329.211,243.133 327.5,242C 323.623,240.631 319.623,239.798 315.5,239.5 Z"/></g>
<g><path style="opacity:1" fill="#fd53b6" d="M 237.5,237.5 C 236.286,238.626 235.286,239.959 234.5,241.5C 234.833,242.167 235.167,242.833 235.5,243.5C 242.018,247.195 246.684,252.528 249.5,259.5C 249.05,266.047 249.717,272.547 251.5,279C 251.566,283.184 250.566,287.018 248.5,290.5C 249.496,293.202 249.496,295.535 248.5,297.5C 245.075,293.215 244.742,288.715 247.5,284C 246.911,278.132 245.911,272.298 244.5,266.5C 245.486,264.03 244.486,262.363 241.5,261.5C 239.957,260.264 238.957,258.598 238.5,256.5C 236.122,254.448 233.789,252.448 231.5,250.5C 227.855,247.149 223.855,244.149 219.5,241.5C 222.824,239.838 226.158,238.171 229.5,236.5C 232.211,233.492 234.878,230.492 237.5,227.5C 238.845,228.347 239.845,229.513 240.5,231C 238.036,232.832 237.036,234.998 237.5,237.5 Z"/></g>
<g><path style="opacity:0.841" fill="#df2891" d="M 139.5,187.5 C 139.333,226.835 139.5,266.168 140,305.5C 140.513,306.527 141.013,307.527 141.5,308.5C 140.687,309.653 139.687,309.653 138.5,308.5C 137.333,269.504 137.167,230.504 138,191.5C 138.21,189.942 138.71,188.609 139.5,187.5 Z"/></g>
<g><path style="opacity:1" fill="#fe4eb5" d="M 351.5,220.5 C 355.422,222.915 358.922,225.915 362,229.5C 368.684,238.714 372.518,249.047 373.5,260.5C 373.5,266.833 373.5,273.167 373.5,279.5C 348.833,279.5 324.167,279.5 299.5,279.5C 299.62,278.414 300.287,277.747 301.5,277.5C 324.817,278.813 348.15,278.813 371.5,277.5C 371.709,276.914 372.043,276.414 372.5,276C 371.707,272.589 371.207,269.089 371,265.5C 370.374,267.991 369.541,267.991 368.5,265.5C 366.423,266.988 365.423,268.988 365.5,271.5C 340.167,271.5 314.833,271.5 289.5,271.5C 289.5,274.167 289.5,276.833 289.5,279.5C 288.167,276.5 288.167,273.5 289.5,270.5C 314.5,270.5 339.5,270.5 364.5,270.5C 366.248,253.097 360.581,238.764 347.5,227.5C 349.54,228.519 351.54,228.519 353.5,227.5C 352.423,225.271 351.756,222.937 351.5,220.5 Z"/></g>
<g><path style="opacity:1" fill="#fe4fb6" d="M 218.5,268.5 C 219.139,276.382 218.306,284.049 216,291.5C 215.292,292.381 214.458,293.047 213.5,293.5C 217.446,282.799 217.446,272.132 213.5,261.5C 212.127,261.343 210.793,261.51 209.5,262C 209.786,263.388 209.452,264.888 208.5,266.5C 204.915,263.876 200.915,262.043 196.5,261C 184.838,260.5 173.171,260.333 161.5,260.5C 161.5,271.833 161.5,283.167 161.5,294.5C 160.335,293.504 159.668,292.171 159.5,290.5C 159.847,280.53 160.014,270.53 160,260.5C 161.44,259.07 161.774,257.403 161,255.5C 159.701,255.966 158.201,255.966 156.5,255.5C 156.667,266.172 156.5,276.839 156,287.5C 155.667,285.5 155.333,283.5 155,281.5C 154.216,286.887 154.382,292.22 155.5,297.5C 160.766,300.605 166.266,301.605 172,300.5C 178.671,300.973 185.171,301.639 191.5,302.5C 178.833,302.5 166.167,302.5 153.5,302.5C 153.5,285.5 153.5,268.5 153.5,251.5C 169.549,251.078 185.549,251.578 201.5,253C 209.345,256.021 215.011,261.187 218.5,268.5 Z M 171.5,286.5 C 171.167,285.5 170.5,284.833 169.5,284.5C 168.913,278.697 169.58,273.197 171.5,268C 181.181,265.585 190.514,266.585 199.5,271C 203.461,275.536 203.461,280.036 199.5,284.5C 190.292,286.934 180.959,287.601 171.5,286.5 Z"/></g>
<g><path style="opacity:0.942" fill="#e01688" d="M 207.5,180.5 C 220.609,181.297 230.442,187.297 237,198.5C 240.725,211.266 238.559,222.766 230.5,233C 224.858,236.918 218.858,240.252 212.5,243C 218.625,245.987 224.959,248.487 231.5,250.5C 233.789,252.448 236.122,254.448 238.5,256.5C 238.957,258.598 239.957,260.264 241.5,261.5C 246.15,275.504 245.317,289.17 239,302.5C 237.887,303.305 236.721,303.972 235.5,304.5C 232.633,302.879 230.3,303.546 228.5,306.5C 226.021,308.076 223.354,309.076 220.5,309.5C 222.139,308.527 223.473,307.194 224.5,305.5C 225.552,305.649 226.552,305.483 227.5,305C 230.037,302.128 232.87,299.628 236,297.5C 236.727,295.047 237.727,292.714 239,290.5C 239.667,282.833 239.667,275.167 239,267.5C 238.878,265.563 238.045,264.23 236.5,263.5C 235.534,260.754 233.701,258.754 231,257.5C 223.947,253.824 216.947,250.158 210,246.5C 209.333,244.833 209.333,243.167 210,241.5C 212.191,240.167 214.024,238.5 215.5,236.5C 220.804,233.445 225.971,230.112 231,226.5C 232.885,221.541 234.051,216.374 234.5,211C 234.794,205.672 233.461,200.839 230.5,196.5C 229.893,196.624 229.56,196.957 229.5,197.5C 226.251,192.76 221.918,189.26 216.5,187C 214.122,186.489 211.788,185.822 209.5,185C 199.8,184.755 190.134,184.255 180.5,183.5C 188.545,183.027 196.878,182.361 205.5,181.5C 206.944,182.981 207.611,182.648 207.5,180.5 Z"/></g>
<g><path style="opacity:0.937" fill="#e21889" d="M 218.5,258.5 C 219.46,261.902 219.46,265.235 218.5,268.5C 215.011,261.187 209.345,256.021 201.5,253C 185.549,251.578 169.549,251.078 153.5,251.5C 153.5,268.5 153.5,285.5 153.5,302.5C 166.167,302.5 178.833,302.5 191.5,302.5C 193.167,302.5 194.833,302.5 196.5,302.5C 184.007,303.331 171.34,303.831 158.5,304C 158.167,304.333 157.833,304.667 157.5,305C 168.41,306.694 179.41,307.528 190.5,307.5C 185.344,308.166 180.011,308.499 174.5,308.5C 167.732,308.329 161.066,307.662 154.5,306.5C 151.377,302.797 149.544,298.464 149,293.5C 148.333,283.833 148.333,274.167 149,264.5C 149.075,259.363 150.242,254.529 152.5,250C 170.5,249.333 188.5,249.333 206.5,250C 211.514,251.65 215.514,254.484 218.5,258.5 Z"/></g>
<g><path style="opacity:0.861" fill="#dc3192" d="M 372.5,238.5 C 374.194,239.527 375.527,240.861 376.5,242.5C 380.361,255.178 381.195,268.178 379,281.5C 377.428,288.222 375.428,294.889 373,301.5C 369.802,304.563 367.636,308.229 366.5,312.5C 365.833,312.5 365.167,312.5 364.5,312.5C 366.833,307.163 369.666,302.163 373,297.5C 373.432,294.07 374.266,290.736 375.5,287.5C 375.36,285.97 374.693,284.97 373.5,284.5C 373.5,284.167 373.5,283.833 373.5,283.5C 374.497,283.53 375.164,283.03 375.5,282C 374.767,280.234 374.433,278.401 374.5,276.5C 375.458,276.047 376.292,275.381 377,274.5C 376.68,262.366 375.18,250.366 372.5,238.5 Z"/></g>
<g><path style="opacity:0.946" fill="#e51288" d="M 332.5,220.5 C 338.018,221.887 343.018,224.22 347.5,227.5C 360.581,238.764 366.248,253.097 364.5,270.5C 339.5,270.5 314.5,270.5 289.5,270.5C 289.445,267.902 289.111,265.236 288.5,262.5C 307.822,261.5 327.155,261.167 346.5,261.5C 346.452,264.292 347.785,266.125 350.5,267C 353.475,267.044 356.475,266.877 359.5,266.5C 360.306,263.715 360.972,260.881 361.5,258C 361.333,256.833 361.167,255.667 361,254.5C 360.292,255.381 359.458,256.047 358.5,256.5C 358.405,246.745 353.738,240.412 344.5,237.5C 342.484,237.516 341.484,238.516 341.5,240.5C 340.833,240.167 340.167,239.833 339.5,239.5C 335.028,233.267 329.028,229.6 321.5,228.5C 325.636,228.308 329.636,228.974 333.5,230.5C 334.5,230.167 335.5,229.833 336.5,229.5C 335.184,228.193 334.184,226.693 333.5,225C 334.738,225.077 335.738,224.911 336.5,224.5C 335.009,223.756 333.509,223.09 332,222.5C 331.667,223.167 331.333,223.833 331,224.5C 330.5,223.333 329.667,222.5 328.5,222C 324.972,221.911 321.638,221.244 318.5,220C 323.184,219.539 327.851,219.705 332.5,220.5 Z"/></g>
<g><path style="opacity:1" fill="#fe52b6" d="M 299.5,279.5 C 299.398,290.895 305.231,296.562 317,296.5C 327.141,297.519 334.308,293.519 338.5,284.5C 350.148,283.501 361.814,283.168 373.5,283.5C 373.5,283.833 373.5,284.167 373.5,284.5C 373.104,287.721 371.771,290.388 369.5,292.5C 369.784,290.123 369.784,287.956 369.5,286C 370.167,285.667 370.833,285.333 371.5,285C 360.839,284.5 350.172,284.333 339.5,284.5C 339.714,286.144 339.38,287.644 338.5,289C 339.167,289.667 339.833,290.333 340.5,291C 339,291.833 337.833,293 337,294.5C 336.692,293.692 336.192,293.025 335.5,292.5C 334.094,295.572 331.761,297.572 328.5,298.5C 329.833,298.833 331.167,299.167 332.5,299.5C 335.714,297.536 339.047,295.869 342.5,294.5C 337.76,300.544 331.427,304.044 323.5,305C 314.898,306.346 306.898,304.846 299.5,300.5C 293.244,294.985 289.911,287.985 289.5,279.5C 289.5,276.833 289.5,274.167 289.5,271.5C 314.833,271.5 340.167,271.5 365.5,271.5C 365.423,268.988 366.423,266.988 368.5,265.5C 369.541,267.991 370.374,267.991 371,265.5C 371.207,269.089 371.707,272.589 372.5,276C 372.043,276.414 371.709,276.914 371.5,277.5C 348.15,278.813 324.817,278.813 301.5,277.5C 300.287,277.747 299.62,278.414 299.5,279.5 Z M 314.5,283.5 C 317.85,283.335 321.183,283.502 324.5,284C 327.167,285 327.167,286 324.5,287C 320.142,288.075 316.142,287.408 312.5,285C 313.416,284.722 314.082,284.222 314.5,283.5 Z"/></g>
<g><path style="opacity:0.941" fill="#e21588" d="M 208.5,266.5 C 211.103,273.608 210.936,280.608 208,287.5C 204.995,291.087 201.162,293.254 196.5,294C 184.838,294.5 173.171,294.667 161.5,294.5C 161.5,283.167 161.5,271.833 161.5,260.5C 173.171,260.333 184.838,260.5 196.5,261C 200.915,262.043 204.915,263.876 208.5,266.5 Z M 171.5,286.5 C 171.167,285.5 170.5,284.833 169.5,284.5C 168.913,278.697 169.58,273.197 171.5,268C 181.181,265.585 190.514,266.585 199.5,271C 203.461,275.536 203.461,280.036 199.5,284.5C 190.292,286.934 180.959,287.601 171.5,286.5 Z"/></g>
<g><path style="opacity:1" fill="#fd53b7" d="M 369.5,292.5 C 367.575,301.655 362.908,308.988 355.5,314.5C 351.874,312.926 351.874,311.593 355.5,310.5C 355.709,304.802 358.209,300.469 363,297.5C 363.667,296.167 363.667,294.833 363,293.5C 360.106,292.22 356.939,291.554 353.5,291.5C 350.314,291.502 347.314,291.835 344.5,292.5C 343.833,293.167 343.167,293.833 342.5,294.5C 339.047,295.869 335.714,297.536 332.5,299.5C 331.167,299.167 329.833,298.833 328.5,298.5C 331.761,297.572 334.094,295.572 335.5,292.5C 336.192,293.025 336.692,293.692 337,294.5C 337.833,293 339,291.833 340.5,291C 339.833,290.333 339.167,289.667 338.5,289C 339.38,287.644 339.714,286.144 339.5,284.5C 350.172,284.333 360.839,284.5 371.5,285C 370.833,285.333 370.167,285.667 369.5,286C 369.784,287.956 369.784,290.123 369.5,292.5 Z"/></g>
<g><path style="opacity:0.945" fill="#e8158b" d="M 373.5,260.5 C 374.488,265.64 374.821,270.974 374.5,276.5C 374.433,278.401 374.767,280.234 375.5,282C 375.164,283.03 374.497,283.53 373.5,283.5C 361.814,283.168 350.148,283.501 338.5,284.5C 334.308,293.519 327.141,297.519 317,296.5C 305.231,296.562 299.398,290.895 299.5,279.5C 324.167,279.5 348.833,279.5 373.5,279.5C 373.5,273.167 373.5,266.833 373.5,260.5 Z M 314.5,283.5 C 314.082,284.222 313.416,284.722 312.5,285C 316.142,287.408 320.142,288.075 324.5,287C 327.167,286 327.167,285 324.5,284C 321.183,283.502 317.85,283.335 314.5,283.5 Z"/></g>
<g><path style="opacity:0.573" fill="#da79b0" d="M 381.5,249.5 C 387.061,270.906 384.395,291.239 373.5,310.5C 372.903,310.265 372.57,309.765 372.5,309C 378.273,296.321 381.939,282.987 383.5,269C 382.023,262.588 381.356,256.088 381.5,249.5 Z"/></g>
<g><path style="opacity:1" fill="#fd52b5" d="M 161.5,294.5 C 173.171,294.667 184.838,294.5 196.5,294C 201.162,293.254 204.995,291.087 208,287.5C 210.936,280.608 211.103,273.608 208.5,266.5C 209.452,264.888 209.786,263.388 209.5,262C 210.793,261.51 212.127,261.343 213.5,261.5C 217.446,272.132 217.446,282.799 213.5,293.5C 209.795,299.857 204.128,302.857 196.5,302.5C 194.833,302.5 193.167,302.5 191.5,302.5C 185.171,301.639 178.671,300.973 172,300.5C 166.266,301.605 160.766,300.605 155.5,297.5C 154.382,292.22 154.216,286.887 155,281.5C 155.333,283.5 155.667,285.5 156,287.5C 156.5,276.839 156.667,266.172 156.5,255.5C 158.201,255.966 159.701,255.966 161,255.5C 161.774,257.403 161.44,259.07 160,260.5C 160.014,270.53 159.847,280.53 159.5,290.5C 159.668,292.171 160.335,293.504 161.5,294.5 Z M 171.5,286.5 C 171.167,285.5 170.5,284.833 169.5,284.5C 168.913,278.697 169.58,273.197 171.5,268C 181.181,265.585 190.514,266.585 199.5,271C 203.461,275.536 203.461,280.036 199.5,284.5C 190.292,286.934 180.959,287.601 171.5,286.5 Z"/></g>
<g><path style="opacity:0.808" fill="#de3295" d="M 171.5,286.5 C 180.959,287.601 190.292,286.934 199.5,284.5C 203.461,280.036 203.461,275.536 199.5,271C 190.514,266.585 181.181,265.585 171.5,268C 169.58,273.197 168.913,278.697 169.5,284.5C 168.25,284.423 167.417,283.756 167,282.5C 166.333,278.167 166.333,273.833 167,269.5C 167.273,267.671 168.107,266.171 169.5,265C 177.167,264.333 184.833,264.333 192.5,265C 195.184,265.778 197.517,267.111 199.5,269C 200.793,269.49 202.127,269.657 203.5,269.5C 205.855,276.545 204.521,282.712 199.5,288C 190.242,289.584 180.909,289.917 171.5,289C 170.402,288.23 170.402,287.397 171.5,286.5 Z"/></g>
<g><path style="opacity:0.659" fill="#df3897" d="M 236.5,263.5 C 238.045,264.23 238.878,265.563 239,267.5C 239.667,275.167 239.667,282.833 239,290.5C 237.727,292.714 236.727,295.047 236,297.5C 232.87,299.628 230.037,302.128 227.5,305C 226.552,305.483 225.552,305.649 224.5,305.5C 238.108,294.421 242.108,280.421 236.5,263.5 Z"/></g>
<g><path style="opacity:0.596" fill="#da63a7" d="M 366.5,220.5 C 374.327,228.604 379.327,238.271 381.5,249.5C 381.356,256.088 382.023,262.588 383.5,269C 381.939,282.987 378.273,296.321 372.5,309C 372.57,309.765 372.903,310.265 373.5,310.5C 373.5,311.167 373.167,311.5 372.5,311.5C 369.978,312.837 367.645,314.504 365.5,316.5C 364.614,317.325 364.281,318.325 364.5,319.5C 362.708,319.366 361.042,319.699 359.5,320.5C 361.782,317.878 364.115,315.212 366.5,312.5C 367.636,308.229 369.802,304.563 373,301.5C 375.428,294.889 377.428,288.222 379,281.5C 381.195,268.178 380.361,255.178 376.5,242.5C 375.644,238.43 374.477,234.43 373,230.5C 369.343,228.033 367.176,224.699 366.5,220.5 Z"/></g>
<g><path style="opacity:0.935" fill="#df1a86" d="M 218.5,258.5 C 223.579,265.249 225.746,272.916 225,281.5C 223.054,288.058 220.054,294.058 216,299.5C 214.028,301.232 211.861,302.565 209.5,303.5C 203.286,305.303 196.953,306.636 190.5,307.5C 179.41,307.528 168.41,306.694 157.5,305C 157.833,304.667 158.167,304.333 158.5,304C 171.34,303.831 184.007,303.331 196.5,302.5C 204.128,302.857 209.795,299.857 213.5,293.5C 214.458,293.047 215.292,292.381 216,291.5C 218.306,284.049 219.139,276.382 218.5,268.5C 219.46,265.235 219.46,261.902 218.5,258.5 Z"/></g>
<g><path style="opacity:0.927" fill="#df1986" d="M 373.5,284.5 C 374.693,284.97 375.36,285.97 375.5,287.5C 374.266,290.736 373.432,294.07 373,297.5C 369.666,302.163 366.833,307.163 364.5,312.5C 362.264,313.389 360.264,314.722 358.5,316.5C 357.583,315.873 356.583,315.539 355.5,315.5C 355.5,315.167 355.5,314.833 355.5,314.5C 362.908,308.988 367.575,301.655 369.5,292.5C 371.771,290.388 373.104,287.721 373.5,284.5 Z"/></g>
<g><path style="opacity:0.942" fill="#e51489" d="M 284.5,239.5 C 275.135,250.46 271.968,263.127 275,277.5C 276.613,286.387 280.113,294.387 285.5,301.5C 288.425,304.242 291.592,306.909 295,309.5C 296.011,308.663 297.178,308.33 298.5,308.5C 298.277,306.658 297.943,304.825 297.5,303C 297.684,301.624 298.351,300.791 299.5,300.5C 306.898,304.846 314.898,306.346 323.5,305C 331.427,304.044 337.76,300.544 342.5,294.5C 343.167,293.833 343.833,293.167 344.5,292.5C 349.875,292.172 355.208,292.505 360.5,293.5C 354.375,306.781 344.042,314.614 329.5,317C 298.934,322.241 278.934,310.407 269.5,281.5C 268.468,273.528 268.302,265.528 269,257.5C 269.972,252.405 271.805,247.738 274.5,243.5C 277.427,244.479 279.427,243.312 280.5,240C 281.793,239.51 283.127,239.343 284.5,239.5 Z"/></g>
<g><path style="opacity:0.942" fill="#e41186" d="M 134.5,303.5 C 135.169,308.787 138.169,312.121 143.5,313.5C 164.836,313.667 186.169,313.5 207.5,313C 212.036,312.396 216.37,311.229 220.5,309.5C 223.354,309.076 226.021,308.076 228.5,306.5C 230.3,303.546 232.633,302.879 235.5,304.5C 234.04,306.463 232.373,308.296 230.5,310C 221.956,314.28 212.956,316.78 203.5,317.5C 180.5,317.5 157.5,317.5 134.5,317.5C 134.5,312.833 134.5,308.167 134.5,303.5 Z"/></g>
<g><path style="opacity:0.842" fill="#e12892" d="M 209.5,303.5 C 207.594,304.482 205.594,305.482 203.5,306.5C 204.025,307.192 204.692,307.692 205.5,308C 212.065,308.877 218.398,308.044 224.5,305.5C 223.473,307.194 222.139,308.527 220.5,309.5C 216.37,311.229 212.036,312.396 207.5,313C 186.169,313.5 164.836,313.667 143.5,313.5C 143.5,312.167 143.5,310.833 143.5,309.5C 147.846,311.162 151.512,310.162 154.5,306.5C 161.066,307.662 167.732,308.329 174.5,308.5C 180.011,308.499 185.344,308.166 190.5,307.5C 196.953,306.636 203.286,305.303 209.5,303.5 Z"/></g>
<g><path style="opacity:1" fill="#fd50b6" d="M 269.5,281.5 C 278.934,310.407 298.934,322.241 329.5,317C 344.042,314.614 354.375,306.781 360.5,293.5C 355.208,292.505 349.875,292.172 344.5,292.5C 347.314,291.835 350.314,291.502 353.5,291.5C 356.939,291.554 360.106,292.22 363,293.5C 363.667,294.833 363.667,296.167 363,297.5C 358.209,300.469 355.709,304.802 355.5,310.5C 351.874,311.593 351.874,312.926 355.5,314.5C 355.5,314.833 355.5,315.167 355.5,315.5C 338.561,326.186 320.227,329.352 300.5,325C 284.743,320.399 273.076,310.899 265.5,296.5C 264.89,295.609 264.557,294.609 264.5,293.5C 265.5,293.5 266.5,293.5 267.5,293.5C 267.517,296.523 268.517,299.19 270.5,301.5C 272.936,302.891 273.602,302.391 272.5,300C 273.167,299.333 273.833,298.667 274.5,298C 271.06,293.083 269.394,287.583 269.5,281.5 Z"/></g>
<g><path style="opacity:0.612" fill="#d561a3" d="M 256.5,306.5 C 247.652,322.836 233.985,332.336 215.5,335C 209.452,335.252 203.452,335.752 197.5,336.5C 176.833,335.833 156.167,335.167 135.5,334.5C 159.502,334.667 183.502,334.5 207.5,334C 211.219,333.612 214.886,332.945 218.5,332C 222.875,330.827 226.875,328.994 230.5,326.5C 231.552,326.649 232.552,326.483 233.5,326C 235.899,324.02 237.899,321.853 239.5,319.5C 245.824,317.016 250.824,312.85 254.5,307C 255.094,306.536 255.761,306.369 256.5,306.5 Z"/></g>
<g><path style="opacity:0.651" fill="#d661a5" d="M 262.5,307.5 C 267.079,311.616 271.413,315.949 275.5,320.5C 278.937,322.094 282.27,323.927 285.5,326C 286.793,326.49 288.127,326.657 289.5,326.5C 290.058,327.79 291.058,328.623 292.5,329C 296.189,329.852 299.856,330.685 303.5,331.5C 305.371,332.797 307.371,333.797 309.5,334.5C 306.941,334.198 304.607,334.532 302.5,335.5C 288.045,332.521 275.879,325.521 266,314.5C 264.295,312.423 263.128,310.09 262.5,307.5 Z"/></g>
<g><path style="opacity:0.667" fill="#da53a2" d="M 364.5,312.5 C 365.167,312.5 365.833,312.5 366.5,312.5C 364.115,315.212 361.782,317.878 359.5,320.5C 355.234,323.309 350.901,326.142 346.5,329C 340.042,330.198 333.709,331.864 327.5,334C 321.509,334.499 315.509,334.666 309.5,334.5C 307.371,333.797 305.371,332.797 303.5,331.5C 318.584,333.847 333.25,332.347 347.5,327C 350.601,324.377 353.934,322.043 357.5,320C 360.011,317.656 362.344,315.156 364.5,312.5 Z"/></g>
<g><path style="opacity:0.79" fill="#dc3a97" d="M 239.5,319.5 C 237.899,321.853 235.899,324.02 233.5,326C 232.552,326.483 231.552,326.649 230.5,326.5C 225.463,327.676 220.463,329.009 215.5,330.5C 217.793,328.578 220.459,327.245 223.5,326.5C 228.803,324.184 234.136,321.851 239.5,319.5 Z"/></g>
<g><path style="opacity:0.923" fill="#db1f88" d="M 120.5,175.5 C 120.833,175.5 121.167,175.5 121.5,175.5C 121.333,223.834 121.5,272.168 122,320.5C 122.333,321.167 122.667,321.833 123,322.5C 123.278,321.584 123.778,320.918 124.5,320.5C 124.205,322.735 124.539,324.735 125.5,326.5C 153.97,328.786 182.637,329.619 211.5,329C 215.172,326.87 219.172,326.037 223.5,326.5C 220.459,327.245 217.793,328.578 215.5,330.5C 213.052,331.473 210.385,331.806 207.5,331.5C 182.831,331.667 158.164,331.5 133.5,331C 130.846,330.059 128.179,329.226 125.5,328.5C 122.789,326.725 120.789,324.391 119.5,321.5C 119.5,320.833 119.5,320.167 119.5,319.5C 119.5,272.167 119.5,224.833 119.5,177.5C 119.328,176.508 119.662,175.842 120.5,175.5 Z"/></g>
<g><path style="opacity:0.931" fill="#df1787" d="M 265.5,296.5 C 273.076,310.899 284.743,320.399 300.5,325C 320.227,329.352 338.561,326.186 355.5,315.5C 355.539,316.583 355.873,317.583 356.5,318.5C 351.573,321.302 346.573,324.135 341.5,327C 330.704,330.1 319.704,331.1 308.5,330C 302.176,328.635 295.843,327.468 289.5,326.5C 278.554,318.056 268.388,308.723 259,298.5C 257.527,298.903 256.194,299.57 255,300.5C 253.16,303.707 251.16,306.707 249,309.5C 244.954,312.045 241.787,315.378 239.5,319.5C 234.136,321.851 228.803,324.184 223.5,326.5C 219.172,326.037 215.172,326.87 211.5,329C 182.637,329.619 153.97,328.786 125.5,326.5C 153.502,326.667 181.502,326.5 209.5,326C 215.015,324.768 220.348,323.268 225.5,321.5C 238.743,316.718 247.743,307.718 252.5,294.5C 253.117,294.389 253.617,294.056 254,293.5C 254.667,294.833 255.667,295.833 257,296.5C 259.715,295.335 262.048,296.002 264,298.5C 264.717,297.956 265.217,297.289 265.5,296.5 Z"/></g>
<g><path style="opacity:0.8" fill="#dc3a96" d="M 289.5,326.5 C 288.127,326.657 286.793,326.49 285.5,326C 282.27,323.927 278.937,322.094 275.5,320.5C 271.413,315.949 267.079,311.616 262.5,307.5C 260.896,306.713 260.229,305.38 260.5,303.5C 258.381,303.468 257.048,304.468 256.5,306.5C 255.761,306.369 255.094,306.536 254.5,307C 250.824,312.85 245.824,317.016 239.5,319.5C 241.787,315.378 244.954,312.045 249,309.5C 251.16,306.707 253.16,303.707 255,300.5C 256.194,299.57 257.527,298.903 259,298.5C 268.388,308.723 278.554,318.056 289.5,326.5 Z"/></g>
<g><path style="opacity:0.816" fill="#db3593" d="M 364.5,312.5 C 362.344,315.156 360.011,317.656 357.5,320C 353.934,322.043 350.601,324.377 347.5,327C 333.25,332.347 318.584,333.847 303.5,331.5C 299.856,330.685 296.189,329.852 292.5,329C 291.058,328.623 290.058,327.79 289.5,326.5C 295.843,327.468 302.176,328.635 308.5,330C 319.704,331.1 330.704,330.1 341.5,327C 346.573,324.135 351.573,321.302 356.5,318.5C 355.873,317.583 355.539,316.583 355.5,315.5C 356.583,315.539 357.583,315.873 358.5,316.5C 360.264,314.722 362.264,313.389 364.5,312.5 Z"/></g>
<g><path style="opacity:0.49" fill="#da82b3" d="M 114.5,318.5 C 116.108,321.21 117.275,324.21 118,327.5C 120.121,330.119 122.621,332.119 125.5,333.5C 127.396,334.466 129.396,334.799 131.5,334.5C 132.833,334.5 134.167,334.5 135.5,334.5C 156.167,335.167 176.833,335.833 197.5,336.5C 171.477,336.878 145.477,336.378 119.5,335C 117.68,334.021 116.513,332.521 116,330.5C 115.608,326.472 115.108,322.472 114.5,318.5 Z"/></g>
<g><path style="opacity:0.624" fill="#d96faa" d="M 372.5,311.5 C 362.703,324.427 349.703,332.261 333.5,335C 323.186,336.777 312.852,336.943 302.5,335.5C 304.607,334.532 306.941,334.198 309.5,334.5C 315.509,334.666 321.509,334.499 327.5,334C 333.709,331.864 340.042,330.198 346.5,329C 350.901,326.142 355.234,323.309 359.5,320.5C 361.042,319.699 362.708,319.366 364.5,319.5C 364.281,318.325 364.614,317.325 365.5,316.5C 367.645,314.504 369.978,312.837 372.5,311.5 Z"/></g>
<g><path style="opacity:0.686" fill="#da529f" d="M 119.5,321.5 C 120.789,324.391 122.789,326.725 125.5,328.5C 127.209,330.813 129.543,332.313 132.5,333C 154.5,333.667 176.5,333.667 198.5,333C 201.695,332.819 204.695,332.319 207.5,331.5C 210.385,331.806 213.052,331.473 215.5,330.5C 220.463,329.009 225.463,327.676 230.5,326.5C 226.875,328.994 222.875,330.827 218.5,332C 214.886,332.945 211.219,333.612 207.5,334C 183.502,334.5 159.502,334.667 135.5,334.5C 134.167,334.5 132.833,334.5 131.5,334.5C 127.682,332.886 124.182,330.552 121,327.5C 120.187,325.564 119.687,323.564 119.5,321.5 Z"/></g>
<g><path style="opacity:0.725" fill="#dc4198" d="M 125.5,328.5 C 128.179,329.226 130.846,330.059 133.5,331C 158.164,331.5 182.831,331.667 207.5,331.5C 204.695,332.319 201.695,332.819 198.5,333C 176.5,333.667 154.5,333.667 132.5,333C 129.543,332.313 127.209,330.813 125.5,328.5 Z"/></g>
</svg>
