<?xml version="1.0" encoding="UTF-8"?>
<!DOCTYPE svg PUBLIC "-//W3C//DTD SVG 1.1//EN" "http://www.w3.org/Graphics/SVG/1.1/DTD/svg11.dtd">
<svg xmlns="http://www.w3.org/2000/svg" version="1.1" width="809px" height="683px" style="shape-rendering:geometricPrecision; text-rendering:geometricPrecision; image-rendering:optimizeQuality; fill-rule:evenodd; clip-rule:evenodd" xmlns:xlink="http://www.w3.org/1999/xlink">
<g><path style="opacity:1" fill="#fdfdfd" d="M -0.5,-0.5 C 269.167,-0.5 538.833,-0.5 808.5,-0.5C 808.5,227.167 808.5,454.833 808.5,682.5C 538.833,682.5 269.167,682.5 -0.5,682.5C -0.5,454.833 -0.5,227.167 -0.5,-0.5 Z"/></g>
<g><path style="opacity:1" fill="#292929" d="M 515.5,6.5 C 567.214,8.07635 617.214,17.9097 665.5,36C 710.223,56.3853 749.723,84.2186 784,119.5C 787.841,123.183 790.674,127.517 792.5,132.5C 792.023,133.478 791.357,134.311 790.5,135C 760.142,148.516 730.142,162.516 700.5,177C 696.93,177.804 693.763,176.97 691,174.5C 652.443,107.606 598.276,57.7724 528.5,25C 519.802,20.3187 511.135,15.652 502.5,11C 503.328,10.0853 504.328,9.41862 505.5,9C 508.991,8.26201 512.325,7.42868 515.5,6.5 Z"/></g>
<g><path style="opacity:1" fill="#fcfcfc" d="M 511.5,9.5 C 613.55,8.44338 701.384,42.7767 775,112.5C 779.107,117.727 783.44,122.727 788,127.5C 789.301,129.365 789.635,131.365 789,133.5C 759.145,147.126 729.312,160.96 699.5,175C 697.08,175.687 694.913,175.187 693,173.5C 649.559,99.7251 588.392,46.2251 509.5,13C 508.833,12.3333 508.167,11.6667 507.5,11C 509.058,10.79 510.391,10.29 511.5,9.5 Z"/></g>
<g><path style="opacity:1" fill="#272727" d="M 150.5,321.5 C 149.833,322.167 149.167,322.833 148.5,323.5C 161.422,257.789 196.422,207.622 253.5,173C 313.174,141.691 375.174,136.358 439.5,157C 482.505,173.989 517.338,201.489 544,239.5C 545.562,241.91 547.729,243.244 550.5,243.5C 553.581,242.973 556.581,242.14 559.5,241C 589.428,226.704 619.428,212.371 649.5,198C 656.532,195.147 663.532,192.314 670.5,189.5C 668.21,183.588 665.377,177.921 662,172.5C 610.919,95.1354 540.419,44.3021 450.5,20C 325.101,-7.36649 214.768,21.3002 119.5,106C 57.8639,165.44 21.8639,237.94 11.5,323.5C 10.8333,322.167 10.1667,320.833 9.5,319.5C 26.9532,203.039 85.9532,114.539 186.5,54C 282.121,1.72582 381.788,-6.60751 485.5,29C 561.443,57.2889 621.277,105.456 665,173.5C 667.367,177.853 669.7,182.187 672,186.5C 672.667,187.5 672.667,188.5 672,189.5C 669.92,191.123 667.754,192.623 665.5,194C 629.199,210.153 593.199,226.819 557.5,244C 553.928,245.405 550.261,245.738 546.5,245C 525.212,215.04 498.879,190.706 467.5,172C 404.215,140.707 339.881,138.374 274.5,165C 207.806,196.883 166.472,249.049 150.5,321.5 Z"/></g>
<g><path style="opacity:1" fill="#fdfdfd" d="M 148.5,323.5 C 102.833,323.5 57.1667,323.5 11.5,323.5C 21.8639,237.94 57.8639,165.44 119.5,106C 214.768,21.3002 325.101,-7.36649 450.5,20C 540.419,44.3021 610.919,95.1354 662,172.5C 665.377,177.921 668.21,183.588 670.5,189.5C 663.532,192.314 656.532,195.147 649.5,198C 619.428,212.371 589.428,226.704 559.5,241C 556.581,242.14 553.581,242.973 550.5,243.5C 547.729,243.244 545.562,241.91 544,239.5C 517.338,201.489 482.505,173.989 439.5,157C 375.174,136.358 313.174,141.691 253.5,173C 196.422,207.622 161.422,257.789 148.5,323.5 Z"/></g>
<g><path style="opacity:1" fill="#313131" d="M 310.5,325.5 C 308.833,325.5 307.167,325.5 305.5,325.5C 261.833,324.833 218.167,324.167 174.5,323.5C 173.833,323.5 173.167,323.5 172.5,323.5C 183.979,269.521 212.979,227.688 259.5,198C 307.604,167.924 358.937,160.59 413.5,176C 379.424,198.072 352.257,226.572 332,261.5C 322.059,281.944 314.892,303.277 310.5,325.5 Z"/></g>
<g><path style="opacity:1" fill="#fdfdfd" d="M 174.5,323.5 C 189.704,258.472 227.704,212.305 288.5,185C 321.569,171.408 355.902,167.075 391.5,172C 397.38,172.808 403.046,174.308 408.5,176.5C 382.616,194.215 360.45,215.882 342,241.5C 325.342,266.489 314.509,293.822 309.5,323.5C 264.5,323.5 219.5,323.5 174.5,323.5 Z"/></g>
<g><path style="opacity:1" fill="#1f1f1f" d="M 9.5,319.5 C 10.1667,320.833 10.8333,322.167 11.5,323.5C 57.1667,323.5 102.833,323.5 148.5,323.5C 149.167,322.833 149.833,322.167 150.5,321.5C 150.5,322.833 150.5,324.167 150.5,325.5C 148.5,325.5 146.5,325.5 144.5,325.5C 144.5,327.167 144.5,328.833 144.5,330.5C 140.629,330.185 136.962,330.518 133.5,331.5C 133.5,333.5 133.5,335.5 133.5,337.5C 137.167,337.5 140.833,337.5 144.5,337.5C 144.5,339.167 144.5,340.833 144.5,342.5C 140.833,342.5 137.167,342.5 133.5,342.5C 133.5,345.167 133.5,347.833 133.5,350.5C 137.5,350.5 141.5,350.5 145.5,350.5C 145.025,353.082 145.692,355.082 147.5,356.5C 147.806,359.385 147.473,362.052 146.5,364.5C 146.795,362.265 146.461,360.265 145.5,358.5C 136.833,357.833 128.167,357.167 119.5,356.5C 122.385,356.806 125.052,356.473 127.5,355.5C 127.931,343.446 127.598,335.446 126.5,331.5C 123.833,331.5 121.167,331.5 118.5,331.5C 117.167,339.833 117.167,348.167 118.5,356.5C 100.5,357.167 82.5,357.833 64.5,358.5C 63.5,358.5 62.5,358.5 61.5,358.5C 60.0484,357.698 58.3817,357.198 56.5,357C 58.1341,356.506 59.8008,356.34 61.5,356.5C 63.4743,346.889 64.141,336.889 63.5,326.5C 60.1076,325.167 56.7743,325.5 53.5,327.5C 50.1667,327.5 46.8333,327.5 43.5,327.5C 42.1782,336.342 42.1782,345.342 43.5,354.5C 44.1067,354.376 44.44,354.043 44.5,353.5C 45.4816,350.038 45.815,346.371 45.5,342.5C 48.5701,342.368 51.5701,342.701 54.5,343.5C 55.4822,346.763 56.1489,350.097 56.5,353.5C 58.0311,354.925 57.6977,355.591 55.5,355.5C 55.27,351.496 54.1033,347.829 52,344.5C 50.3005,343.594 48.4672,343.261 46.5,343.5C 46.5,347.833 46.5,352.167 46.5,356.5C 44.5,357.833 42.5,357.833 40.5,356.5C 41.4942,346.347 41.8276,336.014 41.5,325.5C 40.1667,325.5 38.8333,325.5 37.5,325.5C 37.5,327.167 37.5,328.833 37.5,330.5C 36.1667,330.5 34.8333,330.5 33.5,330.5C 24.063,329.77 19.8964,334.104 21,343.5C 21.9794,346.625 23.8127,349.125 26.5,351C 30.404,351.288 34.0707,351.454 37.5,351.5C 37.5,352.833 37.5,354.167 37.5,355.5C 32.5,356.003 32.8333,356.336 38.5,356.5C 38.8333,356.5 39.1667,356.5 39.5,356.5C 30.1667,357.167 20.8333,357.833 11.5,358.5C 13.5573,376.731 16.8906,394.731 21.5,412.5C 21.7373,413.791 21.404,414.791 20.5,415.5C 15.544,397.1 11.8774,378.433 9.5,359.5C 9.5,358.5 9.5,357.5 9.5,356.5C 14.8437,356.666 20.1771,356.499 25.5,356C 24.255,355.209 22.9217,354.709 21.5,354.5C 16.9446,351.216 14.9446,346.716 15.5,341C 15.4429,338.04 15.9429,335.207 17,332.5C 19.0627,330.266 21.2294,328.266 23.5,326.5C 19.03,325.514 14.3633,325.181 9.5,325.5C 9.5,323.833 9.5,322.167 9.5,320.5C 9.5,320.167 9.5,319.833 9.5,319.5 Z"/></g>
<g><path style="opacity:1" fill="#0c0c0c" d="M 172.5,323.5 C 173.167,323.5 173.833,323.5 174.5,323.5C 218.167,324.167 261.833,324.833 305.5,325.5C 292.167,325.5 278.833,325.5 265.5,325.5C 263.833,325.5 262.167,325.5 260.5,325.5C 230.814,326.159 201.481,325.492 172.5,323.5 Z"/></g>
<g><path style="opacity:1" fill="#7a7a7a" d="M 9.5,320.5 C 9.5,322.167 9.5,323.833 9.5,325.5C 14.3633,325.181 19.03,325.514 23.5,326.5C 18.5,326.5 13.5,326.5 8.5,326.5C 8.20528,324.265 8.53862,322.265 9.5,320.5 Z"/></g>
<g><path style="opacity:1" fill="#868686" d="M 91.5,327.5 C 88.3752,326.521 85.0419,326.187 81.5,326.5C 81.5,328.167 81.5,329.833 81.5,331.5C 77.5,331.5 73.5,331.5 69.5,331.5C 72.9619,330.518 76.6286,330.185 80.5,330.5C 80.5,328.833 80.5,327.167 80.5,325.5C 84.5546,325.176 88.5546,325.509 92.5,326.5C 92.3764,327.107 92.0431,327.44 91.5,327.5 Z"/></g>
<g><path style="opacity:1" fill="#7f7f7f" d="M 103.5,326.5 C 102.167,326.5 100.833,326.5 99.5,326.5C 99.5,327.5 99.5,328.5 99.5,329.5C 98.8333,328.833 98.1667,328.167 97.5,327.5C 97.9704,326.307 98.9704,325.64 100.5,325.5C 101.726,325.52 102.726,325.853 103.5,326.5 Z"/></g>
<g><path style="opacity:1" fill="#727272" d="M 172.5,323.5 C 201.481,325.492 230.814,326.159 260.5,325.5C 260.5,326.167 260.5,326.833 260.5,327.5C 260.828,332.875 260.495,338.208 259.5,343.5C 258.702,343.043 258.369,342.376 258.5,341.5C 259.487,336.695 259.821,331.695 259.5,326.5C 255.958,326.187 252.625,326.521 249.5,327.5C 248.448,327.351 247.448,327.517 246.5,328C 249.166,329.833 250.832,332.333 251.5,335.5C 251.5,335.833 251.5,336.167 251.5,336.5C 249.461,335.328 248.128,333.662 247.5,331.5C 247.5,330.167 246.833,329.5 245.5,329.5C 245.5,328.167 244.833,327.5 243.5,327.5C 239.833,326.167 236.167,326.167 232.5,327.5C 230.549,326.359 228.549,326.359 226.5,327.5C 222.833,326.167 219.167,326.167 215.5,327.5C 214.662,327.842 214.328,328.508 214.5,329.5C 213.833,329.5 213.167,329.5 212.5,329.5C 211.633,330.887 210.966,333.554 210.5,337.5C 210.5,333.833 210.5,330.167 210.5,326.5C 206.629,326.185 202.962,326.518 199.5,327.5C 197.833,327.5 196.167,327.5 194.5,327.5C 193.5,326.167 192.5,326.167 191.5,327.5C 187.484,326.257 183.484,326.257 179.5,327.5C 177.052,326.527 174.385,326.194 171.5,326.5C 171.263,325.209 171.596,324.209 172.5,323.5 Z"/></g>
<g><path style="opacity:1" fill="#f0f0f0" d="M 91.5,327.5 C 88.0356,337.06 84.8689,346.727 82,356.5C 81.5065,354.866 81.3398,353.199 81.5,351.5C 77.5,351.5 73.5,351.5 69.5,351.5C 69.5,348.5 69.5,345.5 69.5,342.5C 73.1667,342.5 76.8333,342.5 80.5,342.5C 80.5,340.833 80.5,339.167 80.5,337.5C 76.8333,337.5 73.1667,337.5 69.5,337.5C 69.5,335.5 69.5,333.5 69.5,331.5C 73.5,331.5 77.5,331.5 81.5,331.5C 81.5,329.833 81.5,328.167 81.5,326.5C 85.0419,326.187 88.3752,326.521 91.5,327.5 Z"/></g>
<g><path style="opacity:1" fill="#f0f0f0" d="M 210.5,337.5 C 206.833,337.5 203.167,337.5 199.5,337.5C 199.5,334.167 199.5,330.833 199.5,327.5C 202.962,326.518 206.629,326.185 210.5,326.5C 210.5,330.167 210.5,333.833 210.5,337.5 Z"/></g>
<g><path style="opacity:1" fill="#f7f7f7" d="M 215.5,327.5 C 219.167,326.167 222.833,326.167 226.5,327.5C 224.359,334.59 222.026,341.59 219.5,348.5C 218.849,349.091 218.182,349.757 217.5,350.5C 216.833,342.677 216.167,335.01 215.5,327.5 Z"/></g>
<g><path style="opacity:1" fill="#f2f2f2" d="M 232.5,327.5 C 236.167,326.167 239.833,326.167 243.5,327.5C 243.5,336.5 243.5,345.5 243.5,354.5C 242.833,355.833 242.167,355.833 241.5,354.5C 239.297,345.127 236.297,336.127 232.5,327.5 Z"/></g>
<g><path style="opacity:1" fill="#f4f4f4" d="M 258.5,341.5 C 255.5,336.833 252.5,332.167 249.5,327.5C 252.625,326.521 255.958,326.187 259.5,326.5C 259.821,331.695 259.487,336.695 258.5,341.5 Z"/></g>
<g><path style="opacity:1" fill="#515151" d="M 63.5,326.5 C 61.4727,326.338 59.4727,326.505 57.5,327C 58.056,327.383 58.3893,327.883 58.5,328.5C 57.6618,328.842 57.3284,329.508 57.5,330.5C 56.1283,329.488 54.795,328.488 53.5,327.5C 56.7743,325.5 60.1076,325.167 63.5,326.5 Z"/></g>
<g><path style="opacity:1" fill="#ababab" d="M 105.5,327.5 C 111.868,327.17 118.202,327.504 124.5,328.5C 121.914,329.48 119.247,329.813 116.5,329.5C 115.833,362.833 115.167,362.833 114.5,329.5C 110.988,330.055 107.988,329.388 105.5,327.5 Z"/></g>
<g><path style="opacity:1" fill="#1b1b1b" d="M 191.5,327.5 C 192.791,328.542 192.791,329.708 191.5,331C 188.167,331.333 184.833,331.667 181.5,332C 179.676,332.66 178.343,333.827 177.5,335.5C 175.884,339.995 176.384,344.329 179,348.5C 182.648,350.684 186.481,351.018 190.5,349.5C 193.42,352.505 192.754,354.338 188.5,355C 185.445,355.634 182.445,355.468 179.5,354.5C 171.372,349.713 168.872,342.713 172,333.5C 174.086,330.906 176.586,328.906 179.5,327.5C 183.484,326.257 187.484,326.257 191.5,327.5 Z"/></g>
<g><path style="opacity:1" fill="#181818" d="M 45.5,328.5 C 49.2194,328.002 52.5527,328.836 55.5,331C 56.4231,333.041 56.7564,335.208 56.5,337.5C 54.0997,340.24 51.0997,341.073 47.5,340C 49.3817,339.802 51.0484,339.302 52.5,338.5C 54.1484,336.544 54.8151,334.211 54.5,331.5C 51.8728,330.908 49.2062,330.575 46.5,330.5C 46.5,333.167 46.5,335.833 46.5,338.5C 45.4514,336.614 45.1181,333.28 45.5,328.5 Z"/></g>
<g><path style="opacity:1" fill="#bebebe" d="M 23.5,352.5 C 20.909,351.746 19.0757,350.079 18,347.5C 15.2664,333.079 21.0998,326.579 35.5,328C 22.7244,327.776 17.5577,333.943 20,346.5C 21.3937,348.388 22.5604,350.388 23.5,352.5 Z"/></g>
<g><path style="opacity:1" fill="#f5f5f5" d="M 103.5,326.5 C 103.5,327.833 103.5,329.167 103.5,330.5C 105.948,331.473 108.615,331.806 111.5,331.5C 111.5,339.5 111.5,347.5 111.5,355.5C 109.801,355.473 108.467,354.806 107.5,353.5C 104.647,345.607 101.98,337.607 99.5,329.5C 99.5,328.5 99.5,327.5 99.5,326.5C 100.833,326.5 102.167,326.5 103.5,326.5 Z"/></g>
<g><path style="opacity:1" fill="#181818" d="M 309.5,331.5 C 306.167,331.5 302.833,331.5 299.5,331.5C 299.5,333.5 299.5,335.5 299.5,337.5C 302.833,337.5 306.167,337.5 309.5,337.5C 309.5,339.167 309.5,340.833 309.5,342.5C 306.167,342.5 302.833,342.5 299.5,342.5C 299.5,345.167 299.5,347.833 299.5,350.5C 303.167,350.5 306.833,350.5 310.5,350.5C 310.5,351.833 310.5,353.167 310.5,354.5C 305.167,354.5 299.833,354.5 294.5,354.5C 294.334,345.494 294.5,336.494 295,327.5C 299.737,326.531 304.57,326.197 309.5,326.5C 309.5,328.167 309.5,329.833 309.5,331.5 Z"/></g>
<g><path style="opacity:1" fill="#e5e5e5" d="M 130.5,327.5 C 134.846,327.334 139.179,327.501 143.5,328C 139.514,328.499 135.514,328.666 131.5,328.5C 131.5,332.167 131.5,335.833 131.5,339.5C 131.5,340.167 131.5,340.833 131.5,341.5C 131.5,345.167 131.5,348.833 131.5,352.5C 130.501,344.92 130.168,336.587 130.5,327.5 Z"/></g>
<g><path style="opacity:1" fill="#a0a0a0" d="M 150.5,325.5 C 149.081,326.451 147.415,326.784 145.5,326.5C 145.5,328.167 145.5,329.833 145.5,331.5C 141.5,331.5 137.5,331.5 133.5,331.5C 136.962,330.518 140.629,330.185 144.5,330.5C 144.5,328.833 144.5,327.167 144.5,325.5C 146.5,325.5 148.5,325.5 150.5,325.5 Z"/></g>
<g><path style="opacity:1" fill="#fbfbfb" d="M 127.5,355.5 C 124.5,355.5 121.5,355.5 118.5,355.5C 118.5,347.5 118.5,339.5 118.5,331.5C 121.167,331.5 123.833,331.5 126.5,331.5C 127.598,335.446 127.931,343.446 127.5,355.5 Z"/></g>
<g><path style="opacity:1" fill="#f5f5f5" d="M 40.5,356.5 C 40.1667,356.5 39.8333,356.5 39.5,356.5C 39.1667,356.5 38.8333,356.5 38.5,356.5C 38.7845,354.585 38.4511,352.919 37.5,351.5C 34.0707,351.454 30.404,351.288 26.5,351C 23.8127,349.125 21.9794,346.625 21,343.5C 19.8964,334.104 24.063,329.77 33.5,330.5C 34.9187,331.451 36.5853,331.784 38.5,331.5C 38.2148,329.712 38.5481,328.045 39.5,326.5C 40.4985,336.478 40.8319,346.478 40.5,356.5 Z"/></g>
<g><path style="opacity:1" fill="#dddddd" d="M 43.5,327.5 C 46.8333,327.5 50.1667,327.5 53.5,327.5C 54.795,328.488 56.1283,329.488 57.5,330.5C 58.7563,332.941 58.7563,335.274 57.5,337.5C 57.1667,337.5 56.8333,337.5 56.5,337.5C 56.7564,335.208 56.4231,333.041 55.5,331C 52.5527,328.836 49.2194,328.002 45.5,328.5C 44.5073,336.65 44.1739,344.983 44.5,353.5C 43.507,345.016 43.1736,336.349 43.5,327.5 Z"/></g>
<g><path style="opacity:1" fill="#eeeeee" d="M 287.5,326.5 C 289.5,326.5 291.5,326.5 293.5,326.5C 293.5,335.833 293.5,345.167 293.5,354.5C 291.167,355.833 288.833,355.833 286.5,354.5C 288.099,354.768 289.432,354.434 290.5,353.5C 291.487,348.695 291.821,343.695 291.5,338.5C 287.629,338.185 283.962,338.518 280.5,339.5C 280.5,340.833 280.5,342.167 280.5,343.5C 282.167,343.5 283.833,343.5 285.5,343.5C 285.5,345.833 285.5,348.167 285.5,350.5C 275.027,350.953 271.194,345.953 274,335.5C 278.141,331.497 282.974,330.497 288.5,332.5C 289.771,330.194 289.438,328.194 287.5,326.5 Z"/></g>
<g><path style="opacity:1" fill="#e8e8e8" d="M 52.5,338.5 C 50.5,338.5 48.5,338.5 46.5,338.5C 46.5,335.833 46.5,333.167 46.5,330.5C 49.2062,330.575 51.8728,330.908 54.5,331.5C 54.8151,334.211 54.1484,336.544 52.5,338.5 Z"/></g>
<g><path style="opacity:1" fill="#f8f8f8" d="M 191.5,327.5 C 192.5,326.167 193.5,326.167 194.5,327.5C 194.5,335.833 194.5,344.167 194.5,352.5C 193.751,351.469 193.085,350.302 192.5,349C 189.2,349.046 185.866,349.212 182.5,349.5C 182.981,345.651 181.314,343.651 177.5,343.5C 177.5,340.833 177.5,338.167 177.5,335.5C 178.343,333.827 179.676,332.66 181.5,332C 184.833,331.667 188.167,331.333 191.5,331C 192.791,329.708 192.791,328.542 191.5,327.5 Z"/></g>
<g><path style="opacity:1" fill="#aeaeae" d="M 103.5,330.5 C 106.5,330.5 109.5,330.5 112.5,330.5C 112.5,339.167 112.5,347.833 112.5,356.5C 110.833,356.5 109.167,356.5 107.5,356.5C 107.5,355.5 107.5,354.5 107.5,353.5C 108.467,354.806 109.801,355.473 111.5,355.5C 111.5,347.5 111.5,339.5 111.5,331.5C 108.615,331.806 105.948,331.473 103.5,330.5 Z"/></g>
<g><path style="opacity:1" fill="#848484" d="M 118.5,331.5 C 118.5,339.5 118.5,347.5 118.5,355.5C 121.5,355.5 124.5,355.5 127.5,355.5C 125.052,356.473 122.385,356.806 119.5,356.5C 119.167,356.5 118.833,356.5 118.5,356.5C 117.167,348.167 117.167,339.833 118.5,331.5 Z"/></g>
<g><path style="opacity:1" fill="#b5b5b5" d="M 65.5,327.5 C 70.1785,327.334 74.8452,327.501 79.5,328C 75.5138,328.499 71.5138,328.666 67.5,328.5C 67.5,332.167 67.5,335.833 67.5,339.5C 80.8333,339.833 80.8333,340.167 67.5,340.5C 67.5,344.5 67.5,348.5 67.5,352.5C 71.5546,352.176 75.5546,352.509 79.5,353.5C 74.8804,354.493 70.2137,354.827 65.5,354.5C 65.5,345.5 65.5,336.5 65.5,327.5 Z"/></g>
<g><path style="opacity:1" fill="#f0f0f0" d="M 63.5,326.5 C 64.141,336.889 63.4743,346.889 61.5,356.5C 60.7133,351.52 59.3799,346.687 57.5,342C 60.8323,337.58 61.1657,333.08 58.5,328.5C 58.3893,327.883 58.056,327.383 57.5,327C 59.4727,326.505 61.4727,326.338 63.5,326.5 Z"/></g>
<g><path style="opacity:1" fill="#7a7a7a" d="M 265.5,326.5 C 265.5,326.167 265.5,325.833 265.5,325.5C 278.833,325.5 292.167,325.5 305.5,325.5C 307.167,325.5 308.833,325.5 310.5,325.5C 310.795,327.735 310.461,329.735 309.5,331.5C 309.5,329.833 309.5,328.167 309.5,326.5C 304.57,326.197 299.737,326.531 295,327.5C 294.5,336.494 294.334,345.494 294.5,354.5C 294.167,354.5 293.833,354.5 293.5,354.5C 293.5,345.167 293.5,335.833 293.5,326.5C 291.5,326.5 289.5,326.5 287.5,326.5C 284.098,326.342 280.764,326.676 277.5,327.5C 273.702,326.517 269.702,326.183 265.5,326.5 Z"/></g>
<g><path style="opacity:1" fill="#b9b9b9" d="M 97.5,327.5 C 99.4213,335.6 101.755,343.6 104.5,351.5C 104.333,352.167 104.167,352.833 104,353.5C 102.659,350.978 101.826,348.311 101.5,345.5C 97.1667,345.5 92.8333,345.5 88.5,345.5C 88.1743,348.311 87.3409,350.978 86,353.5C 85.3333,352.167 85.3333,350.833 86,349.5C 88.3333,342.5 90.6667,335.5 93,328.5C 94.3561,327.62 95.8561,327.286 97.5,327.5 Z"/></g>
<g><path style="opacity:1" fill="#1e1e1e" d="M 94.5,329.5 C 97.0512,333.785 99.0512,338.452 100.5,343.5C 97.2317,344.487 93.8984,344.82 90.5,344.5C 91.3633,339.381 92.6966,334.381 94.5,329.5 Z"/></g>
<g><path style="opacity:1" fill="#dadada" d="M 94.5,334.5 C 96.2671,336.792 97.2671,339.458 97.5,342.5C 95.8333,342.5 94.1667,342.5 92.5,342.5C 92.9628,339.779 93.6295,337.112 94.5,334.5 Z"/></g>
<g><path style="opacity:1" fill="#aeaeae" d="M 180.5,328.5 C 183.518,328.335 186.518,328.502 189.5,329C 178.247,328.917 173.414,334.417 175,345.5C 178.586,351.359 183.753,353.525 190.5,352C 177.848,355.577 172.015,350.743 173,337.5C 174.124,333.196 176.624,330.196 180.5,328.5 Z"/></g>
<g><path style="opacity:1" fill="#646464" d="M 131.5,339.5 C 147.304,339.698 147.304,340.364 131.5,341.5C 131.5,340.833 131.5,340.167 131.5,339.5 Z"/></g>
<g><path style="opacity:1" fill="#828282" d="M 43.5,327.5 C 43.1736,336.349 43.507,345.016 44.5,353.5C 44.44,354.043 44.1067,354.376 43.5,354.5C 42.1782,345.342 42.1782,336.342 43.5,327.5 Z"/></g>
<g><path style="opacity:1" fill="#7a7a7a" d="M 40.5,356.5 C 40.8319,346.478 40.4985,336.478 39.5,326.5C 38.5481,328.045 38.2148,329.712 38.5,331.5C 36.5853,331.784 34.9187,331.451 33.5,330.5C 34.8333,330.5 36.1667,330.5 37.5,330.5C 37.5,328.833 37.5,327.167 37.5,325.5C 38.8333,325.5 40.1667,325.5 41.5,325.5C 41.8276,336.014 41.4942,346.347 40.5,356.5 Z"/></g>
<g><path style="opacity:1" fill="#5e5e5e" d="M 45.5,328.5 C 45.1181,333.28 45.4514,336.614 46.5,338.5C 48.5,338.5 50.5,338.5 52.5,338.5C 51.0484,339.302 49.3817,339.802 47.5,340C 51.0997,341.073 54.0997,340.24 56.5,337.5C 56.8333,337.5 57.1667,337.5 57.5,337.5C 56.5244,338.815 55.5244,340.148 54.5,341.5C 54.8627,342.183 55.1961,342.85 55.5,343.5C 55.1667,343.5 54.8333,343.5 54.5,343.5C 51.5701,342.701 48.5701,342.368 45.5,342.5C 45.815,346.371 45.4816,350.038 44.5,353.5C 44.1739,344.983 44.5073,336.65 45.5,328.5 Z"/></g>
<g><path style="opacity:1" fill="#191919" d="M 194.5,327.5 C 196.167,327.5 197.833,327.5 199.5,327.5C 199.5,330.833 199.5,334.167 199.5,337.5C 203.167,337.5 206.833,337.5 210.5,337.5C 210.966,333.554 211.633,330.887 212.5,329.5C 212.5,332.833 212.5,336.167 212.5,339.5C 195.167,339.833 195.167,340.167 212.5,340.5C 212.176,344.555 212.509,348.555 213.5,352.5C 214.497,344.862 214.831,337.196 214.5,329.5C 214.328,328.508 214.662,327.842 215.5,327.5C 215.5,336.5 215.5,345.5 215.5,354.5C 213.833,354.5 212.167,354.5 210.5,354.5C 210.5,350.5 210.5,346.5 210.5,342.5C 206.833,342.5 203.167,342.5 199.5,342.5C 199.5,346.5 199.5,350.5 199.5,354.5C 197.219,354.923 195.552,354.256 194.5,352.5C 194.5,344.167 194.5,335.833 194.5,327.5 Z"/></g>
<g><path style="opacity:1" fill="#bcbcbc" d="M 212.5,329.5 C 213.167,329.5 213.833,329.5 214.5,329.5C 214.831,337.196 214.497,344.862 213.5,352.5C 212.509,348.555 212.176,344.555 212.5,340.5C 195.167,340.167 195.167,339.833 212.5,339.5C 212.5,336.167 212.5,332.833 212.5,329.5 Z"/></g>
<g><path style="opacity:1" fill="#202020" d="M 260.5,325.5 C 262.167,325.5 263.833,325.5 265.5,325.5C 265.5,325.833 265.5,326.167 265.5,326.5C 265.5,335.833 265.5,345.167 265.5,354.5C 263.833,354.5 262.167,354.5 260.5,354.5C 256.921,348.737 253.088,343.071 249,337.5C 248.501,343.157 248.334,348.824 248.5,354.5C 246.833,354.5 245.167,354.5 243.5,354.5C 243.5,345.5 243.5,336.5 243.5,327.5C 244.833,327.5 245.5,328.167 245.5,329.5C 245.334,337.174 245.5,344.841 246,352.5C 246.171,345.321 246.671,338.321 247.5,331.5C 248.128,333.662 249.461,335.328 251.5,336.5C 254.309,341.445 257.143,346.445 260,351.5C 261.011,352.337 262.178,352.67 263.5,352.5C 264.499,344.92 264.832,336.587 264.5,327.5C 263.167,327.5 261.833,327.5 260.5,327.5C 260.5,326.833 260.5,326.167 260.5,325.5 Z"/></g>
<g><path style="opacity:1" fill="#b8b8b8" d="M 245.5,329.5 C 246.833,329.5 247.5,330.167 247.5,331.5C 246.671,338.321 246.171,345.321 246,352.5C 245.5,344.841 245.334,337.174 245.5,329.5 Z"/></g>
<g><path style="opacity:1" fill="#131313" d="M 249.5,327.5 C 252.5,332.167 255.5,336.833 258.5,341.5C 258.369,342.376 258.702,343.043 259.5,343.5C 260.495,338.208 260.828,332.875 260.5,327.5C 261.833,327.5 263.167,327.5 264.5,327.5C 264.832,336.587 264.499,344.92 263.5,352.5C 263.5,344.833 263.5,337.167 263.5,329.5C 263.44,328.957 263.107,328.624 262.5,328.5C 261.183,334.988 261.183,341.322 262.5,347.5C 262.361,349.337 261.694,349.67 260.5,348.5C 257.724,343.926 254.724,339.593 251.5,335.5C 250.832,332.333 249.166,329.833 246.5,328C 247.448,327.517 248.448,327.351 249.5,327.5 Z"/></g>
<g><path style="opacity:1" fill="#707070" d="M 263.5,329.5 C 262.51,335.31 262.177,341.31 262.5,347.5C 261.183,341.322 261.183,334.988 262.5,328.5C 263.107,328.624 263.44,328.957 263.5,329.5 Z"/></g>
<g><path style="opacity:1" fill="#e6e6e6" d="M 260.5,354.5 C 256.5,355.833 252.5,355.833 248.5,354.5C 248.334,348.824 248.501,343.157 249,337.5C 253.088,343.071 256.921,348.737 260.5,354.5 Z"/></g>
<g><path style="opacity:1" fill="#a5a5a5" d="M 263.5,329.5 C 263.5,337.167 263.5,344.833 263.5,352.5C 262.178,352.67 261.011,352.337 260,351.5C 257.143,346.445 254.309,341.445 251.5,336.5C 251.5,336.167 251.5,335.833 251.5,335.5C 254.724,339.593 257.724,343.926 260.5,348.5C 261.694,349.67 262.361,349.337 262.5,347.5C 262.177,341.31 262.51,335.31 263.5,329.5 Z"/></g>
<g><path style="opacity:1" fill="#898989" d="M 280.5,339.5 C 283.962,338.518 287.629,338.185 291.5,338.5C 291.821,343.695 291.487,348.695 290.5,353.5C 290.5,348.833 290.5,344.167 290.5,339.5C 287.167,339.5 283.833,339.5 280.5,339.5 Z"/></g>
<g><path style="opacity:1" fill="#dadada" d="M 296.5,328.5 C 300.514,328.334 304.514,328.501 308.5,329C 304.848,329.499 301.182,329.665 297.5,329.5C 297.5,332.833 297.5,336.167 297.5,339.5C 310.833,339.833 310.833,340.167 297.5,340.5C 297.5,344.167 297.5,347.833 297.5,351.5C 296.508,344.018 296.175,336.352 296.5,328.5 Z"/></g>
<g><path style="opacity:1" fill="#838383" d="M 296.5,328.5 C 296.175,336.352 296.508,344.018 297.5,351.5C 301.182,351.335 304.848,351.501 308.5,352C 304.179,352.499 299.846,352.666 295.5,352.5C 295.174,344.316 295.508,336.316 296.5,328.5 Z"/></g>
<g><path style="opacity:1" fill="#202020" d="M 232.5,327.5 C 236.297,336.127 239.297,345.127 241.5,354.5C 239.833,354.5 238.167,354.5 236.5,354.5C 235.525,351.933 234.858,349.267 234.5,346.5C 231.287,346.19 228.287,346.523 225.5,347.5C 224.388,349.599 223.721,351.933 223.5,354.5C 221.833,354.5 220.167,354.5 218.5,354.5C 218.833,352.5 219.167,350.5 219.5,348.5C 222.026,341.59 224.359,334.59 226.5,327.5C 228.549,326.359 230.549,326.359 232.5,327.5 Z"/></g>
<g><path style="opacity:1" fill="#9d9d9d" d="M 223.5,345.5 C 224.483,340.046 225.983,334.713 228,329.5C 229.714,328.075 231.047,328.408 232,330.5C 234.121,337.83 236.621,344.997 239.5,352C 238.517,352.591 237.85,352.257 237.5,351C 236.391,348.953 235.724,346.787 235.5,344.5C 231.4,344.237 227.4,344.57 223.5,345.5 Z"/></g>
<g><path style="opacity:1" fill="#111111" d="M 228.5,330.5 C 229.376,330.369 230.043,330.702 230.5,331.5C 231.833,335.167 233.167,338.833 234.5,342.5C 231.572,343.484 228.572,343.817 225.5,343.5C 226.652,339.225 227.652,334.892 228.5,330.5 Z"/></g>
<g><path style="opacity:1" fill="#7f7f7f" d="M 228.5,339.5 C 229.5,342.167 230.5,342.167 231.5,339.5C 232.404,340.209 232.737,341.209 232.5,342.5C 230.833,342.5 229.167,342.5 227.5,342.5C 227.263,341.209 227.596,340.209 228.5,339.5 Z"/></g>
<g><path style="opacity:1" fill="#e1e1e1" d="M 231.5,339.5 C 230.5,342.167 229.5,342.167 228.5,339.5C 229.438,334.233 230.438,334.233 231.5,339.5 Z"/></g>
<g><path style="opacity:1" fill="#a5a5a5" d="M 196.5,328.5 C 197.824,332.107 198.491,336.107 198.5,340.5C 198.167,344.5 197.833,348.5 197.5,352.5C 196.502,344.528 196.169,336.528 196.5,328.5 Z"/></g>
<g><path style="opacity:1" fill="#c0c0c0" d="M 54.5,343.5 C 54.8333,343.5 55.1667,343.5 55.5,343.5C 57.0243,346.207 58.0243,349.207 58.5,352.5C 58.0431,353.298 57.3764,353.631 56.5,353.5C 56.1489,350.097 55.4822,346.763 54.5,343.5 Z"/></g>
<g><path style="opacity:1" fill="#aaaaaa" d="M 223.5,345.5 C 223.61,348.059 222.944,350.392 221.5,352.5C 221.167,352.333 220.833,352.167 220.5,352C 221.132,349.585 222.132,347.418 223.5,345.5 Z"/></g>
<g><path style="opacity:1" fill="#ececec" d="M 265.5,326.5 C 269.702,326.183 273.702,326.517 277.5,327.5C 270.817,329.19 267.484,333.524 267.5,340.5C 267.528,347.252 270.528,351.919 276.5,354.5C 272.833,355.833 269.167,355.833 265.5,354.5C 265.5,345.167 265.5,335.833 265.5,326.5 Z"/></g>
<g><path style="opacity:1" fill="#f4f4f4" d="M 100.5,351.5 C 100.5,352.833 100.5,354.167 100.5,355.5C 96.2984,355.817 92.2984,355.483 88.5,354.5C 89.4366,348.028 93.1033,346.028 99.5,348.5C 100.127,349.417 100.461,350.417 100.5,351.5 Z"/></g>
<g><path style="opacity:1" fill="#f0f0f0" d="M 236.5,354.5 C 233.313,355.806 229.98,355.806 226.5,354.5C 225.626,352.253 225.292,349.92 225.5,347.5C 228.287,346.523 231.287,346.19 234.5,346.5C 234.858,349.267 235.525,351.933 236.5,354.5 Z"/></g>
<g><path style="opacity:1" fill="#1b1b1b" d="M 287.5,326.5 C 289.438,328.194 289.771,330.194 288.5,332.5C 282.974,330.497 278.141,331.497 274,335.5C 271.194,345.953 275.027,350.953 285.5,350.5C 285.5,348.167 285.5,345.833 285.5,343.5C 283.833,343.5 282.167,343.5 280.5,343.5C 280.5,342.167 280.5,340.833 280.5,339.5C 283.833,339.5 287.167,339.5 290.5,339.5C 290.5,344.167 290.5,348.833 290.5,353.5C 289.432,354.434 288.099,354.768 286.5,354.5C 283.167,354.5 279.833,354.5 276.5,354.5C 270.528,351.919 267.528,347.252 267.5,340.5C 267.484,333.524 270.817,329.19 277.5,327.5C 280.764,326.676 284.098,326.342 287.5,326.5 Z"/></g>
<g><path style="opacity:1" fill="#9c9c9c" d="M 279.5,352.5 C 282.206,352.425 284.873,352.092 287.5,351.5C 287.18,348.102 287.513,344.768 288.5,341.5C 289.489,345.107 289.823,348.774 289.5,352.5C 286.001,353.444 282.668,353.444 279.5,352.5 Z"/></g>
<g><path style="opacity:1" fill="#c1c1c1" d="M 271.5,335.5 C 269.366,343.685 272.033,349.351 279.5,352.5C 272.461,351.821 269.128,347.821 269.5,340.5C 269.436,338.443 270.102,336.777 271.5,335.5 Z"/></g>
<g><path style="opacity:1" fill="#929292" d="M 271.5,335.5 C 271.872,331.957 273.872,329.79 277.5,329C 280.833,328.333 284.167,328.333 287.5,329C 281.002,328.549 275.669,330.716 271.5,335.5 Z"/></g>
<g><path style="opacity:1" fill="#ebebeb" d="M 55.5,355.5 C 52.7131,356.477 49.7131,356.81 46.5,356.5C 46.5,352.167 46.5,347.833 46.5,343.5C 48.4672,343.261 50.3005,343.594 52,344.5C 54.1033,347.829 55.27,351.496 55.5,355.5 Z"/></g>
<g><path style="opacity:1" fill="#d3d3d3" d="M 23.5,352.5 C 27.4899,352.999 31.4899,353.499 35.5,354C 32.1667,354.667 28.8333,354.667 25.5,354C 24.5842,353.722 23.9175,353.222 23.5,352.5 Z"/></g>
<g><path style="opacity:1" fill="#adadad" d="M 130.5,327.5 C 130.168,336.587 130.501,344.92 131.5,352.5C 135.555,352.176 139.555,352.509 143.5,353.5C 138.88,354.493 134.214,354.827 129.5,354.5C 129.173,345.318 129.507,336.318 130.5,327.5 Z"/></g>
<g><path style="opacity:1" fill="#a4a4a4" d="M 21.5,354.5 C 22.9217,354.709 24.255,355.209 25.5,356C 20.1771,356.499 14.8437,356.666 9.5,356.5C 9.5,357.5 9.5,358.5 9.5,359.5C 8.56552,358.432 8.23219,357.099 8.5,355.5C 13.0323,355.818 17.3656,355.485 21.5,354.5 Z"/></g>
<g><path style="opacity:1" fill="#737373" d="M 37.5,351.5 C 38.4511,352.919 38.7845,354.585 38.5,356.5C 32.8333,356.336 32.5,356.003 37.5,355.5C 37.5,354.167 37.5,352.833 37.5,351.5 Z"/></g>
<g><path style="opacity:1" fill="#a5a5a5" d="M 100.5,351.5 C 101.339,352.641 102.006,353.974 102.5,355.5C 97.5,356.833 92.5,356.833 87.5,355.5C 87.6236,354.893 87.9569,354.56 88.5,354.5C 92.2984,355.483 96.2984,355.817 100.5,355.5C 100.5,354.167 100.5,352.833 100.5,351.5 Z"/></g>
<g><path style="opacity:1" fill="#bbbbbb" d="M 215.5,327.5 C 216.167,335.01 216.833,342.677 217.5,350.5C 218.182,349.757 218.849,349.091 219.5,348.5C 219.167,350.5 218.833,352.5 218.5,354.5C 220.167,354.5 221.833,354.5 223.5,354.5C 223.721,351.933 224.388,349.599 225.5,347.5C 225.292,349.92 225.626,352.253 226.5,354.5C 229.98,355.806 233.313,355.806 236.5,354.5C 238.167,354.5 239.833,354.5 241.5,354.5C 242.167,355.833 242.833,355.833 243.5,354.5C 245.167,354.5 246.833,354.5 248.5,354.5C 252.5,355.833 256.5,355.833 260.5,354.5C 262.167,354.5 263.833,354.5 265.5,354.5C 269.167,355.833 272.833,355.833 276.5,354.5C 279.833,354.5 283.167,354.5 286.5,354.5C 288.833,355.833 291.167,355.833 293.5,354.5C 293.833,354.5 294.167,354.5 294.5,354.5C 299.833,354.5 305.167,354.5 310.5,354.5C 310.5,355.167 310.5,355.833 310.5,356.5C 268.5,356.5 226.5,356.5 184.5,356.5C 183.5,356.5 182.5,356.5 181.5,356.5C 177.833,356.5 174.167,356.5 170.5,356.5C 170.5,358.5 170.5,360.5 170.5,362.5C 169.532,360.393 169.198,358.059 169.5,355.5C 173.042,355.813 176.375,355.479 179.5,354.5C 182.445,355.468 185.445,355.634 188.5,355C 192.754,354.338 193.42,352.505 190.5,349.5C 186.481,351.018 182.648,350.684 179,348.5C 176.384,344.329 175.884,339.995 177.5,335.5C 177.5,338.167 177.5,340.833 177.5,343.5C 181.314,343.651 182.981,345.651 182.5,349.5C 185.866,349.212 189.2,349.046 192.5,349C 193.085,350.302 193.751,351.469 194.5,352.5C 195.552,354.256 197.219,354.923 199.5,354.5C 203.167,355.833 206.833,355.833 210.5,354.5C 212.167,354.5 213.833,354.5 215.5,354.5C 215.5,345.5 215.5,336.5 215.5,327.5 Z"/></g>
<g><path style="opacity:1" fill="#ededed" d="M 210.5,354.5 C 206.833,355.833 203.167,355.833 199.5,354.5C 199.5,350.5 199.5,346.5 199.5,342.5C 203.167,342.5 206.833,342.5 210.5,342.5C 210.5,346.5 210.5,350.5 210.5,354.5 Z"/></g>
<g><path style="opacity:1" fill="#0d0d0d" d="M 184.5,356.5 C 226.5,356.5 268.5,356.5 310.5,356.5C 311.373,361.534 312.373,366.534 313.5,371.5C 313.5,372.833 313.5,374.167 313.5,375.5C 311.707,369.871 310.041,364.204 308.5,358.5C 267.167,357.833 225.833,357.167 184.5,356.5 Z"/></g>
<g><path style="opacity:1" fill="#2c2c2c" d="M 58.5,328.5 C 61.1657,333.08 60.8323,337.58 57.5,342C 59.3799,346.687 60.7133,351.52 61.5,356.5C 59.8008,356.34 58.1341,356.506 56.5,357C 58.3817,357.198 60.0484,357.698 61.5,358.5C 44.8333,358.5 28.1667,358.5 11.5,358.5C 20.8333,357.833 30.1667,357.167 39.5,356.5C 39.8333,356.5 40.1667,356.5 40.5,356.5C 42.5,357.833 44.5,357.833 46.5,356.5C 49.7131,356.81 52.7131,356.477 55.5,355.5C 57.6977,355.591 58.0311,354.925 56.5,353.5C 57.3764,353.631 58.0431,353.298 58.5,352.5C 58.0243,349.207 57.0243,346.207 55.5,343.5C 55.1961,342.85 54.8627,342.183 54.5,341.5C 55.5244,340.148 56.5244,338.815 57.5,337.5C 58.7563,335.274 58.7563,332.941 57.5,330.5C 57.3284,329.508 57.6618,328.842 58.5,328.5 Z"/></g>
<g><path style="opacity:1" fill="#3b3b3b" d="M 118.5,356.5 C 118.833,356.5 119.167,356.5 119.5,356.5C 128.167,357.167 136.833,357.833 145.5,358.5C 118.5,358.5 91.5,358.5 64.5,358.5C 82.5,357.833 100.5,357.167 118.5,356.5 Z"/></g>
<g><path style="opacity:1" fill="#383838" d="M 181.5,356.5 C 182.5,356.5 183.5,356.5 184.5,356.5C 225.833,357.167 267.167,357.833 308.5,358.5C 263.167,358.5 217.833,358.5 172.5,358.5C 175.5,357.833 178.5,357.167 181.5,356.5 Z"/></g>
<g><path style="opacity:1" fill="#fdfdfd" d="M 11.5,358.5 C 28.1667,358.5 44.8333,358.5 61.5,358.5C 62.5,358.5 63.5,358.5 64.5,358.5C 91.5,358.5 118.5,358.5 145.5,358.5C 146.461,360.265 146.795,362.265 146.5,364.5C 161.422,467.816 209.089,552.316 289.5,618C 317.83,639.57 348.496,657.237 381.5,671C 275.011,676.073 184.178,641.24 109,566.5C 67.1353,522.443 37.9686,471.11 21.5,412.5C 16.8906,394.731 13.5573,376.731 11.5,358.5 Z"/></g>
<g><path style="opacity:1" fill="#fdfdfd" d="M 172.5,358.5 C 217.833,358.5 263.167,358.5 308.5,358.5C 310.041,364.204 311.707,369.871 313.5,375.5C 334.328,448.825 380.328,498.992 451.5,526C 522.697,548.102 589.364,538.769 651.5,498C 656.683,494.24 661.683,490.24 666.5,486C 670.805,484.077 675.138,484.077 679.5,486C 719.108,505.06 758.108,524.727 796.5,545C 770.169,576.991 739.169,603.658 703.5,625C 690.215,631.832 676.882,638.332 663.5,644.5C 661.033,644.755 659.033,645.755 657.5,647.5C 536.861,692.235 423.528,678.735 317.5,607C 234.275,544.742 185.942,461.909 172.5,358.5 Z"/></g>
<g><path style="opacity:1" fill="#262626" d="M 553.5,423.5 C 555.199,423.34 556.866,423.506 558.5,424C 587.138,437.863 615.471,451.863 643.5,466C 645.612,466.906 646.445,468.406 646,470.5C 632.886,483.98 617.386,493.814 599.5,500C 568.464,511.139 536.464,515.806 503.5,514C 494.168,512.836 485.168,510.503 476.5,507C 475.289,506.107 475.289,505.274 476.5,504.5C 509.38,484.289 535.047,457.289 553.5,423.5 Z"/></g>
<g><path style="opacity:1" fill="#fbfbfb" d="M 555.5,425.5 C 584.57,439.535 613.57,453.868 642.5,468.5C 643.521,469.002 643.688,469.668 643,470.5C 634.177,479.67 624.01,486.837 612.5,492C 573.851,509.413 533.518,515.413 491.5,510C 487.23,509.188 483.23,507.688 479.5,505.5C 511.323,485.01 536.656,458.344 555.5,425.5 Z"/></g>
<g><path style="opacity:1" fill="#262626" d="M 147.5,356.5 C 160.644,461.299 207.644,547.466 288.5,615C 317.873,637.19 349.54,655.524 383.5,670C 384.337,671.011 384.67,672.178 384.5,673.5C 266.474,678.877 168.641,637.544 91,549.5C 57.9733,509.979 34.4733,465.313 20.5,415.5C 21.404,414.791 21.7373,413.791 21.5,412.5C 37.9686,471.11 67.1353,522.443 109,566.5C 184.178,641.24 275.011,676.073 381.5,671C 348.496,657.237 317.83,639.57 289.5,618C 209.089,552.316 161.422,467.816 146.5,364.5C 147.473,362.052 147.806,359.385 147.5,356.5 Z"/></g>
<g><path style="opacity:1" fill="#272727" d="M 181.5,356.5 C 178.5,357.167 175.5,357.833 172.5,358.5C 185.942,461.909 234.275,544.742 317.5,607C 423.528,678.735 536.861,692.235 657.5,647.5C 659.967,647.245 661.967,646.245 663.5,644.5C 676.882,638.332 690.215,631.832 703.5,625C 739.169,603.658 770.169,576.991 796.5,545C 758.108,524.727 719.108,505.06 679.5,486C 675.138,484.077 670.805,484.077 666.5,486C 661.683,490.24 656.683,494.24 651.5,498C 589.364,538.769 522.697,548.102 451.5,526C 380.328,498.992 334.328,448.825 313.5,375.5C 313.5,374.167 313.5,372.833 313.5,371.5C 337.199,453.365 390.199,506.198 472.5,530C 544.586,545.51 608.92,530.177 665.5,484C 669.375,482.48 673.375,482.146 677.5,483C 716.866,502.35 756.199,521.683 795.5,541C 796.868,542.34 798.201,543.674 799.5,545C 732.901,623.949 647.567,667.283 543.5,675C 404.148,677.204 296.315,620.704 220,505.5C 193.33,461.463 176.83,413.797 170.5,362.5C 170.5,360.5 170.5,358.5 170.5,356.5C 174.167,356.5 177.833,356.5 181.5,356.5 Z"/></g>
<g><path style="opacity:1" fill="#6e6e6e" d="M 663.5,644.5 C 661.967,646.245 659.967,647.245 657.5,647.5C 659.033,645.755 661.033,644.755 663.5,644.5 Z"/></g>
</svg>
