<?xml version="1.0" encoding="UTF-8"?>
<!DOCTYPE svg PUBLIC "-//W3C//DTD SVG 1.1//EN" "http://www.w3.org/Graphics/SVG/1.1/DTD/svg11.dtd">
<svg xmlns="http://www.w3.org/2000/svg" version="1.1" width="360px" height="360px" style="shape-rendering:geometricPrecision; text-rendering:geometricPrecision; image-rendering:optimizeQuality; fill-rule:evenodd; clip-rule:evenodd" xmlns:xlink="http://www.w3.org/1999/xlink">
<g><path style="opacity:1" fill="#000000" d="M -0.5,-0.5 C 119.5,-0.5 239.5,-0.5 359.5,-0.5C 359.5,119.5 359.5,239.5 359.5,359.5C 239.5,359.5 119.5,359.5 -0.5,359.5C -0.5,239.5 -0.5,119.5 -0.5,-0.5 Z"/></g>
<g><path style="opacity:1" fill="#f5f5f5" d="M 183.5,202.5 C 183.44,201.957 183.107,201.624 182.5,201.5C 181.5,223.156 181.167,244.823 181.5,266.5C 178.324,286.845 166.658,299.345 146.5,304C 115.367,306.035 98.0332,291.535 94.5,260.5C 96.0523,242.042 105.052,228.708 121.5,220.5C 97.9277,207.544 90.0943,188.211 98,162.5C 103.369,151.631 111.535,143.631 122.5,138.5C 99.4337,127.029 90.9337,108.696 97,83.5C 102.73,68.7713 113.23,59.2713 128.5,55C 161.833,54.3333 195.167,54.3333 228.5,55C 247.654,59.4873 259.487,71.3206 264,90.5C 265.918,113.011 256.752,129.011 236.5,138.5C 263.334,153.168 270.501,174.501 258,202.5C 241.828,223.869 221.661,228.702 197.5,217C 191.957,212.958 187.291,208.125 183.5,202.5 Z"/></g>
<g><path style="opacity:1" fill="#020202" d="M 133.5,59.5 C 147.833,59.5 162.167,59.5 176.5,59.5C 176.5,84.8333 176.5,110.167 176.5,135.5C 161.163,135.667 145.83,135.5 130.5,135C 106.005,126.509 96.8381,109.676 103,84.5C 109.064,71.0648 119.231,62.7315 133.5,59.5 Z"/></g>
<g><path style="opacity:1" fill="#020202" d="M 182.5,59.5 C 196.504,59.3334 210.504,59.5001 224.5,60C 249.964,65.8008 260.797,81.6341 257,107.5C 252.32,122.18 242.487,131.346 227.5,135C 212.504,135.5 197.504,135.667 182.5,135.5C 182.5,110.167 182.5,84.8333 182.5,59.5 Z"/></g>
<g><path style="opacity:1" fill="#0a0a0a" d="M 182.5,141.5 C 187.844,141.334 193.177,141.501 198.5,142C 192.377,145.789 187.21,150.622 183,156.5C 182.501,151.511 182.334,146.511 182.5,141.5 Z"/></g>
<g><path style="opacity:1" fill="#010101" d="M 131.5,141.5 C 146.5,141.5 161.5,141.5 176.5,141.5C 176.5,166.833 176.5,192.167 176.5,217.5C 160.11,217.94 143.776,217.44 127.5,216C 103.828,205.665 95.9942,188.165 104,163.5C 110.111,152.213 119.278,144.879 131.5,141.5 Z"/></g>
<g><path style="opacity:1" fill="#020202" d="M 213.5,141.5 C 236.472,140.324 251.305,150.657 258,172.5C 260.086,189.261 254.253,202.427 240.5,212C 219.503,222.208 202.003,218.042 188,199.5C 176.672,171.291 185.172,151.957 213.5,141.5 Z"/></g>
<g><path style="opacity:1" fill="#cecece" d="M 183.5,202.5 C 182.833,223.833 182.167,245.167 181.5,266.5C 181.167,244.823 181.5,223.156 182.5,201.5C 183.107,201.624 183.44,201.957 183.5,202.5 Z"/></g>
<g><path style="opacity:1" fill="#010101" d="M 132.5,223.5 C 147.167,223.5 161.833,223.5 176.5,223.5C 176.667,238.17 176.5,252.837 176,267.5C 168.415,292.883 151.581,302.717 125.5,297C 104.59,286.676 97.0904,270.176 103,247.5C 108.877,234.44 118.711,226.44 132.5,223.5 Z"/></g>
</svg>
