<?xml version="1.0" encoding="UTF-8"?>
<!DOCTYPE svg PUBLIC "-//W3C//DTD SVG 1.1//EN" "http://www.w3.org/Graphics/SVG/1.1/DTD/svg11.dtd">
<svg xmlns="http://www.w3.org/2000/svg" version="1.1" width="500px" height="500px" style="shape-rendering:geometricPrecision; text-rendering:geometricPrecision; image-rendering:optimizeQuality; fill-rule:evenodd; clip-rule:evenodd" xmlns:xlink="http://www.w3.org/1999/xlink">
<g><path style="opacity:0.993" fill="#3d3d3d" d="M 49.5,184.5 C 189.833,184.5 330.167,184.5 470.5,184.5C 470.5,227.833 470.5,271.167 470.5,314.5C 330.167,314.5 189.833,314.5 49.5,314.5C 49.5,271.167 49.5,227.833 49.5,184.5 Z"/></g>
<g><path style="opacity:1" fill="#707070" d="M 180.5,187.5 C 180.5,199.167 180.5,210.833 180.5,222.5C 179.5,222.167 178.833,221.5 178.5,220.5C 179.167,209.5 179.833,198.5 180.5,187.5 Z"/></g>
<g><path style="opacity:1" fill="#f9f9f9" d="M 180.5,187.5 C 275.833,187.5 371.167,187.5 466.5,187.5C 466.5,207.167 466.5,226.833 466.5,246.5C 371.5,246.5 276.5,246.5 181.5,246.5C 182.498,238.467 182.165,230.467 180.5,222.5C 180.5,210.833 180.5,199.167 180.5,187.5 Z"/></g>
<g><path style="opacity:1" fill="#82807b" d="M 198.5,191.5 C 199.5,191.5 200.5,191.5 201.5,191.5C 201.5,198.5 201.5,205.5 201.5,212.5C 200.5,212.5 199.5,212.5 198.5,212.5C 198.5,205.5 198.5,198.5 198.5,191.5 Z"/></g>
<g><path style="opacity:1" fill="#c3c3bf" d="M 225.5,192.5 C 226.819,199.344 226.819,206.344 225.5,213.5C 224.893,213.376 224.56,213.043 224.5,212.5C 225.491,206.021 225.824,199.354 225.5,192.5 Z"/></g>
<g><path style="opacity:1" fill="#48443c" d="M 235.5,193.5 C 235.5,193.167 235.5,192.833 235.5,192.5C 239.182,192.335 242.848,192.501 246.5,193C 244.866,193.494 243.199,193.66 241.5,193.5C 241.5,199.833 241.5,206.167 241.5,212.5C 241.167,212.5 240.833,212.5 240.5,212.5C 240.5,206.167 240.5,199.833 240.5,193.5C 238.833,193.5 237.167,193.5 235.5,193.5 Z"/></g>
<g><path style="opacity:1" fill="#504d45" d="M 256.5,192.5 C 259.85,192.335 263.183,192.502 266.5,193C 270.971,198.303 269.971,202.303 263.5,205C 265.874,207.039 267.874,209.372 269.5,212C 268.5,212.667 267.5,212.667 266.5,212C 264.833,209.667 263.167,207.333 261.5,205C 260.552,204.517 259.552,204.351 258.5,204.5C 258.813,207.247 258.48,209.914 257.5,212.5C 256.503,205.866 256.17,199.2 256.5,192.5 Z"/></g>
<g><path style="opacity:1" fill="#534f47" d="M 335.5,192.5 C 339.555,192.176 343.555,192.509 347.5,193.5C 344.232,194.487 340.898,194.82 337.5,194.5C 337.5,196.833 337.5,199.167 337.5,201.5C 350.833,202.167 350.833,202.833 337.5,203.5C 337.5,205.833 337.5,208.167 337.5,210.5C 340.898,210.18 344.232,210.513 347.5,211.5C 343.555,212.491 339.555,212.824 335.5,212.5C 335.5,205.833 335.5,199.167 335.5,192.5 Z"/></g>
<g><path style="opacity:1" fill="#545149" d="M 358.5,192.5 C 361.85,192.335 365.183,192.502 368.5,193C 371.29,195.21 372.123,198.044 371,201.5C 369.89,203.037 368.39,203.703 366.5,203.5C 367.47,206.661 369.137,209.494 371.5,212C 371,212.167 370.5,212.333 370,212.5C 367.483,210.316 365.317,207.816 363.5,205C 362.552,204.517 361.552,204.351 360.5,204.5C 360.813,207.247 360.48,209.914 359.5,212.5C 358.503,205.866 358.17,199.2 358.5,192.5 Z"/></g>
<g><path style="opacity:1" fill="#48443c" d="M 380.5,193.5 C 380.5,193.167 380.5,192.833 380.5,192.5C 384.182,192.335 387.848,192.501 391.5,193C 389.866,193.494 388.199,193.66 386.5,193.5C 386.5,199.833 386.5,206.167 386.5,212.5C 386.167,212.5 385.833,212.5 385.5,212.5C 385.5,206.167 385.5,199.833 385.5,193.5C 383.833,193.5 382.167,193.5 380.5,193.5 Z"/></g>
<g><path style="opacity:1" fill="#534f47" d="M 401.5,192.5 C 405.555,192.176 409.555,192.509 413.5,193.5C 410.232,194.487 406.898,194.82 403.5,194.5C 403.5,196.833 403.5,199.167 403.5,201.5C 416.833,202.167 416.833,202.833 403.5,203.5C 403.5,205.833 403.5,208.167 403.5,210.5C 406.898,210.18 410.232,210.513 413.5,211.5C 409.555,212.491 405.555,212.824 401.5,212.5C 401.5,205.833 401.5,199.167 401.5,192.5 Z"/></g>
<g><path style="opacity:1" fill="#a8a6a2" d="M 235.5,193.5 C 237.167,193.5 238.833,193.5 240.5,193.5C 240.5,199.833 240.5,206.167 240.5,212.5C 239.51,206.69 239.177,200.69 239.5,194.5C 237.901,194.768 236.568,194.434 235.5,193.5 Z"/></g>
<g><path style="opacity:1" fill="#918f89" d="M 235.5,192.5 C 239.298,191.517 243.298,191.183 247.5,191.5C 247.5,192.5 247.5,193.5 247.5,194.5C 245.833,194.5 244.167,194.5 242.5,194.5C 242.823,200.69 242.49,206.69 241.5,212.5C 241.5,206.167 241.5,199.833 241.5,193.5C 243.199,193.66 244.866,193.494 246.5,193C 242.848,192.501 239.182,192.335 235.5,192.5 Z"/></g>
<g><path style="opacity:1" fill="#f3f3f3" d="M 258.5,194.5 C 260.857,194.337 263.19,194.503 265.5,195C 268.167,197.333 268.167,199.667 265.5,202C 263.19,202.497 260.857,202.663 258.5,202.5C 258.5,199.833 258.5,197.167 258.5,194.5 Z"/></g>
<g><path style="opacity:1" fill="#acaaa6" d="M 366.5,194.5 C 364.833,194.5 363.167,194.5 361.5,194.5C 361.5,197.167 361.5,199.833 361.5,202.5C 360.523,199.713 360.19,196.713 360.5,193.5C 362.735,193.205 364.735,193.539 366.5,194.5 Z"/></g>
<g><path style="opacity:1" fill="#f5f5f5" d="M 366.5,194.5 C 367.496,194.414 368.329,194.748 369,195.5C 369.996,201.334 367.496,203.667 361.5,202.5C 361.5,199.833 361.5,197.167 361.5,194.5C 363.167,194.5 364.833,194.5 366.5,194.5 Z"/></g>
<g><path style="opacity:1" fill="#a8a6a2" d="M 380.5,193.5 C 382.167,193.5 383.833,193.5 385.5,193.5C 385.5,199.833 385.5,206.167 385.5,212.5C 384.51,206.69 384.177,200.69 384.5,194.5C 382.901,194.768 381.568,194.434 380.5,193.5 Z"/></g>
<g><path style="opacity:1" fill="#918f89" d="M 380.5,192.5 C 384.298,191.517 388.298,191.183 392.5,191.5C 392.5,192.5 392.5,193.5 392.5,194.5C 390.833,194.5 389.167,194.5 387.5,194.5C 387.823,200.69 387.49,206.69 386.5,212.5C 386.5,206.167 386.5,199.833 386.5,193.5C 388.199,193.66 389.866,193.494 391.5,193C 387.848,192.501 384.182,192.335 380.5,192.5 Z"/></g>
<g><path style="opacity:1" fill="#59554e" d="M 424.5,192.5 C 438.789,191.265 443.122,197.099 437.5,210C 433.414,212.053 429.08,212.887 424.5,212.5C 424.5,205.833 424.5,199.167 424.5,192.5 Z"/></g>
<g><path style="opacity:1" fill="#f1f1f0" d="M 426.5,194.5 C 437.116,193.925 440.45,198.425 436.5,208C 433.464,210.006 430.131,210.84 426.5,210.5C 426.5,205.167 426.5,199.833 426.5,194.5 Z"/></g>
<g><path style="opacity:1" fill="#56534b" d="M 308.5,192.5 C 309.376,192.369 310.043,192.702 310.5,193.5C 312.57,198.209 314.737,202.876 317,207.5C 319.5,202.5 322,197.5 324.5,192.5C 324.833,193 325.167,193.5 325.5,194C 322.804,200.558 319.971,207.058 317,213.5C 313.867,206.596 311.034,199.596 308.5,192.5 Z"/></g>
<g><path style="opacity:1" fill="#57534b" d="M 286.5,191.5 C 297.218,192.036 301.051,197.369 298,207.5C 294.65,212.083 290.15,213.583 284.5,212C 275.959,204.113 276.625,197.28 286.5,191.5 Z"/></g>
<g><path style="opacity:1" fill="#f5f5f4" d="M 284.5,194.5 C 296.481,193.657 299.815,198.491 294.5,209C 286.925,212.418 282.259,210.085 280.5,202C 280.927,198.977 282.261,196.477 284.5,194.5 Z"/></g>
<g><path style="opacity:1" fill="#f5f5f5" d="M 58.5,203.5 C 68.5222,203.168 78.5222,203.501 88.5,204.5C 87.4557,206.768 87.289,209.101 88,211.5C 92.4845,229.437 96.6512,247.437 100.5,265.5C 85.2167,265.622 78.7167,273.288 81,288.5C 82.198,291.726 84.0314,294.559 86.5,297C 83.2171,297.743 80.2171,297.076 77.5,295C 63.8086,285.124 54.9752,271.957 51,255.5C 50.3333,241.5 50.3333,227.5 51,213.5C 52.2133,209.131 54.7133,205.797 58.5,203.5 Z"/></g>
<g><path style="opacity:1" fill="#f4f4f4" d="M 178.5,220.5 C 178.833,221.5 179.5,222.167 180.5,222.5C 182.165,230.467 182.498,238.467 181.5,246.5C 181.5,246.833 181.5,247.167 181.5,247.5C 180.596,248.209 180.263,249.209 180.5,250.5C 180.5,250.833 180.5,251.167 180.5,251.5C 179.463,252.93 178.796,254.597 178.5,256.5C 173.499,268.332 164.832,276.165 152.5,280C 147.167,281 141.833,282 136.5,283C 131.706,288.8 126.04,293.467 119.5,297C 115.833,297.667 112.167,297.667 108.5,297C 112.989,293.021 115.322,288.021 115.5,282C 111.445,263.504 107.445,245.004 103.5,226.5C 117.577,225.779 127.41,231.779 133,244.5C 135.022,245.991 136.688,245.658 138,243.5C 139.937,230.311 136.104,219.144 126.5,210C 117.684,204.689 108.684,204.189 99.5,208.5C 98.6433,207.264 97.9766,205.931 97.5,204.5C 112.155,203.334 126.822,203.167 141.5,204C 147.608,206.372 150.608,210.872 150.5,217.5C 158.507,217.334 166.507,217.5 174.5,218C 175.984,218.662 177.317,219.496 178.5,220.5 Z"/></g>
<g><path style="opacity:1" fill="#57534b" d="M 225.5,192.5 C 225.824,199.354 225.491,206.021 224.5,212.5C 221.555,207.714 218.388,203.048 215,198.5C 214.828,203.202 214.328,207.868 213.5,212.5C 212.336,205.858 212.169,199.192 213,192.5C 216.091,197.014 219.425,201.347 223,205.5C 222.892,200.72 223.725,196.386 225.5,192.5 Z"/></g>
<g><path style="opacity:1" fill="#605d56" d="M 282.5,221.5 C 287.814,221.322 291.814,223.489 294.5,228C 291.789,226.255 288.622,225.088 285,224.5C 281.726,224.301 279.393,225.634 278,228.5C 276.178,236.667 279.344,240.5 287.5,240C 289.305,239.028 290.972,237.861 292.5,236.5C 292.817,239.087 291.483,240.92 288.5,242C 279.221,243.056 274.721,238.889 275,229.5C 276.353,225.65 278.853,222.983 282.5,221.5 Z"/></g>
<g><path style="opacity:1" fill="#5a564f" d="M 329.5,222.5 C 333.555,222.176 337.555,222.509 341.5,223.5C 338.232,224.487 334.898,224.82 331.5,224.5C 331.5,226.833 331.5,229.167 331.5,231.5C 343.5,232.167 343.5,232.833 331.5,233.5C 331.817,236.572 331.484,239.572 330.5,242.5C 329.503,235.866 329.17,229.2 329.5,222.5 Z"/></g>
<g><path style="opacity:1" fill="#545048" d="M 362.5,223.5 C 359.167,223.5 355.833,223.5 352.5,223.5C 352.5,226.167 352.5,228.833 352.5,231.5C 355.833,231.5 359.167,231.5 362.5,231.5C 359.663,233.402 356.329,234.069 352.5,233.5C 352.5,235.833 352.5,238.167 352.5,240.5C 355.898,240.18 359.232,240.513 362.5,241.5C 358.555,242.491 354.555,242.824 350.5,242.5C 350.5,235.833 350.5,229.167 350.5,222.5C 354.702,222.183 358.702,222.517 362.5,223.5 Z"/></g>
<g><path style="opacity:1" fill="#bfbebb" d="M 362.5,223.5 C 359.713,224.477 356.713,224.81 353.5,224.5C 353.5,226.5 353.5,228.5 353.5,230.5C 356.713,230.19 359.713,230.523 362.5,231.5C 359.167,231.5 355.833,231.5 352.5,231.5C 352.5,228.833 352.5,226.167 352.5,223.5C 355.833,223.5 359.167,223.5 362.5,223.5 Z"/></g>
<g><path style="opacity:1" fill="#929292" d="M 164.5,234.5 C 160.167,234.5 155.833,234.5 151.5,234.5C 151.822,240.358 151.489,246.025 150.5,251.5C 150.5,245.5 150.5,239.5 150.5,233.5C 155.363,233.181 160.03,233.514 164.5,234.5 Z"/></g>
<g><path style="opacity:1" fill="#3e3e3e" d="M 164.5,234.5 C 166.121,247.931 160.954,257.597 149,263.5C 149.035,259.479 149.535,255.479 150.5,251.5C 151.489,246.025 151.822,240.358 151.5,234.5C 155.833,234.5 160.167,234.5 164.5,234.5 Z"/></g>
<g><path style="opacity:1" fill="#545149" d="M 310.5,221.5 C 313.982,227.809 316.982,234.475 319.5,241.5C 319.167,241.833 318.833,242.167 318.5,242.5C 317.218,240.821 316.218,238.987 315.5,237C 312.5,236.333 309.5,236.333 306.5,237C 305.74,238.441 305.074,239.941 304.5,241.5C 303.833,242.833 303.167,242.833 302.5,241.5C 305.18,234.812 307.846,228.145 310.5,221.5 Z"/></g>
<g><path style="opacity:1" fill="#e5e4e3" d="M 310.5,226.5 C 312.33,228.826 313.663,231.493 314.5,234.5C 312.167,235.833 309.833,235.833 307.5,234.5C 308.513,231.812 309.513,229.146 310.5,226.5 Z"/></g>
<g><path style="opacity:1" fill="#cccccc" d="M 466.5,187.5 C 467.497,207.326 467.83,227.326 467.5,247.5C 372.167,247.5 276.833,247.5 181.5,247.5C 181.5,247.167 181.5,246.833 181.5,246.5C 276.5,246.5 371.5,246.5 466.5,246.5C 466.5,226.833 466.5,207.167 466.5,187.5 Z"/></g>
<g><path style="opacity:0.945" fill="#4e585c" d="M 181.5,247.5 C 276.662,249.166 371.996,250.166 467.5,250.5C 371.833,250.5 276.167,250.5 180.5,250.5C 180.263,249.209 180.596,248.209 181.5,247.5 Z"/></g>
<g><path style="opacity:1" fill="#44a1c3" d="M 180.5,250.5 C 276.167,250.5 371.833,250.5 467.5,250.5C 467.5,270.833 467.5,291.167 467.5,311.5C 371.833,311.5 276.167,311.5 180.5,311.5C 180.5,291.5 180.5,271.5 180.5,251.5C 180.5,251.167 180.5,250.833 180.5,250.5 Z"/></g>
<g><path style="opacity:1" fill="#405961" d="M 180.5,251.5 C 180.5,271.5 180.5,291.5 180.5,311.5C 179.833,293.167 179.167,274.833 178.5,256.5C 178.796,254.597 179.463,252.93 180.5,251.5 Z"/></g>
<g><path style="opacity:1" fill="#eff7fa" d="M 197.5,272.5 C 203.608,271.722 208.274,273.889 211.5,279C 211,279.167 210.5,279.333 210,279.5C 203.789,272.508 198.122,272.842 193,280.5C 192.167,289 196,292.833 204.5,292C 206.644,290.854 208.477,289.354 210,287.5C 210.5,287.833 211,288.167 211.5,288.5C 207.949,294.075 202.949,295.908 196.5,294C 188.2,286.31 188.534,279.143 197.5,272.5 Z"/></g>
<g><path style="opacity:1" fill="#e5f2f6" d="M 248.5,272.5 C 252.884,272.174 257.217,272.508 261.5,273.5C 258.232,274.487 254.898,274.82 251.5,274.5C 251.5,277.167 251.5,279.833 251.5,282.5C 264.833,283.167 264.833,283.833 251.5,284.5C 251.5,287.833 251.5,291.167 251.5,294.5C 250.5,294.5 249.5,294.5 248.5,294.5C 248.5,287.167 248.5,279.833 248.5,272.5 Z"/></g>
<g><path style="opacity:1" fill="#f8fbfd" d="M 272.5,272.5 C 276.884,272.174 281.217,272.508 285.5,273.5C 281.893,274.489 278.226,274.823 274.5,274.5C 274.5,277.167 274.5,279.833 274.5,282.5C 287.833,283.167 287.833,283.833 274.5,284.5C 274.5,287.167 274.5,289.833 274.5,292.5C 278.226,292.177 281.893,292.511 285.5,293.5C 281.217,294.492 276.884,294.826 272.5,294.5C 272.5,287.167 272.5,279.833 272.5,272.5 Z"/></g>
<g><path style="opacity:1" fill="#e3f1f6" d="M 357.5,272.5 C 360.518,272.335 363.518,272.502 366.5,273C 370.872,275.195 371.539,278.195 368.5,282C 373.833,286 373.833,290 368.5,294C 364.848,294.499 361.182,294.665 357.5,294.5C 357.5,287.167 357.5,279.833 357.5,272.5 Z"/></g>
<g><path style="opacity:1" fill="#f0f7fa" d="M 409.5,272.5 C 413.273,272.263 416.94,272.763 420.5,274C 422.152,275.47 423.152,277.303 423.5,279.5C 422.251,282.42 420.251,284.753 417.5,286.5C 418.93,289.433 420.93,291.933 423.5,294C 422.5,294.667 421.5,294.667 420.5,294C 418.38,291.591 416.38,289.091 414.5,286.5C 413.675,285.614 412.675,285.281 411.5,285.5C 411.817,288.572 411.484,291.572 410.5,294.5C 409.503,287.197 409.169,279.863 409.5,272.5 Z"/></g>
<g><path style="opacity:1" fill="#4fa6c6" d="M 360.5,274.5 C 362.527,274.338 364.527,274.505 366.5,275C 369.167,277 369.167,279 366.5,281C 364.527,281.495 362.527,281.662 360.5,281.5C 360.5,279.167 360.5,276.833 360.5,274.5 Z"/></g>
<g><path style="opacity:1" fill="#4ba4c4" d="M 411.5,274.5 C 413.857,274.337 416.19,274.503 418.5,275C 421.167,277.667 421.167,280.333 418.5,283C 416.19,283.497 413.857,283.663 411.5,283.5C 411.5,280.5 411.5,277.5 411.5,274.5 Z"/></g>
<g><path style="opacity:1" fill="#f0f7fa" d="M 317.5,272.5 C 325.146,273.03 326.48,276.363 321.5,282.5C 322.604,284.389 323.937,286.055 325.5,287.5C 326.532,285.96 327.865,285.46 329.5,286C 326.735,288.966 327.068,291.633 330.5,294C 328.097,294.63 326.263,293.797 325,291.5C 320.925,295.41 316.925,295.41 313,291.5C 312.041,287.084 313.541,283.75 317.5,281.5C 314.845,278.466 314.845,275.466 317.5,272.5 Z"/></g>
<g><path style="opacity:1" fill="#4ea6c5" d="M 318.5,274.5 C 323.394,275.54 323.727,277.54 319.5,280.5C 317.454,278.719 317.12,276.719 318.5,274.5 Z"/></g>
<g><path style="opacity:1" fill="#f0f7fa" d="M 229.5,271.5 C 232.929,278.866 236.262,286.366 239.5,294C 238.365,294.749 237.365,294.583 236.5,293.5C 236.125,289.152 233.791,287.485 229.5,288.5C 225.579,288.025 223.413,289.692 223,293.5C 222.107,294.711 221.274,294.711 220.5,293.5C 223.515,286.141 226.515,278.808 229.5,271.5 Z"/></g>
<g><path style="opacity:1" fill="#52a7c7" d="M 229.5,277.5 C 231.33,279.826 232.663,282.493 233.5,285.5C 230.894,286.652 228.227,286.818 225.5,286C 226.703,283.095 228.036,280.262 229.5,277.5 Z"/></g>
<g><path style="opacity:1" fill="#eff7fa" d="M 389.5,271.5 C 393.105,278.791 396.438,286.291 399.5,294C 398.552,294.483 397.552,294.649 396.5,294.5C 396.528,292.418 395.861,290.584 394.5,289C 391.183,288.502 387.85,288.335 384.5,288.5C 384.509,290.308 384.009,291.975 383,293.5C 382.107,294.711 381.274,294.711 380.5,293.5C 383.897,286.304 386.897,278.97 389.5,271.5 Z"/></g>
<g><path style="opacity:1" fill="#4ea5c5" d="M 389.5,277.5 C 391.383,279.763 392.716,282.43 393.5,285.5C 391.257,286.474 388.924,286.808 386.5,286.5C 387.216,283.402 388.216,280.402 389.5,277.5 Z"/></g>
<g><path style="opacity:1" fill="#58a9c8" d="M 318.5,283.5 C 320.624,285.059 322.291,287.059 323.5,289.5C 320.13,293.613 317.13,293.446 314.5,289C 315.007,286.455 316.341,284.621 318.5,283.5 Z"/></g>
<g><path style="opacity:1" fill="#49a3c4" d="M 360.5,284.5 C 363.187,284.336 365.854,284.503 368.5,285C 370.135,291.529 367.468,294.029 360.5,292.5C 360.5,289.833 360.5,287.167 360.5,284.5 Z"/></g>
</svg>
