<?xml version="1.0" encoding="UTF-8"?>
<!DOCTYPE svg PUBLIC "-//W3C//DTD SVG 1.1//EN" "http://www.w3.org/Graphics/SVG/1.1/DTD/svg11.dtd">
<svg xmlns="http://www.w3.org/2000/svg" version="1.1" width="500px" height="500px" style="shape-rendering:geometricPrecision; text-rendering:geometricPrecision; image-rendering:optimizeQuality; fill-rule:evenodd; clip-rule:evenodd" xmlns:xlink="http://www.w3.org/1999/xlink">
<g><path style="opacity:1" fill="#000000" d="M -0.5,-0.5 C 166.167,-0.5 332.833,-0.5 499.5,-0.5C 499.5,166.167 499.5,332.833 499.5,499.5C 332.833,499.5 166.167,499.5 -0.5,499.5C -0.5,332.833 -0.5,166.167 -0.5,-0.5 Z"/></g>
<g><path style="opacity:1" fill="#bf3b26" d="M 263.5,139.5 C 255.976,137.577 248.309,137.077 240.5,138C 237.077,140.818 233.077,142.318 228.5,142.5C 231.72,140.021 235.387,138.188 239.5,137C 245.833,136.333 252.167,136.333 258.5,137C 260.315,137.757 261.981,138.59 263.5,139.5 Z"/></g>
<g><path style="opacity:1" fill="#c53c20" d="M 264.5,139.5 C 271.262,141.371 276.262,145.371 279.5,151.5C 278.038,150.542 276.705,149.376 275.5,148C 274.207,147.51 272.873,147.343 271.5,147.5C 271.5,146.5 271.5,145.5 271.5,144.5C 268.197,144.265 265.863,142.598 264.5,139.5 Z"/></g>
<g><path style="opacity:1" fill="#ad3423" d="M 228.5,142.5 C 227.213,145.453 225.213,147.786 222.5,149.5C 220.5,151.167 218.5,152.833 216.5,154.5C 218.759,151.062 221.259,147.729 224,144.5C 225.33,143.418 226.83,142.751 228.5,142.5 Z"/></g>
<g><path style="opacity:1" fill="#f13714" d="M 263.5,139.5 C 263.833,139.5 264.167,139.5 264.5,139.5C 265.863,142.598 268.197,144.265 271.5,144.5C 271.5,145.5 271.5,146.5 271.5,147.5C 272.873,147.343 274.207,147.51 275.5,148C 276.705,149.376 278.038,150.542 279.5,151.5C 279.703,153.044 280.37,154.378 281.5,155.5C 279.989,157.838 280.323,158.504 282.5,157.5C 283.655,161.631 284.988,165.631 286.5,169.5C 286.5,169.833 286.5,170.167 286.5,170.5C 283.315,170.02 280.481,170.686 278,172.5C 271.131,169.486 263.964,167.153 256.5,165.5C 257.167,160.84 257.333,156.174 257,151.5C 255,152.833 253,154.167 251,155.5C 250.51,156.793 250.343,158.127 250.5,159.5C 248.462,161.035 246.795,163.035 245.5,165.5C 244.065,164.176 243.065,162.51 242.5,160.5C 241.785,162.778 240.618,164.111 239,164.5C 233.996,161.499 228.496,159.665 222.5,159C 220.777,158.477 219.444,157.477 218.5,156C 220.07,153.941 221.403,151.774 222.5,149.5C 225.213,147.786 227.213,145.453 228.5,142.5C 233.077,142.318 237.077,140.818 240.5,138C 248.309,137.077 255.976,137.577 263.5,139.5 Z"/></g>
<g><path style="opacity:1" fill="#aa331f" d="M 255.5,156.5 C 253.263,158.647 251.263,160.98 249.5,163.5C 249.833,162.167 250.167,160.833 250.5,159.5C 251.389,156.771 253.223,154.771 256,153.5C 256.74,154.749 256.573,155.749 255.5,156.5 Z"/></g>
<g><path style="opacity:1" fill="#b43a23" d="M 279.5,151.5 C 284.067,155.969 287.067,161.302 288.5,167.5C 288.819,172.363 288.486,177.03 287.5,181.5C 287.817,177.298 287.483,173.298 286.5,169.5C 284.988,165.631 283.655,161.631 282.5,157.5C 280.323,158.504 279.989,157.838 281.5,155.5C 280.37,154.378 279.703,153.044 279.5,151.5 Z"/></g>
<g><path style="opacity:1" fill="#350000" d="M 323.5,162.5 C 313.5,162.5 303.5,162.5 293.5,162.5C 302.859,161.797 312.359,161.13 322,160.5C 323.03,160.836 323.53,161.503 323.5,162.5 Z"/></g>
<g><path style="opacity:1" fill="#b44730" d="M 293.5,162.5 C 303.5,162.5 313.5,162.5 323.5,162.5C 323.5,163.167 323.5,163.833 323.5,164.5C 313.916,163.527 304.25,163.194 294.5,163.5C 294.5,164.833 294.5,166.167 294.5,167.5C 293.549,166.081 293.216,164.415 293.5,162.5 Z"/></g>
<g><path style="opacity:1" fill="#f04524" d="M 222.5,149.5 C 221.403,151.774 220.07,153.941 218.5,156C 219.444,157.477 220.777,158.477 222.5,159C 228.496,159.665 233.996,161.499 239,164.5C 240.618,164.111 241.785,162.778 242.5,160.5C 243.065,162.51 244.065,164.176 245.5,165.5C 246.795,163.035 248.462,161.035 250.5,159.5C 250.167,160.833 249.833,162.167 249.5,163.5C 248.4,164.605 247.733,165.938 247.5,167.5C 245.177,168.778 242.677,169.778 240,170.5C 232.246,168.634 224.413,167.134 216.5,166C 215.3,162.869 215.3,159.702 216.5,156.5C 216.5,155.833 216.5,155.167 216.5,154.5C 218.5,152.833 220.5,151.167 222.5,149.5 Z"/></g>
<g><path style="opacity:1" fill="#ef583a" d="M 216.5,156.5 C 215.3,159.702 215.3,162.869 216.5,166C 224.413,167.134 232.246,168.634 240,170.5C 242.677,169.778 245.177,168.778 247.5,167.5C 245.853,170.473 243.853,173.14 241.5,175.5C 240.06,176.363 238.726,176.363 237.5,175.5C 236.152,177.461 234.819,177.628 233.5,176C 230.518,175.502 227.518,175.335 224.5,175.5C 224.649,176.552 224.483,177.552 224,178.5C 223.571,168.232 222.237,168.232 220,178.5C 220.107,175.443 218.94,173.109 216.5,171.5C 215.833,173.167 215.167,174.833 214.5,176.5C 213.817,176.137 213.15,175.804 212.5,175.5C 213.053,170.518 213.387,165.518 213.5,160.5C 214.026,158.77 215.026,157.436 216.5,156.5 Z"/></g>
<g><path style="opacity:1" fill="#f04a2a" d="M 286.5,170.5 C 286.826,174.884 286.492,179.217 285.5,183.5C 283.219,185.8 281.386,188.466 280,191.5C 279.728,188.568 278.562,186.068 276.5,184C 274.153,183.666 271.819,183.833 269.5,184.5C 269.78,181.612 268.447,180.112 265.5,180C 264.748,179.329 264.414,178.496 264.5,177.5C 264.423,176.25 263.756,175.417 262.5,175C 259.447,174.821 256.447,174.321 253.5,173.5C 254.445,169.552 255.112,165.552 255.5,161.5C 255.5,159.833 255.5,158.167 255.5,156.5C 256.573,155.749 256.74,154.749 256,153.5C 253.223,154.771 251.389,156.771 250.5,159.5C 250.343,158.127 250.51,156.793 251,155.5C 253,154.167 255,152.833 257,151.5C 257.333,156.174 257.167,160.84 256.5,165.5C 263.964,167.153 271.131,169.486 278,172.5C 280.481,170.686 283.315,170.02 286.5,170.5 Z"/></g>
<g><path style="opacity:1" fill="#ee7059" d="M 175.5,162.5 C 185.5,162.5 195.5,162.5 205.5,162.5C 205.784,164.415 205.451,166.081 204.5,167.5C 203.527,169.948 203.194,172.615 203.5,175.5C 203.167,175.5 202.833,175.5 202.5,175.5C 203.266,186.503 201.6,187.503 197.5,178.5C 194.852,180.019 192.018,181.019 189,181.5C 185.289,180.082 181.123,179.416 176.5,179.5C 176.795,177.265 176.461,175.265 175.5,173.5C 175.5,169.833 175.5,166.167 175.5,162.5 Z"/></g>
<g><path style="opacity:1" fill="#f36143" d="M 202.5,175.5 C 200.122,173.62 197.622,171.953 195,170.5C 194.439,171.022 193.772,171.355 193,171.5C 187.69,169.659 182.19,168.992 176.5,169.5C 176.5,167.833 176.5,166.167 176.5,164.5C 185.167,164.5 193.833,164.5 202.5,164.5C 202.5,168.167 202.5,171.833 202.5,175.5 Z"/></g>
<g><path style="opacity:1" fill="#b56257" d="M 210.5,167.5 C 210.833,167.5 211.167,167.5 211.5,167.5C 211.334,172.511 211.501,177.511 212,182.5C 214.251,185.017 215.084,188.017 214.5,191.5C 210.851,184.051 209.518,176.051 210.5,167.5 Z"/></g>
<g><path style="opacity:1" fill="#d0533c" d="M 255.5,161.5 C 255.112,165.552 254.445,169.552 253.5,173.5C 256.447,174.321 259.447,174.821 262.5,175C 263.756,175.417 264.423,176.25 264.5,177.5C 263.263,178.965 262.263,180.632 261.5,182.5C 260.833,182.5 260.167,182.5 259.5,182.5C 260.242,180.574 261.242,178.741 262.5,177C 258.848,176.501 255.182,176.335 251.5,176.5C 251.451,171.023 252.784,166.023 255.5,161.5 Z"/></g>
<g><path style="opacity:1" fill="#180503" d="M 255.5,156.5 C 255.5,158.167 255.5,159.833 255.5,161.5C 252.784,166.023 251.451,171.023 251.5,176.5C 255.182,176.335 258.848,176.501 262.5,177C 261.242,178.741 260.242,180.574 259.5,182.5C 257.113,184.913 254.946,187.58 253,190.5C 252.517,191.448 252.351,192.448 252.5,193.5C 249.109,197.928 245.942,202.594 243,207.5C 243.752,202.899 244.585,198.232 245.5,193.5C 246.484,190.949 247.484,188.282 248.5,185.5C 244.833,184.833 241.167,184.167 237.5,183.5C 238.246,182.264 238.579,180.93 238.5,179.5C 240.446,178.965 241.446,177.632 241.5,175.5C 243.853,173.14 245.853,170.473 247.5,167.5C 247.733,165.938 248.4,164.605 249.5,163.5C 251.263,160.98 253.263,158.647 255.5,156.5 Z"/></g>
<g><path style="opacity:1" fill="#ed4a2b" d="M 323.5,164.5 C 323.5,170.833 323.5,177.167 323.5,183.5C 322.527,185.948 322.194,188.615 322.5,191.5C 315.616,190.397 308.616,190.397 301.5,191.5C 302.244,188.05 300.91,186.384 297.5,186.5C 297.762,187.978 297.429,189.311 296.5,190.5C 296.167,189.5 295.833,188.5 295.5,187.5C 296.355,181.866 296.688,176.199 296.5,170.5C 296.167,170.5 295.833,170.5 295.5,170.5C 295.5,169.833 295.167,169.5 294.5,169.5C 294.5,168.833 294.5,168.167 294.5,167.5C 294.5,166.167 294.5,164.833 294.5,163.5C 304.25,163.194 313.916,163.527 323.5,164.5 Z"/></g>
<g><path style="opacity:1" fill="#f13715" d="M 296.5,170.5 C 296.5,168.5 296.5,166.5 296.5,164.5C 305.208,164.255 313.874,164.589 322.5,165.5C 322.5,169.5 322.5,173.5 322.5,177.5C 320.048,177.624 318.048,178.624 316.5,180.5C 310.574,179.899 304.908,178.566 299.5,176.5C 299.649,177.552 299.483,178.552 299,179.5C 298.667,179.167 298.333,178.833 298,178.5C 297.817,175.635 297.317,172.969 296.5,170.5 Z"/></g>
<g><path style="opacity:1" fill="#180705" d="M 293.5,162.5 C 293.216,164.415 293.549,166.081 294.5,167.5C 294.5,168.167 294.5,168.833 294.5,169.5C 295.154,180.272 292.82,190.272 287.5,199.5C 286.4,200.605 285.733,201.938 285.5,203.5C 283.118,205.215 281.118,207.215 279.5,209.5C 274.087,213.382 271.754,218.716 272.5,225.5C 272.5,226.833 272.5,228.167 272.5,229.5C 272.5,233.833 272.5,238.167 272.5,242.5C 272.737,243.791 272.404,244.791 271.5,245.5C 271.666,240.156 271.499,234.823 271,229.5C 269.701,229.034 268.201,229.034 266.5,229.5C 266.5,228.5 266.5,227.5 266.5,226.5C 267.5,226.5 268.5,226.5 269.5,226.5C 269.5,225.5 269.5,224.5 269.5,223.5C 268.5,223.5 267.5,223.5 266.5,223.5C 266.5,222.833 266.5,222.167 266.5,221.5C 266.892,217.658 267.892,213.991 269.5,210.5C 273.102,206.395 276.935,202.395 281,198.5C 283.872,194.138 286.039,189.471 287.5,184.5C 287.5,183.5 287.5,182.5 287.5,181.5C 288.486,177.03 288.819,172.363 288.5,167.5C 289.151,168.091 289.818,168.757 290.5,169.5C 290.938,166.705 291.938,164.372 293.5,162.5 Z"/></g>
<g><path style="opacity:1" fill="#f26c4e" d="M 241.5,175.5 C 241.446,177.632 240.446,178.965 238.5,179.5C 237.167,179.5 235.833,179.5 234.5,179.5C 234.663,181.857 234.497,184.19 234,186.5C 233.085,185.672 232.419,184.672 232,183.5C 231.667,184.167 231.333,184.833 231,185.5C 230,184.5 229,183.5 228,182.5C 227.667,183.167 227.333,183.833 227,184.5C 222.841,184.376 219.507,182.709 217,179.5C 214.05,180.232 212.55,178.899 212.5,175.5C 213.15,175.804 213.817,176.137 214.5,176.5C 215.167,174.833 215.833,173.167 216.5,171.5C 218.94,173.109 220.107,175.443 220,178.5C 222.237,168.232 223.571,168.232 224,178.5C 224.483,177.552 224.649,176.552 224.5,175.5C 227.518,175.335 230.518,175.502 233.5,176C 234.819,177.628 236.152,177.461 237.5,175.5C 238.726,176.363 240.06,176.363 241.5,175.5 Z"/></g>
<g><path style="opacity:1" fill="#f59280" d="M 159.5,178.5 C 162.167,178.5 164.833,178.5 167.5,178.5C 167.296,181.518 166.963,184.518 166.5,187.5C 164.5,187.5 162.5,187.5 160.5,187.5C 160.795,185.265 160.461,183.265 159.5,181.5C 159.5,180.5 159.5,179.5 159.5,178.5 Z"/></g>
<g><path style="opacity:1" fill="#ee7c66" d="M 213.5,160.5 C 213.387,165.518 213.053,170.518 212.5,175.5C 212.55,178.899 214.05,180.232 217,179.5C 219.507,182.709 222.841,184.376 227,184.5C 227.333,183.833 227.667,183.167 228,182.5C 229,183.5 230,184.5 231,185.5C 231.333,184.833 231.667,184.167 232,183.5C 232.419,184.672 233.085,185.672 234,186.5C 234.497,184.19 234.663,181.857 234.5,179.5C 235.833,179.5 237.167,179.5 238.5,179.5C 238.579,180.93 238.246,182.264 237.5,183.5C 241.167,184.167 244.833,184.833 248.5,185.5C 247.484,188.282 246.484,190.949 245.5,193.5C 245.167,193.5 244.833,193.5 244.5,193.5C 243.012,194.939 241.178,195.605 239,195.5C 235.824,194.681 232.824,193.348 230,191.5C 227.536,192.161 225.036,192.661 222.5,193C 221.638,195.734 220.805,195.901 220,193.5C 219.601,193.728 219.435,194.062 219.5,194.5C 218.626,192.31 216.959,191.31 214.5,191.5C 215.084,188.017 214.251,185.017 212,182.5C 211.501,177.511 211.334,172.511 211.5,167.5C 211.41,164.848 212.076,162.515 213.5,160.5 Z"/></g>
<g><path style="opacity:1" fill="#ef8f7d" d="M 204.5,167.5 C 203.846,175.751 204.846,183.751 207.5,191.5C 206.549,192.919 206.216,194.585 206.5,196.5C 196.786,195.3 187.286,193.3 178,190.5C 177.667,190.833 177.333,191.167 177,191.5C 176.809,189.292 176.309,187.292 175.5,185.5C 175.5,181.5 175.5,177.5 175.5,173.5C 176.461,175.265 176.795,177.265 176.5,179.5C 176.5,180.5 176.5,181.5 176.5,182.5C 182.678,183.36 188.511,185.027 194,187.5C 194.725,185.842 195.892,185.342 197.5,186C 198.645,188.418 200.145,190.585 202,192.5C 203.449,187.019 203.949,181.352 203.5,175.5C 203.194,172.615 203.527,169.948 204.5,167.5 Z"/></g>
<g><path style="opacity:1" fill="#f6846f" d="M 202.5,175.5 C 202.833,175.5 203.167,175.5 203.5,175.5C 203.949,181.352 203.449,187.019 202,192.5C 200.145,190.585 198.645,188.418 197.5,186C 195.892,185.342 194.725,185.842 194,187.5C 188.511,185.027 182.678,183.36 176.5,182.5C 176.5,181.5 176.5,180.5 176.5,179.5C 181.123,179.416 185.289,180.082 189,181.5C 192.018,181.019 194.852,180.019 197.5,178.5C 201.6,187.503 203.266,186.503 202.5,175.5 Z"/></g>
<g><path style="opacity:1" fill="#f0745f" d="M 259.5,182.5 C 260.167,182.5 260.833,182.5 261.5,182.5C 259.919,184.142 259.253,186.142 259.5,188.5C 262.028,189.023 264.361,190.023 266.5,191.5C 267.647,191.182 268.481,190.516 269,189.5C 270.401,191.192 272.234,191.859 274.5,191.5C 274.337,193.857 274.503,196.19 275,198.5C 276.049,196.893 277.549,196.227 279.5,196.5C 278.5,198.167 277.167,199.5 275.5,200.5C 275.19,199.262 274.69,199.262 274,200.5C 273.51,199.207 273.343,197.873 273.5,196.5C 268.076,196.312 262.743,195.478 257.5,194C 256.151,193.228 255.318,192.061 255,190.5C 254.5,191 254,191.5 253.5,192C 254.573,193.25 254.573,194.584 253.5,196C 253.164,197.03 252.497,197.53 251.5,197.5C 252.234,196.292 252.567,194.959 252.5,193.5C 252.351,192.448 252.517,191.448 253,190.5C 254.946,187.58 257.113,184.913 259.5,182.5 Z"/></g>
<g><path style="opacity:1" fill="#f26347" d="M 295.5,170.5 C 295.833,170.5 296.167,170.5 296.5,170.5C 296.688,176.199 296.355,181.866 295.5,187.5C 295.833,188.5 296.167,189.5 296.5,190.5C 297.429,189.311 297.762,187.978 297.5,186.5C 300.91,186.384 302.244,188.05 301.5,191.5C 308.616,190.397 315.616,190.397 322.5,191.5C 322.665,195.182 322.499,198.848 322,202.5C 316.049,200.424 309.882,199.257 303.5,199C 301.561,198.092 300.561,196.592 300.5,194.5C 298.071,194.585 296.071,195.585 294.5,197.5C 294.167,196.667 293.833,195.833 293.5,195C 294.906,186.893 295.572,178.727 295.5,170.5 Z"/></g>
<g><path style="opacity:1" fill="#f26a4c" d="M 286.5,169.5 C 287.483,173.298 287.817,177.298 287.5,181.5C 287.5,182.5 287.5,183.5 287.5,184.5C 286.504,184.414 285.671,184.748 285,185.5C 283.72,189.494 281.887,193.16 279.5,196.5C 277.549,196.227 276.049,196.893 275,198.5C 274.503,196.19 274.337,193.857 274.5,191.5C 272.234,191.859 270.401,191.192 269,189.5C 268.481,190.516 267.647,191.182 266.5,191.5C 264.361,190.023 262.028,189.023 259.5,188.5C 259.253,186.142 259.919,184.142 261.5,182.5C 262.263,180.632 263.263,178.965 264.5,177.5C 264.414,178.496 264.748,179.329 265.5,180C 268.447,180.112 269.78,181.612 269.5,184.5C 271.819,183.833 274.153,183.666 276.5,184C 278.562,186.068 279.728,188.568 280,191.5C 281.386,188.466 283.219,185.8 285.5,183.5C 286.492,179.217 286.826,174.884 286.5,170.5C 286.5,170.167 286.5,169.833 286.5,169.5 Z"/></g>
<g><path style="opacity:1" fill="#f8907e" d="M 244.5,193.5 C 242.366,196.356 241.2,199.69 241,203.5C 237.865,204.799 234.699,204.799 231.5,203.5C 230.749,202.624 230.249,201.624 230,200.5C 225.891,201.921 222.891,200.587 221,196.5C 220.667,196.833 220.333,197.167 220,197.5C 219.517,196.552 219.351,195.552 219.5,194.5C 219.435,194.062 219.601,193.728 220,193.5C 220.805,195.901 221.638,195.734 222.5,193C 225.036,192.661 227.536,192.161 230,191.5C 232.824,193.348 235.824,194.681 239,195.5C 241.178,195.605 243.012,194.939 244.5,193.5 Z"/></g>
<g><path style="opacity:1" fill="#f58b76" d="M 275.5,200.5 C 273.523,202.829 271.523,205.163 269.5,207.5C 268.5,207.5 267.5,207.5 266.5,207.5C 266.649,208.552 266.483,209.552 266,210.5C 265.5,209.333 264.667,208.5 263.5,208C 260.854,207.503 258.187,207.336 255.5,207.5C 255.5,206.167 255.5,204.833 255.5,203.5C 252.192,202.974 250.026,204.307 249,207.5C 249.426,204.168 250.26,200.835 251.5,197.5C 252.497,197.53 253.164,197.03 253.5,196C 254.573,194.584 254.573,193.25 253.5,192C 254,191.5 254.5,191 255,190.5C 255.318,192.061 256.151,193.228 257.5,194C 262.743,195.478 268.076,196.312 273.5,196.5C 273.343,197.873 273.51,199.207 274,200.5C 274.69,199.262 275.19,199.262 275.5,200.5 Z"/></g>
<g><path style="opacity:1" fill="#f5b1a9" d="M 159.5,178.5 C 162.287,177.523 165.287,177.19 168.5,177.5C 168.5,187.5 168.5,197.5 168.5,207.5C 165.833,206.167 163.167,204.833 160.5,203.5C 160.768,201.901 160.434,200.568 159.5,199.5C 159.5,193.5 159.5,187.5 159.5,181.5C 160.461,183.265 160.795,185.265 160.5,187.5C 162.5,187.5 164.5,187.5 166.5,187.5C 166.963,184.518 167.296,181.518 167.5,178.5C 164.833,178.5 162.167,178.5 159.5,178.5 Z"/></g>
<g><path style="opacity:1" fill="#f6a99a" d="M 175.5,185.5 C 176.309,187.292 176.809,189.292 177,191.5C 177.333,191.167 177.667,190.833 178,190.5C 187.286,193.3 196.786,195.3 206.5,196.5C 206.216,194.585 206.549,192.919 207.5,191.5C 209.647,196.46 212.314,201.127 215.5,205.5C 215.5,207.167 215.5,208.833 215.5,210.5C 210.293,208.901 204.96,207.901 199.5,207.5C 199.5,206.5 199.5,205.5 199.5,204.5C 192.002,202.376 184.335,200.71 176.5,199.5C 176.737,198.209 176.404,197.209 175.5,196.5C 175.5,192.833 175.5,189.167 175.5,185.5 Z"/></g>
<g><path style="opacity:1" fill="#d07c6d" d="M 287.5,184.5 C 286.039,189.471 283.872,194.138 281,198.5C 276.935,202.395 273.102,206.395 269.5,210.5C 269.167,210.5 268.833,210.5 268.5,210.5C 268.557,209.391 268.89,208.391 269.5,207.5C 271.523,205.163 273.523,202.829 275.5,200.5C 277.167,199.5 278.5,198.167 279.5,196.5C 281.887,193.16 283.72,189.494 285,185.5C 285.671,184.748 286.504,184.414 287.5,184.5 Z"/></g>
<g><path style="opacity:1" fill="#f07962" d="M 294.5,169.5 C 295.167,169.5 295.5,169.833 295.5,170.5C 295.572,178.727 294.906,186.893 293.5,195C 293.833,195.833 294.167,196.667 294.5,197.5C 296.071,195.585 298.071,194.585 300.5,194.5C 300.561,196.592 301.561,198.092 303.5,199C 309.882,199.257 316.049,200.424 322,202.5C 322.499,198.848 322.665,195.182 322.5,191.5C 322.194,188.615 322.527,185.948 323.5,183.5C 323.5,191.5 323.5,199.5 323.5,207.5C 321.964,209.025 320.964,211.025 320.5,213.5C 319.713,212.758 319.047,211.925 318.5,211C 312.884,208.516 307.384,206.683 302,205.5C 294.372,209.567 289.539,207.567 287.5,199.5C 292.82,190.272 295.154,180.272 294.5,169.5 Z"/></g>
<g><path style="opacity:1" fill="#ed705d" d="M 339.5,223.5 C 338.833,223.5 338.167,223.5 337.5,223.5C 338.077,219.131 337.243,215.131 335,211.5C 334.118,214.789 333.452,218.123 333,221.5C 332.809,219.292 332.309,217.292 331.5,215.5C 331.806,212.615 331.473,209.948 330.5,207.5C 330.5,197.5 330.5,187.5 330.5,177.5C 333.5,177.5 336.5,177.5 339.5,177.5C 339.5,192.833 339.5,208.167 339.5,223.5 Z"/></g>
<g><path style="opacity:1" fill="#ee4d2d" d="M 331.5,178.5 C 333.833,178.5 336.167,178.5 338.5,178.5C 338.666,184.176 338.499,189.843 338,195.5C 337.418,198.668 336.418,199.001 335,196.5C 334.586,196.957 334.086,197.291 333.5,197.5C 331.817,191.289 331.15,184.955 331.5,178.5 Z"/></g>
<g><path style="opacity:1" fill="#f58d7a" d="M 287.5,199.5 C 289.539,207.567 294.372,209.567 302,205.5C 307.384,206.683 312.884,208.516 318.5,211C 319.047,211.925 319.713,212.758 320.5,213.5C 320.964,211.025 321.964,209.025 323.5,207.5C 323.5,212.833 323.5,218.167 323.5,223.5C 322.833,223.5 322.167,223.5 321.5,223.5C 321.5,221.833 321.5,220.167 321.5,218.5C 308.633,215.748 295.967,213.414 283.5,211.5C 283.287,208.549 283.954,205.882 285.5,203.5C 285.733,201.938 286.4,200.605 287.5,199.5 Z"/></g>
<g><path style="opacity:1" fill="#f3a293" d="M 214.5,191.5 C 216.959,191.31 218.626,192.31 219.5,194.5C 219.351,195.552 219.517,196.552 220,197.5C 220.333,197.167 220.667,196.833 221,196.5C 222.891,200.587 225.891,201.921 230,200.5C 230.249,201.624 230.749,202.624 231.5,203.5C 234.699,204.799 237.865,204.799 241,203.5C 241.2,199.69 242.366,196.356 244.5,193.5C 244.833,193.5 245.167,193.5 245.5,193.5C 244.585,198.232 243.752,202.899 243,207.5C 245.942,202.594 249.109,197.928 252.5,193.5C 252.567,194.959 252.234,196.292 251.5,197.5C 250.26,200.835 249.426,204.168 249,207.5C 250.026,204.307 252.192,202.974 255.5,203.5C 255.5,204.833 255.5,206.167 255.5,207.5C 258.187,207.336 260.854,207.503 263.5,208C 264.667,208.5 265.5,209.333 266,210.5C 266.483,209.552 266.649,208.552 266.5,207.5C 267.5,207.5 268.5,207.5 269.5,207.5C 268.89,208.391 268.557,209.391 268.5,210.5C 266.967,212.355 265.3,214.188 263.5,216C 261.527,216.495 259.527,216.662 257.5,216.5C 257.66,214.801 257.494,213.134 257,211.5C 254.087,214.831 250.587,215.331 246.5,213C 245.638,210.266 244.805,210.099 244,212.5C 243.667,211.833 243.333,211.167 243,210.5C 242.71,212.044 242.044,213.377 241,214.5C 239.333,213.167 237.667,213.167 236,214.5C 233.399,211.696 231.899,212.029 231.5,215.5C 228.415,208.892 223.915,203.226 218,198.5C 216.807,196.114 215.64,193.78 214.5,191.5 Z"/></g>
<g><path style="opacity:1" fill="#fbccc3" d="M 175.5,207.5 C 180.747,210.179 186.247,212.179 192,213.5C 192.333,213.167 192.667,212.833 193,212.5C 198.743,215.566 204.577,216.066 210.5,214C 211.167,214.333 211.833,214.667 212.5,215C 211.289,215.893 211.289,216.726 212.5,217.5C 215.289,218.633 217.622,220.3 219.5,222.5C 218.448,222.351 217.448,222.517 216.5,223C 217.696,223.654 217.696,224.154 216.5,224.5C 202.993,220.969 189.326,217.969 175.5,215.5C 175.5,212.833 175.5,210.167 175.5,207.5 Z"/></g>
<g><path style="opacity:1" fill="#f7bdb3" d="M 175.5,196.5 C 176.404,197.209 176.737,198.209 176.5,199.5C 184.335,200.71 192.002,202.376 199.5,204.5C 199.5,205.5 199.5,206.5 199.5,207.5C 204.96,207.901 210.293,208.901 215.5,210.5C 215.5,208.833 215.5,207.167 215.5,205.5C 221.933,209.363 225.6,215.03 226.5,222.5C 224.059,223.756 221.726,223.756 219.5,222.5C 217.622,220.3 215.289,218.633 212.5,217.5C 211.289,216.726 211.289,215.893 212.5,215C 211.833,214.667 211.167,214.333 210.5,214C 204.577,216.066 198.743,215.566 193,212.5C 192.667,212.833 192.333,213.167 192,213.5C 186.247,212.179 180.747,210.179 175.5,207.5C 175.5,203.833 175.5,200.167 175.5,196.5 Z"/></g>
<g><path style="opacity:1" fill="#f7a190" d="M 285.5,203.5 C 283.954,205.882 283.287,208.549 283.5,211.5C 295.967,213.414 308.633,215.748 321.5,218.5C 321.5,220.167 321.5,221.833 321.5,223.5C 321.854,226.421 320.854,228.754 318.5,230.5C 317.692,230.192 317.025,229.692 316.5,229C 310.516,227.907 304.516,226.907 298.5,226C 294.187,223.706 289.52,222.873 284.5,223.5C 284.33,222.178 284.663,221.011 285.5,220C 281.975,219.342 279.141,220.509 277,223.5C 275.954,222.228 275.454,220.728 275.5,219C 276.964,215.904 278.297,212.737 279.5,209.5C 281.118,207.215 283.118,205.215 285.5,203.5 Z"/></g>
<g><path style="opacity:1" fill="#f9dfd9" d="M 159.5,199.5 C 160.434,200.568 160.768,201.901 160.5,203.5C 163.167,204.833 165.833,206.167 168.5,207.5C 168.5,212.833 168.5,218.167 168.5,223.5C 165.5,223.5 162.5,223.5 159.5,223.5C 159.5,215.5 159.5,207.5 159.5,199.5 Z"/></g>
<g><path style="opacity:1" fill="#f4b9ac" d="M 268.5,210.5 C 268.833,210.5 269.167,210.5 269.5,210.5C 267.892,213.991 266.892,217.658 266.5,221.5C 254.992,223.152 243.659,222.819 232.5,220.5C 232.371,218.784 232.038,217.117 231.5,215.5C 231.899,212.029 233.399,211.696 236,214.5C 237.667,213.167 239.333,213.167 241,214.5C 242.044,213.377 242.71,212.044 243,210.5C 243.333,211.167 243.667,211.833 244,212.5C 244.805,210.099 245.638,210.266 246.5,213C 250.587,215.331 254.087,214.831 257,211.5C 257.494,213.134 257.66,214.801 257.5,216.5C 259.527,216.662 261.527,216.495 263.5,216C 265.3,214.188 266.967,212.355 268.5,210.5 Z"/></g>
<g><path style="opacity:1" fill="#b79388" d="M 232.5,220.5 C 243.659,222.819 254.992,223.152 266.5,221.5C 266.5,222.167 266.5,222.833 266.5,223.5C 255.167,223.5 243.833,223.5 232.5,223.5C 232.5,222.5 232.5,221.5 232.5,220.5 Z"/></g>
<g><path style="opacity:1" fill="#fcdbd5" d="M 175.5,215.5 C 189.326,217.969 202.993,220.969 216.5,224.5C 217.696,224.154 217.696,223.654 216.5,223C 217.448,222.517 218.448,222.351 219.5,222.5C 221.726,223.756 224.059,223.756 226.5,222.5C 226.5,225.5 226.5,228.5 226.5,231.5C 225.691,233.292 225.191,235.292 225,237.5C 224.505,235.527 224.338,233.527 224.5,231.5C 208.183,227.727 191.85,224.727 175.5,222.5C 175.5,220.167 175.5,217.833 175.5,215.5 Z"/></g>
<g><path style="opacity:1" fill="#7c635e" d="M 266.5,226.5 C 266.5,227.5 266.5,228.5 266.5,229.5C 266.672,230.492 266.338,231.158 265.5,231.5C 265.5,229.833 265.5,228.167 265.5,226.5C 254.833,226.5 244.167,226.5 233.5,226.5C 233.5,228.167 233.5,229.833 233.5,231.5C 232.539,229.735 232.205,227.735 232.5,225.5C 244.012,225.172 255.346,225.505 266.5,226.5 Z"/></g>
<g><path style="opacity:1" fill="#f6b4a8" d="M 279.5,209.5 C 278.297,212.737 276.964,215.904 275.5,219C 275.454,220.728 275.954,222.228 277,223.5C 279.141,220.509 281.975,219.342 285.5,220C 284.663,221.011 284.33,222.178 284.5,223.5C 289.52,222.873 294.187,223.706 298.5,226C 304.516,226.907 310.516,227.907 316.5,229C 317.025,229.692 317.692,230.192 318.5,230.5C 320.854,228.754 321.854,226.421 321.5,223.5C 322.167,223.5 322.833,223.5 323.5,223.5C 323.5,226.167 323.5,228.833 323.5,231.5C 322.71,232.609 322.21,233.942 322,235.5C 321.333,232.833 320.667,232.833 320,235.5C 319.5,235 319,234.5 318.5,234C 306.703,232.952 295.203,230.786 284,227.5C 278.729,231.54 275.396,230.207 274,223.5C 273.722,224.416 273.222,225.082 272.5,225.5C 271.754,218.716 274.087,213.382 279.5,209.5 Z"/></g>
<g><path style="opacity:1" fill="#f79986" d="M 337.5,223.5 C 338.049,232.941 336.382,233.607 332.5,225.5C 331.673,222.217 331.34,218.884 331.5,215.5C 332.309,217.292 332.809,219.292 333,221.5C 333.452,218.123 334.118,214.789 335,211.5C 337.243,215.131 338.077,219.131 337.5,223.5 Z"/></g>
<g><path style="opacity:1" fill="#ecc7c3" d="M 265.5,231.5 C 254.833,231.5 244.167,231.5 233.5,231.5C 233.5,229.833 233.5,228.167 233.5,226.5C 244.167,226.5 254.833,226.5 265.5,226.5C 265.5,228.167 265.5,229.833 265.5,231.5 Z"/></g>
<g><path style="opacity:1" fill="#fbfafa" d="M 159.5,223.5 C 162.5,223.5 165.5,223.5 168.5,223.5C 168.5,234.833 168.5,246.167 168.5,257.5C 184.837,257.333 201.17,257.5 217.5,258C 226.565,259.907 233.565,264.74 238.5,272.5C 233.527,271.795 228.527,270.295 223.5,268C 202.202,266.582 180.869,266.082 159.5,266.5C 159.5,252.167 159.5,237.833 159.5,223.5 Z"/></g>
<g><path style="opacity:1" fill="#fdf0ee" d="M 175.5,222.5 C 191.85,224.727 208.183,227.727 224.5,231.5C 224.338,233.527 224.505,235.527 225,237.5C 225.191,235.292 225.691,233.292 226.5,231.5C 226.5,234.167 226.5,236.833 226.5,239.5C 215.905,240.707 205.571,239.54 195.5,236C 188.893,234.621 182.227,233.787 175.5,233.5C 175.5,229.833 175.5,226.167 175.5,222.5 Z"/></g>
<g><path style="opacity:1" fill="#fbfafa" d="M 175.5,233.5 C 182.227,233.787 188.893,234.621 195.5,236C 205.571,239.54 215.905,240.707 226.5,239.5C 226.5,241.5 226.5,243.5 226.5,245.5C 228.5,245.5 230.5,245.5 232.5,245.5C 233.223,251.221 236.223,255.221 241.5,257.5C 242.807,258.153 244.14,258.82 245.5,259.5C 246.661,263.795 246.828,268.129 246,272.5C 236.845,256.669 223.012,249.336 204.5,250.5C 194.833,250.5 185.167,250.5 175.5,250.5C 175.5,244.833 175.5,239.167 175.5,233.5 Z"/></g>
<g><path style="opacity:1" fill="#0d0605" d="M 205.5,162.5 C 206.328,168.653 206.828,174.987 207,181.5C 207.973,183.392 208.64,185.392 209,187.5C 209.172,180.654 209.672,173.987 210.5,167.5C 209.518,176.051 210.851,184.051 214.5,191.5C 215.64,193.78 216.807,196.114 218,198.5C 223.915,203.226 228.415,208.892 231.5,215.5C 232.038,217.117 232.371,218.784 232.5,220.5C 232.5,221.5 232.5,222.5 232.5,223.5C 243.833,223.5 255.167,223.5 266.5,223.5C 267.5,223.5 268.5,223.5 269.5,223.5C 269.5,224.5 269.5,225.5 269.5,226.5C 268.5,226.5 267.5,226.5 266.5,226.5C 255.346,225.505 244.012,225.172 232.5,225.5C 232.205,227.735 232.539,229.735 233.5,231.5C 244.167,231.5 254.833,231.5 265.5,231.5C 266.338,231.158 266.672,230.492 266.5,229.5C 268.201,229.034 269.701,229.034 271,229.5C 271.499,234.823 271.666,240.156 271.5,245.5C 269.712,245.215 268.045,245.548 266.5,246.5C 265.304,251.692 262.304,255.358 257.5,257.5C 256.752,255.668 255.752,254.001 254.5,252.5C 258.739,250.162 260.739,246.495 260.5,241.5C 252.804,241.169 245.138,241.503 237.5,242.5C 238.382,246.956 240.715,250.289 244.5,252.5C 243.293,253.189 241.959,253.355 240.5,253C 242.036,254.468 242.37,255.968 241.5,257.5C 236.223,255.221 233.223,251.221 232.5,245.5C 230.5,245.5 228.5,245.5 226.5,245.5C 226.5,243.5 226.5,241.5 226.5,239.5C 226.5,236.833 226.5,234.167 226.5,231.5C 226.5,228.5 226.5,225.5 226.5,222.5C 225.6,215.03 221.933,209.363 215.5,205.5C 212.314,201.127 209.647,196.46 207.5,191.5C 204.846,183.751 203.846,175.751 204.5,167.5C 205.451,166.081 205.784,164.415 205.5,162.5 Z"/></g>
<g><path style="opacity:1" fill="#fae0de" d="M 265.5,234.5 C 265.5,235.833 265.5,237.167 265.5,238.5C 254.833,238.5 244.167,238.5 233.5,238.5C 233.5,237.167 233.5,235.833 233.5,234.5C 244.167,234.5 254.833,234.5 265.5,234.5 Z"/></g>
<g><path style="opacity:1" fill="#7d6d6c" d="M 265.5,234.5 C 254.833,234.5 244.167,234.5 233.5,234.5C 233.5,235.833 233.5,237.167 233.5,238.5C 233.5,238.833 233.5,239.167 233.5,239.5C 232.539,237.735 232.205,235.735 232.5,233.5C 243.679,233.172 254.679,233.505 265.5,234.5 Z"/></g>
<g><path style="opacity:1" fill="#fac4b9" d="M 323.5,231.5 C 323.5,234.167 323.5,236.833 323.5,239.5C 322.549,240.919 322.216,242.585 322.5,244.5C 317.688,244.308 313.355,242.808 309.5,240C 300.208,240.65 291.541,238.816 283.5,234.5C 281.566,234.901 280.066,235.901 279,237.5C 278.581,236.328 277.915,235.328 277,234.5C 276.333,235.833 275.667,235.833 275,234.5C 274.626,232.509 273.793,230.842 272.5,229.5C 272.5,228.167 272.5,226.833 272.5,225.5C 273.222,225.082 273.722,224.416 274,223.5C 275.396,230.207 278.729,231.54 284,227.5C 295.203,230.786 306.703,232.952 318.5,234C 319,234.5 319.5,235 320,235.5C 320.667,232.833 321.333,232.833 322,235.5C 322.21,233.942 322.71,232.609 323.5,231.5 Z"/></g>
<g><path style="opacity:1" fill="#f1b0a3" d="M 330.5,207.5 C 331.473,209.948 331.806,212.615 331.5,215.5C 331.34,218.884 331.673,222.217 332.5,225.5C 336.382,233.607 338.049,232.941 337.5,223.5C 338.167,223.5 338.833,223.5 339.5,223.5C 339.5,226.167 339.5,228.833 339.5,231.5C 338.527,233.948 338.194,236.615 338.5,239.5C 337.5,239.5 336.5,239.5 335.5,239.5C 334.833,244.833 334.167,244.833 333.5,239.5C 332.5,239.5 331.5,239.5 330.5,239.5C 330.5,228.833 330.5,218.167 330.5,207.5 Z"/></g>
<g><path style="opacity:1" fill="#6e5f5d" d="M 175.5,162.5 C 175.5,166.167 175.5,169.833 175.5,173.5C 175.5,177.5 175.5,181.5 175.5,185.5C 175.5,189.167 175.5,192.833 175.5,196.5C 175.5,200.167 175.5,203.833 175.5,207.5C 175.5,210.167 175.5,212.833 175.5,215.5C 175.5,217.833 175.5,220.167 175.5,222.5C 175.5,226.167 175.5,229.833 175.5,233.5C 175.5,239.167 175.5,244.833 175.5,250.5C 185.167,250.5 194.833,250.5 204.5,250.5C 194.681,251.494 184.681,251.827 174.5,251.5C 174.169,221.662 174.502,191.995 175.5,162.5 Z"/></g>
<g><path style="opacity:1" fill="#baa9a1" d="M 265.5,234.5 C 266.451,235.919 266.784,237.585 266.5,239.5C 255.5,239.5 244.5,239.5 233.5,239.5C 233.5,239.167 233.5,238.833 233.5,238.5C 244.167,238.5 254.833,238.5 265.5,238.5C 265.5,237.167 265.5,235.833 265.5,234.5 Z"/></g>
<g><path style="opacity:1" fill="#fbd6cd" d="M 272.5,229.5 C 273.793,230.842 274.626,232.509 275,234.5C 275.667,235.833 276.333,235.833 277,234.5C 277.915,235.328 278.581,236.328 279,237.5C 280.066,235.901 281.566,234.901 283.5,234.5C 291.541,238.816 300.208,240.65 309.5,240C 313.355,242.808 317.688,244.308 322.5,244.5C 322.216,242.585 322.549,240.919 323.5,239.5C 323.5,242.5 323.5,245.5 323.5,248.5C 314.194,249.441 304.861,249.274 295.5,248C 293.939,247.682 292.772,246.849 292,245.5C 291.667,245.833 291.333,246.167 291,246.5C 286.977,244.469 282.811,242.802 278.5,241.5C 277.167,242.5 275.833,243.5 274.5,244.5C 273.818,243.757 273.151,243.091 272.5,242.5C 272.5,238.167 272.5,233.833 272.5,229.5 Z"/></g>
<g><path style="opacity:1" fill="#ede6e6" d="M 254.5,252.5 C 251.133,253.747 247.799,253.747 244.5,252.5C 240.715,250.289 238.382,246.956 237.5,242.5C 245.138,241.503 252.804,241.169 260.5,241.5C 260.739,246.495 258.739,250.162 254.5,252.5 Z"/></g>
<g><path style="opacity:1" fill="#f5edec" d="M 323.5,248.5 C 309.869,250.32 295.869,251.153 281.5,251C 268.604,253.695 259.104,260.861 253,272.5C 252.172,268.129 252.339,263.795 253.5,259.5C 254.86,258.82 256.193,258.153 257.5,257.5C 262.304,255.358 265.304,251.692 266.5,246.5C 268.045,245.548 269.712,245.215 271.5,245.5C 272.404,244.791 272.737,243.791 272.5,242.5C 273.151,243.091 273.818,243.757 274.5,244.5C 275.833,243.5 277.167,242.5 278.5,241.5C 282.811,242.802 286.977,244.469 291,246.5C 291.333,246.167 291.667,245.833 292,245.5C 292.772,246.849 293.939,247.682 295.5,248C 304.861,249.274 314.194,249.441 323.5,248.5 Z"/></g>
<g><path style="opacity:1" fill="#f8d7d3" d="M 339.5,231.5 C 339.5,241.5 339.5,251.5 339.5,261.5C 337.294,260.26 335.461,258.593 334,256.5C 332.989,257.337 331.822,257.67 330.5,257.5C 330.5,251.5 330.5,245.5 330.5,239.5C 331.5,239.5 332.5,239.5 333.5,239.5C 334.167,244.833 334.833,244.833 335.5,239.5C 336.5,239.5 337.5,239.5 338.5,239.5C 338.194,236.615 338.527,233.948 339.5,231.5 Z"/></g>
<g><path style="opacity:1" fill="#f9f7f6" d="M 339.5,261.5 C 339.5,263.167 339.5,264.833 339.5,266.5C 320.497,266.333 301.497,266.5 282.5,267C 275.09,267.859 268.09,270.026 261.5,273.5C 261.615,270.142 263.281,267.309 266.5,265C 270.387,261.889 274.72,259.556 279.5,258C 296.497,257.5 313.497,257.333 330.5,257.5C 331.822,257.67 332.989,257.337 334,256.5C 335.461,258.593 337.294,260.26 339.5,261.5 Z"/></g>
<g><path style="opacity:1" fill="#f0f0f0" d="M 214.5,300.5 C 217.167,300.5 219.833,300.5 222.5,300.5C 222.5,306.167 222.5,311.833 222.5,317.5C 226.5,317.5 230.5,317.5 234.5,317.5C 234.5,319.5 234.5,321.5 234.5,323.5C 227.833,323.5 221.167,323.5 214.5,323.5C 214.5,315.833 214.5,308.167 214.5,300.5 Z"/></g>
<g><path style="opacity:1" fill="#f3f2f3" d="M 266.5,300.5 C 269.167,300.5 271.833,300.5 274.5,300.5C 274.5,306.167 274.5,311.833 274.5,317.5C 278.5,317.5 282.5,317.5 286.5,317.5C 286.5,319.5 286.5,321.5 286.5,323.5C 279.833,323.5 273.167,323.5 266.5,323.5C 266.5,315.833 266.5,308.167 266.5,300.5 Z"/></g>
<g><path style="opacity:1" fill="#f0f0f0" d="M 244.5,300.5 C 257.991,298.49 263.491,304.157 261,317.5C 259.833,320 258,321.833 255.5,323C 239.926,325.437 234.426,319.27 239,304.5C 240.812,303.023 242.645,301.69 244.5,300.5 Z"/></g>
<g><path style="opacity:1" fill="#141313" d="M 246.5,306.5 C 254.629,306.294 256.629,309.794 252.5,317C 247.248,318.856 244.581,317.022 244.5,311.5C 244.437,309.486 245.103,307.819 246.5,306.5 Z"/></g>
<g><path style="opacity:1" fill="#e0e0e0" d="M 157.5,343.5 C 158.833,343.5 160.167,343.5 161.5,343.5C 161.5,347.5 161.5,351.5 161.5,355.5C 163.5,355.5 165.5,355.5 167.5,355.5C 167.5,356.5 167.5,357.5 167.5,358.5C 164.167,358.5 160.833,358.5 157.5,358.5C 157.5,353.5 157.5,348.5 157.5,343.5 Z"/></g>
<g><path style="opacity:1" fill="#d7d7d7" d="M 170.5,343.5 C 171.833,343.5 173.167,343.5 174.5,343.5C 174.5,348.5 174.5,353.5 174.5,358.5C 173.167,358.5 171.833,358.5 170.5,358.5C 170.5,353.5 170.5,348.5 170.5,343.5 Z"/></g>
<g><path style="opacity:1" fill="#e0e0e0" d="M 298.5,343.5 C 299.833,343.5 301.167,343.5 302.5,343.5C 302.5,347.5 302.5,351.5 302.5,355.5C 304.5,355.5 306.5,355.5 308.5,355.5C 308.5,356.5 308.5,357.5 308.5,358.5C 305.167,358.5 301.833,358.5 298.5,358.5C 298.5,353.5 298.5,348.5 298.5,343.5 Z"/></g>
<g><path style="opacity:1" fill="#dfdfdf" d="M 311.5,343.5 C 312.833,343.5 314.167,343.5 315.5,343.5C 315.5,348.5 315.5,353.5 315.5,358.5C 314.167,358.5 312.833,358.5 311.5,358.5C 311.5,353.5 311.5,348.5 311.5,343.5 Z"/></g>
<g><path style="opacity:1" fill="#e9e9e9" d="M 177.5,343.5 C 178.822,343.33 179.989,343.663 181,344.5C 182,347.5 183,350.5 184,353.5C 185.399,350.637 186.399,347.637 187,344.5C 188.011,343.663 189.178,343.33 190.5,343.5C 189.167,348.5 187.833,353.5 186.5,358.5C 184.856,358.714 183.356,358.38 182,357.5C 180.189,352.921 178.689,348.254 177.5,343.5 Z"/></g>
<g><path style="opacity:1" fill="#e5e5e5" d="M 223.5,343.5 C 226.722,343.108 229.722,343.608 232.5,345C 229.546,345.906 226.713,347.073 224,348.5C 222.1,353.913 223.933,356.247 229.5,355.5C 229.5,354.5 229.5,353.5 229.5,352.5C 228.5,352.5 227.5,352.5 226.5,352.5C 226.5,351.5 226.5,350.5 226.5,349.5C 228.5,349.5 230.5,349.5 232.5,349.5C 232.5,352.5 232.5,355.5 232.5,358.5C 225.347,360.448 221.014,357.948 219.5,351C 219.927,347.977 221.261,345.477 223.5,343.5 Z"/></g>
<g><path style="opacity:1" fill="#e5e5e5" d="M 246.5,343.5 C 256.855,343.038 259.855,347.538 255.5,357C 248.173,360.568 243.839,358.401 242.5,350.5C 243.071,347.687 244.404,345.354 246.5,343.5 Z"/></g>
<g><path style="opacity:1" fill="#dbdbdb" d="M 201.5,343.5 C 203.199,343.34 204.866,343.506 206.5,344C 207.96,347.089 209.793,349.922 212,352.5C 212.498,349.518 212.665,346.518 212.5,343.5C 213.5,343.5 214.5,343.5 215.5,343.5C 215.5,348.5 215.5,353.5 215.5,358.5C 214.127,358.657 212.793,358.49 211.5,358C 209.542,355.252 207.709,352.418 206,349.5C 205.502,352.482 205.335,355.482 205.5,358.5C 204.167,358.5 202.833,358.5 201.5,358.5C 201.5,353.5 201.5,348.5 201.5,343.5 Z"/></g>
<g><path style="opacity:1" fill="#0a0a0a" d="M 248.5,346.5 C 250.144,346.286 251.644,346.62 253,347.5C 253.769,350.099 253.602,352.599 252.5,355C 247.504,355.664 245.67,353.498 247,348.5C 247.717,347.956 248.217,347.289 248.5,346.5 Z"/></g>
<g><path style="opacity:1" fill="#f3f3f3" d="M 277.5,343.5 C 281.5,343.5 285.5,343.5 289.5,343.5C 289.5,344.5 289.5,345.5 289.5,346.5C 287.833,346.5 286.167,346.5 284.5,346.5C 284.5,350.5 284.5,354.5 284.5,358.5C 283.5,358.5 282.5,358.5 281.5,358.5C 281.5,354.5 281.5,350.5 281.5,346.5C 280.167,346.5 278.833,346.5 277.5,346.5C 277.5,345.5 277.5,344.5 277.5,343.5 Z"/></g>
<g><path style="opacity:1" fill="#dcdcdc" d="M 319.5,343.5 C 322.833,343.5 326.167,343.5 329.5,343.5C 329.5,344.5 329.5,345.5 329.5,346.5C 327.5,346.5 325.5,346.5 323.5,346.5C 323.5,347.5 323.5,348.5 323.5,349.5C 325.167,349.5 326.833,349.5 328.5,349.5C 328.5,350.5 328.5,351.5 328.5,352.5C 326.833,352.5 325.167,352.5 323.5,352.5C 323.5,354.5 323.5,356.5 323.5,358.5C 322.167,358.5 320.833,358.5 319.5,358.5C 319.5,353.5 319.5,348.5 319.5,343.5 Z"/></g>
<g><path style="opacity:1" fill="#ededed" d="M 261.5,343.5 C 262.5,343.5 263.5,343.5 264.5,343.5C 264.335,347.182 264.501,350.848 265,354.5C 266.667,355.833 268.333,355.833 270,354.5C 270.499,350.848 270.665,347.182 270.5,343.5C 271.833,343.5 273.167,343.5 274.5,343.5C 274.665,347.182 274.499,350.848 274,354.5C 270.399,359.321 266.399,359.654 262,355.5C 261.501,351.514 261.334,347.514 261.5,343.5 Z"/></g>
<g><path style="opacity:1" fill="#ebebeb" d="M 332.5,343.5 C 335.5,343.5 338.5,343.5 341.5,343.5C 341.5,344.5 341.5,345.5 341.5,346.5C 334.833,347.167 334.833,347.833 341.5,348.5C 341.5,349.5 341.5,350.5 341.5,351.5C 339.833,351.5 338.167,351.5 336.5,351.5C 336.5,352.833 336.5,354.167 336.5,355.5C 338.167,355.5 339.833,355.5 341.5,355.5C 341.5,356.5 341.5,357.5 341.5,358.5C 338.5,358.5 335.5,358.5 332.5,358.5C 332.5,353.5 332.5,348.5 332.5,343.5 Z"/></g>
<g><path style="opacity:1" fill="#dadada" d="M 193.5,343.5 C 194.833,343.5 196.167,343.5 197.5,343.5C 197.5,348.5 197.5,353.5 197.5,358.5C 196.167,358.5 194.833,358.5 193.5,358.5C 193.5,353.5 193.5,348.5 193.5,343.5 Z"/></g>
<g><path style="opacity:1" fill="#f0f0f0" d="M 214.5,401.5 C 218.5,401.5 222.5,401.5 226.5,401.5C 226.5,402.5 226.5,403.5 226.5,404.5C 224.833,404.5 223.167,404.5 221.5,404.5C 221.5,408.5 221.5,412.5 221.5,416.5C 220.5,416.5 219.5,416.5 218.5,416.5C 218.5,412.5 218.5,408.5 218.5,404.5C 217.167,404.5 215.833,404.5 214.5,404.5C 214.5,403.5 214.5,402.5 214.5,401.5 Z"/></g>
<g><path style="opacity:1" fill="#e7e7e7" d="M 300.5,401.5 C 303.518,401.335 306.518,401.502 309.5,402C 312.265,404.966 311.932,407.633 308.5,410C 309.956,411.745 311.289,413.578 312.5,415.5C 311.167,416.833 309.833,416.833 308.5,415.5C 305.24,408.565 303.906,408.898 304.5,416.5C 303.167,416.5 301.833,416.5 300.5,416.5C 300.5,411.5 300.5,406.5 300.5,401.5 Z"/></g>
<g><path style="opacity:1" fill="#e9e9e9" d="M 261.5,402.5 C 262.708,401.218 264.042,401.218 265.5,402.5C 266.333,404.167 267.167,405.833 268,407.5C 268.833,405.833 269.667,404.167 270.5,402.5C 271.833,401.167 273.167,401.167 274.5,402.5C 271.126,406.576 269.46,411.243 269.5,416.5C 268.5,416.5 267.5,416.5 266.5,416.5C 266.502,411.183 264.835,406.516 261.5,402.5 Z"/></g>
<g><path style="opacity:1" fill="#0b0b0b" d="M 304.5,404.5 C 305.5,404.5 306.5,404.5 307.5,404.5C 307.5,405.5 307.5,406.5 307.5,407.5C 306.5,407.5 305.5,407.5 304.5,407.5C 304.5,406.5 304.5,405.5 304.5,404.5 Z"/></g>
<g><path style="opacity:1" fill="#e1e1e1" d="M 350.5,401.5 C 353.518,401.335 356.518,401.502 359.5,402C 363.007,407.818 361.341,410.984 354.5,411.5C 354.5,413.167 354.5,414.833 354.5,416.5C 353.167,416.5 351.833,416.5 350.5,416.5C 350.5,411.5 350.5,406.5 350.5,401.5 Z"/></g>
<g><path style="opacity:1" fill="#1f1f1f" d="M 354.5,404.5 C 355.833,404.5 357.167,404.5 358.5,404.5C 358.833,407.5 357.5,408.833 354.5,408.5C 354.5,407.167 354.5,405.833 354.5,404.5 Z"/></g>
<g><path style="opacity:1" fill="#dddddd" d="M 154.5,401.5 C 157.85,401.335 161.183,401.502 164.5,402C 167.167,404 167.167,406 164.5,408C 166.648,410.075 166.982,412.408 165.5,415C 161.974,416.337 158.308,416.837 154.5,416.5C 154.5,411.5 154.5,406.5 154.5,401.5 Z"/></g>
<g><path style="opacity:1" fill="#0f0f0f" d="M 158.5,404.5 C 159.978,404.238 161.311,404.571 162.5,405.5C 161.833,405.833 161.167,406.167 160.5,406.5C 159.287,406.253 158.62,405.586 158.5,404.5 Z"/></g>
<g><path style="opacity:1" fill="#ededed" d="M 183.5,401.5 C 186.5,401.5 189.5,401.5 192.5,401.5C 192.5,402.5 192.5,403.5 192.5,404.5C 185.833,405.167 185.833,405.833 192.5,406.5C 192.5,407.5 192.5,408.5 192.5,409.5C 190.833,409.5 189.167,409.5 187.5,409.5C 187.5,410.833 187.5,412.167 187.5,413.5C 189.167,413.5 190.833,413.5 192.5,413.5C 192.5,414.5 192.5,415.5 192.5,416.5C 189.5,416.5 186.5,416.5 183.5,416.5C 183.5,411.5 183.5,406.5 183.5,401.5 Z"/></g>
<g><path style="opacity:1" fill="#eaeaea" d="M 318.5,401.5 C 329.377,400.866 332.377,405.366 327.5,415C 317.736,418.241 313.903,414.741 316,404.5C 317.045,403.627 317.878,402.627 318.5,401.5 Z"/></g>
<g><path style="opacity:1" fill="#171717" d="M 320.5,404.5 C 326.643,405.026 327.976,407.86 324.5,413C 319.504,413.664 317.67,411.498 319,406.5C 319.717,405.956 320.217,405.289 320.5,404.5 Z"/></g>
<g><path style="opacity:1" fill="#e6e6e6" d="M 131.5,401.5 C 134.909,401.249 138.242,401.583 141.5,402.5C 142.76,404.353 142.76,406.186 141.5,408C 144.533,411.571 143.866,414.238 139.5,416C 136.854,416.497 134.187,416.664 131.5,416.5C 131.5,411.5 131.5,406.5 131.5,401.5 Z"/></g>
<g><path style="opacity:1" fill="#030303" d="M 135.5,404.5 C 136.675,404.281 137.675,404.614 138.5,405.5C 136.948,406.798 135.948,406.465 135.5,404.5 Z"/></g>
<g><path style="opacity:1" fill="#dbdbdb" d="M 146.5,401.5 C 147.833,401.5 149.167,401.5 150.5,401.5C 150.5,406.5 150.5,411.5 150.5,416.5C 149.167,416.5 147.833,416.5 146.5,416.5C 146.5,411.5 146.5,406.5 146.5,401.5 Z"/></g>
<g><path style="opacity:1" fill="#efefef" d="M 170.5,401.5 C 171.5,401.5 172.5,401.5 173.5,401.5C 173.5,405.5 173.5,409.5 173.5,413.5C 175.833,413.5 178.167,413.5 180.5,413.5C 180.5,414.5 180.5,415.5 180.5,416.5C 177.167,416.5 173.833,416.5 170.5,416.5C 170.5,411.5 170.5,406.5 170.5,401.5 Z"/></g>
<g><path style="opacity:1" fill="#e1e1e1" d="M 333.5,401.5 C 334.833,401.5 336.167,401.5 337.5,401.5C 337.335,405.182 337.501,408.848 338,412.5C 339.356,413.38 340.856,413.714 342.5,413.5C 342.5,409.5 342.5,405.5 342.5,401.5C 343.833,401.5 345.167,401.5 346.5,401.5C 346.666,405.514 346.499,409.514 346,413.5C 342,417.5 338,417.5 334,413.5C 333.501,409.514 333.334,405.514 333.5,401.5 Z"/></g>
<g><path style="opacity:1" fill="#0e0e0e" d="M 135.5,409.5 C 137.346,409.222 138.68,409.889 139.5,411.5C 138.68,413.111 137.346,413.778 135.5,413.5C 135.5,412.167 135.5,410.833 135.5,409.5 Z"/></g>
<g><path style="opacity:1" fill="#0c0c0c" d="M 158.5,409.5 C 161.5,409.167 162.833,410.5 162.5,413.5C 161.167,413.5 159.833,413.5 158.5,413.5C 158.5,412.167 158.5,410.833 158.5,409.5 Z"/></g>
<g><path style="opacity:1" fill="#e2e2e2" d="M 204.5,401.5 C 214.432,401.727 214.766,403.06 205.5,405.5C 206.779,407.146 208.445,408.313 210.5,409C 213.371,411.84 213.037,414.174 209.5,416C 207.19,416.497 204.857,416.663 202.5,416.5C 202.5,415.5 202.5,414.5 202.5,413.5C 204.604,413.799 206.604,413.466 208.5,412.5C 206.572,410.95 204.739,409.283 203,407.5C 202.252,405.16 202.752,403.16 204.5,401.5 Z"/></g>
<g><path style="opacity:1" fill="#eaeaea" d="M 246.5,401.5 C 255.656,399.832 259.823,403.499 259,412.5C 255.702,416.165 251.535,417.498 246.5,416.5C 246.5,411.5 246.5,406.5 246.5,401.5 Z"/></g>
<g><path style="opacity:1" fill="#0b0b0b" d="M 250.5,404.5 C 255.213,404.468 256.713,406.801 255,411.5C 253.89,413.037 252.39,413.703 250.5,413.5C 250.5,410.5 250.5,407.5 250.5,404.5 Z"/></g>
<g><path style="opacity:1" fill="#e8e8e8" d="M 287.5,401.5 C 299.212,402.031 299.379,403.364 288,405.5C 287.333,407.833 287.333,410.167 288,412.5C 289.356,413.38 290.856,413.714 292.5,413.5C 291.833,411.5 291.167,409.5 290.5,407.5C 292.5,407.5 294.5,407.5 296.5,407.5C 297.698,416.535 294.031,419.035 285.5,415C 282.331,409.852 282.998,405.352 287.5,401.5 Z"/></g>
<g><path style="opacity:1" fill="#f4f4f4" d="M 229.5,401.5 C 230.5,401.5 231.5,401.5 232.5,401.5C 232.335,405.182 232.501,408.848 233,412.5C 234.667,413.833 236.333,413.833 238,412.5C 238.499,408.848 238.665,405.182 238.5,401.5C 239.5,401.5 240.5,401.5 241.5,401.5C 241.666,405.514 241.499,409.514 241,413.5C 239.704,415.815 237.704,416.815 235,416.5C 232.966,416.646 231.299,415.98 230,414.5C 229.501,410.179 229.334,405.846 229.5,401.5 Z"/></g>
</svg>
