<?xml version="1.0" encoding="UTF-8"?>
<!DOCTYPE svg PUBLIC "-//W3C//DTD SVG 1.1//EN" "http://www.w3.org/Graphics/SVG/1.1/DTD/svg11.dtd">
<svg xmlns="http://www.w3.org/2000/svg" version="1.1" width="360px" height="360px" style="shape-rendering:geometricPrecision; text-rendering:geometricPrecision; image-rendering:optimizeQuality; fill-rule:evenodd; clip-rule:evenodd" xmlns:xlink="http://www.w3.org/1999/xlink">
<g><path style="opacity:1" fill="#2666f5" d="M 217.5,34.5 C 216.617,36.8064 215.617,39.3064 214.5,42C 214.667,42.5 214.833,43 215,43.5C 216.626,42.9031 218.459,42.9031 220.5,43.5C 213.378,43.4787 206.378,43.812 199.5,44.5C 169.174,45.4008 138.841,45.5675 108.5,45C 106.333,45.8333 104.833,47.3333 104,49.5C 103.431,55.0927 102.265,60.4261 100.5,65.5C 100.872,62.9783 100.039,60.9783 98,59.5C 97.2571,61.4406 97.4238,63.2739 98.5,65C 96.1088,65.6914 96.1088,66.6914 98.5,68C 97.2341,68.3095 96.0674,68.8095 95,69.5C 94.4208,66.4119 93.0875,63.7452 91,61.5C 90.9428,64.8511 90.1094,67.8511 88.5,70.5C 89.2849,61.8339 90.4515,53.5006 92,45.5C 94.6669,38.9033 99.5003,34.7367 106.5,33C 139.5,32.3333 172.5,32.3333 205.5,33C 209.688,33.1762 213.688,33.6762 217.5,34.5 Z"/></g>
<g><path style="opacity:1" fill="#2565f3" d="M 217.5,34.5 C 234.113,35.2825 249.113,40.9492 262.5,51.5C 261.828,52.2674 260.995,52.9341 260,53.5C 259.551,56.132 258.717,58.632 257.5,61C 258.741,62.7309 259.741,64.5642 260.5,66.5C 251.574,56.7021 240.574,50.5354 227.5,48C 218.2,46.5042 208.867,45.3376 199.5,44.5C 206.378,43.812 213.378,43.4787 220.5,43.5C 218.459,42.9031 216.626,42.9031 215,43.5C 214.833,43 214.667,42.5 214.5,42C 215.617,39.3064 216.617,36.8064 217.5,34.5 Z"/></g>
<g><path style="opacity:0.999" fill="#315ef4" d="M 262.5,51.5 C 272.396,60.286 278.396,71.286 280.5,84.5C 278.873,82.4262 277.373,80.0929 276,77.5C 275.333,78.8333 274.667,78.8333 274,77.5C 273.097,78.7014 271.931,79.5348 270.5,80C 271.167,80.3333 271.833,80.6667 272.5,81C 270.845,82.4443 270.178,84.2776 270.5,86.5C 269.833,85.5 269.167,84.5 268.5,83.5C 266.622,77.4139 263.956,71.7472 260.5,66.5C 259.741,64.5642 258.741,62.7309 257.5,61C 258.717,58.632 259.551,56.132 260,53.5C 260.995,52.9341 261.828,52.2674 262.5,51.5 Z"/></g>
<g><path style="opacity:1" fill="#3b5ad9" d="M 88.5,70.5 C 88.6657,74.8461 88.499,79.1794 88,83.5C 87.2324,87.7835 86.0657,91.7835 84.5,95.5C 85.3471,86.9569 86.6804,78.6236 88.5,70.5 Z"/></g>
<g><path style="opacity:0.259" fill="#3c5dcb" d="M 100.5,67.5 C 99.9889,75.7652 98.6556,83.7652 96.5,91.5C 97.1869,83.2473 98.5202,75.2473 100.5,67.5 Z"/></g>
<g><path style="opacity:1" fill="#3e59fc" d="M 280.5,84.5 C 280.5,85.1667 280.5,85.8333 280.5,86.5C 280.5,92.5 280.5,98.5 280.5,104.5C 278.194,104.007 275.861,103.674 273.5,103.5C 272.391,103.443 271.391,103.11 270.5,102.5C 270.5,97.1667 270.5,91.8333 270.5,86.5C 270.178,84.2776 270.845,82.4443 272.5,81C 271.833,80.6667 271.167,80.3333 270.5,80C 271.931,79.5348 273.097,78.7014 274,77.5C 274.667,78.8333 275.333,78.8333 276,77.5C 277.373,80.0929 278.873,82.4262 280.5,84.5 Z"/></g>
<g><path style="opacity:1" fill="#3e5afa" d="M 100.5,65.5 C 100.5,66.1667 100.5,66.8333 100.5,67.5C 98.5202,75.2473 97.1869,83.2473 96.5,91.5C 96.5,92.8333 96.5,94.1667 96.5,95.5C 94.9977,98.67 93.6644,102.003 92.5,105.5C 92.0682,101.901 90.9015,98.5675 89,95.5C 88.3828,96.4491 88.5494,97.2825 89.5,98C 88.4258,98.7387 87.7591,99.7387 87.5,101C 90.3945,104.422 90.7279,107.922 88.5,111.5C 87.9882,109.149 86.9882,107.149 85.5,105.5C 83.705,110.013 82.5383,114.68 82,119.5C 81.6174,120.056 81.1174,120.389 80.5,120.5C 81.4366,111.971 82.7699,103.638 84.5,95.5C 86.0657,91.7835 87.2324,87.7835 88,83.5C 88.499,79.1794 88.6657,74.8461 88.5,70.5C 90.1094,67.8511 90.9428,64.8511 91,61.5C 93.0875,63.7452 94.4208,66.4119 95,69.5C 96.0674,68.8095 97.2341,68.3095 98.5,68C 96.1088,66.6914 96.1088,65.6914 98.5,65C 97.4238,63.2739 97.2571,61.4406 98,59.5C 100.039,60.9783 100.872,62.9783 100.5,65.5 Z"/></g>
<g><path style="opacity:1" fill="#78c3f8" d="M 158.5,94.5 C 185.502,94.3334 212.502,94.5 239.5,95C 248.286,95.9244 256.953,97.4244 265.5,99.5C 265.414,100.496 265.748,101.329 266.5,102C 269.87,103.455 272.87,105.455 275.5,108C 274.672,108.915 273.672,109.581 272.5,110C 273.167,110.333 273.833,110.667 274.5,111C 273.167,111.667 273.167,112.333 274.5,113C 274,113.167 273.5,113.333 273,113.5C 271.726,112.465 270.56,111.298 269.5,110C 270.308,109.692 270.975,109.192 271.5,108.5C 267.644,106.438 263.644,104.772 259.5,103.5C 259.433,106.766 261.099,108.266 264.5,108C 262.358,108.643 260.024,109.477 257.5,110.5C 252.238,109.345 246.904,108.512 241.5,108C 220.663,107.832 199.996,107.332 179.5,106.5C 179.351,105.448 179.517,104.448 180,103.5C 181.016,104.634 181.683,104.301 182,102.5C 187.333,102.5 192.667,102.5 198,102.5C 198.667,105.167 199.333,105.167 200,102.5C 212.333,102.833 224.667,103.167 237,103.5C 238.11,101.963 239.61,101.297 241.5,101.5C 241.719,100.325 241.386,99.325 240.5,98.5C 213.87,99.824 187.203,99.824 160.5,98.5C 165.467,97.671 170.467,97.171 175.5,97C 169.412,97.1256 163.745,96.2923 158.5,94.5 Z"/></g>
<g><path style="opacity:0.816" fill="#4b67da" d="M 268.5,83.5 C 269.167,84.5 269.833,85.5 270.5,86.5C 270.5,91.8333 270.5,97.1667 270.5,102.5C 269.662,102.158 269.328,101.492 269.5,100.5C 269.625,94.7969 269.292,89.1302 268.5,83.5 Z"/></g>
<g><path style="opacity:1" fill="#77c4fb" d="M 158.5,94.5 C 163.745,96.2923 169.412,97.1256 175.5,97C 170.467,97.171 165.467,97.671 160.5,98.5C 187.203,99.824 213.87,99.824 240.5,98.5C 241.386,99.325 241.719,100.325 241.5,101.5C 239.61,101.297 238.11,101.963 237,103.5C 224.667,103.167 212.333,102.833 200,102.5C 199.333,105.167 198.667,105.167 198,102.5C 192.667,102.5 187.333,102.5 182,102.5C 181.683,104.301 181.016,104.634 180,103.5C 179.517,104.448 179.351,105.448 179.5,106.5C 174.666,107.808 169.833,107.808 165,106.5C 162.667,107.167 160.333,107.833 158,108.5C 154.546,121.553 152.379,134.553 151.5,147.5C 151.018,143.43 150.018,139.43 148.5,135.5C 147.852,137.149 146.852,138.482 145.5,139.5C 143.27,140.599 141.27,140.599 139.5,139.5C 140.791,128.088 142.624,116.755 145,105.5C 147.848,99.8235 152.348,96.1568 158.5,94.5 Z"/></g>
<g><path style="opacity:1" fill="#4b6ae2" d="M 280.5,86.5 C 281.491,92.979 281.824,99.6457 281.5,106.5C 278.589,106.735 275.923,105.735 273.5,103.5C 275.861,103.674 278.194,104.007 280.5,104.5C 280.5,98.5 280.5,92.5 280.5,86.5 Z"/></g>
<g><path style="opacity:1" fill="#525dd6" d="M 96.5,95.5 C 95.5249,103.688 94.1916,111.688 92.5,119.5C 92.5,114.833 92.5,110.167 92.5,105.5C 93.6644,102.003 94.9977,98.67 96.5,95.5 Z"/></g>
<g><path style="opacity:1" fill="#7cc1fa" d="M 265.5,99.5 C 266.708,100.234 268.041,100.567 269.5,100.5C 269.328,101.492 269.662,102.158 270.5,102.5C 271.391,103.11 272.391,103.443 273.5,103.5C 275.923,105.735 278.589,106.735 281.5,106.5C 296.652,117.803 303.986,132.803 303.5,151.5C 302.469,149.118 301.136,146.784 299.5,144.5C 297.644,146.976 297.311,149.476 298.5,152C 297.965,154.109 296.965,154.609 295.5,153.5C 294.41,152.609 294.41,151.609 295.5,150.5C 294.833,150.167 294.167,149.833 293.5,149.5C 296.953,148.521 297.286,147.021 294.5,145C 295.174,143.249 295.507,141.583 295.5,140C 293.496,138.438 291.496,137.938 289.5,138.5C 288.155,133.475 285.988,128.808 283,124.5C 281.629,122.959 280.129,121.625 278.5,120.5C 275.642,116.99 271.976,114.657 267.5,113.5C 264.162,112.499 260.829,111.499 257.5,110.5C 260.024,109.477 262.358,108.643 264.5,108C 261.099,108.266 259.433,106.766 259.5,103.5C 263.644,104.772 267.644,106.438 271.5,108.5C 270.975,109.192 270.308,109.692 269.5,110C 270.56,111.298 271.726,112.465 273,113.5C 273.5,113.333 274,113.167 274.5,113C 273.167,112.333 273.167,111.667 274.5,111C 273.833,110.667 273.167,110.333 272.5,110C 273.672,109.581 274.672,108.915 275.5,108C 272.87,105.455 269.87,103.455 266.5,102C 265.748,101.329 265.414,100.496 265.5,99.5 Z"/></g>
<g><path style="opacity:1" fill="#5763e3" d="M 267.5,113.5 C 271.976,114.657 275.642,116.99 278.5,120.5C 278.737,121.791 278.404,122.791 277.5,123.5C 277.67,122.178 277.337,121.011 276.5,120C 274.884,119.385 273.551,118.385 272.5,117C 271.207,116.51 269.873,116.343 268.5,116.5C 268.843,118.483 268.176,119.817 266.5,120.5C 266.993,118.194 267.326,115.861 267.5,113.5 Z"/></g>
<g><path style="opacity:1" fill="#5351f7" d="M 92.5,105.5 C 92.5,110.167 92.5,114.833 92.5,119.5C 91.6166,127.705 90.2833,135.705 88.5,143.5C 88.9771,136.426 89.3104,129.759 89.5,123.5C 89.1667,123.167 88.8333,122.833 88.5,122.5C 88.1813,130.041 86.348,130.375 83,123.5C 82.9252,125.935 82.0919,126.602 80.5,125.5C 80.5,124.167 80.5,122.833 80.5,121.5C 80.5,121.167 80.5,120.833 80.5,120.5C 81.1174,120.389 81.6174,120.056 82,119.5C 82.5383,114.68 83.705,110.013 85.5,105.5C 86.9882,107.149 87.9882,109.149 88.5,111.5C 90.7279,107.922 90.3945,104.422 87.5,101C 87.7591,99.7387 88.4258,98.7387 89.5,98C 88.5494,97.2825 88.3828,96.4491 89,95.5C 90.9015,98.5675 92.0682,101.901 92.5,105.5 Z"/></g>
<g><path style="opacity:0.427" fill="#5b52c7" d="M 80.5,121.5 C 80.5,122.833 80.5,124.167 80.5,125.5C 80.3239,128.727 79.6572,131.727 78.5,134.5C 78.0618,134.565 77.7284,134.399 77.5,134C 78.4555,129.727 79.4555,125.56 80.5,121.5 Z"/></g>
<g><path style="opacity:1" fill="#5d50de" d="M 276.5,127.5 C 274.247,138.27 270.247,148.27 264.5,157.5C 264.835,153.657 266.168,150.157 268.5,147C 266.847,144.589 267.513,143.422 270.5,143.5C 270.5,142.167 270.5,140.833 270.5,139.5C 271.834,135.163 273.834,131.163 276.5,127.5 Z"/></g>
<g><path style="opacity:1" fill="#5a4df9" d="M 277.5,123.5 C 277.768,125.099 277.434,126.432 276.5,127.5C 273.834,131.163 271.834,135.163 270.5,139.5C 267.645,136.269 265.311,137.102 263.5,142C 262.552,142.483 261.552,142.649 260.5,142.5C 260.36,144.124 261.027,145.29 262.5,146C 261.711,149.097 260.544,149.264 259,146.5C 258.583,147.756 257.75,148.423 256.5,148.5C 260.765,139.405 264.098,130.072 266.5,120.5C 268.176,119.817 268.843,118.483 268.5,116.5C 269.873,116.343 271.207,116.51 272.5,117C 273.551,118.385 274.884,119.385 276.5,120C 277.337,121.011 277.67,122.178 277.5,123.5 Z"/></g>
<g><path style="opacity:1" fill="#6248fc" d="M 88.5,143.5 C 86.5782,150.73 84.5782,158.063 82.5,165.5C 81.71,164.391 81.21,163.058 81,161.5C 80.3333,162.167 79.6667,162.833 79,163.5C 77.3853,162.614 75.8853,161.614 74.5,160.5C 74.5,159.5 74.5,158.5 74.5,157.5C 75.2304,154.422 76.3971,151.422 78,148.5C 78.499,144.179 78.6657,139.846 78.5,135.5C 78.5,135.167 78.5,134.833 78.5,134.5C 79.6572,131.727 80.3239,128.727 80.5,125.5C 82.0919,126.602 82.9252,125.935 83,123.5C 86.348,130.375 88.1813,130.041 88.5,122.5C 88.8333,122.833 89.1667,123.167 89.5,123.5C 89.3104,129.759 88.9771,136.426 88.5,143.5 Z"/></g>
<g><path style="opacity:0.992" fill="#5f4dd7" d="M 78.5,135.5 C 78.6657,139.846 78.499,144.179 78,148.5C 76.3971,151.422 75.2304,154.422 74.5,157.5C 75.5664,150.005 76.8997,142.672 78.5,135.5 Z"/></g>
<g><path style="opacity:1" fill="#93bdfa" d="M 303.5,151.5 C 304.014,166.772 301.347,181.439 295.5,195.5C 293.748,189.951 291.915,184.284 290,178.5C 289.292,179.381 288.458,180.047 287.5,180.5C 291.273,166.585 291.94,152.585 289.5,138.5C 291.496,137.938 293.496,138.438 295.5,140C 295.507,141.583 295.174,143.249 294.5,145C 297.286,147.021 296.953,148.521 293.5,149.5C 294.167,149.833 294.833,150.167 295.5,150.5C 294.41,151.609 294.41,152.609 295.5,153.5C 296.965,154.609 297.965,154.109 298.5,152C 297.311,149.476 297.644,146.976 299.5,144.5C 301.136,146.784 302.469,149.118 303.5,151.5 Z"/></g>
<g><path style="opacity:1" fill="#94bdfb" d="M 151.5,147.5 C 149.044,160.575 146.711,173.575 144.5,186.5C 144.5,185.5 144.5,184.5 144.5,183.5C 143.5,183.5 142.5,183.5 141.5,183.5C 141.813,186.247 141.48,188.914 140.5,191.5C 139.125,188.574 137.958,185.574 137,182.5C 136.077,183.759 135.243,185.092 134.5,186.5C 133.583,185.873 132.583,185.539 131.5,185.5C 134.238,170.209 136.905,154.876 139.5,139.5C 141.27,140.599 143.27,140.599 145.5,139.5C 146.852,138.482 147.852,137.149 148.5,135.5C 150.018,139.43 151.018,143.43 151.5,147.5 Z"/></g>
<g><path style="opacity:1" fill="#6d4bdb" d="M 88.5,143.5 C 88.2155,145.877 88.2155,148.044 88.5,150C 85.3508,166.9 82.3508,183.733 79.5,200.5C 80.308,188.761 81.308,177.095 82.5,165.5C 84.5782,158.063 86.5782,150.73 88.5,143.5 Z"/></g>
<g><path style="opacity:1" fill="#7d3efd" d="M 74.5,160.5 C 75.8853,161.614 77.3853,162.614 79,163.5C 79.6667,162.833 80.3333,162.167 81,161.5C 81.21,163.058 81.71,164.391 82.5,165.5C 81.308,177.095 80.308,188.761 79.5,200.5C 79.5,200.833 79.5,201.167 79.5,201.5C 77.0444,205.726 76.0444,210.393 76.5,215.5C 75.5416,215.953 74.7083,216.619 74,217.5C 72.4412,215.783 71.6079,213.783 71.5,211.5C 72.552,211.649 73.552,211.483 74.5,211C 73.8833,206.71 72.7166,202.543 71,198.5C 70.501,194.179 70.3343,189.846 70.5,185.5C 70.5,185.167 70.5,184.833 70.5,184.5C 72.0935,181.939 73.0935,178.939 73.5,175.5C 74.4933,170.88 74.8266,166.214 74.5,161.5C 74.5,161.167 74.5,160.833 74.5,160.5 Z"/></g>
<g><path style="opacity:0.957" fill="#6f45d8" d="M 74.5,161.5 C 74.8266,166.214 74.4933,170.88 73.5,175.5C 73.0935,178.939 72.0935,181.939 70.5,184.5C 71.0992,176.565 72.4325,168.898 74.5,161.5 Z"/></g>
<g><path style="opacity:1" fill="#7742f4" d="M 270.5,139.5 C 270.5,140.833 270.5,142.167 270.5,143.5C 267.513,143.422 266.847,144.589 268.5,147C 266.168,150.157 264.835,153.657 264.5,157.5C 251.195,180.111 231.528,193.778 205.5,198.5C 206.918,196.692 208.918,196.025 211.5,196.5C 211.5,195.5 211.5,194.5 211.5,193.5C 209.033,192.964 206.7,192.464 204.5,192C 206.608,191.64 208.608,190.973 210.5,190C 210.07,189.08 209.736,188.247 209.5,187.5C 207.696,189.65 205.529,189.984 203,188.5C 202.167,188.667 201.333,188.833 200.5,189C 200.833,189.333 201.167,189.667 201.5,190C 187.526,191.498 173.526,192.664 159.5,193.5C 159.192,194.308 158.692,194.975 158,195.5C 153.853,193.239 149.353,192.239 144.5,192.5C 144.722,195.39 144.055,198.057 142.5,200.5C 142.624,201.107 142.957,201.44 143.5,201.5C 143.5,202.167 143.5,202.833 143.5,203.5C 142.833,203.5 142.5,203.833 142.5,204.5C 141.498,199.77 142.165,195.103 144.5,190.5C 156.899,190.459 169.232,190.459 181.5,190.5C 214.265,189.634 239.265,175.634 256.5,148.5C 257.75,148.423 258.583,147.756 259,146.5C 260.544,149.264 261.711,149.097 262.5,146C 261.027,145.29 260.36,144.124 260.5,142.5C 261.552,142.649 262.552,142.483 263.5,142C 265.311,137.102 267.645,136.269 270.5,139.5 Z"/></g>
<g><path style="opacity:1" fill="#863cfd" d="M 205.5,198.5 C 184.723,200.005 164.056,201.005 143.5,201.5C 142.957,201.44 142.624,201.107 142.5,200.5C 144.055,198.057 144.722,195.39 144.5,192.5C 149.353,192.239 153.853,193.239 158,195.5C 158.692,194.975 159.192,194.308 159.5,193.5C 173.526,192.664 187.526,191.498 201.5,190C 201.167,189.667 200.833,189.333 200.5,189C 201.333,188.833 202.167,188.667 203,188.5C 205.529,189.984 207.696,189.65 209.5,187.5C 209.736,188.247 210.07,189.08 210.5,190C 208.608,190.973 206.608,191.64 204.5,192C 206.7,192.464 209.033,192.964 211.5,193.5C 211.5,194.5 211.5,195.5 211.5,196.5C 208.918,196.025 206.918,196.692 205.5,198.5 Z"/></g>
<g><path style="opacity:1" fill="#7e45e3" d="M 205.5,198.5 C 199.121,200.561 192.454,201.561 185.5,201.5C 171.5,201.5 157.5,201.5 143.5,201.5C 164.056,201.005 184.723,200.005 205.5,198.5 Z"/></g>
<g><path style="opacity:0.69" fill="#7e58c5" d="M 143.5,201.5 C 157.5,201.5 171.5,201.5 185.5,201.5C 171.598,202.183 157.598,202.849 143.5,203.5C 143.5,202.833 143.5,202.167 143.5,201.5 Z"/></g>
<g><path style="opacity:0.988" fill="#8147d4" d="M 79.5,201.5 C 78.8957,209.425 77.5623,217.092 75.5,224.5C 75.7038,221.482 76.0371,218.482 76.5,215.5C 76.0444,210.393 77.0444,205.726 79.5,201.5 Z"/></g>
<g><path style="opacity:1" fill="#893eef" d="M 70.5,185.5 C 70.3343,189.846 70.501,194.179 71,198.5C 72.7166,202.543 73.8833,206.71 74.5,211C 73.552,211.483 72.552,211.649 71.5,211.5C 71.6079,213.783 72.4412,215.783 74,217.5C 74.7083,216.619 75.5416,215.953 76.5,215.5C 76.0371,218.482 75.7038,221.482 75.5,224.5C 75.8016,227.059 75.4682,229.393 74.5,231.5C 74.6655,227.486 74.4988,223.486 74,219.5C 72.4157,218.139 70.5824,217.472 68.5,217.5C 68.5191,215.94 68.8524,214.44 69.5,213C 68.8333,211 68.1667,211 67.5,213C 66.3026,218.774 65.4693,224.607 65,230.5C 64.6232,231.942 63.7899,232.942 62.5,233.5C 64.9029,217.325 67.5695,201.325 70.5,185.5 Z"/></g>
<g><path style="opacity:1" fill="#afb7fa" d="M 144.5,186.5 C 144.5,187.833 144.5,189.167 144.5,190.5C 142.165,195.103 141.498,199.77 142.5,204.5C 141.933,206.03 141.267,207.53 140.5,209C 138.306,229.191 135.306,249.357 131.5,269.5C 132.031,262.462 132.365,255.629 132.5,249C 131.73,246.433 130.73,243.933 129.5,241.5C 129.808,240.692 130.308,240.025 131,239.5C 132,240.833 133,242.167 134,243.5C 134.383,240.527 133.883,237.694 132.5,235C 132.833,234.667 133.167,234.333 133.5,234C 132.809,232.933 132.309,231.766 132,230.5C 131.333,231.833 130.333,232.833 129,233.5C 128.667,235.5 128.333,237.5 128,239.5C 127.282,238.549 126.449,238.383 125.5,239C 125.12,241.326 124.12,243.159 122.5,244.5C 126.397,225.005 129.397,205.339 131.5,185.5C 132.583,185.539 133.583,185.873 134.5,186.5C 135.243,185.092 136.077,183.759 137,182.5C 137.958,185.574 139.125,188.574 140.5,191.5C 141.48,188.914 141.813,186.247 141.5,183.5C 142.5,183.5 143.5,183.5 144.5,183.5C 144.5,184.5 144.5,185.5 144.5,186.5 Z"/></g>
<g><path style="opacity:1" fill="#acb7f9" d="M 295.5,195.5 C 286.808,216.859 271.808,231.859 250.5,240.5C 250.281,239.325 250.614,238.325 251.5,237.5C 253.201,237.81 254.868,237.31 256.5,236C 255.035,231.487 252.035,228.987 247.5,228.5C 268.416,218.909 281.749,202.909 287.5,180.5C 288.458,180.047 289.292,179.381 290,178.5C 291.915,184.284 293.748,189.951 295.5,195.5 Z"/></g>
<g><path style="opacity:1" fill="#a034f6" d="M 74.5,231.5 C 74.648,236.322 73.9813,240.988 72.5,245.5C 71.8333,246.167 71.1667,246.833 70.5,247.5C 70.6713,244.203 70.0046,243.869 68.5,246.5C 66.8287,244.49 66.162,242.157 66.5,239.5C 64.8762,239.36 63.7096,240.027 63,241.5C 62.8265,245.541 62.3265,249.541 61.5,253.5C 61.0799,256.616 60.0799,259.283 58.5,261.5C 59.7414,252.143 61.0747,242.81 62.5,233.5C 63.7899,232.942 64.6232,231.942 65,230.5C 65.4693,224.607 66.3026,218.774 67.5,213C 68.1667,211 68.8333,211 69.5,213C 68.8524,214.44 68.5191,215.94 68.5,217.5C 70.5824,217.472 72.4157,218.139 74,219.5C 74.4988,223.486 74.6655,227.486 74.5,231.5 Z"/></g>
<g><path style="opacity:1" fill="#b7b5fa" d="M 247.5,228.5 C 252.035,228.987 255.035,231.487 256.5,236C 254.868,237.31 253.201,237.81 251.5,237.5C 250.614,238.325 250.281,239.325 250.5,240.5C 234.338,245.952 217.672,248.452 200.5,248C 199.069,248.465 197.903,249.299 197,250.5C 196.262,253.991 195.429,257.325 194.5,260.5C 194.768,257.881 194.435,255.381 193.5,253C 191.22,252.767 189.22,251.934 187.5,250.5C 186.643,251.736 185.977,253.069 185.5,254.5C 186.724,256.839 186.724,259.172 185.5,261.5C 184.832,258.694 184.166,256.028 183.5,253.5C 184.403,243.434 189.737,237.267 199.5,235C 215.978,235.923 231.978,233.756 247.5,228.5 Z"/></g>
<g><path style="opacity:0.973" fill="#9f43cf" d="M 72.5,245.5 C 71.9724,253.763 70.639,261.763 68.5,269.5C 69.4897,262.203 70.1564,254.87 70.5,247.5C 71.1667,246.833 71.8333,246.167 72.5,245.5 Z"/></g>
<g><path style="opacity:1" fill="#bfb2fb" d="M 131.5,269.5 C 131.5,270.5 131.5,271.5 131.5,272.5C 128.221,271.711 126.888,269.877 127.5,267C 126.5,266.333 125.5,266.333 124.5,267C 125.833,267.667 125.833,268.333 124.5,269C 123.551,269.617 122.718,269.451 122,268.5C 121.667,269.833 121.333,271.167 121,272.5C 120.329,273.252 119.496,273.586 118.5,273.5C 119.834,263.831 121.167,254.164 122.5,244.5C 124.12,243.159 125.12,241.326 125.5,239C 126.449,238.383 127.282,238.549 128,239.5C 128.333,237.5 128.667,235.5 129,233.5C 130.333,232.833 131.333,231.833 132,230.5C 132.309,231.766 132.809,232.933 133.5,234C 133.167,234.333 132.833,234.667 132.5,235C 133.883,237.694 134.383,240.527 134,243.5C 133,242.167 132,240.833 131,239.5C 130.308,240.025 129.808,240.692 129.5,241.5C 130.73,243.933 131.73,246.433 132.5,249C 132.365,255.629 132.031,262.462 131.5,269.5 Z"/></g>
<g><path style="opacity:0.999" fill="#c8b1fa" d="M 194.5,260.5 C 192.936,275.217 190.936,289.883 188.5,304.5C 187.954,299.338 187.787,294.005 188,288.5C 187.077,289.759 186.243,291.092 185.5,292.5C 182.847,291.715 182.18,290.215 183.5,288C 182.584,287.626 181.75,287.126 181,286.5C 179.93,290.391 178.43,294.057 176.5,297.5C 179.125,282.874 181.458,268.207 183.5,253.5C 184.166,256.028 184.832,258.694 185.5,261.5C 186.724,259.172 186.724,256.839 185.5,254.5C 185.977,253.069 186.643,251.736 187.5,250.5C 189.22,251.934 191.22,252.767 193.5,253C 194.435,255.381 194.768,257.881 194.5,260.5 Z"/></g>
<g><path style="opacity:1" fill="#b829f8" d="M 70.5,247.5 C 70.1564,254.87 69.4897,262.203 68.5,269.5C 68.1317,273.122 68.1317,276.622 68.5,280C 84.324,280.078 100.324,280.245 116.5,280.5C 117.119,283.977 117.119,287.644 116.5,291.5C 99.1667,291.5 81.8333,291.5 64.5,291.5C 56.1161,288.393 53.2827,282.393 56,273.5C 56.7313,269.435 57.5647,265.435 58.5,261.5C 60.0799,259.283 61.0799,256.616 61.5,253.5C 62.3265,249.541 62.8265,245.541 63,241.5C 63.7096,240.027 64.8762,239.36 66.5,239.5C 66.162,242.157 66.8287,244.49 68.5,246.5C 70.0046,243.869 70.6713,244.203 70.5,247.5 Z"/></g>
<g><path style="opacity:0.743" fill="#aa58d1" d="M 64.5,291.5 C 81.8333,291.5 99.1667,291.5 116.5,291.5C 116.672,292.492 116.338,293.158 115.5,293.5C 98.5,292.833 81.5,292.167 64.5,291.5 Z"/></g>
<g><path style="opacity:1" fill="#d8acfa" d="M 131.5,272.5 C 129.539,286.098 127.206,299.598 124.5,313C 127.146,313.497 129.813,313.664 132.5,313.5C 131.432,314.434 130.099,314.768 128.5,314.5C 128.579,315.93 128.246,317.264 127.5,318.5C 128.025,319.192 128.692,319.692 129.5,320C 126.289,321.153 122.956,321.82 119.5,322C 119.833,322.333 120.167,322.667 120.5,323C 129.737,324.141 139.071,324.641 148.5,324.5C 157.167,324.167 165.833,323.833 174.5,323.5C 180.096,321.571 184.096,317.904 186.5,312.5C 185.095,319.74 180.762,324.24 173.5,326C 156.167,326.667 138.833,326.667 121.5,326C 113.154,322.471 110.321,316.304 113,307.5C 113.519,302.762 114.352,298.095 115.5,293.5C 116.338,293.158 116.672,292.492 116.5,291.5C 117.119,287.644 117.119,283.977 116.5,280.5C 117.319,278.228 117.985,275.894 118.5,273.5C 119.496,273.586 120.329,273.252 121,272.5C 121.333,271.167 121.667,269.833 122,268.5C 122.718,269.451 123.551,269.617 124.5,269C 125.833,268.333 125.833,267.667 124.5,267C 125.5,266.333 126.5,266.333 127.5,267C 126.888,269.877 128.221,271.711 131.5,272.5 Z"/></g>
<g><path style="opacity:1" fill="#dbabfc" d="M 188.5,304.5 C 187.833,307.167 187.167,309.833 186.5,312.5C 184.096,317.904 180.096,321.571 174.5,323.5C 165.833,323.833 157.167,324.167 148.5,324.5C 139.071,324.641 129.737,324.141 120.5,323C 120.167,322.667 119.833,322.333 119.5,322C 122.956,321.82 126.289,321.153 129.5,320C 128.692,319.692 128.025,319.192 127.5,318.5C 128.246,317.264 128.579,315.93 128.5,314.5C 130.099,314.768 131.432,314.434 132.5,313.5C 145.837,313.667 159.171,313.5 172.5,313C 173,312.5 173.5,312 174,311.5C 175.067,306.864 175.9,302.198 176.5,297.5C 178.43,294.057 179.93,290.391 181,286.5C 181.75,287.126 182.584,287.626 183.5,288C 182.18,290.215 182.847,291.715 185.5,292.5C 186.243,291.092 187.077,289.759 188,288.5C 187.787,294.005 187.954,299.338 188.5,304.5 Z"/></g>
</svg>
