<?xml version="1.0" encoding="UTF-8"?>
<!DOCTYPE svg PUBLIC "-//W3C//DTD SVG 1.1//EN" "http://www.w3.org/Graphics/SVG/1.1/DTD/svg11.dtd">
<svg xmlns="http://www.w3.org/2000/svg" version="1.1" width="500px" height="500px" style="shape-rendering:geometricPrecision; text-rendering:geometricPrecision; image-rendering:optimizeQuality; fill-rule:evenodd; clip-rule:evenodd" xmlns:xlink="http://www.w3.org/1999/xlink">
<g><path style="opacity:1" fill="#fefefe" d="M -0.5,-0.5 C 166.167,-0.5 332.833,-0.5 499.5,-0.5C 499.5,166.167 499.5,332.833 499.5,499.5C 332.833,499.5 166.167,499.5 -0.5,499.5C -0.5,332.833 -0.5,166.167 -0.5,-0.5 Z"/></g>
<g><path style="opacity:1" fill="#2da3db" d="M 223.5,202.5 C 211.25,202.969 199.25,201.469 187.5,198C 182.944,196.184 178.444,194.017 174,191.5C 170.582,187.886 166.749,184.886 162.5,182.5C 210.658,189.668 246.824,172.335 271,130.5C 282.45,104.153 283.45,77.4862 274,50.5C 302.833,77.9839 310.833,110.651 298,148.5C 283.223,180.616 258.39,198.616 223.5,202.5 Z"/></g>
<g><path style="opacity:1" fill="#2b71b8" d="M 217.5,229.5 C 211.584,228.305 205.917,226.305 200.5,223.5C 184.858,214.189 172.524,201.523 163.5,185.5C 162.893,185.624 162.56,185.957 162.5,186.5C 161.167,185.167 161.167,183.833 162.5,182.5C 166.749,184.886 170.582,187.886 174,191.5C 178.444,194.017 182.944,196.184 187.5,198C 199.25,201.469 211.25,202.969 223.5,202.5C 264.572,200.388 293.739,180.721 311,143.5C 315.162,132.529 317.829,121.196 319,109.5C 333.666,147.503 326.833,181.003 298.5,210C 274.793,229.843 247.793,236.343 217.5,229.5 Z"/></g>
<g><path style="opacity:1" fill="#224082" d="M 162.5,186.5 C 162.56,185.957 162.893,185.624 163.5,185.5C 172.524,201.523 184.858,214.189 200.5,223.5C 205.917,226.305 211.584,228.305 217.5,229.5C 260.207,242.195 296.041,231.529 325,197.5C 328,192.833 331,188.167 334,183.5C 331.25,228.256 308.083,256.089 264.5,267C 222.076,272.539 190.576,256.705 170,219.5C 165.129,209.018 162.629,198.018 162.5,186.5 Z"/></g>
<g><path style="opacity:1" fill="#070707" d="M 194.5,303.5 C 199.179,303.334 203.845,303.501 208.5,304C 216.257,307.558 217.59,312.892 212.5,320C 208.747,321.989 204.747,322.822 200.5,322.5C 200.5,324.833 200.5,327.167 200.5,329.5C 198.5,329.5 196.5,329.5 194.5,329.5C 194.5,320.833 194.5,312.167 194.5,303.5 Z"/></g>
<g><path style="opacity:1" fill="#101010" d="M 222.5,303.5 C 229.167,303.5 235.833,303.5 242.5,303.5C 242.5,305.167 242.5,306.833 242.5,308.5C 238.167,308.5 233.833,308.5 229.5,308.5C 229.5,310.5 229.5,312.5 229.5,314.5C 233.5,314.5 237.5,314.5 241.5,314.5C 241.5,316.167 241.5,317.833 241.5,319.5C 237.5,319.5 233.5,319.5 229.5,319.5C 229.5,321.167 229.5,322.833 229.5,324.5C 233.833,324.5 238.167,324.5 242.5,324.5C 242.5,326.167 242.5,327.833 242.5,329.5C 235.833,329.5 229.167,329.5 222.5,329.5C 222.5,320.833 222.5,312.167 222.5,303.5 Z"/></g>
<g><path style="opacity:1" fill="#0e0e0e" d="M 259.5,303.5 C 261.833,303.5 264.167,303.5 266.5,303.5C 269.38,312.024 272.713,320.357 276.5,328.5C 274.167,329.833 271.833,329.833 269.5,328.5C 268.754,327.264 268.421,325.93 268.5,324.5C 264.486,324.334 260.486,324.501 256.5,325C 255.62,326.356 255.286,327.856 255.5,329.5C 253.076,329.808 250.743,329.474 248.5,328.5C 252.368,320.22 256.035,311.887 259.5,303.5 Z"/></g>
<g><path style="opacity:1" fill="#0b0b0b" d="M 288.5,303.5 C 288.177,307.226 288.511,310.893 289.5,314.5C 290.107,314.376 290.44,314.043 290.5,313.5C 293.04,310.272 295.707,307.105 298.5,304C 300.833,303.333 303.167,303.333 305.5,304C 302.687,307.647 299.687,311.147 296.5,314.5C 299.957,319.246 303.29,324.08 306.5,329C 304.167,329.667 301.833,329.667 299.5,329C 297.045,325.922 294.711,322.756 292.5,319.5C 288.91,321.817 287.577,325.151 288.5,329.5C 286.5,329.5 284.5,329.5 282.5,329.5C 282.5,320.833 282.5,312.167 282.5,303.5C 284.5,303.5 286.5,303.5 288.5,303.5 Z"/></g>
<g><path style="opacity:1" fill="#ededed" d="M 200.5,308.5 C 202.857,308.337 205.19,308.503 207.5,309C 210.167,311.667 210.167,314.333 207.5,317C 205.19,317.497 202.857,317.663 200.5,317.5C 200.5,314.5 200.5,311.5 200.5,308.5 Z"/></g>
<g><path style="opacity:1" fill="#878787" d="M 288.5,303.5 C 289.167,306.833 289.833,310.167 290.5,313.5C 290.44,314.043 290.107,314.376 289.5,314.5C 288.511,310.893 288.177,307.226 288.5,303.5 Z"/></g>
<g><path style="opacity:1" fill="#e5e5e5" d="M 261.5,311.5 C 264.135,313.339 265.468,316.006 265.5,319.5C 263.076,319.808 260.743,319.474 258.5,318.5C 259.702,316.22 260.702,313.886 261.5,311.5 Z"/></g>
<g><path style="opacity:1" fill="#0c0c0c" d="M 84.5,360.5 C 88.247,360.392 91.9137,360.892 95.5,362C 99.3503,365.96 99.3503,369.96 95.5,374C 91.9743,375.337 88.3076,375.837 84.5,375.5C 84.5,370.5 84.5,365.5 84.5,360.5 Z"/></g>
<g><path style="opacity:1" fill="#111111" d="M 104.5,360.5 C 107.518,360.335 110.518,360.502 113.5,361C 118.507,363.733 118.84,367.066 114.5,371C 118.436,374.423 118.102,375.757 113.5,375C 112.781,372.444 111.114,371.277 108.5,371.5C 108.5,372.833 108.5,374.167 108.5,375.5C 107.167,375.5 105.833,375.5 104.5,375.5C 104.5,370.5 104.5,365.5 104.5,360.5 Z"/></g>
<g><path style="opacity:1" fill="#030303" d="M 124.5,360.5 C 128.167,360.5 131.833,360.5 135.5,360.5C 135.5,361.5 135.5,362.5 135.5,363.5C 132.833,363.5 130.167,363.5 127.5,363.5C 127.5,364.5 127.5,365.5 127.5,366.5C 129.833,366.5 132.167,366.5 134.5,366.5C 134.5,367.5 134.5,368.5 134.5,369.5C 132.167,369.5 129.833,369.5 127.5,369.5C 127.5,370.5 127.5,371.5 127.5,372.5C 130.167,372.5 132.833,372.5 135.5,372.5C 135.5,373.5 135.5,374.5 135.5,375.5C 131.833,375.5 128.167,375.5 124.5,375.5C 124.5,370.5 124.5,365.5 124.5,360.5 Z"/></g>
<g><path style="opacity:1" fill="#0d0d0d" d="M 163.5,360.5 C 164.978,360.238 166.311,360.571 167.5,361.5C 168.58,363.996 169.914,366.33 171.5,368.5C 172.948,366.333 174.115,364 175,361.5C 176.356,360.62 177.856,360.286 179.5,360.5C 179.5,365.5 179.5,370.5 179.5,375.5C 178.5,375.5 177.5,375.5 176.5,375.5C 176.665,372.482 176.498,369.482 176,366.5C 174.815,368.377 173.815,370.377 173,372.5C 172.439,373.022 171.772,373.355 171,373.5C 169.305,371.768 167.972,369.768 167,367.5C 166.503,370.146 166.336,372.813 166.5,375.5C 165.5,375.5 164.5,375.5 163.5,375.5C 163.5,370.5 163.5,365.5 163.5,360.5 Z"/></g>
<g><path style="opacity:1" fill="#080808" d="M 243.5,360.5 C 247.833,360.5 252.167,360.5 256.5,360.5C 256.5,361.5 256.5,362.5 256.5,363.5C 254.833,363.5 253.167,363.5 251.5,363.5C 251.5,367.5 251.5,371.5 251.5,375.5C 250.5,375.5 249.5,375.5 248.5,375.5C 248.5,371.5 248.5,367.5 248.5,363.5C 246.833,363.5 245.167,363.5 243.5,363.5C 243.5,362.5 243.5,361.5 243.5,360.5 Z"/></g>
<g><path style="opacity:1" fill="#060606" d="M 292.5,360.5 C 296.546,360.15 300.38,360.817 304,362.5C 304.844,365.606 304.344,368.439 302.5,371C 302.95,372.285 303.617,373.452 304.5,374.5C 304,374.833 303.5,375.167 303,375.5C 301.014,373.185 298.514,371.852 295.5,371.5C 295.5,372.833 295.5,374.167 295.5,375.5C 294.5,375.5 293.5,375.5 292.5,375.5C 292.5,370.5 292.5,365.5 292.5,360.5 Z"/></g>
<g><path style="opacity:1" fill="#111111" d="M 311.5,360.5 C 315.5,360.5 319.5,360.5 323.5,360.5C 323.5,361.5 323.5,362.5 323.5,363.5C 320.833,363.5 318.167,363.5 315.5,363.5C 315.5,364.5 315.5,365.5 315.5,366.5C 317.833,366.5 320.167,366.5 322.5,366.5C 322.5,367.5 322.5,368.5 322.5,369.5C 320.167,369.5 317.833,369.5 315.5,369.5C 315.5,370.5 315.5,371.5 315.5,372.5C 318.167,372.5 320.833,372.5 323.5,372.5C 323.5,373.5 323.5,374.5 323.5,375.5C 319.5,375.5 315.5,375.5 311.5,375.5C 311.5,370.5 311.5,365.5 311.5,360.5 Z"/></g>
<g><path style="opacity:1" fill="#141414" d="M 188.5,360.5 C 191.545,360.508 194.545,360.841 197.5,361.5C 197.5,362.5 197.5,363.5 197.5,364.5C 188.489,363.543 188.322,364.877 197,368.5C 197.538,374.519 194.705,376.686 188.5,375C 185.706,373.964 185.206,372.464 187,370.5C 189.447,372.749 191.947,372.916 194.5,371C 191.982,369.498 189.482,367.998 187,366.5C 186.252,364.16 186.752,362.16 188.5,360.5 Z"/></g>
<g><path style="opacity:1" fill="#151515" d="M 393.5,360.5 C 394.978,360.238 396.311,360.571 397.5,361.5C 399.5,368.167 401.5,368.167 403.5,361.5C 404.723,360.386 406.056,360.219 407.5,361C 404.03,365.271 402.363,370.104 402.5,375.5C 401.167,375.5 399.833,375.5 398.5,375.5C 398.662,373.473 398.495,371.473 398,369.5C 396.473,366.447 394.973,363.447 393.5,360.5 Z"/></g>
<g><path style="opacity:1" fill="#151515" d="M 265.5,360.5 C 270.384,359.861 274.217,361.527 277,365.5C 277.111,373.216 273.278,376.382 265.5,375C 260.214,370.169 260.214,365.335 265.5,360.5 Z"/></g>
<g><path style="opacity:1" fill="#121212" d="M 334.5,360.5 C 336.144,360.286 337.644,360.62 339,361.5C 341.137,366.084 342.971,370.75 344.5,375.5C 342.01,374.575 339.51,373.575 337,372.5C 335.833,372.667 334.667,372.833 333.5,373C 332.372,375.065 330.706,375.732 328.5,375C 330.918,370.332 332.918,365.499 334.5,360.5 Z"/></g>
<g><path style="opacity:1" fill="#0d0d0d" d="M 224.5,360.5 C 225.552,360.351 226.552,360.517 227.5,361C 229.788,363.743 231.955,366.577 234,369.5C 234.498,366.518 234.665,363.518 234.5,360.5C 235.5,360.5 236.5,360.5 237.5,360.5C 237.5,365.5 237.5,370.5 237.5,375.5C 236.448,375.649 235.448,375.483 234.5,375C 232.333,372.167 230.167,369.333 228,366.5C 227.502,369.482 227.335,372.482 227.5,375.5C 226.5,375.5 225.5,375.5 224.5,375.5C 224.5,370.5 224.5,365.5 224.5,360.5 Z"/></g>
<g><path style="opacity:1" fill="#121212" d="M 376.5,360.5 C 380.5,360.5 384.5,360.5 388.5,360.5C 388.5,361.5 388.5,362.5 388.5,363.5C 387.167,363.5 385.833,363.5 384.5,363.5C 384.5,367.5 384.5,371.5 384.5,375.5C 383.167,375.5 381.833,375.5 380.5,375.5C 380.5,371.5 380.5,367.5 380.5,363.5C 379.167,363.5 377.833,363.5 376.5,363.5C 376.5,362.5 376.5,361.5 376.5,360.5 Z"/></g>
<g><path style="opacity:1" fill="#eaeaea" d="M 87.5,363.5 C 94.4863,363.331 96.153,366.164 92.5,372C 90.8659,372.494 89.1992,372.66 87.5,372.5C 87.5,369.5 87.5,366.5 87.5,363.5 Z"/></g>
<g><path style="opacity:1" fill="#f4f4f4" d="M 108.5,363.5 C 110.167,363.5 111.833,363.5 113.5,363.5C 114.167,367.5 112.5,369.167 108.5,368.5C 108.5,366.833 108.5,365.167 108.5,363.5 Z"/></g>
<g><path style="opacity:1" fill="#e2e2e2" d="M 295.5,363.5 C 297.199,363.34 298.866,363.506 300.5,364C 301.833,365.333 301.833,366.667 300.5,368C 298.866,368.494 297.199,368.66 295.5,368.5C 295.5,366.833 295.5,365.167 295.5,363.5 Z"/></g>
<g><path style="opacity:1" fill="#0f0f0f" d="M 350.5,360.5 C 351.833,360.5 353.167,360.5 354.5,360.5C 354.5,364.5 354.5,368.5 354.5,372.5C 356.5,372.5 358.5,372.5 360.5,372.5C 360.5,373.5 360.5,374.5 360.5,375.5C 357.167,375.5 353.833,375.5 350.5,375.5C 350.5,370.5 350.5,365.5 350.5,360.5 Z"/></g>
<g><path style="opacity:1" fill="#141414" d="M 366.5,360.5 C 367.833,360.5 369.167,360.5 370.5,360.5C 370.5,365.5 370.5,370.5 370.5,375.5C 369.167,375.5 367.833,375.5 366.5,375.5C 366.5,370.5 366.5,365.5 366.5,360.5 Z"/></g>
<g><path style="opacity:1" fill="#020202" d="M 213.5,360.5 C 214.5,360.5 215.5,360.5 216.5,360.5C 216.5,365.5 216.5,370.5 216.5,375.5C 215.5,375.5 214.5,375.5 213.5,375.5C 213.5,370.5 213.5,365.5 213.5,360.5 Z"/></g>
<g><path style="opacity:1" fill="#e4e4e4" d="M 267.5,363.5 C 273.643,364.026 274.976,366.86 271.5,372C 264.4,371.752 263.067,368.919 267.5,363.5 Z"/></g>
<g><path style="opacity:1" fill="#dedede" d="M 336.5,364.5 C 337.931,365.78 338.598,367.447 338.5,369.5C 337.022,369.762 335.689,369.429 334.5,368.5C 335.18,367.14 335.847,365.807 336.5,364.5 Z"/></g>
<g><path style="opacity:1" fill="#0e0e0e" d="M 147.5,360.5 C 148.978,360.238 150.311,360.571 151.5,361.5C 153.371,366.074 155.371,370.574 157.5,375C 156.207,375.49 154.873,375.657 153.5,375.5C 153.5,374.5 153.5,373.5 153.5,372.5C 149.476,372.044 145.976,373.044 143,375.5C 142.5,375.167 142,374.833 141.5,374.5C 143.515,369.807 145.515,365.141 147.5,360.5 Z"/></g>
<g><path style="opacity:1" fill="#d9d9d9" d="M 148.5,364.5 C 152.546,367.464 152.213,369.131 147.5,369.5C 147.629,367.784 147.962,366.117 148.5,364.5 Z"/></g>
</svg>
