<?xml version="1.0" encoding="UTF-8"?>
<!DOCTYPE svg PUBLIC "-//W3C//DTD SVG 1.1//EN" "http://www.w3.org/Graphics/SVG/1.1/DTD/svg11.dtd">
<svg xmlns="http://www.w3.org/2000/svg" version="1.1" width="500px" height="500px" style="shape-rendering:geometricPrecision; text-rendering:geometricPrecision; image-rendering:optimizeQuality; fill-rule:evenodd; clip-rule:evenodd" xmlns:xlink="http://www.w3.org/1999/xlink">
<g><path style="opacity:1" fill="#fdd8e4" d="M 194.5,109.5 C 193.949,113.632 192.616,114.132 190.5,111C 189.365,110.251 188.365,110.417 187.5,111.5C 190.087,115.743 189.254,116.409 185,113.5C 183.351,114.898 182.018,114.564 181,112.5C 179.562,113.718 177.895,114.385 176,114.5C 172.96,112.298 169.46,111.298 165.5,111.5C 164.5,111.5 163.5,111.5 162.5,111.5C 159.038,110.518 155.371,110.185 151.5,110.5C 149.533,110.739 147.699,110.406 146,109.5C 143.885,112.246 141.052,113.579 137.5,113.5C 137.688,115.103 137.188,116.437 136,117.5C 134.887,116.289 133.72,116.289 132.5,117.5C 132.167,117.167 131.833,116.833 131.5,116.5C 132.167,115.833 132.833,115.167 133.5,114.5C 130.146,113.901 127.146,112.568 124.5,110.5C 123.948,108.997 123.948,107.331 124.5,105.5C 127.232,103.965 129.898,102.131 132.5,100C 137.042,99.7291 140.709,97.8958 143.5,94.5C 152.159,93.2886 160.825,93.2886 169.5,94.5C 176.936,98.0519 184.269,101.885 191.5,106C 187.606,109.813 188.106,110.313 193,107.5C 194.03,107.836 194.53,108.503 194.5,109.5 Z"/></g>
<g><path style="opacity:0.263" fill="#e288a9" d="M 143.5,94.5 C 140.709,97.8958 137.042,99.7291 132.5,100C 129.898,102.131 127.232,103.965 124.5,105.5C 129.379,99.5527 135.713,95.8861 143.5,94.5 Z"/></g>
<g><path style="opacity:1" fill="#f0a9c4" d="M 205.5,117.5 C 202.774,117.736 200.441,116.903 198.5,115C 198.833,114.667 199.167,114.333 199.5,114C 197.068,113.257 195.401,111.757 194.5,109.5C 194.53,108.503 194.03,107.836 193,107.5C 188.106,110.313 187.606,109.813 191.5,106C 184.269,101.885 176.936,98.0519 169.5,94.5C 160.825,93.2886 152.159,93.2886 143.5,94.5C 159.324,89.6893 174.324,91.8559 188.5,101C 194.67,106.004 200.337,111.504 205.5,117.5 Z"/></g>
<g><path style="opacity:1" fill="#fcd2df" d="M 124.5,105.5 C 123.948,107.331 123.948,108.997 124.5,110.5C 127.146,112.568 130.146,113.901 133.5,114.5C 132.833,115.167 132.167,115.833 131.5,116.5C 131.833,116.833 132.167,117.167 132.5,117.5C 133.72,116.289 134.887,116.289 136,117.5C 137.188,116.437 137.688,115.103 137.5,113.5C 141.052,113.579 143.885,112.246 146,109.5C 147.699,110.406 149.533,110.739 151.5,110.5C 148.19,111.604 145.19,113.271 142.5,115.5C 130.333,125.495 120.167,137.162 112,150.5C 111.099,153.52 110.266,156.52 109.5,159.5C 108.24,168.071 108.574,176.738 110.5,185.5C 111.132,196.754 114.132,207.087 119.5,216.5C 119.952,220.163 120.452,223.83 121,227.5C 123.062,230.092 124.395,233.092 125,236.5C 126.923,238.805 128.756,241.138 130.5,243.5C 134.815,251.461 139.149,259.461 143.5,267.5C 143.833,272.482 146.167,276.149 150.5,278.5C 153.546,281.881 156.213,285.548 158.5,289.5C 155.927,288.343 153.427,287.009 151,285.5C 149.863,286.364 148.53,287.364 147,288.5C 146.333,287.167 145.667,285.833 145,284.5C 143.051,286.984 142.384,289.65 143,292.5C 141.345,289.847 139.345,287.514 137,285.5C 136.219,286.944 136.386,288.277 137.5,289.5C 139.759,293.1 142.426,296.433 145.5,299.5C 146.429,300.689 146.762,302.022 146.5,303.5C 148.963,303.781 151.13,304.781 153,306.5C 154.205,309.562 155.372,312.562 156.5,315.5C 158.995,316.199 161.328,317.199 163.5,318.5C 163.629,320.216 163.962,321.883 164.5,323.5C 162.427,321.42 160.093,319.754 157.5,318.5C 148.735,308.738 140.735,298.405 133.5,287.5C 133.458,284.245 131.791,281.578 128.5,279.5C 117.49,263.479 109.157,246.146 103.5,227.5C 102.171,219.475 99.8375,211.808 96.5,204.5C 94.3824,198.442 93.0491,192.109 92.5,185.5C 91.191,173.496 91.191,161.496 92.5,149.5C 93.8917,138.713 98.8917,130.046 107.5,123.5C 113.908,119.427 118.908,114.094 122.5,107.5C 122.5,106.167 123.167,105.5 124.5,105.5 Z"/></g>
<g><path style="opacity:0.212" fill="#d16887" d="M 151.5,110.5 C 155.371,110.185 159.038,110.518 162.5,111.5C 155.439,110.967 148.773,112.301 142.5,115.5C 145.19,113.271 148.19,111.604 151.5,110.5 Z"/></g>
<g><path style="opacity:0.969" fill="#ec93b2" d="M 122.5,107.5 C 118.908,114.094 113.908,119.427 107.5,123.5C 109.423,120.397 111.59,117.397 114,114.5C 116.751,111.901 119.584,109.568 122.5,107.5 Z"/></g>
<g><path style="opacity:1" fill="#f1a9c1" d="M 180.5,119.5 C 183.686,120.356 186.353,122.023 188.5,124.5C 189.695,122.703 191.362,121.703 193.5,121.5C 193.5,122.833 193.5,124.167 193.5,125.5C 192.5,125.5 191.5,125.5 190.5,125.5C 190.351,126.552 190.517,127.552 191,128.5C 195.104,132.095 198.604,136.095 201.5,140.5C 194.092,133.758 187.092,126.758 180.5,119.5 Z"/></g>
<g><path style="opacity:1" fill="#fcd5e1" d="M 194.5,109.5 C 195.401,111.757 197.068,113.257 199.5,114C 199.167,114.333 198.833,114.667 198.5,115C 200.441,116.903 202.774,117.736 205.5,117.5C 208.139,119.473 210.473,121.806 212.5,124.5C 213.862,128.888 216.029,132.888 219,136.5C 227.15,153.812 226.15,170.479 216,186.5C 210.851,185.561 209.351,187.728 211.5,193C 209.93,195.059 208.597,197.226 207.5,199.5C 205.508,199.328 203.842,199.995 202.5,201.5C 200.786,200.391 200.119,201.058 200.5,203.5C 198.533,203.261 196.699,203.594 195,204.5C 194.151,199.985 192.318,199.485 189.5,203C 188.365,203.749 187.365,203.583 186.5,202.5C 190.712,200.278 190.379,199.111 185.5,199C 186.551,197.615 187.884,196.615 189.5,196C 189.167,195.667 188.833,195.333 188.5,195C 190.671,193.826 191.671,191.993 191.5,189.5C 193.143,189.48 194.476,190.147 195.5,191.5C 196.08,189.363 197.08,187.53 198.5,186C 197.244,185.583 196.577,184.75 196.5,183.5C 208.745,170.368 210.412,156.035 201.5,140.5C 198.604,136.095 195.104,132.095 191,128.5C 190.517,127.552 190.351,126.552 190.5,125.5C 191.5,125.5 192.5,125.5 193.5,125.5C 193.5,124.167 193.5,122.833 193.5,121.5C 191.362,121.703 189.695,122.703 188.5,124.5C 186.353,122.023 183.686,120.356 180.5,119.5C 175.577,116.541 170.577,113.874 165.5,111.5C 169.46,111.298 172.96,112.298 176,114.5C 177.895,114.385 179.562,113.718 181,112.5C 182.018,114.564 183.351,114.898 185,113.5C 189.254,116.409 190.087,115.743 187.5,111.5C 188.365,110.417 189.365,110.251 190.5,111C 192.616,114.132 193.949,113.632 194.5,109.5 Z"/></g>
<g><path style="opacity:0.847" fill="#f3aec9" d="M 212.5,124.5 C 218.685,130.189 222.852,137.189 225,145.5C 229.32,166.914 223.487,184.914 207.5,199.5C 208.597,197.226 209.93,195.059 211.5,193C 209.351,187.728 210.851,185.561 216,186.5C 226.15,170.479 227.15,153.812 219,136.5C 216.029,132.888 213.862,128.888 212.5,124.5 Z"/></g>
<g><path style="opacity:0.716" fill="#e27aa0" d="M 92.5,149.5 C 91.191,161.496 91.191,173.496 92.5,185.5C 90.7084,179.435 89.7084,173.102 89.5,166.5C 89.6137,160.532 90.6137,154.865 92.5,149.5 Z"/></g>
<g><path style="opacity:0.114" fill="#c75a80" d="M 109.5,159.5 C 109.327,168.24 109.994,176.907 111.5,185.5C 111.167,185.5 110.833,185.5 110.5,185.5C 108.574,176.738 108.24,168.071 109.5,159.5 Z"/></g>
<g><path style="opacity:0.999" fill="#f9c8d8" d="M 196.5,183.5 C 196.577,184.75 197.244,185.583 198.5,186C 197.08,187.53 196.08,189.363 195.5,191.5C 194.476,190.147 193.143,189.48 191.5,189.5C 191.671,191.993 190.671,193.826 188.5,195C 188.833,195.333 189.167,195.667 189.5,196C 187.884,196.615 186.551,197.615 185.5,199C 190.379,199.111 190.712,200.278 186.5,202.5C 187.365,203.583 188.365,203.749 189.5,203C 192.318,199.485 194.151,199.985 195,204.5C 196.699,203.594 198.533,203.261 200.5,203.5C 200.119,201.058 200.786,200.391 202.5,201.5C 203.842,199.995 205.508,199.328 207.5,199.5C 199.79,209.211 190.123,216.211 178.5,220.5C 183.256,229.684 188.256,238.684 193.5,247.5C 189.479,243.319 184.979,239.652 180,236.5C 179.586,236.957 179.086,237.291 178.5,237.5C 178.024,234.881 176.691,232.881 174.5,231.5C 172.95,234.558 171.617,237.725 170.5,241C 171.656,243.633 172.656,246.3 173.5,249C 173.833,249.167 174.167,249.333 174.5,249.5C 175.262,248.372 175.929,247.205 176.5,246C 177.332,245.312 177.998,245.479 178.5,246.5C 177.515,248.098 177.349,249.765 178,251.5C 178.333,250.833 178.667,250.167 179,249.5C 181.099,251.974 181.599,254.641 180.5,257.5C 181.416,261.801 183.749,265.134 187.5,267.5C 188.295,269.495 188.961,271.495 189.5,273.5C 177.587,259.703 167.754,244.37 160,227.5C 155.82,219.089 156.987,211.589 163.5,205C 170.695,202.115 177.695,198.781 184.5,195C 188.369,190.963 192.369,187.13 196.5,183.5 Z"/></g>
<g><path style="opacity:0.947" fill="#ef9fbc" d="M 110.5,185.5 C 110.833,185.5 111.167,185.5 111.5,185.5C 114.166,195.831 116.833,206.164 119.5,216.5C 114.132,207.087 111.132,196.754 110.5,185.5 Z"/></g>
<g><path style="opacity:0.766" fill="#e791b4" d="M 96.5,204.5 C 99.8375,211.808 102.171,219.475 103.5,227.5C 100.104,220.272 97.7707,212.606 96.5,204.5 Z"/></g>
<g><path style="opacity:0.875" fill="#ea92b0" d="M 119.5,216.5 C 122.96,225.538 126.627,234.538 130.5,243.5C 128.756,241.138 126.923,238.805 125,236.5C 124.395,233.092 123.062,230.092 121,227.5C 120.452,223.83 119.952,220.163 119.5,216.5 Z"/></g>
<g><path style="opacity:1" fill="#fad7ea" d="M 193.5,247.5 C 195.326,249.147 196.66,251.147 197.5,253.5C 199.215,257.931 201.215,262.265 203.5,266.5C 207.409,268.314 209.909,271.314 211,275.5C 211.333,275.167 211.667,274.833 212,274.5C 213.171,275.893 214.671,276.727 216.5,277C 218.038,278.932 219.205,281.099 220,283.5C 221.302,284.085 222.469,284.751 223.5,285.5C 223.784,287.877 223.784,290.044 223.5,292C 224.448,292.483 225.448,292.649 226.5,292.5C 226.786,298.22 225.286,299.22 222,295.5C 220.7,297.459 218.867,298.626 216.5,299C 217.833,299.333 219.167,299.667 220.5,300C 219.663,301.011 219.33,302.178 219.5,303.5C 222.076,304.107 224.409,305.274 226.5,307C 228.037,308.11 228.703,309.61 228.5,311.5C 215.97,302.479 204.47,292.145 194,280.5C 192.25,278.266 190.75,275.932 189.5,273.5C 188.961,271.495 188.295,269.495 187.5,267.5C 183.749,265.134 181.416,261.801 180.5,257.5C 181.599,254.641 181.099,251.974 179,249.5C 178.667,250.167 178.333,250.833 178,251.5C 177.349,249.765 177.515,248.098 178.5,246.5C 177.998,245.479 177.332,245.312 176.5,246C 175.929,247.205 175.262,248.372 174.5,249.5C 174.167,249.333 173.833,249.167 173.5,249C 172.656,246.3 171.656,243.633 170.5,241C 171.617,237.725 172.95,234.558 174.5,231.5C 176.691,232.881 178.024,234.881 178.5,237.5C 179.086,237.291 179.586,236.957 180,236.5C 184.979,239.652 189.479,243.319 193.5,247.5 Z"/></g>
<g><path style="opacity:0.286" fill="#6572b7" d="M 357.5,278.5 C 356.167,278.5 354.833,278.5 353.5,278.5C 351.914,277.852 350.247,277.352 348.5,277C 341.964,276.71 335.631,276.544 329.5,276.5C 339.144,274.689 348.478,275.356 357.5,278.5 Z"/></g>
<g><path style="opacity:0.286" fill="#e77a97" d="M 143.5,267.5 C 146.221,270.894 148.554,274.561 150.5,278.5C 146.167,276.149 143.833,272.482 143.5,267.5 Z"/></g>
<g><path style="opacity:0.89" fill="#ea819d" d="M 128.5,279.5 C 131.791,281.578 133.458,284.245 133.5,287.5C 131.05,285.371 129.383,282.704 128.5,279.5 Z"/></g>
<g><path style="opacity:0.992" fill="#e4afd9" d="M 197.5,253.5 C 208.431,267.1 220.431,279.767 233.5,291.5C 232.883,291.611 232.383,291.944 232,292.5C 230.535,290.085 228.368,289.085 225.5,289.5C 225.843,287.517 225.176,286.183 223.5,285.5C 222.469,284.751 221.302,284.085 220,283.5C 219.205,281.099 218.038,278.932 216.5,277C 214.671,276.727 213.171,275.893 212,274.5C 211.667,274.833 211.333,275.167 211,275.5C 209.909,271.314 207.409,268.314 203.5,266.5C 201.215,262.265 199.215,257.931 197.5,253.5 Z"/></g>
<g><path style="opacity:0.541" fill="#857cc2" d="M 324.5,278.5 C 319.97,280.524 315.636,283.024 311.5,286C 307.572,290.436 303.239,294.269 298.5,297.5C 304.085,290.414 310.752,284.581 318.5,280C 320.436,279.187 322.436,278.687 324.5,278.5 Z"/></g>
<g><path style="opacity:0.043" fill="#cd5897" d="M 158.5,289.5 C 162.215,292.607 165.215,296.273 167.5,300.5C 163.785,297.393 160.785,293.727 158.5,289.5 Z"/></g>
<g><path style="opacity:1" fill="#e0e0fa" d="M 329.5,276.5 C 335.631,276.544 341.964,276.71 348.5,277C 350.247,277.352 351.914,277.852 353.5,278.5C 354.263,279.268 355.263,279.768 356.5,280C 356.167,280.333 355.833,280.667 355.5,281C 361.547,281.499 361.88,282.833 356.5,285C 360.145,287.011 360.145,288.511 356.5,289.5C 354.411,287.69 352.244,287.024 350,287.5C 349.833,287.833 349.667,288.167 349.5,288.5C 350.908,289.243 352.241,290.077 353.5,291C 348.06,292.17 342.727,293.337 337.5,294.5C 332.059,295.613 327.059,297.779 322.5,301C 317.333,306.167 312.167,311.333 307,316.5C 303.631,321.916 300.631,327.583 298,333.5C 297.292,334.381 296.458,335.047 295.5,335.5C 294.85,335.196 294.183,334.863 293.5,334.5C 292.41,335.727 291.076,336.56 289.5,337C 285.5,337.667 281.5,337.667 277.5,337C 276.167,336.333 276.167,335.667 277.5,335C 275.167,334.667 272.833,334.333 270.5,334C 273.034,332.151 275.7,330.485 278.5,329C 277.207,328.51 275.873,328.343 274.5,328.5C 273.136,325.396 273.302,322.396 275,319.5C 275.741,320.641 276.575,320.641 277.5,319.5C 278.197,321.385 279.197,321.718 280.5,320.5C 282.134,320.968 283.3,321.968 284,323.5C 285.487,322.747 285.654,321.914 284.5,321C 286.616,319.829 287.282,318.329 286.5,316.5C 287.069,313.763 288.736,312.263 291.5,312C 290.747,310.513 289.914,310.346 289,311.5C 288.536,310.906 288.369,310.239 288.5,309.5C 291.374,309.155 293.374,307.655 294.5,305C 294.167,304.667 293.833,304.333 293.5,304C 295.79,302.223 297.457,300.056 298.5,297.5C 303.239,294.269 307.572,290.436 311.5,286C 315.636,283.024 319.97,280.524 324.5,278.5C 326.028,277.691 327.694,277.024 329.5,276.5 Z"/></g>
<g><path style="opacity:0.953" fill="#cba3d6" d="M 233.5,291.5 C 238.804,294.812 243.804,298.479 248.5,302.5C 244.295,302.545 241.295,300.711 239.5,297C 236.212,296.434 234.212,294.6 233.5,291.5 Z"/></g>
<g><path style="opacity:1" fill="#f9daed" d="M 158.5,289.5 C 160.785,293.727 163.785,297.393 167.5,300.5C 180.798,314.976 195.132,328.309 210.5,340.5C 210.5,341.5 210.5,342.5 210.5,343.5C 214.585,343.582 217.252,345.582 218.5,349.5C 217.975,350.192 217.308,350.692 216.5,351C 218.235,351.651 219.902,351.485 221.5,350.5C 224.282,352.629 227.282,354.296 230.5,355.5C 231.23,356.712 232.23,357.712 233.5,358.5C 231.73,359.82 231.397,361.32 232.5,363C 231.552,363.483 230.552,363.649 229.5,363.5C 225.611,363.643 224.611,365.476 226.5,369C 225.521,372.309 224.521,372.309 223.5,369C 221.5,368.167 219.5,367.333 217.5,366.5C 218.981,365.52 220.315,364.353 221.5,363C 221.167,362.667 220.833,362.333 220.5,362C 218.085,362.055 215.752,362.388 213.5,363C 207.072,358.171 200.572,353.337 194,348.5C 191.846,347.726 189.679,347.059 187.5,346.5C 183.471,341.973 179.638,337.307 176,332.5C 172.272,329.262 168.439,326.262 164.5,323.5C 163.962,321.883 163.629,320.216 163.5,318.5C 161.328,317.199 158.995,316.199 156.5,315.5C 155.372,312.562 154.205,309.562 153,306.5C 151.13,304.781 148.963,303.781 146.5,303.5C 146.762,302.022 146.429,300.689 145.5,299.5C 142.426,296.433 139.759,293.1 137.5,289.5C 136.386,288.277 136.219,286.944 137,285.5C 139.345,287.514 141.345,289.847 143,292.5C 142.384,289.65 143.051,286.984 145,284.5C 145.667,285.833 146.333,287.167 147,288.5C 148.53,287.364 149.863,286.364 151,285.5C 153.427,287.009 155.927,288.343 158.5,289.5 Z"/></g>
<g><path style="opacity:1" fill="#c8dbf7" d="M 353.5,278.5 C 354.833,278.5 356.167,278.5 357.5,278.5C 363.488,279.813 368.822,282.48 373.5,286.5C 383.298,295.294 392.298,304.627 400.5,314.5C 398.615,313.301 396.782,311.967 395,310.5C 391.79,311.911 391.123,313.911 393,316.5C 396.049,312.251 397.382,312.584 397,317.5C 395.23,316.724 393.397,316.89 391.5,318C 388.962,319.359 386.629,321.026 384.5,323C 385.763,325.386 387.597,327.219 390,328.5C 391.828,338.464 391.828,348.464 390,358.5C 387.868,359.928 385.701,361.261 383.5,362.5C 384.931,359.299 386.597,356.299 388.5,353.5C 389.97,350.114 390.637,346.447 390.5,342.5C 390.685,338.859 390.019,335.526 388.5,332.5C 386.16,327.164 382.826,322.497 378.5,318.5C 378.5,316.5 377.5,315.5 375.5,315.5C 374.662,315.158 374.328,314.492 374.5,313.5C 372.1,310.097 369.1,307.43 365.5,305.5C 361.657,302.497 357.657,299.664 353.5,297C 348.314,295.215 342.98,294.382 337.5,294.5C 342.727,293.337 348.06,292.17 353.5,291C 352.241,290.077 350.908,289.243 349.5,288.5C 349.667,288.167 349.833,287.833 350,287.5C 352.244,287.024 354.411,287.69 356.5,289.5C 360.145,288.511 360.145,287.011 356.5,285C 361.88,282.833 361.547,281.499 355.5,281C 355.833,280.667 356.167,280.333 356.5,280C 355.263,279.768 354.263,279.268 353.5,278.5 Z"/></g>
<g><path style="opacity:1" fill="#f2dff6" d="M 223.5,285.5 C 225.176,286.183 225.843,287.517 225.5,289.5C 228.368,289.085 230.535,290.085 232,292.5C 232.383,291.944 232.883,291.611 233.5,291.5C 234.212,294.6 236.212,296.434 239.5,297C 241.295,300.711 244.295,302.545 248.5,302.5C 249.167,302.833 249.833,303.167 250.5,303.5C 250.141,307.987 251.974,309.654 256,308.5C 256.317,310.301 256.984,310.634 258,309.5C 259.485,312.3 261.151,314.966 263,317.5C 263.333,317.167 263.667,316.833 264,316.5C 264.053,319.61 265.386,321.944 268,323.5C 269.953,319.578 271.119,319.912 271.5,324.5C 268.886,324.277 267.219,325.444 266.5,328C 267.5,329 268.5,330 269.5,331C 268.584,331.374 267.75,331.874 267,332.5C 264.417,331.126 261.917,329.626 259.5,328C 260.5,327 261.5,326 262.5,325C 261.975,324.308 261.308,323.808 260.5,323.5C 258.187,328.057 255.187,328.557 251.5,325C 250.257,323.846 249.257,322.512 248.5,321C 246.19,320.503 243.857,320.337 241.5,320.5C 240.699,318.958 240.366,317.292 240.5,315.5C 236.831,316.303 234.164,315.136 232.5,312C 231.207,311.51 229.873,311.343 228.5,311.5C 228.703,309.61 228.037,308.11 226.5,307C 224.409,305.274 222.076,304.107 219.5,303.5C 219.33,302.178 219.663,301.011 220.5,300C 219.167,299.667 217.833,299.333 216.5,299C 218.867,298.626 220.7,297.459 222,295.5C 225.286,299.22 226.786,298.22 226.5,292.5C 225.448,292.649 224.448,292.483 223.5,292C 223.784,290.044 223.784,287.877 223.5,285.5 Z"/></g>
<g><path style="opacity:0.537" fill="#5a80cb" d="M 365.5,305.5 C 369.1,307.43 372.1,310.097 374.5,313.5C 370.9,311.57 367.9,308.903 365.5,305.5 Z"/></g>
<g><path style="opacity:0.966" fill="#a59dd2" d="M 298.5,297.5 C 297.457,300.056 295.79,302.223 293.5,304C 293.833,304.333 294.167,304.667 294.5,305C 293.374,307.655 291.374,309.155 288.5,309.5C 290.709,304.619 294.043,300.619 298.5,297.5 Z"/></g>
<g><path style="opacity:1" fill="#c8a1d9" d="M 228.5,311.5 C 229.873,311.343 231.207,311.51 232.5,312C 234.164,315.136 236.831,316.303 240.5,315.5C 240.366,317.292 240.699,318.958 241.5,320.5C 236.635,318.237 232.302,315.237 228.5,311.5 Z"/></g>
<g><path style="opacity:0.306" fill="#4c52e7" d="M 375.5,315.5 C 377.5,315.5 378.5,316.5 378.5,318.5C 377.167,317.833 376.167,316.833 375.5,315.5 Z"/></g>
<g><path style="opacity:1" fill="#d3e5fc" d="M 400.5,314.5 C 404.135,318.776 406.469,323.776 407.5,329.5C 407.5,338.167 407.5,346.833 407.5,355.5C 407.443,356.609 407.11,357.609 406.5,358.5C 404.493,361.036 402.493,363.703 400.5,366.5C 399.702,368.078 399.202,369.744 399,371.5C 394.315,367.554 393.815,367.887 397.5,372.5C 396.147,373.524 395.48,374.857 395.5,376.5C 394.5,376.5 393.5,376.5 392.5,376.5C 392.5,377.5 392.5,378.5 392.5,379.5C 391.167,379.5 389.833,379.5 388.5,379.5C 388.657,378.127 388.49,376.793 388,375.5C 387.586,375.957 387.086,376.291 386.5,376.5C 383.587,372.766 382.587,368.766 383.5,364.5C 383.5,363.833 383.5,363.167 383.5,362.5C 385.701,361.261 387.868,359.928 390,358.5C 391.828,348.464 391.828,338.464 390,328.5C 387.597,327.219 385.763,325.386 384.5,323C 386.629,321.026 388.962,319.359 391.5,318C 393.397,316.89 395.23,316.724 397,317.5C 397.382,312.584 396.049,312.251 393,316.5C 391.123,313.911 391.79,311.911 395,310.5C 396.782,311.967 398.615,313.301 400.5,314.5 Z"/></g>
<g><path style="opacity:1" fill="#d8ccf0" d="M 250.5,303.5 C 260.324,309.495 270.491,314.829 281,319.5C 283.409,316.145 285.909,312.812 288.5,309.5C 288.369,310.239 288.536,310.906 289,311.5C 289.914,310.346 290.747,310.513 291.5,312C 288.736,312.263 287.069,313.763 286.5,316.5C 287.282,318.329 286.616,319.829 284.5,321C 285.654,321.914 285.487,322.747 284,323.5C 283.3,321.968 282.134,320.968 280.5,320.5C 279.197,321.718 278.197,321.385 277.5,319.5C 276.575,320.641 275.741,320.641 275,319.5C 273.302,322.396 273.136,325.396 274.5,328.5C 275.873,328.343 277.207,328.51 278.5,329C 275.7,330.485 273.034,332.151 270.5,334C 272.833,334.333 275.167,334.667 277.5,335C 276.167,335.667 276.167,336.333 277.5,337C 281.5,337.667 285.5,337.667 289.5,337C 291.076,336.56 292.41,335.727 293.5,334.5C 294.183,334.863 294.85,335.196 295.5,335.5C 294.198,337.822 292.198,339.155 289.5,339.5C 286.167,339.5 282.833,339.5 279.5,339.5C 265.769,335.301 253.102,328.968 241.5,320.5C 243.857,320.337 246.19,320.503 248.5,321C 249.257,322.512 250.257,323.846 251.5,325C 255.187,328.557 258.187,328.057 260.5,323.5C 261.308,323.808 261.975,324.308 262.5,325C 261.5,326 260.5,327 259.5,328C 261.917,329.626 264.417,331.126 267,332.5C 267.75,331.874 268.584,331.374 269.5,331C 268.5,330 267.5,329 266.5,328C 267.219,325.444 268.886,324.277 271.5,324.5C 271.119,319.912 269.953,319.578 268,323.5C 265.386,321.944 264.053,319.61 264,316.5C 263.667,316.833 263.333,317.167 263,317.5C 261.151,314.966 259.485,312.3 258,309.5C 256.984,310.634 256.317,310.301 256,308.5C 251.974,309.654 250.141,307.987 250.5,303.5 Z"/></g>
<g><path style="opacity:0.92" fill="#d99bcc" d="M 157.5,318.5 C 160.093,319.754 162.427,321.42 164.5,323.5C 168.439,326.262 172.272,329.262 176,332.5C 179.638,337.307 183.471,341.973 187.5,346.5C 176.591,338.261 166.591,328.928 157.5,318.5 Z"/></g>
<g><path style="opacity:0.369" fill="#7473c6" d="M 279.5,339.5 C 282.833,339.5 286.167,339.5 289.5,339.5C 286.167,342.167 282.833,342.167 279.5,339.5 Z"/></g>
<g><path style="opacity:0.813" fill="#6c8dda" d="M 407.5,329.5 C 410.094,338.171 410.094,346.838 407.5,355.5C 407.5,346.833 407.5,338.167 407.5,329.5 Z"/></g>
<g><path style="opacity:0.227" fill="#325eae" d="M 388.5,332.5 C 390.019,335.526 390.685,338.859 390.5,342.5C 390.637,346.447 389.97,350.114 388.5,353.5C 389.779,346.495 389.779,339.495 388.5,332.5 Z"/></g>
<g><path style="opacity:0.796" fill="#bfa8da" d="M 210.5,340.5 C 219.175,346.17 227.842,351.836 236.5,357.5C 234.5,356.833 232.5,356.167 230.5,355.5C 227.282,354.296 224.282,352.629 221.5,350.5C 219.902,351.485 218.235,351.651 216.5,351C 217.308,350.692 217.975,350.192 218.5,349.5C 217.252,345.582 214.585,343.582 210.5,343.5C 210.5,342.5 210.5,341.5 210.5,340.5 Z"/></g>
<g><path style="opacity:1" fill="#d2b8e4" d="M 187.5,346.5 C 189.679,347.059 191.846,347.726 194,348.5C 200.572,353.337 207.072,358.171 213.5,363C 215.752,362.388 218.085,362.055 220.5,362C 220.833,362.333 221.167,362.667 221.5,363C 220.315,364.353 218.981,365.52 217.5,366.5C 219.5,367.333 221.5,368.167 223.5,369C 224.521,372.309 225.521,372.309 226.5,369C 224.611,365.476 225.611,363.643 229.5,363.5C 228.431,366.26 227.431,369.093 226.5,372C 227.381,372.708 228.047,373.542 228.5,374.5C 213.611,366.894 199.944,357.561 187.5,346.5 Z"/></g>
<g><path style="opacity:0.992" fill="#9bb9e9" d="M 383.5,362.5 C 383.5,363.167 383.5,363.833 383.5,364.5C 381.668,369.158 378.335,372.158 373.5,373.5C 372.429,377.615 369.929,380.615 366,382.5C 365.329,381.748 364.496,381.414 363.5,381.5C 370.469,375.532 377.136,369.199 383.5,362.5 Z"/></g>
<g><path style="opacity:1" fill="#9cb2e8" d="M 406.5,358.5 C 404.363,367.439 399.697,374.772 392.5,380.5C 392.5,380.167 392.5,379.833 392.5,379.5C 392.5,378.5 392.5,377.5 392.5,376.5C 393.5,376.5 394.5,376.5 395.5,376.5C 395.48,374.857 396.147,373.524 397.5,372.5C 393.815,367.887 394.315,367.554 399,371.5C 399.202,369.744 399.702,368.078 400.5,366.5C 402.493,363.703 404.493,361.036 406.5,358.5 Z"/></g>
<g><path style="opacity:0.999" fill="#d5d8f7" d="M 230.5,355.5 C 232.5,356.167 234.5,356.833 236.5,357.5C 252.72,365.681 269.387,372.681 286.5,378.5C 286.5,378.833 286.5,379.167 286.5,379.5C 284.594,380.482 282.594,381.482 280.5,382.5C 282.966,383.123 285.299,383.957 287.5,385C 283.852,385.062 280.185,384.895 276.5,384.5C 276.5,385.5 276.5,386.5 276.5,387.5C 278.199,387.34 279.866,387.506 281.5,388C 282.833,388.667 282.833,389.333 281.5,390C 279.833,390.667 278.167,390.667 276.5,390C 273.926,386.84 271.259,386.84 268.5,390C 271.397,391.606 274.064,393.439 276.5,395.5C 259.526,390.41 243.526,383.41 228.5,374.5C 228.047,373.542 227.381,372.708 226.5,372C 227.431,369.093 228.431,366.26 229.5,363.5C 230.552,363.649 231.552,363.483 232.5,363C 231.397,361.32 231.73,359.82 233.5,358.5C 232.23,357.712 231.23,356.712 230.5,355.5 Z"/></g>
<g><path style="opacity:0.149" fill="#415dc6" d="M 286.5,379.5 C 286.5,379.167 286.5,378.833 286.5,378.5C 290.214,378.59 293.548,379.59 296.5,381.5C 293.123,381.041 289.789,380.374 286.5,379.5 Z"/></g>
<g><path style="opacity:1" fill="#d1e3fb" d="M 383.5,364.5 C 382.587,368.766 383.587,372.766 386.5,376.5C 387.086,376.291 387.586,375.957 388,375.5C 388.49,376.793 388.657,378.127 388.5,379.5C 389.833,379.5 391.167,379.5 392.5,379.5C 392.5,379.833 392.5,380.167 392.5,380.5C 390.42,384.086 387.754,387.253 384.5,390C 379.623,394.267 374.29,397.767 368.5,400.5C 366.447,400.402 364.78,401.069 363.5,402.5C 360.848,402.41 358.515,403.076 356.5,404.5C 356.167,404.5 355.833,404.5 355.5,404.5C 342.844,405.79 330.178,405.79 317.5,404.5C 308.611,403.855 299.944,402.189 291.5,399.5C 289.562,397.837 287.228,397.171 284.5,397.5C 281.779,397.037 279.112,396.371 276.5,395.5C 274.064,393.439 271.397,391.606 268.5,390C 271.259,386.84 273.926,386.84 276.5,390C 278.167,390.667 279.833,390.667 281.5,390C 282.833,389.333 282.833,388.667 281.5,388C 279.866,387.506 278.199,387.34 276.5,387.5C 276.5,386.5 276.5,385.5 276.5,384.5C 280.185,384.895 283.852,385.062 287.5,385C 285.299,383.957 282.966,383.123 280.5,382.5C 282.594,381.482 284.594,380.482 286.5,379.5C 289.789,380.374 293.123,381.041 296.5,381.5C 296.833,381.5 297.167,381.5 297.5,381.5C 299.515,382.924 301.848,383.59 304.5,383.5C 305.167,383.5 305.833,383.5 306.5,383.5C 311.106,385.876 316.106,386.876 321.5,386.5C 323.099,386.232 324.432,386.566 325.5,387.5C 335.003,388.404 344.503,389.071 354,389.5C 355.447,387.597 357.114,385.93 359,384.5C 359.414,384.957 359.914,385.291 360.5,385.5C 361.524,384.148 362.524,382.815 363.5,381.5C 364.496,381.414 365.329,381.748 366,382.5C 369.929,380.615 372.429,377.615 373.5,373.5C 378.335,372.158 381.668,369.158 383.5,364.5 Z"/></g>
<g><path style="opacity:0.216" fill="#5776cf" d="M 297.5,381.5 C 300.152,381.41 302.485,382.076 304.5,383.5C 301.848,383.59 299.515,382.924 297.5,381.5 Z"/></g>
<g><path style="opacity:0.012" fill="#4069b9" d="M 306.5,383.5 C 311.65,384.377 316.65,385.377 321.5,386.5C 316.106,386.876 311.106,385.876 306.5,383.5 Z"/></g>
<g><path style="opacity:0.998" fill="#91b0e3" d="M 363.5,381.5 C 362.524,382.815 361.524,384.148 360.5,385.5C 359.914,385.291 359.414,384.957 359,384.5C 357.114,385.93 355.447,387.597 354,389.5C 344.503,389.071 335.003,388.404 325.5,387.5C 338.855,389.049 351.521,387.049 363.5,381.5 Z"/></g>
<g><path style="opacity:0.176" fill="#3d62bd" d="M 284.5,397.5 C 287.228,397.171 289.562,397.837 291.5,399.5C 288.848,399.59 286.515,398.924 284.5,397.5 Z"/></g>
<g><path style="opacity:0.043" fill="#4b5dd2" d="M 368.5,400.5 C 367.22,401.931 365.553,402.598 363.5,402.5C 364.78,401.069 366.447,400.402 368.5,400.5 Z"/></g>
<g><path style="opacity:0.251" fill="#4f75c2" d="M 363.5,402.5 C 361.485,403.924 359.152,404.59 356.5,404.5C 358.515,403.076 360.848,402.41 363.5,402.5 Z"/></g>
<g><path style="opacity:0.565" fill="#80a5e3" d="M 317.5,404.5 C 330.178,405.79 342.844,405.79 355.5,404.5C 355.082,405.222 354.416,405.722 353.5,406C 342.5,406.667 331.5,406.667 320.5,406C 319.263,405.768 318.263,405.268 317.5,404.5 Z"/></g>
</svg>
