<?xml version="1.0" encoding="UTF-8"?>
<!DOCTYPE svg PUBLIC "-//W3C//DTD SVG 1.1//EN" "http://www.w3.org/Graphics/SVG/1.1/DTD/svg11.dtd">
<svg xmlns="http://www.w3.org/2000/svg" version="1.1" width="480px" height="270px" style="shape-rendering:geometricPrecision; text-rendering:geometricPrecision; image-rendering:optimizeQuality; fill-rule:evenodd; clip-rule:evenodd" xmlns:xlink="http://www.w3.org/1999/xlink">
<g><path style="opacity:0.372" fill="#bef0ff" d="M 234.5,63.5 C 237.5,63.5 240.5,63.5 243.5,63.5C 243.389,64.1174 243.056,64.6174 242.5,65C 240.619,64.904 238.953,65.0707 237.5,65.5C 235.973,65.573 234.973,64.9063 234.5,63.5 Z"/></g>
<g><path style="opacity:0.094" fill="#b5e5fc" d="M 243.5,63.5 C 248.422,63.8704 253.089,64.8704 257.5,66.5C 253.985,65.761 250.652,65.761 247.5,66.5C 246.406,64.1638 245.073,64.1638 243.5,66.5C 241.5,66.5 239.5,66.5 237.5,66.5C 237.5,66.1667 237.5,65.8333 237.5,65.5C 238.953,65.0707 240.619,64.904 242.5,65C 243.056,64.6174 243.389,64.1174 243.5,63.5 Z"/></g>
<g><path style="opacity:0.856" fill="#b0e4fb" d="M 234.5,63.5 C 234.973,64.9063 235.973,65.573 237.5,65.5C 237.5,65.8333 237.5,66.1667 237.5,66.5C 234.713,67.4767 231.713,67.81 228.5,67.5C 229.263,66.7321 230.263,66.2321 231.5,66C 230.263,65.7679 229.263,65.2679 228.5,64.5C 230.565,64.4828 232.565,64.1495 234.5,63.5 Z"/></g>
<g><path style="opacity:0.902" fill="#b4e7fb" d="M 228.5,64.5 C 229.263,65.2679 230.263,65.7679 231.5,66C 230.263,66.2321 229.263,66.7321 228.5,67.5C 227.833,67.5 227.167,67.5 226.5,67.5C 224.219,67.9227 222.552,67.256 221.5,65.5C 223.903,65.552 226.236,65.2186 228.5,64.5 Z"/></g>
<g><path style="opacity:0.8" fill="#ace2fc" d="M 247.5,66.5 C 248.791,66.2627 249.791,66.596 250.5,67.5C 248.097,67.552 245.764,67.2186 243.5,66.5C 245.073,64.1638 246.406,64.1638 247.5,66.5 Z"/></g>
<g><path style="opacity:0.949" fill="#c0eefd" d="M 247.5,66.5 C 250.652,65.761 253.985,65.761 257.5,66.5C 256.167,67.1667 254.833,67.8333 253.5,68.5C 252.609,67.8902 251.609,67.5569 250.5,67.5C 249.791,66.596 248.791,66.2627 247.5,66.5 Z"/></g>
<g><path style="opacity:0.871" fill="#a8d3f2" d="M 221.5,65.5 C 222.552,67.256 224.219,67.9227 226.5,67.5C 223.727,68.6572 220.727,69.3239 217.5,69.5C 216.833,68.8333 216.167,68.1667 215.5,67.5C 217.5,66.8333 219.5,66.1667 221.5,65.5 Z"/></g>
<g><path style="opacity:0.963" fill="#afdffb" d="M 257.5,66.5 C 259.786,66.595 261.786,67.2616 263.5,68.5C 262.209,68.2627 261.209,68.596 260.5,69.5C 258.194,69.0074 255.861,68.6741 253.5,68.5C 254.833,67.8333 256.167,67.1667 257.5,66.5 Z"/></g>
<g><path style="opacity:0.867" fill="#addff7" d="M 215.5,67.5 C 216.167,68.1667 216.833,68.8333 217.5,69.5C 216.22,70.9313 214.553,71.5979 212.5,71.5C 210.302,71.5912 209.969,70.9245 211.5,69.5C 212.833,68.8333 214.167,68.1667 215.5,67.5 Z"/></g>
<g><path style="opacity:0.149" fill="#98c9ec" d="M 263.5,68.5 C 266.943,69.0592 269.943,70.3926 272.5,72.5C 271.417,72.4606 270.417,72.1272 269.5,71.5C 268.537,71.9698 268.537,72.6365 269.5,73.5C 267.973,73.573 266.973,72.9063 266.5,71.5C 266.938,71.5654 267.272,71.3988 267.5,71C 265.934,70.3918 264.6,69.5585 263.5,68.5 Z"/></g>
<g><path style="opacity:0.902" fill="#b1e1fb" d="M 260.5,69.5 C 261.209,68.596 262.209,68.2627 263.5,68.5C 264.6,69.5585 265.934,70.3918 267.5,71C 267.272,71.3988 266.938,71.5654 266.5,71.5C 264.297,71.3964 262.297,70.7298 260.5,69.5 Z"/></g>
<g><path style="opacity:0.878" fill="#a0cff2" d="M 211.5,69.5 C 209.969,70.9245 210.302,71.5912 212.5,71.5C 211.71,72.4013 210.71,73.0679 209.5,73.5C 209.5,72.1667 208.833,71.5 207.5,71.5C 208.514,70.3263 209.847,69.6596 211.5,69.5 Z"/></g>
<g><path style="opacity:0.965" fill="#abdcf2" d="M 207.5,71.5 C 208.833,71.5 209.5,72.1667 209.5,73.5C 208.391,73.5569 207.391,73.8902 206.5,74.5C 204.302,74.5912 203.969,73.9245 205.5,72.5C 205.842,71.6618 206.508,71.3284 207.5,71.5 Z"/></g>
<g><path style="opacity:0.847" fill="#96c9e8" d="M 205.5,72.5 C 203.969,73.9245 204.302,74.5912 206.5,74.5C 205.71,75.4013 204.71,76.0679 203.5,76.5C 202.791,75.596 201.791,75.2627 200.5,75.5C 201.659,73.7497 203.326,72.7497 205.5,72.5 Z"/></g>
<g><path style="opacity:0.855" fill="#a0d2ef" d="M 272.5,72.5 C 274.674,72.7497 276.341,73.7497 277.5,75.5C 278.833,76.8333 280.167,78.1667 281.5,79.5C 280.833,79.5 280.167,79.5 279.5,79.5C 276.194,77.5113 272.861,75.5113 269.5,73.5C 268.537,72.6365 268.537,71.9698 269.5,71.5C 270.417,72.1272 271.417,72.4606 272.5,72.5 Z"/></g>
<g><path style="opacity:0.075" fill="#98cde2" d="M 200.5,75.5 C 201.791,75.2627 202.791,75.596 203.5,76.5C 202.101,77.8897 200.434,78.8897 198.5,79.5C 198.833,78.8333 199.167,78.1667 199.5,77.5C 199.833,76.8333 200.167,76.1667 200.5,75.5 Z"/></g>
<g><path style="opacity:0.737" fill="#75a3c4" d="M 277.5,75.5 C 280.674,76.0102 283.008,77.6769 284.5,80.5C 283.391,80.4431 282.391,80.1098 281.5,79.5C 280.167,78.1667 278.833,76.8333 277.5,75.5 Z"/></g>
<g><path style="opacity:0.671" fill="#7aaccb" d="M 200.5,75.5 C 200.167,76.1667 199.833,76.8333 199.5,77.5C 196.573,78.7573 194.239,80.7573 192.5,83.5C 191.833,83.5 191.167,83.5 190.5,83.5C 192.963,79.6998 196.296,77.0332 200.5,75.5 Z"/></g>
<g><path style="opacity:0.863" fill="#a0d8ed" d="M 199.5,77.5 C 199.167,78.1667 198.833,78.8333 198.5,79.5C 197.473,81.1942 196.139,82.5275 194.5,83.5C 193.833,83.5 193.167,83.5 192.5,83.5C 194.239,80.7573 196.573,78.7573 199.5,77.5 Z"/></g>
<g><path style="opacity:1" fill="#97cbe6" d="M 279.5,79.5 C 280.167,79.5 280.833,79.5 281.5,79.5C 282.391,80.1098 283.391,80.4431 284.5,80.5C 284.833,81.1667 285.167,81.8333 285.5,82.5C 285.5,83.1667 285.5,83.8333 285.5,84.5C 283.46,82.823 281.46,81.1563 279.5,79.5 Z"/></g>
<g><path style="opacity:1" fill="#93c8e1" d="M 285.5,82.5 C 287.5,84.1667 289.5,85.8333 291.5,87.5C 293.914,88.9108 295.581,90.9108 296.5,93.5C 295.833,93.1667 295.167,92.8333 294.5,92.5C 293.609,91.8902 292.609,91.5569 291.5,91.5C 288.8,89.7656 286.8,87.4323 285.5,84.5C 285.5,83.8333 285.5,83.1667 285.5,82.5 Z"/></g>
<g><path style="opacity:0.878" fill="#96c7df" d="M 190.5,83.5 C 191.167,83.5 191.833,83.5 192.5,83.5C 193.167,83.5 193.833,83.5 194.5,83.5C 192.167,86.5 189.5,89.1667 186.5,91.5C 186.5,90.8333 186.5,90.1667 186.5,89.5C 187.6,88.3951 188.267,87.0618 188.5,85.5C 188.833,84.5 189.5,83.8333 190.5,83.5 Z"/></g>
<g><path style="opacity:0.518" fill="#7baccf" d="M 284.5,80.5 C 287.833,81.8333 290.167,84.1667 291.5,87.5C 289.5,85.8333 287.5,84.1667 285.5,82.5C 285.167,81.8333 284.833,81.1667 284.5,80.5 Z"/></g>
<g><path style="opacity:0.749" fill="#83afc9" d="M 188.5,85.5 C 188.267,87.0618 187.6,88.3951 186.5,89.5C 184.413,90.5846 183.08,92.2512 182.5,94.5C 182.167,94.5 181.833,94.5 181.5,94.5C 182.624,90.5963 184.958,87.5963 188.5,85.5 Z"/></g>
<g><path style="opacity:0.741" fill="#aedbf4" d="M 186.5,89.5 C 186.5,90.1667 186.5,90.8333 186.5,91.5C 186.167,92.5 185.5,93.1667 184.5,93.5C 183.833,93.8333 183.167,94.1667 182.5,94.5C 183.08,92.2512 184.413,90.5846 186.5,89.5 Z"/></g>
<g><path style="opacity:0.906" fill="#abdbf3" d="M 294.5,92.5 C 295.167,92.8333 295.833,93.1667 296.5,93.5C 297.401,94.2905 298.068,95.2905 298.5,96.5C 298.591,98.6977 297.925,99.0311 296.5,97.5C 295.833,95.8333 295.167,94.1667 294.5,92.5 Z"/></g>
<g><path style="opacity:0.49" fill="#73a8c7" d="M 291.5,91.5 C 292.609,91.5569 293.609,91.8902 294.5,92.5C 295.167,94.1667 295.833,95.8333 296.5,97.5C 294.367,95.9095 292.701,93.9095 291.5,91.5 Z"/></g>
<g><path style="opacity:0.886" fill="#a2d0ed" d="M 184.5,93.5 C 183.66,95.8525 182.326,97.8525 180.5,99.5C 179.075,101.031 178.409,100.698 178.5,98.5C 179.026,96.7697 180.026,95.4363 181.5,94.5C 181.833,94.5 182.167,94.5 182.5,94.5C 183.167,94.1667 183.833,93.8333 184.5,93.5 Z"/></g>
<g><path style="opacity:0.902" fill="#baeafe" d="M 260.5,99.5 C 264.167,98.1667 267.833,98.1667 271.5,99.5C 271.5,99.8333 271.5,100.167 271.5,100.5C 267.731,100.756 264.064,100.423 260.5,99.5 Z"/></g>
<g><path style="opacity:0.067" fill="#a0d7f8" d="M 271.5,100.5 C 271.5,100.167 271.5,99.8333 271.5,99.5C 273.38,99.2291 274.713,99.8958 275.5,101.5C 275.158,102.338 274.492,102.672 273.5,102.5C 272.508,102.672 271.842,102.338 271.5,101.5C 274.167,101.167 274.167,100.833 271.5,100.5 Z"/></g>
<g><path style="opacity:0.808" fill="#8ec1de" d="M 298.5,96.5 C 299.974,97.4363 300.974,98.7697 301.5,100.5C 301.833,102.5 302.167,104.5 302.5,106.5C 301.407,104.651 300.074,102.984 298.5,101.5C 297.326,100.486 296.66,99.153 296.5,97.5C 297.925,99.0311 298.591,98.6977 298.5,96.5 Z"/></g>
<g><path style="opacity:0.953" fill="#91c7e3" d="M 178.5,98.5 C 178.409,100.698 179.075,101.031 180.5,99.5C 180.573,101.027 179.906,102.027 178.5,102.5C 178.062,101.494 177.396,101.494 176.5,102.5C 176.66,100.847 177.326,99.5137 178.5,98.5 Z"/></g>
<g><path style="opacity:0.918" fill="#aadafc" d="M 220.5,100.5 C 222.833,99.1667 225.167,99.1667 227.5,100.5C 227.5,101.167 227.5,101.833 227.5,102.5C 225.167,102.5 222.833,102.5 220.5,102.5C 221.263,101.732 222.263,101.232 223.5,101C 222.552,100.517 221.552,100.351 220.5,100.5 Z"/></g>
<g><path style="opacity:0.275" fill="#a5daf6" d="M 260.5,99.5 C 264.064,100.423 267.731,100.756 271.5,100.5C 274.167,100.833 274.167,101.167 271.5,101.5C 265.864,101.05 260.53,102.05 255.5,104.5C 257.138,103.295 257.471,101.962 256.5,100.5C 257.833,100.167 259.167,99.8333 260.5,99.5 Z"/></g>
<g><path style="opacity:0.878" fill="#b4e8fe" d="M 227.5,100.5 C 228.791,100.263 229.791,100.596 230.5,101.5C 230.888,102.691 230.888,104.024 230.5,105.5C 229.694,104.272 228.694,103.272 227.5,102.5C 227.5,101.833 227.5,101.167 227.5,100.5 Z"/></g>
<g><path style="opacity:0.737" fill="#a2cfe7" d="M 178.5,102.5 C 178.293,105.241 177.293,107.574 175.5,109.5C 175.5,107.833 175.5,106.167 175.5,104.5C 175.328,103.508 175.662,102.842 176.5,102.5C 177.396,101.494 178.062,101.494 178.5,102.5 Z"/></g>
<g><path style="opacity:0.878" fill="#b0e4fa" d="M 220.5,100.5 C 221.552,100.351 222.552,100.517 223.5,101C 222.263,101.232 221.263,101.732 220.5,102.5C 218.795,104.192 216.795,105.525 214.5,106.5C 213.508,106.672 212.842,106.338 212.5,105.5C 214.484,102.836 217.151,101.169 220.5,100.5 Z"/></g>
<g><path style="opacity:0.843" fill="#679bba" d="M 298.5,101.5 C 300.074,102.984 301.407,104.651 302.5,106.5C 302.5,107.5 302.5,108.5 302.5,109.5C 300.659,107.151 299.326,104.485 298.5,101.5 Z"/></g>
<g><path style="opacity:0.996" fill="#98cff2" d="M 275.5,101.5 C 277.71,101.894 279.043,103.227 279.5,105.5C 278.662,105.842 278.328,106.508 278.5,107.5C 277.833,106.833 277.167,106.167 276.5,105.5C 275.167,104.833 274.167,103.833 273.5,102.5C 274.492,102.672 275.158,102.338 275.5,101.5 Z"/></g>
<g><path style="opacity:0.071" fill="#a5e1f7" d="M 256.5,100.5 C 257.471,101.962 257.138,103.295 255.5,104.5C 254.833,105.833 253.833,106.833 252.5,107.5C 252.631,106.761 252.464,106.094 252,105.5C 251.31,106.738 250.81,106.738 250.5,105.5C 252.46,103.844 254.46,102.177 256.5,100.5 Z"/></g>
<g><path style="opacity:1" fill="#9dd5f6" d="M 230.5,101.5 C 232.669,103.34 234.002,105.674 234.5,108.5C 234.737,109.791 234.404,110.791 233.5,111.5C 232.13,109.75 231.13,107.75 230.5,105.5C 230.888,104.024 230.888,102.691 230.5,101.5 Z"/></g>
<g><path style="opacity:0.941" fill="#79a6cb" d="M 301.5,100.5 C 303.267,102.792 304.267,105.458 304.5,108.5C 303.833,107.833 303.167,107.167 302.5,106.5C 302.167,104.5 301.833,102.5 301.5,100.5 Z"/></g>
<g><path style="opacity:0.965" fill="#abe0fa" d="M 212.5,105.5 C 212.842,106.338 213.508,106.672 214.5,106.5C 213.738,108.262 212.404,109.262 210.5,109.5C 210.5,108.833 210.167,108.5 209.5,108.5C 210.167,107.167 211.167,106.167 212.5,105.5 Z"/></g>
<g><path style="opacity:0.824" fill="#abe7fa" d="M 250.5,105.5 C 250.81,106.738 251.31,106.738 252,105.5C 252.464,106.094 252.631,106.761 252.5,107.5C 252.167,108.5 251.5,109.167 250.5,109.5C 249.662,109.158 249.328,108.492 249.5,107.5C 249.328,106.508 249.662,105.842 250.5,105.5 Z"/></g>
<g><path style="opacity:0.925" fill="#98cdec" d="M 175.5,104.5 C 175.5,106.167 175.5,107.833 175.5,109.5C 175.598,111.553 174.931,113.22 173.5,114.5C 173.631,113.761 173.464,113.094 173,112.5C 172.243,114.315 171.41,115.981 170.5,117.5C 171.199,112.728 172.866,108.395 175.5,104.5 Z"/></g>
<g><path style="opacity:0.902" fill="#b1e4fe" d="M 209.5,108.5 C 210.167,108.5 210.5,108.833 210.5,109.5C 208.973,111.939 206.973,113.939 204.5,115.5C 204.5,114.833 204.5,114.167 204.5,113.5C 205.833,111.5 207.5,109.833 209.5,108.5 Z"/></g>
<g><path style="opacity:0.694" fill="#7db7db" d="M 279.5,105.5 C 280.388,108.054 280.721,110.721 280.5,113.5C 279.723,112.118 279.056,110.118 278.5,107.5C 278.328,106.508 278.662,105.842 279.5,105.5 Z"/></g>
<g><path style="opacity:0.792" fill="#97cef3" d="M 234.5,108.5 C 236.109,109.665 236.443,110.999 235.5,112.5C 235.5,114.5 235.5,116.5 235.5,118.5C 235.167,118.5 234.833,118.5 234.5,118.5C 233.532,116.393 233.198,114.059 233.5,111.5C 234.404,110.791 234.737,109.791 234.5,108.5 Z"/></g>
<g><path style="opacity:0.741" fill="#a5e2fd" d="M 249.5,107.5 C 249.328,108.492 249.662,109.158 250.5,109.5C 249.833,111.5 249.167,113.5 248.5,115.5C 246.938,115.733 245.605,116.4 244.5,117.5C 245.132,113.569 246.799,110.235 249.5,107.5 Z"/></g>
<g><path style="opacity:0.482" fill="#83b4d6" d="M 302.5,106.5 C 303.167,107.167 303.833,107.833 304.5,108.5C 305.931,109.78 306.598,111.447 306.5,113.5C 305.778,113.082 305.278,112.416 305,111.5C 304.506,113.134 304.34,114.801 304.5,116.5C 303.388,114.401 302.721,112.067 302.5,109.5C 302.5,108.5 302.5,107.5 302.5,106.5 Z"/></g>
<g><path style="opacity:0.843" fill="#b4e3fa" d="M 173.5,114.5 C 173.5,114.833 173.5,115.167 173.5,115.5C 171.96,117.838 171.294,120.505 171.5,123.5C 170.539,121.735 170.205,119.735 170.5,117.5C 171.41,115.981 172.243,114.315 173,112.5C 173.464,113.094 173.631,113.761 173.5,114.5 Z"/></g>
<g><path style="opacity:0.276" fill="#639cc0" d="M 276.5,105.5 C 277.167,106.167 277.833,106.833 278.5,107.5C 278.5,111.833 278.5,116.167 278.5,120.5C 277.833,120.5 277.5,120.833 277.5,121.5C 277.204,123.403 276.537,125.07 275.5,126.5C 275.5,125.833 275.5,125.167 275.5,124.5C 277.772,118.3 278.105,111.967 276.5,105.5 Z"/></g>
<g><path style="opacity:1" fill="#b5f1fe" d="M 204.5,113.5 C 204.5,114.167 204.5,114.833 204.5,115.5C 204.167,116.5 203.5,117.167 202.5,117.5C 202.5,116.833 202.167,116.5 201.5,116.5C 201.5,115.833 201.167,115.5 200.5,115.5C 201.287,113.896 202.62,113.229 204.5,113.5 Z"/></g>
<g><path style="opacity:1" fill="#8fd3ee" d="M 278.5,107.5 C 279.056,110.118 279.723,112.118 280.5,113.5C 281.338,113.842 281.672,114.508 281.5,115.5C 279.972,116.802 278.972,118.469 278.5,120.5C 278.5,116.167 278.5,111.833 278.5,107.5 Z"/></g>
<g><path style="opacity:1" fill="#c0eafd" d="M 200.5,115.5 C 201.167,115.5 201.5,115.833 201.5,116.5C 201.167,118.5 200.833,120.5 200.5,122.5C 197.833,120.167 197.833,117.833 200.5,115.5 Z"/></g>
<g><path style="opacity:0.753" fill="#a4e0f7" d="M 248.5,115.5 C 250.5,116.167 252.5,116.833 254.5,117.5C 253.439,118.04 252.439,118.374 251.5,118.5C 248.69,120.178 246.357,119.845 244.5,117.5C 245.605,116.4 246.938,115.733 248.5,115.5 Z"/></g>
<g><path style="opacity:1" fill="#a8dbf2" d="M 306.5,113.5 C 306.5,113.833 306.5,114.167 306.5,114.5C 306.802,117.373 307.469,120.039 308.5,122.5C 308.5,122.833 308.5,123.167 308.5,123.5C 308.5,130.833 308.5,138.167 308.5,145.5C 307.833,138.167 307.167,130.833 306.5,123.5C 306.829,120.772 306.163,118.438 304.5,116.5C 304.34,114.801 304.506,113.134 305,111.5C 305.278,112.416 305.778,113.082 306.5,113.5 Z"/></g>
<g><path style="opacity:0.153" fill="#83b7da" d="M 306.5,114.5 C 308.223,116.78 308.889,119.447 308.5,122.5C 307.469,120.039 306.802,117.373 306.5,114.5 Z"/></g>
<g><path style="opacity:0.565" fill="#78acc7" d="M 304.5,116.5 C 306.163,118.438 306.829,120.772 306.5,123.5C 306.5,123.833 306.5,124.167 306.5,124.5C 305.469,122.039 304.802,119.373 304.5,116.5 Z"/></g>
<g><path style="opacity:0.187" fill="#96c4e1" d="M 173.5,115.5 C 171.875,124.752 171.208,134.085 171.5,143.5C 171.167,143.5 170.833,143.5 170.5,143.5C 170.5,137.167 170.5,130.833 170.5,124.5C 171.167,124.5 171.5,124.167 171.5,123.5C 171.294,120.505 171.96,117.838 173.5,115.5 Z"/></g>
<g><path style="opacity:0.784" fill="#ade5fa" d="M 211.5,119.5 C 210.5,120.167 209.5,120.833 208.5,121.5C 208.158,122.338 207.492,122.672 206.5,122.5C 204.302,122.591 203.969,121.925 205.5,120.5C 207.32,118.539 209.32,118.206 211.5,119.5 Z"/></g>
<g><path style="opacity:0.424" fill="#95d2fc" d="M 234.5,118.5 C 234.833,118.5 235.167,118.5 235.5,118.5C 236.167,120.5 236.833,122.5 237.5,124.5C 237.5,124.833 237.5,125.167 237.5,125.5C 236.833,125.5 236.167,125.5 235.5,125.5C 234.532,123.393 234.198,121.059 234.5,118.5 Z"/></g>
<g><path style="opacity:0.49" fill="#84bfef" d="M 235.5,112.5 C 236.989,116.236 237.656,120.236 237.5,124.5C 236.833,122.5 236.167,120.5 235.5,118.5C 235.5,116.5 235.5,114.5 235.5,112.5 Z"/></g>
<g><path style="opacity:1" fill="#a9dcf9" d="M 201.5,116.5 C 202.167,116.5 202.5,116.833 202.5,117.5C 202.5,118.5 202.5,119.5 202.5,120.5C 203.5,120.5 204.5,120.5 205.5,120.5C 203.969,121.925 204.302,122.591 206.5,122.5C 204.5,125.167 202.5,125.167 200.5,122.5C 200.833,120.5 201.167,118.5 201.5,116.5 Z"/></g>
<g><path style="opacity:0.573" fill="#99d0f2" d="M 211.5,119.5 C 212.492,119.328 213.158,119.662 213.5,120.5C 212.595,121.702 212.595,123.036 213.5,124.5C 211.999,123.248 210.332,122.248 208.5,121.5C 209.5,120.833 210.5,120.167 211.5,119.5 Z"/></g>
<g><path style="opacity:0.376" fill="#b1e2f6" d="M 213.5,120.5 C 214.674,121.514 215.34,122.847 215.5,124.5C 215.631,125.239 215.464,125.906 215,126.5C 214.722,125.584 214.222,124.918 213.5,124.5C 212.595,123.036 212.595,121.702 213.5,120.5 Z"/></g>
<g><path style="opacity:0.808" fill="#82bbe2" d="M 281.5,115.5 C 280.869,118.702 279.869,121.702 278.5,124.5C 278.737,123.209 278.404,122.209 277.5,121.5C 277.5,120.833 277.833,120.5 278.5,120.5C 278.972,118.469 279.972,116.802 281.5,115.5 Z"/></g>
<g><path style="opacity:0.667" fill="#a7d2ef" d="M 170.5,117.5 C 170.205,119.735 170.539,121.735 171.5,123.5C 171.5,124.167 171.167,124.5 170.5,124.5C 169.833,124.167 169.167,123.833 168.5,123.5C 169.048,121.374 169.715,119.374 170.5,117.5 Z"/></g>
<g><path style="opacity:0.953" fill="#90c9e9" d="M 277.5,121.5 C 278.404,122.209 278.737,123.209 278.5,124.5C 277.624,128.582 275.957,132.249 273.5,135.5C 273.5,134.5 273.5,133.5 273.5,132.5C 274.167,130.5 274.833,128.5 275.5,126.5C 276.537,125.07 277.204,123.403 277.5,121.5 Z"/></g>
<g><path style="opacity:0.871" fill="#93d1f3" d="M 254.5,117.5 C 256.134,118.207 257.468,119.373 258.5,121C 257.402,121.77 257.402,122.603 258.5,123.5C 256.733,125.792 255.733,128.458 255.5,131.5C 255.25,133.674 254.25,135.341 252.5,136.5C 252.591,134.302 251.925,133.969 250.5,135.5C 252.392,131.71 253.725,127.71 254.5,123.5C 254.677,121.032 253.677,119.365 251.5,118.5C 252.439,118.374 253.439,118.04 254.5,117.5 Z"/></g>
<g><path style="opacity:0.953" fill="#bfe9fd" d="M 168.5,123.5 C 169.167,123.833 169.833,124.167 170.5,124.5C 170.5,130.833 170.5,137.167 170.5,143.5C 169.833,138.167 169.167,132.833 168.5,127.5C 168.5,126.167 168.5,124.833 168.5,123.5 Z"/></g>
<g><path style="opacity:0.737" fill="#93c8f1" d="M 213.5,124.5 C 214.222,124.918 214.722,125.584 215,126.5C 215.464,125.906 215.631,125.239 215.5,124.5C 217.267,126.792 218.267,129.458 218.5,132.5C 217.778,132.082 217.278,131.416 217,130.5C 216.51,131.793 216.343,133.127 216.5,134.5C 214.723,131.495 213.723,128.162 213.5,124.5 Z"/></g>
<g><path style="opacity:0.29" fill="#71a9cf" d="M 275.5,124.5 C 275.5,125.167 275.5,125.833 275.5,126.5C 274.833,128.5 274.167,130.5 273.5,132.5C 272.833,132.833 272.167,133.167 271.5,133.5C 272.597,130.314 273.93,127.314 275.5,124.5 Z"/></g>
<g><path style="opacity:0.235" fill="#7cb9ea" d="M 258.5,123.5 C 258.267,126.542 257.267,129.208 255.5,131.5C 255.733,128.458 256.733,125.792 258.5,123.5 Z"/></g>
<g><path style="opacity:0.847" fill="#87c4ee" d="M 235.5,125.5 C 236.167,125.5 236.833,125.5 237.5,125.5C 238.793,128.679 239.46,132.012 239.5,135.5C 238.71,134.391 238.21,133.058 238,131.5C 237.51,132.793 237.343,134.127 237.5,135.5C 235.825,132.493 235.159,129.16 235.5,125.5 Z"/></g>
<g><path style="opacity:0.882" fill="#91c8ea" d="M 218.5,132.5 C 220.236,137.378 221.57,142.378 222.5,147.5C 221.596,146.791 221.263,145.791 221.5,144.5C 220.5,144.5 219.5,144.5 218.5,144.5C 217.833,141.167 217.167,137.833 216.5,134.5C 216.343,133.127 216.51,131.793 217,130.5C 217.278,131.416 217.778,132.082 218.5,132.5 Z"/></g>
<g><path style="opacity:1" fill="#9ad6fb" d="M 239.5,135.5 C 240.167,136.833 240.833,138.167 241.5,139.5C 240.5,140.833 239.5,140.833 238.5,139.5C 237.566,138.432 237.232,137.099 237.5,135.5C 237.343,134.127 237.51,132.793 238,131.5C 238.21,133.058 238.71,134.391 239.5,135.5 Z"/></g>
<g><path style="opacity:0.294" fill="#96cfed" d="M 273.5,132.5 C 273.5,133.5 273.5,134.5 273.5,135.5C 272.974,137.23 271.974,138.564 270.5,139.5C 270.631,138.761 270.464,138.094 270,137.5C 269.148,138.571 268.315,139.571 267.5,140.5C 267.998,137.674 269.331,135.34 271.5,133.5C 272.167,133.167 272.833,132.833 273.5,132.5 Z"/></g>
<g><path style="opacity:0.847" fill="#a8e3fd" d="M 252.5,136.5 C 251.115,137.574 249.949,138.907 249,140.5C 248.536,139.906 248.369,139.239 248.5,138.5C 248.932,137.29 249.599,136.29 250.5,135.5C 251.925,133.969 252.591,134.302 252.5,136.5 Z"/></g>
<g><path style="opacity:0.89" fill="#82b3d1" d="M 308.5,123.5 C 311.066,131.182 311.066,138.849 308.5,146.5C 308.5,146.167 308.5,145.833 308.5,145.5C 308.5,138.167 308.5,130.833 308.5,123.5 Z"/></g>
<g><path style="opacity:0.784" fill="#abdaf6" d="M 270.5,139.5 C 270.573,141.027 269.906,142.027 268.5,142.5C 267.833,142.833 267.167,143.167 266.5,143.5C 266.557,142.391 266.89,141.391 267.5,140.5C 268.315,139.571 269.148,138.571 270,137.5C 270.464,138.094 270.631,138.761 270.5,139.5 Z"/></g>
<g><path style="opacity:0.173" fill="#8fcaf3" d="M 238.5,139.5 C 239.5,140.833 240.5,140.833 241.5,139.5C 242.167,140.833 243.167,141.833 244.5,142.5C 243.71,143.401 242.71,144.068 241.5,144.5C 239.75,143.341 238.75,141.674 238.5,139.5 Z"/></g>
<g><path style="opacity:0.643" fill="#8ec9ee" d="M 252.5,136.5 C 250.884,141.283 247.718,144.616 243,146.5C 242.283,145.956 241.783,145.289 241.5,144.5C 242.71,144.068 243.71,143.401 244.5,142.5C 245.5,140.833 246.833,139.5 248.5,138.5C 248.369,139.239 248.536,139.906 249,140.5C 249.949,138.907 251.115,137.574 252.5,136.5 Z"/></g>
<g><path style="opacity:0.612" fill="#77aed5" d="M 267.5,140.5 C 266.89,141.391 266.557,142.391 266.5,143.5C 265.167,144.5 263.833,145.5 262.5,146.5C 263.473,143.865 265.14,141.865 267.5,140.5 Z"/></g>
<g><path style="opacity:0.808" fill="#a1cef2" d="M 168.5,127.5 C 169.167,132.833 169.833,138.167 170.5,143.5C 170.833,143.5 171.167,143.5 171.5,143.5C 172.341,145.379 172.675,147.379 172.5,149.5C 171.71,148.391 171.21,147.058 171,145.5C 170.506,147.134 170.34,148.801 170.5,150.5C 169.698,149.048 169.198,147.382 169,145.5C 168.501,139.509 168.334,133.509 168.5,127.5 Z"/></g>
<g><path style="opacity:0.91" fill="#93cbed" d="M 268.5,142.5 C 266.984,145.533 264.984,148.2 262.5,150.5C 262.167,149.833 261.833,149.167 261.5,148.5C 261.328,147.508 261.662,146.842 262.5,146.5C 263.833,145.5 265.167,144.5 266.5,143.5C 267.167,143.167 267.833,142.833 268.5,142.5 Z"/></g>
<g><path style="opacity:0.986" fill="#b7e3fc" d="M 172.5,149.5 C 172.657,150.873 172.49,152.207 172,153.5C 171.768,152.263 171.268,151.263 170.5,150.5C 170.34,148.801 170.506,147.134 171,145.5C 171.21,147.058 171.71,148.391 172.5,149.5 Z"/></g>
<g><path style="opacity:0.992" fill="#8fceea" d="M 218.5,144.5 C 219.5,144.5 220.5,144.5 221.5,144.5C 221.263,145.791 221.596,146.791 222.5,147.5C 222.5,147.833 222.5,148.167 222.5,148.5C 222.649,149.552 222.483,150.552 222,151.5C 221.841,149.657 221.341,148.991 220.5,149.5C 219.691,147.972 219.024,146.306 218.5,144.5 Z"/></g>
<g><path style="opacity:0.867" fill="#95c8ef" d="M 261.5,148.5 C 261.833,149.167 262.167,149.833 262.5,150.5C 262.5,151.167 262.167,151.5 261.5,151.5C 260.5,152.833 259.5,152.833 258.5,151.5C 258.81,149.856 259.81,148.856 261.5,148.5 Z"/></g>
<g><path style="opacity:0.275" fill="#93c7e4" d="M 306.5,123.5 C 307.167,130.833 307.833,138.167 308.5,145.5C 308.5,145.833 308.5,146.167 308.5,146.5C 308.802,149.059 308.468,151.393 307.5,153.5C 307.565,153.062 307.399,152.728 307,152.5C 305.913,154.932 305.413,154.598 305.5,151.5C 306.266,142.521 306.599,133.521 306.5,124.5C 306.5,124.167 306.5,123.833 306.5,123.5 Z"/></g>
<g><path style="opacity:0.318" fill="#90bddd" d="M 172.5,149.5 C 173.451,150.919 173.784,152.585 173.5,154.5C 172.596,155.209 172.263,156.209 172.5,157.5C 170.837,155.562 170.171,153.228 170.5,150.5C 171.268,151.263 171.768,152.263 172,153.5C 172.49,152.207 172.657,150.873 172.5,149.5 Z"/></g>
<g><path style="opacity:0.827" fill="#87b9db" d="M 222.5,148.5 C 223.735,151.33 224.735,154.33 225.5,157.5C 224.778,157.082 224.278,156.416 224,155.5C 223.82,157.488 223.986,159.488 224.5,161.5C 222.065,157.942 220.732,153.942 220.5,149.5C 221.341,148.991 221.841,149.657 222,151.5C 222.483,150.552 222.649,149.552 222.5,148.5 Z"/></g>
<g><path style="opacity:0.475" fill="#8cc0de" d="M 258.5,151.5 C 259.5,152.833 260.5,152.833 261.5,151.5C 260.89,153.434 259.89,155.101 258.5,156.5C 258.5,155.833 258.167,155.5 257.5,155.5C 256.798,154.884 255.798,154.884 254.5,155.5C 255.5,153.833 256.833,152.5 258.5,151.5 Z"/></g>
<g><path style="opacity:0.831" fill="#8cbcdf" d="M 305.5,151.5 C 305.413,154.598 305.913,154.932 307,152.5C 307.399,152.728 307.565,153.062 307.5,153.5C 306.935,157.537 305.601,161.203 303.5,164.5C 303.5,163.833 303.167,163.5 302.5,163.5C 301.833,163.833 301.167,164.167 300.5,164.5C 301.995,160.002 303.662,155.668 305.5,151.5 Z"/></g>
<g><path style="opacity:0.98" fill="#a2d6f3" d="M 257.5,155.5 C 255.167,158.167 252.833,160.833 250.5,163.5C 249.508,163.672 248.842,163.338 248.5,162.5C 250.545,160.159 252.545,157.826 254.5,155.5C 255.798,154.884 256.798,154.884 257.5,155.5 Z"/></g>
<g><path style="opacity:1" fill="#92c7e8" d="M 225.5,157.5 C 227.328,161.146 229.662,164.479 232.5,167.5C 231.036,166.595 229.702,166.595 228.5,167.5C 226.774,165.772 225.441,163.772 224.5,161.5C 223.986,159.488 223.82,157.488 224,155.5C 224.278,156.416 224.778,157.082 225.5,157.5 Z"/></g>
<g><path style="opacity:0.129" fill="#8bbce0" d="M 257.5,155.5 C 258.167,155.5 258.5,155.833 258.5,156.5C 256.167,159.5 253.5,162.167 250.5,164.5C 250.5,164.167 250.5,163.833 250.5,163.5C 252.833,160.833 255.167,158.167 257.5,155.5 Z"/></g>
<g><path style="opacity:0.98" fill="#91c3e1" d="M 173.5,154.5 C 176.282,161.396 179.615,168.063 183.5,174.5C 182.662,174.842 182.328,175.508 182.5,176.5C 177.344,171.191 174.011,164.857 172.5,157.5C 172.263,156.209 172.596,155.209 173.5,154.5 Z"/></g>
<g><path style="opacity:0.437" fill="#aad2fb" d="M 248.5,162.5 C 248.842,163.338 249.508,163.672 250.5,163.5C 250.5,163.833 250.5,164.167 250.5,164.5C 249.5,165.167 248.5,165.833 247.5,166.5C 247.5,165.167 246.833,164.5 245.5,164.5C 245.973,163.094 246.973,162.427 248.5,162.5 Z"/></g>
<g><path style="opacity:0.388" fill="#9ed7f5" d="M 243.5,165.5 C 243.842,164.662 244.508,164.328 245.5,164.5C 246.833,164.5 247.5,165.167 247.5,166.5C 246.71,167.401 245.71,168.068 244.5,168.5C 244.414,167.504 244.748,166.671 245.5,166C 244.906,165.536 244.239,165.369 243.5,165.5 Z"/></g>
<g><path style="opacity:0.831" fill="#9bc9ec" d="M 302.5,163.5 C 302.34,165.153 301.674,166.486 300.5,167.5C 299.833,167.833 299.167,168.167 298.5,168.5C 298.66,166.847 299.326,165.514 300.5,164.5C 301.167,164.167 301.833,163.833 302.5,163.5 Z"/></g>
<g><path style="opacity:0.286" fill="#a2dcf6" d="M 232.5,167.5 C 234.833,167.5 237.167,167.5 239.5,167.5C 239.5,167.833 239.5,168.167 239.5,168.5C 237.265,168.205 235.265,168.539 233.5,169.5C 231.447,169.598 229.78,168.931 228.5,167.5C 229.702,166.595 231.036,166.595 232.5,167.5 Z"/></g>
<g><path style="opacity:0.527" fill="#a7dcf9" d="M 243.5,165.5 C 244.239,165.369 244.906,165.536 245.5,166C 244.748,166.671 244.414,167.504 244.5,168.5C 242.958,169.301 241.292,169.634 239.5,169.5C 239.5,169.167 239.5,168.833 239.5,168.5C 239.5,168.167 239.5,167.833 239.5,167.5C 240.514,166.326 241.847,165.66 243.5,165.5 Z"/></g>
<g><path style="opacity:0.929" fill="#b0e5fe" d="M 239.5,168.5 C 239.5,168.833 239.5,169.167 239.5,169.5C 237.5,170.833 235.5,170.833 233.5,169.5C 235.265,168.539 237.265,168.205 239.5,168.5 Z"/></g>
<g><path style="opacity:0.373" fill="#75a8c3" d="M 302.5,163.5 C 303.167,163.5 303.5,163.833 303.5,164.5C 302.921,167.331 301.588,169.664 299.5,171.5C 299.833,170.167 300.167,168.833 300.5,167.5C 301.674,166.486 302.34,165.153 302.5,163.5 Z"/></g>
<g><path style="opacity:1" fill="#94c9df" d="M 300.5,167.5 C 300.167,168.833 299.833,170.167 299.5,171.5C 299.262,173.404 298.262,174.738 296.5,175.5C 296.511,173.983 297.177,172.816 298.5,172C 297.906,171.536 297.239,171.369 296.5,171.5C 296.932,170.29 297.599,169.29 298.5,168.5C 299.167,168.167 299.833,167.833 300.5,167.5 Z"/></g>
<g><path style="opacity:0.961" fill="#a5d8ee" d="M 296.5,171.5 C 297.239,171.369 297.906,171.536 298.5,172C 297.177,172.816 296.511,173.983 296.5,175.5C 295.542,175.953 294.708,176.619 294,177.5C 293.601,177.272 293.435,176.938 293.5,176.5C 293.75,174.326 294.75,172.659 296.5,171.5 Z"/></g>
<g><path style="opacity:0.847" fill="#91c8e3" d="M 183.5,174.5 C 185.543,175.579 186.876,177.246 187.5,179.5C 186.662,179.842 186.328,180.508 186.5,181.5C 184.457,180.421 183.124,178.754 182.5,176.5C 182.328,175.508 182.662,174.842 183.5,174.5 Z"/></g>
<g><path style="opacity:0.918" fill="#92bee0" d="M 296.5,175.5 C 295.222,177.799 293.889,180.132 292.5,182.5C 291.226,184.451 289.56,185.785 287.5,186.5C 287.5,185.833 287.5,185.167 287.5,184.5C 289.129,183.375 290.629,182.041 292,180.5C 292.528,179.184 292.028,178.517 290.5,178.5C 290.973,177.094 291.973,176.427 293.5,176.5C 293.435,176.938 293.601,177.272 294,177.5C 294.708,176.619 295.542,175.953 296.5,175.5 Z"/></g>
<g><path style="opacity:1" fill="#94cdee" d="M 187.5,179.5 C 188.833,180.167 189.833,181.167 190.5,182.5C 189.5,183.833 188.5,183.833 187.5,182.5C 186.833,182.5 186.5,182.167 186.5,181.5C 186.328,180.508 186.662,179.842 187.5,179.5 Z"/></g>
<g><path style="opacity:0.573" fill="#a8d9e9" d="M 290.5,178.5 C 292.028,178.517 292.528,179.184 292,180.5C 290.629,182.041 289.129,183.375 287.5,184.5C 287.5,183.833 287.5,183.167 287.5,182.5C 288.147,180.859 289.147,179.526 290.5,178.5 Z"/></g>
<g><path style="opacity:0.957" fill="#85bee0" d="M 187.5,182.5 C 188.5,183.833 189.5,183.833 190.5,182.5C 191.5,182.833 192.167,183.5 192.5,184.5C 191.508,184.328 190.842,184.662 190.5,185.5C 188.81,185.144 187.81,184.144 187.5,182.5 Z"/></g>
<g><path style="opacity:0.973" fill="#9bd1ec" d="M 192.5,184.5 C 193.833,184.5 194.5,185.167 194.5,186.5C 194.158,187.338 193.492,187.672 192.5,187.5C 191.5,187.167 190.833,186.5 190.5,185.5C 190.842,184.662 191.508,184.328 192.5,184.5 Z"/></g>
<g><path style="opacity:0.745" fill="#a0d0e9" d="M 287.5,182.5 C 287.5,183.167 287.5,183.833 287.5,184.5C 287.5,185.167 287.5,185.833 287.5,186.5C 286.415,188.587 284.749,189.92 282.5,190.5C 284.031,189.075 283.698,188.409 281.5,188.5C 282.833,185.833 284.833,183.833 287.5,182.5 Z"/></g>
<g><path style="opacity:0.663" fill="#91c9e3" d="M 194.5,186.5 C 196.404,186.738 197.738,187.738 198.5,189.5C 197.508,189.328 196.842,189.662 196.5,190.5C 194.596,190.262 193.262,189.262 192.5,187.5C 193.492,187.672 194.158,187.338 194.5,186.5 Z"/></g>
<g><path style="opacity:0.896" fill="#a7def5" d="M 198.5,189.5 C 199.5,189.833 200.167,190.5 200.5,191.5C 201.506,192.396 201.506,193.062 200.5,193.5C 198.596,193.262 197.262,192.262 196.5,190.5C 196.842,189.662 197.508,189.328 198.5,189.5 Z"/></g>
<g><path style="opacity:0.792" fill="#aae1f2" d="M 281.5,188.5 C 283.698,188.409 284.031,189.075 282.5,190.5C 281.421,192.543 279.754,193.876 277.5,194.5C 276.448,194.649 275.448,194.483 274.5,194C 275.738,193.31 275.738,192.81 274.5,192.5C 276.663,190.917 278.996,189.584 281.5,188.5 Z"/></g>
<g><path style="opacity:1" fill="#a8dbf8" d="M 200.5,191.5 C 204.083,193.36 207.749,195.027 211.5,196.5C 211.5,197.833 210.833,198.5 209.5,198.5C 205.716,198.111 202.716,196.444 200.5,193.5C 201.506,193.062 201.506,192.396 200.5,191.5 Z"/></g>
<g><path style="opacity:0.671" fill="#abdcf6" d="M 274.5,192.5 C 275.738,192.81 275.738,193.31 274.5,194C 275.448,194.483 276.448,194.649 277.5,194.5C 276.486,195.674 275.153,196.34 273.5,196.5C 270.075,196.633 269.742,195.967 272.5,194.5C 272.833,193.5 273.5,192.833 274.5,192.5 Z"/></g>
<g><path style="opacity:0.725" fill="#a4d3f0" d="M 272.5,194.5 C 269.742,195.967 270.075,196.633 273.5,196.5C 271.465,198.195 269.132,199.528 266.5,200.5C 267.405,199.036 267.405,197.702 266.5,196.5C 268.297,195.27 270.297,194.604 272.5,194.5 Z"/></g>
<g><path style="opacity:0.914" fill="#a5cff4" d="M 211.5,196.5 C 212.71,196.932 213.71,197.599 214.5,198.5C 213.761,198.369 213.094,198.536 212.5,199C 213.416,199.278 214.082,199.778 214.5,200.5C 212.302,200.88 210.635,200.213 209.5,198.5C 210.833,198.5 211.5,197.833 211.5,196.5 Z"/></g>
<g><path style="opacity:0.718" fill="#b6e0fb" d="M 214.5,198.5 C 215.609,198.557 216.609,198.89 217.5,199.5C 217.918,200.222 218.584,200.722 219.5,201C 218.944,201.383 218.611,201.883 218.5,202.5C 217.005,202.011 215.671,201.345 214.5,200.5C 214.082,199.778 213.416,199.278 212.5,199C 213.094,198.536 213.761,198.369 214.5,198.5 Z"/></g>
<g><path style="opacity:0.953" fill="#b8e5fd" d="M 266.5,196.5 C 267.405,197.702 267.405,199.036 266.5,200.5C 266.167,200.5 265.833,200.5 265.5,200.5C 264.833,199.833 264.167,199.167 263.5,198.5C 264.29,197.599 265.29,196.932 266.5,196.5 Z"/></g>
<g><path style="opacity:0.608" fill="#abdaf9" d="M 263.5,198.5 C 264.167,199.167 264.833,199.833 265.5,200.5C 263.958,201.301 262.292,201.634 260.5,201.5C 259.432,200.566 258.099,200.232 256.5,200.5C 258.599,199.388 260.933,198.721 263.5,198.5 Z"/></g>
<g><path style="opacity:0.522" fill="#a7d8f8" d="M 217.5,199.5 C 219.806,199.993 222.139,200.326 224.5,200.5C 223.1,201.1 222.1,202.1 221.5,203.5C 220.609,202.89 219.609,202.557 218.5,202.5C 218.611,201.883 218.944,201.383 219.5,201C 218.584,200.722 217.918,200.222 217.5,199.5 Z"/></g>
<g><path style="opacity:0.698" fill="#afe2fa" d="M 251.5,201.5 C 252.919,200.549 254.585,200.216 256.5,200.5C 258.099,200.232 259.432,200.566 260.5,201.5C 258.321,202.677 255.987,203.677 253.5,204.5C 253.167,203.833 252.833,203.167 252.5,202.5C 252.5,201.833 252.167,201.5 251.5,201.5 Z"/></g>
<g><path style="opacity:0.847" fill="#afddf9" d="M 224.5,200.5 C 226.379,201.341 228.379,201.675 230.5,201.5C 230.611,202.117 230.944,202.617 231.5,203C 230.263,203.232 229.263,203.732 228.5,204.5C 226.139,204.326 223.806,203.993 221.5,203.5C 222.1,202.1 223.1,201.1 224.5,200.5 Z"/></g>
<g><path style="opacity:0.706" fill="#afe6ff" d="M 236.5,202.5 C 236.833,202.5 237.167,202.5 237.5,202.5C 238.609,203.29 239.942,203.79 241.5,204C 239.942,204.21 238.609,204.71 237.5,205.5C 237.167,205.5 236.833,205.5 236.5,205.5C 236.082,204.778 235.416,204.278 234.5,204C 235.416,203.722 236.082,203.222 236.5,202.5 Z"/></g>
<g><path style="opacity:0.929" fill="#adddfb" d="M 251.5,201.5 C 252.167,201.5 252.5,201.833 252.5,202.5C 250.585,202.216 248.919,202.549 247.5,203.5C 246.209,203.737 245.209,203.404 244.5,202.5C 246.607,201.532 248.941,201.198 251.5,201.5 Z"/></g>
<g><path style="opacity:0.827" fill="#a3d8f9" d="M 230.5,201.5 C 232.435,202.15 234.435,202.483 236.5,202.5C 236.082,203.222 235.416,203.722 234.5,204C 235.416,204.278 236.082,204.778 236.5,205.5C 233.763,205.599 231.096,205.265 228.5,204.5C 229.263,203.732 230.263,203.232 231.5,203C 230.944,202.617 230.611,202.117 230.5,201.5 Z"/></g>
<g><path style="opacity:0.059" fill="#b8e7ff" d="M 247.5,203.5 C 248.919,202.549 250.585,202.216 252.5,202.5C 252.833,203.167 253.167,203.833 253.5,204.5C 251.833,204.5 250.167,204.5 248.5,204.5C 248.5,203.833 248.167,203.5 247.5,203.5 Z"/></g>
<g><path style="opacity:0.213" fill="#acdeff" d="M 237.5,202.5 C 239.167,202.5 240.833,202.5 242.5,202.5C 243.833,203.5 243.833,204.5 242.5,205.5C 240.833,205.5 239.167,205.5 237.5,205.5C 238.609,204.71 239.942,204.21 241.5,204C 239.942,203.79 238.609,203.29 237.5,202.5 Z"/></g>
<g><path style="opacity:0.1" fill="#a8d7fc" d="M 242.5,202.5 C 243.167,202.5 243.833,202.5 244.5,202.5C 245.209,203.404 246.209,203.737 247.5,203.5C 248.167,203.5 248.5,203.833 248.5,204.5C 246.565,205.15 244.565,205.483 242.5,205.5C 243.833,204.5 243.833,203.5 242.5,202.5 Z"/></g>
</svg>
