<?xml version="1.0" encoding="UTF-8"?>
<!DOCTYPE svg PUBLIC "-//W3C//DTD SVG 1.1//EN" "http://www.w3.org/Graphics/SVG/1.1/DTD/svg11.dtd">
<svg xmlns="http://www.w3.org/2000/svg" version="1.1" width="612px" height="408px" style="shape-rendering:geometricPrecision; text-rendering:geometricPrecision; image-rendering:optimizeQuality; fill-rule:evenodd; clip-rule:evenodd" xmlns:xlink="http://www.w3.org/1999/xlink">
<g><path style="opacity:0.078" fill="#fc9596" d="M 182.5,56.5 C 213.495,57.1825 244.495,57.5158 275.5,57.5C 275.918,58.2216 276.584,58.7216 277.5,59C 231.665,59.1673 185.998,59.6673 140.5,60.5C 140.167,60.5 139.833,60.5 139.5,60.5C 136.482,60.3354 133.482,60.502 130.5,61C 125.61,63.6121 120.61,65.9455 115.5,68C 112.878,70.9742 109.878,73.4742 106.5,75.5C 112.376,67.8091 120.043,62.6424 129.5,60C 132.471,59.2057 135.471,58.539 138.5,58C 153.191,57.7662 167.858,57.2662 182.5,56.5 Z"/></g>
<g><path style="opacity:0.106" fill="#fe999b" d="M 491.5,61.5 C 492.147,65.4807 494.481,67.814 498.5,68.5C 499.549,70.528 500.549,72.528 501.5,74.5C 500.833,74.5 500.167,74.5 499.5,74.5C 494.29,66.7199 486.956,62.2199 477.5,61C 446.675,60.0548 416.008,58.8881 385.5,57.5C 414.16,56.4977 442.827,56.331 471.5,57C 478.449,57.4222 485.116,58.9222 491.5,61.5 Z"/></g>
<g><path style="opacity:0.29" fill="#fdb1b1" d="M 275.5,57.5 C 283.019,57.175 290.352,57.5084 297.5,58.5C 291.491,58.3338 285.491,58.5005 279.5,59C 284.019,59.1753 288.353,59.6753 292.5,60.5C 241.833,60.5 191.167,60.5 140.5,60.5C 185.998,59.6673 231.665,59.1673 277.5,59C 276.584,58.7216 275.918,58.2216 275.5,57.5 Z"/></g>
<g><path style="opacity:0.113" fill="#ffacab" d="M 333.5,57.5 C 349.995,58.3315 366.662,58.8315 383.5,59C 368.328,59.1687 353.328,59.6687 338.5,60.5C 323.167,60.5 307.833,60.5 292.5,60.5C 288.353,59.6753 284.019,59.1753 279.5,59C 285.491,58.5005 291.491,58.3338 297.5,58.5C 309.48,57.6617 321.48,57.3283 333.5,57.5 Z"/></g>
<g><path style="opacity:0.216" fill="#fc9fa0" d="M 333.5,57.5 C 350.833,57.5 368.167,57.5 385.5,57.5C 416.008,58.8881 446.675,60.0548 477.5,61C 486.956,62.2199 494.29,66.7199 499.5,74.5C 496.588,72.9337 493.921,70.9337 491.5,68.5C 489.293,67.3652 486.96,66.6985 484.5,66.5C 483.025,64.5905 481.025,63.4238 478.5,63C 475.173,62.3897 471.839,61.8897 468.5,61.5C 425.337,60.5013 382.003,60.168 338.5,60.5C 353.328,59.6687 368.328,59.1687 383.5,59C 366.662,58.8315 349.995,58.3315 333.5,57.5 Z"/></g>
<g><path style="opacity:0.254" fill="#fbb3b4" d="M 139.5,60.5 C 139.833,60.5 140.167,60.5 140.5,60.5C 191.167,60.5 241.833,60.5 292.5,60.5C 307.833,60.5 323.167,60.5 338.5,60.5C 382.003,60.168 425.337,60.5013 468.5,61.5C 359.665,61.1672 250.999,61.5005 142.5,62.5C 139.478,62.804 136.478,63.304 133.5,64C 130.848,64.353 128.848,65.5197 127.5,67.5C 126.5,67.5 125.5,67.5 124.5,67.5C 125.343,65.8267 126.676,64.66 128.5,64C 132.427,63.2756 136.094,62.109 139.5,60.5 Z"/></g>
<g><path style="opacity:0.451" fill="#fec0c0" d="M 142.5,62.5 C 250.999,61.5005 359.665,61.1672 468.5,61.5C 471.839,61.8897 475.173,62.3897 478.5,63C 481.025,63.4238 483.025,64.5905 484.5,66.5C 479.963,66.1156 475.629,64.9489 471.5,63C 361.834,62.5 252.167,62.3333 142.5,62.5 Z"/></g>
<g><path style="opacity:1" fill="#fedbdb" d="M 142.5,62.5 C 252.167,62.3333 361.834,62.5 471.5,63C 475.629,64.9489 479.963,66.1156 484.5,66.5C 486.96,66.6985 489.293,67.3652 491.5,68.5C 493.921,70.9337 496.588,72.9337 499.5,74.5C 503.257,80.3505 507.257,86.0171 511.5,91.5C 511.704,94.5176 512.037,97.5176 512.5,100.5C 513.818,167.65 513.818,234.65 512.5,301.5C 512.823,236.471 512.489,171.471 511.5,106.5C 510.063,94.4031 504.73,84.2364 495.5,76C 491.671,73.5066 487.838,71.0066 484,68.5C 479.275,67.942 474.775,66.942 470.5,65.5C 360.334,64.3341 250.001,64.1674 139.5,65C 135.325,65.1854 131.325,66.0187 127.5,67.5C 128.848,65.5197 130.848,64.353 133.5,64C 136.478,63.304 139.478,62.804 142.5,62.5 Z"/></g>
<g><path style="opacity:1" fill="#fefaf8" d="M 269.5,65.5 C 334.332,66.3329 399.332,66.8329 464.5,67C 465.5,67.3333 466.5,67.6667 467.5,68C 452.837,68.4999 438.17,68.6666 423.5,68.5C 346.635,68.0363 269.801,68.0363 193,68.5C 177.5,68.1667 162,67.8333 146.5,67.5C 151.132,66.6717 155.798,66.1717 160.5,66C 196.832,65.5 233.165,65.3333 269.5,65.5 Z"/></g>
<g><path style="opacity:1" fill="#fef6f5" d="M 269.5,65.5 C 336.5,65.5 403.5,65.5 470.5,65.5C 474.775,66.942 479.275,67.942 484,68.5C 487.838,71.0066 491.671,73.5066 495.5,76C 504.73,84.2364 510.063,94.4031 511.5,106.5C 509.725,110.386 508.892,114.72 509,119.5C 508.824,115.312 508.324,111.312 507.5,107.5C 507.672,106.508 507.338,105.842 506.5,105.5C 505.761,99.0144 503.594,93.0144 500,87.5C 497.167,86 495,83.8333 493.5,81C 492.552,80.5172 491.552,80.3505 490.5,80.5C 487.132,79.1684 484.132,77.1684 481.5,74.5C 478.453,71.8095 474.787,70.4762 470.5,70.5C 454.833,69.8333 439.167,69.1667 423.5,68.5C 438.17,68.6666 452.837,68.4999 467.5,68C 466.5,67.6667 465.5,67.3333 464.5,67C 399.332,66.8329 334.332,66.3329 269.5,65.5 Z"/></g>
<g><path style="opacity:1" fill="#fef0f0" d="M 470.5,65.5 C 403.5,65.5 336.5,65.5 269.5,65.5C 233.165,65.3333 196.832,65.5 160.5,66C 155.798,66.1717 151.132,66.6717 146.5,67.5C 162,67.8333 177.5,68.1667 193,68.5C 269.801,68.0363 346.635,68.0363 423.5,68.5C 439.167,69.1667 454.833,69.8333 470.5,70.5C 359.166,70.3333 247.833,70.5 136.5,71C 130.359,73.2723 124.359,75.9389 118.5,79C 115.669,82.7985 112.835,86.6318 110,90.5C 109.023,92.74 108.523,95.0733 108.5,97.5C 105.593,99.3145 104.259,101.981 104.5,105.5C 103.503,123.326 103.17,141.326 103.5,159.5C 102.527,157.052 102.194,154.385 102.5,151.5C 102.175,135.256 102.509,119.089 103.5,103C 101.934,102.7 100.601,103.2 99.5,104.5C 100.787,101.302 101.453,97.9686 101.5,94.5C 106.749,82.2501 115.416,73.2501 127.5,67.5C 131.325,66.0187 135.325,65.1854 139.5,65C 250.001,64.1674 360.334,64.3341 470.5,65.5 Z"/></g>
<g><path style="opacity:0.961" fill="#fed9da" d="M 470.5,70.5 C 474.787,70.4762 478.453,71.8095 481.5,74.5C 477.494,73.7779 473.494,72.9445 469.5,72C 358.832,71.1667 248.165,71.3333 137.5,72.5C 132.209,75.0966 126.876,77.5966 121.5,80C 116.535,85.4504 112.202,91.2838 108.5,97.5C 108.523,95.0733 109.023,92.74 110,90.5C 112.835,86.6318 115.669,82.7985 118.5,79C 124.359,75.9389 130.359,73.2723 136.5,71C 247.833,70.5 359.166,70.3333 470.5,70.5 Z"/></g>
<g><path style="opacity:0.66" fill="#fdbebf" d="M 481.5,74.5 C 484.132,77.1684 487.132,79.1684 490.5,80.5C 494.164,84.3322 497.664,88.3322 501,92.5C 503.222,97.9417 504.556,103.608 505,109.5C 505.5,171.832 505.667,234.166 505.5,296.5C 505.5,298.833 505.5,301.167 505.5,303.5C 505.167,303.5 504.833,303.5 504.5,303.5C 503.857,305.076 502.857,306.41 501.5,307.5C 501.66,305.801 501.494,304.134 501,302.5C 500.329,303.252 499.496,303.586 498.5,303.5C 498.833,302.833 499.167,302.167 499.5,301.5C 499.833,301.5 500.167,301.5 500.5,301.5C 501.833,301.5 502.5,300.833 502.5,299.5C 503.665,234.335 503.832,169.001 503,103.5C 500.887,100.067 499.22,96.4005 498,92.5C 495.525,90.2297 493.525,87.563 492,84.5C 489.838,82.5038 487.338,81.1705 484.5,80.5C 481.701,77.0582 478.034,75.3915 473.5,75.5C 473.389,74.8826 473.056,74.3826 472.5,74C 361.833,73.3333 251.167,73.3333 140.5,74C 135.757,75.1819 131.424,77.0153 127.5,79.5C 118.97,84.5306 113.304,91.8639 110.5,101.5C 109.222,101.782 108.222,102.449 107.5,103.5C 107.833,101.5 108.167,99.5 108.5,97.5C 112.202,91.2838 116.535,85.4504 121.5,80C 126.876,77.5966 132.209,75.0966 137.5,72.5C 248.165,71.3333 358.832,71.1667 469.5,72C 473.494,72.9445 477.494,73.7779 481.5,74.5 Z"/></g>
<g><path style="opacity:0.441" fill="#fca6a5" d="M 473.5,75.5 C 361.833,75.3333 250.166,75.5 138.5,76C 134.846,77.2738 131.18,78.4404 127.5,79.5C 131.424,77.0153 135.757,75.1819 140.5,74C 251.167,73.3333 361.833,73.3333 472.5,74C 473.056,74.3826 473.389,74.8826 473.5,75.5 Z"/></g>
<g><path style="opacity:0.231" fill="#fa9090" d="M 473.5,75.5 C 478.034,75.3915 481.701,77.0582 484.5,80.5C 484.557,81.609 484.89,82.609 485.5,83.5C 482.574,82.3024 479.574,81.3024 476.5,80.5C 475.064,79.5714 473.731,78.4048 472.5,77C 415.153,76.1951 357.82,76.3617 300.5,77.5C 293.633,77.7388 286.8,77.4055 280,76.5C 232.185,77.3214 184.351,77.8214 136.5,78C 132.921,79.7536 129.254,81.2536 125.5,82.5C 124.325,85.5154 122.158,87.5154 119,88.5C 115.391,94.3862 112.891,100.72 111.5,107.5C 110.335,172.332 110.168,237.332 111,302.5C 112.216,304.962 112.882,307.629 113,310.5C 113.383,311.056 113.883,311.389 114.5,311.5C 117.647,313.791 120.48,316.458 123,319.5C 123.707,321.081 124.54,322.581 125.5,324C 128.648,325.076 131.648,326.409 134.5,328C 146.761,330.826 159.094,330.993 171.5,328.5C 183.815,329.315 196.148,329.649 208.5,329.5C 185.858,331.49 162.858,332.156 139.5,331.5C 138.167,331.5 136.833,331.5 135.5,331.5C 130.93,329.743 126.597,327.41 122.5,324.5C 119.47,319.808 115.803,315.808 111.5,312.5C 110.99,309.461 110.323,306.461 109.5,303.5C 109.177,236.138 109.51,168.804 110.5,101.5C 113.304,91.8639 118.97,84.5306 127.5,79.5C 131.18,78.4404 134.846,77.2738 138.5,76C 250.166,75.5 361.833,75.3333 473.5,75.5 Z"/></g>
<g><path style="opacity:0.482" fill="#e97170" d="M 491.5,61.5 C 501.427,65.6208 509.093,72.2874 514.5,81.5C 513.85,81.8039 513.183,82.1373 512.5,82.5C 511.735,81.3881 510.735,80.7214 509.5,80.5C 507.5,79.024 505.833,77.1906 504.5,75C 503.552,74.5172 502.552,74.3505 501.5,74.5C 500.549,72.528 499.549,70.528 498.5,68.5C 494.481,67.814 492.147,65.4807 491.5,61.5 Z"/></g>
<g><path style="opacity:0.412" fill="#d75a5a" d="M 115.5,60.5 C 115.617,62.4835 114.95,64.1502 113.5,65.5C 108.391,70.6964 103.057,75.6964 97.5,80.5C 94.2632,87.1999 91.5966,94.1999 89.5,101.5C 89.2528,102.713 88.5862,103.38 87.5,103.5C 89.5703,84.3413 98.9036,70.0079 115.5,60.5 Z"/></g>
<g><path style="opacity:0.098" fill="#fa615b" d="M 339.5,78.5 C 378.032,77.743 416.699,77.743 455.5,78.5C 444.338,79.4028 433.005,80.0694 421.5,80.5C 394.173,79.552 366.84,78.8853 339.5,78.5 Z"/></g>
<g><path style="opacity:0.075" fill="#f88181" d="M 476.5,80.5 C 469.525,79.6686 462.525,79.0019 455.5,78.5C 416.699,77.743 378.032,77.743 339.5,78.5C 326.5,78.5 313.5,78.5 300.5,78.5C 300.5,78.1667 300.5,77.8333 300.5,77.5C 357.82,76.3617 415.153,76.1951 472.5,77C 473.731,78.4048 475.064,79.5714 476.5,80.5 Z"/></g>
<g><path style="opacity:0.361" fill="#f47270" d="M 300.5,77.5 C 300.5,77.8333 300.5,78.1667 300.5,78.5C 278.492,78.927 256.492,79.5937 234.5,80.5C 226.513,80.8533 220.013,80.1866 215,78.5C 193.198,78.5079 171.365,78.6746 149.5,79C 150.056,79.3826 150.389,79.8826 150.5,80.5C 139.422,78.8049 129.922,81.8049 122,89.5C 120.721,94.7246 118.388,99.3913 115,103.5C 114.472,119.18 113.638,134.846 112.5,150.5C 111.63,136.186 111.297,121.853 111.5,107.5C 112.891,100.72 115.391,94.3862 119,88.5C 122.158,87.5154 124.325,85.5154 125.5,82.5C 129.254,81.2536 132.921,79.7536 136.5,78C 184.351,77.8214 232.185,77.3214 280,76.5C 286.8,77.4055 293.633,77.7388 300.5,77.5 Z"/></g>
<g><path style="opacity:0.161" fill="#ed5f5d" d="M 234.5,80.5 C 216.005,81.4794 197.339,82.1461 178.5,82.5C 169.051,82.6474 159.718,81.9808 150.5,80.5C 150.389,79.8826 150.056,79.3826 149.5,79C 171.365,78.6746 193.198,78.5079 215,78.5C 220.013,80.1866 226.513,80.8533 234.5,80.5 Z"/></g>
<g><path style="opacity:0.945" fill="#fa9ea0" d="M 499.5,74.5 C 500.167,74.5 500.833,74.5 501.5,74.5C 502.552,74.3505 503.552,74.5172 504.5,75C 505.833,77.1906 507.5,79.024 509.5,80.5C 510.164,83.6779 511.664,86.3446 514,88.5C 514.497,90.8098 514.663,93.1432 514.5,95.5C 513.978,93.7809 512.978,92.4475 511.5,91.5C 507.257,86.0171 503.257,80.3505 499.5,74.5 Z"/></g>
<g><path style="opacity:1" fill="#fef8f5" d="M 102.5,151.5 C 101.335,198.332 101.168,245.332 102,292.5C 102.012,297.788 102.845,302.788 104.5,307.5C 106.383,313.517 109.717,318.517 114.5,322.5C 115.922,323.925 117.589,324.925 119.5,325.5C 122.504,327.186 125.17,329.186 127.5,331.5C 130.596,333.715 133.929,335.381 137.5,336.5C 142.305,337.487 147.305,337.821 152.5,337.5C 154.948,338.473 157.615,338.806 160.5,338.5C 152.325,340.099 143.992,340.433 135.5,339.5C 130.666,338.92 125.999,337.92 121.5,336.5C 108.393,326.978 100.893,313.978 99,297.5C 98.168,232.999 98.3346,168.665 99.5,104.5C 100.601,103.2 101.934,102.7 103.5,103C 102.509,119.089 102.175,135.256 102.5,151.5 Z"/></g>
<g><path style="opacity:1" fill="#fed7d7" d="M 108.5,97.5 C 108.167,99.5 107.833,101.5 107.5,103.5C 106.566,104.568 106.232,105.901 106.5,107.5C 105.501,170.331 105.168,233.331 105.5,296.5C 104.501,233.002 104.168,169.336 104.5,105.5C 104.259,101.981 105.593,99.3145 108.5,97.5 Z"/></g>
<g><path style="opacity:1" fill="#fec7c8" d="M 124.5,67.5 C 125.5,67.5 126.5,67.5 127.5,67.5C 115.416,73.2501 106.749,82.2501 101.5,94.5C 99.672,97.135 98.5053,100.135 98,103.5C 97.5005,109.825 97.3338,116.158 97.5,122.5C 96.501,180.664 96.1676,238.998 96.5,297.5C 95.5009,234.336 95.1676,171.002 95.5,107.5C 95.6744,104.126 96.1744,100.793 97,97.5C 101.453,86.0346 108.62,76.5346 118.5,69C 120.436,68.187 122.436,67.687 124.5,67.5 Z"/></g>
<g><path style="opacity:1" fill="#fcb3b5" d="M 515.5,103.5 C 516.499,169.998 516.832,236.665 516.5,303.5C 515.514,308.149 514.514,312.816 513.5,317.5C 508.766,323.413 503.766,329.246 498.5,335C 495.279,337.057 491.946,338.891 488.5,340.5C 491.473,338.194 494.14,335.527 496.5,332.5C 500.757,329.749 504.59,326.416 508,322.5C 509.715,315.952 511.882,309.618 514.5,303.5C 515.499,237.002 515.832,170.335 515.5,103.5 Z"/></g>
<g><path style="opacity:0.903" fill="#fcb9b8" d="M 107.5,103.5 C 107.333,168.501 107.5,233.501 108,298.5C 108.198,300.382 108.698,302.048 109.5,303.5C 110.323,306.461 110.99,309.461 111.5,312.5C 110.312,310.054 108.979,307.72 107.5,305.5C 106.517,239.519 106.184,173.519 106.5,107.5C 106.232,105.901 106.566,104.568 107.5,103.5 Z"/></g>
<g><path style="opacity:1" fill="#fff4f3" d="M 511.5,106.5 C 512.489,171.471 512.823,236.471 512.5,301.5C 512.167,301.5 511.833,301.5 511.5,301.5C 511.932,243.818 511.432,186.152 510,128.5C 509.667,184.167 509.333,239.833 509,295.5C 509.053,298.675 508.22,301.342 506.5,303.5C 507.493,238.208 507.826,172.875 507.5,107.5C 508.324,111.312 508.824,115.312 509,119.5C 508.892,114.72 509.725,110.386 511.5,106.5 Z"/></g>
<g><path style="opacity:1" fill="#fee5e4" d="M 506.5,105.5 C 507.338,105.842 507.672,106.508 507.5,107.5C 507.826,172.875 507.493,238.208 506.5,303.5C 506.167,303.5 505.833,303.5 505.5,303.5C 505.5,301.167 505.5,298.833 505.5,296.5C 506.499,233.002 506.832,169.336 506.5,105.5 Z"/></g>
<g><path style="opacity:1" fill="#fed7d8" d="M 490.5,80.5 C 491.552,80.3505 492.552,80.5172 493.5,81C 495,83.8333 497.167,86 500,87.5C 503.594,93.0144 505.761,99.0144 506.5,105.5C 506.832,169.336 506.499,233.002 505.5,296.5C 505.667,234.166 505.5,171.832 505,109.5C 504.556,103.608 503.222,97.9417 501,92.5C 497.664,88.3322 494.164,84.3322 490.5,80.5 Z"/></g>
<g><path style="opacity:0.213" fill="#ec6f6d" d="M 182.5,56.5 C 167.858,57.2662 153.191,57.7662 138.5,58C 135.471,58.539 132.471,59.2057 129.5,60C 120.043,62.6424 112.376,67.8091 106.5,75.5C 103.672,76.854 102.172,79.1873 102,82.5C 97.6101,86.6126 94.7768,91.6126 93.5,97.5C 92.4415,98.6002 91.6082,99.9336 91,101.5C 90.8078,128.863 90.3078,156.196 89.5,183.5C 88.6546,156.998 87.9879,130.331 87.5,103.5C 88.5862,103.38 89.2528,102.713 89.5,101.5C 91.5966,94.1999 94.2632,87.1999 97.5,80.5C 103.057,75.6964 108.391,70.6964 113.5,65.5C 114.95,64.1502 115.617,62.4835 115.5,60.5C 123.273,57.7439 131.273,55.9106 139.5,55C 154.027,54.2772 168.361,54.7772 182.5,56.5 Z"/></g>
<g><path style="opacity:0.522" fill="#e87171" d="M 271.5,133.5 C 261.817,135.504 257.484,141.504 258.5,151.5C 256.89,145.319 257.723,139.319 261,133.5C 264.488,128.272 267.988,128.272 271.5,133.5 Z"/></g>
<g><path style="opacity:0.263" fill="#f87878" d="M 490.5,88.5 C 495.111,92.1149 498.111,96.7816 499.5,102.5C 500.414,131.683 500.747,160.849 500.5,190C 499.912,216.996 499.245,243.83 498.5,270.5C 498.626,214.828 498.126,159.161 497,103.5C 493.382,99.1509 491.215,94.1509 490.5,88.5 Z"/></g>
<g><path style="opacity:0.9" fill="#fba7a8" d="M 484.5,80.5 C 487.338,81.1705 489.838,82.5038 492,84.5C 493.525,87.563 495.525,90.2297 498,92.5C 499.22,96.4005 500.887,100.067 503,103.5C 503.832,169.001 503.665,234.335 502.5,299.5C 502.832,234.998 502.499,170.665 501.5,106.5C 501.771,104.62 501.104,103.287 499.5,102.5C 498.111,96.7816 495.111,92.1149 490.5,88.5C 488.833,86.8333 487.167,85.1667 485.5,83.5C 484.89,82.609 484.557,81.609 484.5,80.5 Z"/></g>
<g><path style="opacity:1" fill="#fdc5c5" d="M 511.5,91.5 C 512.978,92.4475 513.978,93.7809 514.5,95.5C 514.833,98.1667 515.167,100.833 515.5,103.5C 515.832,170.335 515.499,237.002 514.5,303.5C 514.667,236.833 514.5,170.166 514,103.5C 513.768,102.263 513.268,101.263 512.5,100.5C 512.037,97.5176 511.704,94.5176 511.5,91.5 Z"/></g>
<g><path style="opacity:0.092" fill="#fdc5c5" d="M 278.5,136.5 C 287.983,140.679 296.649,146.012 304.5,152.5C 302.784,152.371 301.117,152.038 299.5,151.5C 291.659,147.747 283.993,143.747 276.5,139.5C 274.372,138.371 272.039,138.204 269.5,139C 268.295,140.376 266.962,141.542 265.5,142.5C 265.859,140.629 266.859,139.129 268.5,138C 272.025,137.821 275.359,137.321 278.5,136.5 Z"/></g>
<g><path style="opacity:1" fill="#fef9f7" d="M 511.5,301.5 C 510.165,305.305 509.332,309.305 509,313.5C 508.617,314.056 508.117,314.389 507.5,314.5C 505.547,315.905 504.547,315.239 504.5,312.5C 505.162,309.532 505.495,306.532 505.5,303.5C 505.833,303.5 506.167,303.5 506.5,303.5C 508.22,301.342 509.053,298.675 509,295.5C 509.333,239.833 509.667,184.167 510,128.5C 511.432,186.152 511.932,243.818 511.5,301.5 Z"/></g>
<g><path style="opacity:0.298" fill="#f58b8b" d="M 271.5,133.5 C 272.167,133.833 272.833,134.167 273.5,134.5C 270.977,135.384 268.31,136.218 265.5,137C 264.789,138.255 263.956,139.421 263,140.5C 261.661,147.138 260.161,153.471 258.5,159.5C 258.5,156.833 258.5,154.167 258.5,151.5C 257.484,141.504 261.817,135.504 271.5,133.5 Z"/></g>
<g><path style="opacity:1" fill="#feedeb" d="M 276.5,139.5 C 283.993,143.747 291.659,147.747 299.5,151.5C 303.418,154.352 307.418,157.019 311.5,159.5C 308.833,158.833 306.167,158.167 303.5,157.5C 303.281,158.675 303.614,159.675 304.5,160.5C 306.261,161.035 307.594,162.035 308.5,163.5C 303.148,160.205 297.481,157.371 291.5,155C 290.207,154.51 288.873,154.343 287.5,154.5C 285.887,152.912 283.887,151.912 281.5,151.5C 281.389,150.883 281.056,150.383 280.5,150C 277.518,149.502 274.518,149.335 271.5,149.5C 271.414,148.504 271.748,147.671 272.5,147C 277.993,145.642 282.827,146.809 287,150.5C 287.75,149.874 288.584,149.374 289.5,149C 284.281,146.207 278.948,143.707 273.5,141.5C 270.719,141.607 268.719,142.941 267.5,145.5C 266.333,187.496 266.167,229.496 267,271.5C 267.383,272.056 267.883,272.389 268.5,272.5C 268.937,274.074 269.937,275.241 271.5,276C 274.192,276.43 276.859,276.263 279.5,275.5C 277.437,278.02 274.77,278.853 271.5,278C 269.195,276.374 267.195,274.54 265.5,272.5C 265.5,271.833 265.5,271.167 265.5,270.5C 264.362,230.185 264.196,189.852 265,149.5C 265.919,142.744 269.752,139.411 276.5,139.5 Z"/></g>
<g><path style="opacity:1" fill="#fee3e0" d="M 101.5,94.5 C 101.453,97.9686 100.787,101.302 99.5,104.5C 98.3346,168.665 98.168,232.999 99,297.5C 100.893,313.978 108.393,326.978 121.5,336.5C 122.167,337.5 122.833,338.5 123.5,339.5C 121.405,338.588 119.405,337.421 117.5,336C 112.537,330.555 107.871,325.055 103.5,319.5C 103.167,319.5 102.833,319.5 102.5,319.5C 101.921,315.418 100.588,311.752 98.5,308.5C 97.5379,246.51 97.2046,184.51 97.5,122.5C 97.3338,116.158 97.5005,109.825 98,103.5C 98.5053,100.135 99.672,97.135 101.5,94.5 Z"/></g>
<g><path style="opacity:1" fill="#ffe5e7" d="M 104.5,105.5 C 104.168,169.336 104.501,233.002 105.5,296.5C 105.068,299.877 105.735,302.877 107.5,305.5C 108.417,311.75 110.75,317.417 114.5,322.5C 109.717,318.517 106.383,313.517 104.5,307.5C 103.533,258.181 103.2,208.848 103.5,159.5C 103.17,141.326 103.503,123.326 104.5,105.5 Z"/></g>
<g><path style="opacity:0.982" fill="#fdc6c7" d="M 106.5,107.5 C 106.184,173.519 106.517,239.519 107.5,305.5C 105.735,302.877 105.068,299.877 105.5,296.5C 105.168,233.331 105.501,170.331 106.5,107.5 Z"/></g>
<g><path style="opacity:0.202" fill="#f88685" d="M 509.5,80.5 C 510.735,80.7214 511.735,81.3881 512.5,82.5C 513.183,82.1373 513.85,81.8039 514.5,81.5C 516.961,86.551 518.627,91.8843 519.5,97.5C 520.202,106.161 520.868,114.828 521.5,123.5C 520.538,148.484 520.204,173.484 520.5,198.5C 519.834,204.491 519.5,210.657 519.5,217C 519.992,246.667 520.658,276.167 521.5,305.5C 521.5,306.167 521.5,306.833 521.5,307.5C 520.222,307.782 519.222,308.449 518.5,309.5C 518.833,241.665 518.499,173.998 517.5,106.5C 517.483,102.466 516.483,98.7994 514.5,95.5C 514.663,93.1432 514.497,90.8098 514,88.5C 511.664,86.3446 510.164,83.6779 509.5,80.5 Z"/></g>
<g><path style="opacity:1" fill="#fed4d3" d="M 97.5,122.5 C 97.2046,184.51 97.5379,246.51 98.5,308.5C 97.0966,305.091 96.4299,301.425 96.5,297.5C 96.1676,238.998 96.501,180.664 97.5,122.5 Z"/></g>
<g><path style="opacity:1" fill="#fff3f5" d="M 102.5,151.5 C 102.194,154.385 102.527,157.052 103.5,159.5C 103.2,208.848 103.533,258.181 104.5,307.5C 102.845,302.788 102.012,297.788 102,292.5C 101.168,245.332 101.335,198.332 102.5,151.5 Z"/></g>
<g><path style="opacity:0.49" fill="#fed8d7" d="M 299.5,151.5 C 301.117,152.038 302.784,152.371 304.5,152.5C 320.34,161.585 336.007,170.918 351.5,180.5C 344.884,178.902 338.55,176.402 332.5,173C 325.778,167.978 318.778,163.478 311.5,159.5C 307.418,157.019 303.418,154.352 299.5,151.5 Z"/></g>
<g><path style="opacity:0.979" fill="#fed1d3" d="M 271.5,149.5 C 274.518,149.335 277.518,149.502 280.5,150C 281.056,150.383 281.389,150.883 281.5,151.5C 278.549,151.287 275.882,151.954 273.5,153.5C 272.502,190.663 272.168,227.996 272.5,265.5C 271.501,227.337 271.168,189.004 271.5,150.5C 271.5,150.167 271.5,149.833 271.5,149.5 Z"/></g>
<g><path style="opacity:0.343" fill="#feb0b2" d="M 281.5,151.5 C 283.887,151.912 285.887,152.912 287.5,154.5C 290.968,156.307 293.968,158.64 296.5,161.5C 290.534,158.446 284.367,156.779 278,156.5C 277.667,157.5 277.333,158.5 277,159.5C 275.586,182.802 275.086,206.135 275.5,229.5C 273.509,204.522 272.843,179.189 273.5,153.5C 275.882,151.954 278.549,151.287 281.5,151.5 Z"/></g>
<g><path style="opacity:0.286" fill="#fedadc" d="M 287.5,154.5 C 288.873,154.343 290.207,154.51 291.5,155C 297.481,157.371 303.148,160.205 308.5,163.5C 314.863,168.015 321.53,172.015 328.5,175.5C 329.549,177.216 330.882,178.549 332.5,179.5C 320.752,173.108 308.752,167.108 296.5,161.5C 293.968,158.64 290.968,156.307 287.5,154.5 Z"/></g>
<g><path style="opacity:1" fill="#fefbf8" d="M 271.5,149.5 C 271.5,149.833 271.5,150.167 271.5,150.5C 270.566,151.568 270.232,152.901 270.5,154.5C 268.943,193.656 268.277,232.989 268.5,272.5C 267.883,272.389 267.383,272.056 267,271.5C 266.167,229.496 266.333,187.496 267.5,145.5C 268.719,142.941 270.719,141.607 273.5,141.5C 278.948,143.707 284.281,146.207 289.5,149C 288.584,149.374 287.75,149.874 287,150.5C 282.827,146.809 277.993,145.642 272.5,147C 271.748,147.671 271.414,148.504 271.5,149.5 Z"/></g>
<g><path style="opacity:0.996" fill="#fca6a9" d="M 514.5,95.5 C 516.483,98.7994 517.483,102.466 517.5,106.5C 517.832,172.335 517.499,238.002 516.5,303.5C 516.832,236.665 516.499,169.998 515.5,103.5C 515.167,100.833 514.833,98.1667 514.5,95.5 Z"/></g>
<g><path style="opacity:1" fill="#fcb5b4" d="M 95.5,107.5 C 95.1676,171.002 95.5009,234.336 96.5,297.5C 96.4299,301.425 97.0966,305.091 98.5,308.5C 100.588,311.752 101.921,315.418 102.5,319.5C 100.686,317.236 98.853,314.903 97,312.5C 96.5939,309.258 95.7605,306.258 94.5,303.5C 94.1675,237.998 94.5009,172.665 95.5,107.5 Z"/></g>
<g><path style="opacity:1" fill="#fdd5d5" d="M 512.5,100.5 C 513.268,101.263 513.768,102.263 514,103.5C 514.5,170.166 514.667,236.833 514.5,303.5C 511.882,309.618 509.715,315.952 508,322.5C 504.59,326.416 500.757,329.749 496.5,332.5C 496.557,331.391 496.89,330.391 497.5,329.5C 501.926,325.207 505.259,320.207 507.5,314.5C 508.117,314.389 508.617,314.056 509,313.5C 509.332,309.305 510.165,305.305 511.5,301.5C 511.833,301.5 512.167,301.5 512.5,301.5C 513.818,234.65 513.818,167.65 512.5,100.5 Z"/></g>
<g><path style="opacity:0.558" fill="#fcadae" d="M 273.5,134.5 C 275.05,135.441 276.716,136.107 278.5,136.5C 275.359,137.321 272.025,137.821 268.5,138C 266.859,139.129 265.859,140.629 265.5,142.5C 263.987,144.516 263.153,146.849 263,149.5C 262.333,186.167 262.333,222.833 263,259.5C 263.242,263.43 264.075,267.097 265.5,270.5C 265.5,271.167 265.5,271.833 265.5,272.5C 265.781,274.963 266.781,277.13 268.5,279C 271.476,279.705 274.142,280.871 276.5,282.5C 269.117,285.565 264.784,283.232 263.5,275.5C 262.992,270.784 262.158,266.118 261,261.5C 260.667,235.5 260.333,209.5 260,183.5C 259.617,182.944 259.117,182.611 258.5,182.5C 259.124,174.913 259.124,167.246 258.5,159.5C 260.161,153.471 261.661,147.138 263,140.5C 263.956,139.421 264.789,138.255 265.5,137C 268.31,136.218 270.977,135.384 273.5,134.5 Z"/></g>
<g><path style="opacity:0.999" fill="#fef5f4" d="M 311.5,159.5 C 318.778,163.478 325.778,167.978 332.5,173C 338.55,176.402 344.884,178.902 351.5,180.5C 353.886,182.394 355.886,184.728 357.5,187.5C 359.075,188.456 360.742,189.123 362.5,189.5C 361.866,190.947 360.699,191.613 359,191.5C 352.41,188.995 346.244,185.828 340.5,182C 337.715,181.342 335.049,180.509 332.5,179.5C 330.882,178.549 329.549,177.216 328.5,175.5C 321.53,172.015 314.863,168.015 308.5,163.5C 307.594,162.035 306.261,161.035 304.5,160.5C 303.614,159.675 303.281,158.675 303.5,157.5C 306.167,158.167 308.833,158.833 311.5,159.5 Z"/></g>
<g><path style="opacity:0.752" fill="#fca5a3" d="M 110.5,101.5 C 109.51,168.804 109.177,236.138 109.5,303.5C 108.698,302.048 108.198,300.382 108,298.5C 107.5,233.501 107.333,168.501 107.5,103.5C 108.222,102.449 109.222,101.782 110.5,101.5 Z"/></g>
<g><path style="opacity:1" fill="#fed0d0" d="M 276.5,139.5 C 269.752,139.411 265.919,142.744 265,149.5C 264.196,189.852 264.362,230.185 265.5,270.5C 264.075,267.097 263.242,263.43 263,259.5C 262.333,222.833 262.333,186.167 263,149.5C 263.153,146.849 263.987,144.516 265.5,142.5C 266.962,141.542 268.295,140.376 269.5,139C 272.039,138.204 274.372,138.371 276.5,139.5 Z"/></g>
<g><path style="opacity:0.173" fill="#fecfce" d="M 351.5,180.5 C 361.963,185.565 372.297,190.898 382.5,196.5C 384.947,198.685 387.447,201.018 390,203.5C 390.498,206.817 390.665,210.15 390.5,213.5C 388.795,215.192 386.795,216.525 384.5,217.5C 383.662,217.158 383.328,216.492 383.5,215.5C 388.185,213.846 389.685,210.513 388,205.5C 386.615,204.449 385.615,203.116 385,201.5C 377.606,197.265 370.106,193.265 362.5,189.5C 360.742,189.123 359.075,188.456 357.5,187.5C 355.886,184.728 353.886,182.394 351.5,180.5 Z"/></g>
<g><path style="opacity:0.949" fill="#fc989b" d="M 517.5,106.5 C 518.499,173.998 518.833,241.665 518.5,309.5C 516.833,312.167 515.167,314.833 513.5,317.5C 514.514,312.816 515.514,308.149 516.5,303.5C 517.499,238.002 517.832,172.335 517.5,106.5 Z"/></g>
<g><path style="opacity:0.506" fill="#fa9a9c" d="M 501.5,106.5 C 502.499,170.665 502.832,234.998 502.5,299.5C 502.5,300.833 501.833,301.5 500.5,301.5C 501.486,236.523 501.819,171.523 501.5,106.5 Z"/></g>
<g><path style="opacity:1" fill="#fee1e5" d="M 271.5,150.5 C 271.168,189.004 271.501,227.337 272.5,265.5C 275.256,267.212 278.256,267.712 281.5,267C 286.633,264.265 291.633,261.265 296.5,258C 297.793,257.51 299.127,257.343 300.5,257.5C 296.348,260.417 292.348,263.584 288.5,267C 285.285,267.274 282.619,268.607 280.5,271C 277.833,271.667 275.167,271.667 272.5,271C 271.874,270.25 271.374,269.416 271,268.5C 270.5,230.501 270.333,192.501 270.5,154.5C 270.232,152.901 270.566,151.568 271.5,150.5 Z"/></g>
<g><path style="opacity:0.226" fill="#f99c9a" d="M 382.5,196.5 C 386.882,197.46 390.716,199.46 394,202.5C 395.337,207.084 394.171,210.751 390.5,213.5C 390.665,210.15 390.498,206.817 390,203.5C 387.447,201.018 384.947,198.685 382.5,196.5 Z"/></g>
<g><path style="opacity:0.978" fill="#fef3f1" d="M 332.5,179.5 C 335.049,180.509 337.715,181.342 340.5,182C 346.244,185.828 352.41,188.995 359,191.5C 360.699,191.613 361.866,190.947 362.5,189.5C 370.106,193.265 377.606,197.265 385,201.5C 385.615,203.116 386.615,204.449 388,205.5C 389.685,210.513 388.185,213.846 383.5,215.5C 373.661,221.82 363.661,227.987 353.5,234C 352.748,234.671 352.414,235.504 352.5,236.5C 352.158,237.338 351.492,237.672 350.5,237.5C 348.801,237.34 347.134,237.506 345.5,238C 340.277,240.779 334.943,243.279 329.5,245.5C 328.5,245.167 327.5,244.833 326.5,244.5C 327.95,243.15 328.617,241.484 328.5,239.5C 328.5,238.833 328.833,238.5 329.5,238.5C 329.369,239.376 329.702,240.043 330.5,240.5C 346.688,231.821 362.522,222.488 378,212.5C 378.769,209.901 378.602,207.401 377.5,205C 371.084,199.811 364.084,195.644 356.5,192.5C 355.893,192.624 355.56,192.957 355.5,193.5C 347.631,189.07 339.964,184.403 332.5,179.5 Z"/></g>
<g><path style="opacity:0.908" fill="#fa9d9e" d="M 139.5,60.5 C 136.094,62.109 132.427,63.2756 128.5,64C 126.676,64.66 125.343,65.8267 124.5,67.5C 122.436,67.687 120.436,68.187 118.5,69C 108.62,76.5346 101.453,86.0346 97,97.5C 96.1744,100.793 95.6744,104.126 95.5,107.5C 94.5009,172.665 94.1675,237.998 94.5,303.5C 93.71,302.391 93.21,301.058 93,299.5C 92.5,234.834 92.3333,170.168 92.5,105.5C 92.5751,102.794 92.9084,100.127 93.5,97.5C 94.7768,91.6126 97.6101,86.6126 102,82.5C 102.172,79.1873 103.672,76.854 106.5,75.5C 109.878,73.4742 112.878,70.9742 115.5,68C 120.61,65.9455 125.61,63.6121 130.5,61C 133.482,60.502 136.482,60.3354 139.5,60.5 Z"/></g>
<g><path style="opacity:0.263" fill="#fedede" d="M 383.5,215.5 C 383.328,216.492 383.662,217.158 384.5,217.5C 373.869,223.819 363.202,230.152 352.5,236.5C 352.414,235.504 352.748,234.671 353.5,234C 363.661,227.987 373.661,221.82 383.5,215.5 Z"/></g>
<g><path style="opacity:0.141" fill="#fedcdc" d="M 355.5,193.5 C 355.56,192.957 355.893,192.624 356.5,192.5C 364.084,195.644 371.084,199.811 377.5,205C 378.602,207.401 378.769,209.901 378,212.5C 362.522,222.488 346.688,231.821 330.5,240.5C 329.702,240.043 329.369,239.376 329.5,238.5C 344.386,230.474 358.886,221.807 373,212.5C 374.301,210.635 374.635,208.635 374,206.5C 367.717,202.28 361.55,197.947 355.5,193.5 Z"/></g>
<g><path style="opacity:0.992" fill="#fee5e5" d="M 350.5,237.5 C 345.335,241.586 339.668,244.92 333.5,247.5C 332.749,246.427 331.749,246.26 330.5,247C 327.956,248.755 325.623,250.755 323.5,253C 322.552,253.483 321.552,253.649 320.5,253.5C 320.712,251.616 321.712,250.283 323.5,249.5C 323,249.167 322.5,248.833 322,248.5C 319.536,249.161 317.036,249.661 314.5,250C 311.167,252.499 307.501,254.332 303.5,255.5C 305.157,253.035 307.157,251.035 309.5,249.5C 315.668,245.915 322.001,242.582 328.5,239.5C 328.617,241.484 327.95,243.15 326.5,244.5C 327.5,244.833 328.5,245.167 329.5,245.5C 334.943,243.279 340.277,240.779 345.5,238C 347.134,237.506 348.801,237.34 350.5,237.5 Z"/></g>
<g><path style="opacity:0.225" fill="#f7878a" d="M 499.5,102.5 C 501.104,103.287 501.771,104.62 501.5,106.5C 501.819,171.523 501.486,236.523 500.5,301.5C 500.167,301.5 499.833,301.5 499.5,301.5C 499.284,291.162 498.951,280.829 498.5,270.5C 499.245,243.83 499.912,216.996 500.5,190C 500.747,160.849 500.414,131.683 499.5,102.5 Z"/></g>
<g><path style="opacity:0.076" fill="#fc9f9f" d="M 258.5,182.5 C 259.117,182.611 259.617,182.944 260,183.5C 260.333,209.5 260.667,235.5 261,261.5C 262.158,266.118 262.992,270.784 263.5,275.5C 261.166,270.661 259.499,265.495 258.5,260C 259.402,234.183 259.402,208.35 258.5,182.5 Z"/></g>
<g><path style="opacity:0.136" fill="#f57b7c" d="M 111.5,107.5 C 111.297,121.853 111.63,136.186 112.5,150.5C 112.477,199.836 112.81,249.17 113.5,298.5C 113.461,299.583 113.127,300.583 112.5,301.5C 113.802,304.708 114.469,308.041 114.5,311.5C 113.883,311.389 113.383,311.056 113,310.5C 112.882,307.629 112.216,304.962 111,302.5C 110.168,237.332 110.335,172.332 111.5,107.5 Z"/></g>
<g><path style="opacity:0.741" fill="#febfc0" d="M 273.5,153.5 C 272.843,179.189 273.509,204.522 275.5,229.5C 274.458,235.81 274.458,242.143 275.5,248.5C 274.357,251.976 274.19,255.642 275,259.5C 275.273,261.329 276.107,262.829 277.5,264C 284.925,263.135 291.592,260.302 297.5,255.5C 301.182,252.992 305.182,250.992 309.5,249.5C 307.157,251.035 305.157,253.035 303.5,255.5C 301.973,255.427 300.973,256.094 300.5,257.5C 299.127,257.343 297.793,257.51 296.5,258C 291.633,261.265 286.633,264.265 281.5,267C 278.256,267.712 275.256,267.212 272.5,265.5C 272.168,227.996 272.502,190.663 273.5,153.5 Z"/></g>
<g><path style="opacity:0.706" fill="#fdc7c7" d="M 333.5,247.5 C 325.19,253.468 316.857,259.468 308.5,265.5C 308.265,264.903 307.765,264.57 307,264.5C 304.846,265.274 302.679,265.941 300.5,266.5C 300.953,265.542 301.619,264.708 302.5,264C 307.964,261.309 313.298,258.642 318.5,256C 319.066,255.005 319.733,254.172 320.5,253.5C 321.552,253.649 322.552,253.483 323.5,253C 325.623,250.755 327.956,248.755 330.5,247C 331.749,246.26 332.749,246.427 333.5,247.5 Z"/></g>
<g><path style="opacity:1" fill="#fef4f5" d="M 270.5,154.5 C 270.333,192.501 270.5,230.501 271,268.5C 271.374,269.416 271.874,270.25 272.5,271C 275.167,271.667 277.833,271.667 280.5,271C 282.619,268.607 285.285,267.274 288.5,267C 292.348,263.584 296.348,260.417 300.5,257.5C 300.973,256.094 301.973,255.427 303.5,255.5C 307.501,254.332 311.167,252.499 314.5,250C 317.036,249.661 319.536,249.161 322,248.5C 322.5,248.833 323,249.167 323.5,249.5C 321.712,250.283 320.712,251.616 320.5,253.5C 319.733,254.172 319.066,255.005 318.5,256C 313.298,258.642 307.964,261.309 302.5,264C 301.619,264.708 300.953,265.542 300.5,266.5C 293.898,270.298 286.898,273.298 279.5,275.5C 276.859,276.263 274.192,276.43 271.5,276C 269.937,275.241 268.937,274.074 268.5,272.5C 268.277,232.989 268.943,193.656 270.5,154.5 Z"/></g>
<g><path style="opacity:0.375" fill="#fba5a7" d="M 275.5,248.5 C 275.335,251.85 275.502,255.183 276,258.5C 276.118,260.573 277.118,261.907 279,262.5C 285.085,259.862 291.252,257.528 297.5,255.5C 291.592,260.302 284.925,263.135 277.5,264C 276.107,262.829 275.273,261.329 275,259.5C 274.19,255.642 274.357,251.976 275.5,248.5 Z"/></g>
<g><path style="opacity:0.233" fill="#f36f6b" d="M 520.5,198.5 C 522.427,234.157 522.76,269.823 521.5,305.5C 520.658,276.167 519.992,246.667 519.5,217C 519.5,210.657 519.834,204.491 520.5,198.5 Z"/></g>
<g><path style="opacity:0.208" fill="#fdb9ba" d="M 308.5,265.5 C 298.722,272.724 288.055,278.391 276.5,282.5C 274.142,280.871 271.476,279.705 268.5,279C 266.781,277.13 265.781,274.963 265.5,272.5C 267.195,274.54 269.195,276.374 271.5,278C 274.77,278.853 277.437,278.02 279.5,275.5C 286.898,273.298 293.898,270.298 300.5,266.5C 302.679,265.941 304.846,265.274 307,264.5C 307.765,264.57 308.265,264.903 308.5,265.5 Z"/></g>
<g><path style="opacity:0.909" fill="#f37878" d="M 93.5,97.5 C 92.9084,100.127 92.5751,102.794 92.5,105.5C 91.3346,170.999 91.1679,236.665 92,302.5C 92.9407,306.478 93.7741,310.478 94.5,314.5C 96.1888,317.878 97.8554,321.211 99.5,324.5C 97.3757,322.941 95.709,320.941 94.5,318.5C 93.5832,317.873 92.5832,317.539 91.5,317.5C 91.5,317.167 91.5,316.833 91.5,316.5C 92.1239,316.083 92.4573,315.416 92.5,314.5C 90.8435,306.215 89.1768,298.215 87.5,290.5C 89.3274,254.841 89.9941,219.175 89.5,183.5C 90.3078,156.196 90.8078,128.863 91,101.5C 91.6082,99.9336 92.4415,98.6002 93.5,97.5 Z"/></g>
<g><path style="opacity:0.204" fill="#e16563" d="M 87.5,290.5 C 89.1768,298.215 90.8435,306.215 92.5,314.5C 92.4573,315.416 92.1239,316.083 91.5,316.5C 88.5144,308.212 87.1811,299.545 87.5,290.5 Z"/></g>
<g><path style="opacity:1" fill="#fdd0ce" d="M 107.5,305.5 C 108.979,307.72 110.312,310.054 111.5,312.5C 114.167,316.833 116.833,321.167 119.5,325.5C 117.589,324.925 115.922,323.925 114.5,322.5C 110.75,317.417 108.417,311.75 107.5,305.5 Z"/></g>
<g><path style="opacity:0.259" fill="#f77479" d="M 113.5,298.5 C 117.244,315.741 127.911,325.574 145.5,328C 154.16,328.5 162.827,328.666 171.5,328.5C 159.094,330.993 146.761,330.826 134.5,328C 131.648,326.409 128.648,325.076 125.5,324C 124.54,322.581 123.707,321.081 123,319.5C 120.48,316.458 117.647,313.791 114.5,311.5C 114.469,308.041 113.802,304.708 112.5,301.5C 113.127,300.583 113.461,299.583 113.5,298.5 Z"/></g>
<g><path style="opacity:0.992" fill="#f99193" d="M 92.5,105.5 C 92.3333,170.168 92.5,234.834 93,299.5C 93.21,301.058 93.71,302.391 94.5,303.5C 95.7605,306.258 96.5939,309.258 97,312.5C 98.853,314.903 100.686,317.236 102.5,319.5C 102.833,319.5 103.167,319.5 103.5,319.5C 103.338,321.527 103.505,323.527 104,325.5C 108.527,330.027 113.027,334.527 117.5,339C 122.561,341.53 127.561,344.03 132.5,346.5C 129.123,346.041 125.789,345.374 122.5,344.5C 113.232,339.558 105.565,332.891 99.5,324.5C 97.8554,321.211 96.1888,317.878 94.5,314.5C 93.7741,310.478 92.9407,306.478 92,302.5C 91.1679,236.665 91.3346,170.999 92.5,105.5 Z"/></g>
<g><path style="opacity:0.266" fill="#fcacae" d="M 501.5,307.5 C 499.718,311.064 497.884,314.731 496,318.5C 492.26,321.951 488.427,325.285 484.5,328.5C 480.047,330.149 475.713,331.983 471.5,334C 362.167,334.667 252.833,334.667 143.5,334C 140.478,333.902 137.811,333.068 135.5,331.5C 136.833,331.5 138.167,331.5 139.5,331.5C 199.999,332.665 260.665,332.832 321.5,332C 320.263,331.768 319.263,331.268 318.5,330.5C 320.5,330.5 322.5,330.5 324.5,330.5C 327.305,331.319 330.305,331.819 333.5,332C 365.542,332.819 397.542,332.652 429.5,331.5C 444.891,331.935 460.225,331.435 475.5,330C 482.937,327.204 489.437,323.037 495,317.5C 495.765,315.934 495.598,314.601 494.5,313.5C 496.935,310.626 498.269,307.293 498.5,303.5C 499.496,303.586 500.329,303.252 501,302.5C 501.494,304.134 501.66,305.801 501.5,307.5 Z"/></g>
<g><path style="opacity:0.697" fill="#fec5c6" d="M 504.5,303.5 C 504.66,305.199 504.494,306.866 504,308.5C 500.575,312.919 497.575,317.585 495,322.5C 491.229,325.959 487.395,329.292 483.5,332.5C 478.542,333.708 473.542,334.708 468.5,335.5C 358.499,335.667 248.499,335.5 138.5,335C 134.991,333.241 131.325,332.074 127.5,331.5C 125.17,329.186 122.504,327.186 119.5,325.5C 116.833,321.167 114.167,316.833 111.5,312.5C 115.803,315.808 119.47,319.808 122.5,324.5C 126.597,327.41 130.93,329.743 135.5,331.5C 137.811,333.068 140.478,333.902 143.5,334C 252.833,334.667 362.167,334.667 471.5,334C 475.713,331.983 480.047,330.149 484.5,328.5C 488.427,325.285 492.26,321.951 496,318.5C 497.884,314.731 499.718,311.064 501.5,307.5C 502.857,306.41 503.857,305.076 504.5,303.5 Z"/></g>
<g><path style="opacity:0.179" fill="#fc9c9c" d="M 419.5,329.5 C 422.833,330.167 426.167,330.833 429.5,331.5C 397.542,332.652 365.542,332.819 333.5,332C 330.305,331.819 327.305,331.319 324.5,330.5C 356.168,330.233 387.834,329.9 419.5,329.5 Z"/></g>
<g><path style="opacity:0.094" fill="#fd9898" d="M 208.5,329.5 C 245.167,329.787 281.834,330.12 318.5,330.5C 319.263,331.268 320.263,331.768 321.5,332C 260.665,332.832 199.999,332.665 139.5,331.5C 162.858,332.156 185.858,331.49 208.5,329.5 Z"/></g>
<g><path style="opacity:0.208" fill="#fa8989" d="M 494.5,313.5 C 495.598,314.601 495.765,315.934 495,317.5C 489.437,323.037 482.937,327.204 475.5,330C 460.225,331.435 444.891,331.935 429.5,331.5C 426.167,330.833 422.833,330.167 419.5,329.5C 437.233,329.78 454.899,328.946 472.5,327C 477.372,325.897 482.038,324.23 486.5,322C 490.048,319.953 492.715,317.12 494.5,313.5 Z"/></g>
<g><path style="opacity:0.953" fill="#fed6d8" d="M 127.5,331.5 C 131.325,332.074 134.991,333.241 138.5,335C 248.499,335.5 358.499,335.667 468.5,335.5C 358.335,336.499 248.001,336.833 137.5,336.5C 133.929,335.381 130.596,333.715 127.5,331.5 Z"/></g>
<g><path style="opacity:1" fill="#fef1f1" d="M 504.5,303.5 C 504.833,303.5 505.167,303.5 505.5,303.5C 505.495,306.532 505.162,309.532 504.5,312.5C 504.547,315.239 505.547,315.905 507.5,314.5C 505.259,320.207 501.926,325.207 497.5,329.5C 493.046,332.115 488.713,334.948 484.5,338C 481.647,339.43 478.647,340.263 475.5,340.5C 474.833,340.5 474.167,340.5 473.5,340.5C 473.918,339.778 474.584,339.278 475.5,339C 436.835,338.5 398.168,338.333 359.5,338.5C 293.167,338.5 226.833,338.5 160.5,338.5C 157.615,338.806 154.948,338.473 152.5,337.5C 258.167,337.667 363.834,337.5 469.5,337C 474.62,336.57 479.287,335.07 483.5,332.5C 487.395,329.292 491.229,325.959 495,322.5C 497.575,317.585 500.575,312.919 504,308.5C 504.494,306.866 504.66,305.199 504.5,303.5 Z"/></g>
<g><path style="opacity:0.914" fill="#d85b5a" d="M 521.5,307.5 C 520.297,319.242 515.797,329.576 508,338.5C 499.513,346.612 489.346,350.945 477.5,351.5C 478.833,350.5 480.167,349.5 481.5,348.5C 487.798,345.437 494.298,342.771 501,340.5C 501.561,338.275 502.561,336.275 504,334.5C 507.721,330.779 511.387,327.113 515,323.5C 516.405,318.914 517.572,314.247 518.5,309.5C 519.222,308.449 520.222,307.782 521.5,307.5 Z"/></g>
<g><path style="opacity:0.392" fill="#e36a6a" d="M 91.5,317.5 C 92.5832,317.539 93.5832,317.873 94.5,318.5C 95.709,320.941 97.3757,322.941 99.5,324.5C 105.565,332.891 113.232,339.558 122.5,344.5C 127.451,346.262 132.117,348.595 136.5,351.5C 114.936,348.581 99.9364,337.247 91.5,317.5 Z"/></g>
<g><path style="opacity:1" fill="#fee1e4" d="M 497.5,329.5 C 496.89,330.391 496.557,331.391 496.5,332.5C 492.957,335.506 488.957,338.006 484.5,340C 480.668,341.696 476.668,342.862 472.5,343.5C 360.833,343.667 249.166,343.5 137.5,343C 134.395,341.132 131.062,339.965 127.5,339.5C 126.5,339.5 125.5,339.5 124.5,339.5C 124.167,339.5 123.833,339.5 123.5,339.5C 122.833,338.5 122.167,337.5 121.5,336.5C 125.999,337.92 130.666,338.92 135.5,339.5C 136.514,340.674 137.847,341.34 139.5,341.5C 249.999,342.666 360.666,342.833 471.5,342C 473.058,341.79 474.391,341.29 475.5,340.5C 478.647,340.263 481.647,339.43 484.5,338C 488.713,334.948 493.046,332.115 497.5,329.5 Z"/></g>
<g><path style="opacity:1" fill="#fdb5b6" d="M 103.5,319.5 C 107.871,325.055 112.537,330.555 117.5,336C 119.405,337.421 121.405,338.588 123.5,339.5C 123.833,339.5 124.167,339.5 124.5,339.5C 127.135,341.823 130.135,343.656 133.5,345C 245.334,345.833 357.001,345.666 468.5,344.5C 470.099,344.768 471.432,344.434 472.5,343.5C 476.668,342.862 480.668,341.696 484.5,340C 488.957,338.006 492.957,335.506 496.5,332.5C 494.14,335.527 491.473,338.194 488.5,340.5C 486.199,341.06 483.866,341.56 481.5,342C 479.743,343.75 477.743,344.916 475.5,345.5C 363.184,346.49 250.851,346.823 138.5,346.5C 136.833,346.5 135.167,346.5 133.5,346.5C 133.167,346.5 132.833,346.5 132.5,346.5C 127.561,344.03 122.561,341.53 117.5,339C 113.027,334.527 108.527,330.027 104,325.5C 103.505,323.527 103.338,321.527 103.5,319.5 Z"/></g>
<g><path style="opacity:1" fill="#fec3c6" d="M 124.5,339.5 C 125.5,339.5 126.5,339.5 127.5,339.5C 130.16,341.497 133.16,342.997 136.5,344C 247.166,344.5 357.833,344.667 468.5,344.5C 357.001,345.666 245.334,345.833 133.5,345C 130.135,343.656 127.135,341.823 124.5,339.5 Z"/></g>
<g><path style="opacity:1" fill="#fed1d4" d="M 127.5,339.5 C 131.062,339.965 134.395,341.132 137.5,343C 249.166,343.5 360.833,343.667 472.5,343.5C 471.432,344.434 470.099,344.768 468.5,344.5C 357.833,344.667 247.166,344.5 136.5,344C 133.16,342.997 130.16,341.497 127.5,339.5 Z"/></g>
<g><path style="opacity:1" fill="#feeff0" d="M 473.5,340.5 C 474.167,340.5 474.833,340.5 475.5,340.5C 474.391,341.29 473.058,341.79 471.5,342C 360.666,342.833 249.999,342.666 139.5,341.5C 178.167,341.5 216.833,341.5 255.5,341.5C 328.189,341.821 400.856,341.487 473.5,340.5 Z"/></g>
<g><path style="opacity:1" fill="#fefafa" d="M 359.5,338.5 C 398.168,338.333 436.835,338.5 475.5,339C 474.584,339.278 473.918,339.778 473.5,340.5C 400.856,341.487 328.189,341.821 255.5,341.5C 289.988,339.835 324.655,338.835 359.5,338.5 Z"/></g>
<g><path style="opacity:1" fill="#fefaf9" d="M 160.5,338.5 C 226.833,338.5 293.167,338.5 359.5,338.5C 324.655,338.835 289.988,339.835 255.5,341.5C 216.833,341.5 178.167,341.5 139.5,341.5C 137.847,341.34 136.514,340.674 135.5,339.5C 143.992,340.433 152.325,340.099 160.5,338.5 Z"/></g>
<g><path style="opacity:1" fill="#fee5e6" d="M 483.5,332.5 C 479.287,335.07 474.62,336.57 469.5,337C 363.834,337.5 258.167,337.667 152.5,337.5C 147.305,337.821 142.305,337.487 137.5,336.5C 248.001,336.833 358.335,336.499 468.5,335.5C 473.542,334.708 478.542,333.708 483.5,332.5 Z"/></g>
<g><path style="opacity:1" fill="#f99192" d="M 513.5,317.5 C 512.36,319.78 511.193,322.114 510,324.5C 506.131,328.034 502.631,331.867 499.5,336C 494.903,338.974 490.236,341.974 485.5,345C 481.434,345.979 477.434,347.146 473.5,348.5C 361.334,349.832 249.334,349.832 137.5,348.5C 246.335,348.833 355.001,348.499 463.5,347.5C 467.817,347.917 471.817,347.25 475.5,345.5C 477.743,344.916 479.743,343.75 481.5,342C 483.866,341.56 486.199,341.06 488.5,340.5C 491.946,338.891 495.279,337.057 498.5,335C 503.766,329.246 508.766,323.413 513.5,317.5 Z"/></g>
<g><path style="opacity:0.388" fill="#f48081" d="M 518.5,309.5 C 517.572,314.247 516.405,318.914 515,323.5C 511.387,327.113 507.721,330.779 504,334.5C 502.561,336.275 501.561,338.275 501,340.5C 494.298,342.771 487.798,345.437 481.5,348.5C 479.146,348.838 476.813,349.338 474.5,350C 421.665,350.167 368.998,350.667 316.5,351.5C 256.694,350.176 197.027,350.176 137.5,351.5C 137.167,351.5 136.833,351.5 136.5,351.5C 132.117,348.595 127.451,346.262 122.5,344.5C 125.789,345.374 129.123,346.041 132.5,346.5C 132.833,346.5 133.167,346.5 133.5,346.5C 134.833,347.167 136.167,347.833 137.5,348.5C 249.334,349.832 361.334,349.832 473.5,348.5C 477.434,347.146 481.434,345.979 485.5,345C 490.236,341.974 494.903,338.974 499.5,336C 502.631,331.867 506.131,328.034 510,324.5C 511.193,322.114 512.36,319.78 513.5,317.5C 515.167,314.833 516.833,312.167 518.5,309.5 Z"/></g>
<g><path style="opacity:0.986" fill="#f99998" d="M 133.5,346.5 C 135.167,346.5 136.833,346.5 138.5,346.5C 246.665,347.499 354.999,347.833 463.5,347.5C 355.001,348.499 246.335,348.833 137.5,348.5C 136.167,347.833 134.833,347.167 133.5,346.5 Z"/></g>
<g><path style="opacity:1" fill="#fba6a6" d="M 475.5,345.5 C 471.817,347.25 467.817,347.917 463.5,347.5C 354.999,347.833 246.665,347.499 138.5,346.5C 250.851,346.823 363.184,346.49 475.5,345.5 Z"/></g>
<g><path style="opacity:0.075" fill="#f96b66" d="M 137.5,351.5 C 197.027,350.176 256.694,350.176 316.5,351.5C 317.791,351.263 318.791,351.596 319.5,352.5C 258.815,352.814 198.148,352.481 137.5,351.5 Z"/></g>
<g><path style="opacity:0.447" fill="#ef6f70" d="M 481.5,348.5 C 480.167,349.5 478.833,350.5 477.5,351.5C 461.1,353.048 444.6,353.715 428,353.5C 391.836,352.838 355.669,352.505 319.5,352.5C 318.791,351.596 317.791,351.263 316.5,351.5C 368.998,350.667 421.665,350.167 474.5,350C 476.813,349.338 479.146,348.838 481.5,348.5 Z"/></g>
</svg>
