<?xml version="1.0" encoding="UTF-8"?>
<!DOCTYPE svg PUBLIC "-//W3C//DTD SVG 1.1//EN" "http://www.w3.org/Graphics/SVG/1.1/DTD/svg11.dtd">
<svg xmlns="http://www.w3.org/2000/svg" version="1.1" width="500px" height="500px" style="shape-rendering:geometricPrecision; text-rendering:geometricPrecision; image-rendering:optimizeQuality; fill-rule:evenodd; clip-rule:evenodd" xmlns:xlink="http://www.w3.org/1999/xlink">
<g><path style="opacity:1" fill="#fefefe" d="M -0.5,-0.5 C 166.167,-0.5 332.833,-0.5 499.5,-0.5C 499.5,166.167 499.5,332.833 499.5,499.5C 332.833,499.5 166.167,499.5 -0.5,499.5C -0.5,454.833 -0.5,410.167 -0.5,365.5C 0.363622,366.688 1.36362,367.855 2.5,369C 27.1667,369.667 51.8333,369.667 76.5,369C 101.076,346.554 125.409,323.887 149.5,301C 150.448,300.517 151.448,300.351 152.5,300.5C 157.037,314.615 160.87,328.948 164,343.5C 166.335,351.852 169.169,360.018 172.5,368C 185.242,369.149 198.075,369.649 211,369.5C 223.167,369.167 235.333,368.833 247.5,368.5C 249.27,367.293 250.27,365.626 250.5,363.5C 225.333,285.813 200.333,208.146 175.5,130.5C 142.165,130.333 108.832,130.5 75.5,131C 64.8396,159.479 55.5063,188.313 47.5,217.5C 45.0246,218.687 44.0246,220.687 44.5,223.5C 29.4943,269.569 14.4943,315.569 -0.5,361.5C -0.5,240.833 -0.5,120.167 -0.5,-0.5 Z"/></g>
<g><path style="opacity:1" fill="#0a0a0a" d="M 256.5,218.5 C 260.437,218.207 264.27,218.54 268,219.5C 271.832,237.158 275.666,254.825 279.5,272.5C 276.482,272.665 273.482,272.498 270.5,272C 269.604,268.572 268.938,265.072 268.5,261.5C 264.167,261.5 259.833,261.5 255.5,261.5C 255.058,265.154 254.724,268.821 254.5,272.5C 251.5,272.5 248.5,272.5 245.5,272.5C 248.912,254.438 252.579,236.438 256.5,218.5 Z"/></g>
<g><path style="opacity:1" fill="#0b0b0b" d="M 284.5,218.5 C 287.448,218.223 290.281,218.556 293,219.5C 295.548,231.457 297.882,243.457 300,255.5C 302.931,243.247 305.431,230.913 307.5,218.5C 310.5,218.5 313.5,218.5 316.5,218.5C 312.668,236.155 308.835,253.821 305,271.5C 301.943,272.451 298.777,272.784 295.5,272.5C 291.832,254.496 288.166,236.496 284.5,218.5 Z"/></g>
<g><path style="opacity:1" fill="#0b0b0b" d="M 327.5,218.5 C 333.245,218.211 338.912,218.711 344.5,220C 345.667,221.167 346.833,222.333 348,223.5C 348.667,238.167 348.667,252.833 348,267.5C 347.07,269.552 345.57,271.052 343.5,272C 338.167,272.667 332.833,272.667 327.5,272C 325,270.833 323.167,269 322,266.5C 321.333,252.833 321.333,239.167 322,225.5C 322.967,222.379 324.8,220.046 327.5,218.5 Z"/></g>
<g><path style="opacity:1" fill="#0b0b0b" d="M 373.5,245.5 C 373.369,246.376 373.702,247.043 374.5,247.5C 375.498,238.19 375.832,228.857 375.5,219.5C 378.23,218.183 381.063,218.183 384,219.5C 384.667,236.833 384.667,254.167 384,271.5C 381,272.833 378,272.833 375,271.5C 372.064,262.026 368.731,252.692 365,243.5C 364.5,253.161 364.334,262.828 364.5,272.5C 361.5,272.5 358.5,272.5 355.5,272.5C 355.5,254.5 355.5,236.5 355.5,218.5C 358.5,218.5 361.5,218.5 364.5,218.5C 367.295,227.551 370.295,236.551 373.5,245.5 Z"/></g>
<g><path style="opacity:1" fill="#c6f3b2" d="M 47.5,217.5 C 46.4918,219.544 45.4918,221.544 44.5,223.5C 44.0246,220.687 45.0246,218.687 47.5,217.5 Z"/></g>
<g><path style="opacity:1" fill="#ebebeb" d="M 331.5,227.5 C 334.448,227.223 337.281,227.556 340,228.5C 340.82,240.076 340.654,251.576 339.5,263C 336.571,263.777 333.737,263.61 331,262.5C 330.189,250.757 330.356,239.091 331.5,227.5 Z"/></g>
<g><path style="opacity:1" fill="#696969" d="M 375.5,219.5 C 375.832,228.857 375.498,238.19 374.5,247.5C 373.702,247.043 373.369,246.376 373.5,245.5C 374.167,236.833 374.833,228.167 375.5,219.5 Z"/></g>
<g><path style="opacity:1" fill="#eaeaea" d="M 265.5,249.5 C 265.5,250.833 265.5,252.167 265.5,253.5C 262.612,254.01 260.279,253.344 258.5,251.5C 259.155,244.752 260.321,238.086 262,231.5C 263.742,237.375 264.908,243.375 265.5,249.5 Z"/></g>
<g><path style="opacity:1" fill="#787878" d="M 265.5,249.5 C 266.451,250.919 266.784,252.585 266.5,254.5C 263.5,254.5 260.5,254.5 257.5,254.5C 257.263,253.209 257.596,252.209 258.5,251.5C 260.279,253.344 262.612,254.01 265.5,253.5C 265.5,252.167 265.5,250.833 265.5,249.5 Z"/></g>
<g><path style="opacity:1" fill="#1d1d1d" d="M 363.5,288.5 C 373.024,287.732 375.691,291.565 371.5,300C 363.243,302.96 359.743,300.127 361,291.5C 362.045,290.627 362.878,289.627 363.5,288.5 Z"/></g>
<g><path style="opacity:1" fill="#7d7d7d" d="M 320.5,288.5 C 319.833,291.5 319.167,294.5 318.5,297.5C 318.18,294.102 318.513,290.768 319.5,287.5C 320.107,287.624 320.44,287.957 320.5,288.5 Z"/></g>
<g><path style="opacity:1" fill="#efefef" d="M 364.5,289.5 C 371.745,289.555 373.745,292.722 370.5,299C 365.643,300.753 362.643,299.253 361.5,294.5C 362.092,292.577 363.092,290.911 364.5,289.5 Z"/></g>
<g><path style="opacity:1" fill="#262626" d="M 292.5,288.5 C 295.518,288.335 298.518,288.502 301.5,289C 305.032,292.39 305.366,296.057 302.5,300C 299.312,301.316 295.978,301.816 292.5,301.5C 292.5,297.167 292.5,292.833 292.5,288.5 Z"/></g>
<g><path style="opacity:1" fill="#f0f0f0" d="M 294.5,289.5 C 302.361,289.149 304.694,292.316 301.5,299C 299.19,299.497 296.857,299.663 294.5,299.5C 294.5,296.167 294.5,292.833 294.5,289.5 Z"/></g>
<g><path style="opacity:1" fill="#1f1f1f" d="M 396.5,288.5 C 398.924,288.192 401.257,288.526 403.5,289.5C 401.657,289.755 399.657,289.922 397.5,290C 397.043,290.414 396.709,290.914 396.5,291.5C 398.003,293.422 400.003,294.588 402.5,295C 405.498,298.818 404.498,300.984 399.5,301.5C 397.519,301.563 395.852,300.896 394.5,299.5C 396.987,299.218 399.653,299.218 402.5,299.5C 402.67,298.178 402.337,297.011 401.5,296C 396.308,295.664 394.641,293.164 396.5,288.5 Z"/></g>
<g><path style="opacity:1" fill="#272727" d="M 259.5,288.5 C 262.572,288.183 265.572,288.516 268.5,289.5C 269.983,292.411 269.65,295.078 267.5,297.5C 269.771,302.527 269.104,302.694 265.5,298C 263.866,297.506 262.199,297.34 260.5,297.5C 259.118,297.683 258.785,294.683 259.5,288.5 Z"/></g>
<g><path style="opacity:1" fill="#eaeaea" d="M 260.5,289.5 C 263.908,288.828 266.575,289.828 268.5,292.5C 266.582,295.106 263.916,296.106 260.5,295.5C 260.5,293.5 260.5,291.5 260.5,289.5 Z"/></g>
<g><path style="opacity:1" fill="#262626" d="M 277.5,288.5 C 286.805,287.951 289.472,291.785 285.5,300C 279.162,303.224 275.162,301.391 273.5,294.5C 274.347,292.129 275.68,290.129 277.5,288.5 Z"/></g>
<g><path style="opacity:1" fill="#ececec" d="M 278.5,289.5 C 285.807,289.606 287.807,292.773 284.5,299C 275.219,300.234 273.219,297.067 278.5,289.5 Z"/></g>
<g><path style="opacity:1" fill="#424242" d="M 353.5,287.5 C 354.805,289.397 355.471,291.731 355.5,294.5C 355.167,296.833 354.833,299.167 354.5,301.5C 353.507,296.88 353.173,292.214 353.5,287.5 Z"/></g>
<g><path style="opacity:1" fill="#8d8d8d" d="M 388.5,288.5 C 388.56,287.957 388.893,287.624 389.5,287.5C 390.812,292.318 390.812,296.985 389.5,301.5C 389.818,296.968 389.485,292.634 388.5,288.5 Z"/></g>
<g><path style="opacity:1" fill="#41ba15" d="M -0.5,365.5 C -0.5,364.167 -0.5,362.833 -0.5,361.5C 14.4943,315.569 29.4943,269.569 44.5,223.5C 45.4918,221.544 46.4918,219.544 47.5,217.5C 55.5063,188.313 64.8396,159.479 75.5,131C 108.832,130.5 142.165,130.333 175.5,130.5C 200.333,208.146 225.333,285.813 250.5,363.5C 250.27,365.626 249.27,367.293 247.5,368.5C 235.333,368.833 223.167,369.167 211,369.5C 198.075,369.649 185.242,369.149 172.5,368C 169.169,360.018 166.335,351.852 164,343.5C 160.87,328.948 157.037,314.615 152.5,300.5C 151.448,300.351 150.448,300.517 149.5,301C 125.409,323.887 101.076,346.554 76.5,369C 51.8333,369.667 27.1667,369.667 2.5,369C 1.36362,367.855 0.363622,366.688 -0.5,365.5 Z"/></g>
<g><path style="opacity:1" fill="#fdfefd" d="M 167.5,143.5 C 190.323,213.975 212.99,284.642 235.5,355.5C 217.53,357.487 199.197,358.154 180.5,357.5C 166.624,310.283 152.958,262.95 139.5,215.5C 139.326,212.126 138.826,208.793 138,205.5C 137.292,204.619 136.458,203.953 135.5,203.5C 133.868,196.532 132.035,189.532 130,182.5C 129.329,181.748 128.496,181.414 127.5,181.5C 125.712,180.378 123.712,180.211 121.5,181C 120.748,181.671 120.414,182.504 120.5,183.5C 108.996,220.246 97.329,257.08 85.5,294C 85.4825,296.379 86.1491,298.546 87.5,300.5C 102.167,301.167 116.833,301.833 131.5,302.5C 111.685,320.791 91.6852,339.125 71.5,357.5C 52.5,357.5 33.5,357.5 14.5,357.5C 14.5,356.5 14.5,355.5 14.5,354.5C 36.8499,285.615 59.0165,216.615 81,147.5C 81.9344,146.142 82.7677,144.808 83.5,143.5C 111.5,142.167 139.5,142.167 167.5,143.5 Z"/></g>
<g><path style="opacity:1" fill="#71c450" d="M 99.5,287.5 C 115.466,289.485 131.799,290.152 148.5,289.5C 132.008,290.497 115.342,290.83 98.5,290.5C 98.2627,289.209 98.596,288.209 99.5,287.5 Z"/></g>
<g><path style="opacity:1" fill="#ebfddd" d="M 145.5,279.5 C 147.277,282.505 148.277,285.838 148.5,289.5C 131.799,290.152 115.466,289.485 99.5,287.5C 99.2627,286.209 99.596,285.209 100.5,284.5C 100.5,285.833 100.5,287.167 100.5,288.5C 116.17,288.667 131.837,288.5 147.5,288C 146.009,285.379 145.342,282.545 145.5,279.5 Z"/></g>
<g><path style="opacity:1" fill="#fcfdfa" d="M 145.5,279.5 C 145.342,282.545 146.009,285.379 147.5,288C 131.837,288.5 116.17,288.667 100.5,288.5C 100.5,287.167 100.5,285.833 100.5,284.5C 108.328,258.875 116.328,233.208 124.5,207.5C 132.508,231.208 139.508,255.208 145.5,279.5 Z"/></g>
<g><path style="opacity:1" fill="#d8f6c9" d="M 135.5,203.5 C 136.458,203.953 137.292,204.619 138,205.5C 138.826,208.793 139.326,212.126 139.5,215.5C 138.182,211.589 136.849,207.589 135.5,203.5 Z"/></g>
<g><path style="opacity:1" fill="#bbe9a5" d="M 127.5,181.5 C 124.812,181.166 122.479,181.832 120.5,183.5C 120.414,182.504 120.748,181.671 121.5,181C 123.712,180.211 125.712,180.378 127.5,181.5 Z"/></g>
<g><path style="opacity:1" fill="#eefee1" d="M 167.5,143.5 C 139.5,142.167 111.5,142.167 83.5,143.5C 97.1504,142.167 111.15,141.501 125.5,141.5C 139.85,141.501 153.85,142.167 167.5,143.5 Z"/></g>
<g><path style="opacity:1" fill="#282828" d="M 328.5,288.5 C 331.397,288.125 334.063,288.625 336.5,290C 334.189,289.845 331.856,289.845 329.5,290C 326.034,292.661 325.701,295.661 328.5,299C 330.899,299.711 333.232,299.544 335.5,298.5C 336.833,299.167 336.833,299.833 335.5,300.5C 329.511,302.855 325.844,300.855 324.5,294.5C 324.866,291.744 326.2,289.744 328.5,288.5 Z"/></g>
<g><path style="opacity:1" fill="#282828" d="M 339.5,289.5 C 345.565,288.166 347.565,288.166 345.5,289.5C 344.833,305.5 344.167,305.5 343.5,289.5C 342.167,289.5 340.833,289.5 339.5,289.5 Z"/></g>
<g><path style="opacity:1" fill="#212121" d="M 318.5,297.5 C 319.167,294.5 319.833,291.5 320.5,288.5C 320.665,291.85 320.498,295.183 320,298.5C 316.619,302.485 313.286,302.485 310,298.5C 309.512,285.248 310.012,285.248 311.5,298.5C 312.5,298.833 313.5,299.167 314.5,299.5C 316.355,299.66 317.688,298.993 318.5,297.5 Z"/></g>
<g><path style="opacity:1" fill="#313131" d="M 244.5,288.5 C 247.777,288.216 250.943,288.549 254,289.5C 255.489,295.701 252.989,298.368 246.5,297.5C 246.762,298.978 246.429,300.311 245.5,301.5C 244.508,297.217 244.174,292.884 244.5,288.5 Z"/></g>
<g><path style="opacity:1" fill="#f0f0f0" d="M 246.5,289.5 C 251.479,288.65 253.479,290.483 252.5,295C 250.527,295.495 248.527,295.662 246.5,295.5C 246.5,293.5 246.5,291.5 246.5,289.5 Z"/></g>
<g><path style="opacity:1" fill="#262626" d="M 388.5,288.5 C 389.485,292.634 389.818,296.968 389.5,301.5C 386.466,298.495 383.632,295.162 381,291.5C 380.824,294.882 380.324,298.215 379.5,301.5C 378.167,296.833 378.167,292.167 379.5,287.5C 382.806,290.767 385.639,294.433 388,298.5C 388.498,295.183 388.665,291.85 388.5,288.5 Z"/></g>
<g><path style="opacity:1" fill="#c7f0b2" d="M 14.5,354.5 C 14.5,355.5 14.5,356.5 14.5,357.5C 33.5,357.5 52.5,357.5 71.5,357.5C 52.3405,358.497 33.0072,358.83 13.5,358.5C 13.2322,356.901 13.5655,355.568 14.5,354.5 Z"/></g>
<g><path style="opacity:1" fill="#c8f1b5" d="M 235.5,355.5 C 236.404,356.209 236.737,357.209 236.5,358.5C 217.659,358.83 198.993,358.497 180.5,357.5C 199.197,358.154 217.53,357.487 235.5,355.5 Z"/></g>
</svg>
