<?xml version="1.0" encoding="UTF-8"?>
<!DOCTYPE svg PUBLIC "-//W3C//DTD SVG 1.1//EN" "http://www.w3.org/Graphics/SVG/1.1/DTD/svg11.dtd">
<svg xmlns="http://www.w3.org/2000/svg" version="1.1" width="500px" height="500px" style="shape-rendering:geometricPrecision; text-rendering:geometricPrecision; image-rendering:optimizeQuality; fill-rule:evenodd; clip-rule:evenodd" xmlns:xlink="http://www.w3.org/1999/xlink">
<g><path style="opacity:1" fill="#fefefe" d="M -0.5,-0.5 C 166.167,-0.5 332.833,-0.5 499.5,-0.5C 499.5,166.167 499.5,332.833 499.5,499.5C 332.833,499.5 166.167,499.5 -0.5,499.5C -0.5,332.833 -0.5,166.167 -0.5,-0.5 Z"/></g>
<g><path style="opacity:1" fill="#060606" d="M 303.5,204.5 C 301.833,204.5 300.167,204.5 298.5,204.5C 298.5,202.833 298.5,201.167 298.5,199.5C 302.545,176.851 297.711,156.518 284,138.5C 283.833,139 283.667,139.5 283.5,140C 286.342,145.208 288.342,150.708 289.5,156.5C 289.565,159.428 290.232,162.095 291.5,164.5C 291.5,173.5 291.5,182.5 291.5,191.5C 290.554,194.717 289.221,197.884 287.5,201C 288.348,203.77 288.681,206.603 288.5,209.5C 288.089,212.553 287.423,215.553 286.5,218.5C 290.915,221.271 294.748,224.605 298,228.5C 306.155,224.865 313.322,226.199 319.5,232.5C 321.327,234.487 322.327,236.821 322.5,239.5C 311.099,245.618 299.599,251.618 288,257.5C 285.755,256.863 283.588,256.03 281.5,255C 262.608,257.37 246.274,252.203 232.5,239.5C 231.854,235.247 233.52,232.414 237.5,231C 240.553,230.821 243.553,230.321 246.5,229.5C 249.909,223.794 254.909,221.961 261.5,224C 263.01,224.85 264.51,225.683 266,226.5C 268.086,223.907 270.586,221.907 273.5,220.5C 275.967,220.245 277.967,219.245 279.5,217.5C 280.341,213.802 281.341,210.136 282.5,206.5C 274.149,205.789 265.816,204.955 257.5,204C 250.434,201.767 245.434,197.267 242.5,190.5C 241.693,184.536 241.36,178.536 241.5,172.5C 241.42,169.219 242.087,166.219 243.5,163.5C 245.074,161.898 245.741,159.898 245.5,157.5C 247.055,154.06 248.888,150.727 251,147.5C 260.474,138.532 267.974,128.199 273.5,116.5C 286.069,124.29 297.736,133.29 308.5,143.5C 321.651,157.388 324.818,173.388 318,191.5C 314.867,197.802 310.034,202.135 303.5,204.5 Z"/></g>
<g><path style="opacity:1" fill="#545454" d="M 245.5,157.5 C 245.741,159.898 245.074,161.898 243.5,163.5C 243.259,161.102 243.926,159.102 245.5,157.5 Z"/></g>
<g><path style="opacity:1" fill="#5e5e5e" d="M 289.5,156.5 C 291.04,158.838 291.706,161.505 291.5,164.5C 290.232,162.095 289.565,159.428 289.5,156.5 Z"/></g>
<g><path style="opacity:1" fill="#929292" d="M 241.5,172.5 C 241.36,178.536 241.693,184.536 242.5,190.5C 241.778,190.082 241.278,189.416 241,188.5C 240.183,182.984 240.349,177.65 241.5,172.5 Z"/></g>
<g><path style="opacity:1" fill="#2b2b2b" d="M 291.5,191.5 C 291.561,197.804 290.561,203.804 288.5,209.5C 288.681,206.603 288.348,203.77 287.5,201C 289.221,197.884 290.554,194.717 291.5,191.5 Z"/></g>
<g><path style="opacity:1" fill="#7d7d7d" d="M 298.5,199.5 C 298.5,201.167 298.5,202.833 298.5,204.5C 300.167,204.5 301.833,204.5 303.5,204.5C 301.735,205.461 299.735,205.795 297.5,205.5C 297.205,203.265 297.539,201.265 298.5,199.5 Z"/></g>
<g><path style="opacity:1" fill="#7f7f7f" d="M 279.5,217.5 C 277.967,219.245 275.967,220.245 273.5,220.5C 275.033,218.755 277.033,217.755 279.5,217.5 Z"/></g>
<g><path style="opacity:1" fill="#666666" d="M 202.5,236.5 C 197.807,236.54 193.141,236.873 188.5,237.5C 191.017,236.027 193.85,235.36 197,235.5C 199.033,235.506 200.866,235.839 202.5,236.5 Z"/></g>
<g><path style="opacity:1" fill="#050505" d="M 202.5,236.5 C 210.036,239.228 217.036,242.894 223.5,247.5C 223.973,248.906 224.973,249.573 226.5,249.5C 229.223,251.885 232.223,253.885 235.5,255.5C 239.611,259.556 244.611,262.056 250.5,263C 257.5,263.333 264.5,263.667 271.5,264C 274.881,264.915 277.881,266.415 280.5,268.5C 280.702,270.95 280.369,273.283 279.5,275.5C 277.91,277.234 275.91,278.4 273.5,279C 259.5,279.667 245.5,279.667 231.5,279C 225.01,277.462 218.677,275.796 212.5,274C 218.545,280.689 225.879,285.356 234.5,288C 246.833,288.667 259.167,288.667 271.5,288C 284.652,285.681 290.985,277.848 290.5,264.5C 303.869,257.44 317.202,250.44 330.5,243.5C 341.998,239.559 347.165,243.559 346,255.5C 342.869,259.633 339.369,263.466 335.5,267C 330.545,269.57 325.878,272.404 321.5,275.5C 319.326,275.75 317.659,276.75 316.5,278.5C 313.46,279.68 310.794,281.347 308.5,283.5C 306.326,283.75 304.659,284.75 303.5,286.5C 289.756,294.211 276.09,302.211 262.5,310.5C 256.384,313.723 250.05,314.223 243.5,312C 229.488,306.666 215.488,301.333 201.5,296C 196.799,295.281 192.133,295.447 187.5,296.5C 183.079,298.792 178.912,301.459 175,304.5C 167.866,288.898 160.199,273.565 152,258.5C 151.023,256.26 150.523,253.927 150.5,251.5C 156.071,249.353 161.737,247.353 167.5,245.5C 169.967,245.245 171.967,244.245 173.5,242.5C 178.298,240.38 183.298,238.713 188.5,237.5C 193.141,236.873 197.807,236.54 202.5,236.5 Z"/></g>
<g><path style="opacity:1" fill="#5f5f5f" d="M 173.5,242.5 C 171.967,244.245 169.967,245.245 167.5,245.5C 169.033,243.755 171.033,242.755 173.5,242.5 Z"/></g>
<g><path style="opacity:1" fill="#747474" d="M 223.5,247.5 C 225.027,247.427 226.027,248.094 226.5,249.5C 224.973,249.573 223.973,248.906 223.5,247.5 Z"/></g>
<g><path style="opacity:1" fill="#ededed" d="M 232.5,239.5 C 246.274,252.203 262.608,257.37 281.5,255C 283.588,256.03 285.755,256.863 288,257.5C 299.599,251.618 311.099,245.618 322.5,239.5C 326.338,240.239 330.338,240.406 334.5,240C 332.051,240.725 329.717,241.725 327.5,243C 328.448,243.483 329.448,243.649 330.5,243.5C 317.202,250.44 303.869,257.44 290.5,264.5C 290.985,277.848 284.652,285.681 271.5,288C 259.167,288.667 246.833,288.667 234.5,288C 225.879,285.356 218.545,280.689 212.5,274C 218.677,275.796 225.01,277.462 231.5,279C 245.5,279.667 259.5,279.667 273.5,279C 275.91,278.4 277.91,277.234 279.5,275.5C 280.725,274.848 281.392,273.681 281.5,272C 281.486,270.615 281.152,269.449 280.5,268.5C 277.881,266.415 274.881,264.915 271.5,264C 264.5,263.667 257.5,263.333 250.5,263C 244.611,262.056 239.611,259.556 235.5,255.5C 237.094,255.92 238.594,256.586 240,257.5C 241.225,257.138 242.391,256.638 243.5,256C 243.167,255.667 242.833,255.333 242.5,255C 243.5,254.167 244.5,253.333 245.5,252.5C 242.687,249.856 239.354,248.356 235.5,248C 235.833,247.667 236.167,247.333 236.5,247C 232.974,245.387 231.641,242.887 232.5,239.5 Z"/></g>
<g><path style="opacity:1" fill="#5f5f5f" d="M 280.5,268.5 C 281.152,269.449 281.486,270.615 281.5,272C 281.392,273.681 280.725,274.848 279.5,275.5C 280.369,273.283 280.702,270.95 280.5,268.5 Z"/></g>
<g><path style="opacity:1" fill="#9a9a9a" d="M 321.5,275.5 C 320.514,277.408 318.848,278.408 316.5,278.5C 317.659,276.75 319.326,275.75 321.5,275.5 Z"/></g>
<g><path style="opacity:1" fill="#a1a1a1" d="M 308.5,283.5 C 307.514,285.408 305.848,286.408 303.5,286.5C 304.659,284.75 306.326,283.75 308.5,283.5 Z"/></g>
<g><path style="opacity:1" fill="#cdcdcd" d="M 243.5,368.5 C 242.833,341.833 242.167,341.833 241.5,368.5C 240.672,362.347 240.172,356.013 240,349.5C 237.01,352.021 234.176,352.021 231.5,349.5C 234.233,348.369 237.566,347.703 241.5,347.5C 244.167,347.833 246.833,348.167 249.5,348.5C 247.955,349.452 246.288,349.785 244.5,349.5C 244.823,356.022 244.49,362.355 243.5,368.5 Z"/></g>
<g><path style="opacity:1" fill="#2d2d2d" d="M 143.5,348.5 C 143.5,351.167 143.5,353.833 143.5,356.5C 143.5,356.833 143.5,357.167 143.5,357.5C 143.5,360.833 143.5,364.167 143.5,367.5C 143.5,367.833 143.5,368.167 143.5,368.5C 142.833,368.5 142.167,368.5 141.5,368.5C 140.874,361.416 141.541,354.75 143.5,348.5 Z"/></g>
<g><path style="opacity:1" fill="#9e9e9e" d="M 205.5,348.5 C 208.93,347.29 212.263,347.624 215.5,349.5C 213.167,349.5 210.833,349.5 208.5,349.5C 208.5,355.5 208.5,361.5 208.5,367.5C 212.453,368.019 215.453,366.686 217.5,363.5C 217.328,364.492 217.662,365.158 218.5,365.5C 217.942,366.79 216.942,367.623 215.5,368C 212.854,368.497 210.187,368.664 207.5,368.5C 208.126,361.416 207.459,354.75 205.5,348.5 Z"/></g>
<g><path style="opacity:1" fill="#2c2c2c" d="M 243.5,368.5 C 242.833,368.5 242.167,368.5 241.5,368.5C 242.167,341.833 242.833,341.833 243.5,368.5 Z"/></g>
<g><path style="opacity:1" fill="#525252" d="M 266.5,348.5 C 267.5,348.5 268.5,348.5 269.5,348.5C 269.5,355.167 269.5,361.833 269.5,368.5C 268.5,368.5 267.5,368.5 266.5,368.5C 266.5,361.833 266.5,355.167 266.5,348.5 Z"/></g>
<g><path style="opacity:1" fill="#979797" d="M 147.5,348.5 C 147.5,348.833 147.5,349.167 147.5,349.5C 146.167,349.167 144.833,348.833 143.5,348.5C 141.541,354.75 140.874,361.416 141.5,368.5C 140.509,361.687 140.175,354.687 140.5,347.5C 142.95,347.298 145.283,347.631 147.5,348.5 Z"/></g>
<g><path style="opacity:1" fill="#585858" d="M 188.5,347.5 C 189.5,347.5 190.5,347.5 191.5,347.5C 191.5,354.167 191.5,360.833 191.5,367.5C 194.187,367.336 196.854,367.503 199.5,368C 195.848,368.499 192.182,368.665 188.5,368.5C 188.5,361.5 188.5,354.5 188.5,347.5 Z"/></g>
<g><path style="opacity:1" fill="#2e2e2e" d="M 205.5,348.5 C 207.459,354.75 208.126,361.416 207.5,368.5C 205.541,362.25 204.874,355.584 205.5,348.5 Z"/></g>
<g><path style="opacity:1" fill="#f1f1f1" d="M 215.5,349.5 C 215.795,351.423 216.628,353.09 218,354.5C 218.736,357.592 218.569,360.592 217.5,363.5C 215.453,366.686 212.453,368.019 208.5,367.5C 208.5,361.5 208.5,355.5 208.5,349.5C 210.833,349.5 213.167,349.5 215.5,349.5 Z"/></g>
<g><path style="opacity:1" fill="#909090" d="M 257.5,348.5 C 255.541,354.75 254.874,361.416 255.5,368.5C 254.509,361.687 254.175,354.687 254.5,347.5C 255.791,347.263 256.791,347.596 257.5,348.5 Z"/></g>
<g><path style="opacity:1" fill="#8e8e8e" d="M 321.5,348.5 C 319.541,354.75 318.874,361.416 319.5,368.5C 318.509,361.687 318.175,354.687 318.5,347.5C 319.791,347.263 320.791,347.596 321.5,348.5 Z"/></g>
<g><path style="opacity:1" fill="#333333" d="M 321.5,348.5 C 322.126,355.584 321.459,362.25 319.5,368.5C 318.874,361.416 319.541,354.75 321.5,348.5 Z"/></g>
<g><path style="opacity:1" fill="#2d2d2d" d="M 327.5,348.5 C 329.459,354.75 330.126,361.416 329.5,368.5C 327.541,362.25 326.874,355.584 327.5,348.5 Z"/></g>
<g><path style="opacity:1" fill="#ededed" d="M 143.5,348.5 C 144.833,348.833 146.167,349.167 147.5,349.5C 148.496,349.414 149.329,349.748 150,350.5C 150.878,355.508 148.712,357.508 143.5,356.5C 143.5,353.833 143.5,351.167 143.5,348.5 Z"/></g>
<g><path style="opacity:1" fill="#cecece" d="M 352.5,368.5 C 352.693,364.434 352.36,360.434 351.5,356.5C 354.01,353.822 356.177,350.822 358,347.5C 358.249,351.412 356.916,354.745 354,357.5C 353.823,361.356 353.323,365.023 352.5,368.5 Z"/></g>
<g><path style="opacity:1" fill="#373737" d="M 215.5,349.5 C 217.371,349.859 218.871,350.859 220,352.5C 220.945,357.061 220.445,361.394 218.5,365.5C 217.662,365.158 217.328,364.492 217.5,363.5C 218.569,360.592 218.736,357.592 218,354.5C 216.628,353.09 215.795,351.423 215.5,349.5 Z"/></g>
<g><path style="opacity:1" fill="#f6f6f6" d="M 143.5,357.5 C 150.763,356.757 153.096,359.757 150.5,366.5C 148.253,367.374 145.92,367.708 143.5,367.5C 143.5,364.167 143.5,360.833 143.5,357.5 Z"/></g>
<g><path style="opacity:1" fill="#323232" d="M 257.5,348.5 C 258.126,355.584 257.459,362.25 255.5,368.5C 254.874,361.416 255.541,354.75 257.5,348.5 Z"/></g>
<g><path style="opacity:1" fill="#393939" d="M 275.5,348.5 C 277.149,354.601 278.149,360.935 278.5,367.5C 281.518,367.335 284.518,367.502 287.5,368C 283.514,368.499 279.514,368.666 275.5,368.5C 275.5,361.833 275.5,355.167 275.5,348.5 Z"/></g>
<g><path style="opacity:1" fill="#9f9f9f" d="M 275.5,348.5 C 279.019,347.192 282.685,347.192 286.5,348.5C 283.973,349.214 281.473,349.88 279,350.5C 278.501,356.157 278.334,361.824 278.5,367.5C 278.149,360.935 277.149,354.601 275.5,348.5 Z"/></g>
<g><path style="opacity:1" fill="#343434" d="M 302.5,348.5 C 304.456,354.412 305.123,360.745 304.5,367.5C 307.518,367.335 310.518,367.502 313.5,368C 309.848,368.499 306.182,368.665 302.5,368.5C 302.5,361.833 302.5,355.167 302.5,348.5 Z"/></g>
<g><path style="opacity:1" fill="#8b8b8b" d="M 327.5,348.5 C 328.209,347.596 329.209,347.263 330.5,347.5C 330.5,354.167 330.5,360.833 330.5,367.5C 333.187,367.336 335.854,367.503 338.5,368C 335.518,368.498 332.518,368.665 329.5,368.5C 330.126,361.416 329.459,354.75 327.5,348.5 Z"/></g>
<g><path style="opacity:1" fill="#343434" d="M 351.5,356.5 C 352.36,360.434 352.693,364.434 352.5,368.5C 351.316,362.144 348.983,355.977 345.5,350C 346.01,348.174 346.844,348.007 348,349.5C 349.18,351.86 350.347,354.193 351.5,356.5 Z"/></g>
<g><path style="opacity:1" fill="#494949" d="M 165.5,367.5 C 164.791,368.404 163.791,368.737 162.5,368.5C 159.782,361.827 158.782,354.827 159.5,347.5C 160.5,347.5 161.5,347.5 162.5,347.5C 162.334,353.509 162.501,359.509 163,365.5C 163.417,366.756 164.25,367.423 165.5,367.5 Z"/></g>
<g><path style="opacity:1" fill="#545454" d="M 147.5,349.5 C 147.5,349.167 147.5,348.833 147.5,348.5C 152.709,348.369 154.375,350.703 152.5,355.5C 151.5,356 150.5,356.5 149.5,357C 155.231,359.838 155.897,363.504 151.5,368C 148.854,368.497 146.187,368.664 143.5,368.5C 143.5,368.167 143.5,367.833 143.5,367.5C 145.92,367.708 148.253,367.374 150.5,366.5C 153.096,359.757 150.763,356.757 143.5,357.5C 143.5,357.167 143.5,356.833 143.5,356.5C 148.712,357.508 150.878,355.508 150,350.5C 149.329,349.748 148.496,349.414 147.5,349.5 Z"/></g>
<g><path style="opacity:1" fill="#eeeeee" d="M 182.5,368.5 C 182.5,361.833 182.5,355.167 182.5,348.5C 183.167,354.679 183.833,361.012 184.5,367.5C 188.242,370.184 188.909,373.351 186.5,377C 187.744,377.456 188.577,376.956 189,375.5C 191.382,377.546 193.382,379.879 195,382.5C 195.923,381.241 196.757,379.908 197.5,378.5C 198.182,379.243 198.849,379.909 199.5,380.5C 198.527,382.068 198.36,383.735 199,385.5C 203.482,387.979 203.482,388.979 199,388.5C 198.536,389.094 198.369,389.761 198.5,390.5C 197.842,389.602 197.176,388.602 196.5,387.5C 194.482,388.813 193.315,388.147 193,385.5C 192.695,387.557 192.695,389.557 193,391.5C 192.292,390.619 191.458,389.953 190.5,389.5C 190.649,388.448 190.483,387.448 190,386.5C 188.513,385.845 187.347,384.845 186.5,383.5C 187.391,382.41 188.391,382.41 189.5,383.5C 190.386,382.675 190.719,381.675 190.5,380.5C 187.944,380.132 185.944,380.966 184.5,383C 186.23,384.995 187.563,387.162 188.5,389.5C 186.876,389.64 185.71,388.973 185,387.5C 184.517,388.448 184.351,389.448 184.5,390.5C 182.197,388.022 180.031,385.355 178,382.5C 177.617,383.056 177.117,383.389 176.5,383.5C 176.5,382.5 176.5,381.5 176.5,380.5C 175.5,380.5 174.5,380.5 173.5,380.5C 174.868,379.694 176.201,378.694 177.5,377.5C 178.736,378.246 180.07,378.579 181.5,378.5C 181.231,380.429 181.731,382.095 183,383.5C 182.621,381.925 182.788,380.425 183.5,379C 179.863,377.023 176.863,374.356 174.5,371C 170.391,370.056 166.391,369.222 162.5,368.5C 163.791,368.737 164.791,368.404 165.5,367.5C 168.755,368.399 169.755,367.066 168.5,363.5C 170.098,361.027 171.598,361.027 173,363.5C 173.333,358.167 173.667,352.833 174,347.5C 174.79,353.552 174.624,359.552 173.5,365.5C 175.318,366.774 176.985,368.274 178.5,370C 180.259,370.798 181.926,370.631 183.5,369.5C 183.376,368.893 183.043,368.56 182.5,368.5 Z"/></g>
<g><path style="opacity:1" fill="#2d2d2d" d="M 182.5,348.5 C 182.5,355.167 182.5,361.833 182.5,368.5C 181.18,365.572 180.514,362.239 180.5,358.5C 180.514,354.761 181.18,351.428 182.5,348.5 Z"/></g>
<g><path style="opacity:1" fill="#aaaaaa" d="M 294.5,389.5 C 293.93,386.562 293.263,384.228 292.5,382.5C 291.504,382.414 290.671,382.748 290,383.5C 289.517,382.552 289.351,381.552 289.5,380.5C 292.167,380.5 294.833,380.5 297.5,380.5C 297.881,382.942 297.214,383.609 295.5,382.5C 294.526,384.743 294.192,387.076 294.5,389.5 Z"/></g>
<g><path style="opacity:1" fill="#474747" d="M 157.5,381.5 C 158.473,383.948 158.806,386.615 158.5,389.5C 160.124,389.64 161.29,388.973 162,387.5C 162.483,388.448 162.649,389.448 162.5,390.5C 160.833,390.5 159.167,390.5 157.5,390.5C 157.5,387.5 157.5,384.5 157.5,381.5 Z"/></g>
<g><path style="opacity:1" fill="#818181" d="M 173.5,380.5 C 174.5,380.5 175.5,380.5 176.5,380.5C 176.5,381.5 176.5,382.5 176.5,383.5C 175.292,382.766 173.959,382.433 172.5,382.5C 172.5,383.5 172.5,384.5 172.5,385.5C 176.5,385.833 176.5,386.167 172.5,386.5C 172.5,387.5 172.5,388.5 172.5,389.5C 174.109,389.094 175.443,389.094 176.5,389.5C 174.604,390.466 172.604,390.799 170.5,390.5C 170.5,387.167 170.5,383.833 170.5,380.5C 171.5,380.5 172.5,380.5 173.5,380.5 Z"/></g>
<g><path style="opacity:1" fill="#7e7e7e" d="M 233.5,380.5 C 235.167,380.5 236.833,380.5 238.5,380.5C 238.719,381.675 238.386,382.675 237.5,383.5C 234.5,381.774 232.834,382.608 232.5,386C 233.608,389.65 235.442,390.15 238,387.5C 238.483,388.448 238.649,389.448 238.5,390.5C 236.167,390.5 233.833,390.5 231.5,390.5C 229.656,386.556 230.323,383.223 233.5,380.5 Z"/></g>
<g><path style="opacity:1" fill="#7a7a7a" d="M 262.5,380.5 C 264.167,380.5 265.833,380.5 267.5,380.5C 267.649,381.552 267.483,382.552 267,383.5C 265.989,382.663 264.822,382.33 263.5,382.5C 263.5,383.5 263.5,384.5 263.5,385.5C 267.5,385.833 267.5,386.167 263.5,386.5C 263.5,387.5 263.5,388.5 263.5,389.5C 264.873,389.343 266.207,389.51 267.5,390C 265.527,390.495 263.527,390.662 261.5,390.5C 261.253,387.061 261.586,383.728 262.5,380.5 Z"/></g>
<g><path style="opacity:1" fill="#686868" d="M 333.5,387.5 C 333.673,384.821 334.673,382.487 336.5,380.5C 337.833,383.833 337.833,387.167 336.5,390.5C 336.522,389.005 336.189,387.338 335.5,385.5C 334.818,386.243 334.151,386.909 333.5,387.5 Z"/></g>
<g><path style="opacity:1" fill="#3f3f3f" d="M 378.5,381.5 C 379.473,383.948 379.806,386.615 379.5,389.5C 384.5,390.003 384.167,390.336 378.5,390.5C 378.5,387.5 378.5,384.5 378.5,381.5 Z"/></g>
<g><path style="opacity:1" fill="#787878" d="M 116.5,380.5 C 123.199,380.229 125.199,383.229 122.5,389.5C 119.894,390.652 117.227,390.818 114.5,390C 115.207,386.839 115.874,383.672 116.5,380.5 Z"/></g>
<g><path style="opacity:1" fill="#f2f2f2" d="M 117.5,382.5 C 121.707,382.694 123.04,384.694 121.5,388.5C 120.311,389.429 118.978,389.762 117.5,389.5C 117.5,387.167 117.5,384.833 117.5,382.5 Z"/></g>
<g><path style="opacity:1" fill="#6f6f6f" d="M 190.5,389.5 C 188.621,390.341 186.621,390.675 184.5,390.5C 184.351,389.448 184.517,388.448 185,387.5C 185.71,388.973 186.876,389.64 188.5,389.5C 187.563,387.162 186.23,384.995 184.5,383C 185.944,380.966 187.944,380.132 190.5,380.5C 190.719,381.675 190.386,382.675 189.5,383.5C 188.391,382.41 187.391,382.41 186.5,383.5C 187.347,384.845 188.513,385.845 190,386.5C 190.483,387.448 190.649,388.448 190.5,389.5 Z"/></g>
<g><path style="opacity:1" fill="#737373" d="M 199.5,380.5 C 200.833,380.5 202.167,380.5 203.5,380.5C 203.649,381.552 203.483,382.552 203,383.5C 198.738,382.69 198.572,383.357 202.5,385.5C 203.452,387.045 203.785,388.712 203.5,390.5C 201.833,390.5 200.167,390.5 198.5,390.5C 198.369,389.761 198.536,389.094 199,388.5C 203.482,388.979 203.482,387.979 199,385.5C 198.36,383.735 198.527,382.068 199.5,380.5 Z"/></g>
<g><path style="opacity:1" fill="#7c7c7c" d="M 348.5,380.5 C 354.334,381.008 356,384.008 353.5,389.5C 347.544,391.706 345.044,389.706 346,383.5C 346.698,382.309 347.531,381.309 348.5,380.5 Z"/></g>
<g><path style="opacity:1" fill="#eaeaea" d="M 348.5,382.5 C 353.466,382.929 354.466,385.096 351.5,389C 350.216,389.684 349.049,389.517 348,388.5C 347.322,386.402 347.489,384.402 348.5,382.5 Z"/></g>
<g><path style="opacity:1" fill="#707070" d="M 278.5,381.5 C 280.249,384.197 281.916,387.03 283.5,390C 282.552,390.483 281.552,390.649 280.5,390.5C 280.5,389.5 280.5,388.5 280.5,387.5C 278.058,387.354 277.391,388.187 278.5,390C 277.167,390.667 275.833,390.667 274.5,390C 275.46,388.581 276.293,387.081 277,385.5C 278.156,386.993 278.99,386.826 279.5,385C 279.011,383.862 278.678,382.695 278.5,381.5 Z"/></g>
<g><path style="opacity:1" fill="#545454" d="M 294.5,389.5 C 295.067,390.42 294.401,390.754 292.5,390.5C 292.5,387.833 292.5,385.167 292.5,382.5C 293.263,384.228 293.93,386.562 294.5,389.5 Z"/></g>
<g><path style="opacity:1" fill="#646464" d="M 333.5,387.5 C 333.649,388.552 333.483,389.552 333,390.5C 331.619,388.365 330.619,386.032 330,383.5C 329.814,385.9 329.314,388.234 328.5,390.5C 328.167,390.333 327.833,390.167 327.5,390C 328.444,387.281 328.777,384.448 328.5,381.5C 329.5,381.5 330.5,381.5 331.5,381.5C 331.259,383.898 331.926,385.898 333.5,387.5 Z"/></g>
<g><path style="opacity:1" fill="#696969" d="M 305.5,380.5 C 307.604,380.201 309.604,380.534 311.5,381.5C 311.192,382.308 310.692,382.975 310,383.5C 308.989,382.663 307.822,382.33 306.5,382.5C 306.5,384.833 306.5,387.167 306.5,389.5C 308.199,389.34 309.866,389.506 311.5,390C 308.833,390.667 306.167,390.667 303.5,390C 305.344,387.196 306.011,384.03 305.5,380.5 Z"/></g>
<g><path style="opacity:1" fill="#505050" d="M 363.5,381.5 C 364.434,382.568 364.768,383.901 364.5,385.5C 365.5,385.5 366.5,385.5 367.5,385.5C 367.48,387.143 368.147,388.476 369.5,389.5C 368.998,390.521 368.332,390.688 367.5,390C 366.929,388.795 366.262,387.628 365.5,386.5C 364.887,387.98 364.554,389.313 364.5,390.5C 363.516,387.572 363.183,384.572 363.5,381.5 Z"/></g>
<g><path style="opacity:1" fill="#7b7b7b" d="M 133.5,380.5 C 139.582,380.341 141.415,383.007 139,388.5C 139.619,383.663 137.785,381.997 133.5,383.5C 131.861,387.378 133.194,389.545 137.5,390C 135.527,390.495 133.527,390.662 131.5,390.5C 131.06,386.821 131.727,383.488 133.5,380.5 Z"/></g>
<g><path style="opacity:1" fill="#838383" d="M 246.5,380.5 C 248.5,380.5 250.5,380.5 252.5,380.5C 253.055,384.584 252.055,385.251 249.5,382.5C 248.614,383.325 248.281,384.325 248.5,385.5C 251.109,385.83 252.776,387.33 253.5,390C 250.936,390.45 249.436,389.284 249,386.5C 248.781,387.938 248.281,389.271 247.5,390.5C 246.513,387.232 246.18,383.898 246.5,380.5 Z"/></g>
</svg>
