<?xml version="1.0" encoding="UTF-8"?>
<!DOCTYPE svg PUBLIC "-//W3C//DTD SVG 1.1//EN" "http://www.w3.org/Graphics/SVG/1.1/DTD/svg11.dtd">
<svg xmlns="http://www.w3.org/2000/svg" version="1.1" width="500px" height="500px" style="shape-rendering:geometricPrecision; text-rendering:geometricPrecision; image-rendering:optimizeQuality; fill-rule:evenodd; clip-rule:evenodd" xmlns:xlink="http://www.w3.org/1999/xlink">
<g><path style="opacity:1" fill="#010000" d="M -0.5,-0.5 C 166.167,-0.5 332.833,-0.5 499.5,-0.5C 499.5,166.167 499.5,332.833 499.5,499.5C 332.833,499.5 166.167,499.5 -0.5,499.5C -0.5,332.833 -0.5,166.167 -0.5,-0.5 Z"/></g>
<g><path style="opacity:1" fill="#16eaea" d="M 171.5,19.5 C 174.314,18.8353 177.314,18.502 180.5,18.5C 183.913,18.517 186.913,19.1836 189.5,20.5C 187.583,36.836 185.583,53.1693 183.5,69.5C 183.52,70.7261 183.853,71.7261 184.5,72.5C 183.686,74.2726 182.352,74.7726 180.5,74C 179.873,72.2622 179.54,70.4289 179.5,68.5C 181.355,52.135 183.355,35.8017 185.5,19.5C 180.833,19.5 176.167,19.5 171.5,19.5 Z"/></g>
<g><path style="opacity:1" fill="#03eaea" d="M 195.5,19.5 C 201.31,18.5104 207.31,18.1771 213.5,18.5C 211.334,36.4917 209.168,54.4917 207,72.5C 204.219,80.7826 198.719,86.116 190.5,88.5C 197.071,84.7271 201.238,79.0604 203,71.5C 204.767,54.4287 206.934,37.4287 209.5,20.5C 204.88,19.5067 200.214,19.1734 195.5,19.5 Z"/></g>
<g><path style="opacity:1" fill="#01e0e0" d="M 294.5,17.5 C 305.909,15.3583 314.076,19.3583 319,29.5C 319.76,33.2255 319.593,36.8922 318.5,40.5C 317.311,41.4287 315.978,41.762 314.5,41.5C 316.201,26.5338 309.534,18.5338 294.5,17.5 Z"/></g>
<g><path style="opacity:1" fill="#02eded" d="M 332.5,18.5 C 347.167,18.5 361.833,18.5 376.5,18.5C 376.248,23.5186 375.748,28.5186 375,33.5C 373.989,34.3366 372.822,34.67 371.5,34.5C 371.503,29.4725 371.836,24.4725 372.5,19.5C 358.99,19.8289 345.656,19.4956 332.5,18.5 Z"/></g>
<g><path style="opacity:1" fill="#1a1919" d="M 117.5,19.5 C 125.886,19.2133 134.219,19.7133 142.5,21C 147.245,22.1148 150.412,24.9481 152,29.5C 153.875,38.6732 151.708,46.6732 145.5,53.5C 151.544,61.7152 152.044,70.3818 147,79.5C 143.922,82.7726 141.088,85.4392 138.5,87.5C 135.199,88.2842 131.866,89.2842 128.5,90.5C 121.018,89.508 113.352,89.1746 105.5,89.5C 108.168,66.4911 110.834,43.4911 113.5,20.5C 114.568,19.5655 115.901,19.2322 117.5,19.5 Z"/></g>
<g><path style="opacity:1" fill="#1a1919" d="M 171.5,19.5 C 176.167,19.5 180.833,19.5 185.5,19.5C 183.355,35.8017 181.355,52.135 179.5,68.5C 179.54,70.4289 179.873,72.2622 180.5,74C 182.352,74.7726 183.686,74.2726 184.5,72.5C 187.475,55.3722 189.809,38.0388 191.5,20.5C 192.708,19.7659 194.041,19.4326 195.5,19.5C 200.214,19.1734 204.88,19.5067 209.5,20.5C 206.934,37.4287 204.767,54.4287 203,71.5C 201.238,79.0604 197.071,84.7271 190.5,88.5C 186.989,89.6641 183.323,90.6641 179.5,91.5C 164.417,88.3898 158.584,79.0565 162,63.5C 164.382,49.2245 166.216,34.8912 167.5,20.5C 168.708,19.7659 170.041,19.4326 171.5,19.5 Z"/></g>
<g><path style="opacity:1" fill="#191919" d="M 225.5,19.5 C 234.568,19.1187 243.568,19.6187 252.5,21C 259.04,24.2293 262.373,29.5626 262.5,37C 262.221,42.8483 260.721,48.3483 258,53.5C 255.778,55.3848 253.944,57.5515 252.5,60C 254.395,69.416 255.728,78.916 256.5,88.5C 255.432,89.4345 254.099,89.7678 252.5,89.5C 247.833,89.5 243.167,89.5 238.5,89.5C 238.802,85.2095 238.136,81.2095 236.5,77.5C 236.888,72.3722 236.388,67.3722 235,62.5C 233.179,71.0703 232.012,79.737 231.5,88.5C 230.292,89.2341 228.959,89.5674 227.5,89.5C 222.833,89.5 218.167,89.5 213.5,89.5C 216.386,66.862 219.052,44.1953 221.5,21.5C 222.467,20.1938 223.801,19.5271 225.5,19.5 Z"/></g>
<g><path style="opacity:1" fill="#1a1919" d="M 294.5,17.5 C 309.534,18.5338 316.201,26.5338 314.5,41.5C 313.167,41.5 311.833,41.5 310.5,41.5C 306.167,41.5 301.833,41.5 297.5,41.5C 297.975,38.9179 297.308,36.9179 295.5,35.5C 294.458,34.2089 293.292,34.2089 292,35.5C 291.333,37.5 291.333,39.5 292,41.5C 297.613,47.1126 303.279,52.7792 309,58.5C 313.539,70.9911 310.373,80.9911 299.5,88.5C 296.205,89.284 292.871,90.284 289.5,91.5C 275.099,90.7564 268.432,83.0897 269.5,68.5C 268.5,68.5 267.5,68.5 266.5,68.5C 269.053,67.7451 271.72,67.0784 274.5,66.5C 278.634,67.4849 282.968,67.8182 287.5,67.5C 287.338,69.5273 287.505,71.5273 288,73.5C 289.049,74.5171 290.216,74.6838 291.5,74C 293.228,70.5085 292.562,67.6752 289.5,65.5C 285.229,61.7312 281.062,57.7312 277,53.5C 270.612,40.0493 273.446,29.0493 285.5,20.5C 288.449,19.6322 291.449,18.6322 294.5,17.5 Z"/></g>
<g><path style="opacity:1" fill="#1a1919" d="M 332.5,18.5 C 345.656,19.4956 358.99,19.8289 372.5,19.5C 371.836,24.4725 371.503,29.4725 371.5,34.5C 368.37,36.0226 365.037,36.6893 361.5,36.5C 360.116,35.1991 358.616,35.1991 357,36.5C 354.832,53.8434 352.665,71.1767 350.5,88.5C 349.432,89.4345 348.099,89.7678 346.5,89.5C 342.167,89.5 337.833,89.5 333.5,89.5C 335.17,71.4741 337.17,53.4741 339.5,35.5C 335.167,35.5 330.833,35.5 326.5,35.5C 326.503,30.4725 326.836,25.4725 327.5,20.5C 329.167,19.8333 330.833,19.1667 332.5,18.5 Z"/></g>
<g><path style="opacity:1" fill="#e30203" d="M 113.5,20.5 C 110.834,43.4911 108.168,66.4911 105.5,89.5C 113.352,89.1746 121.018,89.508 128.5,90.5C 119.5,90.5 110.5,90.5 101.5,90.5C 103.345,67.0748 106.011,43.7414 109.5,20.5C 110.833,20.5 112.167,20.5 113.5,20.5 Z"/></g>
<g><path style="opacity:1" fill="#e30202" d="M 167.5,20.5 C 166.216,34.8912 164.382,49.2245 162,63.5C 158.584,79.0565 164.417,88.3898 179.5,91.5C 168.733,92.8752 161.566,88.5419 158,78.5C 158.344,59.7436 160.01,41.0769 163,22.5C 164.049,20.8934 165.549,20.2267 167.5,20.5 Z"/></g>
<g><path style="opacity:1" fill="#e40303" d="M 221.5,21.5 C 219.052,44.1953 216.386,66.862 213.5,89.5C 218.167,89.5 222.833,89.5 227.5,89.5C 221.69,90.4896 215.69,90.8229 209.5,90.5C 211.674,67.1085 214.341,43.7751 217.5,20.5C 219.099,20.2322 220.432,20.5655 221.5,21.5 Z"/></g>
<g><path style="opacity:1" fill="#e10203" d="M 327.5,20.5 C 326.836,25.4725 326.503,30.4725 326.5,35.5C 330.833,35.5 335.167,35.5 339.5,35.5C 337.17,53.4741 335.17,71.4741 333.5,89.5C 337.833,89.5 342.167,89.5 346.5,89.5C 340.69,90.4896 334.69,90.8229 328.5,90.5C 330.664,72.5177 332.664,54.5177 334.5,36.5C 330.5,36.5 326.5,36.5 322.5,36.5C 322.25,31.4195 322.75,26.4195 324,21.5C 325.011,20.6634 326.178,20.33 327.5,20.5 Z"/></g>
<g><path style="opacity:1" fill="#e80202" d="M 285.5,20.5 C 273.446,29.0493 270.612,40.0493 277,53.5C 281.062,57.7312 285.229,61.7312 289.5,65.5C 287.833,65.5 286.167,65.5 284.5,65.5C 279.531,61.3627 275.031,56.6961 271,51.5C 266.265,36.4688 271.098,26.1354 285.5,20.5 Z"/></g>
<g><path style="opacity:1" fill="#1beaea" d="M 129.5,35.5 C 130.833,35.5 132.167,35.5 133.5,35.5C 133.577,39.2148 133.244,42.8815 132.5,46.5C 131.167,46.5 129.833,46.5 128.5,46.5C 128.423,42.7852 128.756,39.1185 129.5,35.5 Z"/></g>
<g><path style="opacity:1" fill="#17e6e6" d="M 241.5,36.5 C 241.54,39.8806 241.207,43.2139 240.5,46.5C 239.817,48.1765 238.483,48.8432 236.5,48.5C 236.586,44.1434 236.92,39.81 237.5,35.5C 239.099,35.2322 240.432,35.5655 241.5,36.5 Z"/></g>
<g><path style="opacity:1" fill="#06e5e5" d="M 295.5,35.5 C 295.054,38.0101 295.72,40.0101 297.5,41.5C 297.833,42.5 298.5,43.1667 299.5,43.5C 303.164,47.9973 307.331,51.9973 312,55.5C 317.131,64.9271 316.464,73.9271 310,82.5C 307.015,85.4089 303.515,87.4089 299.5,88.5C 310.373,80.9911 313.539,70.9911 309,58.5C 303.279,52.7792 297.613,47.1126 292,41.5C 291.333,39.5 291.333,37.5 292,35.5C 293.292,34.2089 294.458,34.2089 295.5,35.5 Z"/></g>
<g><path style="opacity:1" fill="#04e6e6" d="M 361.5,36.5 C 359.422,53.4597 357.255,70.4597 355,87.5C 353.644,88.3802 352.144,88.7135 350.5,88.5C 352.665,71.1767 354.832,53.8434 357,36.5C 358.616,35.1991 360.116,35.1991 361.5,36.5 Z"/></g>
<g><path style="opacity:1" fill="#db1911" d="M 241.5,36.5 C 243.89,36.6848 244.89,38.0182 244.5,40.5C 244.62,43.6225 243.287,45.6225 240.5,46.5C 241.207,43.2139 241.54,39.8806 241.5,36.5 Z"/></g>
<g><path style="opacity:1" fill="#9c1c16" d="M 295.5,35.5 C 297.308,36.9179 297.975,38.9179 297.5,41.5C 295.72,40.0101 295.054,38.0101 295.5,35.5 Z"/></g>
<g><path style="opacity:1" fill="#920705" d="M 297.5,41.5 C 301.833,41.5 306.167,41.5 310.5,41.5C 307.316,43.4136 303.649,44.0803 299.5,43.5C 298.5,43.1667 297.833,42.5 297.5,41.5 Z"/></g>
<g><path style="opacity:1" fill="#02e7e7" d="M 117.5,19.5 C 126.324,18.3427 135.324,18.176 144.5,19C 154.918,22 159.085,28.8333 157,39.5C 156.043,44.75 153.543,49.0833 149.5,52.5C 151.243,54.3211 152.743,56.3211 154,58.5C 157.166,72.8438 152,82.5105 138.5,87.5C 141.088,85.4392 143.922,82.7726 147,79.5C 152.044,70.3818 151.544,61.7152 145.5,53.5C 151.708,46.6732 153.875,38.6732 152,29.5C 150.412,24.9481 147.245,22.1148 142.5,21C 134.219,19.7133 125.886,19.2133 117.5,19.5 Z"/></g>
<g><path style="opacity:1" fill="#d32518" d="M 189.5,20.5 C 190.167,20.5 190.833,20.5 191.5,20.5C 189.809,38.0388 187.475,55.3722 184.5,72.5C 183.853,71.7261 183.52,70.7261 183.5,69.5C 185.583,53.1693 187.583,36.836 189.5,20.5 Z"/></g>
<g><path style="opacity:1" fill="#01e8e8" d="M 225.5,19.5 C 235.325,18.3417 245.325,18.1751 255.5,19C 265.375,24.2586 268.875,32.4252 266,43.5C 263.724,49.5627 260.891,55.2293 257.5,60.5C 259.157,69.7721 260.157,79.1054 260.5,88.5C 259.167,88.5 257.833,88.5 256.5,88.5C 255.728,78.916 254.395,69.416 252.5,60C 253.944,57.5515 255.778,55.3848 258,53.5C 260.721,48.3483 262.221,42.8483 262.5,37C 262.373,29.5626 259.04,24.2293 252.5,21C 243.568,19.6187 234.568,19.1187 225.5,19.5 Z"/></g>
<g><path style="opacity:1" fill="#0ee9e9" d="M 130.5,61.5 C 130.276,65.1788 129.942,68.8455 129.5,72.5C 128.432,73.4345 127.099,73.7678 125.5,73.5C 125.437,68.7971 125.771,64.1304 126.5,59.5C 128.483,59.1568 129.817,59.8235 130.5,61.5 Z"/></g>
<g><path style="opacity:1" fill="#da2216" d="M 130.5,61.5 C 131.748,62.3339 132.415,63.6672 132.5,65.5C 132.828,68.5005 131.828,70.8339 129.5,72.5C 129.942,68.8455 130.276,65.1788 130.5,61.5 Z"/></g>
<g><path style="opacity:1" fill="#11e4e4" d="M 236.5,77.5 C 236.57,81.4248 235.903,85.0915 234.5,88.5C 233.5,88.5 232.5,88.5 231.5,88.5C 232.012,79.737 233.179,71.0703 235,62.5C 236.388,67.3722 236.888,72.3722 236.5,77.5 Z"/></g>
<g><path style="opacity:1" fill="#2fc6c6" d="M 284.5,65.5 C 286.167,65.5 287.833,65.5 289.5,65.5C 292.562,67.6752 293.228,70.5085 291.5,74C 290.216,74.6838 289.049,74.5171 288,73.5C 287.505,71.5273 287.338,69.5273 287.5,67.5C 282.968,67.8182 278.634,67.4849 274.5,66.5C 277.625,65.5206 280.958,65.1872 284.5,65.5 Z"/></g>
<g><path style="opacity:1" fill="#e80101" d="M 266.5,68.5 C 267.5,68.5 268.5,68.5 269.5,68.5C 268.432,83.0897 275.099,90.7564 289.5,91.5C 271.916,93.2513 264.25,85.5846 266.5,68.5 Z"/></g>
<g><path style="opacity:1" fill="#e4180d" d="M 236.5,77.5 C 238.136,81.2095 238.802,85.2095 238.5,89.5C 243.167,89.5 247.833,89.5 252.5,89.5C 249.686,90.1647 246.686,90.498 243.5,90.5C 240.087,90.483 237.087,89.8164 234.5,88.5C 235.903,85.0915 236.57,81.4248 236.5,77.5 Z"/></g>
<g><path style="opacity:1" fill="#f4ebb0" d="M 272.5,128.5 C 274.199,128.34 275.866,128.506 277.5,129C 285.329,133.08 292.996,137.413 300.5,142C 296.5,142.333 292.5,142.667 288.5,143C 307.338,153.92 326.338,164.587 345.5,175C 348.903,178.909 348.069,180.742 343,180.5C 333.387,179.291 323.721,178.624 314,178.5C 304.003,178.79 294.503,179.29 285.5,180C 286.022,179.439 286.355,178.772 286.5,178C 280.387,166.273 273.887,154.773 267,143.5C 266.731,140.72 267.898,138.554 270.5,137C 269.167,136.833 267.833,136.667 266.5,136.5C 235.88,140.552 205.214,143.885 174.5,146.5C 194.583,152.349 214.916,156.849 235.5,160C 240.5,154.333 245.5,148.667 250.5,143C 251.167,142.333 251.833,142.333 252.5,143C 247,149.167 241.5,155.333 236,161.5C 236.173,167.213 237.007,172.88 238.5,178.5C 238.167,179.167 237.833,179.833 237.5,180.5C 236.119,174.885 234.953,169.219 234,163.5C 228.972,169.861 223.472,175.361 217.5,180C 222.687,174.314 227.687,168.481 232.5,162.5C 212.291,157.159 191.957,152.659 171.5,149C 180.5,159.333 189.5,169.667 198.5,180C 197.004,180.507 195.837,180.007 195,178.5C 186.324,168.326 177.49,158.326 168.5,148.5C 161.802,158.7 155.302,169.033 149,179.5C 146.263,180.61 143.429,180.777 140.5,180C 148.167,167.667 155.833,155.333 163.5,143C 199.732,137.848 236.065,133.015 272.5,128.5 Z"/></g>
<g><path style="opacity:1" fill="#060504" d="M 273.5,135.5 C 274.128,138.09 274.461,140.757 274.5,143.5C 294.661,154.413 314.661,165.58 334.5,177C 319.167,177.667 303.833,177.667 288.5,177C 281.621,166.079 275.121,154.913 269,143.5C 268.333,142.5 268.333,141.5 269,140.5C 270.707,138.963 272.207,137.296 273.5,135.5 Z"/></g>
<g><path style="opacity:1" fill="#12110d" d="M 275.5,136.5 C 278.121,137.121 279.788,138.788 280.5,141.5C 278.955,142.452 277.288,142.785 275.5,142.5C 275.5,140.5 275.5,138.5 275.5,136.5 Z"/></g>
<g><path style="opacity:1" fill="#1e1d18" d="M 281.5,139.5 C 283.423,139.795 285.09,140.628 286.5,142C 283.738,143.077 282.072,142.244 281.5,139.5 Z"/></g>
<g><path style="opacity:1" fill="#d7cf9b" d="M 259.5,142.5 C 260.139,143.097 260.472,143.93 260.5,145C 259.113,156.937 257.28,168.77 255,180.5C 255.513,167.729 257.013,155.063 259.5,142.5 Z"/></g>
<g><path style="opacity:1" fill="#ece4aa" d="M 154.5,180.5 C 157.187,180.336 159.854,180.503 162.5,181C 160.5,184 158.5,187 156.5,190C 153.833,190.667 151.167,190.667 148.5,190C 150.636,186.89 152.636,183.723 154.5,180.5 Z"/></g>
<g><path style="opacity:1" fill="#ede5ab" d="M 355.5,180.5 C 357.833,180.5 360.167,180.5 362.5,180.5C 363.051,183.807 363.384,187.14 363.5,190.5C 361.167,190.5 358.833,190.5 356.5,190.5C 356.384,187.14 356.051,183.807 355.5,180.5 Z"/></g>
<g><path style="opacity:1" fill="#d1c997" d="M 303.5,180.5 C 306.157,183.264 308.49,186.431 310.5,190C 309.551,190.617 308.718,190.451 308,189.5C 306.473,186.447 304.973,183.447 303.5,180.5 Z"/></g>
<g><path style="opacity:1" fill="#ded6a0" d="M 350.5,180.5 C 351.552,180.351 352.552,180.517 353.5,181C 348.221,184.997 342.554,187.997 336.5,190C 341.406,187.058 346.072,183.891 350.5,180.5 Z"/></g>
<g><path style="opacity:1" fill="#d9d19d" d="M 251.5,180.5 C 252.649,180.791 253.316,181.624 253.5,183C 254.332,185.478 254.499,187.978 254,190.5C 252.847,187.245 252.013,183.912 251.5,180.5 Z"/></g>
<g><path style="opacity:1" fill="#d4cd99" d="M 299.5,180.5 C 300.239,180.369 300.906,180.536 301.5,181C 299.12,184.258 296.62,187.424 294,190.5C 295.071,186.883 296.904,183.55 299.5,180.5 Z"/></g>
<g><path style="opacity:1" fill="#d9d19d" d="M 268.5,181.5 C 269.83,184.44 269.663,187.44 268,190.5C 267.699,187.493 267.865,184.493 268.5,181.5 Z"/></g>
<g><path style="opacity:1" fill="#d7d09b" d="M 212.5,180.5 C 215.742,183.399 219.075,186.399 222.5,189.5C 225.688,187.146 228.355,184.312 230.5,181C 231.167,180.333 231.833,180.333 232.5,181C 229.947,185.054 226.614,188.221 222.5,190.5C 218.153,188.153 214.82,184.82 212.5,180.5 Z"/></g>
<g><path style="opacity:1" fill="#f5edb1" d="M 136.5,190.5 C 139.247,190.187 141.914,190.52 144.5,191.5C 142.482,196.028 139.148,198.862 134.5,200C 132.074,204.288 128.407,205.622 123.5,204C 124.966,200.465 127.633,198.632 131.5,198.5C 133.22,195.798 134.887,193.132 136.5,190.5 Z"/></g>
<g><path style="opacity:1" fill="#f7efb2" d="M 346.5,190.5 C 348.792,190.244 350.959,190.577 353,191.5C 353.226,194.095 353.726,196.595 354.5,199C 352.833,199.333 351.167,199.667 349.5,200C 350.38,201.356 350.714,202.856 350.5,204.5C 348.167,204.5 345.833,204.5 343.5,204.5C 343.714,202.856 343.38,201.356 342.5,200C 344.167,199.667 345.833,199.333 347.5,199C 346.556,196.281 346.223,193.448 346.5,190.5 Z"/></g>
<g><path style="opacity:1" fill="#e5dda5" d="M 201.5,194.5 C 204.525,193.094 207.692,191.761 211,190.5C 213.845,193.019 216.345,195.852 218.5,199C 217.833,199.667 217.167,199.667 216.5,199C 214.607,196.697 212.607,194.53 210.5,192.5C 208.178,194.657 206.011,196.99 204,199.5C 203.735,197.837 204.235,196.337 205.5,195C 204.207,194.51 202.873,194.343 201.5,194.5 Z"/></g>
<g><path style="opacity:1" fill="#cdc694" d="M 255.5,190.5 C 256.586,190.62 257.253,191.287 257.5,192.5C 256.964,194.942 256.131,197.275 255,199.5C 254.699,196.493 254.865,193.493 255.5,190.5 Z"/></g>
<g><path style="opacity:1" fill="#d8d09b" d="M 303.5,199.5 C 302.624,199.631 301.957,199.298 301.5,198.5C 300.294,195.921 298.961,193.421 297.5,191C 298.449,190.383 299.282,190.549 300,191.5C 301.083,194.267 302.25,196.933 303.5,199.5 Z"/></g>
<g><path style="opacity:1" fill="#d4cc99" d="M 281.5,190.5 C 282.043,190.56 282.376,190.893 282.5,191.5C 280.808,193.359 279.308,195.359 278,197.5C 277.163,199.007 275.996,199.507 274.5,199C 276.668,196.002 279.001,193.169 281.5,190.5 Z"/></g>
<g><path style="opacity:1" fill="#e0d8a2" d="M 201.5,194.5 C 196.634,197.509 191.301,199.009 185.5,199C 190.713,196.983 196.046,195.483 201.5,194.5 Z"/></g>
<g><path style="opacity:1" fill="#c5be8e" d="M 242.5,190.5 C 244.596,193.191 244.93,196.191 243.5,199.5C 242.516,196.572 242.183,193.572 242.5,190.5 Z"/></g>
<g><path style="opacity:1" fill="#dad39d" d="M 323.5,190.5 C 324.552,190.351 325.552,190.517 326.5,191C 321.082,194.546 315.415,197.213 309.5,199C 314.192,196.065 318.858,193.231 323.5,190.5 Z"/></g>
<g><path style="opacity:1" fill="#e7dfa7" d="M 178.5,199.5 C 180.199,199.34 181.866,199.506 183.5,200C 179.5,201.333 175.5,202.667 171.5,204C 170.257,205.154 169.257,206.488 168.5,208C 166.453,208.054 166.453,207.054 168.5,205C 168.167,204.667 167.833,204.333 167.5,204C 171.468,202.962 175.135,201.462 178.5,199.5 Z"/></g>
<g><path style="opacity:1" fill="#dbd39e" d="M 197.5,199.5 C 198.376,199.369 199.043,199.702 199.5,200.5C 195.703,205.699 195.036,205.366 197.5,199.5 Z"/></g>
<g><path style="opacity:1" fill="#ede5ab" d="M 240.5,204.5 C 239.086,202.956 238.753,201.289 239.5,199.5C 240.452,201.045 240.785,202.712 240.5,204.5 Z"/></g>
<g><path style="opacity:1" fill="#f6edb1" d="M 249.5,199.5 C 250.239,199.369 250.906,199.536 251.5,200C 250.119,206.02 249.453,205.853 249.5,199.5 Z"/></g>
<g><path style="opacity:1" fill="#d9d19c" d="M 268.5,204.5 C 267.761,204.631 267.094,204.464 266.5,204C 267.743,202.846 268.743,201.512 269.5,200C 270.167,199.333 270.833,199.333 271.5,200C 270.614,201.615 269.614,203.115 268.5,204.5 Z"/></g>
<g><path style="opacity:1" fill="#eae1a8" d="M 303.5,199.5 C 304.552,199.351 305.552,199.517 306.5,200C 304.445,200.687 302.779,201.854 301.5,203.5C 299.926,204.631 298.259,204.798 296.5,204C 299.763,203.131 300.096,201.797 297.5,200C 298.996,199.493 300.163,199.993 301,201.5C 301.995,200.934 302.828,200.267 303.5,199.5 Z"/></g>
<g><path style="opacity:1" fill="#efe6ac" d="M 212.5,200.5 C 212.897,199.475 213.563,199.308 214.5,200C 215.833,201.333 217.167,202.667 218.5,204C 217.833,204.667 217.167,204.667 216.5,204C 215.295,202.624 213.962,201.458 212.5,200.5 Z"/></g>
<g><path style="opacity:1" fill="#f6edb1" d="M 97.5,204.5 C 107.022,203.683 107.689,205.016 99.5,208.5C 95.1135,208.632 94.4468,207.299 97.5,204.5 Z"/></g>
<g><path style="opacity:1" fill="#cfc895" d="M 191.5,205.5 C 193.268,204.493 194.601,205.159 195.5,207.5C 195.167,207.833 194.833,208.167 194.5,208.5C 193.712,207.23 192.712,206.23 191.5,205.5 Z"/></g>
<g><path style="opacity:1" fill="#f8f0b3" d="M 318.5,204.5 C 320.527,204.338 322.527,204.505 324.5,205C 325.337,206.011 325.67,207.178 325.5,208.5C 323.167,208.5 320.833,208.5 318.5,208.5C 318.5,207.167 318.5,205.833 318.5,204.5 Z"/></g>
<g><path style="opacity:1" fill="#c9c291" d="M 222.5,204.5 C 223.586,204.62 224.253,205.287 224.5,206.5C 224.167,207.167 223.833,207.833 223.5,208.5C 222.571,207.311 222.238,205.978 222.5,204.5 Z"/></g>
<g><path style="opacity:1" fill="#d0c996" d="M 213.5,204.5 C 215.344,205.204 215.844,206.537 215,208.5C 213.812,207.437 213.312,206.103 213.5,204.5 Z"/></g>
<g><path style="opacity:1" fill="#e0d8a2" d="M 138.5,204.5 C 139.873,204.343 141.207,204.51 142.5,205C 138.404,207.259 134.071,208.259 129.5,208C 132.718,207.1 135.718,205.933 138.5,204.5 Z"/></g>
<g><path style="opacity:1" fill="#e7dfa7" d="M 268.5,204.5 C 269.552,204.351 270.552,204.517 271.5,205C 269.189,207.164 266.522,208.164 263.5,208C 265.584,207.303 267.251,206.136 268.5,204.5 Z"/></g>
<g><path style="opacity:1" fill="#e8e0a7" d="M 111.5,208.5 C 114.187,208.336 116.854,208.503 119.5,209C 117.074,213.288 113.407,214.622 108.5,213C 109.883,211.729 110.883,210.229 111.5,208.5 Z"/></g>
<g><path style="opacity:1" fill="#ccc493" d="M 182.5,208.5 C 184.646,208.696 184.812,209.696 183,211.5C 182.163,213.007 180.996,213.507 179.5,213C 180.883,211.729 181.883,210.229 182.5,208.5 Z"/></g>
<g><path style="opacity:1" fill="#d8d09c" d="M 211.5,209.5 C 211.897,208.475 212.563,208.308 213.5,209C 214.833,210.333 216.167,211.667 217.5,213C 216.833,213.667 216.167,213.667 215.5,213C 214.295,211.624 212.962,210.458 211.5,209.5 Z"/></g>
<g><path style="opacity:1" fill="#eae2a9" d="M 335.5,208.5 C 337.833,208.5 340.167,208.5 342.5,208.5C 342.286,210.144 342.62,211.644 343.5,213C 341.098,213.814 338.765,213.647 336.5,212.5C 335.754,211.264 335.421,209.93 335.5,208.5 Z"/></g>
<g><path style="opacity:1" fill="#e2daa3" d="M 253.5,208.5 C 254.376,208.369 255.043,208.702 255.5,209.5C 251.389,214.929 250.722,214.596 253.5,208.5 Z"/></g>
<g><path style="opacity:1" fill="#7f7a5b" d="M 292.5,213.5 C 291.351,213.209 290.684,212.376 290.5,211C 290.833,210.167 291.167,209.333 291.5,208.5C 292.452,210.045 292.785,211.712 292.5,213.5 Z"/></g>
<g><path style="opacity:1" fill="#eae1a8" d="M 142.5,208.5 C 144.199,208.34 145.866,208.506 147.5,209C 143.91,210.53 140.243,211.864 136.5,213C 138.569,213.324 138.902,214.158 137.5,215.5C 134.833,216.833 132.167,216.833 129.5,215.5C 129.977,214.522 130.643,213.689 131.5,213C 135.468,211.962 139.135,210.462 142.5,208.5 Z"/></g>
<g><path style="opacity:1" fill="#e3dba4" d="M 278.5,208.5 C 279.552,208.351 280.552,208.517 281.5,209C 277.547,210.931 274.213,213.264 271.5,216C 272.191,214.933 272.691,213.766 273,212.5C 275.167,211.512 277,210.179 278.5,208.5 Z"/></g>
<g><path style="opacity:1" fill="#cec795" d="M 240.5,204.5 C 241.239,204.369 241.906,204.536 242.5,205C 241.5,206 240.5,207 239.5,208C 239.977,210.899 240.977,213.566 242.5,216C 241.004,216.507 239.837,216.007 239,214.5C 238.689,212.444 238.189,210.444 237.5,208.5C 238.524,207.148 239.524,205.815 240.5,204.5 Z"/></g>
<g><path style="opacity:1" fill="#c0ba8b" d="M 260.5,213.5 C 262.465,213.948 262.798,214.948 261.5,216.5C 260.614,215.675 260.281,214.675 260.5,213.5 Z"/></g>
<g><path style="opacity:1" fill="#ccc593" d="M 313.5,213.5 C 315.465,213.948 315.798,214.948 314.5,216.5C 313.614,215.675 313.281,214.675 313.5,213.5 Z"/></g>
<g><path style="opacity:1" fill="#f3ebaf" d="M 358.5,214.5 C 359.449,213.848 360.615,213.514 362,213.5C 363.973,213.309 365.473,213.976 366.5,215.5C 363.533,216.879 360.866,216.546 358.5,214.5 Z"/></g>
<g><path style="opacity:1" fill="#dcd49e" d="M 151.5,213.5 C 152.873,213.343 154.207,213.51 155.5,214C 152.386,215.931 149.053,216.598 145.5,216C 147.723,215.434 149.723,214.6 151.5,213.5 Z"/></g>
<g><path style="opacity:1" fill="#d3cb98" d="M 201.5,213.5 C 203.656,213.872 203.656,214.872 201.5,216.5C 200.438,215.575 200.438,214.575 201.5,213.5 Z"/></g>
<g><path style="opacity:1" fill="#f6edb1" d="M 106.5,216.5 C 109.187,216.336 111.854,216.503 114.5,217C 113.04,217.811 112.707,218.645 113.5,219.5C 117.011,217.713 120.678,216.879 124.5,217C 118.175,220.195 111.509,221.195 104.5,220C 105.305,218.887 105.972,217.721 106.5,216.5 Z"/></g>
<g><path style="opacity:1" fill="#faf1b4" d="M 336.5,216.5 C 338.857,216.337 341.19,216.503 343.5,217C 344.337,218.011 344.67,219.178 344.5,220.5C 341.534,220.89 338.868,220.223 336.5,218.5C 335.38,219.833 334.047,220.333 332.5,220C 333.731,218.595 335.064,217.429 336.5,216.5 Z"/></g>
<g><path style="opacity:1" fill="#cfc895" d="M 237.5,216.5 C 238.586,216.62 239.253,217.287 239.5,218.5C 239.167,219.167 238.833,219.833 238.5,220.5C 237.571,219.311 237.238,217.978 237.5,216.5 Z"/></g>
<g><path style="opacity:1" fill="#e2daa3" d="M 292.5,213.5 C 296.236,213.66 296.236,214.493 292.5,216C 293.747,217.494 293.747,218.994 292.5,220.5C 291.859,218.704 290.859,217.204 289.5,216C 290.942,215.623 291.942,214.79 292.5,213.5 Z"/></g>
<g><path style="opacity:1" fill="#e1d9a2" d="M 177.5,216.5 C 178.239,216.369 178.906,216.536 179.5,217C 178.333,218.167 177.167,219.333 176,220.5C 175.7,218.934 176.2,217.601 177.5,216.5 Z"/></g>
<g><path style="opacity:1" fill="#eee6ac" d="M 218.5,217.5 C 218.56,216.957 218.893,216.624 219.5,216.5C 220.981,217.48 222.315,218.647 223.5,220C 222.54,221.419 221.707,222.919 221,224.5C 222.161,221.304 221.327,218.971 218.5,217.5 Z"/></g>
<g><path style="opacity:1" fill="#d6cf9b" d="M 248.5,216.5 C 249.239,216.369 249.906,216.536 250.5,217C 246.974,221.615 246.307,221.448 248.5,216.5 Z"/></g>
<g><path style="opacity:1" fill="#e1d9a3" d="M 265.5,216.5 C 266.552,216.351 267.552,216.517 268.5,217C 266.189,219.164 263.522,220.164 260.5,220C 262.346,218.97 264.013,217.804 265.5,216.5 Z"/></g>
<g><path style="opacity:1" fill="#cac392" d="M 232.5,216.5 C 234.476,217.427 234.809,218.76 233.5,220.5C 232.571,219.311 232.238,217.978 232.5,216.5 Z"/></g>
<g><path style="opacity:1" fill="#d4cd99" d="M 157.5,220.5 C 159.885,221.867 159.552,223.201 156.5,224.5C 156.167,224.333 155.833,224.167 155.5,224C 156.823,223.184 157.489,222.017 157.5,220.5 Z"/></g>
<g><path style="opacity:1" fill="#d4cc98" d="M 228.5,220.5 C 230.885,221.867 230.552,223.201 227.5,224.5C 227.167,224.333 226.833,224.167 226.5,224C 227.823,223.184 228.489,222.017 228.5,220.5 Z"/></g>
<g><path style="opacity:1" fill="#f6eeb2" d="M 321.5,220.5 C 323.833,220.5 326.167,220.5 328.5,220.5C 328.5,221.833 328.5,223.167 328.5,224.5C 326.167,224.5 323.833,224.5 321.5,224.5C 321.5,223.167 321.5,221.833 321.5,220.5 Z"/></g>
<g><path style="opacity:1" fill="#eee6ac" d="M 205.5,221.5 C 205.56,220.957 205.893,220.624 206.5,220.5C 211.618,225.111 211.285,225.444 205.5,221.5 Z"/></g>
<g><path style="opacity:1" fill="#e5dda5" d="M 237.5,224.5 C 239.573,221.963 242.24,220.796 245.5,221C 242.89,222.481 240.223,223.648 237.5,224.5 Z"/></g>
<g><path style="opacity:1" fill="#e9e1a8" d="M 314.5,220.5 C 316.379,220.393 316.712,220.893 315.5,222C 309.359,225.264 309.026,224.764 314.5,220.5 Z"/></g>
<g><path style="opacity:1" fill="#e0d8a2" d="M 95.5,223.5 C 100.703,222.375 106.036,222.542 111.5,224C 106.115,224.733 100.782,224.567 95.5,223.5 Z"/></g>
<g><path style="opacity:1" fill="#cfc895" d="M 216.5,220.5 C 218.476,221.427 218.809,222.76 217.5,224.5C 216.571,223.311 216.238,221.978 216.5,220.5 Z"/></g>
<g><path style="opacity:1" fill="#b6b082" d="M 275.5,220.5 C 276.586,220.62 277.253,221.287 277.5,222.5C 277.167,223.167 276.833,223.833 276.5,224.5C 275.571,223.311 275.238,221.978 275.5,220.5 Z"/></g>
<g><path style="opacity:1" fill="#f3eaaf" d="M 113.5,225.5 C 122.436,223.383 127.77,227.05 129.5,236.5C 127.076,236.808 124.743,236.474 122.5,235.5C 121.5,233.5 120.5,231.5 119.5,229.5C 117.955,228.548 116.288,228.215 114.5,228.5C 114.737,227.209 114.404,226.209 113.5,225.5 Z"/></g>
<g><path style="opacity:1" fill="#f9f0b3" d="M 348.5,224.5 C 350.833,224.5 353.167,224.5 355.5,224.5C 355.5,225.833 355.5,227.167 355.5,228.5C 357.167,228.5 358.833,228.5 360.5,228.5C 361.167,231.167 361.833,233.833 362.5,236.5C 360.167,236.5 357.833,236.5 355.5,236.5C 355.897,231.234 353.563,228.568 348.5,228.5C 348.5,227.167 348.5,225.833 348.5,224.5 Z"/></g>
<g><path style="opacity:1" fill="#e6dea6" d="M 301.5,224.5 C 303.344,225.204 303.844,226.537 303,228.5C 302.209,227.255 301.709,225.922 301.5,224.5 Z"/></g>
<g><path style="opacity:1" fill="#ebe3aa" d="M 333.5,228.5 C 332.448,228.649 331.448,228.483 330.5,228C 332.116,227.385 333.449,226.385 334.5,225C 335.5,224.333 336.5,224.333 337.5,225C 335.676,225.66 334.343,226.827 333.5,228.5 Z"/></g>
<g><path style="opacity:1" fill="#e5dda6" d="M 259.5,228.5 C 258.448,228.649 257.448,228.483 256.5,228C 258.811,225.836 261.478,224.836 264.5,225C 262.654,226.03 260.987,227.196 259.5,228.5 Z"/></g>
<g><path style="opacity:1" fill="#c5bf8e" d="M 306.5,228.5 C 308.045,229.23 308.878,230.563 309,232.5C 309.781,233.944 309.614,235.277 308.5,236.5C 307.205,233.988 306.539,231.321 306.5,228.5 Z"/></g>
<g><path style="opacity:1" fill="#e2daa3" d="M 333.5,228.5 C 334.552,228.351 335.552,228.517 336.5,229C 333.872,230.626 331.539,232.626 329.5,235C 328.241,235.982 326.908,236.315 325.5,236C 328.364,233.634 331.031,231.134 333.5,228.5 Z"/></g>
<g><path style="opacity:1" fill="#e1d9a3" d="M 259.5,228.5 C 260.552,228.351 261.552,228.517 262.5,229C 259.167,231 255.833,233 252.5,235C 257.774,235.813 257.774,236.313 252.5,236.5C 229.804,234.297 207.137,231.964 184.5,229.5C 185.154,238.834 184.487,238.834 182.5,229.5C 166.154,228.249 149.82,226.749 133.5,225C 147.215,224.782 160.882,225.615 174.5,227.5C 177.747,227.919 180.414,226.919 182.5,224.5C 182.833,224.667 183.167,224.833 183.5,225C 182.643,225.689 181.977,226.522 181.5,227.5C 203.813,230.198 226.146,232.365 248.5,234C 244.672,231.864 243.172,228.697 244,224.5C 244.611,228.272 245.611,228.272 247,224.5C 247.783,226.433 247.283,227.933 245.5,229C 246.333,229.833 247.167,230.667 248,231.5C 249.623,229.823 251.29,227.489 253,224.5C 251.906,226.594 251.572,228.927 252,231.5C 252.833,230.5 253.667,229.5 254.5,228.5C 254.669,229.397 255.002,230.397 255.5,231.5C 256.901,230.479 258.235,229.479 259.5,228.5 Z"/></g>
<g><path style="opacity:1" fill="#b9b386" d="M 237.5,224.5 C 238.29,225.794 239.29,226.961 240.5,228C 237.888,228.741 236.222,227.741 235.5,225C 236.094,224.536 236.761,224.369 237.5,224.5 Z"/></g>
<g><path style="opacity:1" fill="#e3dba4" d="M 129.5,229.5 C 129.897,228.475 130.563,228.308 131.5,229C 134.167,231 136.833,233 139.5,235C 141.317,236.8 142.484,238.966 143,241.5C 145.795,243.293 148.295,245.46 150.5,248C 149.833,248.667 149.167,248.667 148.5,248C 144.881,244.023 140.548,241.356 135.5,240C 134.663,238.989 134.33,237.822 134.5,236.5C 135.552,236.649 136.552,236.483 137.5,236C 134.986,233.585 132.319,231.419 129.5,229.5 Z"/></g>
<g><path style="opacity:1" fill="#c8c190" d="M 150.5,237.5 C 150.56,236.957 150.893,236.624 151.5,236.5C 153.167,237.667 154.833,238.833 156.5,240C 155.5,240.667 154.5,240.667 153.5,240C 152.627,238.955 151.627,238.122 150.5,237.5 Z"/></g>
<g><path style="opacity:1" fill="#e8dfa7" d="M 367.5,236.5 C 369.527,236.338 371.527,236.505 373.5,237C 374.337,238.011 374.67,239.178 374.5,240.5C 372.167,240.5 369.833,240.5 367.5,240.5C 367.5,239.167 367.5,237.833 367.5,236.5 Z"/></g>
<g><path style="opacity:1" fill="#d7d09b" d="M 266.5,237.5 C 267.449,236.848 268.615,236.514 270,236.5C 275.158,237.665 280.325,238.832 285.5,240C 279.101,239.889 272.767,239.055 266.5,237.5 Z"/></g>
<g><path style="opacity:1" fill="#d0c896" d="M 334.5,236.5 C 335.552,236.351 336.552,236.517 337.5,237C 335.631,238.602 333.631,239.602 331.5,240C 332.71,238.961 333.71,237.794 334.5,236.5 Z"/></g>
<g><path style="opacity:1" fill="#d2ca97" d="M 258.5,236.5 C 261.942,236.032 264.609,237.198 266.5,240C 264.953,240.333 263.62,239.833 262.5,238.5C 261.833,239.167 261.167,239.833 260.5,240.5C 260.089,239.738 259.923,238.738 260,237.5C 258.511,239.332 256.678,240.165 254.5,240C 256.093,239.051 257.426,237.885 258.5,236.5 Z"/></g>
<g><path style="opacity:1" fill="#ede5ab" d="M 121.5,240.5 C 123.833,240.5 126.167,240.5 128.5,240.5C 128.756,242.937 129.423,245.271 130.5,247.5C 124.096,249.749 121.096,247.415 121.5,240.5 Z"/></g>
<g><path style="opacity:1" fill="#eae1a8" d="M 353.5,240.5 C 355.833,240.5 358.167,240.5 360.5,240.5C 361.092,243.127 361.425,245.794 361.5,248.5C 359.167,248.5 356.833,248.5 354.5,248.5C 354.425,245.794 354.092,243.127 353.5,240.5 Z"/></g>
<g><path style="opacity:1" fill="#dbd39e" d="M 238.5,240.5 C 240.842,240.775 240.842,241.608 238.5,243C 235.991,244.421 233.657,246.088 231.5,248C 230.5,248.667 229.5,248.667 228.5,248C 232.08,245.723 235.414,243.223 238.5,240.5 Z"/></g>
<g><path style="opacity:1" fill="#e2daa3" d="M 245.5,240.5 C 246.178,243.545 245.511,246.545 243.5,249.5C 241.321,250.757 239.321,252.257 237.5,254C 236.5,254.667 235.5,254.667 234.5,254C 237.029,251.971 239.696,250.138 242.5,248.5C 243.507,245.81 244.507,243.144 245.5,240.5 Z"/></g>
<g><path style="opacity:1" fill="#c9c291" d="M 181.5,240.5 C 183.379,242.915 183.713,245.582 182.5,248.5C 181.52,245.914 181.187,243.247 181.5,240.5 Z"/></g>
<g><path style="opacity:1" fill="#dfd8a1" d="M 250.5,241.5 C 250.897,240.475 251.563,240.308 252.5,241C 253.977,243.445 255.81,245.612 258,247.5C 258.706,249.971 258.373,252.305 257,254.5C 256.349,252.765 256.515,251.098 257.5,249.5C 255.149,246.761 252.816,244.095 250.5,241.5 Z"/></g>
<g><path style="opacity:1" fill="#d6cf9b" d="M 269.5,241.5 C 271.628,240.371 273.961,240.204 276.5,241C 285.859,243.105 295.192,245.271 304.5,247.5C 305.314,245.234 305.814,242.9 306,240.5C 306.36,242.608 307.027,244.608 308,246.5C 310.766,243.683 313.932,241.849 317.5,241C 313.983,245.038 309.65,247.538 304.5,248.5C 292.851,246.037 281.184,243.703 269.5,241.5 Z"/></g>
<g><path style="opacity:1" fill="#faf1b4" d="M 138.5,248.5 C 143.369,247.553 146.369,249.387 147.5,254C 141.962,255.985 138.962,254.152 138.5,248.5 Z"/></g>
<g><path style="opacity:1" fill="#f7eeb2" d="M 369.5,248.5 C 371.924,248.192 374.257,248.526 376.5,249.5C 377.309,251.071 377.643,252.738 377.5,254.5C 375.167,254.5 372.833,254.5 370.5,254.5C 370.483,252.435 370.15,250.435 369.5,248.5 Z"/></g>
<g><path style="opacity:1" fill="#dcd59f" d="M 164.5,249.5 C 164.897,248.475 165.563,248.308 166.5,249C 168.5,250.667 170.5,252.333 172.5,254C 171.092,254.315 169.759,253.982 168.5,253C 167.295,251.624 165.962,250.458 164.5,249.5 Z"/></g>
<g><path style="opacity:1" fill="#bfb889" d="M 196.5,248.5 C 197.693,248.97 198.36,249.97 198.5,251.5C 198.167,252.5 197.833,253.5 197.5,254.5C 196.534,252.604 196.201,250.604 196.5,248.5 Z"/></g>
<g><path style="opacity:1" fill="#ddd5a0" d="M 271.5,249.5 C 271.897,248.475 272.563,248.308 273.5,249C 274.453,250.955 275.787,252.622 277.5,254C 274.854,253.54 272.854,252.04 271.5,249.5 Z"/></g>
<g><path style="opacity:1" fill="#eee6ac" d="M 129.5,254.5 C 131.924,254.192 134.257,254.526 136.5,255.5C 138.009,259.378 139.009,263.378 139.5,267.5C 138.127,267.343 136.793,267.51 135.5,268C 136.399,270.192 137.399,272.358 138.5,274.5C 135.966,275.777 133.466,275.777 131,274.5C 130.443,272.385 129.609,270.385 128.5,268.5C 129.689,267.571 131.022,267.238 132.5,267.5C 131.121,263.275 130.121,258.942 129.5,254.5 Z"/></g>
<g><path style="opacity:1" fill="#f0e7ad" d="M 309.5,254.5 C 310.8,256.223 311.467,258.39 311.5,261C 311.333,263.167 311.167,265.333 311,267.5C 310.708,263.118 310.208,258.785 309.5,254.5 Z"/></g>
<g><path style="opacity:1" fill="#ece3aa" d="M 319.5,248.5 C 329.639,249.494 339.639,251.328 349.5,254C 347.5,254.333 345.5,254.667 343.5,255C 349.129,256.966 354.795,257.799 360.5,257.5C 360.167,256.833 359.833,256.167 359.5,255.5C 361.833,254.167 364.167,254.167 366.5,255.5C 367.095,262.6 363.762,266.933 356.5,268.5C 354.712,270.576 353.046,272.743 351.5,275C 348.773,275.818 346.106,275.652 343.5,274.5C 345.288,272.424 346.954,270.257 348.5,268C 350.167,267.667 351.833,267.333 353.5,267C 355.046,264.743 356.712,262.576 358.5,260.5C 351.228,258.478 343.895,256.645 336.5,255C 338.5,254.667 340.5,254.333 342.5,254C 336.112,252.689 329.779,251.189 323.5,249.5C 322.833,251.167 322.167,252.833 321.5,254.5C 320.719,253.271 320.219,251.938 320,250.5C 318.05,252.388 315.883,253.554 313.5,254C 315.396,251.932 317.396,250.099 319.5,248.5 Z"/></g>
<g><path style="opacity:1" fill="#d9d19c" d="M 160.5,255.5 C 160.897,254.475 161.563,254.308 162.5,255C 167.048,258.759 171.382,262.759 175.5,267C 173.369,266.602 171.369,265.602 169.5,264C 166.631,260.962 163.631,258.129 160.5,255.5 Z"/></g>
<g><path style="opacity:1" fill="#dbd39d" d="M 221.5,254.5 C 222.552,254.351 223.552,254.517 224.5,255C 218.279,260.095 211.612,264.095 204.5,267C 210.59,263.301 216.257,259.134 221.5,254.5 Z"/></g>
<g><path style="opacity:1" fill="#d4cd99" d="M 300.5,254.5 C 301.552,254.351 302.552,254.517 303.5,255C 298.317,258.76 293.317,262.76 288.5,267C 287.5,267.667 286.5,267.667 285.5,267C 290.94,263.291 295.94,259.125 300.5,254.5 Z"/></g>
<g><path style="opacity:1" fill="#e7dfa7" d="M 186.5,254.5 C 187.224,258.365 187.891,262.365 188.5,266.5C 188.167,266.833 187.833,267.167 187.5,267.5C 186.508,263.217 186.174,258.884 186.5,254.5 Z"/></g>
<g><path style="opacity:1" fill="#d3cb98" d="M 244.5,254.5 C 245.124,254.917 245.457,255.584 245.5,256.5C 244.445,260.275 243.112,263.942 241.5,267.5C 241.167,267.167 240.833,266.833 240.5,266.5C 242.31,262.678 243.644,258.678 244.5,254.5 Z"/></g>
<g><path style="opacity:1" fill="#d5cd9a" d="M 264.5,255.5 C 265.793,254.355 266.959,254.689 268,256.5C 270.377,260.088 272.877,263.588 275.5,267C 274.004,267.507 272.837,267.007 272,265.5C 270.021,261.7 267.521,258.366 264.5,255.5 Z"/></g>
<g><path style="opacity:1" fill="#d6cf9a" d="M 170.5,268.5 C 170.897,267.475 171.563,267.308 172.5,268C 175.167,270.333 177.833,272.667 180.5,275C 179.833,275.667 179.167,275.667 178.5,275C 175.669,272.999 173.003,270.833 170.5,268.5 Z"/></g>
<g><path style="opacity:1" fill="#d6ce9a" d="M 269.5,268.5 C 272.038,268.118 273.871,269.451 275,272.5C 276.836,269.621 279.336,268.121 282.5,268C 279.244,269.587 277.077,272.087 276,275.5C 274.865,275.273 273.698,274.94 272.5,274.5C 273.195,271.884 272.195,269.884 269.5,268.5 Z"/></g>
<g><path style="opacity:1" fill="#d6cf9a" d="M 198.5,267.5 C 199.552,267.351 200.552,267.517 201.5,268C 197.89,269.944 194.557,272.277 191.5,275C 190.5,275.667 189.5,275.667 188.5,275C 192.08,272.723 195.414,270.223 198.5,267.5 Z"/></g>
<g><path style="opacity:1" fill="#c1ba8b" d="M 182.5,267.5 C 184.557,269.857 184.89,272.524 183.5,275.5C 182.52,272.914 182.187,270.247 182.5,267.5 Z"/></g>
<g><path style="opacity:1" fill="#d5cd9a" d="M 235.5,267.5 C 236.376,267.369 237.043,267.702 237.5,268.5C 236.82,270.889 235.986,273.222 235,275.5C 234.825,272.843 234.992,270.176 235.5,267.5 Z"/></g>
<g><path style="opacity:1" fill="#a59f77" d="M 306.5,267.5 C 308.557,269.857 308.89,272.524 307.5,275.5C 306.52,272.914 306.187,270.247 306.5,267.5 Z"/></g>
<g><path style="opacity:1" fill="#f5ecb0" d="M 105.5,275.5 C 108.119,275.232 110.619,275.565 113,276.5C 114.308,280.76 115.808,284.926 117.5,289C 114.854,289.497 112.187,289.664 109.5,289.5C 108.37,284.776 107.036,280.109 105.5,275.5 Z"/></g>
<g><path style="opacity:1" fill="#f7eeb2" d="M 316.5,275.5 C 319.247,275.187 321.914,275.52 324.5,276.5C 321.5,280.5 318.5,284.5 315.5,288.5C 312.554,289.655 309.554,289.821 306.5,289C 309.964,284.559 313.298,280.059 316.5,275.5 Z"/></g>
<g><path style="opacity:1" fill="#d9d19c" d="M 246.5,274.5 C 247.525,274.897 247.692,275.563 247,276.5C 243.5,280.667 240,284.833 236.5,289C 235.833,289.667 235.167,289.667 234.5,289C 238.712,284.293 242.712,279.46 246.5,274.5 Z"/></g>
<g><path style="opacity:1" fill="#e4dca4" d="M 153.5,276.5 C 154.793,275.355 155.959,275.689 157,277.5C 157.667,274.833 158.333,274.833 159,277.5C 160.337,276.235 161.837,275.735 163.5,276C 162.132,277.34 160.799,278.674 159.5,280C 160.697,282.894 162.03,285.727 163.5,288.5C 162.833,289.833 162.167,289.833 161.5,288.5C 160.694,285.554 159.361,282.888 157.5,280.5C 152.934,284.44 147.934,287.274 142.5,289C 147.167,285.667 151.833,282.333 156.5,279C 155.627,277.955 154.627,277.122 153.5,276.5 Z"/></g>
<g><path style="opacity:1" fill="#d5cd99" d="M 249.5,274.5 C 253.417,278.594 257.25,282.928 261,287.5C 261.688,288.332 261.521,288.998 260.5,289.5C 256.398,284.744 252.731,279.744 249.5,274.5 Z"/></g>
<g><path style="opacity:1" fill="#dad39d" d="M 207.5,275.5 C 208.239,275.369 208.906,275.536 209.5,276C 204.145,294.079 203.478,293.912 207.5,275.5 Z"/></g>
<g><path style="opacity:1" fill="#dcd49e" d="M 281.5,275.5 C 283.267,279.908 283.767,284.574 283,289.5C 281.691,284.934 281.191,280.267 281.5,275.5 Z"/></g>
<g><path style="opacity:1" fill="#f6edb1" d="M 126.5,290.5 C 128.948,289.527 131.615,289.194 134.5,289.5C 135.493,294.313 136.993,298.98 139,303.5C 144.921,299.456 150.755,295.289 156.5,291C 157.759,290.018 159.092,289.685 160.5,290C 153.55,294.615 146.884,299.615 140.5,305C 142.167,306 143.833,307 145.5,308C 141.5,308.667 137.5,308.667 133.5,308C 131.438,301.964 129.105,296.131 126.5,290.5 Z"/></g>
<g><path style="opacity:1" fill="#f8efb3" d="M 322.5,289.5 C 325.247,289.187 327.914,289.52 330.5,290.5C 326.333,296.167 322.167,301.833 318,307.5C 314.927,308.617 311.76,308.784 308.5,308C 313.383,301.957 318.05,295.79 322.5,289.5 Z"/></g>
<g><path style="opacity:1" fill="#e7dea6" d="M 250.5,289.5 C 251.239,289.369 251.906,289.536 252.5,290C 247.71,296.459 242.543,302.626 237,308.5C 236.333,307.833 236.333,307.167 237,306.5C 241.99,301.167 246.49,295.5 250.5,289.5 Z"/></g>
<g><path style="opacity:1" fill="#e0d8a2" d="M 220.5,289.5 C 221.124,289.917 221.457,290.584 221.5,291.5C 220.032,297.237 218.365,302.903 216.5,308.5C 216.985,302.194 218.319,295.861 220.5,289.5 Z"/></g>
<g><path style="opacity:1" fill="#eae2a9" d="M 178.5,290.5 C 179.189,289.226 180.023,289.226 181,290.5C 183.956,296.388 186.29,302.388 188,308.5C 184.917,302.386 181.75,296.386 178.5,290.5 Z"/></g>
<g><path style="opacity:1" fill="#e2daa3" d="M 300.5,308.5 C 299.723,302.178 299.556,295.845 300,289.5C 300.867,295.338 301.7,301.171 302.5,307C 302.164,308.03 301.497,308.53 300.5,308.5 Z"/></g>
<g><path style="opacity:1" fill="#f3eaaf" d="M 117.5,309.5 C 121.646,308.353 125.98,308.186 130.5,309C 135.833,312 141.167,315 146.5,318C 141.833,318.667 137.167,318.667 132.5,318C 127.594,314.911 122.594,312.077 117.5,309.5 Z"/></g>
<g><path style="opacity:1" fill="#e8e0a8" d="M 300.5,308.5 C 298.417,311.651 296.084,314.651 293.5,317.5C 289.878,318.659 286.211,318.825 282.5,318C 280.167,315 277.833,312 275.5,309C 276.167,308.333 276.833,308.333 277.5,309C 279.667,311.833 281.833,314.667 284,317.5C 284.333,314.5 284.667,311.5 285,308.5C 286.234,315.907 288.4,315.907 291.5,308.5C 287.025,302.191 282.359,296.025 277.5,290C 278.449,289.383 279.282,289.549 280,290.5C 284.137,296.604 288.637,302.437 293.5,308C 295.81,308.497 298.143,308.663 300.5,308.5 Z"/></g>
<g><path style="opacity:1" fill="#d4cc98" d="M 198.5,308.5 C 199.239,308.369 199.906,308.536 200.5,309C 196.479,321.746 195.812,321.579 198.5,308.5 Z"/></g>
<g><path style="opacity:1" fill="#dfd7a0" d="M 218.5,308.5 C 219.239,308.369 219.906,308.536 220.5,309C 218.167,312 215.833,315 213.5,318C 212.833,318.667 212.167,318.667 211.5,318C 214.051,314.956 216.384,311.789 218.5,308.5 Z"/></g>
<g><path style="opacity:1" fill="#d7d09b" d="M 170.5,309.5 C 171.189,308.226 172.023,308.226 173,309.5C 173.892,312.284 175.058,314.95 176.5,317.5C 176.167,317.833 175.833,318.167 175.5,318.5C 174.063,315.286 172.397,312.286 170.5,309.5 Z"/></g>
<g><path style="opacity:1" fill="#f7eeb2" d="M 160.5,319.5 C 164.646,318.353 168.98,318.186 173.5,319C 178.167,321.667 182.833,324.333 187.5,327C 191.098,327.154 194.431,328.154 197.5,330C 202.703,333.366 208.036,336.532 213.5,339.5C 213.566,335.406 212.233,331.572 209.5,328C 209.833,327.833 210.167,327.667 210.5,327.5C 213.394,332.284 216.061,337.284 218.5,342.5C 219.086,342.291 219.586,341.957 220,341.5C 221.196,336.712 222.696,332.045 224.5,327.5C 224.833,327.833 225.167,328.167 225.5,328.5C 223.786,333.121 222.619,337.788 222,342.5C 226.177,337.46 230.344,332.46 234.5,327.5C 234.833,327.667 235.167,327.833 235.5,328C 232.453,331.925 229.286,335.759 226,339.5C 225.409,340.483 225.743,341.15 227,341.5C 255.329,334.349 282.829,326.849 309.5,319C 312.5,318.333 315.5,318.333 318.5,319C 315.638,323.936 311.305,326.603 305.5,327C 305.833,327.333 306.167,327.667 306.5,328C 277.462,335.343 248.462,342.843 219.5,350.5C 206.394,343.238 193.394,335.738 180.5,328C 178.5,327.667 176.5,327.333 174.5,327C 169.925,324.242 165.258,321.742 160.5,319.5 Z"/></g>
<g><path style="opacity:1" fill="#dfd7a1" d="M 221.5,318.5 C 222.376,318.369 223.043,318.702 223.5,319.5C 219.605,329.948 218.938,329.614 221.5,318.5 Z"/></g>
<g><path style="opacity:1" fill="#dcd49f" d="M 236.5,318.5 C 237.239,318.369 237.906,318.536 238.5,319C 236.356,321.979 234.022,324.812 231.5,327.5C 230.479,326.998 230.312,326.332 231,325.5C 233.325,323.499 235.158,321.166 236.5,318.5 Z"/></g>
<g><path style="opacity:1" fill="#e8e0a8" d="M 201.5,318.5 C 202.497,318.47 203.164,318.97 203.5,320C 204.827,322.453 205.661,324.953 206,327.5C 203.962,324.757 202.462,321.757 201.5,318.5 Z"/></g>
<g><path style="opacity:1" fill="#01e6e6" d="M 57.5,395.5 C 70.8333,395.5 84.1667,395.5 97.5,395.5C 97.5,398.833 97.5,402.167 97.5,405.5C 95.8333,405.5 94.1667,405.5 92.5,405.5C 92.5,402.5 92.5,399.5 92.5,396.5C 80.6547,396.828 68.988,396.495 57.5,395.5 Z"/></g>
<g><path style="opacity:1" fill="#01f1f1" d="M 112.5,395.5 C 116.167,395.5 119.833,395.5 123.5,395.5C 123.5,405.5 123.5,415.5 123.5,425.5C 125.5,425.5 127.5,425.5 129.5,425.5C 130.833,425.5 132.167,425.5 133.5,425.5C 129.03,426.486 124.363,426.819 119.5,426.5C 119.5,416.5 119.5,406.5 119.5,396.5C 116.941,396.802 114.607,396.468 112.5,395.5 Z"/></g>
<g><path style="opacity:1" fill="#00f2f2" d="M 137.5,396.5 C 141.298,395.517 145.298,395.183 149.5,395.5C 149.5,418.833 149.5,442.167 149.5,465.5C 148.167,465.5 146.833,465.5 145.5,465.5C 145.5,442.5 145.5,419.5 145.5,396.5C 142.833,396.5 140.167,396.5 137.5,396.5 Z"/></g>
<g><path style="opacity:1" fill="#01e4e4" d="M 232.5,395.5 C 245.248,392.128 253.748,396.795 258,409.5C 258.667,423.167 258.667,436.833 258,450.5C 256.516,457.811 252.349,462.811 245.5,465.5C 245.062,465.565 244.728,465.399 244.5,465C 249.149,462.545 251.983,458.712 253,453.5C 253.667,439.167 253.667,424.833 253,410.5C 250.115,400.291 243.281,395.291 232.5,395.5 Z"/></g>
<g><path style="opacity:1" fill="#03e3e3" d="M 274.5,395.5 C 278.437,395.207 282.27,395.54 286,396.5C 286.333,415.167 286.667,433.833 287,452.5C 288.039,453.71 289.206,454.71 290.5,455.5C 291.167,455.833 291.833,456.167 292.5,456.5C 287.788,458.645 284.288,457.311 282,452.5C 281.5,433.836 281.333,415.17 281.5,396.5C 278.941,396.802 276.607,396.468 274.5,395.5 Z"/></g>
<g><path style="opacity:1" fill="#02e6e6" d="M 300.5,396.5 C 304.298,395.517 308.298,395.183 312.5,395.5C 312.667,414.17 312.5,432.836 312,451.5C 310.335,458.557 306.168,463.224 299.5,465.5C 302.512,462.851 305.012,459.185 307,454.5C 307.5,435.17 307.667,415.836 307.5,396.5C 305.167,396.5 302.833,396.5 300.5,396.5 Z"/></g>
<g><path style="opacity:1" fill="#01ecec" d="M 341.5,394.5 C 352.564,392.783 360.731,396.783 366,406.5C 366.81,410.358 366.643,414.024 365.5,417.5C 364.5,417.5 363.5,417.5 362.5,417.5C 362.801,403.135 355.801,395.469 341.5,394.5 Z"/></g>
<g><path style="opacity:1" fill="#01f1f1" d="M 383.5,395.5 C 387.167,395.5 390.833,395.5 394.5,395.5C 394.5,405.5 394.5,415.5 394.5,425.5C 396.5,425.5 398.5,425.5 400.5,425.5C 401.833,425.5 403.167,425.5 404.5,425.5C 400.03,426.486 395.363,426.819 390.5,426.5C 390.5,416.5 390.5,406.5 390.5,396.5C 387.941,396.802 385.607,396.468 383.5,395.5 Z"/></g>
<g><path style="opacity:1" fill="#00f2f2" d="M 408.5,396.5 C 412.298,395.517 416.298,395.183 420.5,395.5C 420.5,418.833 420.5,442.167 420.5,465.5C 419.167,465.5 417.833,465.5 416.5,465.5C 416.5,442.5 416.5,419.5 416.5,396.5C 413.833,396.5 411.167,396.5 408.5,396.5 Z"/></g>
<g><path style="opacity:1" fill="#1a1919" d="M 57.5,395.5 C 68.988,396.495 80.6547,396.828 92.5,396.5C 92.5,399.5 92.5,402.5 92.5,405.5C 89.4557,407.011 86.1224,407.678 82.5,407.5C 81.4324,406.566 80.099,406.232 78.5,406.5C 78.5,426.167 78.5,445.833 78.5,465.5C 77.2921,466.234 75.9587,466.567 74.5,466.5C 72.1667,466.5 69.8333,466.5 67.5,466.5C 67.5,446.5 67.5,426.5 67.5,406.5C 62.8333,406.5 58.1667,406.5 53.5,406.5C 53.5,403.5 53.5,400.5 53.5,397.5C 54.6715,396.655 56.0048,395.989 57.5,395.5 Z"/></g>
<g><path style="opacity:1" fill="#1c1d1c" d="M 112.5,395.5 C 114.607,396.468 116.941,396.802 119.5,396.5C 119.5,406.5 119.5,416.5 119.5,426.5C 124.363,426.819 129.03,426.486 133.5,425.5C 133.5,416.167 133.5,406.833 133.5,397.5C 134.708,396.766 136.041,396.433 137.5,396.5C 140.167,396.5 142.833,396.5 145.5,396.5C 145.5,419.5 145.5,442.5 145.5,465.5C 143.833,466.167 142.167,466.833 140.5,467.5C 138.393,466.532 136.059,466.198 133.5,466.5C 133.5,456.5 133.5,446.5 133.5,436.5C 130.287,436.19 127.287,436.523 124.5,437.5C 124.827,446.682 124.493,455.682 123.5,464.5C 123.5,455.167 123.5,445.833 123.5,436.5C 122.167,436.5 120.833,436.5 119.5,436.5C 119.5,446.167 119.5,455.833 119.5,465.5C 118.432,466.434 117.099,466.768 115.5,466.5C 113.167,466.5 110.833,466.5 108.5,466.5C 108.5,443.5 108.5,420.5 108.5,397.5C 109.671,396.655 111.005,395.989 112.5,395.5 Z"/></g>
<g><path style="opacity:1" fill="#1a1c1b" d="M 167.5,395.5 C 173.653,396.328 179.987,396.828 186.5,397C 199.011,401.519 203.511,410.352 200,423.5C 198.872,428.772 196.039,432.772 191.5,435.5C 195.438,445.313 198.771,455.313 201.5,465.5C 200.432,466.434 199.099,466.768 197.5,466.5C 194.881,466.768 192.381,466.435 190,465.5C 187.518,455.555 184.351,445.888 180.5,436.5C 179.513,439.768 179.18,443.102 179.5,446.5C 179.823,452.69 179.49,458.69 178.5,464.5C 178.5,455.167 178.5,445.833 178.5,436.5C 177.167,436.5 175.833,436.5 174.5,436.5C 174.5,446.167 174.5,455.833 174.5,465.5C 173.432,466.434 172.099,466.768 170.5,466.5C 168.167,466.5 165.833,466.5 163.5,466.5C 163.5,443.5 163.5,420.5 163.5,397.5C 164.671,396.655 166.005,395.989 167.5,395.5 Z"/></g>
<g><path style="opacity:1" fill="#1a1919" d="M 232.5,395.5 C 243.281,395.291 250.115,400.291 253,410.5C 253.667,424.833 253.667,439.167 253,453.5C 251.983,458.712 249.149,462.545 244.5,465C 244.728,465.399 245.062,465.565 245.5,465.5C 242.199,466.284 238.866,467.284 235.5,468.5C 225.051,468.021 218.551,462.687 216,452.5C 215.333,437.833 215.333,423.167 216,408.5C 218.019,402.65 221.852,398.65 227.5,396.5C 229.117,395.962 230.784,395.629 232.5,395.5 Z"/></g>
<g><path style="opacity:1" fill="#191919" d="M 274.5,395.5 C 276.607,396.468 278.941,396.802 281.5,396.5C 281.333,415.17 281.5,433.836 282,452.5C 284.288,457.311 287.788,458.645 292.5,456.5C 294.173,455.657 295.34,454.324 296,452.5C 296.5,434.17 296.667,415.836 296.5,397.5C 297.568,396.566 298.901,396.232 300.5,396.5C 302.833,396.5 305.167,396.5 307.5,396.5C 307.667,415.836 307.5,435.17 307,454.5C 305.012,459.185 302.512,462.851 299.5,465.5C 296.205,466.284 292.871,467.284 289.5,468.5C 280.021,467.667 273.854,462.667 271,453.5C 270.5,434.836 270.333,416.17 270.5,397.5C 271.671,396.655 273.005,395.989 274.5,395.5 Z"/></g>
<g><path style="opacity:1" fill="#1b1b1a" d="M 341.5,394.5 C 355.801,395.469 362.801,403.135 362.5,417.5C 363.5,417.5 364.5,417.5 365.5,417.5C 363.393,418.468 361.059,418.802 358.5,418.5C 355.833,418.5 353.167,418.5 350.5,418.5C 350.837,414.692 350.337,411.026 349,407.5C 346.997,405.542 344.831,405.209 342.5,406.5C 339.437,405.631 337.27,406.965 336,410.5C 335.333,424.167 335.333,437.833 336,451.5C 337.685,457.222 341.185,458.889 346.5,456.5C 348.411,456.426 349.578,455.426 350,453.5C 350.499,448.511 350.666,443.511 350.5,438.5C 348.167,438.5 345.833,438.5 343.5,438.5C 343.5,435.833 343.5,433.167 343.5,430.5C 344.671,429.655 346.005,428.989 347.5,428.5C 352.305,429.487 357.305,429.821 362.5,429.5C 362.666,437.507 362.5,445.507 362,453.5C 360.974,457.722 358.807,461.222 355.5,464C 355.728,464.399 356.062,464.565 356.5,464.5C 352.626,465.952 348.626,467.285 344.5,468.5C 333.512,468.013 327.012,462.347 325,451.5C 324.333,437.5 324.333,423.5 325,409.5C 326.147,404.204 328.98,400.204 333.5,397.5C 336.081,396.512 338.748,395.512 341.5,394.5 Z"/></g>
<g><path style="opacity:1" fill="#1c1d1c" d="M 383.5,395.5 C 385.607,396.468 387.941,396.802 390.5,396.5C 390.5,406.5 390.5,416.5 390.5,426.5C 395.363,426.819 400.03,426.486 404.5,425.5C 404.5,416.167 404.5,406.833 404.5,397.5C 405.708,396.766 407.041,396.433 408.5,396.5C 411.167,396.5 413.833,396.5 416.5,396.5C 416.5,419.5 416.5,442.5 416.5,465.5C 414.833,466.167 413.167,466.833 411.5,467.5C 409.393,466.532 407.059,466.198 404.5,466.5C 404.5,456.5 404.5,446.5 404.5,436.5C 401.287,436.19 398.287,436.523 395.5,437.5C 395.827,446.682 395.493,455.682 394.5,464.5C 394.5,455.167 394.5,445.833 394.5,436.5C 393.167,436.5 391.833,436.5 390.5,436.5C 390.5,446.167 390.5,455.833 390.5,465.5C 389.432,466.434 388.099,466.768 386.5,466.5C 384.167,466.5 381.833,466.5 379.5,466.5C 379.5,443.5 379.5,420.5 379.5,397.5C 380.671,396.655 382.005,395.989 383.5,395.5 Z"/></g>
<g><path style="opacity:1" fill="#da0403" d="M 53.5,397.5 C 53.5,400.5 53.5,403.5 53.5,406.5C 58.1667,406.5 62.8333,406.5 67.5,406.5C 67.5,426.5 67.5,446.5 67.5,466.5C 69.8333,466.5 72.1667,466.5 74.5,466.5C 70.7016,467.483 66.7016,467.817 62.5,467.5C 62.5,447.5 62.5,427.5 62.5,407.5C 58.1667,407.5 53.8333,407.5 49.5,407.5C 49.5,404.167 49.5,400.833 49.5,397.5C 50.8333,397.5 52.1667,397.5 53.5,397.5 Z"/></g>
<g><path style="opacity:1" fill="#f30101" d="M 108.5,397.5 C 108.5,420.5 108.5,443.5 108.5,466.5C 110.833,466.5 113.167,466.5 115.5,466.5C 112.038,467.482 108.371,467.815 104.5,467.5C 104.5,444.167 104.5,420.833 104.5,397.5C 105.833,397.5 107.167,397.5 108.5,397.5 Z"/></g>
<g><path style="opacity:1" fill="#f70101" d="M 133.5,397.5 C 133.5,406.833 133.5,416.167 133.5,425.5C 132.167,425.5 130.833,425.5 129.5,425.5C 129.5,416.167 129.5,406.833 129.5,397.5C 130.833,397.5 132.167,397.5 133.5,397.5 Z"/></g>
<g><path style="opacity:1" fill="#f30101" d="M 163.5,397.5 C 163.5,420.5 163.5,443.5 163.5,466.5C 165.833,466.5 168.167,466.5 170.5,466.5C 167.038,467.482 163.371,467.815 159.5,467.5C 159.5,444.167 159.5,420.833 159.5,397.5C 160.833,397.5 162.167,397.5 163.5,397.5 Z"/></g>
<g><path style="opacity:1" fill="#ea0202" d="M 270.5,397.5 C 270.333,416.17 270.5,434.836 271,453.5C 273.854,462.667 280.021,467.667 289.5,468.5C 279.979,470.056 272.813,466.722 268,458.5C 266.548,438.221 266.048,417.887 266.5,397.5C 267.833,397.5 269.167,397.5 270.5,397.5 Z"/></g>
<g><path style="opacity:1" fill="#f50101" d="M 296.5,397.5 C 296.667,415.836 296.5,434.17 296,452.5C 295.34,454.324 294.173,455.657 292.5,456.5C 291.833,456.167 291.167,455.833 290.5,455.5C 291.09,454.234 291.59,452.901 292,451.5C 292.5,433.503 292.667,415.503 292.5,397.5C 293.833,397.5 295.167,397.5 296.5,397.5 Z"/></g>
<g><path style="opacity:1" fill="#f30101" d="M 379.5,397.5 C 379.5,420.5 379.5,443.5 379.5,466.5C 381.833,466.5 384.167,466.5 386.5,466.5C 383.038,467.482 379.371,467.815 375.5,467.5C 375.5,444.167 375.5,420.833 375.5,397.5C 376.833,397.5 378.167,397.5 379.5,397.5 Z"/></g>
<g><path style="opacity:1" fill="#f70101" d="M 404.5,397.5 C 404.5,406.833 404.5,416.167 404.5,425.5C 403.167,425.5 401.833,425.5 400.5,425.5C 400.5,416.167 400.5,406.833 400.5,397.5C 401.833,397.5 403.167,397.5 404.5,397.5 Z"/></g>
<g><path style="opacity:1" fill="#f00101" d="M 333.5,397.5 C 328.98,400.204 326.147,404.204 325,409.5C 324.333,423.5 324.333,437.5 325,451.5C 327.012,462.347 333.512,468.013 344.5,468.5C 333.015,470.512 325.182,466.179 321,455.5C 320.333,439.833 320.333,424.167 321,408.5C 323.507,402.819 327.674,399.152 333.5,397.5 Z"/></g>
<g><path style="opacity:1" fill="#ea0202" d="M 227.5,396.5 C 221.852,398.65 218.019,402.65 216,408.5C 215.333,423.167 215.333,437.833 216,452.5C 218.551,462.687 225.051,468.021 235.5,468.5C 226.689,470.065 219.523,467.399 214,460.5C 213.027,458.608 212.36,456.608 212,454.5C 211.333,439.167 211.333,423.833 212,408.5C 215.019,401.639 220.186,397.639 227.5,396.5 Z"/></g>
<g><path style="opacity:1" fill="#00fefe" d="M 82.5,407.5 C 82.5,426.833 82.5,446.167 82.5,465.5C 81.1667,465.5 79.8333,465.5 78.5,465.5C 78.5,445.833 78.5,426.167 78.5,406.5C 80.099,406.232 81.4324,406.566 82.5,407.5 Z"/></g>
<g><path style="opacity:1" fill="#01f1f1" d="M 179.5,426.5 C 180.833,426.5 182.167,426.5 183.5,426.5C 183.833,426.5 184.167,426.5 184.5,426.5C 181.375,427.479 178.042,427.813 174.5,427.5C 174.5,420.5 174.5,413.5 174.5,406.5C 175.833,406.5 177.167,406.5 178.5,406.5C 178.176,413.354 178.509,420.021 179.5,426.5 Z"/></g>
<g><path style="opacity:1" fill="#04e4e4" d="M 234.5,405.5 C 234.167,406.167 233.833,406.833 233.5,407.5C 232.883,407.611 232.383,407.944 232,408.5C 231.333,422.833 231.333,437.167 232,451.5C 232.748,453.751 234.248,455.084 236.5,455.5C 236.5,456.167 236.833,456.5 237.5,456.5C 232.185,458.889 228.685,457.222 227,451.5C 226.333,437.833 226.333,424.167 227,410.5C 228.33,406.993 230.83,405.327 234.5,405.5 Z"/></g>
<g><path style="opacity:1" fill="#ea0403" d="M 234.5,405.5 C 238.597,405.469 241.097,407.469 242,411.5C 242.667,424.833 242.667,438.167 242,451.5C 241.388,454.115 239.888,455.781 237.5,456.5C 236.833,456.5 236.5,456.167 236.5,455.5C 236.987,454.527 237.487,453.527 238,452.5C 238.667,439.167 238.667,425.833 238,412.5C 237.004,410.34 235.504,408.673 233.5,407.5C 233.833,406.833 234.167,406.167 234.5,405.5 Z"/></g>
<g><path style="opacity:1" fill="#16dcdb" d="M 342.5,406.5 C 342.5,406.833 342.5,407.167 342.5,407.5C 341.883,407.611 341.383,407.944 341,408.5C 340.5,415.826 340.334,423.159 340.5,430.5C 340.5,433.833 340.5,437.167 340.5,440.5C 340.334,444.514 340.501,448.514 341,452.5C 341.918,454.376 343.418,455.376 345.5,455.5C 345.5,456.167 345.833,456.5 346.5,456.5C 341.185,458.889 337.685,457.222 336,451.5C 335.333,437.833 335.333,424.167 336,410.5C 337.27,406.965 339.437,405.631 342.5,406.5 Z"/></g>
<g><path style="opacity:1" fill="#e30202" d="M 358.5,418.5 C 354.702,419.483 350.702,419.817 346.5,419.5C 346.665,416.482 346.498,413.482 346,410.5C 344.961,409.29 343.794,408.29 342.5,407.5C 342.5,407.167 342.5,406.833 342.5,406.5C 344.831,405.209 346.997,405.542 349,407.5C 350.337,411.026 350.837,414.692 350.5,418.5C 353.167,418.5 355.833,418.5 358.5,418.5 Z"/></g>
<g><path style="opacity:1" fill="#e90202" d="M 184.5,426.5 C 184.167,426.5 183.833,426.5 183.5,426.5C 185.231,422.318 185.731,417.984 185,413.5C 183.924,410.921 182.091,409.254 179.5,408.5C 183.443,405.673 186.61,406.673 189,411.5C 190.041,416.44 189.374,421.106 187,425.5C 186.329,426.252 185.496,426.586 184.5,426.5 Z"/></g>
<g><path style="opacity:1" fill="#140400" d="M 233.5,407.5 C 235.504,408.673 237.004,410.34 238,412.5C 238.667,425.833 238.667,439.167 238,452.5C 237.487,453.527 236.987,454.527 236.5,455.5C 234.248,455.084 232.748,453.751 232,451.5C 231.333,437.167 231.333,422.833 232,408.5C 232.383,407.944 232.883,407.611 233.5,407.5 Z"/></g>
<g><path style="opacity:1" fill="#070000" d="M 179.5,408.5 C 182.091,409.254 183.924,410.921 185,413.5C 185.731,417.984 185.231,422.318 183.5,426.5C 182.167,426.5 180.833,426.5 179.5,426.5C 179.5,420.5 179.5,414.5 179.5,408.5 Z"/></g>
<g><path style="opacity:1" fill="#00f5f5" d="M 347.5,428.5 C 353.833,428.5 360.167,428.5 366.5,428.5C 366.666,436.84 366.5,445.173 366,453.5C 364.408,458.588 361.241,462.255 356.5,464.5C 356.062,464.565 355.728,464.399 355.5,464C 358.807,461.222 360.974,457.722 362,453.5C 362.5,445.507 362.666,437.507 362.5,429.5C 357.305,429.821 352.305,429.487 347.5,428.5 Z"/></g>
<g><path style="opacity:1" fill="#01ebeb" d="M 167.5,395.5 C 175.84,395.334 184.173,395.5 192.5,396C 202.905,400.83 207.071,408.996 205,420.5C 204.562,423.376 203.562,426.043 202,428.5C 199.778,430.385 197.944,432.551 196.5,435C 199.813,445.102 202.813,455.269 205.5,465.5C 204.167,465.5 202.833,465.5 201.5,465.5C 198.771,455.313 195.438,445.313 191.5,435.5C 196.039,432.772 198.872,428.772 200,423.5C 203.511,410.352 199.011,401.519 186.5,397C 179.987,396.828 173.653,396.328 167.5,395.5 Z"/></g>
<g><path style="opacity:1" fill="#01f2f2" d="M 123.5,464.5 C 122.432,465.434 121.099,465.768 119.5,465.5C 119.5,455.833 119.5,446.167 119.5,436.5C 120.833,436.5 122.167,436.5 123.5,436.5C 123.5,445.833 123.5,455.167 123.5,464.5 Z"/></g>
<g><path style="opacity:1" fill="#f80000" d="M 124.5,437.5 C 127.287,436.523 130.287,436.19 133.5,436.5C 133.5,446.5 133.5,456.5 133.5,466.5C 136.059,466.198 138.393,466.532 140.5,467.5C 136.833,467.5 133.167,467.5 129.5,467.5C 129.5,457.5 129.5,447.5 129.5,437.5C 127.833,437.5 126.167,437.5 124.5,437.5 Z"/></g>
<g><path style="opacity:1" fill="#01f2f2" d="M 178.5,464.5 C 177.432,465.434 176.099,465.768 174.5,465.5C 174.5,455.833 174.5,446.167 174.5,436.5C 175.833,436.5 177.167,436.5 178.5,436.5C 178.5,445.833 178.5,455.167 178.5,464.5 Z"/></g>
<g><path style="opacity:1" fill="#ed0202" d="M 197.5,466.5 C 193.767,467.821 189.934,467.821 186,466.5C 184.097,459.627 181.93,452.96 179.5,446.5C 179.18,443.102 179.513,439.768 180.5,436.5C 184.351,445.888 187.518,455.555 190,465.5C 192.381,466.435 194.881,466.768 197.5,466.5 Z"/></g>
<g><path style="opacity:1" fill="#01f2f2" d="M 394.5,464.5 C 393.432,465.434 392.099,465.768 390.5,465.5C 390.5,455.833 390.5,446.167 390.5,436.5C 391.833,436.5 393.167,436.5 394.5,436.5C 394.5,445.833 394.5,455.167 394.5,464.5 Z"/></g>
<g><path style="opacity:1" fill="#f80000" d="M 395.5,437.5 C 398.287,436.523 401.287,436.19 404.5,436.5C 404.5,446.5 404.5,456.5 404.5,466.5C 407.059,466.198 409.393,466.532 411.5,467.5C 407.833,467.5 404.167,467.5 400.5,467.5C 400.5,457.5 400.5,447.5 400.5,437.5C 398.833,437.5 397.167,437.5 395.5,437.5 Z"/></g>
<g><path style="opacity:1" fill="#e30303" d="M 340.5,430.5 C 341.5,430.5 342.5,430.5 343.5,430.5C 343.5,433.167 343.5,435.833 343.5,438.5C 345.833,438.5 348.167,438.5 350.5,438.5C 350.666,443.511 350.499,448.511 350,453.5C 349.578,455.426 348.411,456.426 346.5,456.5C 345.833,456.5 345.5,456.167 345.5,455.5C 346.445,450.595 346.779,445.595 346.5,440.5C 344.5,440.5 342.5,440.5 340.5,440.5C 340.5,437.167 340.5,433.833 340.5,430.5 Z"/></g>
<g><path style="opacity:1" fill="#030302" d="M 340.5,440.5 C 342.5,440.5 344.5,440.5 346.5,440.5C 346.779,445.595 346.445,450.595 345.5,455.5C 343.418,455.376 341.918,454.376 341,452.5C 340.501,448.514 340.334,444.514 340.5,440.5 Z"/></g>
</svg>
