<?xml version="1.0" encoding="UTF-8"?>
<!DOCTYPE svg PUBLIC "-//W3C//DTD SVG 1.1//EN" "http://www.w3.org/Graphics/SVG/1.1/DTD/svg11.dtd">
<svg xmlns="http://www.w3.org/2000/svg" version="1.1" width="500px" height="500px" style="shape-rendering:geometricPrecision; text-rendering:geometricPrecision; image-rendering:optimizeQuality; fill-rule:evenodd; clip-rule:evenodd" xmlns:xlink="http://www.w3.org/1999/xlink">
<g><path style="opacity:1" fill="#c9e167" d="M -0.5,-0.5 C 166.167,-0.5 332.833,-0.5 499.5,-0.5C 499.5,166.167 499.5,332.833 499.5,499.5C 332.833,499.5 166.167,499.5 -0.5,499.5C -0.5,332.833 -0.5,166.167 -0.5,-0.5 Z"/></g>
<g><path style="opacity:1" fill="#282c1c" d="M 246.5,144.5 C 256.064,148.19 255.731,149.19 245.5,147.5C 246.127,146.583 246.461,145.583 246.5,144.5 Z"/></g>
<g><path style="opacity:1" fill="#1e1f1a" d="M 258.5,148.5 C 265.588,147.348 271.922,148.848 277.5,153C 277.167,153.333 276.833,153.667 276.5,154C 278.908,156.688 280.908,159.521 282.5,162.5C 284.103,162.312 285.437,162.812 286.5,164C 269.186,165.396 251.853,165.729 234.5,165C 239.864,164.829 245.198,164.329 250.5,163.5C 250.291,162.914 249.957,162.414 249.5,162C 252.149,157.182 255.149,152.682 258.5,148.5 Z"/></g>
<g><path style="opacity:1" fill="#1d1e1a" d="M 305.5,184.5 C 296.808,184.169 288.141,184.502 279.5,185.5C 279.624,186.107 279.957,186.44 280.5,186.5C 289.839,186.334 299.173,186.5 308.5,187C 308.833,187.333 309.167,187.667 309.5,188C 304.167,188.333 298.833,188.667 293.5,189C 301.188,189.169 308.855,189.669 316.5,190.5C 317.5,191.333 318.5,192.167 319.5,193C 314.5,193.333 309.5,193.667 304.5,194C 313.5,194.333 322.5,194.667 331.5,195C 322.167,195.333 312.833,195.667 303.5,196C 308.833,196.333 314.167,196.667 319.5,197C 317.744,197.202 316.078,197.702 314.5,198.5C 279.505,199.667 244.505,199.833 209.5,199C 211.962,197.784 214.629,197.118 217.5,197C 212.833,196.667 208.167,196.333 203.5,196C 213.833,195.667 224.167,195.333 234.5,195C 226.167,194.667 217.833,194.333 209.5,194C 214.864,193.829 220.198,193.329 225.5,192.5C 225.977,191.522 226.643,190.689 227.5,190C 220.833,189.667 214.167,189.333 207.5,189C 213.673,188.956 219.673,188.289 225.5,187C 216.833,186.667 208.167,186.333 199.5,186C 208.5,185.667 217.5,185.333 226.5,185C 227.167,184.333 227.833,183.667 228.5,183C 223.833,182.667 219.167,182.333 214.5,182C 222.833,181.667 231.167,181.333 239.5,181C 244.688,179.357 250.022,178.357 255.5,178C 251.833,177.667 248.167,177.333 244.5,177C 256.167,176.667 267.833,176.333 279.5,176C 270.5,175.667 261.5,175.333 252.5,175C 265.99,174.834 279.324,173.334 292.5,170.5C 294.067,170.477 295.4,170.977 296.5,172C 294.5,172.333 292.5,172.667 290.5,173C 293.167,173.333 295.833,173.667 298.5,174C 293.5,174.333 288.5,174.667 283.5,175C 294.167,175.333 304.833,175.667 315.5,176C 306.833,176.333 298.167,176.667 289.5,177C 294.823,177.499 300.156,177.666 305.5,177.5C 305.36,179.124 306.027,180.29 307.5,181C 300.833,181.333 294.167,181.667 287.5,182C 293.167,182.333 298.833,182.667 304.5,183C 305.056,183.383 305.389,183.883 305.5,184.5 Z"/></g>
<g><path style="opacity:1" fill="#555b37" d="M 305.5,184.5 C 297.738,185.194 289.405,185.861 280.5,186.5C 279.957,186.44 279.624,186.107 279.5,185.5C 288.141,184.502 296.808,184.169 305.5,184.5 Z"/></g>
<g><path style="opacity:1" fill="#1c1c1a" d="M 359.5,248.5 C 369.781,250.476 380.448,251.143 391.5,250.5C 384.248,251.347 376.248,251.847 367.5,252C 373.016,252.173 378.349,252.673 383.5,253.5C 376.854,254.093 370.188,254.759 363.5,255.5C 363.624,256.107 363.957,256.44 364.5,256.5C 370.176,256.334 375.843,256.501 381.5,257C 381.833,257.333 382.167,257.667 382.5,258C 373.5,258.333 364.5,258.667 355.5,259C 359.5,259.333 363.5,259.667 367.5,260C 364.833,260.333 362.167,260.667 359.5,261C 363.5,261.333 367.5,261.667 371.5,262C 351.48,262.669 331.48,263.669 311.5,265C 317.833,265.333 324.167,265.667 330.5,266C 319.532,267.119 308.532,267.785 297.5,268C 302.167,268.333 306.833,268.667 311.5,269C 300.866,270.11 290.199,270.777 279.5,271C 286.167,271.333 292.833,271.667 299.5,272C 280.497,272.382 261.497,272.216 242.5,271.5C 240.162,269.96 237.495,269.294 234.5,269.5C 223.533,268.734 212.533,268.234 201.5,268C 213.5,267.333 213.5,266.667 201.5,266C 190.167,265.667 178.833,265.333 167.5,265C 171.5,264.667 175.5,264.333 179.5,264C 176.167,263.667 172.833,263.333 169.5,263C 174.167,262.667 178.833,262.333 183.5,262C 169.747,262.021 156.081,261.021 142.5,259C 156.969,257.535 156.969,256.535 142.5,256C 148.5,255.667 154.5,255.333 160.5,255C 159.288,253.893 159.621,253.393 161.5,253.5C 162.833,253.5 163.5,252.833 163.5,251.5C 167.555,251.824 171.555,251.491 175.5,250.5C 165.851,249.668 156.184,249.168 146.5,249C 147.167,248.333 147.833,247.667 148.5,247C 153.833,246.667 159.167,246.333 164.5,246C 166.019,244.649 167.352,243.149 168.5,241.5C 166.922,240.702 165.256,240.202 163.5,240C 164.701,239.097 165.535,237.931 166,236.5C 168.908,234.975 172.074,233.975 175.5,233.5C 175.977,232.522 176.643,231.689 177.5,231C 172.5,230.667 167.5,230.333 162.5,230C 163.5,229 164.5,228 165.5,227C 175.833,226.667 186.167,226.333 196.5,226C 197.5,225 198.5,224 199.5,223C 190.833,222.667 182.167,222.333 173.5,222C 178.657,220.717 183.99,220.05 189.5,220C 190.833,219.333 190.833,218.667 189.5,218C 191.349,216.907 193.016,215.574 194.5,214C 187.833,213.667 181.167,213.333 174.5,213C 180.327,211.711 186.327,211.044 192.5,211C 187.5,210.667 182.5,210.333 177.5,210C 184.524,209.831 191.524,209.331 198.5,208.5C 199.09,207.201 200.09,206.368 201.5,206C 211.495,206.48 221.495,207.48 231.5,209C 226.833,209.333 222.167,209.667 217.5,210C 225.5,210.333 233.5,210.667 241.5,211C 238.167,211.333 234.833,211.667 231.5,212C 243.134,213.135 254.801,213.801 266.5,214C 279.774,216.372 293.107,218.372 306.5,220C 303.833,220.333 301.167,220.667 298.5,221C 311.798,222.191 325.131,222.858 338.5,223C 345.485,224.109 352.485,225.109 359.5,226C 351.5,226.333 343.5,226.667 335.5,227C 338.308,227.019 340.641,228.019 342.5,230C 348.167,230.333 353.833,230.667 359.5,231C 359.957,231.414 360.291,231.914 360.5,232.5C 358.922,233.298 357.256,233.798 355.5,234C 357.5,236 359.5,238 361.5,240C 363.833,240.333 366.167,240.667 368.5,241C 370.167,242.667 371.833,244.333 373.5,246C 368.394,245.886 363.727,246.72 359.5,248.5 Z"/></g>
<g><path style="opacity:1" fill="#444b2a" d="M 359.5,248.5 C 370.265,249.145 380.932,249.812 391.5,250.5C 380.448,251.143 369.781,250.476 359.5,248.5 Z"/></g>
<g><path style="opacity:1" fill="#626c37" d="M 163.5,251.5 C 163.5,252.833 162.833,253.5 161.5,253.5C 157.353,252.675 153.019,252.175 148.5,252C 153.489,251.501 158.489,251.334 163.5,251.5 Z"/></g>
<g><path style="opacity:1" fill="#69743a" d="M 383.5,253.5 C 377.399,255.149 371.065,256.149 364.5,256.5C 363.957,256.44 363.624,256.107 363.5,255.5C 370.188,254.759 376.854,254.093 383.5,253.5 Z"/></g>
<g><path style="opacity:1" fill="#636c34" d="M 234.5,269.5 C 237.495,269.294 240.162,269.96 242.5,271.5C 238.818,271.665 235.152,271.499 231.5,271C 232.737,270.768 233.737,270.268 234.5,269.5 Z"/></g>
<g><path style="opacity:1" fill="#fdfdfa" d="M 43.5,317.5 C 53.5056,317.334 63.5056,317.5 73.5,318C 74.4601,321.73 74.7935,325.563 74.5,329.5C 68.8333,329.5 63.1667,329.5 57.5,329.5C 57.5,330.833 57.5,332.167 57.5,333.5C 62.8333,333.5 68.1667,333.5 73.5,333.5C 73.7935,337.437 73.4601,341.27 72.5,345C 67.5111,345.499 62.5111,345.666 57.5,345.5C 57.5,349.5 57.5,353.5 57.5,357.5C 52.8333,357.5 48.1667,357.5 43.5,357.5C 43.5,344.167 43.5,330.833 43.5,317.5 Z"/></g>
<g><path style="opacity:1" fill="#fdfdfb" d="M 127.5,317.5 C 132.167,317.5 136.833,317.5 141.5,317.5C 141.334,326.173 141.5,334.84 142,343.5C 144.333,347.5 146.667,347.5 149,343.5C 149.5,334.84 149.666,326.173 149.5,317.5C 154.167,317.5 158.833,317.5 163.5,317.5C 163.666,327.172 163.5,336.839 163,346.5C 159.685,353.665 154.019,357.332 146,357.5C 137.948,358.474 131.948,355.474 128,348.5C 127.5,338.172 127.334,327.839 127.5,317.5 Z"/></g>
<g><path style="opacity:1" fill="#fdfdfa" d="M 175.5,357.5 C 173.548,344.748 172.882,331.748 173.5,318.5C 177.437,317.12 181.437,317.286 185.5,319C 188.705,323.238 191.538,327.738 194,332.5C 194.499,327.511 194.666,322.511 194.5,317.5C 199.322,316.935 203.822,317.601 208,319.5C 208.667,331.833 208.667,344.167 208,356.5C 203.882,357.798 199.715,357.798 195.5,356.5C 192.938,351.967 190.105,347.633 187,343.5C 186.501,348.155 186.334,352.821 186.5,357.5C 182.833,357.5 179.167,357.5 175.5,357.5 Z"/></g>
<g><path style="opacity:1" fill="#fdfdf9" d="M 217.5,317.5 C 224.841,317.334 232.174,317.5 239.5,318C 249.472,320.139 254.472,326.305 254.5,336.5C 254.606,341.648 253.94,346.648 252.5,351.5C 241.611,357.09 229.944,359.09 217.5,357.5C 217.5,344.167 217.5,330.833 217.5,317.5 Z"/></g>
<g><path style="opacity:1" fill="#fcfcf6" d="M 95.5,316.5 C 106.031,314.685 113.864,318.351 119,327.5C 120.149,335.707 119.482,343.707 117,351.5C 112.909,355.993 107.742,357.993 101.5,357.5C 87.533,358.2 80.8664,351.533 81.5,337.5C 79.8503,326.169 84.517,319.169 95.5,316.5 Z"/></g>
<g><path style="opacity:1" fill="#1d1e1a" d="M 307.5,317.5 C 319.5,317.5 331.5,317.5 343.5,317.5C 343.5,321.5 343.5,325.5 343.5,329.5C 339.833,329.5 336.167,329.5 332.5,329.5C 332.5,338.833 332.5,348.167 332.5,357.5C 327.901,357.8 323.401,357.467 319,356.5C 318.5,347.506 318.334,338.506 318.5,329.5C 314.833,329.5 311.167,329.5 307.5,329.5C 307.5,325.5 307.5,321.5 307.5,317.5 Z"/></g>
<g><path style="opacity:1" fill="#edf6c7" d="M 173.5,318.5 C 172.882,331.748 173.548,344.748 175.5,357.5C 174.5,357.5 173.5,357.5 172.5,357.5C 172.171,344.323 172.505,331.323 173.5,318.5 Z"/></g>
<g><path style="opacity:1" fill="#1c1d1b" d="M 351.5,317.5 C 356.167,317.5 360.833,317.5 365.5,317.5C 365.5,330.833 365.5,344.167 365.5,357.5C 360.833,357.5 356.167,357.5 351.5,357.5C 351.5,344.167 351.5,330.833 351.5,317.5 Z"/></g>
<g><path style="opacity:1" fill="#1c1d1a" d="M 420.5,317.5 C 424.182,317.335 427.848,317.501 431.5,318C 435.624,323.077 439.124,328.577 442,334.5C 442.499,328.843 442.666,323.176 442.5,317.5C 446.833,317.5 451.167,317.5 455.5,317.5C 455.5,330.833 455.5,344.167 455.5,357.5C 451.486,357.666 447.486,357.499 443.5,357C 440.859,352.205 437.859,347.705 434.5,343.5C 433.507,348.12 433.173,352.786 433.5,357.5C 429.167,357.5 424.833,357.5 420.5,357.5C 420.5,344.167 420.5,330.833 420.5,317.5 Z"/></g>
<g><path style="opacity:1" fill="#1d1d1a" d="M 385.5,317.5 C 393.45,316.414 400.783,317.914 407.5,322C 408.542,323.918 409.708,325.751 411,327.5C 415.572,353.267 405.406,362.433 380.5,355C 377.533,352.9 375.7,350.066 375,346.5C 374.333,340.167 374.333,333.833 375,327.5C 377.081,322.584 380.581,319.25 385.5,317.5 Z"/></g>
<g><path style="opacity:1" fill="#cbe167" d="M 97.5,328.5 C 100.044,328.104 102.211,328.771 104,330.5C 104.676,335.871 104.509,341.204 103.5,346.5C 101.167,346.5 98.8333,346.5 96.5,346.5C 96.2114,340.409 96.5447,334.409 97.5,328.5 Z"/></g>
<g><path style="opacity:1" fill="#cce26c" d="M 231.5,328.5 C 238.894,327.07 241.561,330.07 239.5,337.5C 240.982,344.488 238.316,347.488 231.5,346.5C 231.5,340.5 231.5,334.5 231.5,328.5 Z"/></g>
<g><path style="opacity:1" fill="#1d1d1a" d="M 273.5,317.5 C 278.179,317.334 282.845,317.501 287.5,318C 288.416,318.374 289.25,318.874 290,319.5C 294.475,332.104 298.641,344.771 302.5,357.5C 298.116,357.826 293.783,357.492 289.5,356.5C 288.754,355.264 288.421,353.93 288.5,352.5C 283.833,352.5 279.167,352.5 274.5,352.5C 274.773,354.451 274.107,355.951 272.5,357C 268.514,357.499 264.514,357.666 260.5,357.5C 264.819,344.187 269.153,330.854 273.5,317.5 Z"/></g>
<g><path style="opacity:1" fill="#b3c664" d="M 395.5,345.5 C 393.183,346.942 391.016,346.608 389,344.5C 388.333,339.5 388.333,334.5 389,329.5C 391.587,326.966 394.253,326.966 397,329.5C 397.667,334.5 397.667,339.5 397,344.5C 396.617,345.056 396.117,345.389 395.5,345.5 Z"/></g>
<g><path style="opacity:1" fill="#c9e061" d="M 395.5,345.5 C 394.5,345.5 393.5,345.5 392.5,345.5C 392.665,342.15 392.498,338.817 392,335.5C 391.667,338.5 391.333,341.5 391,344.5C 390.501,339.511 390.334,334.511 390.5,329.5C 392.262,329.357 393.929,329.691 395.5,330.5C 396.728,335.519 396.728,340.519 395.5,345.5 Z"/></g>
<g><path style="opacity:1" fill="#b8cd63" d="M 280.5,331.5 C 282.858,334.243 284.191,337.577 284.5,341.5C 282.5,341.5 280.5,341.5 278.5,341.5C 279.167,338.167 279.833,334.833 280.5,331.5 Z"/></g>
</svg>
