<?xml version="1.0" encoding="UTF-8"?>
<!DOCTYPE svg PUBLIC "-//W3C//DTD SVG 1.1//EN" "http://www.w3.org/Graphics/SVG/1.1/DTD/svg11.dtd">
<svg xmlns="http://www.w3.org/2000/svg" version="1.1" width="500px" height="500px" style="shape-rendering:geometricPrecision; text-rendering:geometricPrecision; image-rendering:optimizeQuality; fill-rule:evenodd; clip-rule:evenodd" xmlns:xlink="http://www.w3.org/1999/xlink">
<g><path style="opacity:1" fill="#010101" d="M -0.5,-0.5 C 166.167,-0.5 332.833,-0.5 499.5,-0.5C 499.5,166.167 499.5,332.833 499.5,499.5C 332.833,499.5 166.167,499.5 -0.5,499.5C -0.5,332.833 -0.5,166.167 -0.5,-0.5 Z"/></g>
<g><path style="opacity:1" fill="#828282" d="M 233.5,56.5 C 243.167,55.1667 252.833,55.1667 262.5,56.5C 261.508,56.3284 260.842,56.6618 260.5,57.5C 252.833,57.5 245.167,57.5 237.5,57.5C 236.432,56.5655 235.099,56.2322 233.5,56.5 Z"/></g>
<g><path style="opacity:1" fill="#0c0c0c" d="M 237.5,57.5 C 245.167,57.5 252.833,57.5 260.5,57.5C 264.182,57.3347 267.848,57.5014 271.5,58C 268.443,58.9165 265.776,60.4165 263.5,62.5C 263.158,63.3382 262.492,63.6716 261.5,63.5C 259.973,63.427 258.973,64.0937 258.5,65.5C 256.059,67.2713 253.393,68.6047 250.5,69.5C 247.535,67.8645 244.868,65.8645 242.5,63.5C 240.929,60.7687 238.595,58.9354 235.5,58C 236.094,57.5357 236.761,57.369 237.5,57.5 Z"/></g>
<g><path style="opacity:1" fill="#121212" d="M 196.5,63.5 C 203.448,61.9104 210.448,60.577 217.5,59.5C 220.799,58.6239 224.132,58.4572 227.5,59C 225.288,61.0425 223.288,63.2092 221.5,65.5C 213.038,64.8606 204.704,64.1939 196.5,63.5 Z"/></g>
<g><path style="opacity:1" fill="#070707" d="M 286.5,61.5 C 287.625,63.1288 288.959,64.6288 290.5,66C 279.109,66.4691 267.776,67.1358 256.5,68C 257.381,67.2917 258.047,66.4584 258.5,65.5C 260.027,65.573 261.027,64.9063 261.5,63.5C 262.492,63.6716 263.158,63.3382 263.5,62.5C 271.066,59.0835 278.732,58.7502 286.5,61.5 Z"/></g>
<g><path style="opacity:1" fill="#cbcbcb" d="M 260.5,57.5 C 260.842,56.6618 261.508,56.3284 262.5,56.5C 294.575,57.6366 324.241,66.6366 351.5,83.5C 351.167,84.1667 350.833,84.8333 350.5,85.5C 345.654,82.5766 340.654,79.9099 335.5,77.5C 334.914,77.7093 334.414,78.0426 334,78.5C 329.08,74.8542 323.58,72.3542 317.5,71C 320.544,70.6411 320.878,69.9745 318.5,69C 308.455,65.7801 298.289,62.9468 288,60.5C 287.235,60.5699 286.735,60.9033 286.5,61.5C 278.732,58.7502 271.066,59.0835 263.5,62.5C 265.776,60.4165 268.443,58.9165 271.5,58C 267.848,57.5014 264.182,57.3347 260.5,57.5 Z"/></g>
<g><path style="opacity:1" fill="#d3d3d3" d="M 214.5,58.5 C 215.791,58.2627 216.791,58.596 217.5,59.5C 210.448,60.577 203.448,61.9104 196.5,63.5C 195.833,63.5 195.5,63.1667 195.5,62.5C 201.507,60.164 207.841,58.8307 214.5,58.5 Z"/></g>
<g><path style="opacity:1" fill="#080808" d="M 294.5,69.5 C 294.751,71.1703 295.418,72.6703 296.5,74C 289.489,73.8512 282.489,73.1846 275.5,72C 253.338,70.7148 253.338,72.5481 275.5,77.5C 280.537,80.071 285.871,82.071 291.5,83.5C 293.426,85.2927 295.759,86.2927 298.5,86.5C 302.155,87.8389 303.821,90.5056 303.5,94.5C 302.5,94.5 301.5,94.5 300.5,94.5C 295.694,93.4074 290.694,92.7407 285.5,92.5C 282.162,92.9347 279.162,92.2681 276.5,90.5C 275.738,88.7376 274.404,87.7376 272.5,87.5C 268.546,83.1879 263.88,79.8545 258.5,77.5C 256.353,75.5305 254.02,73.6971 251.5,72C 264.895,68.1045 278.562,66.7712 292.5,68C 293.044,68.7172 293.711,69.2172 294.5,69.5 Z"/></g>
<g><path style="opacity:1" fill="#0a0a0a" d="M 245.5,77.5 C 242.067,80.6012 239.4,84.2679 237.5,88.5C 236.163,89.3149 235.163,90.4815 234.5,92C 232.527,92.4955 230.527,92.6621 228.5,92.5C 225.941,92.1984 223.607,92.5318 221.5,93.5C 219.5,93.5 217.5,93.5 215.5,93.5C 215.392,91.4862 216.058,89.8195 217.5,88.5C 216.957,88.44 216.624,88.1067 216.5,87.5C 217.488,84.5499 218.321,81.5499 219,78.5C 222.688,77.4407 226.188,76.1074 229.5,74.5C 233.244,74.3147 236.911,73.648 240.5,72.5C 241.167,72.6667 241.833,72.8333 242.5,73C 241.167,73.6667 239.833,74.3333 238.5,75C 237.304,75.6543 237.304,76.1543 238.5,76.5C 241.746,74.9608 244.912,73.2941 248,71.5C 247.517,73.5366 246.684,75.5366 245.5,77.5 Z"/></g>
<g><path style="opacity:1" fill="#080808" d="M 298.5,86.5 C 296.574,84.7073 294.241,83.7073 291.5,83.5C 286.618,80.5361 281.285,78.5361 275.5,77.5C 272.135,75.5377 268.468,74.0377 264.5,73C 275.596,73.2619 286.596,74.5952 297.5,77C 299.235,79.6368 300.568,82.4701 301.5,85.5C 300.675,86.3857 299.675,86.719 298.5,86.5 Z"/></g>
<g><path style="opacity:1" fill="#ababab" d="M 233.5,56.5 C 235.099,56.2322 236.432,56.5655 237.5,57.5C 236.761,57.369 236.094,57.5357 235.5,58C 238.595,58.9354 240.929,60.7687 242.5,63.5C 244.868,65.8645 247.535,67.8645 250.5,69.5C 253.393,68.6047 256.059,67.2713 258.5,65.5C 258.047,66.4584 257.381,67.2917 256.5,68C 267.776,67.1358 279.109,66.4691 290.5,66C 288.959,64.6288 287.625,63.1288 286.5,61.5C 288.886,62.3733 290.886,63.8733 292.5,66C 300.635,66.5605 308.635,67.8938 316.5,70C 309.46,69.7451 302.46,68.9118 295.5,67.5C 294.702,67.9569 294.369,68.6236 294.5,69.5C 293.711,69.2172 293.044,68.7172 292.5,68C 278.562,66.7712 264.895,68.1045 251.5,72C 254.02,73.6971 256.353,75.5305 258.5,77.5C 256.321,77.16 254.488,76.16 253,74.5C 252.833,75 252.667,75.5 252.5,76C 254.018,79.7175 255.018,83.5508 255.5,87.5C 253.596,82.9723 251.763,78.3056 250,73.5C 248.629,75.0414 247.129,76.3747 245.5,77.5C 246.684,75.5366 247.517,73.5366 248,71.5C 244.912,73.2941 241.746,74.9608 238.5,76.5C 237.304,76.1543 237.304,75.6543 238.5,75C 239.833,74.3333 241.167,73.6667 242.5,73C 241.833,72.8333 241.167,72.6667 240.5,72.5C 236.911,73.648 233.244,74.3147 229.5,74.5C 226.188,76.1074 222.688,77.4407 219,78.5C 218.321,81.5499 217.488,84.5499 216.5,87.5C 216.624,88.1067 216.957,88.44 217.5,88.5C 216.058,89.8195 215.392,91.4862 215.5,93.5C 217.5,93.5 219.5,93.5 221.5,93.5C 222.492,93.3284 223.158,93.6618 223.5,94.5C 220.615,94.1936 217.948,94.5269 215.5,95.5C 214.71,94.3915 214.21,93.0581 214,91.5C 213.329,92.2524 212.496,92.5858 211.5,92.5C 212.315,91.1634 213.482,90.1634 215,89.5C 215.356,85.8539 216.189,82.3539 217.5,79C 216.906,78.5357 216.239,78.369 215.5,78.5C 216.66,77.735 217.66,76.735 218.5,75.5C 214.219,75.0802 209.885,74.9135 205.5,75C 210.309,74.2455 214.975,73.0789 219.5,71.5C 222.651,67.7335 221.651,65.9002 216.5,66C 206.464,65.2441 196.464,65.5774 186.5,67C 181.101,69.2562 176.101,72.0895 171.5,75.5C 171.953,74.5416 172.619,73.7083 173.5,73C 169.619,73.4265 165.953,74.7599 162.5,77C 156.708,80.9594 151.374,85.4594 146.5,90.5C 147.543,87.9438 149.21,85.7772 151.5,84C 150.181,83.805 148.847,83.9717 147.5,84.5C 162.233,74.4679 178.233,67.1345 195.5,62.5C 195.5,63.1667 195.833,63.5 196.5,63.5C 204.704,64.1939 213.038,64.8606 221.5,65.5C 223.288,63.2092 225.288,61.0425 227.5,59C 224.132,58.4572 220.799,58.6239 217.5,59.5C 216.791,58.596 215.791,58.2627 214.5,58.5C 220.63,57.2528 226.963,56.5862 233.5,56.5 Z"/></g>
<g><path style="opacity:1" fill="#1f1f1f" d="M 229.5,74.5 C 226.399,74.6917 223.399,75.3584 220.5,76.5C 219.614,75.675 219.281,74.675 219.5,73.5C 223.215,73.6797 226.882,73.3464 230.5,72.5C 231.167,72.6667 231.833,72.8333 232.5,73C 231.263,73.2321 230.263,73.7321 229.5,74.5 Z"/></g>
<g><path style="opacity:1" fill="#080808" d="M 222.5,66.5 C 228.187,67.4708 233.854,68.6375 239.5,70C 233.226,71.475 226.893,72.1417 220.5,72C 221.861,70.4157 222.528,68.5824 222.5,66.5 Z"/></g>
<g><path style="opacity:1" fill="#a3a3a3" d="M 261.5,63.5 C 261.027,64.9063 260.027,65.573 258.5,65.5C 258.973,64.0937 259.973,63.427 261.5,63.5 Z"/></g>
<g><path style="opacity:1" fill="#060606" d="M 242.5,63.5 C 243.228,65.7346 244.561,67.5679 246.5,69C 239.013,68.4634 231.679,66.9634 224.5,64.5C 226.316,61.3484 228.983,59.3484 232.5,58.5C 236.166,59.6661 239.499,61.3328 242.5,63.5 Z"/></g>
<g><path style="opacity:1" fill="#080808" d="M 255.5,87.5 C 255.5,88.8333 255.5,90.1667 255.5,91.5C 253.167,91.5 250.833,91.5 248.5,91.5C 245.098,91.3424 241.764,91.6758 238.5,92.5C 237.624,92.6309 236.957,92.2975 236.5,91.5C 237.127,90.5832 237.461,89.5832 237.5,88.5C 240.898,85.3733 243.565,81.7066 245.5,77.5C 247.129,76.3747 248.629,75.0414 250,73.5C 251.763,78.3056 253.596,82.9723 255.5,87.5 Z"/></g>
<g><path style="opacity:1" fill="#080808" d="M 286.5,61.5 C 286.735,60.9033 287.235,60.5699 288,60.5C 298.289,62.9468 308.455,65.7801 318.5,69C 320.878,69.9745 320.544,70.6411 317.5,71C 323.58,72.3542 329.08,74.8542 334,78.5C 334.414,78.0426 334.914,77.7093 335.5,77.5C 340.654,79.9099 345.654,82.5766 350.5,85.5C 353.539,88.5398 356.873,91.2065 360.5,93.5C 360.631,94.2389 360.464,94.9056 360,95.5C 356.441,93.1358 352.608,91.4691 348.5,90.5C 347.158,89.207 345.491,88.3736 343.5,88C 342.378,85.8762 340.878,84.0429 339,82.5C 338.493,83.9961 338.993,85.1627 340.5,86C 338.893,85.9813 337.226,85.8146 335.5,85.5C 343.376,88.2143 347.043,93.881 346.5,102.5C 339.18,101.004 331.846,99.5038 324.5,98C 320.453,96.5596 316.62,94.7263 313,92.5C 312.5,92.6667 312,92.8333 311.5,93C 312.672,93.4186 313.672,94.0853 314.5,95C 311.366,95.7901 308.366,95.4568 305.5,94C 304.269,92.8173 304.269,91.6507 305.5,90.5C 306.768,91.4279 308.101,91.5946 309.5,91C 307.336,90.0857 305.336,88.919 303.5,87.5C 302.455,84.1941 301.122,81.0274 299.5,78C 301.5,77.6667 303.5,77.3333 305.5,77C 303.122,76.4888 300.788,75.8221 298.5,75C 297.512,72.833 296.179,70.9997 294.5,69.5C 294.369,68.6236 294.702,67.9569 295.5,67.5C 302.46,68.9118 309.46,69.7451 316.5,70C 308.635,67.8938 300.635,66.5605 292.5,66C 290.886,63.8733 288.886,62.3733 286.5,61.5 Z"/></g>
<g><path style="opacity:1" fill="#9b9b9b" d="M 335.5,85.5 C 334.178,85.33 333.011,85.6634 332,86.5C 331.612,85.572 330.945,84.9054 330,84.5C 322.184,82.2544 314.351,80.0877 306.5,78C 316.671,78.7922 326.338,81.2922 335.5,85.5 Z"/></g>
<g><path style="opacity:1" fill="#a6a6a6" d="M 245.5,77.5 C 243.565,81.7066 240.898,85.3733 237.5,88.5C 239.4,84.2679 242.067,80.6012 245.5,77.5 Z"/></g>
<g><path style="opacity:1" fill="#060606" d="M 258.5,77.5 C 262.806,81.3214 267.473,84.6547 272.5,87.5C 273.29,88.7942 274.29,89.9609 275.5,91C 270.511,91.4993 265.511,91.6659 260.5,91.5C 257.6,91.5922 255.933,90.2589 255.5,87.5C 255.018,83.5508 254.018,79.7175 252.5,76C 252.667,75.5 252.833,75 253,74.5C 254.488,76.16 256.321,77.16 258.5,77.5 Z"/></g>
<g><path style="opacity:1" fill="#a1a1a1" d="M 228.5,81.5 C 230.331,79.2513 232.664,78.0846 235.5,78C 233.423,79.705 231.09,80.8717 228.5,81.5 Z"/></g>
<g><path style="opacity:1" fill="#9c9c9c" d="M 258.5,77.5 C 263.88,79.8545 268.546,83.1879 272.5,87.5C 267.473,84.6547 262.806,81.3214 258.5,77.5 Z"/></g>
<g><path style="opacity:1" fill="#a7a7a7" d="M 275.5,77.5 C 281.285,78.5361 286.618,80.5361 291.5,83.5C 285.871,82.071 280.537,80.071 275.5,77.5 Z"/></g>
<g><path style="opacity:1" fill="#a7a7a7" d="M 228.5,81.5 C 227.341,83.2503 225.674,84.2503 223.5,84.5C 224.659,82.7497 226.326,81.7497 228.5,81.5 Z"/></g>
<g><path style="opacity:1" fill="#a1a1a1" d="M 291.5,83.5 C 294.241,83.7073 296.574,84.7073 298.5,86.5C 295.759,86.2927 293.426,85.2927 291.5,83.5 Z"/></g>
<g><path style="opacity:1" fill="#a9a9a9" d="M 223.5,84.5 C 223.027,85.9063 222.027,86.573 220.5,86.5C 220.973,85.0937 221.973,84.427 223.5,84.5 Z"/></g>
<g><path style="opacity:1" fill="#989898" d="M 351.5,83.5 C 355.382,85.9341 359.048,88.6007 362.5,91.5C 357.135,88.5016 356.468,89.1683 360.5,93.5C 356.873,91.2065 353.539,88.5398 350.5,85.5C 350.833,84.8333 351.167,84.1667 351.5,83.5 Z"/></g>
<g><path style="opacity:1" fill="#a3a3a3" d="M 220.5,86.5 C 220.027,87.9063 219.027,88.573 217.5,88.5C 217.973,87.0937 218.973,86.427 220.5,86.5 Z"/></g>
<g><path style="opacity:1" fill="#a7a7a7" d="M 147.5,84.5 C 145.371,86.9501 142.704,88.6167 139.5,89.5C 141.629,87.0499 144.296,85.3833 147.5,84.5 Z"/></g>
<g><path style="opacity:1" fill="#a2a2a2" d="M 294.5,69.5 C 296.179,70.9997 297.512,72.833 298.5,75C 300.788,75.8221 303.122,76.4888 305.5,77C 303.5,77.3333 301.5,77.6667 299.5,78C 301.122,81.0274 302.455,84.1941 303.5,87.5C 305.336,88.919 307.336,90.0857 309.5,91C 308.101,91.5946 306.768,91.4279 305.5,90.5C 304.269,91.6507 304.269,92.8173 305.5,94C 308.366,95.4568 311.366,95.7901 314.5,95C 313.672,94.0853 312.672,93.4186 311.5,93C 312,92.8333 312.5,92.6667 313,92.5C 316.62,94.7263 320.453,96.5596 324.5,98C 331.846,99.5038 339.18,101.004 346.5,102.5C 347.043,93.881 343.376,88.2143 335.5,85.5C 337.226,85.8146 338.893,85.9813 340.5,86C 338.993,85.1627 338.493,83.9961 339,82.5C 340.878,84.0429 342.378,85.8762 343.5,88C 345.491,88.3736 347.158,89.207 348.5,90.5C 347.325,90.281 346.325,90.6143 345.5,91.5C 347.106,95.3532 348.272,99.3532 349,103.5C 352.047,104.562 354.88,105.895 357.5,107.5C 354.171,107.002 351.005,106.002 348,104.5C 347.443,106.615 346.609,108.615 345.5,110.5C 346.193,111.518 346.859,112.518 347.5,113.5C 345.914,112.587 344.414,112.587 343,113.5C 342.59,112.099 342.09,110.766 341.5,109.5C 342.496,109.414 343.329,109.748 344,110.5C 344.837,108.649 345.671,106.816 346.5,105C 340.588,102.176 334.588,101.009 328.5,101.5C 321.494,98.5645 314.161,96.8978 306.5,96.5C 307.549,105.737 309.216,114.737 311.5,123.5C 313.129,124.625 314.629,125.959 316,127.5C 318.007,126.331 320.173,125.665 322.5,125.5C 320.364,126.653 318.364,127.986 316.5,129.5C 315.027,128.929 313.36,128.929 311.5,129.5C 310.833,129.833 310.167,130.167 309.5,130.5C 308.167,130.5 306.833,130.5 305.5,130.5C 306.568,129.566 307.901,129.232 309.5,129.5C 309.212,126.061 308.546,122.728 307.5,119.5C 308.124,119.083 308.457,118.416 308.5,117.5C 307.165,110.155 305.832,102.822 304.5,95.5C 302.833,95.5 301.167,95.5 299.5,95.5C 299.5,94.8333 299.833,94.5 300.5,94.5C 301.5,94.5 302.5,94.5 303.5,94.5C 303.821,90.5056 302.155,87.8389 298.5,86.5C 299.675,86.719 300.675,86.3857 301.5,85.5C 300.568,82.4701 299.235,79.6368 297.5,77C 286.596,74.5952 275.596,73.2619 264.5,73C 268.468,74.0377 272.135,75.5377 275.5,77.5C 253.338,72.5481 253.338,70.7148 275.5,72C 282.489,73.1846 289.489,73.8512 296.5,74C 295.418,72.6703 294.751,71.1703 294.5,69.5 Z"/></g>
<g><path style="opacity:1" fill="#bbbbbb" d="M 139.5,89.5 C 139.027,90.9063 138.027,91.573 136.5,91.5C 136.973,90.0937 137.973,89.427 139.5,89.5 Z"/></g>
<g><path style="opacity:1" fill="#0a0a0a" d="M 154.5,89.5 C 155.833,89.5 156.5,90.1667 156.5,91.5C 156.672,92.4916 156.338,93.1583 155.5,93.5C 153.034,97.0184 152.034,101.018 152.5,105.5C 147.058,106.758 141.724,108.425 136.5,110.5C 135.571,109.311 135.238,107.978 135.5,106.5C 138.137,103.011 140.637,99.3447 143,95.5C 144.878,94.9473 146.378,93.9473 147.5,92.5C 150.241,92.2927 152.574,91.2927 154.5,89.5 Z"/></g>
<g><path style="opacity:1" fill="#070707" d="M 348.5,90.5 C 353.613,93.5591 358.947,96.3924 364.5,99C 366.037,100.707 367.704,102.207 369.5,103.5C 370.759,107.025 372.759,110.025 375.5,112.5C 375.672,113.492 375.338,114.158 374.5,114.5C 371.912,112.375 368.912,111.042 365.5,110.5C 363.208,108.733 360.542,107.733 357.5,107.5C 354.88,105.895 352.047,104.562 349,103.5C 348.272,99.3532 347.106,95.3532 345.5,91.5C 346.325,90.6143 347.325,90.281 348.5,90.5 Z"/></g>
<g><path style="opacity:1" fill="#676767" d="M 248.5,91.5 C 251.167,92.1667 253.833,92.8333 256.5,93.5C 250.5,93.5 244.5,93.5 238.5,93.5C 238.5,93.1667 238.5,92.8333 238.5,92.5C 241.764,91.6758 245.098,91.3424 248.5,91.5 Z"/></g>
<g><path style="opacity:1" fill="#b8b8b8" d="M 255.5,87.5 C 255.933,90.2589 257.6,91.5922 260.5,91.5C 259.329,92.3446 257.995,93.0113 256.5,93.5C 253.833,92.8333 251.167,92.1667 248.5,91.5C 250.833,91.5 253.167,91.5 255.5,91.5C 255.5,90.1667 255.5,88.8333 255.5,87.5 Z"/></g>
<g><path style="opacity:1" fill="#707070" d="M 272.5,87.5 C 274.404,87.7376 275.738,88.7376 276.5,90.5C 276.218,91.7777 275.551,92.7777 274.5,93.5C 269.167,93.5 263.833,93.5 258.5,93.5C 258.5,94.8333 258.5,96.1667 258.5,97.5C 257.655,96.3285 256.989,94.9952 256.5,93.5C 257.995,93.0113 259.329,92.3446 260.5,91.5C 265.511,91.6659 270.511,91.4993 275.5,91C 274.29,89.9609 273.29,88.7942 272.5,87.5 Z"/></g>
<g><path style="opacity:1" fill="#9d9d9d" d="M 362.5,91.5 C 364.027,91.427 365.027,92.0937 365.5,93.5C 363.973,93.573 362.973,92.9063 362.5,91.5 Z"/></g>
<g><path style="opacity:1" fill="#b1b1b1" d="M 136.5,91.5 C 135.738,93.2624 134.404,94.2624 132.5,94.5C 133.262,92.7376 134.596,91.7376 136.5,91.5 Z"/></g>
<g><path style="opacity:1" fill="#0e0e0e" d="M 146.5,90.5 C 140.303,95.0933 133.97,99.4266 127.5,103.5C 125.973,103.427 124.973,104.094 124.5,105.5C 122.973,105.427 121.973,106.094 121.5,107.5C 120.153,108.028 118.819,108.195 117.5,108C 119.373,106.296 121.04,104.463 122.5,102.5C 125.089,101.581 127.089,99.914 128.5,97.5C 130.404,97.2624 131.738,96.2624 132.5,94.5C 134.404,94.2624 135.738,93.2624 136.5,91.5C 138.027,91.573 139.027,90.9063 139.5,89.5C 142.704,88.6167 145.371,86.9501 147.5,84.5C 148.847,83.9717 150.181,83.805 151.5,84C 149.21,85.7772 147.543,87.9438 146.5,90.5 Z"/></g>
<g><path style="opacity:1" fill="#696969" d="M 221.5,93.5 C 223.607,92.5318 225.941,92.1984 228.5,92.5C 228.842,93.3382 229.508,93.6716 230.5,93.5C 228.393,94.4682 226.059,94.8016 223.5,94.5C 223.158,93.6618 222.492,93.3284 221.5,93.5 Z"/></g>
<g><path style="opacity:1" fill="#bbbbbb" d="M 237.5,88.5 C 237.461,89.5832 237.127,90.5832 236.5,91.5C 236.957,92.2975 237.624,92.6309 238.5,92.5C 238.5,92.8333 238.5,93.1667 238.5,93.5C 237.022,93.238 235.689,93.5713 234.5,94.5C 233.639,96.9106 232.306,98.9106 230.5,100.5C 231.086,98.1602 232.086,95.9935 233.5,94C 232.552,93.5172 231.552,93.3505 230.5,93.5C 229.508,93.6716 228.842,93.3382 228.5,92.5C 230.527,92.6621 232.527,92.4955 234.5,92C 235.163,90.4815 236.163,89.3149 237.5,88.5 Z"/></g>
<g><path style="opacity:1" fill="#c5c5c5" d="M 276.5,90.5 C 279.162,92.2681 282.162,92.9347 285.5,92.5C 284.167,93.1667 282.833,93.8333 281.5,94.5C 279.236,93.7814 276.903,93.448 274.5,93.5C 275.551,92.7777 276.218,91.7777 276.5,90.5 Z"/></g>
<g><path style="opacity:1" fill="#767676" d="M 285.5,92.5 C 290.694,92.7407 295.694,93.4074 300.5,94.5C 299.833,94.5 299.5,94.8333 299.5,95.5C 296.188,95.0572 292.855,94.7238 289.5,94.5C 287.048,94.5391 285.048,95.2057 283.5,96.5C 282.167,96.5 281.5,95.8333 281.5,94.5C 282.833,93.8333 284.167,93.1667 285.5,92.5 Z"/></g>
<g><path style="opacity:1" fill="#030303" d="M 230.5,93.5 C 231.552,93.3505 232.552,93.5172 233.5,94C 232.086,95.9935 231.086,98.1602 230.5,100.5C 232.306,98.9106 233.639,96.9106 234.5,94.5C 235.689,93.5713 237.022,93.238 238.5,93.5C 244.5,93.5 250.5,93.5 256.5,93.5C 256.989,94.9952 257.655,96.3285 258.5,97.5C 261.29,109.874 264.29,122.207 267.5,134.5C 251.15,135.829 234.817,135.662 218.5,134C 217.244,133.583 216.577,132.75 216.5,131.5C 215.533,132.806 214.199,133.473 212.5,133.5C 212.5,129.167 212.5,124.833 212.5,120.5C 213.678,112.225 214.678,103.892 215.5,95.5C 217.948,94.5269 220.615,94.1936 223.5,94.5C 226.059,94.8016 228.393,94.4682 230.5,93.5 Z"/></g>
<g><path style="opacity:1" fill="#020202" d="M 274.5,93.5 C 276.903,93.448 279.236,93.7814 281.5,94.5C 281.5,95.8333 282.167,96.5 283.5,96.5C 285.239,99.2427 287.573,101.243 290.5,102.5C 295.833,108.5 301.5,114.167 307.5,119.5C 308.546,122.728 309.212,126.061 309.5,129.5C 307.901,129.232 306.568,129.566 305.5,130.5C 293.248,132.573 280.915,133.906 268.5,134.5C 265.924,121.854 262.591,109.521 258.5,97.5C 258.5,96.1667 258.5,94.8333 258.5,93.5C 263.833,93.5 269.167,93.5 274.5,93.5 Z"/></g>
<g><path style="opacity:1" fill="#050505" d="M 299.5,95.5 C 301.167,95.5 302.833,95.5 304.5,95.5C 305.832,102.822 307.165,110.155 308.5,117.5C 308.457,118.416 308.124,119.083 307.5,119.5C 302.833,112.833 297.167,107.167 290.5,102.5C 288.761,99.7573 286.427,97.7573 283.5,96.5C 285.048,95.2057 287.048,94.5391 289.5,94.5C 292.855,94.7238 296.188,95.0572 299.5,95.5 Z"/></g>
<g><path style="opacity:1" fill="#a9a9a9" d="M 365.5,93.5 C 367.404,93.7376 368.738,94.7376 369.5,96.5C 367.596,96.2624 366.262,95.2624 365.5,93.5 Z"/></g>
<g><path style="opacity:1" fill="#a6a6a6" d="M 132.5,94.5 C 131.738,96.2624 130.404,97.2624 128.5,97.5C 129.262,95.7376 130.596,94.7376 132.5,94.5 Z"/></g>
<g><path style="opacity:1" fill="#030303" d="M 211.5,120.5 C 211.5,124.5 211.5,128.5 211.5,132.5C 199.056,131.556 187.056,128.722 175.5,124C 179.42,120.251 183.086,116.417 186.5,112.5C 189.427,111.243 191.761,109.243 193.5,106.5C 196.089,105.581 198.089,103.914 199.5,101.5C 201.404,101.262 202.738,100.262 203.5,98.5C 205.196,98.3146 206.529,97.4813 207.5,96C 209.473,95.5045 211.473,95.3379 213.5,95.5C 213.194,103.868 212.527,112.201 211.5,120.5 Z"/></g>
<g><path style="opacity:1" fill="#8d8d8d" d="M 215.5,95.5 C 214.678,103.892 213.678,112.225 212.5,120.5C 212.167,120.5 211.833,120.5 211.5,120.5C 212.527,112.201 213.194,103.868 213.5,95.5C 211.473,95.3379 209.473,95.5045 207.5,96C 206.529,97.4813 205.196,98.3146 203.5,98.5C 205.054,97.1054 204.721,96.4387 202.5,96.5C 195.213,98.042 187.88,98.8753 180.5,99C 191.037,97.3981 201.37,95.2315 211.5,92.5C 212.496,92.5858 213.329,92.2524 214,91.5C 214.21,93.0581 214.71,94.3915 215.5,95.5 Z"/></g>
<g><path style="opacity:1" fill="#b3b3b3" d="M 348.5,90.5 C 352.608,91.4691 356.441,93.1358 360,95.5C 360.464,94.9056 360.631,94.2389 360.5,93.5C 363.901,96.9083 367.568,99.9083 371.5,102.5C 370.508,102.328 369.842,102.662 369.5,103.5C 367.704,102.207 366.037,100.707 364.5,99C 358.947,96.3924 353.613,93.5591 348.5,90.5 Z"/></g>
<g><path style="opacity:1" fill="#a4a4a4" d="M 369.5,96.5 C 371.749,97.0798 373.415,98.4131 374.5,100.5C 372.251,99.9202 370.585,98.5869 369.5,96.5 Z"/></g>
<g><path style="opacity:1" fill="#0f0f0f" d="M 362.5,91.5 C 362.973,92.9063 363.973,93.573 365.5,93.5C 366.262,95.2624 367.596,96.2624 369.5,96.5C 370.585,98.5869 372.251,99.9202 374.5,100.5C 375.911,102.914 377.911,104.581 380.5,105.5C 380.5,106.167 380.5,106.833 380.5,107.5C 379.609,106.89 378.609,106.557 377.5,106.5C 377.027,105.094 376.027,104.427 374.5,104.5C 374.027,103.094 373.027,102.427 371.5,102.5C 367.568,99.9083 363.901,96.9083 360.5,93.5C 356.468,89.1683 357.135,88.5016 362.5,91.5 Z"/></g>
<g><path style="opacity:1" fill="#7a7a7a" d="M 155.5,93.5 C 154.756,97.1185 154.423,100.785 154.5,104.5C 153.833,104.833 153.167,105.167 152.5,105.5C 152.034,101.018 153.034,97.0184 155.5,93.5 Z"/></g>
<g><path style="opacity:1" fill="#9b9b9b" d="M 203.5,98.5 C 202.738,100.262 201.404,101.262 199.5,101.5C 200.262,99.7376 201.596,98.7376 203.5,98.5 Z"/></g>
<g><path style="opacity:1" fill="#9c9c9c" d="M 283.5,96.5 C 286.427,97.7573 288.761,99.7573 290.5,102.5C 287.573,101.243 285.239,99.2427 283.5,96.5 Z"/></g>
<g><path style="opacity:1" fill="#878787" d="M 128.5,97.5 C 127.089,99.914 125.089,101.581 122.5,102.5C 123.911,100.086 125.911,98.4194 128.5,97.5 Z"/></g>
<g><path style="opacity:1" fill="#0c0c0c" d="M 135.5,106.5 C 134.275,107.937 133.275,109.604 132.5,111.5C 130.64,112.325 128.974,113.325 127.5,114.5C 124.759,114.707 122.426,115.707 120.5,117.5C 118.62,117.229 117.287,117.896 116.5,119.5C 114.62,119.229 113.287,119.896 112.5,121.5C 109.669,122.079 107.336,123.412 105.5,125.5C 103.973,125.427 102.973,126.094 102.5,127.5C 100.983,127.511 99.8159,128.177 99,129.5C 98.8333,129.167 98.6667,128.833 98.5,128.5C 100.523,126.147 102.523,123.814 104.5,121.5C 108.12,119.547 111.12,116.881 113.5,113.5C 116.533,111.984 119.2,109.984 121.5,107.5C 123.027,107.573 124.027,106.906 124.5,105.5C 126.027,105.573 127.027,104.906 127.5,103.5C 131.358,101.653 135.192,99.6532 139,97.5C 137.907,100.381 136.74,103.381 135.5,106.5 Z"/></g>
<g><path style="opacity:1" fill="#9f9f9f" d="M 328.5,101.5 C 330.674,101.75 332.341,102.75 333.5,104.5C 331.326,104.25 329.659,103.25 328.5,101.5 Z"/></g>
<g><path style="opacity:1" fill="#0c0c0c" d="M 328.5,101.5 C 334.588,101.009 340.588,102.176 346.5,105C 345.671,106.816 344.837,108.649 344,110.5C 343.329,109.748 342.496,109.414 341.5,109.5C 341.027,108.094 340.027,107.427 338.5,107.5C 337.341,105.75 335.674,104.75 333.5,104.5C 332.341,102.75 330.674,101.75 328.5,101.5 Z"/></g>
<g><path style="opacity:1" fill="#9f9f9f" d="M 146.5,90.5 C 146.328,91.4916 146.662,92.1583 147.5,92.5C 146.378,93.9473 144.878,94.9473 143,95.5C 140.637,99.3447 138.137,103.011 135.5,106.5C 136.74,103.381 137.907,100.381 139,97.5C 135.192,99.6532 131.358,101.653 127.5,103.5C 133.97,99.4266 140.303,95.0933 146.5,90.5 Z"/></g>
<g><path style="opacity:1" fill="#a9a9a9" d="M 371.5,102.5 C 373.027,102.427 374.027,103.094 374.5,104.5C 372.973,104.573 371.973,103.906 371.5,102.5 Z"/></g>
<g><path style="opacity:1" fill="#9e9e9e" d="M 374.5,100.5 C 377.089,101.419 379.089,103.086 380.5,105.5C 377.911,104.581 375.911,102.914 374.5,100.5 Z"/></g>
<g><path style="opacity:1" fill="#9e9e9e" d="M 127.5,103.5 C 127.027,104.906 126.027,105.573 124.5,105.5C 124.973,104.094 125.973,103.427 127.5,103.5 Z"/></g>
<g><path style="opacity:1" fill="#a8a8a8" d="M 333.5,104.5 C 335.674,104.75 337.341,105.75 338.5,107.5C 336.326,107.25 334.659,106.25 333.5,104.5 Z"/></g>
<g><path style="opacity:1" fill="#989898" d="M 369.5,103.5 C 372.277,105.951 374.277,108.951 375.5,112.5C 372.759,110.025 370.759,107.025 369.5,103.5 Z"/></g>
<g><path style="opacity:1" fill="#a9a9a9" d="M 374.5,104.5 C 376.027,104.427 377.027,105.094 377.5,106.5C 375.973,106.573 374.973,105.906 374.5,104.5 Z"/></g>
<g><path style="opacity:1" fill="#838383" d="M 199.5,101.5 C 198.089,103.914 196.089,105.581 193.5,106.5C 194.911,104.086 196.911,102.419 199.5,101.5 Z"/></g>
<g><path style="opacity:1" fill="#060606" d="M 357.5,107.5 C 359.792,109.267 362.458,110.267 365.5,110.5C 368.088,112.625 371.088,113.958 374.5,114.5C 376.5,115.833 378.167,117.5 379.5,119.5C 379.66,121.153 380.326,122.486 381.5,123.5C 381.707,126.241 382.707,128.574 384.5,130.5C 385.826,135.482 387.159,140.482 388.5,145.5C 388.333,146.167 388.167,146.833 388,147.5C 386.296,145.627 384.463,143.96 382.5,142.5C 378.773,137.77 374.44,133.77 369.5,130.5C 368.089,128.086 366.089,126.419 363.5,125.5C 362.415,123.413 360.749,122.08 358.5,121.5C 357.738,119.738 356.404,118.738 354.5,118.5C 353.738,116.738 352.404,115.738 350.5,115.5C 350.027,114.094 349.027,113.427 347.5,113.5C 346.859,112.518 346.193,111.518 345.5,110.5C 346.609,108.615 347.443,106.615 348,104.5C 351.005,106.002 354.171,107.002 357.5,107.5 Z"/></g>
<g><path style="opacity:1" fill="#9e9e9e" d="M 124.5,105.5 C 124.027,106.906 123.027,107.573 121.5,107.5C 121.973,106.094 122.973,105.427 124.5,105.5 Z"/></g>
<g><path style="opacity:1" fill="#a3a3a3" d="M 377.5,106.5 C 378.609,106.557 379.609,106.89 380.5,107.5C 380.833,108.167 381.167,108.833 381.5,109.5C 379.596,109.262 378.262,108.262 377.5,106.5 Z"/></g>
<g><path style="opacity:1" fill="#050505" d="M 215.5,78.5 C 216.239,78.369 216.906,78.5357 217.5,79C 216.189,82.3539 215.356,85.8539 215,89.5C 213.482,90.1634 212.315,91.1634 211.5,92.5C 201.37,95.2315 191.037,97.3981 180.5,99C 187.88,98.8753 195.213,98.042 202.5,96.5C 204.721,96.4387 205.054,97.1054 203.5,98.5C 201.596,98.7376 200.262,99.7376 199.5,101.5C 196.911,102.419 194.911,104.086 193.5,106.5C 190.573,107.757 188.239,109.757 186.5,112.5C 181.908,115.586 177.742,119.253 174,123.5C 170.738,122.159 170.238,122.492 172.5,124.5C 170.722,126.264 169.389,128.264 168.5,130.5C 165.48,132.523 163.146,135.19 161.5,138.5C 159.086,139.911 157.419,141.911 156.5,144.5C 154.738,145.262 153.738,146.596 153.5,148.5C 152.094,148.973 151.427,149.973 151.5,151.5C 149.738,152.262 148.738,153.596 148.5,155.5C 147.094,155.973 146.427,156.973 146.5,158.5C 145.094,158.973 144.427,159.973 144.5,161.5C 143.094,161.973 142.427,162.973 142.5,164.5C 140.75,165.659 139.75,167.326 139.5,169.5C 137.75,170.659 136.75,172.326 136.5,174.5C 133.816,178.02 131.482,181.853 129.5,186C 126.736,186.532 124.07,187.366 121.5,188.5C 120.626,177.506 120.793,166.506 122,155.5C 123.722,144.392 125.888,133.392 128.5,122.5C 131.37,121.567 133.704,119.9 135.5,117.5C 141.432,114.084 147.265,110.418 153,106.5C 154.957,111.95 158.457,115.95 163.5,118.5C 159.755,115.084 156.755,111.084 154.5,106.5C 162.704,103.892 171.037,101.725 179.5,100C 173.898,99.9053 168.398,100.739 163,102.5C 161.989,102.108 161.489,101.441 161.5,100.5C 158.976,101.592 156.643,102.926 154.5,104.5C 154.423,100.785 154.756,97.1185 155.5,93.5C 156.338,93.1583 156.672,92.4916 156.5,91.5C 157.974,90.5637 158.974,89.2303 159.5,87.5C 157.447,87.4021 155.78,88.0687 154.5,89.5C 151.759,89.7073 149.426,90.7073 147.5,92.5C 146.662,92.1583 146.328,91.4916 146.5,90.5C 151.374,85.4594 156.708,80.9594 162.5,77C 165.953,74.7599 169.619,73.4265 173.5,73C 172.619,73.7083 171.953,74.5416 171.5,75.5C 176.101,72.0895 181.101,69.2562 186.5,67C 196.464,65.5774 206.464,65.2441 216.5,66C 221.651,65.9002 222.651,67.7335 219.5,71.5C 214.975,73.0789 210.309,74.2455 205.5,75C 209.885,74.9135 214.219,75.0802 218.5,75.5C 217.66,76.735 216.66,77.735 215.5,78.5 Z"/></g>
<g><path style="opacity:1" fill="#a6a6a6" d="M 169.5,95.5 C 170.552,95.3505 171.552,95.5172 172.5,96C 170.598,97.3011 168.598,97.9678 166.5,98C 167.571,97.1482 168.571,96.3149 169.5,95.5 Z"/></g>
<g><path style="opacity:1" fill="#aaaaaa" d="M 185.5,89.5 C 182.923,91.7895 179.923,92.9562 176.5,93C 179.309,91.2589 182.309,90.0922 185.5,89.5 Z"/></g>
<g><path style="opacity:1" fill="#b1b1b1" d="M 154.5,89.5 C 152.574,91.2927 150.241,92.2927 147.5,92.5C 149.426,90.7073 151.759,89.7073 154.5,89.5 Z"/></g>
<g><path style="opacity:1" fill="#b3b3b3" d="M 159.5,87.5 C 158.974,89.2303 157.974,90.5637 156.5,91.5C 156.5,90.1667 155.833,89.5 154.5,89.5C 155.78,88.0687 157.447,87.4021 159.5,87.5 Z"/></g>
<g><path style="opacity:1" fill="#989898" d="M 159.5,87.5 C 160.031,85.4559 161.198,83.7893 163,82.5C 162.923,83.7376 163.089,84.7376 163.5,85.5C 176.827,80.5839 190.493,77.4172 204.5,76C 189.278,79.0555 174.278,82.8888 159.5,87.5 Z"/></g>
<g><path style="opacity:1" fill="#9d9d9d" d="M 215.5,78.5 C 205.717,82.5412 195.717,86.2079 185.5,89.5C 194.993,84.6666 204.993,80.9999 215.5,78.5 Z"/></g>
<g><path style="opacity:1" fill="#858585" d="M 171.5,75.5 C 170.121,78.0735 168.121,79.5735 165.5,80C 167.114,77.8733 169.114,76.3733 171.5,75.5 Z"/></g>
<g><path style="opacity:1" fill="#9f9f9f" d="M 338.5,107.5 C 340.027,107.427 341.027,108.094 341.5,109.5C 339.973,109.573 338.973,108.906 338.5,107.5 Z"/></g>
<g><path style="opacity:1" fill="#656565" d="M 122.5,102.5 C 121.04,104.463 119.373,106.296 117.5,108C 118.819,108.195 120.153,108.028 121.5,107.5C 119.2,109.984 116.533,111.984 113.5,113.5C 112.761,113.631 112.094,113.464 111.5,113C 112.381,112.292 113.047,111.458 113.5,110.5C 115.9,107.097 118.9,104.43 122.5,102.5 Z"/></g>
<g><path style="opacity:1" fill="#a4a4a4" d="M 357.5,107.5 C 360.542,107.733 363.208,108.733 365.5,110.5C 362.458,110.267 359.792,109.267 357.5,107.5 Z"/></g>
<g><path style="opacity:1" fill="#868686" d="M 193.5,106.5 C 191.761,109.243 189.427,111.243 186.5,112.5C 188.239,109.757 190.573,107.757 193.5,106.5 Z"/></g>
<g><path style="opacity:1" fill="#a8a8a8" d="M 230.5,100.5 C 228.618,105.265 226.452,109.932 224,114.5C 224.804,109.225 226.97,104.558 230.5,100.5 Z"/></g>
<g><path style="opacity:1" fill="#9b9b9b" d="M 163.5,118.5 C 158.457,115.95 154.957,111.95 153,106.5C 147.265,110.418 141.432,114.084 135.5,117.5C 133.704,119.9 131.37,121.567 128.5,122.5C 128.756,120.063 129.423,117.729 130.5,115.5C 129.675,114.614 128.675,114.281 127.5,114.5C 128.974,113.325 130.64,112.325 132.5,111.5C 133.275,109.604 134.275,107.937 135.5,106.5C 135.238,107.978 135.571,109.311 136.5,110.5C 141.724,108.425 147.058,106.758 152.5,105.5C 153.167,105.167 153.833,104.833 154.5,104.5C 156.643,102.926 158.976,101.592 161.5,100.5C 161.489,101.441 161.989,102.108 163,102.5C 168.398,100.739 173.898,99.9053 179.5,100C 171.037,101.725 162.704,103.892 154.5,106.5C 156.755,111.084 159.755,115.084 163.5,118.5 Z"/></g>
<g><path style="opacity:1" fill="#0b0b0b" d="M 135.5,117.5 C 133.956,117.703 132.622,118.37 131.5,119.5C 131.015,117.223 131.681,115.056 133.5,113C 137.74,111.029 142.073,109.695 146.5,109C 142.403,111.37 138.736,114.203 135.5,117.5 Z"/></g>
<g><path style="opacity:1" fill="#0b0b0b" d="M 369.5,103.5 C 369.842,102.662 370.508,102.328 371.5,102.5C 371.973,103.906 372.973,104.573 374.5,104.5C 374.973,105.906 375.973,106.573 377.5,106.5C 378.262,108.262 379.596,109.262 381.5,109.5C 384.539,112.54 387.873,115.206 391.5,117.5C 394.5,121.167 397.833,124.5 401.5,127.5C 402.419,130.089 404.086,132.089 406.5,133.5C 406.631,134.239 406.464,134.906 406,135.5C 403.894,132.882 401.394,130.882 398.5,129.5C 397.415,127.413 395.749,126.08 393.5,125.5C 393.027,124.094 392.027,123.427 390.5,123.5C 389.341,121.75 387.674,120.75 385.5,120.5C 384.341,118.75 382.674,117.75 380.5,117.5C 378.614,116.07 376.947,114.403 375.5,112.5C 374.277,108.951 372.277,105.951 369.5,103.5 Z"/></g>
<g><path style="opacity:1" fill="#9e9e9e" d="M 365.5,110.5 C 368.912,111.042 371.912,112.375 374.5,114.5C 371.088,113.958 368.088,112.625 365.5,110.5 Z"/></g>
<g><path style="opacity:1" fill="#020202" d="M 328.5,101.5 C 329.659,103.25 331.326,104.25 333.5,104.5C 334.659,106.25 336.326,107.25 338.5,107.5C 338.973,108.906 339.973,109.573 341.5,109.5C 342.09,110.766 342.59,112.099 343,113.5C 344.414,112.587 345.914,112.587 347.5,113.5C 347.973,114.906 348.973,115.573 350.5,115.5C 351.262,117.262 352.596,118.262 354.5,118.5C 355.262,120.262 356.596,121.262 358.5,121.5C 359.585,123.587 361.251,124.92 363.5,125.5C 364.911,127.914 366.911,129.581 369.5,130.5C 373.227,135.23 377.56,139.23 382.5,142.5C 384.388,145.899 386.888,148.899 390,151.5C 391.976,160.733 393.142,170.066 393.5,179.5C 393.5,184.5 393.5,189.5 393.5,194.5C 391.883,193.962 390.216,193.629 388.5,193.5C 377.003,188.452 365.003,184.619 352.5,182C 350.85,178.515 348.85,175.349 346.5,172.5C 347.42,175.508 348.754,178.341 350.5,181C 338.005,178.306 325.339,176.139 312.5,174.5C 312.5,170.5 312.5,166.5 312.5,162.5C 312.823,156.31 312.49,150.31 311.5,144.5C 311.5,139.5 311.5,134.5 311.5,129.5C 313.36,128.929 315.027,128.929 316.5,129.5C 318.364,127.986 320.364,126.653 322.5,125.5C 320.173,125.665 318.007,126.331 316,127.5C 314.629,125.959 313.129,124.625 311.5,123.5C 309.216,114.737 307.549,105.737 306.5,96.5C 314.161,96.8978 321.494,98.5645 328.5,101.5 Z"/></g>
<g><path style="opacity:1" fill="#9e9e9e" d="M 347.5,113.5 C 349.027,113.427 350.027,114.094 350.5,115.5C 348.973,115.573 347.973,114.906 347.5,113.5 Z"/></g>
<g><path style="opacity:1" fill="#959595" d="M 290.5,102.5 C 297.167,107.167 302.833,112.833 307.5,119.5C 301.5,114.167 295.833,108.5 290.5,102.5 Z"/></g>
<g><path style="opacity:1" fill="#929292" d="M 380.5,105.5 C 385.46,108.792 389.793,112.792 393.5,117.5C 392.833,117.5 392.167,117.5 391.5,117.5C 387.873,115.206 384.539,112.54 381.5,109.5C 381.167,108.833 380.833,108.167 380.5,107.5C 380.5,106.833 380.5,106.167 380.5,105.5 Z"/></g>
<g><path style="opacity:1" fill="#929292" d="M 113.5,110.5 C 113.047,111.458 112.381,112.292 111.5,113C 112.094,113.464 112.761,113.631 113.5,113.5C 111.12,116.881 108.12,119.547 104.5,121.5C 103.833,121.5 103.5,121.167 103.5,120.5C 105.855,116.145 109.188,112.812 113.5,110.5 Z"/></g>
<g><path style="opacity:1" fill="#9c9c9c" d="M 350.5,115.5 C 352.404,115.738 353.738,116.738 354.5,118.5C 352.596,118.262 351.262,117.262 350.5,115.5 Z"/></g>
<g><path style="opacity:1" fill="#c4c4c4" d="M 375.5,112.5 C 376.947,114.403 378.614,116.07 380.5,117.5C 379.662,117.842 379.328,118.508 379.5,119.5C 378.167,117.5 376.5,115.833 374.5,114.5C 375.338,114.158 375.672,113.492 375.5,112.5 Z"/></g>
<g><path style="opacity:1" fill="#b5b5b5" d="M 127.5,114.5 C 125.574,116.293 123.241,117.293 120.5,117.5C 122.426,115.707 124.759,114.707 127.5,114.5 Z"/></g>
<g><path style="opacity:1" fill="#a2a2a2" d="M 336.5,118.5 C 337.254,116.554 338.588,115.721 340.5,116C 339.529,117.481 338.196,118.315 336.5,118.5 Z"/></g>
<g><path style="opacity:1" fill="#9e9e9e" d="M 380.5,117.5 C 382.674,117.75 384.341,118.75 385.5,120.5C 383.326,120.25 381.659,119.25 380.5,117.5 Z"/></g>
<g><path style="opacity:1" fill="#bcbcbc" d="M 120.5,117.5 C 119.486,118.674 118.153,119.34 116.5,119.5C 117.287,117.896 118.62,117.229 120.5,117.5 Z"/></g>
<g><path style="opacity:1" fill="#a3a3a3" d="M 163.5,118.5 C 165.423,118.795 167.09,119.628 168.5,121C 166.332,121.249 164.665,120.416 163.5,118.5 Z"/></g>
<g><path style="opacity:1" fill="#a5a5a5" d="M 216.5,131.5 C 217.756,126.314 219.59,121.314 222,116.5C 221.256,121.898 219.423,126.898 216.5,131.5 Z"/></g>
<g><path style="opacity:1" fill="#9d9d9d" d="M 354.5,118.5 C 356.404,118.738 357.738,119.738 358.5,121.5C 356.596,121.262 355.262,120.262 354.5,118.5 Z"/></g>
<g><path style="opacity:1" fill="#070707" d="M 127.5,114.5 C 128.675,114.281 129.675,114.614 130.5,115.5C 129.423,117.729 128.756,120.063 128.5,122.5C 125.553,123.781 123.219,125.781 121.5,128.5C 116.895,131.436 112.895,135.102 109.5,139.5C 105.434,142.563 102.101,146.229 99.5,150.5C 97.086,151.911 95.4194,153.911 94.5,156.5C 91.8852,158.379 89.7186,160.712 88,163.5C 87.2086,164.745 86.7086,166.078 86.5,167.5C 85.0937,167.973 84.427,168.973 84.5,170.5C 83.7784,170.082 83.2784,169.416 83,168.5C 82.5012,164.514 82.3345,160.514 82.5,156.5C 83.6836,149.463 86.5169,143.13 91,137.5C 95.0261,134.302 98.8595,130.968 102.5,127.5C 104.027,127.573 105.027,126.906 105.5,125.5C 108.331,124.921 110.664,123.588 112.5,121.5C 114.153,121.34 115.486,120.674 116.5,119.5C 118.153,119.34 119.486,118.674 120.5,117.5C 123.241,117.293 125.574,116.293 127.5,114.5 Z"/></g>
<g><path style="opacity:1" fill="#b2b2b2" d="M 116.5,119.5 C 115.486,120.674 114.153,121.34 112.5,121.5C 113.287,119.896 114.62,119.229 116.5,119.5 Z"/></g>
<g><path style="opacity:1" fill="#484848" d="M 380.5,117.5 C 381.659,119.25 383.326,120.25 385.5,120.5C 387.674,120.75 389.341,121.75 390.5,123.5C 387.796,122.286 385.129,122.286 382.5,123.5C 382.167,123.5 381.833,123.5 381.5,123.5C 380.326,122.486 379.66,121.153 379.5,119.5C 379.328,118.508 379.662,117.842 380.5,117.5 Z"/></g>
<g><path style="opacity:1" fill="#767676" d="M 336.5,118.5 C 334.693,119.836 333.193,121.503 332,123.5C 331.329,122.748 330.496,122.414 329.5,122.5C 331.336,120.412 333.669,119.079 336.5,118.5 Z"/></g>
<g><path style="opacity:1" fill="#9d9d9d" d="M 358.5,121.5 C 360.749,122.08 362.415,123.413 363.5,125.5C 361.251,124.92 359.585,123.587 358.5,121.5 Z"/></g>
<g><path style="opacity:1" fill="#040404" d="M 390.5,123.5 C 390.973,124.906 391.973,125.573 393.5,125.5C 394.585,127.587 396.251,128.92 398.5,129.5C 402.194,133.86 406.194,137.86 410.5,141.5C 414.487,145.808 417.154,150.808 418.5,156.5C 419.105,164.679 417.438,172.346 413.5,179.5C 412.391,179.443 411.391,179.11 410.5,178.5C 410.573,176.973 409.906,175.973 408.5,175.5C 407.277,171.951 405.277,168.951 402.5,166.5C 402.262,164.596 401.262,163.262 399.5,162.5C 398.864,160.205 397.531,158.539 395.5,157.5C 394.969,155.456 393.802,153.789 392,152.5C 390.364,144.755 387.864,137.422 384.5,130.5C 384.122,128.079 383.455,125.746 382.5,123.5C 385.129,122.286 387.796,122.286 390.5,123.5 Z"/></g>
<g><path style="opacity:1" fill="#d7d7d7" d="M 391.5,117.5 C 392.167,117.5 392.833,117.5 393.5,117.5C 396.57,120.564 399.237,123.897 401.5,127.5C 397.833,124.5 394.5,121.167 391.5,117.5 Z"/></g>
<g><path style="opacity:1" fill="#adadad" d="M 112.5,121.5 C 110.664,123.588 108.331,124.921 105.5,125.5C 107.336,123.412 109.669,122.079 112.5,121.5 Z"/></g>
<g><path style="opacity:1" fill="#909090" d="M 329.5,122.5 C 327.794,124.536 325.461,125.536 322.5,125.5C 324.509,123.935 326.843,122.935 329.5,122.5 Z"/></g>
<g><path style="opacity:1" fill="#a9a9a9" d="M 390.5,123.5 C 392.027,123.427 393.027,124.094 393.5,125.5C 391.973,125.573 390.973,124.906 390.5,123.5 Z"/></g>
<g><path style="opacity:1" fill="#9c9c9c" d="M 186.5,112.5 C 183.086,116.417 179.42,120.251 175.5,124C 187.056,128.722 199.056,131.556 211.5,132.5C 211.328,133.492 211.662,134.158 212.5,134.5C 212.343,135.873 212.51,137.207 213,138.5C 213.278,137.584 213.778,136.918 214.5,136.5C 213.833,139.5 213.167,142.5 212.5,145.5C 211.833,149.5 211.167,153.5 210.5,157.5C 210.795,155.265 210.461,153.265 209.5,151.5C 210.354,145.879 210.687,140.212 210.5,134.5C 198.331,132.833 186.497,129.833 175,125.5C 172.683,126.985 170.516,128.652 168.5,130.5C 169.389,128.264 170.722,126.264 172.5,124.5C 170.238,122.492 170.738,122.159 174,123.5C 177.742,119.253 181.908,115.586 186.5,112.5 Z"/></g>
<g><path style="opacity:1" fill="#010101" d="M 209.5,151.5 C 206.92,157.142 205.253,163.142 204.5,169.5C 203.733,170.172 203.066,171.005 202.5,172C 179.239,173.852 156.406,178.019 134,184.5C 133.5,184.167 133,183.833 132.5,183.5C 134.12,180.596 135.453,177.596 136.5,174.5C 138.25,173.341 139.25,171.674 139.5,169.5C 141.25,168.341 142.25,166.674 142.5,164.5C 143.906,164.027 144.573,163.027 144.5,161.5C 145.906,161.027 146.573,160.027 146.5,158.5C 147.906,158.027 148.573,157.027 148.5,155.5C 150.262,154.738 151.262,153.404 151.5,151.5C 152.906,151.027 153.573,150.027 153.5,148.5C 155.262,147.738 156.262,146.404 156.5,144.5C 158.914,143.089 160.581,141.089 161.5,138.5C 164.55,136.451 166.883,133.784 168.5,130.5C 170.516,128.652 172.683,126.985 175,125.5C 186.497,129.833 198.331,132.833 210.5,134.5C 210.687,140.212 210.354,145.879 209.5,151.5 Z"/></g>
<g><path style="opacity:1" fill="#060606" d="M 311.5,123.5 C 311.511,125.017 312.177,126.184 313.5,127C 312.975,127.692 312.308,128.192 311.5,128.5C 310.212,126.701 310.212,125.035 311.5,123.5 Z"/></g>
<g><path style="opacity:1" fill="#aaaaaa" d="M 381.5,123.5 C 381.833,123.5 382.167,123.5 382.5,123.5C 383.455,125.746 384.122,128.079 384.5,130.5C 382.707,128.574 381.707,126.241 381.5,123.5 Z"/></g>
<g><path style="opacity:1" fill="#b0b0b0" d="M 105.5,125.5 C 105.027,126.906 104.027,127.573 102.5,127.5C 102.973,126.094 103.973,125.427 105.5,125.5 Z"/></g>
<g><path style="opacity:1" fill="#969696" d="M 363.5,125.5 C 366.089,126.419 368.089,128.086 369.5,130.5C 366.911,129.581 364.911,127.914 363.5,125.5 Z"/></g>
<g><path style="opacity:1" fill="#969696" d="M 393.5,125.5 C 395.749,126.08 397.415,127.413 398.5,129.5C 396.251,128.92 394.585,127.587 393.5,125.5 Z"/></g>
<g><path style="opacity:1" fill="#020202" d="M 115.5,191.5 C 113.447,191.402 111.78,192.069 110.5,193.5C 108.418,193.472 106.584,194.139 105,195.5C 104.329,194.748 103.496,194.414 102.5,194.5C 101.738,192.738 100.404,191.738 98.5,191.5C 95.8333,188.167 92.8333,185.167 89.5,182.5C 88.6597,180.147 87.3264,178.147 85.5,176.5C 85.1667,174.5 84.8333,172.5 84.5,170.5C 85.9063,170.027 86.573,169.027 86.5,167.5C 89.8979,164.373 92.5646,160.707 94.5,156.5C 96.914,155.089 98.5806,153.089 99.5,150.5C 103.566,147.437 106.899,143.771 109.5,139.5C 114.105,136.564 118.105,132.898 121.5,128.5C 123.371,128.141 124.871,127.141 126,125.5C 121.312,146.497 118.812,167.83 118.5,189.5C 117.261,189.942 116.261,190.609 115.5,191.5 Z"/></g>
<g><path style="opacity:1" fill="#929292" d="M 121.5,128.5 C 118.105,132.898 114.105,136.564 109.5,139.5C 112.895,135.102 116.895,131.436 121.5,128.5 Z"/></g>
<g><path style="opacity:1" fill="#010101" d="M 305.5,130.5 C 306.833,130.5 308.167,130.5 309.5,130.5C 310.032,136.152 310.365,141.819 310.5,147.5C 310.5,156.167 310.5,164.833 310.5,173.5C 309.167,173.5 307.833,173.5 306.5,173.5C 296.199,172.37 285.866,171.703 275.5,171.5C 273.499,159.829 271.499,148.163 269.5,136.5C 281.859,135.88 293.859,133.88 305.5,130.5 Z"/></g>
<g><path style="opacity:1" fill="#979797" d="M 316.5,129.5 C 318.914,130.911 320.581,132.911 321.5,135.5C 319.086,134.089 317.419,132.089 316.5,129.5 Z"/></g>
<g><path style="opacity:1" fill="#a9a9a9" d="M 401.5,127.5 C 403.914,128.911 405.581,130.911 406.5,133.5C 404.086,132.089 402.419,130.089 401.5,127.5 Z"/></g>
<g><path style="opacity:1" fill="#888888" d="M 311.5,129.5 C 311.5,134.5 311.5,139.5 311.5,144.5C 311.737,145.791 311.404,146.791 310.5,147.5C 310.365,141.819 310.032,136.152 309.5,130.5C 310.167,130.167 310.833,129.833 311.5,129.5 Z"/></g>
<g><path style="opacity:1" fill="#919191" d="M 168.5,130.5 C 166.883,133.784 164.55,136.451 161.5,138.5C 163.146,135.19 165.48,132.523 168.5,130.5 Z"/></g>
<g><path style="opacity:1" fill="#111111" d="M 212.5,134.5 C 213.833,134.5 214.5,135.167 214.5,136.5C 213.778,136.918 213.278,137.584 213,138.5C 212.51,137.207 212.343,135.873 212.5,134.5 Z"/></g>
<g><path style="opacity:1" fill="#8c8c8c" d="M 305.5,130.5 C 293.859,133.88 281.859,135.88 269.5,136.5C 269.167,135.833 268.833,135.167 268.5,134.5C 280.915,133.906 293.248,132.573 305.5,130.5 Z"/></g>
<g><path style="opacity:1" fill="#8b8b8b" d="M 398.5,129.5 C 401.394,130.882 403.894,132.882 406,135.5C 406.464,134.906 406.631,134.239 406.5,133.5C 408.89,134.891 410.557,136.891 411.5,139.5C 410.662,139.842 410.328,140.508 410.5,141.5C 406.194,137.86 402.194,133.86 398.5,129.5 Z"/></g>
<g><path style="opacity:1" fill="#030303" d="M 267.5,136.5 C 270.143,147.714 272.143,159.047 273.5,170.5C 256.167,170.5 238.833,170.5 221.5,170.5C 218.5,170.5 215.5,170.5 212.5,170.5C 212.5,162.167 212.5,153.833 212.5,145.5C 213.167,142.5 213.833,139.5 214.5,136.5C 232.083,136.279 249.75,136.279 267.5,136.5 Z"/></g>
<g><path style="opacity:1" fill="#b9b9b9" d="M 258.5,97.5 C 262.591,109.521 265.924,121.854 268.5,134.5C 268.833,135.167 269.167,135.833 269.5,136.5C 268.833,136.5 268.167,136.5 267.5,136.5C 249.75,136.279 232.083,136.279 214.5,136.5C 214.5,135.167 213.833,134.5 212.5,134.5C 211.662,134.158 211.328,133.492 211.5,132.5C 211.5,128.5 211.5,124.5 211.5,120.5C 211.833,120.5 212.167,120.5 212.5,120.5C 212.5,124.833 212.5,129.167 212.5,133.5C 214.199,133.473 215.533,132.806 216.5,131.5C 216.577,132.75 217.244,133.583 218.5,134C 234.817,135.662 251.15,135.829 267.5,134.5C 264.29,122.207 261.29,109.874 258.5,97.5 Z"/></g>
<g><path style="opacity:1" fill="#949494" d="M 369.5,130.5 C 374.44,133.77 378.773,137.77 382.5,142.5C 377.56,139.23 373.227,135.23 369.5,130.5 Z"/></g>
<g><path style="opacity:1" fill="#9c9c9c" d="M 321.5,135.5 C 323.587,136.585 324.92,138.251 325.5,140.5C 323.413,139.415 322.08,137.749 321.5,135.5 Z"/></g>
<g><path style="opacity:1" fill="#999999" d="M 325.5,140.5 C 326.906,140.973 327.573,141.973 327.5,143.5C 326.094,143.027 325.427,142.027 325.5,140.5 Z"/></g>
<g><path style="opacity:1" fill="#d4d4d4" d="M 103.5,120.5 C 103.5,121.167 103.833,121.5 104.5,121.5C 102.523,123.814 100.523,126.147 98.5,128.5C 98.6667,128.833 98.8333,129.167 99,129.5C 99.8159,128.177 100.983,127.511 102.5,127.5C 98.8595,130.968 95.0261,134.302 91,137.5C 86.5169,143.13 83.6836,149.463 82.5,156.5C 82.1667,156.5 81.8333,156.5 81.5,156.5C 81.6716,155.508 81.3382,154.842 80.5,154.5C 81.1157,153.202 81.1157,152.202 80.5,151.5C 86.4628,139.91 94.1294,129.577 103.5,120.5 Z"/></g>
<g><path style="opacity:1" fill="#a0a0a0" d="M 161.5,138.5 C 160.581,141.089 158.914,143.089 156.5,144.5C 157.419,141.911 159.086,139.911 161.5,138.5 Z"/></g>
<g><path style="opacity:1" fill="#9c9c9c" d="M 327.5,143.5 C 329.262,144.262 330.262,145.596 330.5,147.5C 328.738,146.738 327.738,145.404 327.5,143.5 Z"/></g>
<g><path style="opacity:1" fill="#9e9e9e" d="M 156.5,144.5 C 156.262,146.404 155.262,147.738 153.5,148.5C 153.738,146.596 154.738,145.262 156.5,144.5 Z"/></g>
<g><path style="opacity:1" fill="#939393" d="M 109.5,139.5 C 106.899,143.771 103.566,147.437 99.5,150.5C 102.101,146.229 105.434,142.563 109.5,139.5 Z"/></g>
<g><path style="opacity:1" fill="#9a9a9a" d="M 153.5,148.5 C 153.573,150.027 152.906,151.027 151.5,151.5C 151.427,149.973 152.094,148.973 153.5,148.5 Z"/></g>
<g><path style="opacity:1" fill="#a8a8a8" d="M 330.5,147.5 C 331.906,147.973 332.573,148.973 332.5,150.5C 331.094,150.027 330.427,149.027 330.5,147.5 Z"/></g>
<g><path style="opacity:1" fill="#606060" d="M 311.5,144.5 C 312.49,150.31 312.823,156.31 312.5,162.5C 311.517,166.298 311.183,170.298 311.5,174.5C 310.209,174.263 309.209,174.596 308.5,175.5C 306.901,175.768 305.568,175.434 304.5,174.5C 305.492,174.672 306.158,174.338 306.5,173.5C 307.833,173.5 309.167,173.5 310.5,173.5C 310.5,164.833 310.5,156.167 310.5,147.5C 311.404,146.791 311.737,145.791 311.5,144.5 Z"/></g>
<g><path style="opacity:1" fill="#858585" d="M 99.5,150.5 C 98.5806,153.089 96.914,155.089 94.5,156.5C 95.4194,153.911 97.086,151.911 99.5,150.5 Z"/></g>
<g><path style="opacity:1" fill="#9a9a9a" d="M 151.5,151.5 C 151.262,153.404 150.262,154.738 148.5,155.5C 148.738,153.596 149.738,152.262 151.5,151.5 Z"/></g>
<g><path style="opacity:1" fill="#a4a4a4" d="M 384.5,130.5 C 387.864,137.422 390.364,144.755 392,152.5C 393.802,153.789 394.969,155.456 395.5,157.5C 394.542,157.047 393.708,156.381 393,155.5C 392.833,156.333 392.667,157.167 392.5,158C 393.86,164.432 394.527,170.932 394.5,177.5C 394.672,178.492 394.338,179.158 393.5,179.5C 393.142,170.066 391.976,160.733 390,151.5C 386.888,148.899 384.388,145.899 382.5,142.5C 384.463,143.96 386.296,145.627 388,147.5C 388.167,146.833 388.333,146.167 388.5,145.5C 387.159,140.482 385.826,135.482 384.5,130.5 Z"/></g>
<g><path style="opacity:1" fill="#dbdbdb" d="M 411.5,139.5 C 415.936,145.37 419.603,151.703 422.5,158.5C 422.5,159.167 422.167,159.5 421.5,159.5C 421.136,157.555 420.469,156.555 419.5,156.5C 419.167,156.5 418.833,156.5 418.5,156.5C 417.154,150.808 414.487,145.808 410.5,141.5C 410.328,140.508 410.662,139.842 411.5,139.5 Z"/></g>
<g><path style="opacity:1" fill="#a4a4a4" d="M 332.5,150.5 C 335.046,152.281 336.546,154.614 337,157.5C 334.98,155.449 333.48,153.116 332.5,150.5 Z"/></g>
<g><path style="opacity:1" fill="#050505" d="M 395.5,157.5 C 396.124,159.754 397.457,161.421 399.5,162.5C 399.738,164.404 400.738,165.738 402.5,166.5C 403.759,170.025 405.759,173.025 408.5,175.5C 408.427,177.027 409.094,178.027 410.5,178.5C 410.833,179.833 411.167,181.167 411.5,182.5C 407.833,185.5 404.5,188.833 401.5,192.5C 399.517,193.471 397.517,194.471 395.5,195.5C 395.823,189.31 395.49,183.31 394.5,177.5C 394.527,170.932 393.86,164.432 392.5,158C 392.667,157.167 392.833,156.333 393,155.5C 393.708,156.381 394.542,157.047 395.5,157.5 Z"/></g>
<g><path style="opacity:1" fill="#a4a4a4" d="M 148.5,155.5 C 148.573,157.027 147.906,158.027 146.5,158.5C 146.427,156.973 147.094,155.973 148.5,155.5 Z"/></g>
<g><path style="opacity:1" fill="#070707" d="M 209.5,151.5 C 210.461,153.265 210.795,155.265 210.5,157.5C 210.5,162.167 210.5,166.833 210.5,171.5C 207.918,171.975 205.918,171.308 204.5,169.5C 206.944,163.819 208.611,157.819 209.5,151.5 Z"/></g>
<g><path style="opacity:1" fill="#939393" d="M 80.5,151.5 C 81.1157,152.202 81.1157,153.202 80.5,154.5C 77.6719,162.332 74.6719,169.999 71.5,177.5C 72.1198,172.806 73.4531,168.306 75.5,164C 75.3333,163.5 75.1667,163 75,162.5C 73.6667,165.167 72.3333,167.833 71,170.5C 72.558,163.384 75.7246,157.051 80.5,151.5 Z"/></g>
<g><path style="opacity:1" fill="#999999" d="M 209.5,151.5 C 208.611,157.819 206.944,163.819 204.5,169.5C 205.253,163.142 206.92,157.142 209.5,151.5 Z"/></g>
<g><path style="opacity:1" fill="#a2a2a2" d="M 146.5,158.5 C 146.573,160.027 145.906,161.027 144.5,161.5C 144.427,159.973 145.094,158.973 146.5,158.5 Z"/></g>
<g><path style="opacity:1" fill="#949494" d="M 395.5,157.5 C 397.531,158.539 398.864,160.205 399.5,162.5C 397.457,161.421 396.124,159.754 395.5,157.5 Z"/></g>
<g><path style="opacity:1" fill="#ababab" d="M 418.5,156.5 C 418.833,156.5 419.167,156.5 419.5,156.5C 420.72,165.148 418.72,172.815 413.5,179.5C 417.438,172.346 419.105,164.679 418.5,156.5 Z"/></g>
<g><path style="opacity:1" fill="#6c6c6c" d="M 212.5,145.5 C 212.5,153.833 212.5,162.167 212.5,170.5C 215.5,170.5 218.5,170.5 221.5,170.5C 221.5,170.833 221.5,171.167 221.5,171.5C 218.57,172.299 215.57,172.632 212.5,172.5C 212.158,171.662 211.492,171.328 210.5,171.5C 210.5,166.833 210.5,162.167 210.5,157.5C 211.167,153.5 211.833,149.5 212.5,145.5 Z"/></g>
<g><path style="opacity:1" fill="#acacac" d="M 340.5,162.5 C 338.915,161.998 338.415,160.998 339,159.5C 340.039,160.244 340.539,161.244 340.5,162.5 Z"/></g>
<g><path style="opacity:1" fill="#a3a3a3" d="M 144.5,161.5 C 144.573,163.027 143.906,164.027 142.5,164.5C 142.427,162.973 143.094,161.973 144.5,161.5 Z"/></g>
<g><path style="opacity:1" fill="#9c9c9c" d="M 94.5,156.5 C 92.5646,160.707 89.8979,164.373 86.5,167.5C 86.7086,166.078 87.2086,164.745 88,163.5C 89.7186,160.712 91.8852,158.379 94.5,156.5 Z"/></g>
<g><path style="opacity:1" fill="#aeaeae" d="M 340.5,162.5 C 341.906,162.973 342.573,163.973 342.5,165.5C 341.094,165.027 340.427,164.027 340.5,162.5 Z"/></g>
<g><path style="opacity:1" fill="#101010" d="M 80.5,154.5 C 81.3382,154.842 81.6716,155.508 81.5,156.5C 80.9655,162.138 81.2989,167.805 82.5,173.5C 80.7497,174.659 79.7497,176.326 79.5,178.5C 75.4596,183.914 72.4596,189.914 70.5,196.5C 69.7784,196.918 69.2784,197.584 69,198.5C 68.8333,197.333 68.6667,196.167 68.5,195C 69.3632,190.52 70.0299,186.02 70.5,181.5C 70.2322,179.901 70.5655,178.568 71.5,177.5C 74.6719,169.999 77.6719,162.332 80.5,154.5 Z"/></g>
<g><path style="opacity:1" fill="#969696" d="M 399.5,162.5 C 401.262,163.262 402.262,164.596 402.5,166.5C 400.738,165.738 399.738,164.404 399.5,162.5 Z"/></g>
<g><path style="opacity:1" fill="#a2a2a2" d="M 142.5,164.5 C 142.25,166.674 141.25,168.341 139.5,169.5C 139.75,167.326 140.75,165.659 142.5,164.5 Z"/></g>
<g><path style="opacity:1" fill="#9c9c9c" d="M 86.5,167.5 C 86.573,169.027 85.9063,170.027 84.5,170.5C 84.427,168.973 85.0937,167.973 86.5,167.5 Z"/></g>
<g><path style="opacity:1" fill="#8d8d8d" d="M 342.5,165.5 C 344.485,165.859 345.151,166.692 344.5,168C 345.582,169.33 346.249,170.83 346.5,172.5C 344.412,170.664 343.079,168.331 342.5,165.5 Z"/></g>
<g><path style="opacity:1" fill="#999999" d="M 402.5,166.5 C 405.277,168.951 407.277,171.951 408.5,175.5C 405.759,173.025 403.759,170.025 402.5,166.5 Z"/></g>
<g><path style="opacity:1" fill="#9b9b9b" d="M 422.5,158.5 C 427.15,164.804 430.484,171.804 432.5,179.5C 430.54,176.823 429.04,173.823 428,170.5C 431.048,182.082 433.215,193.915 434.5,206C 434.167,207.167 433.833,208.333 433.5,209.5C 432.32,192.115 428.32,175.448 421.5,159.5C 422.167,159.5 422.5,159.167 422.5,158.5 Z"/></g>
<g><path style="opacity:1" fill="#9e9e9e" d="M 81.5,156.5 C 81.8333,156.5 82.1667,156.5 82.5,156.5C 82.3345,160.514 82.5012,164.514 83,168.5C 83.2784,169.416 83.7784,170.082 84.5,170.5C 84.8333,172.5 85.1667,174.5 85.5,176.5C 84.2719,175.694 83.2719,174.694 82.5,173.5C 81.2989,167.805 80.9655,162.138 81.5,156.5 Z"/></g>
<g><path style="opacity:1" fill="#a2a2a2" d="M 267.5,136.5 C 268.167,136.5 268.833,136.5 269.5,136.5C 271.499,148.163 273.499,159.829 275.5,171.5C 285.866,171.703 296.199,172.37 306.5,173.5C 306.158,174.338 305.492,174.672 304.5,174.5C 295.162,173.894 285.829,173.227 276.5,172.5C 278.281,184.463 279.448,196.463 280,208.5C 278.527,196.352 276.361,184.352 273.5,172.5C 256.214,171.514 238.881,171.181 221.5,171.5C 221.5,171.167 221.5,170.833 221.5,170.5C 238.833,170.5 256.167,170.5 273.5,170.5C 272.143,159.047 270.143,147.714 267.5,136.5 Z"/></g>
<g><path style="opacity:1" fill="#a1a1a1" d="M 67.5,177.5 C 67.4914,175.692 67.9914,174.025 69,172.5C 69.5986,174.535 69.0986,176.201 67.5,177.5 Z"/></g>
<g><path style="opacity:1" fill="#a7a7a7" d="M 82.5,173.5 C 82.2503,175.674 81.2503,177.341 79.5,178.5C 79.7497,176.326 80.7497,174.659 82.5,173.5 Z"/></g>
<g><path style="opacity:1" fill="#a3a3a3" d="M 128.5,122.5 C 125.888,133.392 123.722,144.392 122,155.5C 120.793,166.506 120.626,177.506 121.5,188.5C 124.07,187.366 126.736,186.532 129.5,186C 131.482,181.853 133.816,178.02 136.5,174.5C 135.453,177.596 134.12,180.596 132.5,183.5C 133,183.833 133.5,184.167 134,184.5C 156.406,178.019 179.239,173.852 202.5,172C 203.066,171.005 203.733,170.172 204.5,169.5C 205.918,171.308 207.918,171.975 210.5,171.5C 211.492,171.328 212.158,171.662 212.5,172.5C 212.485,185.193 212.652,197.86 213,210.5C 211.751,197.969 210.917,185.303 210.5,172.5C 208.208,172.244 206.041,172.577 204,173.5C 201.326,185.526 198.659,197.526 196,209.5C 197.197,197.369 199.363,185.369 202.5,173.5C 177.891,175.222 153.891,179.889 130.5,187.5C 128.726,191.389 126.726,195.055 124.5,198.5C 125.26,194.973 126.594,191.64 128.5,188.5C 128.167,188.167 127.833,187.833 127.5,187.5C 125.358,188.601 123.192,189.601 121,190.5C 120.996,194.483 121.329,198.483 122,202.5C 122.278,201.584 122.778,200.918 123.5,200.5C 123.579,201.93 123.246,203.264 122.5,204.5C 124.36,205.325 126.026,206.325 127.5,207.5C 125.94,207.481 124.44,207.148 123,206.5C 122.241,207.646 121.574,208.646 121,209.5C 120.5,209.167 120,208.833 119.5,208.5C 120.246,207.264 120.579,205.93 120.5,204.5C 116.58,203.873 113.247,202.207 110.5,199.5C 113.596,200.547 116.596,201.88 119.5,203.5C 119.833,203 120.167,202.5 120.5,202C 119.77,198.206 119.27,194.373 119,190.5C 117.989,191.337 116.822,191.67 115.5,191.5C 116.261,190.609 117.261,189.942 118.5,189.5C 118.812,167.83 121.312,146.497 126,125.5C 124.871,127.141 123.371,128.141 121.5,128.5C 123.219,125.781 125.553,123.781 128.5,122.5 Z"/></g>
<g><path style="opacity:1" fill="#ababab" d="M 139.5,169.5 C 139.25,171.674 138.25,173.341 136.5,174.5C 136.75,172.326 137.75,170.659 139.5,169.5 Z"/></g>
<g><path style="opacity:1" fill="#989898" d="M 312.5,162.5 C 312.5,166.5 312.5,170.5 312.5,174.5C 325.339,176.139 338.005,178.306 350.5,181C 348.754,178.341 347.42,175.508 346.5,172.5C 348.85,175.349 350.85,178.515 352.5,182C 365.003,184.619 377.003,188.452 388.5,193.5C 377.234,189.967 365.901,186.634 354.5,183.5C 354.167,183.833 353.833,184.167 353.5,184.5C 356.069,188.967 358.069,193.633 359.5,198.5C 356.608,193.72 353.941,188.72 351.5,183.5C 338.975,180.202 326.308,177.536 313.5,175.5C 312.333,187.167 311.167,198.833 310,210.5C 309.899,203.011 310.066,195.511 310.5,188C 310.491,183.443 309.825,179.276 308.5,175.5C 309.209,174.596 310.209,174.263 311.5,174.5C 311.183,170.298 311.517,166.298 312.5,162.5 Z"/></g>
<g><path style="opacity:1" fill="#9b9b9b" d="M 408.5,175.5 C 409.906,175.973 410.573,176.973 410.5,178.5C 409.094,178.027 408.427,177.027 408.5,175.5 Z"/></g>
<g><path style="opacity:1" fill="#9c9c9c" d="M 67.5,177.5 C 67.5979,179.553 66.9313,181.22 65.5,182.5C 65.4021,180.447 66.0687,178.78 67.5,177.5 Z"/></g>
<g><path style="opacity:1" fill="#9b9b9b" d="M 79.5,178.5 C 77.0078,184.818 74.0078,190.818 70.5,196.5C 72.4596,189.914 75.4596,183.914 79.5,178.5 Z"/></g>
<g><path style="opacity:1" fill="#9d9d9d" d="M 85.5,176.5 C 87.3264,178.147 88.6597,180.147 89.5,182.5C 87.1782,181.198 85.8449,179.198 85.5,176.5 Z"/></g>
<g><path style="opacity:1" fill="#b6b6b6" d="M 410.5,178.5 C 411.391,179.11 412.391,179.443 413.5,179.5C 413.657,180.873 413.49,182.207 413,183.5C 412.617,182.944 412.117,182.611 411.5,182.5C 411.167,181.167 410.833,179.833 410.5,178.5 Z"/></g>
<g><path style="opacity:1" fill="#999999" d="M 432.5,179.5 C 437.166,189.333 440.332,199.667 442,210.5C 438.745,200.233 435.579,189.9 432.5,179.5 Z"/></g>
<g><path style="opacity:1" fill="#a1a1a1" d="M 65.5,182.5 C 63.8261,188.859 61.9928,195.193 60,201.5C 60.3275,194.689 62.1608,188.356 65.5,182.5 Z"/></g>
<g><path style="opacity:1" fill="#a2a2a2" d="M 89.5,182.5 C 92.8333,185.167 95.8333,188.167 98.5,191.5C 94.5,189.5 91.5,186.5 89.5,182.5 Z"/></g>
<g><path style="opacity:1" fill="#6e6e6e" d="M 394.5,177.5 C 395.49,183.31 395.823,189.31 395.5,195.5C 394.833,195.167 394.167,194.833 393.5,194.5C 393.5,189.5 393.5,184.5 393.5,179.5C 394.338,179.158 394.672,178.492 394.5,177.5 Z"/></g>
<g><path style="opacity:1" fill="#9a9a9a" d="M 411.5,182.5 C 409.167,186.833 405.833,190.167 401.5,192.5C 404.5,188.833 407.833,185.5 411.5,182.5 Z"/></g>
<g><path style="opacity:1" fill="#161616" d="M 124.5,198.5 C 124.672,199.492 124.338,200.158 123.5,200.5C 122.778,200.918 122.278,201.584 122,202.5C 121.329,198.483 120.996,194.483 121,190.5C 123.192,189.601 125.358,188.601 127.5,187.5C 127.833,187.833 128.167,188.167 128.5,188.5C 126.594,191.64 125.26,194.973 124.5,198.5 Z"/></g>
<g><path style="opacity:1" fill="#9f9f9f" d="M 98.5,191.5 C 100.404,191.738 101.738,192.738 102.5,194.5C 100.596,194.262 99.2623,193.262 98.5,191.5 Z"/></g>
<g><path style="opacity:1" fill="#0a0a0a" d="M 110.5,199.5 C 109.426,198.115 108.093,196.949 106.5,196C 108.066,195.392 109.4,194.558 110.5,193.5C 112.553,193.598 114.22,192.931 115.5,191.5C 116.822,191.67 117.989,191.337 119,190.5C 119.27,194.373 119.77,198.206 120.5,202C 120.167,202.5 119.833,203 119.5,203.5C 116.596,201.88 113.596,200.547 110.5,199.5 Z"/></g>
<g><path style="opacity:1" fill="#aeaeae" d="M 70.5,181.5 C 70.0299,186.02 69.3632,190.52 68.5,195C 68.6667,196.167 68.8333,197.333 69,198.5C 69.2784,197.584 69.7784,196.918 70.5,196.5C 69.0145,200.812 67.5145,205.145 66,209.5C 66.2002,199.876 67.7002,190.542 70.5,181.5 Z"/></g>
<g><path style="opacity:1" fill="#9e9e9e" d="M 115.5,191.5 C 114.22,192.931 112.553,193.598 110.5,193.5C 111.78,192.069 113.447,191.402 115.5,191.5 Z"/></g>
<g><path style="opacity:1" fill="#989898" d="M 422.5,201.5 C 419.168,196.506 416.668,191.173 415,185.5C 418.321,190.474 420.821,195.807 422.5,201.5 Z"/></g>
<g><path style="opacity:1" fill="#ababab" d="M 401.5,192.5 C 400.657,194.173 399.324,195.34 397.5,196C 402.397,198.608 407.063,201.441 411.5,204.5C 406.401,202.452 401.401,200.118 396.5,197.5C 395.808,198.025 395.308,198.692 395,199.5C 394.493,212.784 393.659,212.784 392.5,199.5C 390.922,200.64 389.256,201.14 387.5,201C 389.5,199.667 391.5,198.333 393.5,197C 391.767,195.811 390.1,194.644 388.5,193.5C 390.216,193.629 391.883,193.962 393.5,194.5C 394.167,194.833 394.833,195.167 395.5,195.5C 397.517,194.471 399.517,193.471 401.5,192.5 Z"/></g>
<g><path style="opacity:1" fill="#8d8d8d" d="M 359.5,198.5 C 361.531,201.554 363.198,204.887 364.5,208.5C 365.167,208.833 365.833,209.167 366.5,209.5C 369.13,208.622 371.797,207.955 374.5,207.5C 371.256,210.208 367.589,210.875 363.5,209.5C 361.762,205.951 360.429,202.284 359.5,198.5 Z"/></g>
<g><path style="opacity:1" fill="#9e9e9e" d="M 110.5,193.5 C 109.4,194.558 108.066,195.392 106.5,196C 108.093,196.949 109.426,198.115 110.5,199.5C 108.516,198.844 106.516,198.178 104.5,197.5C 100.484,199.176 96.4837,200.843 92.5,202.5C 95.7734,199.856 99.4401,197.689 103.5,196C 102.944,195.617 102.611,195.117 102.5,194.5C 103.496,194.414 104.329,194.748 105,195.5C 106.584,194.139 108.418,193.472 110.5,193.5 Z"/></g>
<g><path style="opacity:1" fill="#929292" d="M 422.5,201.5 C 424.79,204.077 425.956,207.077 426,210.5C 424.278,207.721 423.111,204.721 422.5,201.5 Z"/></g>
<g><path style="opacity:1" fill="#a4a4a4" d="M 92.5,202.5 C 91.3406,204.25 89.674,205.25 87.5,205.5C 88.6594,203.75 90.326,202.75 92.5,202.5 Z"/></g>
<g><path style="opacity:1" fill="#a2a2a2" d="M 411.5,204.5 C 413.674,204.75 415.341,205.75 416.5,207.5C 414.326,207.25 412.659,206.25 411.5,204.5 Z"/></g>
<g><path style="opacity:1" fill="#a8a8a8" d="M 87.5,205.5 C 87.0269,206.906 86.0269,207.573 84.5,207.5C 84.9731,206.094 85.9731,205.427 87.5,205.5 Z"/></g>
<g><path style="opacity:1" fill="#9f9f9f" d="M 374.5,207.5 C 376.425,205.538 378.758,204.705 381.5,205C 379.35,206.411 377.016,207.245 374.5,207.5 Z"/></g>
<g><path style="opacity:1" fill="#999999" d="M 416.5,207.5 C 417.756,207.461 418.756,207.961 419.5,209C 418.002,209.585 417.002,209.085 416.5,207.5 Z"/></g>
<g><path style="opacity:1" fill="#ababab" d="M 84.5,207.5 C 83.9976,209.085 82.9976,209.585 81.5,209C 82.2438,207.961 83.2438,207.461 84.5,207.5 Z"/></g>
<g><path style="opacity:1" fill="#6d6d6d" d="M 127.5,207.5 C 130.311,207.826 132.978,208.659 135.5,210C 132.461,210.264 129.794,209.431 127.5,207.5 Z"/></g>
<g><path style="opacity:1" fill="#f8f8f8" d="M 27.5,227.5 C 36.8456,226.721 45.8456,228.054 54.5,231.5C 55.4941,236.456 55.8275,241.456 55.5,246.5C 50.0374,245.093 44.5374,243.759 39,242.5C 38.1667,242.833 37.3333,243.167 36.5,243.5C 40.3432,245.104 44.3432,246.271 48.5,247C 56.0369,251.032 58.5369,257.198 56,265.5C 54.5622,271.271 50.8955,274.604 45,275.5C 34.82,277.52 24.9867,276.52 15.5,272.5C 14.3372,267.198 14.1705,261.864 15,256.5C 20.9317,260.42 27.4317,261.92 34.5,261C 28.4954,260.219 22.9954,258.052 18,254.5C 13.8071,247.703 13.4738,240.703 17,233.5C 20.0688,230.554 23.5688,228.554 27.5,227.5 Z"/></g>
<g><path style="opacity:1" fill="#979797" d="M 181.5,229.5 C 173.648,229.175 165.982,229.508 158.5,230.5C 157.957,230.44 157.624,230.107 157.5,229.5C 165.657,228.18 173.657,228.18 181.5,229.5 Z"/></g>
<g><path style="opacity:1" fill="#fafafa" d="M 367.5,227.5 C 394.401,226.224 404.568,238.557 398,264.5C 392.464,272.852 384.631,276.852 374.5,276.5C 358.51,275.843 350.176,267.51 349.5,251.5C 349.876,239.142 355.876,231.142 367.5,227.5 Z"/></g>
<g><path style="opacity:1" fill="#fafafa" d="M 58.5,229.5 C 73.1667,229.5 87.8333,229.5 102.5,229.5C 102.5,235.833 102.5,242.167 102.5,248.5C 99.1667,248.5 95.8333,248.5 92.5,248.5C 92.5,257.5 92.5,266.5 92.5,275.5C 84.5,275.5 76.5,275.5 68.5,275.5C 68.5,266.5 68.5,257.5 68.5,248.5C 65.1667,248.5 61.8333,248.5 58.5,248.5C 58.5,242.167 58.5,235.833 58.5,229.5 Z"/></g>
<g><path style="opacity:1" fill="#fbfbfb" d="M 157.5,273.5 C 149.903,275.467 141.903,276.134 133.5,275.5C 133.5,273.833 133.5,272.167 133.5,270.5C 131.5,270.5 129.5,270.5 127.5,270.5C 127.5,271.5 127.5,272.5 127.5,273.5C 123.588,274.765 119.421,275.431 115,275.5C 110.771,275.49 106.938,274.823 103.5,273.5C 107.767,259.034 112.433,244.7 117.5,230.5C 126.141,229.502 134.808,229.169 143.5,229.5C 147.965,244.227 152.631,258.894 157.5,273.5 Z"/></g>
<g><path style="opacity:1" fill="#f8f8f8" d="M 158.5,230.5 C 165.982,229.508 173.648,229.175 181.5,229.5C 183.091,233.204 183.924,237.204 184,241.5C 184.94,237.238 186.106,233.072 187.5,229C 195.493,228.5 203.493,228.334 211.5,228.5C 207.485,238.864 202.652,248.864 197,258.5C 196.501,264.157 196.334,269.824 196.5,275.5C 188.833,275.5 181.167,275.5 173.5,275.5C 173.666,270.156 173.499,264.823 173,259.5C 167.626,250.086 162.793,240.419 158.5,230.5 Z"/></g>
<g><path style="opacity:1" fill="#fafafa" d="M 245.5,235.5 C 245.334,239.846 245.501,244.179 246,248.5C 246.29,246.08 246.79,243.746 247.5,241.5C 247.646,237.481 247.979,233.481 248.5,229.5C 255.5,229.5 262.5,229.5 269.5,229.5C 269.263,230.791 269.596,231.791 270.5,232.5C 271.254,237.463 271.587,242.463 271.5,247.5C 271.369,248.376 271.702,249.043 272.5,249.5C 273.494,244.544 273.827,239.544 273.5,234.5C 273.472,232.418 274.139,230.584 275.5,229C 283.159,228.5 290.826,228.334 298.5,228.5C 298.5,229.167 298.5,229.833 298.5,230.5C 293.96,245.453 289.626,260.453 285.5,275.5C 277.5,275.5 269.5,275.5 261.5,275.5C 260.195,270.264 259.362,264.93 259,259.5C 258.912,264.65 258.079,269.65 256.5,274.5C 252.667,274.833 248.833,275.167 245,275.5C 240.74,275.461 236.74,274.794 233,273.5C 228.599,258.798 224.099,244.131 219.5,229.5C 227.5,228.167 235.5,228.167 243.5,229.5C 244.372,231.45 245.039,233.45 245.5,235.5 Z"/></g>
<g><path style="opacity:1" fill="#909090" d="M 248.5,229.5 C 255.648,228.508 262.981,228.175 270.5,228.5C 270.5,229.833 270.5,231.167 270.5,232.5C 269.596,231.791 269.263,230.791 269.5,229.5C 262.5,229.5 255.5,229.5 248.5,229.5 Z"/></g>
<g><path style="opacity:1" fill="#f9f9f9" d="M 322.5,241.5 C 323.209,242.404 324.209,242.737 325.5,242.5C 325.5,238.167 325.5,233.833 325.5,229.5C 332.5,229.5 339.5,229.5 346.5,229.5C 347.496,244.658 347.83,259.991 347.5,275.5C 339.833,275.5 332.167,275.5 324.5,275.5C 323.833,258.167 323.167,258.167 322.5,275.5C 315.167,275.5 307.833,275.5 300.5,275.5C 300.5,260.167 300.5,244.833 300.5,229.5C 307.648,228.508 314.981,228.175 322.5,228.5C 322.5,232.833 322.5,237.167 322.5,241.5 Z"/></g>
<g><path style="opacity:1" fill="#fefefe" d="M 441.5,256.5 C 441.5,262.833 441.5,269.167 441.5,275.5C 428.833,275.5 416.167,275.5 403.5,275.5C 403.5,260.167 403.5,244.833 403.5,229.5C 410.833,229.5 418.167,229.5 425.5,229.5C 425.5,238.5 425.5,247.5 425.5,256.5C 430.833,256.5 436.167,256.5 441.5,256.5 Z"/></g>
<g><path style="opacity:1" fill="#f8f8f8" d="M 443.5,229.5 C 457.167,229.5 470.833,229.5 484.5,229.5C 484.5,234.5 484.5,239.5 484.5,244.5C 478.132,244.17 471.798,244.504 465.5,245.5C 470.792,246.495 476.125,246.828 481.5,246.5C 481.5,250.167 481.5,253.833 481.5,257.5C 476.167,257.5 470.833,257.5 465.5,257.5C 465.5,258.5 465.5,259.5 465.5,260.5C 471.833,260.5 478.167,260.5 484.5,260.5C 484.5,265.5 484.5,270.5 484.5,275.5C 470.833,275.5 457.167,275.5 443.5,275.5C 443.5,260.167 443.5,244.833 443.5,229.5 Z"/></g>
<g><path style="opacity:1" fill="#8a8a8a" d="M 346.5,229.5 C 339.5,229.5 332.5,229.5 325.5,229.5C 325.5,233.833 325.5,238.167 325.5,242.5C 324.209,242.737 323.209,242.404 322.5,241.5C 324.43,237.627 325.097,233.294 324.5,228.5C 332.019,228.175 339.352,228.508 346.5,229.5 Z"/></g>
<g><path style="opacity:1" fill="#909090" d="M 441.5,256.5 C 436.167,256.5 430.833,256.5 425.5,256.5C 425.5,247.5 425.5,238.5 425.5,229.5C 418.167,229.5 410.833,229.5 403.5,229.5C 403.5,244.833 403.5,260.167 403.5,275.5C 402.504,260.009 402.17,244.342 402.5,228.5C 410.5,228.5 418.5,228.5 426.5,228.5C 426.5,237.5 426.5,246.5 426.5,255.5C 431.695,255.179 436.695,255.513 441.5,256.5 Z"/></g>
<g><path style="opacity:1" fill="#3e3e3e" d="M 245.5,235.5 C 246.167,237.5 246.833,239.5 247.5,241.5C 246.79,243.746 246.29,246.08 246,248.5C 245.501,244.179 245.334,239.846 245.5,235.5 Z"/></g>
<g><path style="opacity:1" fill="#b6b6b6" d="M 273.5,234.5 C 273.827,239.544 273.494,244.544 272.5,249.5C 271.702,249.043 271.369,248.376 271.5,247.5C 272.167,243.167 272.833,238.833 273.5,234.5 Z"/></g>
<g><path style="opacity:1" fill="#353535" d="M 298.5,228.5 C 299.167,228.833 299.833,229.167 300.5,229.5C 300.5,244.833 300.5,260.167 300.5,275.5C 299.833,260.5 299.167,245.5 298.5,230.5C 298.5,229.833 298.5,229.167 298.5,228.5 Z"/></g>
<g><path style="opacity:1" fill="#3c3c3c" d="M 373.5,245.5 C 374.5,245.5 375.5,245.5 376.5,245.5C 376.666,249.514 376.499,253.514 376,257.5C 375.586,257.957 375.086,258.291 374.5,258.5C 373.508,254.217 373.174,249.884 373.5,245.5 Z"/></g>
<g><path style="opacity:1" fill="#1d1d1d" d="M 129.5,246.5 C 130.787,247.871 131.453,249.705 131.5,252C 131.167,253.833 130.833,255.667 130.5,257.5C 129.511,253.893 129.177,250.226 129.5,246.5 Z"/></g>
<g><path style="opacity:1" fill="#9b9b9b" d="M 103.5,273.5 C 106.938,274.823 110.771,275.49 115,275.5C 119.421,275.431 123.588,274.765 127.5,273.5C 127.5,274.5 127.5,275.5 127.5,276.5C 119.167,276.5 110.833,276.5 102.5,276.5C 102.263,275.209 102.596,274.209 103.5,273.5 Z"/></g>
<g><path style="opacity:1" fill="#979797" d="M 157.5,273.5 C 158.404,274.209 158.737,275.209 158.5,276.5C 149.983,276.826 141.65,276.493 133.5,275.5C 141.903,276.134 149.903,275.467 157.5,273.5 Z"/></g>
<g><path style="opacity:1" fill="#fefefe" d="M 52.5,289.5 C 183.833,289.5 315.167,289.5 446.5,289.5C 444.218,362.596 412.551,418.763 351.5,458C 301.333,486.896 248.333,493.563 192.5,478C 118.966,453.138 73.4658,402.971 56,327.5C 54.1714,314.89 53.0048,302.223 52.5,289.5 Z"/></g>
</svg>
