<?xml version="1.0" encoding="UTF-8"?>
<!DOCTYPE svg PUBLIC "-//W3C//DTD SVG 1.1//EN" "http://www.w3.org/Graphics/SVG/1.1/DTD/svg11.dtd">
<svg xmlns="http://www.w3.org/2000/svg" version="1.1" width="500px" height="500px" style="shape-rendering:geometricPrecision; text-rendering:geometricPrecision; image-rendering:optimizeQuality; fill-rule:evenodd; clip-rule:evenodd" xmlns:xlink="http://www.w3.org/1999/xlink">
<g><path style="opacity:0.996" fill="#c8a52f" d="M 78.5,175.5 C 194.833,175.5 311.167,175.5 427.5,175.5C 427.5,187.833 427.5,200.167 427.5,212.5C 425.833,212.5 424.167,212.5 422.5,212.5C 422.5,201.5 422.5,190.5 422.5,179.5C 309.5,179.5 196.5,179.5 83.5,179.5C 83.5,190.5 83.5,201.5 83.5,212.5C 81.8561,212.714 80.3561,212.38 79,211.5C 78.5001,199.505 78.3335,187.505 78.5,175.5 Z"/></g>
<g><path style="opacity:0.999" fill="#372d0d" d="M 134.5,226.5 C 141.167,226.5 147.833,226.5 154.5,226.5C 154.5,228.167 154.5,229.833 154.5,231.5C 151.833,231.5 149.167,231.5 146.5,231.5C 146.5,239.167 146.5,246.833 146.5,254.5C 144.833,254.5 143.167,254.5 141.5,254.5C 141.5,246.833 141.5,239.167 141.5,231.5C 139.167,231.5 136.833,231.5 134.5,231.5C 134.5,229.833 134.5,228.167 134.5,226.5 Z"/></g>
<g><path style="opacity:0.986" fill="#372e0c" d="M 164.5,226.5 C 166.167,226.5 167.833,226.5 169.5,226.5C 169.5,230.167 169.5,233.833 169.5,237.5C 174.5,237.5 179.5,237.5 184.5,237.5C 184.5,233.833 184.5,230.167 184.5,226.5C 186.167,226.5 187.833,226.5 189.5,226.5C 189.5,235.833 189.5,245.167 189.5,254.5C 187.833,254.5 186.167,254.5 184.5,254.5C 184.5,250.5 184.5,246.5 184.5,242.5C 179.5,242.5 174.5,242.5 169.5,242.5C 169.5,246.5 169.5,250.5 169.5,254.5C 167.833,254.5 166.167,254.5 164.5,254.5C 164.5,245.167 164.5,235.833 164.5,226.5 Z"/></g>
<g><path style="opacity:0.958" fill="#382d0d" d="M 200.5,226.5 C 206.5,226.5 212.5,226.5 218.5,226.5C 218.5,228.167 218.5,229.833 218.5,231.5C 214.167,231.5 209.833,231.5 205.5,231.5C 205.5,233.5 205.5,235.5 205.5,237.5C 209.5,237.5 213.5,237.5 217.5,237.5C 217.5,239.167 217.5,240.833 217.5,242.5C 213.5,242.5 209.5,242.5 205.5,242.5C 205.5,245.167 205.5,247.833 205.5,250.5C 209.833,250.5 214.167,250.5 218.5,250.5C 218.5,251.833 218.5,253.167 218.5,254.5C 212.5,254.5 206.5,254.5 200.5,254.5C 200.5,245.167 200.5,235.833 200.5,226.5 Z"/></g>
<g><path style="opacity:0.977" fill="#362c0d" d="M 249.5,226.5 C 251.288,226.215 252.955,226.548 254.5,227.5C 257.528,231.361 260.361,235.361 263,239.5C 265.783,235.049 268.95,230.883 272.5,227C 274.134,226.506 275.801,226.34 277.5,226.5C 277.5,235.833 277.5,245.167 277.5,254.5C 275.833,254.5 274.167,254.5 272.5,254.5C 272.666,248.158 272.5,241.825 272,235.5C 269.858,239.471 267.024,242.805 263.5,245.5C 259.779,243.435 256.946,240.435 255,236.5C 254.501,242.491 254.334,248.491 254.5,254.5C 252.833,254.5 251.167,254.5 249.5,254.5C 249.5,245.167 249.5,235.833 249.5,226.5 Z"/></g>
<g><path style="opacity:0.958" fill="#382d0d" d="M 290.5,226.5 C 293.5,226.5 296.5,226.5 299.5,226.5C 296.9,235.85 296.9,245.183 299.5,254.5C 296.5,254.5 293.5,254.5 290.5,254.5C 293.1,245.183 293.1,235.85 290.5,226.5 Z"/></g>
<g><path style="opacity:0.962" fill="#372d0c" d="M 312.5,226.5 C 314.527,226.338 316.527,226.505 318.5,227C 320.211,229.589 322.045,232.089 324,234.5C 325.833,232 327.667,229.5 329.5,227C 331.134,226.506 332.801,226.34 334.5,226.5C 332.455,231.074 330.122,235.574 327.5,240C 330.09,244.925 333.09,249.592 336.5,254C 333.653,254.944 331.153,254.444 329,252.5C 327.333,249.833 325.667,247.167 324,244.5C 321.71,247.58 319.543,250.747 317.5,254C 315.421,254.808 313.421,254.641 311.5,253.5C 314.5,248.833 317.5,244.167 320.5,239.5C 317.56,235.278 314.894,230.945 312.5,226.5 Z"/></g>
<g><path style="opacity:0.955" fill="#372d0c" d="M 356.5,226.5 C 368.469,225.97 374.303,231.637 374,243.5C 370.369,254.601 363.202,257.768 352.5,253C 346.451,247.605 344.951,241.105 348,233.5C 350.464,230.519 353.297,228.186 356.5,226.5 Z M 357.5,231.5 C 364.572,230.735 368.572,233.902 369.5,241C 367.699,248.897 363.032,251.563 355.5,249C 349.755,242.389 350.421,236.555 357.5,231.5 Z"/></g>
<g><path style="opacity:0.577" fill="#372d0c" d="M 215.5,269.5 C 217.924,269.192 220.257,269.526 222.5,270.5C 221.167,271.167 219.833,271.833 218.5,272.5C 222.5,273.833 222.5,275.167 218.5,276.5C 219.833,277.167 221.167,277.833 222.5,278.5C 220.257,279.474 217.924,279.808 215.5,279.5C 215.5,276.167 215.5,272.833 215.5,269.5 Z"/></g>
<g><path style="opacity:0.428" fill="#372c0b" d="M 319.5,269.5 C 320.5,269.5 321.5,269.5 322.5,269.5C 322.5,272.167 322.5,274.833 322.5,277.5C 323.978,277.238 325.311,277.571 326.5,278.5C 324.257,279.474 321.924,279.808 319.5,279.5C 319.5,276.167 319.5,272.833 319.5,269.5 Z"/></g>
<g><path style="opacity:1" fill="#372d0d" d="M 192.5,269.5 C 193.5,269.5 194.5,269.5 195.5,269.5C 195.5,272.833 195.5,276.167 195.5,279.5C 194.5,279.5 193.5,279.5 192.5,279.5C 192.5,276.167 192.5,272.833 192.5,269.5 Z"/></g>
<g><path style="opacity:0.939" fill="#372d0c" d="M 227.5,269.5 C 230.908,268.828 233.575,269.828 235.5,272.5C 233.219,274.674 233.219,276.674 235.5,278.5C 233.218,279.9 231.718,279.234 231,276.5C 230.517,277.448 230.351,278.448 230.5,279.5C 229.5,279.5 228.5,279.5 227.5,279.5C 227.5,276.167 227.5,272.833 227.5,269.5 Z M 230.5,271.5 C 231.289,271.783 231.956,272.283 232.5,273C 231.184,273.528 230.517,273.028 230.5,271.5 Z"/></g>
<g><path style="opacity:0.753" fill="#372d0d" d="M 299.5,269.5 C 300.5,269.5 301.5,269.5 302.5,269.5C 302.5,272.833 302.5,276.167 302.5,279.5C 301.5,279.5 300.5,279.5 299.5,279.5C 299.5,276.167 299.5,272.833 299.5,269.5 Z"/></g>
<g><path style="opacity:0.992" fill="#392b0a" d="M 307.5,269.5 C 308.5,269.5 309.5,269.5 310.5,269.5C 310.5,272.167 310.5,274.833 310.5,277.5C 311.978,277.238 313.311,277.571 314.5,278.5C 312.257,279.474 309.924,279.808 307.5,279.5C 307.5,276.167 307.5,272.833 307.5,269.5 Z"/></g>
<g><path style="opacity:0.903" fill="#372d0c" d="M 286.5,269.5 C 292.662,268.156 294.662,270.322 292.5,276C 294.559,277.185 294.726,278.352 293,279.5C 291.739,279.241 290.739,278.574 290,277.5C 289.29,278.973 288.124,279.64 286.5,279.5C 286.5,276.167 286.5,272.833 286.5,269.5 Z M 289.5,271.5 C 290.289,271.783 290.956,272.283 291.5,273C 290.184,273.528 289.517,273.028 289.5,271.5 Z"/></g>
<g><path style="opacity:0.843" fill="#372c0b" d="M 177.5,269.5 C 180.187,269.336 182.854,269.503 185.5,270C 189.086,277.934 186.419,281.1 177.5,279.5C 177.5,276.167 177.5,272.833 177.5,269.5 Z M 180.5,271.5 C 184.35,271.701 185.35,273.534 183.5,277C 182.552,277.483 181.552,277.649 180.5,277.5C 180.5,275.5 180.5,273.5 180.5,271.5 Z"/></g>
<g><path style="opacity:0.667" fill="#c9a32c" d="M 251.5,272.5 C 252.833,272.5 254.167,272.5 255.5,272.5C 255.5,273.833 255.5,275.167 255.5,276.5C 254.167,276.5 252.833,276.5 251.5,276.5C 251.5,275.167 251.5,273.833 251.5,272.5 Z"/></g>
<g><path style="opacity:0.843" fill="#362b0b" d="M 200.5,269.5 C 203.642,269.799 205.809,271.466 207,274.5C 207.494,272.866 207.66,271.199 207.5,269.5C 208.5,269.5 209.5,269.5 210.5,269.5C 210.5,272.833 210.5,276.167 210.5,279.5C 207.737,279.256 205.571,277.923 204,275.5C 203.51,276.793 203.343,278.127 203.5,279.5C 202.5,279.5 201.5,279.5 200.5,279.5C 200.5,276.167 200.5,272.833 200.5,269.5 Z"/></g>
<g><path style="opacity:0.869" fill="#362d0b" d="M 274.5,269.5 C 277.073,269.148 279.406,269.648 281.5,271C 280.975,271.692 280.308,272.192 279.5,272.5C 276.929,271.2 275.262,272.033 274.5,275C 275.059,277.188 276.393,277.854 278.5,277C 277.833,276.333 277.167,275.667 276.5,275C 278.134,274.506 279.801,274.34 281.5,274.5C 281.5,276.167 281.5,277.833 281.5,279.5C 276.262,281.548 272.929,279.881 271.5,274.5C 271.757,272.308 272.757,270.641 274.5,269.5 Z"/></g>
<g><path style="opacity:0.997" fill="#c8a52f" d="M 79.5,291.5 C 80.8333,291.5 82.1667,291.5 83.5,291.5C 83.5,301.833 83.5,312.167 83.5,322.5C 196.5,322.5 309.5,322.5 422.5,322.5C 422.5,312.167 422.5,301.833 422.5,291.5C 424.167,291.5 425.833,291.5 427.5,291.5C 427.5,303.167 427.5,314.833 427.5,326.5C 311.167,326.5 194.833,326.5 78.5,326.5C 78.1887,314.753 78.522,303.086 79.5,291.5 Z"/></g>
</svg>
