<?xml version="1.0" encoding="UTF-8"?>
<!DOCTYPE svg PUBLIC "-//W3C//DTD SVG 1.1//EN" "http://www.w3.org/Graphics/SVG/1.1/DTD/svg11.dtd">
<svg xmlns="http://www.w3.org/2000/svg" version="1.1" width="500px" height="500px" style="shape-rendering:geometricPrecision; text-rendering:geometricPrecision; image-rendering:optimizeQuality; fill-rule:evenodd; clip-rule:evenodd" xmlns:xlink="http://www.w3.org/1999/xlink">
<g><path style="opacity:1" fill="#1f2122" d="M -0.5,-0.5 C 166.167,-0.5 332.833,-0.5 499.5,-0.5C 499.5,166.167 499.5,332.833 499.5,499.5C 332.833,499.5 166.167,499.5 -0.5,499.5C -0.5,332.833 -0.5,166.167 -0.5,-0.5 Z"/></g>
<g><path style="opacity:1" fill="#626464" d="M 426.5,172.5 C 440.323,171.504 454.323,171.171 468.5,171.5C 468.784,173.415 468.451,175.081 467.5,176.5C 467.5,175.167 467.5,173.833 467.5,172.5C 453.833,172.5 440.167,172.5 426.5,172.5 Z"/></g>
<g><path style="opacity:1" fill="#fbfbfb" d="M 366.5,172.5 C 370.5,172.5 374.5,172.5 378.5,172.5C 378.5,173.833 378.5,175.167 378.5,176.5C 373.592,175.874 369.092,176.874 365,179.5C 364.125,180.873 363.625,182.373 363.5,184C 367.938,199.482 373.272,214.648 379.5,229.5C 372.197,230.497 364.863,230.831 357.5,230.5C 352.364,214.929 346.531,199.596 340,184.5C 337.044,179.939 332.877,177.272 327.5,176.5C 327.5,175.167 327.5,173.833 327.5,172.5C 340.5,172.5 353.5,172.5 366.5,172.5 Z"/></g>
<g><path style="opacity:1" fill="#828384" d="M 366.5,172.5 C 370.634,171.515 374.968,171.182 379.5,171.5C 379.784,173.415 379.451,175.081 378.5,176.5C 378.5,175.167 378.5,173.833 378.5,172.5C 374.5,172.5 370.5,172.5 366.5,172.5 Z"/></g>
<g><path style="opacity:1" fill="#f5f6f6" d="M 426.5,172.5 C 440.167,172.5 453.833,172.5 467.5,172.5C 467.5,173.833 467.5,175.167 467.5,176.5C 462.025,178.136 457.858,181.47 455,186.5C 448.316,200.861 442.483,215.528 437.5,230.5C 435.833,230.5 434.167,230.5 432.5,230.5C 436.424,219.228 440.258,207.895 444,196.5C 446.985,182.311 441.152,175.644 426.5,176.5C 426.5,175.167 426.5,173.833 426.5,172.5 Z"/></g>
<g><path style="opacity:1" fill="#898a8b" d="M 121.5,217.5 C 122.601,216.402 123.934,216.235 125.5,217C 124.874,217.75 124.374,218.584 124,219.5C 123.583,218.244 122.75,217.577 121.5,217.5 Z"/></g>
<g><path style="opacity:1" fill="#eaebeb" d="M 134.5,217.5 C 135.601,216.402 136.934,216.235 138.5,217C 137.318,221.846 137.318,226.346 138.5,230.5C 137.522,230.023 136.689,229.357 136,228.5C 135.823,224.644 135.323,220.977 134.5,217.5 Z"/></g>
<g><path style="opacity:1" fill="#b8b8b9" d="M 172.5,216.5 C 179.651,216.359 181.984,216.692 179.5,217.5C 179.5,221.833 179.5,226.167 179.5,230.5C 178.127,230.657 176.793,230.49 175.5,230C 176.464,225.934 176.797,221.767 176.5,217.5C 175.178,217.33 174.011,217.663 173,218.5C 172.536,217.906 172.369,217.239 172.5,216.5 Z"/></g>
<g><path style="opacity:1" fill="#747576" d="M 143.5,217.5 C 144.251,216.427 145.251,216.26 146.5,217C 145.703,220.745 145.203,224.579 145,228.5C 144.823,224.644 144.323,220.977 143.5,217.5 Z"/></g>
<g><path style="opacity:1" fill="#dfdfdf" d="M 114.5,216.5 C 115.873,216.343 117.207,216.51 118.5,217C 117.978,217.561 117.645,218.228 117.5,219C 119.384,222.758 120.051,226.592 119.5,230.5C 117.832,225.831 116.165,221.164 114.5,216.5 Z"/></g>
<g><path style="opacity:1" fill="#c6c7c7" d="M 156.5,216.5 C 158.527,216.338 160.527,216.505 162.5,217C 163.711,217.893 163.711,218.726 162.5,219.5C 161.158,217.995 159.492,217.328 157.5,217.5C 157.238,218.978 157.571,220.311 158.5,221.5C 161.314,222.482 163.314,224.315 164.5,227C 163.803,229.528 162.136,230.694 159.5,230.5C 156.054,230.739 155.054,229.406 156.5,226.5C 157.386,227.325 157.719,228.325 157.5,229.5C 158.833,229.5 160.167,229.5 161.5,229.5C 161.657,228.127 161.49,226.793 161,225.5C 155.798,224.265 154.298,221.265 156.5,216.5 Z"/></g>
<g><path style="opacity:1" fill="#767778" d="M 55.5,243.5 C 55.5,243.167 55.5,242.833 55.5,242.5C 57.5,242.5 59.5,242.5 61.5,242.5C 61.3781,246.838 61.0447,247.172 60.5,243.5C 58.8333,243.5 57.1667,243.5 55.5,243.5 Z"/></g>
<g><path style="opacity:1" fill="#dedede" d="M 91.5,242.5 C 91.5,247.167 91.5,251.833 91.5,256.5C 90.1952,254.603 89.5286,252.269 89.5,249.5C 89.5286,246.731 90.1952,244.397 91.5,242.5 Z"/></g>
<g><path style="opacity:1" fill="#858687" d="M 134.5,243.5 C 135.946,242.387 137.613,242.22 139.5,243C 138.151,243.772 137.318,244.939 137,246.5C 136.764,244.881 135.931,243.881 134.5,243.5 Z"/></g>
<g><path style="opacity:1" fill="#f4f4f4" d="M 172.5,242.5 C 173.167,242.5 173.833,242.5 174.5,242.5C 174.5,242.833 174.5,243.167 174.5,243.5C 174.5,247.833 174.5,252.167 174.5,256.5C 173.209,256.737 172.209,256.404 171.5,255.5C 172.485,251.366 172.818,247.032 172.5,242.5 Z"/></g>
<g><path style="opacity:1" fill="#838485" d="M 174.5,243.5 C 174.5,243.167 174.5,242.833 174.5,242.5C 176.167,242.5 177.833,242.5 179.5,242.5C 179.649,243.552 179.483,244.552 179,245.5C 177.89,243.963 176.39,243.297 174.5,243.5 Z"/></g>
<g><path style="opacity:1" fill="#d1d2d2" d="M 188.5,242.5 C 189.5,242.5 190.5,242.5 191.5,242.5C 191.5,247.167 191.5,251.833 191.5,256.5C 190.5,256.5 189.5,256.5 188.5,256.5C 188.5,251.833 188.5,247.167 188.5,242.5 Z"/></g>
<g><path style="opacity:1" fill="#818283" d="M 204.5,243.5 C 205.449,242.848 206.615,242.514 208,242.5C 210.008,242.307 211.508,242.974 212.5,244.5C 211.833,244.5 211.5,244.833 211.5,245.5C 209.886,243.925 207.886,243.259 205.5,243.5C 205.167,243.5 204.833,243.5 204.5,243.5 Z"/></g>
<g><path style="opacity:1" fill="#555657" d="M 172.5,242.5 C 172.818,247.032 172.485,251.366 171.5,255.5C 171.5,251.5 171.5,247.5 171.5,243.5C 170.5,243.5 169.5,243.5 168.5,243.5C 167.955,247.172 167.622,246.838 167.5,242.5C 169.167,242.5 170.833,242.5 172.5,242.5 Z"/></g>
<g><path style="opacity:1" fill="#212324" d="M 205.5,243.5 C 207.886,243.259 209.886,243.925 211.5,245.5C 211.74,248.579 211.407,251.579 210.5,254.5C 208.926,255.631 207.259,255.798 205.5,255C 204.2,251.168 204.2,247.334 205.5,243.5 Z"/></g>
<g><path style="opacity:1" fill="#e4e5e5" d="M 224.5,243.5 C 225.386,242.224 226.386,242.224 227.5,243.5C 229.193,246.184 230.86,248.851 232.5,251.5C 232.833,252.5 233.5,253.167 234.5,253.5C 234.649,254.552 234.483,255.552 234,256.5C 230.995,253.151 228.495,249.484 226.5,245.5C 226.167,244.5 225.5,243.833 224.5,243.5 Z"/></g>
<g><path style="opacity:1" fill="#6b6d6d" d="M 53.5,242.5 C 53.8182,247.032 53.4849,251.366 52.5,255.5C 52.797,251.233 52.4637,247.066 51.5,243C 52.0944,242.536 52.7611,242.369 53.5,242.5 Z"/></g>
<g><path style="opacity:1" fill="#6b6d6d" d="M 109.5,242.5 C 109.818,247.032 109.485,251.366 108.5,255.5C 108.797,251.233 108.464,247.066 107.5,243C 108.094,242.536 108.761,242.369 109.5,242.5 Z"/></g>
<g><path style="opacity:1" fill="#727374" d="M 224.5,243.5 C 225.5,243.833 226.167,244.5 226.5,245.5C 225.84,246.964 225.507,248.631 225.5,250.5C 225.613,252.641 226.28,254.475 227.5,256C 225.833,256.667 224.167,256.667 222.5,256C 224.389,252.164 225.055,247.997 224.5,243.5 Z"/></g>
<g><path style="opacity:1" fill="#757676" d="M 234.5,253.5 C 233.5,253.167 232.833,252.5 232.5,251.5C 233.156,250.378 233.489,249.045 233.5,247.5C 233.351,245.68 232.684,244.18 231.5,243C 233.167,242.333 234.833,242.333 236.5,243C 234.638,246.149 233.971,249.649 234.5,253.5 Z"/></g>
<g><path style="opacity:1" fill="#c7c8c8" d="M 246.5,242.5 C 248.527,242.338 250.527,242.505 252.5,243C 253.711,243.893 253.711,244.726 252.5,245.5C 251.15,244.05 249.484,243.383 247.5,243.5C 247.786,246.93 249.62,249.264 253,250.5C 253.946,256.329 251.612,257.996 246,255.5C 245.449,251.807 245.949,251.64 247.5,255C 248.793,255.49 250.127,255.657 251.5,255.5C 251.657,254.127 251.49,252.793 251,251.5C 245.798,250.265 244.298,247.265 246.5,242.5 Z"/></g>
<g><path style="opacity:1" fill="#e1e2e2" d="M 127.5,243.5 C 128.209,242.596 129.209,242.263 130.5,242.5C 134.81,260.804 133.81,261.138 127.5,243.5 Z"/></g>
<g><path style="opacity:1" fill="#e2e2e2" d="M 152.5,242.5 C 153.376,242.369 154.043,242.702 154.5,243.5C 156.167,247.5 157.833,251.5 159.5,255.5C 158.675,256.386 157.675,256.719 156.5,256.5C 155.747,251.663 154.414,246.996 152.5,242.5 Z"/></g>
<g><path style="opacity:1" fill="#e3e3e3" d="M 53.5,242.5 C 54.1667,242.5 54.8333,242.5 55.5,242.5C 55.5,242.833 55.5,243.167 55.5,243.5C 55.5,247.5 55.5,251.5 55.5,255.5C 55.5,255.833 55.5,256.167 55.5,256.5C 54.209,256.737 53.209,256.404 52.5,255.5C 53.4849,251.366 53.8182,247.032 53.5,242.5 Z"/></g>
<g><path style="opacity:1" fill="#8e8f8f" d="M 91.5,242.5 C 93.8333,242.5 96.1667,242.5 98.5,242.5C 98.6495,243.552 98.4828,244.552 98,245.5C 96.5993,243.808 94.7659,243.141 92.5,243.5C 92.5,245.167 92.5,246.833 92.5,248.5C 97.8333,248.833 97.8333,249.167 92.5,249.5C 92.5,251.5 92.5,253.5 92.5,255.5C 95.3252,255.838 97.4918,254.838 99,252.5C 99.49,253.793 99.6567,255.127 99.5,256.5C 96.8333,256.5 94.1667,256.5 91.5,256.5C 91.5,251.833 91.5,247.167 91.5,242.5 Z"/></g>
<g><path style="opacity:1" fill="#dbdbdb" d="M 32.5,243.5 C 35.2301,242.183 38.0635,242.183 41,243.5C 41.839,246.14 41.339,248.473 39.5,250.5C 40.2531,252.753 41.5864,254.587 43.5,256C 42.5,256.667 41.5,256.667 40.5,256C 39.1196,254.075 37.6196,252.241 36,250.5C 35.2571,252.441 35.4238,254.274 36.5,256C 35.1667,256.667 33.8333,256.667 32.5,256C 33.822,251.733 33.822,247.566 32.5,243.5 Z"/></g>
<g><path style="opacity:1" fill="#212324" d="M 35.5,243.5 C 36.8333,243.5 38.1667,243.5 39.5,243.5C 40.4015,247.241 39.0681,249.241 35.5,249.5C 35.5,247.5 35.5,245.5 35.5,243.5 Z"/></g>
<g><path style="opacity:1" fill="#d8d9d9" d="M 109.5,242.5 C 117.403,241.053 119.403,243.72 115.5,250.5C 116.253,252.753 117.586,254.587 119.5,256C 118.5,256.667 117.5,256.667 116.5,256C 115.044,254.255 113.711,252.422 112.5,250.5C 115.144,249.259 115.977,247.259 115,244.5C 113.989,243.663 112.822,243.33 111.5,243.5C 111.5,247.833 111.5,252.167 111.5,256.5C 110.209,256.737 109.209,256.404 108.5,255.5C 109.485,251.366 109.818,247.032 109.5,242.5 Z"/></g>
<g><path style="opacity:1" fill="#cbcccc" d="M 72.5,242.5 C 74.5273,242.338 76.5273,242.505 78.5,243C 79.7112,243.893 79.7112,244.726 78.5,245.5C 77.1502,244.05 75.4835,243.383 73.5,243.5C 73.0502,247.224 74.7168,249.391 78.5,250C 79.767,251.796 79.767,253.629 78.5,255.5C 75.9659,256.777 73.4659,256.777 71,255.5C 70.8073,251.74 71.6407,251.574 73.5,255C 74.7932,255.49 76.1266,255.657 77.5,255.5C 77.762,254.022 77.4287,252.689 76.5,251.5C 71.7349,249.98 70.4015,246.98 72.5,242.5 Z"/></g>
<g><path style="opacity:1" fill="#c6c7c7" d="M 204.5,243.5 C 204.833,243.5 205.167,243.5 205.5,243.5C 204.2,247.334 204.2,251.168 205.5,255C 207.259,255.798 208.926,255.631 210.5,254.5C 211.407,251.579 211.74,248.579 211.5,245.5C 211.5,244.833 211.833,244.5 212.5,244.5C 215.214,248.517 214.881,252.351 211.5,256C 203.72,257.553 200.553,254.386 202,246.5C 202.377,245.058 203.21,244.058 204.5,243.5 Z"/></g>
<g><path style="opacity:1" fill="#7d7f7f" d="M 55.5,256.5 C 55.5,256.167 55.5,255.833 55.5,255.5C 57.5,255.5 59.5,255.5 61.5,255.5C 62.0447,251.828 62.3781,252.162 62.5,256.5C 60.1667,256.5 57.8333,256.5 55.5,256.5 Z"/></g>
<g><path style="opacity:1" fill="#858687" d="M 148.5,253.5 C 152.486,256.223 151.82,257.056 146.5,256C 147.756,255.583 148.423,254.75 148.5,253.5 Z"/></g>
<g><path style="opacity:1" fill="#f9f9f9" d="M 368.5,256.5 C 375.755,256.187 382.921,256.52 390,257.5C 394.686,271.063 399.852,284.397 405.5,297.5C 411.02,284.28 416.353,270.947 421.5,257.5C 423.167,256.167 424.833,256.167 426.5,257.5C 417.667,280.5 408.833,303.5 400,326.5C 398.951,328.107 397.451,328.773 395.5,328.5C 386.507,304.511 377.507,280.511 368.5,256.5 Z"/></g>
</svg>
