<?xml version="1.0" encoding="UTF-8"?>
<!DOCTYPE svg PUBLIC "-//W3C//DTD SVG 1.1//EN" "http://www.w3.org/Graphics/SVG/1.1/DTD/svg11.dtd">
<svg xmlns="http://www.w3.org/2000/svg" version="1.1" width="500px" height="500px" style="shape-rendering:geometricPrecision; text-rendering:geometricPrecision; image-rendering:optimizeQuality; fill-rule:evenodd; clip-rule:evenodd" xmlns:xlink="http://www.w3.org/1999/xlink">
<g><path style="opacity:1" fill="#1f2122" d="M -0.5,-0.5 C 166.167,-0.5 332.833,-0.5 499.5,-0.5C 499.5,166.167 499.5,332.833 499.5,499.5C 332.833,499.5 166.167,499.5 -0.5,499.5C -0.5,332.833 -0.5,166.167 -0.5,-0.5 Z"/></g>
<g><path style="opacity:1" fill="#fbfbfb" d="M 210.5,127.5 C 212.5,127.5 214.5,127.5 216.5,127.5C 216.5,129.833 216.5,132.167 216.5,134.5C 207.403,133.88 199.236,136.213 192,141.5C 190.964,143.87 190.464,146.37 190.5,149C 190.976,155.406 192.476,161.573 195,167.5C 202.472,186.753 209.639,206.086 216.5,225.5C 204.678,226.495 192.678,226.828 180.5,226.5C 170.494,199.489 159.66,172.822 148,146.5C 145.167,143.667 142.333,140.833 139.5,138C 135.673,136.21 131.673,135.044 127.5,134.5C 127.5,132.167 127.5,129.833 127.5,127.5C 155.167,127.5 182.833,127.5 210.5,127.5 Z"/></g>
<g><path style="opacity:1" fill="#757778" d="M 210.5,127.5 C 212.607,126.532 214.941,126.198 217.5,126.5C 217.806,129.385 217.473,132.052 216.5,134.5C 216.5,132.167 216.5,129.833 216.5,127.5C 214.5,127.5 212.5,127.5 210.5,127.5 Z"/></g>
<g><path style="opacity:1" fill="#f8f8f8" d="M 299.5,127.5 C 323.5,127.5 347.5,127.5 371.5,127.5C 371.808,129.924 371.474,132.257 370.5,134.5C 360.724,138.107 353.224,144.44 348,153.5C 337.746,177.26 328.08,201.26 319,225.5C 317.647,226.704 315.981,227.371 314,227.5C 312.5,227.333 311,227.167 309.5,227C 318.266,206.633 325.766,185.799 332,164.5C 334.786,149.634 328.953,140.134 314.5,136C 309.536,135.088 304.536,134.588 299.5,134.5C 299.5,132.167 299.5,129.833 299.5,127.5 Z"/></g>
<g><path style="opacity:1" fill="#c4c5c5" d="M 216.5,225.5 C 217.043,225.56 217.376,225.893 217.5,226.5C 205.006,227.825 192.673,227.825 180.5,226.5C 192.678,226.828 204.678,226.495 216.5,225.5 Z"/></g>
<g><path style="opacity:1" fill="#fafafa" d="M 275.5,230.5 C 275.833,230.5 276.167,230.5 276.5,230.5C 276.183,234.702 276.517,238.702 277.5,242.5C 276.5,243.833 275.5,243.833 274.5,242.5C 275.483,238.702 275.817,234.702 275.5,230.5 Z"/></g>
<g><path style="opacity:1" fill="#818283" d="M 275.5,230.5 C 275.817,234.702 275.483,238.702 274.5,242.5C 274.5,238.833 274.5,235.167 274.5,231.5C 272.876,231.36 271.71,232.027 271,233.5C 270.517,232.552 270.351,231.552 270.5,230.5C 272.167,230.5 273.833,230.5 275.5,230.5 Z"/></g>
<g><path style="opacity:1" fill="#979899" d="M 276.5,230.5 C 278.288,230.215 279.955,230.548 281.5,231.5C 280.443,231.906 279.109,231.906 277.5,231.5C 277.5,235.167 277.5,238.833 277.5,242.5C 276.517,238.702 276.183,234.702 276.5,230.5 Z"/></g>
<g><path style="opacity:1" fill="#ececec" d="M 239.5,241.5 C 239.5,241.833 239.5,242.167 239.5,242.5C 238.883,242.389 238.383,242.056 238,241.5C 237.793,237.911 237.293,234.411 236.5,231C 237.833,230.333 239.167,230.333 240.5,231C 239.544,234.394 239.211,237.894 239.5,241.5 Z"/></g>
<g><path style="opacity:1" fill="#6d6e6f" d="M 239.5,242.5 C 239.5,242.167 239.5,241.833 239.5,241.5C 241.339,242.752 243.172,242.752 245,241.5C 245.175,237.789 245.675,234.122 246.5,230.5C 246.833,230.667 247.167,230.833 247.5,231C 246.703,234.745 246.203,238.579 246,242.5C 243.726,243.811 241.56,243.811 239.5,242.5 Z"/></g>
<g><path style="opacity:1" fill="#bebfbf" d="M 256.5,230.5 C 258.527,230.338 260.527,230.505 262.5,231C 263.711,231.893 263.711,232.726 262.5,233.5C 261.15,232.05 259.484,231.383 257.5,231.5C 257.351,232.552 257.517,233.552 258,234.5C 260.423,235.785 262.256,237.618 263.5,240C 263.188,242.281 261.855,243.448 259.5,243.5C 256.054,243.739 255.054,242.406 256.5,239.5C 257.386,240.325 257.719,241.325 257.5,242.5C 258.833,242.5 260.167,242.5 261.5,242.5C 261.028,239.185 259.195,236.851 256,235.5C 255.36,233.735 255.527,232.068 256.5,230.5 Z"/></g>
<g><path style="opacity:1" fill="#dcdcdd" d="M 218.5,231.5 C 219.209,230.596 220.209,230.263 221.5,230.5C 225.319,247.277 224.319,247.61 218.5,231.5 Z"/></g>
<g><path style="opacity:1" fill="#dcdcdd" d="M 215.5,254.5 C 215.183,258.702 215.517,262.702 216.5,266.5C 215.791,267.404 214.791,267.737 213.5,267.5C 212.903,262.706 213.57,258.373 215.5,254.5 Z"/></g>
<g><path style="opacity:1" fill="#fafafa" d="M 271.5,254.5 C 271.833,254.5 272.167,254.5 272.5,254.5C 272.183,258.702 272.517,262.702 273.5,266.5C 272.5,267.833 271.5,267.833 270.5,266.5C 271.483,262.702 271.817,258.702 271.5,254.5 Z"/></g>
<g><path style="opacity:1" fill="#c6c7c7" d="M 285.5,254.5 C 286.5,254.5 287.5,254.5 288.5,254.5C 288.5,258.833 288.5,263.167 288.5,267.5C 287.5,267.5 286.5,267.5 285.5,267.5C 285.5,263.167 285.5,258.833 285.5,254.5 Z"/></g>
<g><path style="opacity:1" fill="#7a7b7b" d="M 307.5,256.5 C 306.833,256.5 306.5,256.833 306.5,257.5C 304.831,255.338 302.831,255.005 300.5,256.5C 300.5,256.167 300.5,255.833 300.5,255.5C 301.274,254.853 302.274,254.52 303.5,254.5C 305.355,254.34 306.688,255.007 307.5,256.5 Z"/></g>
<g><path style="opacity:1" fill="#b6b7b7" d="M 162.5,255.5 C 170.228,255.043 171.228,255.043 165.5,255.5C 165.5,259.167 165.5,262.833 165.5,266.5C 167.766,266.859 169.599,266.192 171,264.5C 171.483,265.448 171.649,266.448 171.5,267.5C 168.482,267.665 165.482,267.498 162.5,267C 163.821,263.066 163.821,259.233 162.5,255.5 Z"/></g>
<g><path style="opacity:1" fill="#dddddd" d="M 198.5,254.5 C 198.5,258.833 198.5,263.167 198.5,267.5C 197.2,265.777 196.533,263.61 196.5,261C 196.533,258.39 197.2,256.223 198.5,254.5 Z"/></g>
<g><path style="opacity:1" fill="#848586" d="M 215.5,254.5 C 217.415,254.216 219.081,254.549 220.5,255.5C 220.167,255.5 219.833,255.5 219.5,255.5C 218.5,255.5 217.5,255.5 216.5,255.5C 216.216,257.415 216.549,259.081 217.5,260.5C 217.5,261.167 217.5,261.833 217.5,262.5C 216.566,263.568 216.232,264.901 216.5,266.5C 215.517,262.702 215.183,258.702 215.5,254.5 Z"/></g>
<g><path style="opacity:1" fill="#222425" d="M 219.5,255.5 C 219.88,257.698 219.213,259.365 217.5,260.5C 216.549,259.081 216.216,257.415 216.5,255.5C 217.5,255.5 218.5,255.5 219.5,255.5 Z"/></g>
<g><path style="opacity:1" fill="#818283" d="M 271.5,254.5 C 271.817,258.702 271.483,262.702 270.5,266.5C 270.5,262.833 270.5,259.167 270.5,255.5C 268.876,255.36 267.71,256.027 267,257.5C 266.517,256.552 266.351,255.552 266.5,254.5C 268.167,254.5 269.833,254.5 271.5,254.5 Z"/></g>
<g><path style="opacity:1" fill="#979899" d="M 272.5,254.5 C 274.288,254.215 275.955,254.548 277.5,255.5C 276.443,255.906 275.109,255.906 273.5,255.5C 273.5,259.167 273.5,262.833 273.5,266.5C 272.517,262.702 272.183,258.702 272.5,254.5 Z"/></g>
<g><path style="opacity:1" fill="#252728" d="M 306.5,257.5 C 306.5,259.833 306.5,262.167 306.5,264.5C 304.831,266.662 302.831,266.995 300.5,265.5C 299.266,262.465 299.266,259.465 300.5,256.5C 302.831,255.005 304.831,255.338 306.5,257.5 Z"/></g>
<g><path style="opacity:1" fill="#cfd0d0" d="M 144.5,255.5 C 147.469,253.994 150.302,254.327 153,256.5C 153.529,258.585 153.029,260.418 151.5,262C 151.99,263.982 152.99,265.649 154.5,267C 154,267.167 153.5,267.333 153,267.5C 150.8,266.133 149.3,264.133 148.5,261.5C 150.104,259.821 150.771,257.821 150.5,255.5C 149.5,255.5 148.5,255.5 147.5,255.5C 147.5,259.5 147.5,263.5 147.5,267.5C 146.448,267.649 145.448,267.483 144.5,267C 145.821,263.066 145.821,259.233 144.5,255.5 Z"/></g>
<g><path style="opacity:1" fill="#666868" d="M 237.5,255.5 C 238.601,254.402 239.934,254.235 241.5,255C 239.765,257.192 238.598,259.692 238,262.5C 238.105,259.972 237.938,257.638 237.5,255.5 Z"/></g>
<g><path style="opacity:1" fill="#e0e0e0" d="M 253.5,254.5 C 256.035,258.018 258.035,262.018 259.5,266.5C 258.675,267.386 257.675,267.719 256.5,267.5C 255.707,263.12 254.707,258.786 253.5,254.5 Z"/></g>
<g><path style="opacity:1" fill="#68696a" d="M 318.5,255.5 C 319.401,256.29 320.068,257.29 320.5,258.5C 319.183,261.23 319.183,264.063 320.5,267C 319.167,267.667 317.833,267.667 316.5,267C 318.377,263.506 319.044,259.673 318.5,255.5 Z"/></g>
<g><path style="opacity:1" fill="#696a6b" d="M 327.5,264.5 C 326.5,264.167 325.833,263.5 325.5,262.5C 326.814,260.105 326.814,257.605 325.5,255C 326.833,254.333 328.167,254.333 329.5,255C 327.656,257.804 326.989,260.97 327.5,264.5 Z"/></g>
<g><path style="opacity:1" fill="#bbbcbc" d="M 338.5,254.5 C 340.977,254.051 342.977,254.717 344.5,256.5C 342.819,256.032 340.986,256.032 339,256.5C 338.333,257.167 338.333,257.833 339,258.5C 341.539,259.706 343.372,261.539 344.5,264C 344.588,266.744 343.255,267.91 340.5,267.5C 337.054,267.739 336.054,266.406 337.5,263.5C 338.386,264.325 338.719,265.325 338.5,266.5C 339.833,266.5 341.167,266.5 342.5,266.5C 342.762,265.022 342.429,263.689 341.5,262.5C 336.474,261.082 335.474,258.415 338.5,254.5 Z"/></g>
<g><path style="opacity:1" fill="#dedede" d="M 300.5,255.5 C 300.5,255.833 300.5,256.167 300.5,256.5C 299.266,259.465 299.266,262.465 300.5,265.5C 300.5,265.833 300.5,266.167 300.5,266.5C 298.124,265.488 297.124,263.655 297.5,261C 297.124,258.345 298.124,256.512 300.5,255.5 Z"/></g>
<g><path style="opacity:1" fill="#d9d9d9" d="M 318.5,255.5 C 318.897,254.475 319.563,254.308 320.5,255C 322.301,257.443 323.968,259.943 325.5,262.5C 325.833,263.5 326.5,264.167 327.5,264.5C 327.719,265.675 327.386,266.675 326.5,267.5C 324.474,264.482 322.474,261.482 320.5,258.5C 320.068,257.29 319.401,256.29 318.5,255.5 Z"/></g>
<g><path style="opacity:1" fill="#c6c6c7" d="M 180.5,254.5 C 182.199,254.34 183.866,254.506 185.5,255C 186.711,255.893 186.711,256.726 185.5,257.5C 184.476,256.147 183.143,255.48 181.5,255.5C 181.238,256.978 181.571,258.311 182.5,259.5C 187.36,260.778 188.36,263.278 185.5,267C 183.833,267.667 182.167,267.667 180.5,267C 179.483,265.951 179.316,264.784 180,263.5C 181.544,266.806 183.378,267.14 185.5,264.5C 183.613,262.96 181.78,261.293 180,259.5C 179.36,257.735 179.527,256.068 180.5,254.5 Z"/></g>
<g><path style="opacity:1" fill="#595b5c" d="M 198.5,254.5 C 200.5,254.5 202.5,254.5 204.5,254.5C 204.378,258.838 204.045,259.172 203.5,255.5C 202.167,255.5 200.833,255.5 199.5,255.5C 199.5,257.167 199.5,258.833 199.5,260.5C 204.833,260.833 204.833,261.167 199.5,261.5C 199.5,263.167 199.5,264.833 199.5,266.5C 201.492,266.672 203.158,266.005 204.5,264.5C 205.506,264.938 205.506,265.604 204.5,266.5C 202.604,267.466 200.604,267.799 198.5,267.5C 198.5,263.167 198.5,258.833 198.5,254.5 Z"/></g>
<g><path style="opacity:1" fill="#d8d8d8" d="M 230.5,255.5 C 231.209,254.596 232.209,254.263 233.5,254.5C 237.312,271.288 236.312,271.621 230.5,255.5 Z"/></g>
<g><path style="opacity:1" fill="#ebebeb" d="M 307.5,256.5 C 308.833,259.5 308.833,262.5 307.5,265.5C 306.833,265.5 306.5,265.167 306.5,264.5C 306.5,262.167 306.5,259.833 306.5,257.5C 306.5,256.833 306.833,256.5 307.5,256.5 Z"/></g>
<g><path style="opacity:1" fill="#dbdbdc" d="M 219.5,255.5 C 219.833,255.5 220.167,255.5 220.5,255.5C 221.819,257.605 221.486,259.605 219.5,261.5C 220.373,263.413 221.373,265.247 222.5,267C 219.837,266.848 218.17,265.348 217.5,262.5C 217.5,261.833 217.5,261.167 217.5,260.5C 219.213,259.365 219.88,257.698 219.5,255.5 Z"/></g>
<g><path style="opacity:1" fill="#909191" d="M 249.5,264.5 C 253.813,267.002 253.48,267.835 248.5,267C 249.252,266.329 249.586,265.496 249.5,264.5 Z"/></g>
<g><path style="opacity:1" fill="#848586" d="M 306.5,264.5 C 306.5,265.167 306.833,265.5 307.5,265.5C 306.688,266.993 305.355,267.66 303.5,267.5C 302.274,267.48 301.274,267.147 300.5,266.5C 300.5,266.167 300.5,265.833 300.5,265.5C 302.831,266.995 304.831,266.662 306.5,264.5 Z"/></g>
<g><path style="opacity:1" fill="#fbfbfb" d="M 198.5,271.5 C 210.518,271.168 222.518,271.501 234.5,272.5C 244.098,297.461 253.598,322.461 263,347.5C 272.931,322.54 282.765,297.54 292.5,272.5C 295.086,271.52 297.753,271.187 300.5,271.5C 284.903,313.288 268.903,354.954 252.5,396.5C 248.902,398.136 246.402,397.136 245,393.5C 229.202,352.912 213.702,312.245 198.5,271.5 Z"/></g>
</svg>
