<?xml version="1.0" encoding="UTF-8"?>
<svg version="1.1" viewBox="0 0 1600 1600" width="1280" height="1280" xmlns="http://www.w3.org/2000/svg">
<path transform="translate(907,388)" d="m0 0h17l33 3 32 5 23 5 23 7 29 11 29 14 18 10 10 7 14 10 13 10 14 12 10 9 8 7 15 16 18 22 11 16 14 22 8 16 12 25 10 25 10 30 6 30 1 9v19l-1 5v7l3 7v15l-4 39-6 35-6 26-12 36-9 20-12 23-15 24-14 19-13 16-9 11-9 10-7 8-9 10-8 7-12 11-10 8-18 14-16 11-17 11-27 14-17 8-19 7-25 9-31 8-23 4-23 2-23 1h-26l-24-1-35-4-43-7-30-4-39-3h-29l-52 4-26 4-30 7-16 5-21 8-29 13-18 10-17 12-16 12-12 11-11 10-7 4-5 1h-7l-6-4-7-7-4-9 1-12 4-11 9-13 11-11 10-8 19-14 13-8 21-11 23-10 19-8 34-11 29-7 25-5 22-3 24-2h53l32 2 26 3 54 9 15 2h11l5-5 5-16 9-10 10-5 17-4 31-6 21-7 21-9 29-14 23-13 20-14 12-9 11-10 8-7 7-8 8-8 8-13 6-13 2-11v-25l-3-27-5-27-6-23-7-19-13-29-15-24-3-4v-2l-7 1-15 8-5 5 8 32 2 22v24l-6 45-2 21-7 8-28 30-16 15-9 9-13 10-21 13-23 12-18 8-25 9-22 6-29 5-22 2-20 1-78 1-53 3-33 4-34 6-30 8-32 11-27 12-20 10-14 10-15 16-9 7-7 3h-9l-9-4-6-7-2-6v-17l3-9 10-13 12-11 14-10 13-8 16-9 23-11 26-10 22-7 23-6 36-7 36-4 52-3 102-5 39-3 29-6 27-9 16-7 16-8 18-10 10-7 10-8 13-12 3-4h2l1-3 5-5 8-11 8-16 7-21 2-11v-11l-4-17-7-14-2-3-6 1-14 6-8 2-7-3-10-11-5-11-1-8 4-7 8-10-4-6-13-18-11-14-10-10-13-9-15-10-26-17-19-12-16-9-20-9-18-6-29-6-20-3-25-2-9-3-6-7-2-8v-18l4-10 7-6 6-2 8-1h22l14 2 27 7 29 10 25 11 25 12 26 15 18 12 17 12 13 10 16 13 6 5 9 11 8 11 12 14 5 5 4 3 5-1 14-10 7-8-1-9-5-10-10-13-12-13-9-10-7-8-12-14-9-11-15-16-26-24-14-11-10-8-15-10-14-6-20-7-12-5-15-8-9-8-2-3v-7l4-9 6-5 16-5 6-1h23l16 4 20 8 26 12 19 12 13 10 15 13 13 14 9 11 7 8 12 17 14 21 11 18 12 19 13 18 5 5 5-1 10-7 8-6 1-2-1-49 2-20 7-28 7-20 4-6 7 1 12 4 6 4 2 4 1 6v22l-7 43v23l8 24 13 27 12 18 11 14 9 10 12 12 14 11 18 13 8 7 6 8 4 11 1 11-4 11-4 5-10 5-5 1-8-4-12-11-8-7-10-9-16-12-15-14-12-12-11-15-10-15-5-11-6-13-5 2-3 3h-2l-2 4-1 1 1 9 10 19 9 15 13 23 9 17 8 20 6 24 4 24 1 11v33l-5 26-7 24-7 17-6 10-7 9-7 7-7 8-16 16-15 11-10 6-16 8-20 8-17 8-9 7 15-3 21-8 16-8 6-4 12-5 11-8 14-12 11-10 14-11 9-6 28-8 9-6 6-5 9-11 12-16 7-11 7-10 12-21 8-16 6-14 8-27 4-20 4-27 3-47 2-6 5-9v-9l-4-11-8-8-6-12-10-30-12-28-11-23-11-19-14-20-8-10-13-15-11-14-11-12-9-9-13-10-14-9-16-9-16-8-25-11-24-8-35-7-44-6-21-1h-15l-26 2-26 5-26 7-17 7-14 7-19 7-19 9-27 16-21 13-18 14-13 12-15 15-8 7-7 7-7 8-9 10-9 11-7 8-6-1-33-8-4-2 1-9 8-15 9-11 12-13 8-10 22-24 11-11 8-7 13-11 20-15 16-11 15-10 16-9 23-12 23-11 36-12 26-7 24-5 30-3z" fill="#F8D42F"/>
<path transform="translate(907,388)" d="m0 0h17l33 3 32 5 23 5 23 7 29 11 29 14 18 10 10 7 14 10 13 10 14 12 10 9 8 7 15 16 18 22 11 16 14 22 8 16 12 25 10 25 10 30 6 30 1 9v19l-1 5v7l3 7v15l-4 39-6 35-6 26-12 36-9 20-12 23-15 24-14 19-13 16-9 11-9 10-7 8-9 10-8 7-12 11-10 8-18 14-16 11-17 11-27 14-17 8-19 7-25 9-31 8-23 4-23 2-23 1h-26l-24-1-35-4-43-7-30-4-39-3h-29l-52 4-26 4-30 7-16 5-21 8-29 13-18 10-17 12-16 12-12 11-11 10-7 4-5 1h-7l-6-4-7-7-4-9 1-12 4-11 9-13 11-11 10-8 19-14 13-8 21-11 23-10 19-8 34-11 29-7 25-5 22-3 24-2h53l32 2 26 3 54 9 15 2h11l5-5 5-16 9-10 10-5 17-4 21-4h7l-1 2-19 5-12 1-6 3v1l42-2 8-1h21l12-2 19-5 15-5 14-5 8-3 3 1-17 8-9 7 15-3 21-8 16-8 6-4 12-5 11-8 14-12 11-10 14-11 9-6 28-8 9-6 6-5 9-11 12-16 7-11 7-10 12-21 8-16 6-14 8-27 4-20 4-27 3-47 2-6 5-9v-9l-4-11-8-8-6-12-10-30-12-28-11-23-11-19-14-20-8-10-13-15-11-14-11-12-9-9-13-10-14-9-16-9-16-8-25-11-24-8-35-7-44-6-21-1h-15l-26 2-26 5-26 7-17 7-14 7-19 7-19 9-27 16-21 13-18 14-13 12-15 15-8 7-7 7-7 8-9 10-9 11-7 8-6-1-33-8-4-2 1-9 8-15 9-11 12-13 8-10 22-24 11-11 8-7 13-11 20-15 16-11 15-10 16-9 23-12 23-11 36-12 26-7 24-5 30-3z" fill="#3CF9FA"/>
<path transform="translate(907,388)" d="m0 0h17l33 3 32 5 23 5 23 7 29 11 29 14 18 10 10 7 14 10 13 10 14 12 10 9 8 7 15 16 18 22 11 16 14 22 8 16 12 25 10 25 10 30 6 30 1 9v19l-2 6-3 1-14-4h-15l-1-1-2-13-4-8-7-7-6-12-10-30-12-28-11-23-11-19-14-20-8-10-13-15-11-14-11-12-9-9-13-10-14-9-16-9-16-8-25-11-24-8-35-7-44-6-21-1h-15l-26 2-26 5-26 7-17 7-14 7-19 7-19 9-27 16-21 13-18 14-13 12-15 15-8 7-7 7-7 8-9 10-9 11-7 8-6-1-33-8-4-2 1-9 8-15 9-11 12-13 8-10 22-24 11-11 8-7 13-11 20-15 16-11 15-10 16-9 23-12 23-11 36-12 26-7 24-5 30-3z" fill="#F42597"/>
<path transform="translate(819,466)" d="m0 0h23l16 4 20 8 26 12 19 12 13 10 15 13 13 14 9 11 7 8 12 17 14 21 11 18 12 19 13 18 5 5 5-1 10-7 8-6 1-2-1-49 2-20 7-28 7-20 4-6 7 1 12 4 6 4 2 4 1 6v22l-7 43v23l8 24 13 27 12 18 11 14 9 10 12 12 14 11 18 13 8 7 6 8 4 11 1 11-4 11-4 5-10 5-5 1-8-4-12-11-8-7-10-9-16-12-15-14-12-12-11-15-10-15-5-11-6-13-5 2-3 3h-2l-2 4-1 1 1 9 10 19 9 15 13 23 9 17 8 20 6 24 4 24 1 11v33l-5 26-7 24-7 17-6 10-7 9-7 7-7 8-16 16-15 11-10 6-16 8-18 7-12 3-11 5-16 5-13 4-13 3-8 1h-21l-8 1-42 2v-3l6-3 12-1 19-5-1-2 14-4 12-4 21-9 29-14 23-13 20-14 12-9 11-10 8-7 7-8 8-8 8-13 4-8h2l3-9 4-11 5-21 2-7 1-10v-13l-1-16-5-23-5-17-4-10-7-16-8-16-11-19-8-15-3-10-7-12v-2l-3-1-6-12-8-10-4-4-3-5-6-9-1 1-4-4-6-9-8-13-10-16-10-15-16-21-10-13-8-10-7-8-1-3-4-2-5-5-17-12-24-14-15-9-13-6-15-6-14-4-14-7-10-6-9-5-3 2 2-4 6-4 14-4z" fill="#FBB55A"/>
<path transform="translate(794,476)" d="m0 0 9 5 6 4 14 7 13 5 13 4 12 5 15 8 35 21 19 14 14 16 8 10 10 13 16 21 7 11 20 32 7 10h1 2l6 10 3 3v3l4 2 6 8 8 13 1 3 3 3 7 12 4 12 10 19 12 20 9 20 5 14 3 7 6 23 2 11 1 16v13l-2 14-5 19-4 14-5 11-1-3 2-6 1-7v-25l-3-27-5-27-6-23-7-19-13-29-15-24-3-4v-2l-7 1-15 8-5 5v6h-3l2 10v8l-5 2v2l-6 2-1 4-2 3-2 9-3 8-2 8-2 3-1 12-2 1v-14l-4-17-7-14-2-3-6 1-14 6-8 2-7-3-10-11-5-11-1-8 4-7 8-10-4-6-13-18-11-14-10-10-13-9-15-10-26-17-19-12-16-9-20-9-18-6-29-6-20-3-25-2-9-3-6-7-2-8v-18l4-10 7-6 6-2 8-1h22l14 2 27 7 29 10 25 11 25 12 26 15 18 12 17 12 13 10 16 13 6 5 9 11 8 11 12 14 5 5 4 3 5-1 14-10 7-8-1-9-5-10-10-13-12-13-9-10-7-8-12-14-9-11-15-16-26-24-14-11-10-8-15-10-14-6-20-7-12-5-15-8-9-8-2-3v-7l3-7z" fill="#F8A834"/>
<path transform="translate(884,788)" d="m0 0 6 1 6 4 6 12 2 13v8l-4 10-11 12-11 10-15 11-21 13-21 10-19 7-22 6-24 4-47 5-27 2-78 4-30 3-39 8-20 5-23 8-20 8-21 11-17 12-16 10-6 2h-11l-9-3-6-7-3-10v-8l3-11 6-8 9-9 19-12 24-13 19-9 21-8 16-5 25-7 17-4 33-5 21-2 17-1 52-2 63-4 24-3 26-5 22-7 19-8 21-11 14-10 10-9 9-10 7-6z" fill="#F9B933"/>
<path transform="translate(793,711)" d="m0 0h6l13 6 4 4 2 5v17l-4 13-6 8-12 9-21 11-21 8-33 9-29 6-14 2-18 1-61 2-32 3-49 8-24 7-20 7-26 11-18 13-11 8-7 3h-12l-8-4-6-9-3-9v-12l4-10 11-12 15-11 19-10 17-7 27-9 25-7 28-6 41-6 47-3 66-4 22-3 24-6 20-7 16-8 15-10z" fill="#F42597"/>
<path transform="translate(630,616)" d="m0 0h13l9 5 6 7 3 8 1 6v14l-6 10-7 7-14 9-16 8-17 7-26 8-30 7-43 9-44 10-31 9-12 2-14-1-8-4-7-8-3-9v-13l3-10 8-9 11-4 52-9 33-7 41-10 26-7 24-8 19-8 11-6 13-10z" fill="#3CFAFA"/>
<path transform="translate(886,427)" d="m0 0h39l26 1 21 2 31 7 21 6 17 6 16 6 16 8 11 7 11 6 16 11 11 9 8 6 3 2v2l4 2 2 4 5 2 25 25 6 8 2 1v3l3 1 4 5v3l3 1 14 20 7 11 8 16 3 4v2h3v2h7l4 3h10v2h2l4 5 3 5 5 2 5 14 5 11 5 13 6 10 3 3 3 16 1 9v19l-2 6-3 1-14-4h-15l-1-1-2-13-4-8-7-7-6-12-10-30-12-28-11-23-11-19-14-20-8-10-13-15-11-14-11-12-9-9-13-10-14-9-16-9-16-8-25-11-24-8-35-7-44-6-21-1h-15l-26 2-26 5-26 7-17 7-14 7-19 7-19 9-27 16-21 13-18 14-13 12-15 15-8 7-7 7-7 8-9 10-9 11-7 8-6-1-33-8-4-2 1-9 7-13 2-1-2 7-3 7 1 5 7 2 3 2 7 2 4 1h7l6-4 1-3 5-5 11-13 7-9 10-11 7-8 17-17h2v-2l10-8 12-10 19-13 13-10 11-6 21-12 22-10 7-4 20-7 10-4 10-3 16-4 15-4 9-2z" fill="#DC065A"/>
<path transform="translate(1281,801)" d="m0 0h1v7l-7 38-6 23-10 29-9 20-12 23-15 24-14 19-13 16-9 11-9 10-7 8-9 10-8 7-12 11-10 8-18 14-16 11-17 11-27 14-17 8-19 7-25 9-31 8-23 4-23 2-23 1h-26l-24-1-35-4-43-7-30-4-39-3h-29l-52 4-26 4-30 7-16 5-21 8-29 13-18 10-17 12-16 12-12 11-11 10-7 4-5 1h-7l-6-4-7-7-4-9 1-12 2-3 2 8 4 6 7 5h9l5-3 14-14 22-18 18-12 17-10 30-14 24-9 24-7 33-8 19-3 36-3 29-1 27 1 35 3 41 6 30 5 28 3 11 1h55l35-4 25-5 23-6 26-8 18-6 14-7 17-8 14-8 18-11 11-7 14-11 14-12 15-13 5-5h2l1-3h2l2-4 8-9h2l2-4 11-12 20-25 9-14 8-13 11-17 5-9 10-19 10-23 5-13 5-12 3-9 4-16 2-11 3-9z" fill="#0195C1"/>
<path transform="translate(1055,727)" d="m0 0 3 3 7 13 12 19 4 7 4 9 3 3 3-1-1-3 1-9h-2l-4-8-2-5-4-9v-3l5-1 2 3 4 2 6 12 3 1 4 8 6 9v3h2l9 16 5 18 2 15 3 7h5l2 7 2 18v33l-5 26-7 24-7 17-6 10-7 9-7 7-7 8-16 16-15 11-10 6-16 8-18 7-12 3-11 5-16 5-13 4-13 3-8 1h-21l-8 1-42 2v-3l6-3 12-1 19-5-1-2 14-4 12-4 21-9 29-14 23-13 20-14 12-9 11-10 8-7 7-8 8-8 8-13 4-8h2l3-9 4-11 5-21 2-7 1-10v-13l-1-16-5-23-5-17-4-10-7-16-8-16-11-19-8-15z" fill="#F8D22F"/>
<path transform="translate(1127,1031)" d="m0 0h11v7l-8 7-5 5-4 2-1 3-4 3h-2v2l-13 9-17 11-15 9-32 16-19 7-28 9-18 5-14 3-21 4-40 4h-24l-23-1-35-3-15-2-9-2-22-2-28-4-35-3-27-1-29 1-36 3-23 4-36 9-20 6-21 8-22 10-19 10-18 12-11 8-13 11-12 11-4 4h-2l-2-5-3-4-2-6-4-5 3-6 5-5 1 2 6-4 11-9 16-11h2v-2l11-6 4-2h3v-2l17-7 20-10 6-2 19-7 8-4 20-6h5v-2l3-1h12l5-2 17-3 3-1 12-1 11-2 31-3 25-1h22l25 2 9 1 26 3 12 4 12 5 14 4 29 3 43 2h13l21-4 9-3 5-2 7-1 3-1 8 1 2-1 18-1 14-1 12-2 21-6 20-5 7-3 1-1 19-10 5-4 6-4 10-7 12-6 13-8 5-2v-2l11-9 9-7z" fill="#22FAF3"/>
<path transform="translate(702,553)" d="m0 0h22l14 2 27 7 29 10 25 11 25 12 26 15 18 12 17 12 13 10 16 13 6 5 9 11 8 11 12 14 5 5 4 3 9-1 13-9 13-10 4-4 4 1-1 7-9 10-5 5-9 7h-2v2l-11 8-5 1v2l-5 3-6 4-10 6h-2v2l-12 6-2 4-8 5h-3l-1 4-4 1-2-2 1-5 9-11 5-4 1-2 8-4h2l1-6 1-21 2-6-1-8-4-2-3-3v-2l-3-1-4-5-8-7-3-3v-2l-5-2-6-5-4-2 2 10v4h-2l-1 4-2 3-6-4v-2l-6-2-19-14-14-9-19-11-11-6-29-15-27-11-27-9-18-4-40-5-10-2-2-4v-15l-2-1 5-6 5-3z" fill="#FBB45A"/>
<path transform="translate(1202,909)" d="m0 0 1 2-3 7h-2l-2 6-10 14-6 9-6 8-4 6-5 5-7 9-4 5-13 13-7 8-9 9-11 9-9 8-15 11-23 15-17 10-17 7-10 5-24 10-19 6-25 7-35 6-10 1h-49l-20-1-15-3-17-2-8-2-19-2-13-3-8-2-19-2-3-1-17-1-7-1h-75l-3 1h-19v-1l17-2 12-1h53l32 2 26 3 54 9 15 2h11l5-5 5-16 9-10 10-5 17-4 21-4h7l-1 2-19 5-12 1-6 3v1l42-2 8-1h21l12-2 19-5 15-5 14-5 8-3 3 1-17 8-9 7 15-3 21-8 16-8 6-4 12-5 11-8 14-12 11-10 14-11 9-6 28-8 9-6 6-5 9-11 12-16 7-11 7-10z" fill="#0AC5CA"/>
<path transform="translate(1018,841)" d="m0 0h1v11l-3 21-2 21-7 8-28 30-16 15-9 9-13 10-21 13-23 12-18 8-25 9-22 6-29 5-22 2-20 1-78 1-53 3-33 4-34 6-30 8-32 11-27 12-20 10-14 10-15 16-9 7-7 3h-9l-9-4-6-7-2-6v-8l9 3 7 5 3 1h9l8-7 12-13 11-9 15-10 16-8 16-7 30-11 31-9 31-6 36-4 47-3 29-1 46-1 56-3 24-3 23-5 29-9 26-11 17-9 19-12 17-13 12-11 8-7 12-13 10-15 12-23 8-14z" fill="#A54F1B"/>
<path transform="translate(1244,799)" d="m0 0 4 2-1 16-7 30-6 18-11 25-10 20-6 10-13 22-8 11-12 16-11 12-5 6h-2l-2 4-22 22-8 7-11 10-9 7-10 8-20 12-15 10-27 14-19 8-19 7-23 7-22 5-42 5-28 1-45-2-37-4-42-9-25-3-31-2h-42l-45 3-37 7-32 8-34 12-17 7-16 8-28 15-11 7-14 10-14 12-10 11-5 9-3 3h-2l-1-4 4-9 6-9 16-16 14-11 8-6 11-7 11-6 25-13 16-7 20-8 3-3 29-9 38-9 25-4h23l3-1h75l7 1 17 1 11 2 15 2 25 5 16 2 11 2 15 2 9 2 20 1h49l22-3 23-4 25-7 21-7 24-10 22-10 10-5 10-6 27-18 16-12 13-12 8-7 8-8 7-8 6-7 5-5 9-11 2-3h2l2-5 6-7 6-10 9-12 5-9h2l1-5 5-12 9-16 2-5 4-4 6-17 5-17 6-19 2-7 2-10z" fill="#D3FEFE"/>
<path transform="translate(907,388)" d="m0 0h17l33 3 32 5 23 5 23 7 29 11 29 14 18 10 10 7 14 10 13 10 14 12 10 9 8 7 15 16 18 22 11 16 14 22 8 16 12 25 8 19v7l6 19v2h-3l-9-24-6-17-4-9-12-23-10-17-6-10-10-13-9-11-11-13-9-10-24-24-11-9-13-10-26-17-13-8-23-12-28-11-26-9-15-4-22-5-26-3-21-2h-48l-33 4-25 6-33 11-26 9-14 6-19 10-19 12-14 8-16 11-16 12-20 16-17 16-20 20-9 11-10 11-7 9-11 12-4 3 1-7 6-12 8-11 1-4 7-7 8-10 22-24 11-11 8-7 13-11 20-15 16-11 15-10 16-9 23-12 23-11 36-12 26-7 24-5 30-3z" fill="#FFCAE4"/>
<path transform="translate(902,814)" d="m0 0 2 4v8l-4 10-11 12-11 10-15 11-21 13-21 10-19 7-22 6-24 4-47 5-27 2-78 4-30 3-39 8-20 5-23 8-20 8-21 11-17 12-16 10-6 2h-11l-9-3-6-7-3-10v-8l1-3h2l4 6 14 9h10l9-6 8-7 14-10 23-12 20-8 24-8 28-7 14-3 43-6 100-5 50-4 23-4 17-4 19-6 20-8 19-9 18-11 18-13 9-8 6-8z" fill="#BA3519"/>
<path transform="translate(651,1121)" d="m0 0h58l37 3 34 5 30 5 35 4 18 1h28l22-1 18-2h9v1l-18 3-19 1-36 5-5 3-13 1-26 1-33-5-46-7-31-3-17-1h-29l-52 4-26 4-30 7-16 5-21 8-29 13-18 10-17 12-16 12-12 11-11 10-7 4-5 1h-7l-6-4-7-7-4-9 1-12 2-3 2 8 4 6 7 5h9l5-3 14-14 22-18 18-12 17-10 30-14 24-9 24-7 20-5 22-3 16-2z" fill="#019FAF"/>
<path transform="translate(816,739)" d="m0 0 2 1-2 11-4 8-4 5-12 9-21 11-21 8-33 9-29 6-14 2-18 1-61 2-32 3-49 8-24 7-20 7-26 11-18 13-11 8-7 3h-12l-8-4-6-9-3-9v-7l1 3 4 2 16 9h6l8-6h2v-2l9-7h2v-2l17-10 25-10 33-10 28-7 26-4 42-3 51-2 29-3 12-1 2-1 14-2 24-5 24-7 17-7 14-8 11-7 11-8h2l2-5z" fill="#B4053B"/>
<path transform="translate(794,476)" d="m0 0 9 5 6 4 14 7 13 5 13 4 12 5 15 8 35 21 19 14 14 16 8 10 10 13 16 21 7 11 20 32 7 10 7 11-1 5h-2v2l-11 7-3-12-9-14-13-15-13-14-7-8-12-14-9-11-15-16-26-24-14-11-10-8-15-10-14-6-20-7-12-5-15-8-9-8-2-3v-7l3-7z" fill="#B5053B"/>
<path transform="translate(1009,756)" d="m0 0h4l5 17 2 9 2 22v24l-2 15-3 4-5 15-12 22-8 15-10 14-14 15-13 12-14 11-14 10-20 12-21 10-24 9-25 7-18 4-24 3-56 3-50 1-60 3-40 4-24 4-23 5-32 10-26 10-20 9-18 11-10 8-11 10-7 8-7 6h-9l-8-4-6-4-5-2v-6l2 4 9 3 7 5h9l3-1 1-3h2l2-4 5-6 7-6h2l1-3 7-5h2v-2h3v-2l10-6 17-9 20-8 16-6 7-2 12-4 7-1 15-5 16-3 14-3 34-4 43-3 72-2 44-2 33-3 15-2 18-4 16-4 6-2h6v-2l21-8 17-9 8-4 8-5h2v-2l6-2v-2l9-7 1-2 3-1 1-2h-3v-2h-7l-1-5 5-10 7-9 2-2-1-2 1-2h2l1-4h3l2-4 7-8h2l2-4 5-6 5-9h2l2-5 3-9 4-10 4-12 1-8h2l-3-10-2 2v-9l3-5 2-10 3-6 2-9 3-5 6-2v-2l4-2v-8l-1-2z" fill="#F9B733"/>
<path transform="translate(963,880)" d="m0 0 1 3-3 5-3 2-1 3-5 5-3 2-1-3 4-5h2l1-3 5-5zm-16 18m-1 1m-1 1m-1 1m3 0 2 1-14 15-14 12-14 11-14 8-19 9-21 9-20 6-24 4-32 3-113 4-52 4-27 3-23 4-25 6-25 7-30 11-25 11-16 8-16 10-14 10-10 4-2-3 5-5 10-9 12-8 13-8 16-9 15-7 12-5 16-6 11-4 1-2 16-5 19-5 36-7 36-4 52-3 102-5 39-3 29-6 27-9 16-7 16-8 18-10 10-7 10-8 3-3 3 1z" fill="#FEF193"/>
<path transform="translate(680,565)" d="m0 0h2l1 15 1 4 10 1 40 5 21 5 27 9 26 11 27 14 11 6 14 8 10 6 17 12 13 10 13 12 13 13 10 14 8 15 1 7-11 7-11-14-10-14-9-11-9-9-13-9-15-10-26-17-19-12-16-9-20-9-18-6-29-6-20-3-25-2-9-3-6-7-2-8v-18z" fill="#D12B20"/>
<path transform="translate(802,470)" d="m0 0 4 1-1 4 4 3h12l9-2h11l16 4 17 6 21 9 16 9 11 8 18 14 15 13 4 4 6 7 6 8v2h2l5 9 10 14 3 6 2 1 1 5-1 2 2 1-2 3v3l-4 1-8-3h-4l1 7-5-5-13-17-10-13-8-10-7-8-1-3-4-2-5-5-17-12-24-14-15-9-13-6-15-6-14-4-14-7-10-6-9-5-3 2 2-4 6-4z" fill="#F42597"/>
<path transform="translate(884,788)" d="m0 0 6 1v6l-7 8-6 7-8 7-22 15-17 11-7 4-3 1-20 8-16 5-12 3-16 3-36 4-45 3-73 3-36 4-26 5-33 8-25 8-28 10-19 9-15 10-10 8h-2l-2 4-13 12-5 3-1-4 4-8 7-8 7-5h2v-2l11-7 5-4 11-6 28-14 16-7 21-7 17-5 1-2 25-6 33-5 21-2 17-1 52-2 63-4 24-3 26-5 22-7 19-8 21-11 14-10 10-9 9-10 7-6z" fill="#FEF193"/>
<path transform="translate(630,616)" d="m0 0h13l9 5 6 7 3 8 1 6v14l-6 10-7 7-14 9-16 8-17 7-26 8-30 7-43 9-44 10-31 9-12 2-14-1-8-4-7-8-3-9v-13l2-3 2 8 5 5 7 4 5 1h13l20-4 26-6 38-9 30-7 56-14 27-9 26-12 10-9 5-10v-12l-3-1-3-4v-2l-5-2-4-3-11-1z" fill="#0198C2"/>
<path transform="translate(871,428)" d="m0 0h8l-6 3 13 2 4 1h13l2-1v2l4-1 15 1 7 3 6 2v2l-24-1h-15l-26 2-26 5-26 7-17 7-14 7-19 7-19 9-27 16-21 13-18 14-13 12-15 15-8 7-7 7-7 8-9 10-9 11-7 8-6-1-33-8-4-2 1-9 7-13 2-1-2 7-3 7 1 5 7 2 3 2 7 2 4 1h7l6-4 1-3 5-5 11-13 7-9 10-11 7-8 17-17h2v-2l10-8 12-10 19-13 13-10 11-6 21-12 22-10 7-4 20-7 10-4 10-3 16-4 15-4 9-2z" fill="#EE0D67"/>
<path transform="translate(1140,978)" d="m0 0 4 1v4h-2v2l-6 4-4 4-8 7-5 4h-2v3l-4 1-1 3-5 4-5 5-5 4-4 4-12 9-11 6h-2v2l-11 8-10 6-16 8-22 10-8 3-7 2-23 8-22 5-16 3-10 1h-12l-12-3-21-6-5-1-4-2 2-3 4-1h22l30-2 24-5 30-10 20-8 12-5 20-8 10-6 20-10 9-7 13-11 11-10 14-11 9-6z" fill="#019EAE"/>
<path transform="translate(793,711)" d="m0 0h6l12 5-4 2-10 4-9 6-10 7-21 11-22 8-26 6-25 4-47 3-48 3-31 3-37 6-27 7-26 8-27 10-20 11-12 8-13 12-7 8h-4v-4l-2-1 4-10 11-12 15-11 19-10 17-7 27-9 25-7 28-6 41-6 47-3 66-4 22-3 24-6 20-7 16-8 15-10z" fill="#FEC9E3"/>
<path transform="translate(1091,674)" d="m0 0h2v2h9l5 8 8 15 8 11 11 12 5 6 8 7 7 7 13 10 20 15 25 15 7 5 4-1 3-1v9l-5 10-7 5-10 3-8-4-12-11-8-7-10-9-16-12-15-14-12-12-11-15-10-15-5-11-6-13-5 2-3 3h-2l-2 4-3 2-5-10 1-5 9-7z" fill="#D22B21"/>
<path transform="translate(1090,517)" d="m0 0 7 1 12 4 6 4 2 4 1 6v22l-8 49-2 4-3-17v-3h-2l-2 10-1 15 2 15v5l-10 5h-7l-4-3h-6l-3 1-1-11-1-37 2-20 7-28 7-20z" fill="#F9A45E"/>
<path transform="translate(1087,942)" d="m0 0h1v5l-10 16h-2l-2 5-9 10-4 3h-2l-2 4-6 4-5 5h-2l-2 4-4 5-11 8-25 13-11 6-8 5-18 8-4 3 13-2 16-7 6-3 19-9 11-7 4-2v-2l8-5h2v-2l6-3 7-1h7l10-5 6-1-2 4-8 8-8 7-18 12-11 6-18 8-10 5-7 3h-3v2l-25 8-13 3-8 1h-21l-8 1-42 2v-3l6-3 12-1 19-5-1-2 14-4 12-4 21-9 29-14 23-13 20-14 12-9 11-10 8-7 7-8 6-6 4-1 3-3h2l2-5z" fill="#FEF192"/>
<path transform="translate(852,611)" d="m0 0 12 6 22 14 9 7h2l3 3 7 6 12 10 11 9 11 10 9 7 7 4 4 2 10 11 5 5 6 1 7-2 11-8 13-10 4-4 4 1-1 7-9 10-5 5-9 7h-2v2l-11 8-5 1v2l-5 3-6 4-10 6h-2v2l-12 6-2 4-8 5h-3l-1 4-4 1-2-2 1-5 9-11 5-4 1-2 8-4h2l1-6 1-21 2-6-1-8-4-2-3-3v-2l-3-1-4-5-8-7-3-3v-2l-5-2-6-5-4-2 2 10v4h-2l-1 4-2 3-6-4v-2l-6-2-19-14-14-9-19-11-10-5 1-2 6 3-5-10 3-5 4-1 1-3z" fill="#F9B733"/>
<path transform="translate(1041,708)" d="m0 0 6 5 10 18 10 19 12 20 9 20 5 14 3 7 6 23 2 11 1 16v13l-2 14-5 19-4 14-5 11-1-3 2-6 1-7v-25l-3-27-5-27-6-23-7-19-13-29-15-24-3-4v-2l-7 1-15 8-5 4h-2l-6-12 1-3 15-9 17-12z" fill="#D12B20"/>
<path transform="translate(1055,727)" d="m0 0 3 3 7 13 12 19 4 7 4 9 3 3 3-1-1-3 1-9h-2l-4-8-2-5-4-9v-3l5-1 2 3 4 2 6 12 3 1 4 8 6 9v3h2l9 16 5 18 2 15 3 7h5l2 7 2 18v14h-2v3l-6 2-5 5-2 1-5-2-3-3v-2l-3-1v-2l-3-1v20l-2 4-3 3-2 4-3 2-4 9-1-2 8-31 1-10v-13l-1-16-5-23-5-17-4-10-7-16-8-16-11-19-8-15z" fill="#F9A833"/>
<path transform="translate(912,656)" d="m0 0 8 4 8 6 6 7 3 2v2l4 2 5 5v2l3 1 5 6 1 7-2 5-1 21-2 6-7 4h-3l-1 3-6 5-8 10 1 5 4-1 1-3 8-4 3-1 1-4 6-4 4-2h7l4 3 2 10 1 3 5 1v2l5-1 5 4 4 11 3 12v23l-1 4h-3l-5-17-6-12-2-3-6 1-14 6-8 2-7-3-10-11-5-11-1-8 4-7 8-10 11-7-1-7-9-17-11-14-23-23 4 1v2l6 3 3-6h2l-3-12z" fill="#F9A834"/>
<path transform="translate(1281,801)" d="m0 0h1v7l-7 38-6 23-10 29-9 20-12 23-15 24-14 19-13 16-9 11-9 10-7 8-9 10-4 1-1-2-5 2-1 2-5 3-4 1-1 4-5 6h-3v3l-10 8h-2l-1 3h-2v2l-5 3-9 7h-5l-1 2-12 2-12 6-14 8-9 4-14 6h-4l1-3 20-9 19-10 20-12 11-7 17-13 14-12 15-13 5-5h2l1-3h2l2-4 8-9h2l2-4 11-12 20-25 9-14 8-13 11-17 5-9 10-19 10-23 5-13 5-12 3-9 4-16 2-11 3-9z" fill="#019FAE"/>
<path transform="translate(794,476)" d="m0 0 9 5 6 4 14 7 13 5 13 4 12 5 15 8 35 21 19 14 14 16 8 10 10 13 16 21 14 22-1 3-2-1v-2h-2l-3-5-5-1-1-3h-2l-1-4h-3v-3l-6-3v-2l-3-1-6-7-6-8-2-1v-3h-2l-5-9-2-1v-2l-4-2-1-4-3-1-3-5v-2l-4-1-1-3-7-6-11-4-14-7v-2l-8-2-2-4-10-6v-2l-5-2-13-7-11-4-11-1-2-1-9-2-7-2-11-5-9-5-4-1-3-4v-7l3-7z" fill="#ED0A65"/>
<path transform="translate(491,903)" d="m0 0 7 1 8 3 7 1-1 6 5 1 4-2 12-1 14-3 29-4 6 1v1l-33 5-30 7-26 8-20 8-25 12-14 10-10 8-8 6-2 1h-10l6-4v-11l-1-8 3-9h2l1-3h2l1-3 13-9 16-8 11-5 21-7z" fill="#F9A834"/>
<path transform="translate(817,730)" d="m0 0h1v10l-3 1-2 4-9 6-11 8-11 6-14 7-13 5-26 7-24 5-9 1-2 1-44 4-64 3-26 2-26 4-32 8-32 10-15 6-16 8-6 4h-2v2l-9 7h-2v2l-10 7h-6l-16-9-4-3-1-7h2v4l4-1 7-8 8-8 5-2 10-7 23-13 7-2-1 3-10 6-6 5-2 5 4 3 1-2 2 1 11-5 7-1 9 1h8v-2l10-1v-2l10-1 3-2 13-3 7-2h2l1-2 12-2 3-1 18-2 34-4 14-1h15l32-2 21-2h5l5-2 4 1 16-2 14-2 13-3 9-2 6-2 7-1 14-4 14-6 11-7 10-7 10-8 1-2h3l2-5 3-5z" fill="#EE0B66"/>
<path transform="translate(819,466)" d="m0 0h23l16 4 20 8 26 12 19 12 13 10 15 13 13 14 9 11 7 8 12 17 14 21 11 18 12 19 8 11-2 1-5-5-6-8-1-4-2 1 1 3h-2l-9-11-5-7-8-1-9 2h-6l-7-9 1-5 6 1 7 2 3-2v-3-4-5l-3-1-7-12-10-14v-3h-2l-7-10-7-8v-2l-4-2-15-13-16-12-11-8-10-6-17-8-16-6-21-7-6-1h-11l-9 2h-12l-5-4 1-4 1-2z" fill="#FECAE3"/>
<path transform="translate(1177,551)" d="m0 0 3 1 4 5v3l3 1 14 20 7 11 8 16 3 4v2h3v2h7l4 3h10v2h2l4 5 3 5 5 2 5 14 5 11 5 13 6 10 3 3 1 7-7 1-4-2-2 1-4-1v-2h-7l-7 1-8-2v-3l-6-2-4-1-1-9 1-9-3-13-4-6-1-5h-2v-6l-2-1-1-4v-3l-4-10-6-9-3-5-2-3-1-4-4-8-3-5-1-4-3-1-4-5-5-9-7-9z" fill="#EE0A66"/>
<path transform="translate(633,619)" d="m0 0 5 1 1 4-9 7-25 15-30 12-30 9-44 11-32 7-35 6-26 4-10 2-6 2 1-6 5-4 6-3 13-2 1-2 40-7 33-7 41-10 26-7 24-8 5-2 9-2 14-6 6-4 6-3 6-5z" fill="#CCFEFE"/>
<path transform="translate(702,553)" d="m0 0h22l14 2 27 7 29 10 25 11 25 12 26 15 18 12 17 12 13 10 16 13 6 5 9 11 8 11 1 4-7-3-8-7-11-9-11-10-13-10-8-7-9-6-11-8-20-12-17-10-4-2-3-3-27-13-24-10-38-12-15-3-8-1-32-1-1-4 3-3z" fill="#FEF193"/>
<path transform="translate(1093,670)" d="m0 0h10l6 2 6 4v2l5 1v2h2l1 4 4 2 6 7 9 12v2h2l11 14 8 9 2 5 7 3 4 2v2l5 2 7 5 3 1v2l5 2 8 10v2h2l1 5h2l4 5 2-1 3 5 2 1v-15l3 3 3 9 1 11h-1v-5l-4 3-5-1-11-8-18-10-6-5-16-12-14-11-11-11-7-6-7-8-10-12-9-16-6-11-9-1v-2l-12 5-6 4-3-1 5-4 6-4z" fill="#F9A45D"/>
<path transform="translate(1125,982)" d="m0 0h4l-1 4-5 6-5 2v2h-2l-1 3h-2v2l-6 5h-2l-2 4-5 4-4 5h-2v2l-4 2-3 3h-2l-1 3-3 3-5 3-11 7-7 4-3 3-18 10h-3l-1 3-3 2-6 2-5 3-15 4-25 8-15 3-13-2-2-1v-2l11-5 23-8 20-8 12-5 20-8 10-6 20-10 9-7 13-11 11-10 14-11 9-6z" fill="#0193A7"/>
<path transform="translate(1100,520)" d="m0 0 9 2 6 4 2 4 1 6v22l-7 43-1 4h-2v-23l-3 1-4 10-5 14-5 2-4-6v-5l-5-1-3-2v-8l2-16 9-29 4-8 6-1h6l2-2-1-6-7-4z" fill="#FA5787"/>
<path transform="translate(1018,841)" d="m0 0h1v11l-3 21-2 21-7 8-28 30-16 15-9 9-13 10-21 13-23 12-18 8-7 1-5-2 2-4 7-5 12-5 9-5 8-3 9-5 12-7 4-2h3l1-3h2v-2l13-10 12-11 9-8 5-6 5-4 9-11 6-12 3-9 10-19 5-10z" fill="#B83518"/>
<path transform="translate(937,527)" d="m0 0 1 2 4 1 3 3v2l6 2 3 3v2l5 1 6 7 6 8v2h2l5 9 10 14 3 6 2 1 1 5-1 2 2 1-2 3v3l-4 1-8-3h-4l1 7-5-5-13-17-10-13-8-10-7-8-1-3-4-2v-2l8 1-1-1v-5l2-3z" fill="#FA5787"/>
<path transform="translate(318,953)" d="m0 0 4 1v12l-2 6-7 5-41 16-21 8-17 4-5-1-2-3v-7l5-5 17-8 26-10 29-12z" fill="#B6063C"/>
<path transform="translate(709,564)" d="m0 0h10l25 3 27 8 15 6 9 6 4 2 5 7-5 1h-7l-6-2-8-2-11-4-4-1-9-2h-8l-7 1-2-1v2l7 1 4 4-9-1-28-4-22-3-5-1v-5l1 3 31 3 13 1v-2l-7-4-12-6-9-2-8-1 5-5 2-1z" fill="#F9A35E"/>
<path transform="translate(693,509)" d="m0 0 3 1-2 5h-2l-1 3h-3v2l-3 1-1 2-3 1-1 3-4 4v5l-19 19-8 7-7 7-7 8-9 10-9 11-7 8-6-1-33-8-4-2 1-9 7-13 2-1-2 7-3 7 1 5 7 2 3 2 7 2 4 1h7l6-4 1-3 5-5 11-13 7-9 10-11 7-8 17-17h2v-2l10-8 4-3z" fill="#DD085C"/>
<path transform="translate(789,492)" d="m0 0h7l9 4 1 2 5-1 5 1v2l5-2 4 1 5 4v2l6 1 2 1v2l5 1 7 3 4 1v2l6 1h3l9 3-1 2 6 4 9 3 12 7 7 3v2h4l1 2 8 3 4 3 3 5 4 2 2 7 4 1 10 10 5 4 6 8 5 6 3 5 5 5 14 19 4 6 2-1 3 5-1 3-2-1v-2h-2l-3-5-5-1-1-3h-2l-1-4h-3v-3l-6-3v-2l-3-1-6-7-6-8-2-1v-3h-2l-5-9-2-1v-2l-4-2-1-4-3-1-3-5v-2l-4-1-1-3-7-6-11-4-14-7v-2l-8-2-2-4-10-6v-2l-5-2-13-7-11-4-11-1-2-1-9-2-7-2-11-5-9-5-4-1z" fill="#DB0558"/>
<path transform="translate(1202,909)" d="m0 0 1 2-3 7h-2l-2 6-10 14-6 9-6 8-4 6-5 5-7 9-4 5-13 13-7 8-9 9-11 9-9 8-15 11-23 15-17 10-17 7-10 5-24 10-19 6-25 7-35 6-10 1h-49l-20-1-15-3-17-2-8-2-19-2-13-3-8-2-19-2-3-1-17-1-7-1h-75l-3 1h-19v-1l17-2 12-1h53l32 2 26 3 54 9 26 3 1 1 22 2h50l26-4 22-4 7-2 17-5 21-7 12-5 18-8 15-8 9-5 27-18 11-8 9-7 17-14 11-10 7-8 10-10 3-4-1-2 10-8 9-11 12-16 7-11 7-10z" fill="#3CFAFA"/>
<path transform="translate(945,680)" d="m0 0 4 2 5 4 6 2 11 12 5 5 6 1 7-2 11-8 13-10 4-4 4 1-1 7-9 10-5 5-9 7h-2v2l-11 8-5 1v2l-5 3-6 4-10 6h-2v2l-12 6-2 4-8 5h-3l-1 4-4 1-2-2 1-5 9-11 5-4 1-2 10-5h3l1-3h2l6-15h2l2-5 1-4-3-6-8-7-11-10z" fill="#F8D330"/>
<path transform="translate(926,957)" d="m0 0h5l-4 4-20 12-21 10-24 9-25 7-18 4-24 3-56 3-50 1-60 3-40 4-24 4-23 5-32 10-26 10-20 9-18 11-10 8-11 10-7 8-7 6h-9l-8-4-6-4-5-2v-6l2 4 9 3 7 5h9l3-1 1-3h2l2-4 5-6 7-6h2l1-3 7-5h2v-2h3v-2l10-6 17-9 20-8 16-6 7-2 12-4 7-1 15-5 16-3 14-3 34-4 43-3 72-2 44-2 33-3 15-2 18-4 16-4 6-2h6v-2l21-8 17-9 8-4 8-5h2v-2z" fill="#F9AD3D"/>
<path transform="translate(1232,689)" d="m0 0 1 2 8 1 7 4 8 2h13l8-1 5-2 2 5 1 9v19l-2 6-3 1-14-4h-15l-1-1-2-13-4-8-7-7-5-10z" fill="#B1053A"/>
<path transform="translate(1135,754)" d="m0 0 7 2 5 3 7 3 4 2v2l4 1 7 3 8 5 9 2 7 3h9l8 7 7 4 8 1-1 7-5 7-10 5-5 1-8-4-12-11-8-7-10-9-16-12-15-14z" fill="#B93216"/>
<path transform="translate(1104,624)" d="m0 0 4 2 1 4h4l6 18 13 27 12 18 11 14 9 10 12 12 14 11 18 13 8 7 5 6v14l-1 2-3-1-8-13-6-11-8-7v-2l-4-2-8-6-2-1-2-5-10-4-11-8-11-12-14-20-7-9-4-5-7-6-2-4-4-25-5-14z" fill="#FEF193"/>
<path transform="translate(975,758)" d="m0 0 5 2 2 2 4 11 3 12v23l-1 4h-3l-5-17-6-12-2-3-6 1-14 6-8 2-7-3-10-11-5-11v-3l4 1 8 9 3 2h7l21-12z" fill="#BA3419"/>
<path transform="translate(1131,836)" d="m0 0 5 1 3 24v14h-2v3l-6 2-5 5-2 1-5-2-3-3v-2l-3-1v-2l-3-1v20l-2 4-3 3-2 4-3 2-4 9-1-2 2-8h2v-3l2-1 4-10 2-11 1-16v-13l1-7 4-2 1 3 7 2 6 3h3l1-5-2-7z" fill="#F9B733"/>
<path transform="translate(1281,801)" d="m0 0h1v7l-3 18-2 1-6 21-6 18-11 29-8 16-6 11-7 11-1 3h-2l-2 5-10 14-7 11-8 11-11 14-12 14-7 8-18 18-11 9-4 4h-2v2l-6 5h-2v2l-6 5h-2v2l-9 7-20 12-19 11-18 10-20 9-3-1 14-7 17-8 14-8 18-11 11-7 14-11 14-12 15-13 5-5h2l1-3h2l2-4 8-9h2l2-4 11-12 20-25 9-14 8-13 11-17 5-9 10-19 10-23 5-13 5-12 3-9 4-16 2-11 3-9z" fill="#0AC5CA"/>
<path transform="translate(1217,922)" d="m0 0 4 1 1 2v7l-4 9-4 10-6 10-2 4-4 4-1 3h-2l-1 3h-2v2l-2 1-1 3h-3l-2 4-5 2-2 4-3 2h-4l1-7 4-11 5-9 6-8 14-21h2l2-5 7-9z" fill="#22FBF3"/>
<path transform="translate(1138,725)" d="m0 0 5 2 2-2v2l4 1 5 2 5 5 2 4h6l4 2 2 2 3-1 11 7 4 2v2l5 2 8 10v2h2l1 5h2l4 5 2-1 3 5 2 1v-15l3 3 3 9 1 11h-1v-5l-4 3-5-1-11-8-18-10-6-5-16-12-14-11-8-8-2-4z" fill="#F9A837"/>
<path transform="translate(817,730)" d="m0 0h1v10l-3 1-2 4-9 6-11 8-11 6-14 7-13 5-26 7-24 5-9 1-2 1-44 4-64 3-26 2-26 4-32 8-9 3-4-1h3v-2l3-2 13-3 7-2h2l1-2 12-2 3-1 18-2 34-4 14-1h15l32-2 21-2h5l5-2 4 1 16-2 14-2 13-3 9-2 6-2 7-1 14-4 14-6 11-7 10-7 10-8 1-2h3l2-5 3-5z" fill="#E3075E"/>
<path transform="translate(978,609)" d="m0 0 6 5h8l9-2 6 2 9 12 5 6 9 14-1 4-9 1-7-3h-7l7 11 1 6-4-4-6-9-8-13-10-16-8-12z" fill="#F9A35D"/>
<path transform="translate(514,880)" d="m0 0 3 1-7 3-27 8-16 7-25 12-15 8-18 12h-2v2l-11 8-6 8-2 5 1 3 10-9 2-2 6-5 3-3 10-8 15-10 21-10 20-7 4 1-1 2-23 8-21 10-11 7-6 4-4 5h-2l-2 10 1 12v6l-4 3-7-1-11-8-3-4v-2h-2l2-8 6-8 9-9 19-12 24-13 19-9 21-8 16-5z" fill="#F9B833"/>
<path transform="translate(677,1127)" d="m0 0h7l16 2 12 1 6 2 17 1 12 3 13 1 9 3v1h-12l-22-3-39-3h-29l-52 4-26 4-26 6h-5v-2l14-5 10-3 14-3 12-1 6-2 20-2 12-3h25z" fill="#0196A8"/>
<path transform="translate(1090,517)" d="m0 0 7 1 3 1v2l5 2 4 4-1 5-2 2h-10l-3 3-6 17-5 17-2 20v5h-2l-4 4-1 5-1 16h-1l-1-30 2-20 7-28 7-20z" fill="#FEC9E2"/>
<path transform="translate(519,1108)" d="m0 0 4 1-16 7-15 6-25 12-19 10-10 7-9 6-13 11-8 7-10 10-7 11-2 8v2l5-4 5-9 12-13 4-2-2 4-8 9-2 6 5 5 2 7 3 3 1 5-3 3-3 1h-9l-8-6-5-8-1-7 6-12 8-10 9-9 10-8 19-14 13-8 21-11 23-10 19-8z" fill="#3CFAFA"/>
<path transform="translate(933,740)" d="m0 0 3 1-9 10-2 3 1 5 4-1 1-3 8-4 3-1 1-4 6-4 4-2h7l4 3 2 10 1 3 5 1v3l-11 4-15 9-2 1h-7l-7-6-5-6-4-1 1-8 8-10z" fill="#F9A934"/>
<path transform="translate(1131,924)" d="m0 0 1 3-5 17-7 17-6 10-7 9-7 7-7 8-16 16-15 11-10 6-16 8-18 7-12 3-11 5-4-1 19-8 16-8 9-4 16-10 14-10 13-10 9-8 7-8 3-4h2l2-4h2l2-4 6-7 11-19 6-13z" fill="#A15623"/>
<path transform="translate(1081,823)" d="m0 0 4 4 3 10 3 3h2v-2h3v5l3 9 2 10v13h2l1-2v11l-6 23-4 14-5 11-1-3 2-6 1-7v-25l-3-27-5-27-2-9z" fill="#B93317"/>
<path transform="translate(1019,821)" d="m0 0 2 1v13l-1 8-3 4-5 15-12 22-8 15-10 14-14 15-13 12-3 1 2-4 4-4h2l1-3h3l2-4 9-10 9-12 3-6 2-7 4-7 3-7 1-7v-8l2-7 1-5 4-6h2l1-4h2v-2l2-1 1-4-3-1 2-2h4l2-6z" fill="#F9A836"/>
<path transform="translate(785,1131)" d="m0 0 12 1 37 5 29 2h28l22-1 18-2h9v1l-18 3-19 1-36 5-5 3-13 1-26 1v-3l-7-3h-2l-1-7-4-1-7-1-13-2-4-1z" fill="#019EAE"/>
<path transform="translate(1044,464)" d="m0 0 10 3 7 3v2l5 1 8 2v2h2v-2h2l1 1 5 1 2 1v2l6 1v2l6 1 5 5 10 6v2h3l3 3v2h3l4 4v2l4 1v2l4 2 5 6 4 2v2h2l1 4 6 5v2l3 1v2h3l3 3 2 7h2l1 5h-5-3l-11-13-11-14-15-15-13-10-14-9-16-9-16-8-18-8z" fill="#EE0F68"/>
<path transform="translate(711,1124)" d="m0 0h13l20 2 10 4 5 1h16l14 2 13 2 7 1 4 2 1 7 3-1 7 4-1 2h-8l-20-3-1-3-7-1-6-3h-7l-9-3-15-2-20-4v-3l-19-3z" fill="#0194C2"/>
<path transform="translate(1029,1109)" d="m0 0 4 1-19 7-33 10-31 7-19 3-18 2-22 1h-28l-29-2-44-6-36-6-29-3-16-1h-58l-41 3-18 3h-5l4-2 23-4 36-3 29-1 27 1 35 3 41 6 30 5 28 3 11 1h55l35-4 25-5 23-6 26-8z" fill="#0AC5CA"/>
<path transform="translate(1202,909)" d="m0 0 1 2-3 7h-2l-2 6-10 14-6 9-6 8-4 6-5 5-7 9-4 5-13 13-7 8-9 9-11 9-9 8-15 11-23 15-17 10-7 3-3-1 9-6 9-5 27-18 11-8 9-7 17-14 11-10 7-8 10-10 3-4-1-2 10-8 9-11 12-16 7-11 7-10z" fill="#3CF9FA"/>
<path transform="translate(976,1027)" d="m0 0v3l-4 5-14 6-15 7-16 6-2 4h2v2l4 2v1l-15 2-42 2v-3l6-3 12-1 19-5-1-2 14-4 12-4 21-9z" fill="#D0FEFE"/>
<path transform="translate(926,957)" d="m0 0h5l-4 4-20 12-21 10-24 9-25 7-18 4-24 3-56 3-50 1h-17v-1l26-2 74-3 33-3 15-2 18-4 16-4 6-2h6v-2l21-8 17-9 8-4 8-5h2v-2z" fill="#F9AB43"/>
<path transform="translate(1151,974)" d="m0 0 3 1-11 12-8 8-6 7-8 7-13 11-13 10-14 10-14 9-15 10-16 8-17 8-14 5-10 4-11 3-10 4-4-1 10-4 14-5 7-2 22-9 16-8 13-7 6-4 8-6h2v-2l10-6 9-5 7-6h2l1-3 7-6h2l2-4 7-6h2v-3l8-6h2l2-4 5-3 5-5 3-1v-2h2l-1-6z" fill="#0AC5CA"/>
<path transform="translate(1157,772)" d="m0 0h2v2l4 1 6 3 6 5 11 6 8 4 9 3 7-2 7 2 1 1h6l-2 5-5 5-8 4-5 1-8-4-12-11-8-7-10-9-9-7z" fill="#B20738"/>
<path transform="translate(780,621)" d="m0 0h8l10 4 18 9 11 8 16 8h2l1 2 5 2 7 3 10 6 4 4 5 2v3l4 1 5 4v2h3l1 5-3 1-11-7-15-10-20-13-19-12-16-9-20-9-6-3z" fill="#BC331B"/>
<path transform="translate(1096,1071)" d="m0 0m-1 1m-1 1m-2 1h2l-1 3-17 10-8 5-16 8-18 8-8 3-30 10-21 6-28 6-31 4-10 1h-55l-31-3-34-5-4-2h9l9 2 24 3 26 2 23 1h27l37-4 25-5 17-4 17-5 36-12 13-6 17-8 17-10z" fill="#3DFAFB"/>
<path transform="translate(904,693)" d="m0 0 12 3 6 2 4 4 7 9 3 7-1 4h-2l1 6-2 4h-4l-12-17-11-14-3-3 1-4z" fill="#BA3318"/>
<path transform="translate(678,584)" d="m0 0 7 3v7l3 1v2h2v2l11 2 22 3h7l10 2 8 1v2l5 2 6 2 3 3h-7l-27-5-34-3-9-3-6-7-1-2z" fill="#B6073C"/>
<path transform="translate(797,882)" d="m0 0m-4 1h4v2l-22 6-15 3-13 2-50 4-86 4h-10v-2l6-1 43-3h18l28-2 4-1 38-2 25-3 27-6z" fill="#F9A73E"/>
<path transform="translate(1249,730)" d="m0 0h17l16 4h1l2 10-10-3h-23l-5 3-1 7-3 35-2 9-1 14h-2l1 3-2 8h-1l1-13 3-27 2-35 2-6z" fill="#0BC6CB"/>
<path transform="translate(991,633)" d="m0 0h2l10 16 7 10 9 14-1 5h-2v2l-11 7-3-12-9-14-4-6h3v-4h4v2h2v2l4-1-5-10-6-9z" fill="#D22C22"/>
<path transform="translate(621,655)" d="m0 0 4 1-1 3-9 7h-2l-1 4 8-3h3l-1 2-21 7h-3l-1 2-13 2h-2l1-4 9-6 1-3-6-2v-7l-2-2h5l7 2h15z" fill="#22FBF3"/>
<path transform="translate(614,1115)" d="m0 0 9 1 1 2-5 2 26-2h21l1-2 42 2 34 3 20 3v1l-15-1-31-3-29-2h-14l-38 2-30 3-28 6-12 3-4-1 18-5-2-1 1-4 9-3h3v-2z" fill="#3AFAFA"/>
<path transform="translate(684,789)" d="m0 0h12l-2 2-44 4-64 3-26 2-26 4-32 8-9 3-4-1h3v-2l3-2 13-3 7-2h2l1-2 12-2 3-1 18-2 34-4 14-1h15l15-1 4 1 45-3z" fill="#E50760"/>
<path transform="translate(1014,685)" d="m0 0h5l-2 6-7 7-8 6h-2l-1 3-17 12-9 2-3-3 3-13 1-2 4 3 9-1 13-9z" fill="#FFF294"/>
<path transform="translate(519,1108)" d="m0 0 4 1-16 7-15 6-25 12-19 10-10 7-9 6-13 11-8 7-10 10-7 11-4 9-2-4 4-10 9-12 10-10 10-8 19-14 13-8 21-11 23-10 19-8z" fill="#3AF9FA"/>
<path transform="translate(692,570)" d="m0 0 15 2 10 4 9 5 4 3-1 3-13-1-28-3-3-1-1-7 4-4z" fill="#FBB45A"/>
<path transform="translate(976,725)" d="m0 0 4 1-2 10-3 3 4 3-1 2 5-1 1 4-3 5-3 3-6 2h-5l-5-15-6-2v-2l12-7z" fill="#F9B733"/>
<path transform="translate(893,793)" d="m0 0h3l6 12 1 9-6 10-9 11-12 10-5 2 1-3 9-7 3-1 3-5h2l2-8-1-3-4-4-1-9 3-7z" fill="#F9A935"/>
<path transform="translate(1093,670)" d="m0 0h10l6 2 6 4v2h2l2 12-1 5 1 7 7 8 5 6v2h2v2h2v2l-4-2-11-12-10-16-8-15-9-1v-2l-12 5-6 4-3-1 5-4 6-4z" fill="#F9A835"/>
<path transform="translate(999,1133)" d="m0 0h4l-1 3-24 7-26 6-22 3-14 1h-30l1-2 8-2 28-1 4 1 5-1h3l5-2h7l8-3 27-6 14-2z" fill="#0197A9"/>
<path transform="translate(975,758)" d="m0 0 5 2 2 2 4 11 3 12v11l-2-4-1-8-5-2-1-3h-5v-3l-5-1-5-5-2-4-11 5-1-2 14-8z" fill="#D22B20"/>
<path transform="translate(728,554)" d="m0 0 10 1 27 7 12 4v2l5 2 4 3v2h-6l-19-6-12-4-5-2-22-4-3-4z" fill="#FDFCFB"/>
<path transform="translate(384,1214)" d="m0 0 4 2 7 5 3 1 13 1 1 3h9v-2l6-3-1 4-10 8-9 3h-7l-6-4-7-7-3-6z" fill="#0194A7"/>
<path transform="translate(647,1082)" d="m0 0h53l32 2 26 3 41 7 1 2h-10l-16-3-13-3-19-2-3-1-17-1-7-1h-75l-3 1h-19v-1l17-2z" fill="#43FAFB"/>
<path transform="translate(995,892)" d="m0 0 1 3-7 13-6 8h-2l-1 3h-2l-1 3-4 4h-2l-2 4-13 12h-2l-1 3-14 11-3 1v2l-3 3-7 3-8 5-9 5-8 4-6 1 4-4 15-8 19-12 17-13 12-11 8-7 12-13 10-15z" fill="#A44C19"/>
<path transform="translate(514,880)" d="m0 0 3 1-7 3-27 8-16 7-25 12-15 8-18 12h-2v2l-9 6-2-1 2-4 9-7 20-12 27-14 24-10 18-6z" fill="#F9C334"/>
<path transform="translate(1116,541)" d="m0 0 2 2v15l-7 43-1 4h-2l-1-34 2-9 2-7 3-8z" fill="#ED1066"/>
<path transform="translate(475,1046)" d="m0 0 1 2-3 3-16 8-15 10-14 12-12 13-5 4h-9l-8-4-6-4-5-2v-6l2 4 9 3 7 5h9l3-1 1-3h2l2-4 5-6 7-6h2l1-3 7-5h2v-2h3v-2l10-6 17-9z" fill="#F9AF3B"/>
<path transform="translate(508,1039)" d="m0 0 3 3-3 5-7 4-5 5-5 1-3-1-10 2h-5l2-5 8-5 15-6 9-2z" fill="#B93216"/>
<path transform="translate(1013,662)" d="m0 0h2l6 10 3 3v3l4 2 2 5-5-1-2 11-2 2-8 3h-3l7-7 3-5v-5l-5 1-5 5-10 8-13 9-4-1 14-10 7-8 10-7h2v-2l2-1-1-6-4-8z" fill="#FAB833"/>
<path transform="translate(1258,758)" d="m0 0h6v2l8 2 3 5 4 8 2 2 1 7-5 1-7-9-4-4-9-3-2 2 1-10z" fill="#22FBF3"/>
<path transform="translate(702,553)" d="m0 0h22l4 2-8 1 2 2 22 4 6 3-3 1-15-3-8-1-32-1-1-4 3-3z" fill="#FEED91"/>
<path transform="translate(1103,873)" d="m0 0h1v11l-6 23-4 14-5 11-1-3 2-6 1-7v-35h1l1 9h2l1-5 4-1 1-6z" fill="#A94C1B"/>
<path transform="translate(905,1054)" d="m0 0h7l-1 2-19 5-12 1-6 3v1l42-2 10-1v2l-5 1-21 1-15 2-8 2h-11l-1-3v-5l9-3z" fill="#3AF9FA"/>
<path transform="translate(904,693)" d="m0 0 12 3 6 2 4 4 1 3-2 4-6 1-1 6-5-5-9-11-2-2 1-4z" fill="#B40639"/>
<path transform="translate(507,996)" d="m0 0 4 1-18 7-11 4-12 5-19 9-12 7-10 6-16 11-10 9-9 6 2-4 12-11 14-10 13-8 16-9 23-11 26-10z" fill="#F8D638"/>
<path transform="translate(793 1e3)" d="m0 0h9l-1 2-7 1h-14v2l-41 2-50 1h-17v-1l26-2 74-3z" fill="#F9AA43"/>
<path transform="translate(1095,740)" d="m0 0h2l14 25 9 17 8 20 6 24-1 3-2-3v-7l-2-1-3-9-6-17-6-11-3-5-3-9-2-3v-5h-2l-3-5-6-11z" fill="#FEF193"/>
<path transform="translate(1252,615)" d="m0 0 2 4 6 15 8 23 1 5h3l-4-11-3-10v-5l2 1 11 33 2 12-4-2-8-16-6-16-4-10-6-18z" fill="#FA5E91"/>
<path transform="translate(1068,646)" d="m0 0h5l-1 7-4 6-12 9-1-2-6-1 1-4-2-1 1-3 5-1 8-6z" fill="#FEF193"/>
<path transform="translate(856,1068)" d="m0 0h2l2 12 3 1 1 5-14 5h-5l2-11 4-7z" fill="#01A0AF"/>
<path transform="translate(1081,617)" d="m0 0 2 1 2 5 3 2 5-1 3-1 1-5h1l2 12-5 10-3 1h-7l-4-3-6-1 4-3 11 1v-3l-5-2-4-5z" fill="#F9A933"/>
<path transform="translate(875,390)" d="m0 0 19 1 2 2-7 3-7 1h-13l-7 2h-9l-3-2v-2h7l8-4z" fill="#FDFBFC"/>
<path transform="translate(399,1198)" d="m0 0 4 5 1 4-1 3h2v2l7 2-1 4-3 1v2h-9l-5-5v-3l2-5 1-6z" fill="#23FAF3"/>
<path transform="translate(685,558)" d="m0 0h2l1 4h23l-2 1v2l-11 1-2 4-9 3-2 2-1 7-2-2v-15l-2-1z" fill="#FFCAE4"/>
<path transform="translate(666,1116)" d="m0 0 26 1 31 2 27 3 13 2v1l-15-1-31-3-29-2h-14l-38 2-22 2h-8v-1l13-2 26-2h21z" fill="#3DFAFB"/>
<path transform="translate(1260,822)" d="m0 0 3 2 2 4h1l2 13-3 5-1 5 1 3h-2l-3 6-2 1-1 6h-1v-9l2-4 1-18v-11z" fill="#22FBF3"/>
<path transform="translate(857,661)" d="m0 0 5 2 3 3 6 2 10 5 5 4v2h3l1 5-3 1-11-7-21-14z" fill="#B6093B"/>
<path transform="translate(884,788)" d="m0 0 5 1v1l-6 2-17 17-8 7-9 7-21 11-2-1 17-10 11-8 10-9 9-10 7-6z" fill="#F9BA35"/>
<path transform="translate(492,1159)" d="m0 0 3 1-24 13-19 13-12 9-13 12-6 6h-2v2l-9 7h-11v-1l12-2 16-16 22-18 18-12 17-10z" fill="#0AC5CA"/>
<path transform="translate(1027,1111)" d="m0 0 3 1-10 5-6 4-22 7-19 2-4-1 26-7 27-9z" fill="#019EAE"/>
<path transform="translate(926,957)" d="m0 0h5l-4 4-20 12-21 10-15 6-5-1 3-2 20-8 15-8 8-4 8-5h2v-2z" fill="#F9AD3F"/>
<path transform="translate(411,697)" d="m0 0h3l2 3 8 1 1 2h-8l-2 2-6 2-4 1-1 9-5 1-3-2 3-2-1-9 1-6 3 1 1 3 4-1 3 1-1-4h-6v-1z" fill="#22FAF3"/>
<path transform="translate(817,730)" d="m0 0h1v10l-3 1-2 4-9 6-11 8-7 4-2-1 6-7 9-6 6-5 1-2h3l2-5 3-5z" fill="#E0065C"/>
<path transform="translate(668,898)" d="m0 0m-19 0h18l1 2-12 2-45 2h-10v-2l6-1z" fill="#F9A837"/>
<path transform="translate(476,903)" d="m0 0 4 1-1 2-23 8-21 10-11 7-4 3h-2l2-4 15-10 21-10z" fill="#F9BF33"/>
<path transform="translate(926,762)" d="m0 0 10 1h3l1 2 10 2 9-3-3 3-12 7h-7l-7-6z" fill="#F9A45E"/>
<path transform="translate(972,935)" d="m0 0v3l-18 18-13 10-8 5h-3v-2l5-1 1-3 4-2 5-4h2l2-4 4-4 1-3h2v-3l8-5 4-3z" fill="#B20E38"/>
<path transform="translate(444,1193)" d="m0 0h2v2h-2l-2 5-4 6h-2l-1 5-5 4-5 5-6 5-3-1v-2l-3-1 4-3 5-2h3v-2h3l2-5 1-4h2v-2l3-3h2l1-3z" fill="#0194C2"/>
<path transform="translate(1249,730)" d="m0 0h17l8 2v1l-5 1 9 3 3 3-6-1-22-1v-3h-6zm-3 5 2 2-3 2z" fill="#0198C1"/>
<path transform="translate(484,815)" d="m0 0h5l-3 2-22 7-10 5-8 3-10 6-5 2v2l-9 7h-2v2l-10 7h-6v-1l6-2 11-9h2v-2l13-9 14-8 15-6z" fill="#DB0559"/>
<path transform="translate(453,1184)" d="m0 0 3 2-7 6-7 2-1 3-3 3h-2l-1 3h-2l-2 6-3 5h-3v2l-9 4-2-1 5-6 8-7 8-8 10-8z" fill="#019DAF"/>
<path transform="translate(891,1129)" d="m0 0 10 1 1 4-7 2-29-1-2-2v-2l6-1 7 2 8-1z" fill="#3DFAFB"/>
<path transform="translate(964,441)" d="m0 0 7 1 1 1 7 1 2-1 9 1 4 3v2h3v2l-14-2-27-4 1-2z" fill="#EE1068"/>
<path transform="translate(519,1108)" d="m0 0 4 1-16 7-15 6-25 12-5 2v-3l16-8 18-8 17-7z" fill="#39F8F8"/>
<path transform="translate(384,956)" d="m0 0h2l4 6 5 5-1 6-5 2-2 3-3-7-1-4v-8z" fill="#B21334"/>
<path transform="translate(802,470)" d="m0 0 4 1-1 4 7 4v3l3 3v1h-6l-9-6-6-3-3 2 2-4 6-4z" fill="#F9598C"/>
<path transform="translate(948,736)" d="m0 0h2l-2 5-8 7h-2l-1 3-8 7h-3l1-6 8-8 10-7z" fill="#FFF294"/>
<path transform="translate(1017,682)" d="m0 0 4 1-1 7-9 10-5 5-9 7h-2v2l-11 8-3 1 1-3 11-8 5-4 2-4 11-8 6-6 2-5h-5z" fill="#F9B832"/>
<path transform="translate(267,990)" d="m0 0 7 1-4 3-19 7-7 2-4-1 1-4h2l1-2h6l3-1 2-2v2h2l1-2 3 2 1-3 2 1v-2z" fill="#DF1161"/>
<path transform="translate(656,1008)" d="m0 0h26v1l-18 2-19 1h-32v-1z" fill="#F9B039"/>
<path transform="translate(684,789)" d="m0 0h12l-2 2-44 4h-22l4-2 46-3z" fill="#DB0559"/>
<path transform="translate(697,786)" d="m0 0h8v1l-9 2-31 3-33 2-2-2 16-1 21-2h5l5-2 4 1z" fill="#EE0A66"/>
<path transform="translate(742,1086)" d="m0 0h9l48 8 1 2h-10l-16-3-13-3-19-2z" fill="#40FAFB"/>
<path transform="translate(1122,697)" d="m0 0h5l7 8 5 7-3 4-3-1v-3l-4-2-3-3-2-3-1-3z" fill="#FCB55A"/>
<path transform="translate(1131,836)" d="m0 0 5 1 2 13v13l-2-2-3-9-2-3-2-11z" fill="#FAB734"/>
<path transform="translate(630,616)" d="m0 0h13l9 5 6 7 3 8-1 3-5 10-1-2 2-5v-12l-3-1-3-4v-2l-5-2-4-3-11-1z" fill="#0AC5CA"/>
<path transform="translate(1092,594)" d="m0 0 5 1 2 4-4 9-4 1-4-6v-5z" fill="#D22B20"/>
<path transform="translate(589,556)" d="m0 0v3l-9 13-5 12v3l9-9v3l-9 9h-4l1-5 5-15 8-10zm-1 17v3l-2 1z" fill="#F9588B"/>
<path transform="translate(514,880)" d="m0 0 3 1-7 3-27 8-16 7-7 2 1-3 20-8 15-5z" fill="#F9D53D"/>
<path transform="translate(1055,727)" d="m0 0 3 3 7 13 12 19 4 7 3 7-1 3-3-4-6-12-11-19-8-15z" fill="#F9A73F"/>
<path transform="translate(472,1184)" d="m0 0h2v3l-16 11-12 9h-2l2-4 5-6 7-3 4-5h2v-2h5v-2z" fill="#0298AA"/>
<path transform="translate(531,802)" d="m0 0 3 2-32 8-9 3-4-1h3v-2l3-2 13-3 7-2h2l1-2z" fill="#E0065D"/>
<path transform="translate(963,880)" d="m0 0 1 3-3 5-3 2-1 3-5 5-3 2-1-3 4-5h2l1-3 5-5zm-16 18m-1 1m-1 1m-1 1m-1 1m-1 1m-1 1m-2 1 2 1-3 5-16 11-2-1 16-13z" fill="#F8D235"/>
<path transform="translate(1108,641)" d="m0 0h2l4 25 4 6 1 3-4-2-5-6-2-4z" fill="#F8D330"/>
<path transform="translate(626,792)" d="m0 0 4 1-3 3-25 1h-13l1-2 15-2z" fill="#E2065D"/>
<path transform="translate(1010,683)" d="m0 0 4 2-5 5-9 7-13 9-4-1 14-10 7-8z" fill="#F9BF39"/>
<path transform="translate(576,1135)" d="m0 0 4 1-18 6-16 4-13 4-10 1 1-2 13-4 9-2 11-3 6-1 7-3z" fill="#0194C2"/>
<path transform="translate(985,906)" d="m0 0v3l-12 14-9 9-8 7-4 2 2-4 4-4h2l1-3h3l2-4 9-10 7-8z" fill="#F9A64A"/>
<path transform="translate(797,882)" d="m0 0m-4 1h4v2l-22 6-9 2h-12l1-2 17-3z" fill="#F9A740"/>
<path transform="translate(680,565)" d="m0 0h2l1 15 1 4h5v2l-7-1-3-3-1 8h-1v-18z" fill="#EA175C"/>
<path transform="translate(459,899)" d="m0 0 2 1-3 3-30 15h-3v-2l29-15z" fill="#F9BA38"/>
<path transform="translate(1108,882)" d="m0 0 2 4v9l-2 4-3 3-2 4-3 2-4 9-1-2 2-8h2v-3l2-1 4-10 2-10z" fill="#F9B536"/>
<path transform="translate(1093,670)" d="m0 0m-4 1 5 1 9 3 3 3 1 6-3-4-2-3-9-1v-2l-12 5-6 4-3-1 5-4 6-4z" fill="#F9A742"/>
<path transform="translate(500,1159)" d="m0 0 3 1-2 2-10 4-3 1v2l-3 2h-3v2l-12 5-5 1 4-4 10-6 9-4z" fill="#0194C2"/>
<path transform="translate(905,1054)" d="m0 0h7l-1 2-19 5-12 1-5 1 1-2h3v-2z" fill="#40FAFB"/>
<path transform="translate(576,905)" d="m0 0 6 1v1l-33 5-12 2 5-4 26-4z" fill="#F9A73C"/>
<path transform="translate(1249,746)" d="m0 0 4 1v14l-2 5-3-1v-18z" fill="#D5FFFF"/>
<path transform="translate(1104,846)" d="m0 0h1l1 11v23l-2 12-5 15h-1l1-8 4-15 1-10z" fill="#F9A45E"/>
<path transform="translate(1105,582)" d="m0 0h3v23h2l-1 6h-1l-3-17v-3h-2l-2 4-1-2 4-10z" fill="#F99174"/>
<path transform="translate(385,1201)" d="m0 0h1l2 8 4 6 7 5-1 2-5-1-9-7-1 2 1-12z" fill="#02A3B2"/>
<path transform="translate(1220,767)" d="m0 0 3 3 3 9 1 11h-1v-5l-4 3-5-1v-1h5l-1-2-3-1h2z" fill="#F9A96A"/>
<path transform="translate(773,1138)" d="m0 0 1 2 7-1 8 4 5 1v2l-16-2-13-2 4-2z" fill="#029BAD"/>
<path transform="translate(383,1082)" d="m0 0 2 4 9 3 7 5 9 1v2h-11l-11-7-5-2z" fill="#F9B137"/>
<path transform="translate(1254,735)" d="m0 0h20l7 4-3 1-3-1-22-1z" fill="#0197AC"/>
<path transform="translate(804,582)" d="m0 0h8l7 3 1 2 3 1v3l2 1-9-2-8-4z" fill="#FDFDFD"/>
<path transform="translate(1192,593)" d="m0 0 3 4v2h2l1 5 4 4-1 3h2l3 4-1 4h-2l-10-19-2-3z" fill="#BD0742"/>
<path transform="translate(558,797)" d="m0 0h7v1l-25 5h-13l3-2 3-1 18-2z" fill="#E60861"/>
<path transform="translate(1068,644)" d="m0 0h6l1 1-1 7-4 6-2 1 2-4 3-9-6 2-9 6-5 4h-3v-2l15-10z" fill="#F8D330"/>
<path transform="translate(890,682)" d="m0 0 5 3 5 5h3l1 4-3 3-10-9-3-2v-2h2z" fill="#BD3020"/>
<path transform="translate(1252,615)" d="m0 0 2 4 6 15 6 18v2h-2l-7-19-5-15z" fill="#F95288"/>
<path transform="translate(1017,622)" d="m0 0 3 1v2l5 2 12 17-2 1-5-5-6-8-1-4h-2v-2l-4-2z" fill="#FEEF93"/>
<path transform="translate(1202,909)" d="m0 0 1 2-3 7h-2l-2 6-10 14-4 2 6-10 9-13z" fill="#3FFAFB"/>
<path transform="translate(1269,733)" d="m0 0h8l6 1 2 10-6-2-1-4-4-2-16-1v-1z" fill="#09C1C9"/>
<path transform="translate(1120,946)" d="m0 0h2l-2 5-9 16-7 6v-3l3-2 4-8z" fill="#F9A849"/>
<path transform="translate(1231,841)" d="m0 0 2 2-3 8-2 8-7 19-3 2 10-30z" fill="#3DFAFB"/>
<path transform="translate(395,937)" d="m0 0 2 1-2 4-6 9-2 7-1-2h-2l2-8 6-8z" fill="#F9B63A"/>
<path transform="translate(605,1012)" d="m0 0h24v1l-31 3h-7l-1-2z" fill="#F9AB45"/>
<path transform="translate(1017,682)" d="m0 0 4 1-1 7-5 5-9 8-5 4-2-1 4-4 10-8 4-4 2-5h-5z" fill="#F8D42F"/>
<path transform="translate(621,900)" d="m0 0 2 1 14 1v1l-36 1v-2l6-1z" fill="#F9A743"/>
<path transform="translate(927,765)" d="m0 0 3 1 4 5 3 2h10l-4 4-6 1-5-5-5-6z" fill="#A54B19"/>
<path transform="translate(1013,662)" d="m0 0h2l6 10 1 1v5l-6 4-2 3-3-1 3-4h2v-2l2-1-1-6-4-8z" fill="#F9A83F"/>
<path transform="translate(609,598)" d="m0 0h5v4l-4 4-6-1-4-2v-1l6-2z" fill="#BA0840"/>
<path transform="translate(1124,806)" d="m0 0h2l4 11 3 11 2 4-2 2-4-7z" fill="#F8D32F"/>
<path transform="translate(397,950)" d="m0 0v3l-1 1-2 10-4-1-3-3 1-3 8-6z" fill="#F8CF30"/>
<path transform="translate(803 1e3)" d="m0 0h20l-4 2-24 3h-15v-1l21-2z" fill="#F9A553"/>
<path transform="translate(1135,840)" d="m0 0 2 3 1 7v13l-2-2-3-9v-3z" fill="#F9AC38"/>
<path transform="translate(392,1187)" d="m0 0h3l-2 6-4 9-3 3-1-5 6-12z" fill="#38FAF9"/>
<path transform="translate(416,1040)" d="m0 0m-1 1m-2 1 2 1-5 6-9 7-7 5 2-4 12-11z" fill="#F9DA45"/>
<path transform="translate(850,818)" d="m0 0 4 1-5 4-21 11-2-1 17-10z" fill="#F8D136"/>
<path transform="translate(1012,759)" d="m0 0h2l6 23v3h-2l-4-14-2-6z" fill="#FADB4B"/>
<path transform="translate(1021,737)" d="m0 0 2 4-8 6-3-1 1-6 3-2z" fill="#BD361B"/>
<path transform="translate(789,575)" d="m0 0 9 1 5 3v3h-8v-2l-4-1v-2l-3-1z" fill="#FDFCF7"/>
<path transform="translate(697,555)" d="m0 0h20l-1 3-11 1-8-3z" fill="#FDFDFD"/>
<path transform="translate(531,802)" d="m0 0 3 2-21 5-3-1 5-1v-2h2l1-2z" fill="#DF065C"/>
<path transform="translate(1117,702)" d="m0 0 4 2 9 11 1 3h2v2h2v2l-4-2-11-12-3-4z" fill="#F9A742"/>
<path transform="translate(1103,603)" d="m0 0 2 1v14l-1 5-2-4-1-7 1-8z" fill="#FFF294"/>
<path transform="translate(423,1084)" d="m0 0v3l-10 10-2 1h-9v-1h8l2-4 4-4z" fill="#F9AB41"/>
<path transform="translate(388,1091)" d="m0 0 5 1 4 5 2 2-3 2-8-5-1-4z" fill="#B73416"/>
<path transform="translate(412,926)" d="m0 0v3l-5 2v2l-9 6-2-1 2-4 5-4h3z" fill="#F8D430"/>
<path transform="translate(963,880)" d="m0 0 1 3-3 5-3 2-1 3-5 5-3 2 2-6 1-2h2l1-3 5-5z" fill="#FEF192"/>
<path transform="translate(889,830)" d="m0 0h2l-2 4-9 8-7 5h-2l1-3 9-7 3-1 3-5z" fill="#F9A646"/>
<path transform="translate(507,996)" d="m0 0 4 1-18 7-9 2v-2l20-7z" fill="#F9D940"/>
<path transform="translate(933,705)" d="m0 0 5 5 8 15 1 3-1 4-10-20-3-5z" fill="#F9A45E"/>
<path transform="translate(519,1108)" d="m0 0 4 1-16 7-7 2 3-4z" fill="#43FAFB"/>
<path transform="translate(793 1e3)" d="m0 0h9l-1 2-7 1h-22v-1z" fill="#F9B233"/>
<path transform="translate(680,565)" d="m0 0h2l1 17-2-1-1-7h-2l-1 2 1-8z" fill="#F84D84"/>
<path transform="translate(860,644)" d="m0 0 10 5 14 10-1 2-14-10-9-5z" fill="#B13C17"/>
<path transform="translate(933,740)" d="m0 0 3 1-9 10-4 5v-4l7-9z" fill="#F9B237"/>
<path transform="translate(690,555)" d="m0 0h5l-3 2v3l5 1v2h-9l-1-1v-5z" fill="#FCB663"/>
<path transform="translate(430,1074)" d="m0 0v3l-3 5-9 7-2-1 7-8z" fill="#F9B237"/>
<path transform="translate(1092,672)" d="m0 0 11 3 3 3 1 6-3-4-2-3-9-1v-2l-5 1 1-2z" fill="#F9A45E"/>
<path transform="translate(267,990)" d="m0 0 7 1-4 3-10 3 1-5 3 1v-2z" fill="#E11967"/>
<path transform="translate(868,847)" d="m0 0 3 1-14 10-5 2 2-4 11-7z" fill="#F9A744"/>
<path transform="translate(1240,793)" d="m0 0 1 2-1 14h-2l1 3-2 8h-1l1-13 2-13z" fill="#15CDD2"/>
<path transform="translate(385,1201)" d="m0 0h1l2 8 4 6 7 5-3 1-8-7-4-6z" fill="#0AC5CA"/>
<path transform="translate(772,888)" d="m0 0m-5 1h5v2l-6 2h-12l1-2z" fill="#F9A839"/>
<path transform="translate(787,608)" d="m0 0 7 1 5 2v2h-10l-2-2z" fill="#BA3317"/>
<path transform="translate(588,573)" d="m0 0v3l-2 1zm-3 4m-1 1v3l-9 9h-4v-4l3-1 1 2z" fill="#F84D8A"/>
<path transform="translate(635,1083)" d="m0 0h5v2l-3 1h-19v-1z" fill="#44FAFB"/>
<path transform="translate(985,906)" d="m0 0v3l-7 8-5 3 2-4 7-8z" fill="#F9A742"/>
<path transform="translate(922,660)" d="m0 0 8 6 7 6-1 2-4-2-4-4v-2l-5-2-2-3z" fill="#F9C234"/>
<path transform="translate(576,572)" d="m0 0 1 2-3 6-2 6-3 3-1-3 7-13z" fill="#EF1D78"/>
<path transform="translate(514,1032)" d="m0 0h5l-3 2-15 5v-3l7-3z" fill="#F9AA42"/>
<path transform="translate(1071,683)" d="m0 0 3 1-2 2 1 6 3 7-1 3-6-12 1-6z" fill="#F9A45A"/>
<path transform="translate(894,487)" d="m0 0 6 1 4 2 1 3h-7l-4-4z" fill="#FDEEF5"/>
<path transform="translate(1044,464)" d="m0 0 10 3 7 3v2h2l-1 2-18-8z" fill="#F12171"/>
<path transform="translate(502,1156)" d="m0 0 1 3-10 5-3-1 3-3h2v-2z" fill="#02A3B1"/>
<path transform="translate(501,1115)" d="m0 0m-3 1 3 1-5 3-10 5-3-1 5-3z" fill="#3CFAFA"/>
<path transform="translate(742,1086)" d="m0 0h9l10 2v1h-11l-8-1z" fill="#3DFAFB"/>
<path transform="translate(818,874)" d="m0 0 4 2-17 6 1-3z" fill="#F9A742"/>
<path transform="translate(877,843)" d="m0 0h2v2l-7 5-7 4-5 2 4-4z" fill="#A54C19"/>
<path transform="translate(823,998)" d="m0 0h6l-1 2-10 2h-11v-1z" fill="#F9B133"/>
<path transform="translate(862,808)" d="m0 0 4 1-8 7-2 2-4-1z" fill="#F9C332"/>
<path transform="translate(568,796)" d="m0 0h10l-2 2-19 2 2-2z" fill="#DF065C"/>
<path transform="translate(1040,706)" d="m0 0 4 2 2 4-4-3-9 8-2-1 6-5z" fill="#F9A45E"/>
<path transform="translate(316,971)" d="m0 0 3 2-6 4-7 2 6-7z" fill="#E21C68"/>
<path transform="translate(476,903)" d="m0 0 4 1-1 2-11 3-1-3z" fill="#F9C131"/>
<path transform="translate(598,794)" d="m0 0h7l-3 3h-13l1-2z" fill="#DD055A"/>
<path transform="translate(890,790)" d="m0 0 5 2-6 8-4 2 2-4 2-3z" fill="#FAC348"/>
<path transform="translate(1064,647)" d="m0 0m-2 1h2v2l-6 4-5 4h-3v-2z" fill="#F9CC3D"/>
<path transform="translate(1135,859)" d="m0 0 4 2-1 13-2-3-1-9z" fill="#F9D33C"/>
<path transform="translate(707,785)" d="m0 0 7 1-4 2-5 1h-9l4-2z" fill="#DD055A"/>
<path transform="translate(1015,616)" d="m0 0 4 1 5 9-4-1-4-5-2-2z" fill="#FDFBF9"/>
<path transform="translate(811,1112)" d="m0 0h9l8 1-2 2h-12l-4-2z" fill="#0AC5CA"/>
<path transform="translate(427,1033)" d="m0 0m-2 1h2l-2 4-9 6-2-1 8-7z" fill="#F8D42F"/>
<path transform="translate(1232,945)" d="m0 0h2l-2 5-4 6-3 1 2-6 2-2 2-1z" fill="#0199AA"/>
<path transform="translate(438,1192)" d="m0 0 2 1-11 10-4 2 1-3h2l1-3z" fill="#3DFAFB"/>
<path transform="translate(470,894)" d="m0 0h3v2l-11 5-2-1 3-3z" fill="#F8D437"/>
<path transform="translate(1220,767)" d="m0 0 3 3 1 4-3 10-3-1h2z" fill="#FBB859"/>
<path transform="translate(786,758)" d="m0 0 2 1-4 5-6 3-4-1 11-7z" fill="#E60760"/>
<path transform="translate(1046,711)" d="m0 0h2l6 11 1 5-4-5-5-9z" fill="#F9A73E"/>
<path transform="translate(589,556)" d="m0 0v3l-7 10-2-1 2-5z" fill="#F63F97"/>
<path transform="translate(1097,540)" d="m0 0h3l1 4-1 2-5 1v-3l-2-1 2-2 2 1z" fill="#F42598"/>
<path transform="translate(412,683)" d="m0 0h6l-1 2-15 2v-2z" fill="#42FAFB"/>
<path transform="translate(576,905)" d="m0 0 6 1v1l-16 2v-2z" fill="#F9A741"/>
<path transform="translate(949,896)" d="m0 0 1 2-2-1zm-2 2m-1 1m-1 1m-1 1m-1 1m-1 1m-1 1m-2 1 2 1-3 5-5 2z" fill="#F8D63A"/>
<path transform="translate(509,806)" d="m0 0h6l-4 2-1 2-9 1-1-2z" fill="#E50760"/>
<path transform="translate(1122,797)" d="m0 0 2 3 1 7-1 4-3-7z" fill="#FABE4C"/>
<path transform="translate(234 1e3)" d="m0 0 5 4-9 1-2-3z" fill="#E21663"/>
<path transform="translate(283,984)" d="m0 0 4 1v2l-9 3 2-4z" fill="#E01563"/>
<path transform="translate(907,969)" d="m0 0h5l-3 3-6 3-2-1 3-4z" fill="#F9AB43"/>
<path transform="translate(961,930)" d="m0 0 2 1-7 8-4 2 2-4 4-4h2z" fill="#F9A740"/>
<path transform="translate(433,912)" d="m0 0h5l-4 3-6 3h-3v-2z" fill="#F9BC34"/>
<path transform="translate(1198,774)" d="m0 0 7 1 6 4v3l-13-7z" fill="#F9A45E"/>
<path transform="translate(838,632)" d="m0 0 5 2 8 4-3 1-7-3-3-2z" fill="#B33B17"/>
<path transform="translate(991,633)" d="m0 0h2l7 11-1 2-7-9z" fill="#D22B20"/>
<path transform="translate(1131,924)" d="m0 0 1 3-4 14-2-1 1-5z" fill="#B16227"/>
<path transform="translate(454,911)" d="m0 0 2 1-2 3-9 3 2-4z" fill="#F9C231"/>
<path transform="translate(560,907)" d="m0 0h6v2l-4 1h-10l3-2z" fill="#F9A839"/>
<path transform="translate(392,1187)" d="m0 0h3l-1 4-5 5-2 1 2-6z" fill="#2CF2F1"/>
<path transform="translate(423,917)" d="m0 0 4 2-7 4h-3l1-3z" fill="#F9C838"/>
<path transform="translate(797,882)" d="m0 0m-4 1h4v2l-7 2h-6l2-2z" fill="#F9A83B"/>
<path transform="translate(800,612)" d="m0 0 12 5 1 2-6-1-7-4z" fill="#B83718"/>
</svg>
