<?xml version="1.0" standalone="no"?>
<!DOCTYPE svg PUBLIC "-//W3C//DTD SVG 20010904//EN"
 "http://www.w3.org/TR/2001/REC-SVG-20010904/DTD/svg10.dtd">
<svg version="1.0" xmlns="http://www.w3.org/2000/svg"
 width="256.000000pt" height="256.000000pt" viewBox="0 0 256.000000 256.000000"
 preserveAspectRatio="xMidYMid meet">
<metadata>
Created by potrace 1.14, written by Peter Selinger 2001-2017
</metadata>
<g transform="translate(0.000000,256.000000) scale(0.100000,-0.100000)"
fill="#000000" stroke="none">
<path d="M1553 2330 c-3 -11 -9 -20 -14 -20 -5 0 -8 -3 -8 -7 4 -23 -2 -43
-11 -38 -6 4 -7 -1 -3 -11 5 -12 3 -15 -6 -9 -10 6 -11 3 -1 -15 7 -12 8 -20
2 -17 -5 4 -15 -13 -22 -36 -7 -23 -16 -44 -21 -47 -4 -3 -10 -20 -14 -37 -3
-18 -9 -43 -14 -56 -6 -14 -7 -29 -3 -33 4 -5 0 -3 -8 3 -13 10 -16 8 -17 -10
-3 -42 -11 -62 -24 -59 -11 3 -11 1 -2 -9 9 -9 8 -15 -3 -26 -8 -8 -14 -23
-14 -33 0 -10 -5 -22 -10 -25 -6 -4 -8 -11 -5 -16 4 -5 -2 -9 -12 -10 -16 0
-16 -1 2 -9 17 -6 17 -9 5 -14 -9 -4 -17 -16 -17 -29 -1 -12 -6 -23 -11 -25
-6 -2 -8 -11 -5 -21 3 -10 -1 -22 -8 -26 -7 -5 -10 -4 -5 3 3 6 2 13 -3 17 -6
3 -8 -3 -6 -14 5 -25 -5 -62 -15 -56 -3 2 -6 -9 -5 -25 1 -16 -2 -27 -7 -24
-7 5 -12 -10 -9 -28 0 -5 -3 -8 -9 -8 -5 0 -7 -7 -4 -15 4 -8 1 -15 -5 -15 -6
0 -8 -7 -5 -15 4 -8 -1 -17 -9 -21 -9 -3 -14 -14 -12 -25 2 -10 -3 -25 -11
-33 -8 -8 -11 -22 -7 -32 5 -13 3 -15 -7 -9 -10 6 -12 4 -7 -8 8 -21 -11 -33
-48 -32 -16 0 -36 -5 -43 -12 -8 -7 -18 -10 -24 -7 -6 4 -8 2 -4 -4 3 -6 2
-13 -3 -16 -18 -11 -9 -90 13 -115 12 -13 15 -21 8 -17 -8 5 -11 2 -10 -6 2
-7 -3 -12 -10 -10 -8 1 -11 -2 -7 -9 5 -8 10 -8 18 0 6 6 18 11 26 11 14 -1
13 -3 -1 -14 -10 -7 -15 -16 -11 -19 3 -4 0 -13 -7 -22 -7 -8 -9 -15 -6 -15 4
0 1 -10 -6 -22 -6 -13 -13 -29 -14 -37 -2 -8 -9 -18 -16 -22 -11 -7 -11 -9 0
-9 7 0 10 -5 7 -10 -5 -8 -12 -7 -23 2 -15 11 -15 11 -5 -3 16 -20 5 -59 -16
-59 -14 0 -14 -2 -1 -10 11 -7 12 -12 3 -21 -6 -6 -9 -18 -6 -25 3 -8 0 -14
-6 -14 -6 0 -11 -9 -11 -19 0 -11 -7 -27 -16 -35 -8 -9 -12 -20 -9 -26 3 -5 2
-10 -3 -10 -5 0 -12 -9 -15 -20 -3 -13 -1 -18 6 -13 7 3 3 -3 -7 -15 -11 -12
-16 -22 -11 -22 4 0 2 -6 -4 -13 -6 -8 -8 -17 -4 -20 3 -4 1 -7 -6 -7 -7 0 -9
-4 -6 -10 3 -5 1 -10 -4 -10 -6 0 -11 -12 -11 -28 0 -15 -7 -38 -16 -50 -8
-12 -17 -32 -19 -44 -3 -12 -10 -25 -16 -29 -8 -5 -8 -8 2 -11 9 -3 8 -9 -7
-24 -10 -10 -19 -26 -18 -34 0 -8 -7 -23 -15 -33 -13 -16 -13 -18 -1 -15 10 2
14 -4 12 -17 -2 -14 0 -16 6 -7 9 14 56 12 69 -3 4 -4 2 -5 -4 -1 -9 5 -11 2
-6 -9 4 -13 8 -14 13 -4 5 7 6 18 3 26 -3 7 0 13 7 13 6 0 8 -5 4 -12 -7 -11
4 -10 51 7 14 5 16 4 7 -3 -11 -7 -9 -10 6 -14 16 -4 19 -2 15 10 -4 10 -2 13
5 8 7 -4 12 -2 12 4 0 6 5 8 13 4 8 -5 8 -2 -2 9 -16 20 -2 23 19 5 12 -11 12
-10 2 3 -6 9 -8 20 -4 24 4 5 0 4 -8 0 -12 -7 -13 -6 -3 7 7 8 10 18 6 21 -3
4 1 9 9 12 10 4 14 14 11 26 -4 12 0 19 10 19 8 0 21 8 28 18 11 14 11 15 -1
4 -20 -18 -32 -15 -21 6 14 25 24 56 23 64 -1 5 2 8 6 8 5 0 9 6 10 13 3 33
22 78 31 73 3 -2 7 10 9 27 5 70 8 73 41 53 8 -6 7 1 -4 18 -16 23 -14 30 7
27 4 0 4 7 1 16 -4 10 -2 14 5 9 6 -3 14 -1 18 5 4 7 3 9 -3 6 -6 -4 -13 0
-17 8 -3 8 -1 17 3 19 5 3 19 34 32 68 12 35 26 65 29 68 4 3 6 12 5 21 -2 11
3 15 15 12 10 -3 21 0 24 6 4 6 1 9 -7 5 -24 -9 -28 12 -6 32 19 17 20 17 26
-6 6 -21 7 -22 13 -6 4 11 18 20 35 22 28 3 47 23 52 56 6 37 9 43 23 56 13
12 13 13 -2 8 -10 -3 -18 -1 -18 4 0 6 6 10 13 10 9 0 9 2 -1 9 -8 5 -12 24
-11 47 3 58 0 74 -12 74 -5 0 -8 -4 -5 -8 3 -5 -1 -9 -9 -9 -11 0 -12 4 -4 14
6 7 8 13 3 13 -4 0 -3 5 4 12 9 9 15 8 28 -8 15 -18 15 -18 4 4 -6 12 -16 22
-23 22 -8 0 -8 3 2 9 7 5 11 13 7 19 -3 5 1 13 10 16 8 3 13 10 10 15 -8 12
19 73 28 64 4 -4 5 4 3 17 -4 23 15 55 26 44 3 -3 8 0 12 6 3 6 2 9 -3 8 -6
-2 -10 2 -10 7 0 6 4 9 8 8 4 -1 6 6 3 16 -7 28 15 64 35 57 13 -5 12 -2 -2 9
-17 13 -17 15 -4 15 9 0 20 4 23 10 3 6 -1 7 -9 4 -9 -3 -16 -1 -16 5 0 6 5
11 11 11 6 0 8 7 5 16 -5 12 -2 15 10 10 14 -5 15 -4 4 9 -9 11 -9 15 -1 15 7
0 9 5 5 12 -5 8 -1 9 12 4 15 -6 16 -5 7 5 -9 9 -9 19 2 45 7 18 11 35 7 38
-3 3 3 6 13 6 13 0 15 3 6 14 -8 10 -7 19 7 37 10 13 17 34 16 46 -1 18 2 21
17 13 12 -7 20 -7 24 0 4 6 1 9 -7 8 -13 -3 -14 9 -4 57 2 11 10 20 18 19 9
-1 13 9 12 33 0 19 3 36 8 39 5 3 6 10 2 15 -3 6 3 13 15 16 12 3 21 10 21 15
0 5 -4 6 -10 3 -5 -3 -10 -1 -10 4 0 6 4 11 10 11 5 0 7 6 4 14 -3 7 2 20 10
28 11 12 12 18 3 28 -9 10 -9 11 0 6 8 -4 11 1 10 14 -1 19 -8 20 -95 20 -85
0 -94 -2 -99 -20z m-413 -1010 c5 8 9 5 13 -10 4 -17 2 -20 -13 -15 -10 3 -21
1 -25 -4 -4 -7 1 -8 11 -4 14 5 16 2 10 -23 -13 -50 -50 -55 -44 -6 5 37 30
81 36 63 3 -10 6 -10 12 -1z m55 0 c-3 -5 -11 -10 -16 -10 -6 0 -7 5 -4 10 3
6 11 10 16 10 6 0 7 -4 4 -10z m22 -26 c-3 -3 -12 -4 -19 -1 -8 3 -5 6 6 6 11
1 17 -2 13 -5z m143 -4 c-13 -9 -13 -11 0 -20 11 -7 12 -12 3 -21 -6 -6 -9
-19 -6 -28 4 -14 3 -14 -6 -1 -6 8 -11 10 -11 4 0 -6 -7 -11 -16 -11 -14 0
-14 2 2 14 10 7 14 13 10 13 -5 0 -3 6 3 13 6 8 8 17 5 20 -8 8 5 27 19 27 7
0 6 -4 -3 -10z m-90 -10 c0 -5 -5 -10 -11 -10 -5 0 -7 5 -4 10 3 6 8 10 11 10
2 0 4 -4 4 -10z m-60 -10 c0 -5 -2 -10 -4 -10 -3 0 -8 5 -11 10 -3 6 -1 10 4
10 6 0 11 -4 11 -10z m65 -20 c-3 -5 2 -21 11 -35 9 -14 14 -25 11 -25 -10 0
-38 51 -32 60 3 6 8 10 11 10 3 0 2 -4 -1 -10z m-65 -9 c0 -5 -9 -19 -21 -32
l-20 -24 15 26 c9 14 13 29 9 32 -3 4 -1 7 5 7 7 0 12 -4 12 -9z m153 -70 c4
-1 2 -7 -5 -15 -7 -8 -15 -12 -17 -10 -2 2 -11 -1 -21 -6 -13 -7 -17 -5 -17 8
0 21 14 31 36 27 9 -2 20 -4 24 -4z"/>
<path d="M1108 1263 c7 -3 16 -2 19 1 4 3 -2 6 -13 5 -11 0 -14 -3 -6 -6z"/>
<path d="M1730 2266 c0 -2 7 -7 16 -10 8 -3 12 -2 9 4 -6 10 -25 14 -25 6z"/>
<path d="M1663 2085 c0 -8 4 -12 9 -9 5 3 6 10 3 15 -9 13 -12 11 -12 -6z"/>
<path d="M1614 1948 l-19 -23 23 19 c21 18 27 26 19 26 -2 0 -12 -10 -23 -22z"/>
<path d="M1475 1569 c-4 -6 -5 -12 -2 -15 2 -3 7 2 10 11 7 17 1 20 -8 4z"/>
<path d="M1440 1506 c0 -2 7 -7 16 -10 8 -3 12 -2 9 4 -6 10 -25 14 -25 6z"/>
<path d="M1464 1432 c-7 -4 -12 -44 -13 -96 -1 -49 -4 -93 -7 -97 -2 -4 2 -10
8 -12 10 -4 10 -6 0 -6 -10 -1 -10 -5 0 -23 7 -13 12 -26 13 -30 0 -3 4 -10 9
-15 5 -4 6 -3 3 3 -4 7 -1 14 7 17 8 3 12 16 11 31 -4 31 8 33 35 6 11 -11 25
-20 30 -20 6 0 11 -4 11 -10 1 -5 2 -14 3 -19 0 -5 5 -13 9 -18 5 -4 8 -3 7 2
-6 30 1 38 15 19 15 -19 15 -19 8 1 -6 16 -4 18 8 8 21 -17 53 9 44 36 -6 21
-35 30 -35 10 0 -5 5 -7 10 -4 6 3 10 1 10 -5 0 -6 -11 -8 -25 -6 -74 13 -64
50 14 49 28 -1 48 3 45 8 -3 5 0 9 5 9 6 0 11 5 11 11 0 5 -6 7 -12 3 -7 -4
-10 -4 -6 1 4 4 2 17 -4 29 -7 11 -11 24 -10 29 1 4 -12 7 -29 7 -16 0 -28 4
-25 9 4 5 -7 4 -24 -2 -16 -6 -30 -15 -30 -20 0 -4 -4 -5 -10 -2 -5 3 -10 -1
-10 -10 0 -12 -5 -15 -16 -11 -13 5 -14 3 -7 -6 12 -16 13 -49 1 -42 -12 8
-10 -10 4 -24 9 -9 9 -12 0 -12 -7 0 -12 5 -12 11 0 5 -4 8 -8 5 -4 -2 -7 34
-7 81 0 85 -10 119 -31 105z m137 -111 c6 11 12 9 29 -9 14 -14 16 -22 8 -23
-7 0 -23 -2 -36 -3 -27 -3 -35 6 -25 30 5 13 8 14 11 5 4 -11 6 -11 13 0z"/>
<path d="M599 1408 c-1 -13 -2 -49 -3 -80 0 -32 -4 -58 -7 -58 -4 0 -10 -7
-13 -16 -5 -14 -4 -15 8 -5 12 10 14 6 12 -28 -2 -23 0 -42 3 -42 36 -8 50 -5
43 10 -7 15 -7 45 -2 64 1 4 4 16 5 27 1 11 3 25 4 30 1 13 31 13 31 -1 0 -5
-4 -8 -9 -4 -5 3 -12 1 -15 -4 -10 -15 25 -6 36 10 7 11 9 9 5 -9 -3 -12 -1
-20 4 -16 5 3 9 2 10 -3 0 -4 2 -16 4 -25 2 -10 -2 -15 -9 -12 -7 3 -13 -2
-13 -10 0 -8 4 -13 8 -10 4 2 10 0 14 -6 3 -5 1 -10 -5 -10 -17 0 5 -33 24
-36 9 -1 16 2 16 7 0 6 5 7 11 3 7 -4 6 2 -1 17 -10 17 -10 24 -1 27 18 6 13
32 -6 32 -15 0 -16 2 -3 9 8 6 19 7 25 4 5 -4 -1 6 -14 20 -14 15 -21 27 -17
27 4 0 1 7 -8 15 -8 8 -19 15 -25 15 -6 0 -11 6 -11 13 0 8 -3 7 -10 -3 -5 -8
-12 -11 -16 -7 -4 4 -14 1 -22 -6 -11 -8 -14 -8 -9 0 4 6 1 14 -5 16 -10 4 -9
6 1 6 10 1 11 4 2 15 -6 8 -10 20 -9 27 2 7 -5 15 -14 17 -13 2 -18 -3 -19
-20z"/>
<path d="M324 1408 c-3 -5 0 -15 6 -24 15 -17 42 -1 34 20 -6 14 -32 17 -40 4z"/>
<path d="M1723 1378 c4 -14 0 -22 -14 -25 -23 -6 -25 -28 -3 -37 8 -3 13 -10
9 -15 -3 -5 -1 -12 4 -16 6 -3 8 -12 5 -20 -4 -8 -10 -13 -14 -10 -5 3 -6 -4
-3 -15 3 -11 10 -23 15 -26 5 -3 5 -11 -2 -19 -8 -10 -6 -13 7 -11 11 0 17 -5
15 -13 -3 -12 0 -12 12 -1 14 10 16 10 17 -6 0 -16 2 -16 11 4 7 13 17 21 26
17 7 -3 19 -5 25 -5 7 0 6 -4 -3 -10 -8 -5 -10 -10 -4 -10 5 0 20 9 32 20 24
22 29 36 10 24 -7 -5 -8 -3 -3 6 4 7 8 29 7 49 0 32 1 33 9 13 7 -19 29 -23
29 -6 0 3 -4 2 -10 -1 -5 -3 -10 3 -10 14 0 12 0 24 -1 29 0 4 8 9 18 12 10 3
19 13 19 22 1 10 -2 15 -7 12 -5 -3 -27 -6 -50 -6 -25 0 -43 -6 -46 -14 -3 -8
-10 -11 -16 -7 -6 3 -7 1 -3 -6 6 -9 11 -9 22 0 12 10 12 7 0 -22 -8 -18 -22
-36 -32 -40 -11 -4 -13 -8 -6 -8 7 -1 23 4 35 11 21 11 21 11 5 -13 -9 -13
-23 -23 -31 -23 -10 1 -13 -4 -10 -15 5 -13 4 -14 -8 -3 -16 14 -22 115 -7
106 5 -3 15 2 23 12 12 17 11 20 -8 24 -12 3 -24 15 -27 25 -3 11 -13 21 -23
22 -14 1 -18 -4 -14 -19z m113 -168 c0 -11 -6 -20 -13 -20 -20 0 -24 18 -6 29
10 6 18 11 18 11 1 0 1 -9 1 -20z"/>
<path d="M478 1360 c-9 -6 -27 -11 -41 -12 -16 -1 -23 -7 -20 -15 3 -7 -2 -15
-10 -19 -9 -3 -14 -14 -12 -25 2 -10 -1 -19 -6 -19 -6 0 -7 -6 -2 -12 12 -21
12 -39 0 -32 -7 3 -3 -2 8 -11 11 -9 30 -25 43 -35 13 -12 22 -15 22 -8 0 6 7
3 16 -8 12 -15 15 -16 10 -2 -4 13 0 16 17 12 16 -2 28 5 41 25 12 18 26 27
35 24 13 -4 14 -3 2 5 -17 12 -24 42 -9 42 6 0 4 7 -3 17 -8 9 -9 14 -4 11 6
-4 11 1 11 11 0 13 -6 17 -20 13 -13 -3 -17 -1 -12 7 5 7 -3 13 -23 17 -17 4
-28 10 -25 15 7 11 3 11 -18 -1z m2 -42 c0 7 5 10 10 7 6 -4 7 -11 4 -17 -4
-6 -2 -8 3 -5 6 4 17 -1 24 -10 12 -15 12 -16 -6 -10 -17 6 -18 5 -5 -5 19
-16 27 -53 9 -42 -8 5 -11 2 -7 -8 4 -8 1 -15 -5 -15 -7 0 -20 -4 -29 -8 -11
-4 -20 0 -28 14 -6 12 -7 21 -3 21 4 0 3 4 -4 8 -7 4 -10 17 -6 30 3 12 10 19
16 15 6 -3 7 -1 3 5 -4 7 -4 17 0 23 4 8 9 7 15 -2 7 -11 9 -11 9 -1z"/>
<path d="M474 1263 c3 -4 0 -13 -6 -22 -10 -12 -7 -12 8 2 11 9 23 16 25 15 2
-2 3 -1 1 1 -1 3 -10 6 -18 7 -9 1 -13 0 -10 -3z"/>
<path d="M325 1321 c0 -26 -4 -35 -15 -33 -13 2 -13 1 0 -10 17 -15 23 -48 8
-48 -6 0 -5 -6 2 -15 10 -12 10 -15 0 -15 -9 0 -10 -3 -1 -13 8 -11 6 -19 -8
-35 -10 -12 -21 -19 -25 -15 -3 3 -6 -1 -6 -9 0 -9 7 -21 15 -28 10 -9 15 -9
15 -1 0 6 7 11 15 11 8 0 15 5 15 11 0 5 5 7 12 3 6 -4 8 -3 4 4 -3 6 -2 13 3
17 5 3 8 14 6 25 -2 11 0 20 6 20 5 0 9 5 9 11 0 5 -3 8 -7 6 -5 -3 -8 5 -8
18 0 15 5 21 15 18 13 -4 13 -3 1 5 -17 12 -24 42 -10 42 5 0 9 5 9 11 0 5 -5
7 -10 4 -7 -4 -9 3 -6 19 3 14 2 26 -2 27 -4 0 -14 2 -22 4 -12 2 -16 -6 -15
-34z"/>
<path d="M799 1360 c-1 -3 -3 -22 -4 -42 -1 -20 -5 -44 -8 -52 -3 -8 -2 -18 4
-22 6 -3 3 -12 -8 -20 -17 -13 -17 -15 0 -28 14 -10 15 -15 5 -19 -7 -3 -4 -6
7 -6 29 -1 41 11 39 37 -1 12 3 25 8 28 6 4 5 10 -3 15 -11 7 -9 9 6 10 l20 0
-20 9 c-11 5 -14 9 -6 9 10 1 11 4 3 14 -8 10 -6 16 9 25 16 10 19 10 19 -4 0
-9 -5 -12 -12 -8 -7 5 -8 3 -3 -6 6 -10 10 -10 20 3 15 22 30 8 30 -28 0 -19
-5 -29 -14 -27 -7 1 -10 -2 -6 -8 3 -6 11 -8 16 -5 11 7 7 -24 -5 -44 -6 -10
-5 -12 2 -7 7 4 12 3 12 -2 0 -5 7 -9 15 -9 8 0 15 4 15 9 0 5 5 6 12 2 7 -5
8 -3 3 6 -14 22 -15 81 -2 74 8 -5 8 -3 0 6 -10 11 -10 17 0 29 10 12 9 13 -2
6 -11 -6 -13 -3 -9 13 3 12 3 21 -1 20 -3 -1 -17 4 -31 12 -14 7 -26 12 -27
11 -12 -11 -63 -17 -72 -8 -6 6 -12 9 -12 7z m-4 -150 c3 -5 1 -10 -4 -10 -6
0 -11 5 -11 10 0 6 2 10 4 10 3 0 8 -4 11 -10z"/>
<path d="M1978 1348 c-15 -5 -33 -22 -40 -38 -7 -16 -17 -26 -23 -22 -5 3 -3
-3 5 -13 11 -14 12 -19 3 -22 -7 -3 -13 -9 -13 -14 0 -6 5 -7 10 -4 9 6 15
-17 10 -40 -1 -5 2 -7 5 -3 4 4 16 3 27 -3 16 -9 17 -13 6 -27 -11 -15 -11
-15 2 -6 13 10 39 16 107 26 7 1 9 6 5 12 -11 18 -13 48 -2 41 5 -3 10 -1 10
5 0 7 -6 10 -12 7 -7 -2 -12 -12 -12 -21 1 -9 -6 -17 -15 -17 -9 -1 -23 -2
-31 -3 -8 0 -23 7 -34 17 -15 15 -16 21 -6 30 9 9 11 9 7 1 -4 -7 0 -15 9 -18
8 -3 12 -2 9 4 -4 6 6 10 22 10 15 0 38 3 50 6 18 5 20 10 13 29 -5 13 -6 25
-3 28 6 7 -45 41 -66 43 -9 1 -28 -2 -43 -8z m57 -33 c7 -5 12 -14 12 -21 0
-13 -22 -13 -34 1 -4 4 -2 5 6 0 10 -6 12 -4 6 5 -6 10 -11 10 -20 -4 -12 -15
-13 -15 -18 3 -7 28 23 38 48 16z"/>
<path d="M2154 1345 c-16 -7 -34 -23 -40 -36 -19 -43 -5 -119 22 -119 9 0 12
-5 8 -11 -4 -7 -1 -10 7 -7 20 7 51 -11 43 -25 -4 -7 -3 -8 2 -4 5 5 9 14 9
20 0 5 6 12 14 15 9 3 11 0 5 -9 -6 -11 -5 -12 8 -2 8 7 17 10 21 7 3 -3 3 3
0 15 -3 11 -9 18 -14 15 -5 -3 -9 0 -9 5 0 6 5 11 12 11 6 0 8 3 4 7 -4 5 -13
1 -19 -7 -7 -8 -22 -16 -34 -17 -17 -2 -23 2 -23 18 0 11 -4 17 -10 14 -5 -3
-10 -1 -10 4 0 6 8 11 18 12 9 0 27 2 40 5 12 2 22 -1 22 -6 0 -6 5 -10 11
-10 5 0 8 4 5 9 -3 5 1 11 8 14 15 6 18 47 4 47 -4 0 -8 7 -8 15 0 8 -1 15 -3
15 -1 0 -16 4 -33 9 -20 6 -40 5 -60 -4z m66 -48 c0 -17 -68 -16 -75 1 -3 7 0
10 5 7 6 -3 10 -1 10 5 0 6 5 8 10 5 6 -3 10 -1 10 5 0 8 6 8 20 0 11 -6 20
-16 20 -23z"/>
<path d="M2190 1299 c0 -5 5 -7 10 -4 6 3 10 8 10 11 0 2 -4 4 -10 4 -5 0 -10
-5 -10 -11z"/>
<path d="M1428 1283 c5 -21 7 -23 10 -9 2 10 0 22 -6 28 -6 6 -7 0 -4 -19z"/>
<path d="M1775 1289 c-4 -6 -5 -12 -2 -15 2 -3 7 2 10 11 7 17 1 20 -8 4z"/>
<path d="M875 1281 c-3 -5 -2 -12 3 -15 5 -3 9 1 9 9 0 17 -3 19 -12 6z"/>
<path d="M1611 1234 c0 -11 3 -14 6 -6 3 7 2 16 -1 19 -3 4 -6 -2 -5 -13z"/>
<path d="M2186 1234 c-4 -9 -4 -19 -1 -22 3 -3 5 0 5 7 0 7 4 9 10 6 6 -3 7 1
4 9 -8 20 -10 20 -18 0z"/>
<path d="M2028 1223 c7 -3 16 -2 19 1 4 3 -2 6 -13 5 -11 0 -14 -3 -6 -6z"/>
<path d="M565 1200 c3 -5 8 -10 11 -10 2 0 4 5 4 10 0 6 -5 10 -11 10 -5 0 -7
-4 -4 -10z"/>
<path d="M1500 1206 c0 -2 7 -9 15 -16 9 -7 15 -8 15 -2 0 5 -7 12 -15 16 -8
3 -15 4 -15 2z"/>
<path d="M1686 1198 c3 -5 10 -6 15 -3 13 9 11 12 -6 12 -8 0 -12 -4 -9 -9z"/>
<path d="M1890 1186 c0 -2 7 -7 16 -10 8 -3 12 -2 9 4 -6 10 -25 14 -25 6z"/>
<path d="M413 1165 c0 -7 6 -11 14 -8 7 3 13 6 13 8 0 2 -6 5 -13 8 -8 3 -14
-1 -14 -8z"/>
<path d="M1430 1170 c-13 -8 -12 -10 3 -10 9 0 17 5 17 10 0 12 -1 12 -20 0z"/>
<path d="M1670 1159 c0 -5 5 -7 10 -4 6 3 10 8 10 11 0 2 -4 4 -10 4 -5 0 -10
-5 -10 -11z"/>
<path d="M2150 1156 c0 -2 8 -10 18 -17 15 -13 16 -12 3 4 -13 16 -21 21 -21
13z"/>
<path d="M1279 1083 c-13 -16 -12 -17 4 -4 9 7 17 15 17 17 0 8 -8 3 -21 -13z"/>
<path d="M1376 1087 c3 -10 9 -15 12 -12 3 3 0 11 -7 18 -10 9 -11 8 -5 -6z"/>
<path d="M1335 1060 c3 -5 8 -10 11 -10 2 0 4 5 4 10 0 6 -5 10 -11 10 -5 0
-7 -4 -4 -10z"/>
<path d="M1255 1000 c3 -5 8 -10 11 -10 2 0 4 5 4 10 0 6 -5 10 -11 10 -5 0
-7 -4 -4 -10z"/>
<path d="M1332 978 c-7 -7 -12 -9 -12 -4 0 14 -27 -19 -34 -42 -4 -12 -12 -22
-17 -22 -6 0 -6 -7 1 -19 7 -14 6 -21 -3 -24 -9 -4 -9 -6 0 -6 7 -1 10 -8 7
-16 -4 -8 -1 -15 5 -15 6 0 11 -7 11 -15 0 -36 124 -52 155 -21 9 9 12 16 6
16 -5 0 -8 13 -6 28 4 36 -7 55 -35 59 -15 2 -19 -1 -14 -9 5 -9 2 -9 -9 1
-15 12 -17 11 -17 -2 0 -9 9 -19 20 -22 27 -9 26 -25 -1 -20 -12 3 -18 1 -15
-3 4 -4 12 -7 18 -7 6 0 12 -7 14 -17 1 -13 -4 -15 -25 -12 -14 3 -31 6 -38 9
-17 6 -47 66 -36 74 4 3 8 13 8 21 0 8 5 14 12 13 8 -2 10 4 6 14 -5 13 -2 15
15 11 12 -4 20 -3 17 2 -8 12 21 20 33 8 13 -13 32 -2 32 18 0 18 -80 20 -98
2z"/>
<path d="M1485 982 c-6 -4 -10 -35 -10 -70 0 -40 -3 -61 -10 -58 -6 2 -11 -5
-11 -15 0 -12 4 -15 11 -9 8 7 11 3 10 -11 -1 -11 -8 -25 -16 -31 -11 -8 -11
-9 2 -5 9 3 21 1 27 -5 7 -7 16 -6 29 1 16 11 15 11 -7 6 -23 -6 -22 -5 7 17
18 12 35 30 38 38 3 8 -5 4 -19 -9 -24 -23 -25 -23 -23 -3 0 11 5 18 11 15 5
-4 7 1 2 12 -5 14 -4 16 7 7 8 -7 17 -9 20 -5 13 13 19 -28 6 -44 -12 -14 -12
-16 0 -8 11 6 13 4 8 -8 -4 -12 -2 -14 10 -10 11 4 14 2 9 -5 -4 -7 -3 -12 3
-12 18 0 31 36 19 48 -7 7 -9 12 -5 12 4 0 0 15 -9 33 -13 24 -13 29 -3 21 16
-12 29 -12 47 0 20 12 23 3 8 -26 -8 -15 -12 -29 -9 -31 2 -3 -1 -15 -7 -28
-11 -20 -10 -21 9 -16 13 3 19 1 14 -5 -4 -7 -1 -8 6 -4 7 5 10 15 7 23 -4 11
-2 13 9 9 8 -3 15 -1 15 4 0 6 -5 10 -11 10 -5 0 -7 5 -4 11 5 7 15 5 30 -5
17 -12 26 -13 31 -4 4 6 3 8 -3 5 -6 -4 -16 0 -23 8 -11 13 -9 14 11 7 15 -6
26 -20 30 -38 4 -16 7 -24 8 -19 1 6 5 4 10 -3 6 -11 11 -10 25 3 17 17 22 40
7 31 -12 -8 -22 20 -14 41 5 12 3 14 -7 8 -10 -6 -12 -4 -7 8 3 10 2 17 -3 17
-6 0 -9 3 -8 8 5 15 -37 92 -50 92 -7 0 -19 -13 -25 -30 -6 -16 -15 -30 -19
-30 -4 0 -5 -6 -2 -14 5 -12 -9 -20 -53 -31 -16 -4 -12 28 7 50 7 9 9 15 4 13
-5 -2 -19 7 -31 20 -23 22 -86 31 -108 14z m65 -24 c0 -5 5 -6 12 -2 8 5 9 2
5 -9 -4 -10 -1 -17 6 -17 7 -1 2 -9 -11 -20 -25 -20 -52 -17 -52 7 0 9 5 11
13 7 8 -6 8 -3 -1 9 -8 9 -11 20 -8 25 7 11 36 11 36 0z m169 -43 c5 2 8 -6 7
-18 -1 -12 -7 -22 -16 -22 -14 0 -16 12 -10 48 1 9 3 9 7 -1 2 -6 8 -10 12 -7z"/>
<path d="M1535 925 c0 -13 3 -21 8 -18 4 2 7 10 7 18 0 8 -3 16 -7 18 -5 3 -8
-5 -8 -18z"/>
<path d="M1703 895 c0 -8 4 -12 9 -9 5 3 6 10 3 15 -9 13 -12 11 -12 -6z"/>
<path d="M1829 988 c-1 -2 -2 -24 -4 -49 -1 -25 -5 -51 -9 -58 -4 -6 -1 -11 6
-12 7 0 4 -4 -7 -9 -11 -5 -14 -9 -7 -9 7 -1 10 -5 7 -11 -3 -5 -2 -10 3 -10
5 0 7 -11 4 -25 -3 -20 0 -25 16 -25 11 0 22 7 26 15 3 8 1 15 -5 15 -6 0 -3
7 5 16 21 21 20 30 -1 13 -16 -13 -17 -12 -4 4 8 10 20 16 27 13 7 -3 16 -1
20 5 4 6 11 6 20 -2 12 -10 13 -9 8 6 -6 14 -4 16 6 10 10 -6 12 -4 7 8 -4 12
-2 14 10 10 12 -5 14 -3 7 8 -8 14 -9 18 -12 50 -2 20 -44 39 -87 39 -19 0
-36 -1 -36 -2z m85 -46 c3 -5 3 -18 -1 -30 -4 -19 -8 -20 -27 -10 -20 10 -20
10 -6 -7 13 -16 13 -18 0 -13 -21 7 -19 33 2 32 10 -1 15 3 12 8 -3 5 -12 7
-20 4 -7 -3 -16 -1 -19 4 -4 6 -1 10 4 10 6 0 10 3 10 8 -3 18 2 22 20 12 11
-5 22 -14 25 -18z"/>
<path d="M1980 975 c-12 -14 -11 -18 1 -26 12 -7 12 -9 -1 -9 -13 0 -13 -1 0
-10 12 -7 12 -10 1 -10 -8 0 -11 -6 -7 -16 4 -9 0 -24 -9 -34 -13 -14 -13 -17
0 -17 8 0 11 5 8 10 -3 6 -1 7 6 3 6 -4 9 -12 5 -17 -8 -14 -12 -69 -5 -70 3
0 14 -2 23 -4 10 -2 21 2 25 7 3 7 1 8 -5 4 -11 -6 -11 3 -3 77 1 10 91 9 91
-2 0 -5 -12 -7 -27 -5 -15 3 -25 2 -21 -1 3 -4 14 -8 24 -9 12 -2 19 -12 20
-32 2 -42 2 -43 22 -38 14 4 17 17 16 86 -1 44 2 75 6 68 5 -8 9 -7 13 5 4 9
3 14 -1 11 -4 -2 -14 -1 -22 4 -11 7 -11 11 -1 24 11 13 11 16 -1 16 -16 0
-38 -19 -38 -33 0 -4 6 -5 13 -2 6 4 4 0 -6 -8 -13 -11 -15 -16 -5 -20 21 -7
4 -17 -35 -21 -38 -4 -69 16 -47 29 8 5 7 11 -2 22 -7 9 -12 19 -10 22 8 14
-16 10 -28 -4z"/>
<path d="M2183 979 c-6 -6 -9 -17 -6 -24 2 -8 -1 -23 -7 -35 -7 -13 -8 -20 -3
-17 17 10 12 -36 -5 -49 -14 -10 -15 -15 -4 -26 11 -11 12 -10 7 5 -4 9 -3 17
3 17 6 0 9 -8 7 -17 -2 -10 -4 -22 -4 -26 -1 -5 -7 -5 -13 -2 -7 4 -4 -1 6 -9
30 -24 54 -21 49 7 -6 29 23 58 33 33 3 -9 1 -22 -5 -30 -11 -14 -5 -26 13
-26 6 0 5 4 -3 9 -11 7 -11 10 0 17 7 4 14 3 17 -4 2 -7 10 -12 18 -12 9 0 12
-4 9 -10 -4 -6 6 -7 26 -3 26 5 30 3 24 -8 -8 -12 -6 -12 8 -1 9 8 20 11 26 8
14 -9 23 26 10 38 -9 8 -10 8 -5 -1 7 -13 -31 -12 -53 2 -10 5 -12 4 -7 -3 5
-8 1 -10 -9 -6 -9 4 -14 13 -11 20 3 7 0 16 -6 20 -7 5 -8 2 -3 -7 7 -11 6
-12 -6 -2 -17 14 -17 85 0 91 6 2 9 7 7 11 -3 3 11 11 30 17 19 6 34 8 34 3 0
-4 7 -6 15 -5 9 1 15 5 15 9 0 4 0 12 0 18 0 14 -68 9 -103 -8 -36 -18 -62
-76 -45 -99 5 -7 2 -14 -8 -18 -22 -9 -33 3 -14 14 13 9 13 10 0 10 -13 0 -13
1 0 10 9 6 10 10 3 10 -6 0 -11 9 -10 19 0 11 6 17 12 14 5 -3 4 0 -2 8 -7 7
-13 21 -13 31 0 21 -11 23 -27 7z"/>
<path d="M1235 961 c-3 -5 -2 -12 3 -15 5 -3 9 1 9 9 0 17 -3 19 -12 6z"/>
<path d="M1220 919 c0 -5 5 -7 10 -4 6 3 10 8 10 11 0 2 -4 4 -10 4 -5 0 -10
-5 -10 -11z"/>
<path d="M1793 895 c0 -8 4 -12 9 -9 5 3 6 10 3 15 -9 13 -12 11 -12 -6z"/>
<path d="M1207 887 c-3 -8 1 -14 8 -14 7 0 11 6 8 14 -3 7 -6 13 -8 13 -2 0
-5 -6 -8 -13z"/>
<path d="M1450 891 c0 -6 4 -13 10 -16 6 -3 7 1 4 9 -7 18 -14 21 -14 7z"/>
<path d="M2155 880 c-3 -5 -1 -10 4 -10 6 0 11 5 11 10 0 6 -2 10 -4 10 -3 0
-8 -4 -11 -10z"/>
<path d="M1901 837 c-13 -21 -12 -21 5 -5 10 10 16 20 13 22 -3 3 -11 -5 -18
-17z"/>
<path d="M2026 852 c-3 -5 1 -9 9 -9 8 0 12 4 9 9 -3 4 -7 8 -9 8 -2 0 -6 -4
-9 -8z"/>
<path d="M2225 829 c-4 -6 -5 -12 -2 -15 2 -3 7 2 10 11 7 17 1 20 -8 4z"/>
<path d="M2060 825 c0 -2 6 -8 13 -14 10 -8 14 -7 14 2 0 8 -6 14 -14 14 -7 0
-13 -1 -13 -2z"/>
<path d="M1890 800 c0 -5 5 -10 11 -10 5 0 7 5 4 10 -3 6 -8 10 -11 10 -2 0
-4 -4 -4 -10z"/>
<path d="M1156 753 c-4 -9 -3 -20 1 -24 4 -4 9 3 9 17 2 28 -1 31 -10 7z"/>
<path d="M1410 759 c0 -5 5 -7 10 -4 6 3 10 8 10 11 0 2 -4 4 -10 4 -5 0 -10
-5 -10 -11z"/>
<path d="M1456 758 c3 -5 10 -6 15 -3 13 9 11 12 -6 12 -8 0 -12 -4 -9 -9z"/>
<path d="M1630 760 c0 -5 5 -10 11 -10 5 0 7 5 4 10 -3 6 -8 10 -11 10 -2 0
-4 -4 -4 -10z"/>
<path d="M1790 758 c0 -4 4 -8 9 -8 6 0 12 4 15 8 3 5 -1 9 -9 9 -8 0 -15 -4
-15 -9z"/>
<path d="M2170 761 c0 -6 4 -13 10 -16 6 -3 7 1 4 9 -7 18 -14 21 -14 7z"/>
<path d="M1118 663 c7 -3 16 -2 19 1 4 3 -2 6 -13 5 -11 0 -14 -3 -6 -6z"/>
<path d="M1324 602 c-9 -14 -11 -22 -6 -18 6 3 4 -7 -4 -23 -8 -17 -17 -38
-19 -48 -8 -41 -11 -49 -25 -61 -10 -9 -10 -11 -1 -6 10 5 11 1 7 -13 -4 -13
-2 -20 8 -20 9 0 12 5 9 10 -4 6 0 8 10 4 11 -4 15 -1 12 13 -6 30 30 45 67
28 11 -5 15 -14 11 -25 -4 -11 -3 -14 5 -9 7 4 12 2 12 -4 0 -6 12 -9 28 -7
15 2 36 1 48 -4 20 -7 21 -4 20 41 -1 28 3 45 8 40 5 -5 15 -6 23 -3 13 5 13
2 4 -15 -16 -30 -14 -39 4 -16 13 16 14 16 9 2 -3 -10 -1 -18 5 -18 6 0 11 -9
11 -19 0 -18 4 -19 39 -12 2 1 -3 9 -10 18 -12 15 -12 16 1 8 12 -7 13 -6 3 6
-10 12 -10 18 0 28 6 7 8 12 2 11 -26 -5 -28 2 -5 21 24 20 24 20 2 9 -13 -6
-25 -10 -27 -8 -6 6 47 88 57 88 5 0 6 -6 2 -12 -6 -10 -4 -10 8 0 26 21 31
-12 6 -43 -11 -14 -18 -29 -14 -32 3 -4 6 -1 6 5 0 6 8 16 18 21 15 8 18 6 17
-9 -1 -11 -5 -23 -10 -27 -4 -5 -5 -2 0 6 6 10 4 12 -4 7 -8 -6 -9 -12 -2 -20
6 -7 9 -22 7 -33 -6 -27 8 -47 27 -40 10 4 13 13 10 28 -4 13 -2 20 4 16 5 -3
10 0 10 8 0 8 -3 15 -7 15 -9 0 -6 97 3 106 5 5 12 2 17 -6 7 -10 10 -11 10
-2 0 6 7 12 15 12 21 0 19 18 -2 24 -10 2 -44 4 -76 4 -52 0 -59 -3 -67 -24
-5 -13 -12 -24 -15 -24 -4 0 -4 4 -1 8 10 17 -30 38 -74 39 -39 1 -47 -2 -57
-24 -10 -21 -10 -24 4 -19 12 5 13 4 5 -7 -7 -8 -9 -17 -5 -20 3 -4 2 -7 -4
-7 -5 0 -10 -7 -10 -15 0 -8 3 -15 6 -15 6 0 6 -40 2 -84 -1 -14 -15 3 -29 37
-7 16 -8 26 -3 22 5 -3 13 0 17 6 4 7 3 9 -2 6 -16 -10 -34 8 -36 36 -1 15 -6
27 -11 27 -4 0 -5 5 -2 10 3 6 1 10 -5 10 -6 0 -8 5 -5 10 3 6 1 10 -5 10 -6
0 -9 4 -5 9 13 22 -37 5 -51 -17z m234 -23 c9 -14 6 -21 -15 -34 -24 -16 -26
-16 -20 -1 4 10 1 19 -8 22 -8 4 -15 12 -15 18 0 18 46 14 58 -5z m-190 -38
c2 -24 -2 -29 -17 -28 -18 1 -18 3 -6 28 8 14 11 30 7 34 -4 5 -2 6 3 2 6 -3
12 -19 13 -36z m152 15 c0 -3 -4 -8 -10 -11 -5 -3 -10 -1 -10 4 0 6 5 11 10
11 6 0 10 -2 10 -4z"/>
<path d="M1779 615 c-4 -56 -5 -151 -1 -174 3 -22 8 -27 22 -24 14 4 17 12 13
35 -3 23 -1 28 9 22 10 -6 11 -4 2 7 -5 8 -10 44 -10 81 1 57 -1 66 -16 65
-10 -1 -18 -6 -19 -12z"/>
<path d="M1880 623 c-16 -6 -50 -39 -50 -48 0 -3 5 -3 10 0 6 3 10 2 10 -4 0
-5 -4 -13 -10 -16 -13 -8 -13 -25 1 -25 5 0 7 6 3 13 -4 6 3 3 15 -8 21 -18
21 -20 5 -32 -10 -7 -13 -13 -7 -13 7 0 15 5 18 10 9 15 31 12 50 -6 25 -26
-3 -48 -57 -46 -24 0 -37 -1 -30 -4 6 -3 12 -11 12 -17 0 -7 17 -12 43 -12 29
-1 41 -5 39 -14 -1 -7 2 -10 8 -6 6 3 8 11 5 16 -8 11 19 39 37 39 10 0 10 2
-1 9 -7 5 -11 13 -8 18 3 5 -8 24 -24 42 -16 19 -29 31 -29 27 0 -4 -9 -2 -19
4 -22 11 -17 55 5 46 7 -3 14 0 16 6 3 7 13 1 26 -12 l21 -23 -8 29 c-6 23
-13 29 -37 31 -16 1 -36 -1 -44 -4z"/>
<path d="M1976 621 c-7 -11 8 -27 27 -28 9 0 21 -1 26 -2 5 0 8 -17 7 -37 -1
-20 2 -38 6 -41 5 -2 6 -9 3 -14 -8 -11 -15 -82 -8 -75 3 2 17 0 31 -5 21 -8
23 -7 13 4 -12 15 -11 43 3 66 6 9 5 12 0 8 -6 -3 -10 15 -10 44 0 38 3 48 14
44 7 -2 10 0 7 5 -3 6 3 10 14 10 12 0 21 6 21 13 0 11 -19 14 -75 14 -41 0
-77 -2 -79 -6z"/>
<path d="M1750 581 c0 -6 4 -13 10 -16 6 -3 7 1 4 9 -7 18 -14 21 -14 7z"/>
<path d="M1619 553 c-13 -16 -12 -17 4 -4 16 13 21 21 13 21 -2 0 -10 -8 -17
-17z"/>
<path d="M1715 560 c3 -5 8 -10 11 -10 2 0 4 5 4 10 0 6 -5 10 -11 10 -5 0 -7
-4 -4 -10z"/>
<path d="M1974 536 c1 -8 5 -18 8 -22 4 -3 5 1 4 10 -1 8 -5 18 -8 22 -4 3 -5
-1 -4 -10z"/>
<path d="M2010 539 c0 -5 5 -7 10 -4 6 3 10 8 10 11 0 2 -4 4 -10 4 -5 0 -10
-5 -10 -11z"/>
<path d="M1626 482 c-3 -5 1 -9 9 -9 8 0 12 4 9 9 -3 4 -7 8 -9 8 -2 0 -6 -4
-9 -8z"/>
<path d="M1885 480 c-3 -6 1 -7 9 -4 18 7 21 14 7 14 -6 0 -13 -4 -16 -10z"/>
<path d="M1331 450 c0 -8 4 -22 9 -30 12 -18 12 -2 0 25 -6 13 -9 15 -9 5z"/>
<path d="M1358 453 c7 -3 16 -2 19 1 4 3 -2 6 -13 5 -11 0 -14 -3 -6 -6z"/>
<path d="M1375 400 c3 -5 8 -10 11 -10 2 0 4 5 4 10 0 6 -5 10 -11 10 -5 0 -7
-4 -4 -10z"/>
<path d="M1873 393 c0 -9 4 -10 14 -2 7 6 13 12 13 14 0 1 -6 2 -13 2 -8 0
-14 -6 -14 -14z"/>
<path d="M940 350 c8 -5 20 -10 25 -10 6 0 3 5 -5 10 -8 5 -19 10 -25 10 -5 0
-3 -5 5 -10z"/>
<path d="M850 340 c0 -5 5 -10 11 -10 5 0 7 5 4 10 -3 6 -8 10 -11 10 -2 0 -4
-4 -4 -10z"/>
</g>
</svg>
