<?xml version="1.0" standalone="no"?>
<!DOCTYPE svg PUBLIC "-//W3C//DTD SVG 20010904//EN"
 "http://www.w3.org/TR/2001/REC-SVG-20010904/DTD/svg10.dtd">
<svg version="1.0" xmlns="http://www.w3.org/2000/svg"
 width="500.000000pt" height="500.000000pt" viewBox="0 0 500.000000 500.000000"
 preserveAspectRatio="xMidYMid meet">
<metadata>
Created by potrace 1.14, written by Peter Selinger 2001-2017
</metadata>
<g transform="translate(0.000000,500.000000) scale(0.100000,-0.100000)"
fill="#000000" stroke="none">
<path d="M3000 4200 l-65 -5 0 -45 0 -45 372 -3 373 -2 2 -377 3 -378 48 0 47
0 0 428 0 427 -72 0 c-40 0 -201 1 -358 3 -157 1 -314 0 -350 -3z"/>
<path d="M2083 3971 c-4 -3 -8 -57 -9 -118 0 -62 -3 -115 -6 -119 -11 -11 -43
-11 -56 -1 -26 21 -45 -40 -19 -61 44 -37 128 -13 148 42 l13 35 18 -30 c24
-40 96 -72 144 -65 55 9 91 32 118 78 l25 41 -1 -34 c-1 -79 -1 -79 37 -79
l35 0 0 60 c0 33 3 61 8 61 4 1 26 2 50 3 l42 2 0 -63 0 -63 35 0 c29 0 35 4
35 21 0 11 4 18 10 14 5 -3 7 -12 3 -20 -4 -12 4 -15 36 -15 l40 0 3 91 3 91
58 -91 c56 -87 60 -91 95 -91 l37 0 0 155 c0 85 -3 156 -7 156 -5 1 -20 2 -35
3 l-28 1 -3 -95 -3 -94 -62 94 c-49 74 -67 94 -87 96 -44 3 -47 -3 -46 -96 1
-50 -2 -90 -6 -90 -5 0 -8 42 -8 93 l0 94 -27 -3 c-16 -1 -31 -2 -35 -3 -5 -1
-8 -28 -8 -61 l0 -60 -50 0 -50 0 0 60 c0 33 -3 60 -7 61 -68 9 -67 9 -63 -71
l2 -35 -32 43 c-46 64 -118 88 -187 61 -34 -13 -72 -47 -83 -74 -7 -15 -9 -7
-9 28 -1 26 -4 48 -8 48 -30 5 -53 5 -60 0z m267 -83 c67 -72 9 -188 -78 -157
-49 17 -66 82 -37 139 23 44 82 53 115 18z m365 -138 c1 -11 -2 -20 -7 -20 -4
0 -8 12 -8 27 0 30 13 24 15 -7z"/>
<path d="M1213 3838 c-8 -14 -11 -896 -2 -909 5 -8 183 -10 689 -9 l156 0 -2
28 c-1 15 -3 37 -3 50 l-1 22 -370 0 -370 0 -2 413 -3 412 -42 2 c-24 1 -46
-3 -50 -9z"/>
<path d="M1715 3443 c-51 -13 -97 -69 -108 -133 -7 -37 17 -118 39 -136 43
-34 61 -43 92 -49 52 -9 109 14 147 57 l33 39 18 -31 c26 -42 90 -72 140 -64
41 6 94 30 94 42 0 4 8 17 18 30 17 22 17 22 16 -23 l-1 -45 183 0 184 0 0 30
c0 17 -6 30 -12 31 -7 1 -32 1 -56 2 -42 0 -43 1 -40 31 3 29 6 31 43 31 50 0
62 8 60 37 -1 20 -7 23 -53 26 -50 3 -52 4 -52 33 l0 29 85 0 85 0 0 -125 0
-125 35 0 c40 0 37 -13 37 158 l0 92 34 0 34 0 0 -125 0 -125 35 0 c38 0 38
-1 37 78 -1 23 0 42 2 42 1 0 22 -27 46 -60 l43 -60 129 0 128 0 0 30 c0 17
-5 30 -12 31 -7 0 -31 1 -53 2 -37 2 -40 4 -40 32 0 28 2 30 40 31 66 2 67 2
63 32 -3 25 -7 27 -55 30 -50 3 -52 4 -51 32 1 29 2 30 55 30 l53 0 0 33 0 33
-90 -1 -90 0 0 -144 0 -145 -22 25 c-12 13 -30 34 -41 47 l-21 22 27 28 c47
49 43 115 -9 149 -24 15 -56 17 -286 18 -154 0 -262 -3 -265 -9 -4 -5 -6 -62
-5 -126 l2 -116 -55 0 -55 0 -1 81 c0 44 -1 101 -1 126 l0 45 -37 -1 -36 -1
-1 -54 c-1 -30 -2 -62 -3 -70 -1 -12 -15 -15 -71 -13 l-70 1 0 -29 c0 -26 3
-29 35 -29 40 0 44 -11 14 -41 -16 -16 -28 -20 -52 -15 -40 8 -55 22 -66 61
-13 46 -3 82 30 109 31 26 60 25 92 -2 16 -14 20 -13 42 8 29 27 21 44 -32 67
-69 28 -147 6 -188 -54 l-23 -35 -13 23 c-33 63 -106 91 -184 72z m1187 -77
c18 -26 3 -51 -33 -58 -24 -4 -26 -2 -27 30 -1 19 1 39 4 44 7 11 46 0 56 -16z
m-1081 -16 c39 -54 24 -133 -28 -147 -57 -15 -79 -6 -98 42 -15 34 -14 60 4
94 26 47 92 53 122 11z"/>
<path d="M3205 3441 c-3 -2 -5 -73 -5 -158 l0 -153 91 0 90 0 -3 32 c-3 32 -4
33 -53 33 -47 0 -50 2 -53 28 -2 17 2 28 10 28 15 2 55 6 80 8 12 1 16 10 16
31 -1 29 -2 30 -53 30 -51 0 -52 1 -53 30 -1 30 0 30 54 30 l55 0 -3 32 -3 33
-83 0 c-46 1 -85 -1 -87 -4z"/>
<path d="M1038 2574 c-53 -22 -84 -86 -68 -143 14 -55 57 -84 131 -89 84 -6
94 3 94 83 l1 66 -51 -3 c-49 -3 -50 -3 -46 -33 1 -16 8 -33 15 -37 8 -6 8 -8
-1 -8 -19 0 -53 37 -53 58 0 41 70 68 110 42 11 -7 16 -4 21 13 9 36 -1 54
-33 61 -47 9 -80 6 -120 -10z m134 -10 c4 -3 8 -14 8 -24 0 -16 -4 -17 -31
-10 -52 15 -99 -14 -99 -63 0 -37 25 -67 57 -67 16 0 23 6 23 20 0 11 -4 20
-10 20 -14 0 -12 28 2 32 7 3 23 2 35 0 21 -4 23 -10 23 -58 0 -36 -4 -54 -12
-55 -93 -9 -136 2 -170 45 -36 44 -12 134 41 155 50 19 107 21 133 5z"/>
<path d="M1222 2469 l3 -124 35 0 c55 -1 60 3 60 54 1 44 1 45 16 26 9 -11 22
-34 29 -51 l14 -31 86 -1 c74 0 87 2 98 19 15 24 87 28 87 4 0 -17 -2 -16 58
-20 23 -2 42 1 42 6 0 14 -81 211 -93 227 -5 6 -29 12 -52 12 -42 0 -43 -1
-68 -57 -14 -32 -30 -69 -35 -83 -6 -14 -15 -38 -22 -55 l-11 -29 -26 43 c-21
36 -24 47 -14 67 34 76 1 107 -120 112 l-90 4 3 -123z m191 80 c22 -28 22 -44
-4 -70 -12 -12 -17 -24 -12 -28 16 -11 56 -82 49 -88 -3 -4 -16 -7 -29 -9 -18
-2 -28 8 -47 44 -32 60 -69 71 -68 20 0 -52 -1 -55 -21 -61 -37 -9 -44 7 -45
112 -1 115 -7 108 94 104 52 -2 69 -7 83 -24z m277 -81 c31 -76 39 -103 29
-108 -15 -10 -40 -2 -56 17 -20 26 -83 24 -108 -3 -12 -13 -30 -21 -41 -19
-10 2 -22 4 -26 4 -3 1 13 48 35 106 36 90 45 105 67 107 49 6 58 -2 100 -104z"/>
<path d="M1303 2534 c-10 -27 2 -49 27 -49 21 0 25 5 25 30 0 24 -4 30 -23 31
-13 1 -26 -5 -29 -12z m47 -18 c0 -8 -7 -16 -15 -20 -10 -4 -15 1 -15 14 0 11
7 20 15 20 8 0 15 -6 15 -14z"/>
<path d="M1590 2475 c-14 -41 -7 -55 22 -50 29 6 29 6 16 48 -14 46 -23 47
-38 2z m30 -27 c0 -5 -6 -8 -14 -8 -9 0 -12 7 -9 21 4 16 8 17 14 7 5 -7 9
-16 9 -20z"/>
<path d="M1760 2471 c0 -116 6 -141 31 -125 8 5 7 9 -1 14 -16 10 -20 209 -5
211 6 1 39 1 74 1 73 -1 104 -21 104 -67 0 -37 -23 -56 -76 -62 l-44 -5 1 -39
c2 -35 -4 -44 -26 -40 -5 0 -8 -4 -8 -10 0 -6 10 -9 23 -7 17 2 23 11 27 42 4
35 9 40 35 43 67 9 102 62 74 112 -21 38 -56 51 -136 51 l-73 0 0 -119z"/>
<path d="M1997 2583 c-2 -5 -4 -59 -3 -122 l1 -115 48 -1 47 -2 0 44 c0 42 0
43 34 43 34 0 35 -1 38 -42 l3 -43 45 0 45 0 1 123 1 122 -49 0 -48 0 0 -38
c0 -47 -2 -50 -40 -44 -27 4 -30 8 -30 43 l0 39 -44 0 c-25 0 -47 -3 -49 -7z
m80 -54 l-3 -39 48 0 c45 0 48 2 49 28 1 15 1 32 0 38 -1 12 37 23 57 16 15
-5 17 -211 2 -213 -52 -6 -55 -4 -55 31 -1 49 -7 55 -56 54 l-43 0 0 -44 c-1
-46 -3 -47 -56 -41 -6 1 -10 43 -10 105 0 91 2 105 18 108 38 9 51 -2 49 -43z"/>
<path d="M2289 2578 c-1 -21 -1 -202 0 -219 1 -11 12 -15 46 -15 l45 0 0 123
0 123 -45 0 c-29 0 -45 -4 -46 -12z m67 -7 c8 -1 11 -34 10 -108 -1 -116 2
-111 -56 -104 -10 1 -15 203 -4 213 3 3 13 5 22 3 9 -2 22 -4 28 -4z"/>
<path d="M2463 2570 c-61 -37 -82 -123 -42 -174 41 -52 101 -68 168 -45 28 10
31 15 31 50 0 36 -2 39 -19 29 -26 -14 -74 -13 -89 2 -14 14 -15 47 -3 67 10
16 69 17 84 2 19 -19 24 -12 24 30 0 34 -4 42 -24 50 -40 15 -96 10 -130 -11z
m118 0 c14 0 19 -7 19 -25 0 -24 -2 -25 -39 -19 -32 5 -42 2 -60 -17 -43 -46
-1 -111 67 -103 33 4 38 2 38 -16 0 -20 -9 -25 -60 -34 -53 -9 -116 31 -129
82 -7 31 9 85 33 107 21 19 77 35 98 29 8 -2 22 -4 33 -4z"/>
<path d="M2816 2558 c-8 -18 -30 -71 -50 -117 -19 -46 -33 -88 -30 -93 9 -15
85 -3 96 15 12 23 74 23 87 0 11 -20 101 -27 100 -9 0 6 -22 61 -48 121 l-48
110 -47 3 c-44 3 -47 2 -60 -30z m142 -89 c24 -55 40 -104 38 -108 -8 -13 -66
0 -66 15 0 15 -4 16 -45 16 -55 0 -65 -3 -65 -17 0 -8 -3 -15 -7 -16 -5 0 -20
-2 -35 -4 -16 -2 -28 -1 -28 3 0 4 19 53 42 109 l43 103 40 0 41 0 42 -101z"/>
<path d="M2857 2475 c-15 -44 -14 -47 18 -47 32 0 33 3 18 47 -8 25 -16 45
-18 45 -2 0 -10 -20 -18 -45z m26 -15 c3 -12 0 -20 -8 -20 -8 0 -11 8 -8 20 3
11 7 20 8 20 1 0 5 -9 8 -20z"/>
<path d="M3030 2467 l0 -125 45 0 c47 1 59 13 51 54 -2 11 -1 27 4 34 6 9 16
-2 33 -36 24 -48 26 -50 71 -50 25 -1 46 1 46 3 0 2 -12 29 -27 59 -20 42 -24
57 -15 66 18 18 14 63 -7 89 -17 21 -29 24 -110 27 l-91 4 0 -125z m184 90
c24 -18 24 -67 0 -84 -13 -9 -15 -16 -8 -21 10 -6 54 -84 54 -96 0 -2 -8 -3
-17 -1 -10 2 -25 4 -34 4 -10 1 -24 18 -33 40 -15 39 -47 67 -60 54 -3 -3 -6
-27 -6 -52 0 -45 0 -46 -32 -45 l-33 1 -1 106 -1 107 76 0 c48 0 84 -5 95 -13z"/>
<path d="M3110 2514 c0 -33 2 -35 28 -32 49 6 40 67 -10 68 -14 0 -18 -8 -18
-36z m50 2 c0 -8 -7 -16 -15 -20 -10 -4 -15 1 -15 14 0 11 7 20 15 20 8 0 15
-6 15 -14z"/>
<path d="M3277 2583 c-9 -17 -1 -68 11 -69 6 -1 21 -2 32 -3 18 -1 20 -8 20
-84 l0 -83 48 0 47 1 3 83 c3 77 4 82 25 83 12 1 25 1 30 0 7 -1 10 11 10 44
0 8 -1 20 -2 25 -1 12 -218 14 -224 3z m206 -13 c4 0 7 -9 7 -19 0 -15 -8 -21
-32 -23 l-33 -3 -2 -65 c-2 -97 -2 -97 -18 -104 -8 -3 -23 -2 -32 2 -15 6 -18
20 -18 87 l0 80 -32 3 c-40 4 -48 39 -10 44 17 2 123 1 170 -2z"/>
<path d="M3520 2466 l0 -124 45 1 c33 1 45 6 46 17 1 28 1 185 0 208 -1 19 -6
22 -46 22 l-45 0 0 -124z m78 -6 l-3 -104 -30 0 -30 0 -1 106 -1 107 26 3 c14
2 30 1 34 -3 4 -3 6 -52 5 -109z"/>
<path d="M3669 2575 c-51 -28 -42 -104 16 -135 31 -17 23 -32 -11 -20 -39 15
-44 13 -44 -25 0 -29 5 -37 26 -45 63 -24 130 -4 143 44 10 37 1 58 -39 86
-34 24 -39 41 -10 33 11 -3 20 -9 20 -14 0 -5 7 -9 16 -9 11 0 14 6 9 20 -4
11 -2 20 4 20 6 0 11 -4 11 -10 0 -5 15 -10 33 -10 l32 0 0 -81 0 -82 48 -3
47 -2 0 84 c0 77 2 84 20 85 11 1 26 2 33 3 7 0 13 17 14 39 l1 37 -114 0
c-95 0 -114 -3 -114 -15 0 -18 -1 -18 -36 0 -36 19 -71 18 -105 0z m108 -15
c2 0 3 -9 3 -19 0 -17 -5 -19 -35 -14 -49 8 -47 -16 5 -57 47 -37 52 -69 15
-98 -27 -21 -103 -22 -116 -1 -13 22 2 37 34 35 46 -2 47 26 3 54 -27 16 -36
28 -36 49 0 47 44 74 95 59 16 -4 31 -8 32 -8z m243 -7 c0 -19 -6 -23 -30 -23
-16 0 -30 -3 -31 -7 0 -5 -1 -44 -2 -88 -1 -44 -5 -79 -9 -77 -5 1 -19 2 -33
2 -25 0 -25 1 -25 85 l0 85 -35 0 c-28 0 -35 4 -35 19 0 25 4 26 110 26 87 0
90 -1 90 -22z"/>
<path d="M1842 2505 c0 -29 3 -34 21 -31 46 7 49 66 3 66 -21 0 -24 -5 -24
-35z m42 -6 c-10 -16 -24 -9 -24 12 0 18 2 19 15 9 8 -7 12 -16 9 -21z"/>
<path d="M1050 2232 c-48 -21 -91 -81 -84 -119 1 -7 2 -22 3 -32 1 -26 40 -67
75 -81 31 -11 79 -13 123 -4 30 6 30 6 29 72 l-2 67 -47 1 c-37 2 -47 -2 -48
-15 -2 -28 3 -46 14 -53 8 -5 7 -8 -4 -8 -19 0 -49 31 -49 51 0 8 7 25 16 37
16 23 66 30 94 12 18 -11 29 11 22 46 -3 15 -13 24 -34 28 -39 8 -88 7 -108
-2z m122 -18 c5 -3 8 -14 8 -24 0 -17 -4 -18 -24 -10 -52 20 -106 -13 -106
-63 0 -39 26 -67 61 -67 22 0 26 4 22 20 -3 11 -9 20 -14 20 -5 0 -9 8 -9 18
0 17 9 19 63 13 4 -1 7 -26 7 -56 0 -52 -2 -55 -25 -56 -91 -5 -113 0 -144 32
-35 35 -41 81 -16 129 9 17 17 30 18 30 1 0 20 7 42 15 36 13 95 12 117 -1z"/>
<path d="M1222 2119 l3 -124 45 0 45 0 5 49 c6 55 16 51 44 -15 l14 -34 87 -1
c74 0 88 2 96 18 14 26 85 25 94 -1 5 -16 14 -19 51 -18 54 2 54 -1 -3 132
-50 118 -48 115 -97 115 l-43 0 -36 -82 c-20 -46 -41 -96 -47 -112 l-11 -30
-18 30 c-26 42 -34 71 -21 79 16 10 12 61 -9 86 -16 20 -29 23 -110 27 l-92 4
3 -123z m146 102 c25 -1 62 -34 62 -56 0 -8 -10 -25 -21 -36 -15 -15 -18 -24
-10 -28 16 -10 53 -80 47 -90 -4 -7 -18 -7 -57 -2 -4 1 -9 12 -13 24 -8 34
-45 77 -60 71 -8 -3 -12 -20 -12 -45 1 -22 -3 -44 -9 -48 -11 -9 -43 -7 -53 4
-9 8 -9 199 -1 205 6 4 49 5 127 1z m273 0 c3 -1 23 -43 44 -93 21 -51 42 -99
48 -105 5 -7 6 -13 1 -14 -5 0 -19 -2 -32 -3 -14 -2 -29 5 -36 16 -19 27 -92
32 -109 8 -7 -10 -26 -20 -42 -21 -25 -3 -29 -1 -27 15 4 21 70 176 83 191 6
9 32 11 70 6z"/>
<path d="M1309 2198 c-1 -2 -2 -18 -3 -36 -2 -30 0 -33 23 -30 45 5 39 67 -6
68 -7 0 -14 -1 -14 -2z m41 -33 c0 -7 -7 -15 -15 -19 -11 -4 -15 1 -15 19 0
18 4 23 15 19 8 -4 15 -12 15 -19z"/>
<path d="M1589 2127 c-16 -45 -16 -45 7 -50 41 -7 48 6 27 52 l-18 42 -16 -44z
m31 -28 c0 -5 -7 -9 -15 -9 -9 0 -12 6 -9 15 6 15 24 11 24 -6z"/>
<path d="M1762 2119 l3 -124 45 0 45 0 5 45 c3 25 8 44 13 43 25 -9 61 0 82
22 33 32 33 74 -1 106 -22 21 -37 24 -110 28 l-85 3 3 -123z m184 77 c26 -29
21 -71 -10 -88 -25 -15 -27 -15 -66 -17 -27 -1 -30 -4 -25 -28 2 -16 1 -34 -4
-41 -11 -17 -48 -23 -58 -9 -7 9 -10 181 -4 207 0 3 34 4 74 3 61 -3 75 -7 93
-27z"/>
<path d="M1844 2160 c4 -40 10 -44 35 -30 25 13 28 45 5 54 -34 13 -44 7 -40
-24z m36 -6 c0 -8 -4 -14 -10 -14 -5 0 -10 9 -10 21 0 11 5 17 10 14 6 -3 10
-13 10 -21z"/>
<path d="M1999 2238 c-5 -10 -4 -238 0 -239 3 0 25 -2 49 -4 l42 -3 0 44 c0
44 0 44 35 44 35 0 35 0 35 -45 0 -25 4 -45 9 -45 7 0 3 89 -5 98 -5 7 -64 8
-75 1 -6 -3 -11 -22 -11 -42 0 -32 -3 -35 -34 -39 l-34 -4 0 108 c0 65 4 108
10 109 57 6 56 7 59 -53 1 -26 4 -28 46 -28 36 0 45 4 46 18 4 72 2 69 59 63
6 -1 10 -45 10 -110 l0 -108 -25 2 c-14 2 -25 -1 -25 -5 0 -13 58 -9 63 4 2 6
3 61 3 121 l-1 110 -47 3 -48 3 0 -44 c0 -43 -1 -43 -32 -42 -31 1 -33 4 -36
43 l-3 42 -45 0 c-24 0 -45 -1 -45 -2z"/>
<path d="M2289 2233 c-5 -43 -2 -228 3 -236 4 -7 8 42 8 108 l0 120 34 1 33 0
-1 -110 -1 -111 -27 2 c-16 1 -28 -1 -28 -5 0 -4 16 -8 35 -9 l35 -2 0 125 0
124 -45 0 c-25 0 -45 -3 -46 -7z"/>
<path d="M2463 2221 c-137 -86 -30 -274 126 -220 28 10 31 15 31 50 0 37 -1
38 -26 29 -40 -16 -72 -12 -87 11 -33 47 12 85 74 63 l37 -12 -2 39 c-1 21 -5
41 -8 44 -3 4 -30 8 -59 11 -43 4 -61 1 -86 -15z m128 -7 c5 -3 9 -16 9 -30 0
-21 -3 -23 -19 -14 -40 21 -88 -2 -97 -46 -9 -48 38 -80 96 -64 21 6 26 4 27
-11 2 -27 -23 -42 -73 -41 -52 0 -87 20 -109 62 -39 76 32 165 123 154 19 -3
39 -7 43 -10z"/>
<path d="M2814 2203 c-9 -21 -31 -73 -50 -116 -19 -43 -34 -82 -34 -86 0 -5
20 -8 45 -8 34 0 48 5 56 18 14 26 75 26 89 0 8 -15 19 -19 49 -18 22 1 42 5
45 8 5 5 -71 200 -89 229 -3 5 -26 10 -51 10 -43 0 -46 -2 -60 -37z m118 -23
c29 -64 68 -163 68 -170 0 -5 -28 -5 -61 -1 -4 1 -9 9 -11 19 -4 15 -13 18
-49 15 -26 -2 -49 -10 -56 -19 -13 -18 -73 -27 -73 -12 0 5 11 33 23 61 13 29
32 73 43 99 19 46 28 53 78 53 13 1 25 -14 38 -45z"/>
<path d="M2857 2127 c-9 -26 -14 -47 -11 -48 2 -1 16 -1 32 -2 30 -1 31 11 8
68 l-12 30 -17 -48z m33 -29 c0 -5 -7 -8 -15 -8 -17 0 -18 2 -9 25 5 13 8 14
15 3 5 -7 9 -16 9 -20z"/>
<path d="M3030 2116 l0 -125 48 3 47 2 1 43 c1 23 4 45 7 48 3 3 17 -17 30
-43 24 -47 26 -49 71 -49 25 -1 46 1 46 4 0 4 -13 29 -28 56 -25 46 -26 52
-13 76 21 38 7 77 -32 93 -18 8 -65 14 -104 15 l-73 2 0 -125z m131 105 c19
-1 43 -7 53 -14 24 -18 24 -67 0 -84 -13 -9 -15 -16 -8 -21 6 -4 21 -26 32
-48 l21 -42 -24 -4 c-31 -6 -38 -1 -64 50 -14 28 -28 42 -41 42 -17 0 -20 -7
-20 -44 0 -46 -12 -57 -52 -48 -15 3 -17 18 -15 106 1 55 5 104 9 107 5 3 23
4 41 3 17 -1 48 -3 68 -3z"/>
<path d="M3110 2164 c0 -33 2 -35 27 -32 34 4 43 36 17 55 -31 22 -44 16 -44
-23z m50 12 c0 -2 -3 -11 -6 -20 -9 -23 -24 -20 -24 4 0 11 7 20 15 20 8 0 15
-2 15 -4z"/>
<path d="M3279 2238 c-1 -2 -2 -18 -4 -35 -3 -33 0 -35 40 -37 18 -1 21 -10
25 -86 l5 -85 45 0 45 0 5 85 5 85 30 0 c28 0 30 3 30 37 l0 38 -112 0 c-62 0
-113 -1 -114 -2z m204 -17 c4 -1 7 -10 7 -20 0 -15 -8 -21 -32 -23 l-33 -3 0
-80 c0 -85 -6 -96 -49 -88 -19 4 -21 11 -21 86 l0 82 -32 3 c-24 2 -33 8 -33
21 0 10 2 20 4 22 3 3 159 3 189 0z"/>
<path d="M3520 2117 l0 -123 46 0 46 1 0 105 c0 58 -1 113 -1 123 -1 13 -10
17 -46 17 l-45 0 0 -123z m80 1 c0 -111 -3 -118 -46 -110 -20 4 -22 9 -22 95
0 118 1 122 38 122 l30 0 0 -107z"/>
<path d="M3673 2228 c-22 -11 -30 -24 -38 -67 -4 -21 46 -81 66 -81 6 0 8 -4
4 -9 -5 -10 -26 -8 -56 4 -12 5 -16 -2 -17 -30 -1 -30 3 -37 26 -46 37 -15
101 -5 125 19 31 32 25 71 -17 107 -46 38 -47 53 -2 27 33 -20 34 -20 31 -1
-2 10 0 21 6 24 5 4 9 1 9 -5 0 -6 11 -8 23 -6 13 2 28 1 33 -2 5 -4 9 -43 9
-87 l0 -80 48 -1 47 -2 0 88 0 88 32 -2 c31 -1 33 1 34 37 l1 37 -113 0 c-118
0 -122 -1 -115 -42 0 -5 -3 -8 -9 -8 -5 0 -10 6 -10 13 0 30 -74 46 -117 25z
m107 -40 c0 -14 -7 -18 -32 -16 -47 4 -46 -21 2 -54 23 -16 40 -36 40 -47 0
-32 -32 -60 -70 -62 -62 -3 -70 0 -70 24 0 20 4 23 30 19 36 -5 55 24 25 40
-48 28 -68 72 -46 106 12 19 72 30 99 19 12 -6 22 -19 22 -29z m240 15 c0 -19
-6 -23 -30 -23 -33 0 -32 3 -31 -96 0 -67 -1 -72 -22 -76 -43 -8 -47 -1 -47
88 l0 84 -35 0 c-28 0 -35 4 -35 19 0 23 14 26 123 26 73 0 77 -1 77 -22z"/>
<path d="M1073 1879 c-51 -10 -81 -36 -94 -79 -30 -99 43 -163 174 -152 l37 3
0 65 0 64 -45 0 c-39 0 -45 -3 -45 -21 0 -12 7 -27 17 -34 23 -17 2 -26 -28
-12 -30 15 -39 76 -14 97 18 15 71 18 95 7 20 -9 26 36 7 51 -17 14 -66 19
-104 11z"/>
<path d="M2500 1879 c-40 -9 -89 -58 -91 -92 -5 -89 39 -137 124 -137 65 0 77
7 77 45 0 33 0 33 -30 22 -25 -9 -36 -9 -58 3 -72 41 -5 129 69 90 17 -10 19
-7 19 24 0 31 -4 36 -27 42 -16 3 -32 7 -38 8 -5 1 -26 -1 -45 -5z"/>
<path d="M3695 1879 c-64 -18 -73 -75 -20 -123 19 -18 35 -36 35 -41 0 -4 -16
-5 -35 -2 -33 5 -35 4 -35 -23 0 -36 11 -43 68 -42 32 1 52 8 68 23 36 33 30
62 -18 103 -46 38 -45 57 3 39 30 -12 30 -11 27 19 -4 39 -46 60 -93 47z"/>
<path d="M1230 1765 l0 -115 40 0 40 0 0 45 c0 34 4 45 16 45 8 0 24 -19 35
-45 19 -42 22 -45 59 -45 22 0 40 3 40 6 0 3 -11 28 -24 55 -23 45 -24 50 -10
78 11 23 12 35 4 50 -17 32 -43 41 -124 41 l-76 0 0 -115z m124 60 c6 -17 -21
-48 -35 -40 -5 4 -9 17 -9 31 0 27 34 35 44 9z"/>
<path d="M1520 1779 c-23 -56 -44 -108 -47 -116 -4 -10 6 -13 40 -13 35 0 46
4 50 19 6 24 74 23 92 -3 10 -12 24 -16 52 -14 l40 3 -46 110 -47 110 -45 3
-46 3 -43 -102z m102 -23 c2 -12 -3 -20 -15 -22 -15 -2 -18 2 -13 19 3 12 6
29 6 37 1 13 2 13 9 0 5 -8 11 -23 13 -34z"/>
<path d="M1770 1765 l0 -115 40 0 c40 0 40 0 40 39 0 38 1 39 42 45 57 9 78
30 78 77 0 51 -33 69 -130 69 l-70 0 0 -115z m120 46 c0 -10 -7 -22 -16 -25
-23 -9 -24 -8 -24 19 0 18 5 25 20 25 13 0 20 -7 20 -19z"/>
<path d="M2000 1765 l0 -116 42 3 c43 3 43 3 43 43 0 40 0 40 40 40 40 0 40 0
40 -40 1 -40 1 -40 43 -43 l42 -3 0 116 0 116 -42 -3 c-43 -3 -43 -3 -42 -40
l1 -38 -42 0 -42 0 1 38 c1 37 1 37 -41 40 l-43 3 0 -116z"/>
<path d="M2290 1765 l0 -115 43 0 43 0 0 115 0 115 -43 0 -43 0 0 -115z"/>
<path d="M2823 1863 c-3 -10 -24 -58 -45 -107 -21 -49 -38 -93 -38 -98 0 -16
79 -9 88 8 14 25 89 27 95 2 4 -14 15 -18 46 -18 23 0 41 4 41 8 0 4 -16 46
-36 92 -19 47 -39 95 -44 108 -8 18 -17 22 -55 22 -34 0 -47 -4 -52 -17z m67
-126 c-3 -4 -14 -5 -22 -2 -13 5 -14 11 -5 35 l11 30 12 -28 c6 -15 8 -31 4
-35z"/>
<path d="M3035 1768 l1 -113 42 -3 42 -3 0 50 c0 62 19 61 49 -5 20 -41 24
-44 61 -44 22 0 40 2 40 5 0 3 -12 29 -26 57 -18 36 -22 54 -15 61 6 6 11 26
11 43 0 50 -28 64 -125 64 l-80 0 0 -112z m123 44 c3 -17 -2 -22 -17 -22 -16
0 -21 6 -21 26 0 33 33 30 38 -4z"/>
<path d="M3280 1850 c0 -28 3 -30 35 -30 l35 0 0 -85 0 -85 40 0 40 0 0 85 0
85 35 0 c32 0 35 2 35 30 l0 30 -110 0 -110 0 0 -30z"/>
<path d="M3525 1768 l0 -113 43 -3 42 -3 0 115 0 116 -43 0 -42 0 0 -112z"/>
<path d="M3819 1878 c0 -2 -3 -15 -5 -30 -4 -26 -2 -28 31 -28 l35 0 0 -85 0
-85 40 0 c25 0 40 5 41 13 1 6 2 44 3 82 l1 70 33 3 c28 3 32 7 32 33 l0 29
-105 0 c-58 0 -105 -1 -106 -2z"/>
<path d="M1033 1514 c-18 -9 -40 -33 -51 -56 -52 -104 29 -190 163 -173 l55 6
-3 67 -3 67 -46 3 c-41 3 -46 1 -50 -20 -6 -31 1 -50 14 -42 7 4 8 2 4 -4 -7
-12 -45 1 -47 16 -14 75 15 92 111 70 11 -2 14 5 12 31 -1 19 -5 37 -7 40 -14
14 -122 11 -152 -5z m135 -9 c6 -2 12 -13 12 -24 0 -17 -4 -18 -31 -11 -52 15
-99 -14 -99 -63 0 -37 25 -67 56 -67 30 0 38 15 19 33 -20 20 -19 35 3 39 42
9 52 -2 52 -57 l0 -53 -42 -4 c-54 -5 -104 5 -129 27 -34 31 -37 106 -7 148
26 35 109 51 166 32z"/>
<path d="M1220 1408 l0 -123 48 0 47 0 5 49 c6 55 16 51 44 -14 13 -32 17 -34
63 -36 l50 -3 18 52 c10 29 31 80 46 113 27 61 46 76 90 66 19 -4 104 -196 94
-212 -8 -13 -46 -3 -62 17 -18 23 -84 22 -107 -1 -12 -12 -31 -19 -43 -18 -13
2 -23 0 -23 -5 0 -5 13 -10 30 -11 21 -2 33 4 42 18 17 27 83 28 91 1 4 -16
15 -18 103 -17 l99 1 3 42 c3 39 5 42 32 41 63 -2 104 54 81 110 -15 36 -59
52 -144 52 l-66 0 -3 -121 -3 -121 -44 108 c-24 60 -49 115 -54 122 -5 6 -28
12 -51 12 -41 0 -43 -2 -64 -47 -23 -53 -49 -114 -64 -153 -9 -24 -10 -23 -34
20 -20 35 -23 49 -15 62 17 27 13 63 -8 89 -17 21 -29 24 -110 27 l-91 4 0
-124z m196 77 c20 -27 17 -52 -8 -70 -15 -10 -19 -18 -12 -23 17 -12 56 -81
50 -90 -14 -23 -52 -3 -76 39 -16 26 -35 45 -47 47 -19 3 -21 -1 -19 -42 2
-47 -3 -52 -44 -46 -23 3 -23 3 -25 105 -1 68 3 98 12 103 6 4 44 5 83 2 55
-4 75 -10 86 -25z m528 5 c46 -48 4 -110 -74 -110 -24 0 -31 -4 -29 -17 5 -56
-1 -72 -26 -69 -14 1 -28 6 -33 10 -13 14 -8 200 6 206 24 10 142 -5 156 -20z"/>
<path d="M1307 1483 c-2 -5 -3 -19 -3 -33 1 -20 6 -25 26 -25 19 0 26 6 28 24
4 23 -11 41 -35 41 -6 0 -14 -3 -16 -7z m41 -30 c-4 -22 -22 -20 -26 1 -2 10
3 16 13 16 10 0 15 -7 13 -17z"/>
<path d="M1849 1478 c-1 -2 -3 -15 -5 -30 -3 -33 9 -43 36 -28 24 13 26 45 4
54 -16 6 -33 8 -35 4z m33 -33 c0 -5 -5 -11 -11 -13 -6 -2 -11 4 -11 13 0 9 5
15 11 13 6 -2 11 -8 11 -13z"/>
<path d="M1995 1408 l0 -122 48 -1 47 -2 0 43 c0 44 0 44 35 44 35 0 35 0 35
-44 l0 -43 48 1 47 1 1 105 c2 140 2 140 -52 140 l-44 0 0 -40 c0 -22 -4 -40
-10 -41 -53 -6 -55 -5 -58 39 l-3 42 -47 0 -47 0 0 -122z m81 84 c4 -65 1 -62
49 -62 47 0 49 2 45 51 -1 20 4 27 22 31 45 9 48 2 48 -110 l0 -107 -32 1
c-31 1 -33 3 -35 39 -1 43 -11 52 -54 49 -39 -3 -44 -8 -41 -49 3 -34 1 -35
-33 -35 l-35 0 0 104 0 105 28 3 c32 4 37 2 38 -20z"/>
<path d="M2289 1528 c0 -2 -1 -57 -2 -123 l-1 -120 47 -1 47 0 0 123 0 123
-45 0 c-25 0 -45 -1 -46 -2z m77 -125 l-1 -106 -32 -2 -33 -1 0 107 c0 104 1
108 23 111 41 7 44 1 43 -109z"/>
<path d="M2465 1511 c-46 -27 -63 -60 -61 -113 3 -74 55 -118 136 -113 68 3
80 11 80 56 l0 38 -33 -14 c-46 -19 -81 -2 -85 42 -3 28 1 33 23 39 24 6 42 4
76 -10 14 -6 16 -1 15 35 -2 32 -7 44 -22 50 -35 14 -98 9 -129 -10z m113 0
c18 -1 22 -7 22 -32 0 -24 -3 -29 -12 -22 -30 22 -94 1 -102 -33 -12 -48 32
-90 84 -79 33 7 44 -5 26 -30 -17 -24 -94 -25 -129 -2 -80 52 -63 171 29 196
16 4 36 7 44 5 8 -1 25 -3 38 -3z"/>
<path d="M2816 1498 c-43 -97 -86 -200 -86 -207 0 -17 91 -6 101 12 13 23 75
23 88 0 6 -12 23 -18 55 -18 25 -1 46 2 46 6 0 4 -22 58 -48 121 l-49 113 -46
3 c-44 3 -48 1 -61 -30z m142 -90 c23 -53 42 -100 42 -105 0 -5 -16 -7 -35 -5
-21 3 -35 10 -35 18 0 8 -6 14 -12 15 -7 0 -30 1 -50 3 -29 2 -39 -1 -43 -16
-4 -10 -11 -18 -16 -19 -36 -4 -54 -2 -54 7 0 6 18 54 40 107 39 94 41 96 75
99 19 2 38 1 41 -2 3 -3 24 -48 47 -102z"/>
<path d="M2857 1418 c-19 -46 -12 -58 28 -51 23 5 23 6 8 49 -8 24 -16 44 -17
44 -2 0 -10 -19 -19 -42z m21 -37 c-15 -5 -19 4 -11 24 6 18 7 18 13 -1 4 -10
3 -21 -2 -23z"/>
<path d="M3030 1406 c0 -119 1 -126 20 -126 11 0 20 5 20 11 0 5 -4 7 -10 4
-12 -8 -13 -3 -15 118 -2 109 -11 99 92 98 78 0 100 -17 93 -71 -1 -8 -9 -21
-18 -28 -12 -9 -13 -15 -6 -20 17 -11 56 -92 44 -93 -48 -5 -53 -2 -74 41 -14
31 -28 46 -44 48 -20 3 -22 0 -22 -48 0 -42 -3 -51 -15 -46 -8 3 -15 1 -15 -5
0 -6 10 -9 23 -7 19 3 22 9 22 46 0 54 15 54 42 -2 21 -43 23 -44 67 -43 25 1
46 4 46 7 0 3 -12 27 -26 54 -22 42 -24 52 -14 77 17 39 5 76 -28 93 -15 7
-62 14 -104 15 l-78 2 0 -125z"/>
<path d="M3279 1528 c-1 -2 -2 -17 -3 -35 -2 -34 10 -45 44 -38 19 4 20 -1 20
-84 0 -71 3 -88 15 -88 16 0 19 9 8 21 -5 4 -8 42 -8 84 l0 77 -32 3 c-25 2
-33 8 -33 23 0 10 6 19 13 20 6 0 51 1 100 2 84 2 87 1 87 -20 0 -19 -6 -23
-29 -23 -36 0 -40 -10 -37 -94 1 -63 0 -69 -21 -77 -31 -12 -29 -20 5 -16 27
4 27 5 32 88 5 78 6 84 28 85 12 1 26 2 30 3 4 0 7 17 7 36 l0 35 -112 0 c-62
0 -114 -1 -114 -2z"/>
<path d="M3520 1411 c0 -111 8 -146 28 -126 3 3 2 9 -5 13 -6 4 -10 46 -10
109 l0 101 28 4 c16 3 31 2 34 0 3 -3 5 -52 5 -109 0 -100 -3 -109 -32 -104
-5 0 -8 -3 -8 -8 0 -17 50 -9 51 8 1 20 1 213 0 224 -1 4 -21 7 -46 7 l-45 0
0 -119z"/>
<path d="M3674 1518 c-27 -13 -44 -49 -39 -80 3 -13 18 -34 35 -48 31 -25 40
-46 18 -37 -56 21 -58 20 -58 -18 0 -29 5 -37 26 -45 70 -27 147 7 147 65 0
22 -11 39 -44 67 -48 42 -45 50 6 18 l33 -21 -3 26 c-1 14 2 28 6 31 5 3 9 -2
9 -11 0 -11 7 -14 25 -11 34 6 39 -6 39 -94 l1 -75 48 -1 47 -1 0 84 c0 79 1
83 23 83 35 0 49 15 45 46 l-3 29 -112 3 c-108 3 -113 2 -113 -18 0 -11 -4
-20 -10 -20 -5 0 -10 4 -10 8 0 12 -47 32 -73 31 -12 0 -32 -5 -43 -11z m103
-18 c2 0 3 -11 3 -25 0 -22 -2 -24 -19 -14 -19 13 -51 6 -51 -10 0 -5 18 -24
40 -41 45 -35 52 -66 21 -94 -37 -33 -127 -23 -126 14 0 11 10 14 38 12 31 -3
37 0 37 15 0 10 -13 27 -30 36 -74 44 -30 140 54 116 17 -5 32 -9 33 -9z m243
-10 c0 -16 -7 -20 -30 -20 -33 0 -33 -1 -32 -117 1 -29 -2 -53 -6 -54 -4 0
-19 -2 -34 -3 l-28 -2 0 88 0 88 -35 0 c-28 0 -35 4 -35 20 0 19 7 20 100 20
93 0 100 -1 100 -20z"/>
<path d="M3110 1456 c0 -32 3 -36 25 -36 47 0 44 61 -4 68 -18 3 -21 -1 -21
-32z m50 -6 c0 -4 -7 -10 -15 -14 -11 -4 -15 2 -15 21 0 21 2 24 15 13 8 -7
15 -16 15 -20z"/>
<path d="M1589 1413 l-16 -48 33 0 c31 -1 33 1 27 25 -3 14 -11 35 -17 48 -11
22 -13 20 -27 -25z m31 -25 c0 -5 -4 -8 -10 -8 -5 0 -10 10 -10 23 0 18 2 19
10 7 5 -8 10 -18 10 -22z"/>
<path d="M1045 1166 c-52 -24 -78 -60 -78 -110 0 -56 22 -91 69 -111 41 -17
116 -20 144 -5 15 8 18 20 16 72 l-2 63 -47 3 c-45 3 -47 2 -48 -25 -1 -15 -1
-31 0 -35 2 -13 -16 -9 -28 6 -14 16 -10 48 8 70 15 18 48 21 85 6 28 -10 30
-7 28 39 -2 31 -2 32 -63 37 -34 3 -65 -1 -84 -10z m123 -8 c6 -1 12 -12 12
-24 0 -20 -3 -22 -22 -15 -54 20 -108 -12 -108 -64 0 -34 21 -59 58 -68 18 -4
22 -1 22 19 0 13 -4 24 -10 24 -15 0 -12 30 3 31 6 0 22 2 35 3 21 2 22 -1 22
-56 0 -65 3 -62 -89 -59 -79 3 -126 62 -107 136 13 51 78 87 141 78 17 -3 36
-5 43 -5z"/>
<path d="M1222 1059 l3 -124 48 -1 47 -2 0 52 1 51 19 -24 c11 -13 20 -29 20
-36 0 -16 27 -45 41 -45 5 0 9 5 9 11 0 5 -4 8 -9 5 -5 -3 -18 14 -30 39 -20
42 -55 74 -64 58 -2 -5 -3 -27 -3 -50 1 -32 -3 -43 -14 -44 -24 -2 -45 2 -50
11 -4 7 -5 143 -1 190 1 14 37 17 132 11 52 -3 73 -68 32 -101 -16 -12 -20
-20 -11 -20 8 0 24 -18 36 -41 26 -49 26 -49 7 -49 -8 0 -15 -3 -15 -7 0 -5
31 -9 69 -10 61 -1 70 1 74 18 4 15 14 19 46 19 29 0 41 -4 41 -14 0 -16 18
-23 68 -25 40 -2 41 9 4 91 -16 35 -35 79 -42 98 -21 55 -29 61 -77 58 l-44
-3 -38 -90 c-20 -49 -41 -99 -45 -110 -6 -17 -10 -13 -32 25 -20 35 -23 49
-15 62 17 27 13 63 -8 89 -17 22 -29 24 -110 28 l-92 3 3 -123z m414 102 c10
-1 94 -189 94 -210 0 -13 -54 0 -66 15 -19 24 -84 24 -108 0 -16 -16 -44 -23
-70 -17 -4 1 37 106 80 207 3 6 17 10 32 8 15 -1 32 -2 38 -3z"/>
<path d="M1595 1080 c-4 -19 -11 -40 -16 -46 -7 -8 -2 -13 15 -16 43 -8 50 5
29 53 l-20 44 -8 -35z m25 -42 c0 -5 -4 -8 -10 -8 -5 0 -10 10 -10 23 0 18 2
19 10 7 5 -8 10 -18 10 -22z"/>
<path d="M1765 1168 c-3 -8 -4 -63 -3 -124 l3 -109 45 0 c45 0 45 0 50 40 5
37 7 40 44 46 71 11 99 83 51 129 -21 20 -38 24 -105 28 -63 3 -81 1 -85 -10z
m126 -7 c33 -1 69 -29 73 -56 6 -37 -22 -64 -74 -71 -45 -6 -48 -8 -46 -33 4
-40 -9 -59 -39 -54 -27 6 -27 3 -29 128 -1 44 2 82 6 85 4 3 24 5 45 4 21 -1
50 -3 64 -3z"/>
<path d="M1844 1103 c2 -16 4 -31 5 -35 2 -9 29 -4 42 9 18 18 1 53 -26 53
-20 0 -23 -4 -21 -27z m38 -8 c0 -5 -5 -11 -11 -13 -6 -2 -11 4 -11 13 0 9 5
15 11 13 6 -2 11 -8 11 -13z"/>
<path d="M1999 1178 c-1 -2 -3 -56 -4 -120 -2 -129 -3 -128 63 -126 31 1 32 2
32 45 0 42 0 43 34 43 34 0 35 -1 38 -42 l3 -43 44 0 45 0 0 120 1 120 -47 3
-48 3 0 -40 c0 -23 -4 -41 -10 -42 -53 -6 -55 -5 -58 39 l-3 42 -45 0 c-24 0
-45 -1 -45 -2z m67 -17 c6 -1 11 -11 11 -23 1 -58 1 -58 51 -58 l47 0 0 42 c0
41 1 43 30 43 l30 0 3 -111 3 -111 -33 2 c-29 1 -32 5 -35 36 -6 53 -8 56 -48
53 -47 -4 -49 -6 -47 -48 1 -26 -3 -35 -19 -39 -27 -7 -47 1 -51 20 -2 8 -2
57 0 107 3 88 4 92 25 90 12 -1 27 -3 33 -3z"/>
<path d="M2289 1163 c-1 -24 -1 -205 0 -218 1 -6 21 -12 46 -12 l45 -2 0 125
0 124 -45 0 c-36 0 -45 -4 -46 -17z m76 -109 c0 -117 3 -110 -50 -105 -12 1
-15 20 -15 109 l0 108 33 -1 32 -2 0 -109z"/>
<path d="M2463 1161 c-44 -28 -67 -74 -60 -125 11 -76 94 -122 178 -97 37 11
39 14 39 52 0 36 -2 39 -19 29 -26 -14 -74 -13 -89 2 -21 21 -15 66 11 74 26
9 57 6 74 -7 15 -13 21 -1 18 38 -2 43 -6 46 -68 50 -40 3 -60 -1 -84 -16z
m128 -6 c5 -4 9 -15 9 -26 0 -17 -5 -19 -37 -14 -49 7 -76 -13 -76 -56 0 -44
35 -73 79 -64 37 7 49 -4 31 -29 -17 -23 -99 -24 -133 -1 -14 9 -32 30 -40 48
-34 72 32 158 116 151 23 -2 45 -6 51 -9z"/>
<path d="M2814 1143 c-9 -21 -31 -73 -50 -116 -19 -43 -34 -82 -34 -86 0 -5
20 -8 45 -8 34 0 48 5 56 18 14 26 75 26 89 0 8 -15 19 -19 52 -18 23 2 43 7
44 12 2 6 -19 60 -45 120 l-48 110 -47 3 c-45 3 -47 2 -62 -35z m100 16 c2 -2
22 -49 45 -103 42 -100 43 -119 2 -111 -9 2 -19 4 -23 4 -5 1 -8 8 -8 16 0 14
-10 17 -65 17 -40 0 -43 -1 -47 -19 -2 -11 -14 -17 -35 -18 -18 -1 -33 2 -33
6 0 4 16 45 36 91 20 45 40 92 44 104 7 17 16 21 45 19 20 -2 37 -4 39 -6z"/>
<path d="M2857 1068 c-17 -51 -15 -55 23 -53 27 1 29 14 6 70 l-12 30 -17 -47z
m33 -30 c0 -5 -6 -8 -14 -8 -9 0 -12 7 -9 21 4 16 8 17 14 7 5 -7 9 -16 9 -20z"/>
<path d="M3030 1056 l0 -124 48 2 47 1 2 44 c2 24 5 46 7 49 3 2 16 -19 30
-46 25 -50 26 -50 68 -47 24 1 44 3 46 4 2 0 -10 25 -26 55 -25 46 -27 56 -15
72 26 35 11 78 -34 102 -12 7 -56 12 -97 12 l-76 0 0 -124z m151 105 c48 -3
71 -70 32 -98 -15 -12 -15 -14 -1 -30 29 -33 49 -81 36 -85 -30 -10 -56 6 -74
45 -13 29 -26 43 -41 45 -21 3 -23 -1 -23 -41 0 -40 -3 -45 -25 -49 -14 -3
-29 0 -33 6 -4 6 -7 54 -7 106 -1 114 -5 110 136 101z"/>
<path d="M3117 1134 c-4 -4 -7 -20 -7 -36 0 -26 3 -29 28 -26 21 2 28 9 30 31
2 15 -1 27 -7 27 -5 0 -16 2 -23 5 -8 3 -17 2 -21 -1z m37 -22 c2 -4 0 -14 -5
-22 -8 -13 -10 -13 -18 0 -10 15 -6 30 9 30 5 0 11 -4 14 -8z"/>
<path d="M3274 1141 c0 -38 1 -39 33 -37 l33 1 0 -86 0 -87 50 0 50 -1 0 85
c0 89 -2 85 50 88 8 1 15 7 14 14 -1 6 -2 23 -2 37 l-2 25 -113 0 -113 0 0
-39z m204 20 c6 -1 12 -10 12 -21 0 -20 -8 -24 -45 -21 -19 2 -21 -4 -20 -71
1 -90 -5 -106 -42 -101 l-28 5 0 81 0 82 -32 3 c-24 2 -33 8 -33 21 0 10 2 20
4 22 4 3 139 3 184 0z"/>
<path d="M3520 1057 l0 -122 45 -2 c43 -2 45 -1 46 25 1 29 1 188 0 210 -1 8
-17 12 -46 12 l-45 0 0 -123z m75 -3 c0 -117 2 -113 -53 -105 -11 1 -12 193
-1 207 5 6 19 10 31 9 22 -2 23 -5 23 -111z"/>
<path d="M3675 1168 c-55 -33 -54 -85 3 -136 38 -34 37 -35 -28 -16 -18 5 -20
1 -20 -34 0 -36 3 -40 31 -46 56 -11 87 -6 115 17 41 36 36 73 -17 119 -37 31
-40 37 -20 33 13 -2 33 -12 43 -22 20 -17 20 -17 15 15 -3 17 -1 32 4 32 5 0
9 -7 9 -15 0 -8 3 -14 8 -14 4 1 18 1 32 0 25 -1 25 -2 24 -81 -2 -87 0 -90
64 -88 l32 1 0 84 c0 59 4 83 13 84 6 1 21 2 32 3 16 1 20 8 20 36 l0 35 -112
3 c-110 3 -113 2 -113 -19 0 -21 -1 -21 -19 -5 -24 22 -90 30 -116 14z m74 -9
c19 -7 31 -18 31 -29 0 -16 -6 -18 -35 -13 -49 8 -47 -16 5 -57 68 -54 45
-112 -45 -112 -51 0 -58 4 -60 31 -1 14 6 18 34 17 48 -1 51 23 6 52 -26 16
-35 29 -35 50 0 35 10 49 40 61 14 5 25 10 26 10 1 1 15 -4 33 -10z m264 2 c4
-1 7 -10 7 -20 0 -15 -8 -21 -32 -23 l-33 -3 3 -82 c1 -51 -2 -83 -8 -84 -57
-6 -55 -9 -60 81 l-5 85 -32 3 c-26 3 -33 8 -33 25 0 21 4 22 92 21 51 -1 96
-2 101 -3z"/>
<path d="M1304 1105 c0 -33 2 -36 25 -33 47 5 38 67 -9 68 -11 0 -15 -11 -16
-35z m46 1 c0 -8 -7 -16 -15 -20 -10 -4 -15 1 -15 14 0 11 7 20 15 20 8 0 15
-6 15 -14z"/>
</g>
</svg>
