<?xml version="1.0" encoding="UTF-8"?>
<!DOCTYPE svg PUBLIC "-//W3C//DTD SVG 1.1//EN" "http://www.w3.org/Graphics/SVG/1.1/DTD/svg11.dtd">
<svg xmlns="http://www.w3.org/2000/svg" version="1.1" width="500px" height="500px" style="shape-rendering:geometricPrecision; text-rendering:geometricPrecision; image-rendering:optimizeQuality; fill-rule:evenodd; clip-rule:evenodd" xmlns:xlink="http://www.w3.org/1999/xlink">
<g><path style="opacity:0.027" fill="#e788b2" d="M 238.5,90.5 C 249.536,89.1681 260.536,89.5014 271.5,91.5C 260.511,90.8815 249.511,90.5482 238.5,90.5 Z"/></g>
<g><path style="opacity:1" fill="#fcd3e1" d="M 238.5,90.5 C 249.511,90.5482 260.511,90.8815 271.5,91.5C 273.099,91.2322 274.432,91.5655 275.5,92.5C 284.876,95.1812 294.209,98.1812 303.5,101.5C 303.5,102.833 303.5,104.167 303.5,105.5C 306.193,105.428 308.86,105.095 311.5,104.5C 313.876,105.226 315.876,106.559 317.5,108.5C 314.834,109.039 312.667,110.372 311,112.5C 310.667,112.167 310.333,111.833 310,111.5C 309.333,112.5 309.333,113.5 310,114.5C 313.034,112.984 315.867,113.317 318.5,115.5C 322.413,114.938 323.079,113.438 320.5,111C 321,110.833 321.5,110.667 322,110.5C 325.873,112.866 330.04,114.533 334.5,115.5C 337.025,118.995 340.025,121.828 343.5,124C 342.352,125.726 341.185,125.559 340,123.5C 339.085,124.328 338.419,125.328 338,126.5C 337.026,124.122 336.359,124.456 336,127.5C 335.751,126.376 335.251,125.376 334.5,124.5C 332.833,125.5 331.5,126.833 330.5,128.5C 332.149,129.148 333.482,130.148 334.5,131.5C 333.667,131.833 332.833,132.167 332,132.5C 327.94,131.221 324.44,129.054 321.5,126C 322.333,125.167 323.167,124.333 324,123.5C 325.667,123.5 327.333,123.5 329,123.5C 329.309,121.609 328.475,120.275 326.5,119.5C 323.076,120.736 319.576,121.736 316,122.5C 311.839,121.389 307.672,120.389 303.5,119.5C 292.58,115.855 281.58,112.855 270.5,110.5C 264.908,109.007 259.074,108.341 253,108.5C 248.985,108.501 245.151,108.835 241.5,109.5C 229.635,110.441 217.969,112.441 206.5,115.5C 202.9,115.794 199.4,116.46 196,117.5C 195.586,117.043 195.086,116.709 194.5,116.5C 192.24,119.423 189.24,120.923 185.5,121C 186.711,121.893 186.711,122.726 185.5,123.5C 182.772,124.145 180.105,124.979 177.5,126C 174.934,129.105 171.934,130.772 168.5,131C 169.602,133.391 168.936,133.891 166.5,132.5C 165.571,133.689 165.238,135.022 165.5,136.5C 163.876,136.64 162.71,135.973 162,134.5C 161.354,136.692 160.854,139.025 160.5,141.5C 141.116,157.541 126.783,177.208 117.5,200.5C 116.928,198.021 116.928,195.687 117.5,193.5C 116.66,191.739 115.66,190.073 114.5,188.5C 113.266,190.398 113.599,192.065 115.5,193.5C 113.827,195.086 111.827,195.753 109.5,195.5C 109.649,196.552 109.483,197.552 109,198.5C 108.333,196.5 107.667,194.5 107,192.5C 106.08,192.93 105.247,193.264 104.5,193.5C 105.035,195.661 105.868,197.661 107,199.5C 107.818,202.227 107.652,204.894 106.5,207.5C 105.808,206.975 105.308,206.308 105,205.5C 103.16,206.833 102.66,206.666 103.5,205C 102.692,204.692 102.025,204.192 101.5,203.5C 103.276,202.685 103.943,201.518 103.5,200C 102.667,199.167 101.833,198.333 101,197.5C 100.667,200.167 100.333,202.833 100,205.5C 98.9887,204.663 97.8221,204.33 96.5,204.5C 101.22,187.162 108.72,171.162 119,156.5C 120.039,155.29 121.206,154.29 122.5,153.5C 128.842,147.157 134.842,140.491 140.5,133.5C 150.192,122.996 161.526,114.496 174.5,108C 184.382,102.874 194.715,99.0402 205.5,96.5C 216.56,94.1154 227.56,92.1154 238.5,90.5 Z"/></g>
<g><path style="opacity:0.353" fill="#f391b9" d="M 238.5,90.5 C 227.56,92.1154 216.56,94.1154 205.5,96.5C 208.557,94.9051 211.89,93.7384 215.5,93C 223.051,91.1207 230.718,90.2874 238.5,90.5 Z"/></g>
<g><path style="opacity:0.437" fill="#ef819c" d="M 241.5,109.5 C 245.151,108.835 248.985,108.501 253,108.5C 259.074,108.341 264.908,109.007 270.5,110.5C 260.847,109.852 251.18,109.518 241.5,109.5 Z"/></g>
<g><path style="opacity:0.999" fill="#f8d5ec" d="M 275.5,92.5 C 308.127,97.6474 336.46,111.481 360.5,134C 363.754,136.747 366.42,139.914 368.5,143.5C 368.859,145.371 369.859,146.871 371.5,148C 370.663,149.011 370.33,150.178 370.5,151.5C 374.332,151.19 375.832,152.857 375,156.5C 374.667,156.167 374.333,155.833 374,155.5C 373.355,156.646 372.522,157.646 371.5,158.5C 372.494,161.399 371.494,162.066 368.5,160.5C 367.369,161.751 366.036,162.751 364.5,163.5C 361.002,161.501 358.336,158.667 356.5,155C 354.846,154.392 353.179,153.892 351.5,153.5C 347.12,146.786 341.453,141.452 334.5,137.5C 324.29,131.23 313.957,125.23 303.5,119.5C 307.672,120.389 311.839,121.389 316,122.5C 319.576,121.736 323.076,120.736 326.5,119.5C 328.475,120.275 329.309,121.609 329,123.5C 327.333,123.5 325.667,123.5 324,123.5C 323.167,124.333 322.333,125.167 321.5,126C 324.44,129.054 327.94,131.221 332,132.5C 332.833,132.167 333.667,131.833 334.5,131.5C 333.482,130.148 332.149,129.148 330.5,128.5C 331.5,126.833 332.833,125.5 334.5,124.5C 335.251,125.376 335.751,126.376 336,127.5C 336.359,124.456 337.026,124.122 338,126.5C 338.419,125.328 339.085,124.328 340,123.5C 341.185,125.559 342.352,125.726 343.5,124C 340.025,121.828 337.025,118.995 334.5,115.5C 330.04,114.533 325.873,112.866 322,110.5C 321.5,110.667 321,110.833 320.5,111C 323.079,113.438 322.413,114.938 318.5,115.5C 315.867,113.317 313.034,112.984 310,114.5C 309.333,113.5 309.333,112.5 310,111.5C 310.333,111.833 310.667,112.167 311,112.5C 312.667,110.372 314.834,109.039 317.5,108.5C 315.876,106.559 313.876,105.226 311.5,104.5C 308.86,105.095 306.193,105.428 303.5,105.5C 303.5,104.167 303.5,102.833 303.5,101.5C 294.209,98.1812 284.876,95.1812 275.5,92.5 Z"/></g>
<g><path style="opacity:0.965" fill="#f6acc8" d="M 206.5,115.5 C 189.676,121.577 174.343,130.244 160.5,141.5C 160.854,139.025 161.354,136.692 162,134.5C 162.71,135.973 163.876,136.64 165.5,136.5C 165.238,135.022 165.571,133.689 166.5,132.5C 168.936,133.891 169.602,133.391 168.5,131C 171.934,130.772 174.934,129.105 177.5,126C 180.105,124.979 182.772,124.145 185.5,123.5C 186.711,122.726 186.711,121.893 185.5,121C 189.24,120.923 192.24,119.423 194.5,116.5C 195.086,116.709 195.586,117.043 196,117.5C 199.4,116.46 202.9,115.794 206.5,115.5 Z"/></g>
<g><path style="opacity:0.6" fill="#cf89cb" d="M 334.5,137.5 C 341.453,141.452 347.12,146.786 351.5,153.5C 345.807,148.139 340.14,142.805 334.5,137.5 Z"/></g>
<g><path style="opacity:0.392" fill="#f78cb9" d="M 140.5,133.5 C 134.842,140.491 128.842,147.157 122.5,153.5C 125.037,148.783 128.204,144.449 132,140.5C 134.436,137.553 137.269,135.22 140.5,133.5 Z"/></g>
<g><path style="opacity:0.484" fill="#e98ebf" d="M 255.5,157.5 C 257.136,158.749 258.303,160.416 259,162.5C 259.499,167.155 259.666,171.821 259.5,176.5C 261.698,176.12 263.365,176.787 264.5,178.5C 262.173,178.335 260.007,177.669 258,176.5C 257.982,169.997 257.148,163.664 255.5,157.5 Z"/></g>
<g><path style="opacity:0.454" fill="#fa94b5" d="M 245.5,155.5 C 244.207,157.296 242.707,158.963 241,160.5C 240.667,165.5 240.333,170.5 240,175.5C 238.951,177.107 237.451,177.773 235.5,177.5C 236.209,176.596 237.209,176.263 238.5,176.5C 238.283,170.768 238.783,165.101 240,159.5C 241.451,157.536 243.284,156.203 245.5,155.5 Z"/></g>
<g><path style="opacity:1" fill="#e9dbf6" d="M 368.5,143.5 C 379.332,154.491 387.666,167.158 393.5,181.5C 393.461,182.583 393.127,183.583 392.5,184.5C 395.642,189.309 394.809,193.309 390,196.5C 388.325,195.405 387.158,193.905 386.5,192C 385.552,191.517 384.552,191.351 383.5,191.5C 383.5,193.167 383.5,194.833 383.5,196.5C 380.306,196.824 379.306,195.658 380.5,193C 379.756,191.961 378.756,191.461 377.5,191.5C 373.93,184.744 370.097,178.077 366,171.5C 361.333,165.336 356.5,159.336 351.5,153.5C 353.179,153.892 354.846,154.392 356.5,155C 358.336,158.667 361.002,161.501 364.5,163.5C 366.036,162.751 367.369,161.751 368.5,160.5C 371.494,162.066 372.494,161.399 371.5,158.5C 372.522,157.646 373.355,156.646 374,155.5C 374.333,155.833 374.667,156.167 375,156.5C 375.832,152.857 374.332,151.19 370.5,151.5C 370.33,150.178 370.663,149.011 371.5,148C 369.859,146.871 368.859,145.371 368.5,143.5 Z"/></g>
<g><path style="opacity:1" fill="#fcd8e7" d="M 255.5,157.5 C 257.148,163.664 257.982,169.997 258,176.5C 260.007,177.669 262.173,178.335 264.5,178.5C 270.899,180.061 275.732,183.728 279,189.5C 280.531,197.11 277.531,201.776 270,203.5C 265.901,202.873 262.735,200.873 260.5,197.5C 260.5,196.5 260.5,195.5 260.5,194.5C 250.917,192.711 241.583,193.545 232.5,197C 233.337,198.011 233.67,199.178 233.5,200.5C 232.5,200.5 231.5,200.5 230.5,200.5C 230.702,202.989 230.202,205.323 229,207.5C 228.333,212.5 228.333,217.5 229,222.5C 230.049,224.618 231.549,226.284 233.5,227.5C 233.08,229.094 232.414,230.594 231.5,232C 232.098,233.301 233.098,234.135 234.5,234.5C 235.249,232.988 236.416,231.988 238,231.5C 241.979,233.138 245.146,234.971 247.5,237C 246.78,239.122 245.613,239.622 244,238.5C 243.517,239.448 243.351,240.448 243.5,241.5C 240.271,241.165 238.771,242.498 239,245.5C 239.333,245.167 239.667,244.833 240,244.5C 242.367,245.047 244.533,246.047 246.5,247.5C 247.167,246.833 247.833,246.167 248.5,245.5C 249.425,246.641 250.259,246.641 251,245.5C 253.548,246.524 256.048,247.69 258.5,249C 258.112,250.808 258.112,252.475 258.5,254C 257.906,254.464 257.239,254.631 256.5,254.5C 256.047,253.542 255.381,252.708 254.5,252C 249.585,250.584 244.585,249.584 239.5,249C 236.5,246.771 233.167,245.104 229.5,244C 227.442,241.555 224.942,239.722 222,238.5C 222.592,234.102 220.759,232.102 216.5,232.5C 216.5,231.167 216.5,229.833 216.5,228.5C 214.876,228.64 213.71,227.973 213,226.5C 212.275,216.806 212.441,207.14 213.5,197.5C 217.983,187.683 225.317,181.016 235.5,177.5C 237.451,177.773 238.951,177.107 240,175.5C 240.333,170.5 240.667,165.5 241,160.5C 242.707,158.963 244.207,157.296 245.5,155.5C 247.628,154.371 249.961,154.204 252.5,155C 253.942,155.377 254.942,156.21 255.5,157.5 Z"/></g>
<g><path style="opacity:0.999" fill="#fdd5e2" d="M 117.5,200.5 C 115.294,208.45 113.294,216.45 111.5,224.5C 110.037,227.203 109.204,230.203 109,233.5C 107.423,253.834 108.923,273.834 113.5,293.5C 116.048,296.612 118.048,299.945 119.5,303.5C 126.914,319.32 136.581,333.654 148.5,346.5C 149.558,351.447 152.224,355.28 156.5,358C 155.737,358.944 154.737,359.444 153.5,359.5C 151.83,358.005 149.997,356.672 148,355.5C 147.586,355.957 147.086,356.291 146.5,356.5C 147.095,359.387 147.095,362.72 146.5,366.5C 142.522,367.034 139.522,365.534 137.5,362C 138.925,358.066 137.425,355.899 133,355.5C 132.51,354.207 132.343,352.873 132.5,351.5C 130.833,351.5 129.167,351.5 127.5,351.5C 127.5,350.167 127.5,348.833 127.5,347.5C 125.012,347.317 123.012,346.317 121.5,344.5C 115.55,337.597 110.883,329.931 107.5,321.5C 104.142,313.789 101.309,305.789 99,297.5C 98.6667,294.5 98.3333,291.5 98,288.5C 97.586,288.957 97.086,289.291 96.5,289.5C 95.8281,288.051 95.1614,286.718 94.5,285.5C 93.596,284.791 93.2627,283.791 93.5,282.5C 91.3136,262.868 90.9803,243.202 92.5,223.5C 93.0096,216.977 94.343,210.644 96.5,204.5C 97.8221,204.33 98.9887,204.663 100,205.5C 100.333,202.833 100.667,200.167 101,197.5C 101.833,198.333 102.667,199.167 103.5,200C 103.943,201.518 103.276,202.685 101.5,203.5C 102.025,204.192 102.692,204.692 103.5,205C 102.66,206.666 103.16,206.833 105,205.5C 105.308,206.308 105.808,206.975 106.5,207.5C 107.652,204.894 107.818,202.227 107,199.5C 105.868,197.661 105.035,195.661 104.5,193.5C 105.247,193.264 106.08,192.93 107,192.5C 107.667,194.5 108.333,196.5 109,198.5C 109.483,197.552 109.649,196.552 109.5,195.5C 111.827,195.753 113.827,195.086 115.5,193.5C 113.599,192.065 113.266,190.398 114.5,188.5C 115.66,190.073 116.66,191.739 117.5,193.5C 116.928,195.687 116.928,198.021 117.5,200.5 Z"/></g>
<g><path style="opacity:0.275" fill="#efa7c7" d="M 260.5,197.5 C 246.583,191.178 236.416,194.844 230,208.5C 228.959,213.44 229.626,218.106 232,222.5C 234.396,225.067 236.896,227.4 239.5,229.5C 237.914,228.587 236.414,228.587 235,229.5C 234.722,228.584 234.222,227.918 233.5,227.5C 231.549,226.284 230.049,224.618 229,222.5C 228.333,217.5 228.333,212.5 229,207.5C 230.202,205.323 230.702,202.989 230.5,200.5C 231.5,200.5 232.5,200.5 233.5,200.5C 233.67,199.178 233.337,198.011 232.5,197C 241.583,193.545 250.917,192.711 260.5,194.5C 260.5,195.5 260.5,196.5 260.5,197.5 Z"/></g>
<g><path style="opacity:1" fill="#d0dffa" d="M 393.5,181.5 C 397.091,187.7 399.924,194.366 402,201.5C 411.633,232.509 411.8,263.509 402.5,294.5C 401.265,294.721 400.265,295.388 399.5,296.5C 398.76,299.836 398.094,303.17 397.5,306.5C 396.675,307.386 395.675,307.719 394.5,307.5C 395.123,312.369 393.623,316.369 390,319.5C 389.505,321.473 389.338,323.473 389.5,325.5C 385.673,333.982 380.673,341.648 374.5,348.5C 374.586,347.504 374.252,346.671 373.5,346C 375.188,344.312 376.855,342.645 378.5,341C 378.355,340.228 378.022,339.561 377.5,339C 380.187,337.125 382.021,334.625 383,331.5C 383.333,331.833 383.667,332.167 384,332.5C 384.595,331.101 384.428,329.768 383.5,328.5C 384.376,327.749 385.376,327.249 386.5,327C 385.269,325.817 385.269,324.651 386.5,323.5C 387.729,327.286 388.396,327.286 388.5,323.5C 388.523,321.933 388.023,320.6 387,319.5C 385.667,319.5 384.333,319.5 383,319.5C 381.026,322.118 379.193,321.952 377.5,319C 378.978,316.543 380.311,314.043 381.5,311.5C 380.909,309.734 380.076,308.067 379,306.5C 378.801,308.402 377.967,309.902 376.5,311C 377.609,312.813 376.942,313.646 374.5,313.5C 393.279,273.256 394.279,232.589 377.5,191.5C 378.756,191.461 379.756,191.961 380.5,193C 379.306,195.658 380.306,196.824 383.5,196.5C 383.5,194.833 383.5,193.167 383.5,191.5C 384.552,191.351 385.552,191.517 386.5,192C 387.158,193.905 388.325,195.405 390,196.5C 394.809,193.309 395.642,189.309 392.5,184.5C 393.127,183.583 393.461,182.583 393.5,181.5 Z"/></g>
<g><path style="opacity:0.992" fill="#f1b9df" d="M 213.5,197.5 C 212.441,207.14 212.275,216.806 213,226.5C 213.71,227.973 214.876,228.64 216.5,228.5C 216.5,229.833 216.5,231.167 216.5,232.5C 220.759,232.102 222.592,234.102 222,238.5C 224.942,239.722 227.442,241.555 229.5,244C 233.167,245.104 236.5,246.771 239.5,249C 244.585,249.584 249.585,250.584 254.5,252C 255.381,252.708 256.047,253.542 256.5,254.5C 256.5,254.833 256.5,255.167 256.5,255.5C 240.438,253.321 226.938,246.321 216,234.5C 208.428,222.493 207.594,210.16 213.5,197.5 Z"/></g>
<g><path style="opacity:0.713" fill="#f2a1c5" d="M 92.5,223.5 C 90.9803,243.202 91.3136,262.868 93.5,282.5C 88.7944,262.889 88.461,243.223 92.5,223.5 Z"/></g>
<g><path style="opacity:1" fill="#f5dbf2" d="M 233.5,227.5 C 234.222,227.918 234.722,228.584 235,229.5C 236.414,228.587 237.914,228.587 239.5,229.5C 249.275,232.533 258.941,236.033 268.5,240C 275.069,243.735 280.069,248.901 283.5,255.5C 285.421,261.49 286.754,267.657 287.5,274C 287.469,277.818 286.802,281.485 285.5,285C 286.406,286.699 286.739,288.533 286.5,290.5C 285.883,290.389 285.383,290.056 285,289.5C 284.506,291.134 284.34,292.801 284.5,294.5C 282.058,294.354 281.391,295.187 282.5,297C 281.584,297.374 280.75,297.874 280,298.5C 279.309,295.734 277.809,295.067 275.5,296.5C 274.534,294.604 274.201,292.604 274.5,290.5C 270.295,291.155 269.128,289.821 271,286.5C 271.667,280.5 271.667,274.5 271,268.5C 266.87,265.851 266.037,262.684 268.5,259C 264.449,257.762 260.449,256.596 256.5,255.5C 256.5,255.167 256.5,254.833 256.5,254.5C 257.239,254.631 257.906,254.464 258.5,254C 258.112,252.475 258.112,250.808 258.5,249C 256.048,247.69 253.548,246.524 251,245.5C 250.259,246.641 249.425,246.641 248.5,245.5C 247.833,246.167 247.167,246.833 246.5,247.5C 244.533,246.047 242.367,245.047 240,244.5C 239.667,244.833 239.333,245.167 239,245.5C 238.771,242.498 240.271,241.165 243.5,241.5C 243.351,240.448 243.517,239.448 244,238.5C 245.613,239.622 246.78,239.122 247.5,237C 245.146,234.971 241.979,233.138 238,231.5C 236.416,231.988 235.249,232.988 234.5,234.5C 233.098,234.135 232.098,233.301 231.5,232C 232.414,230.594 233.08,229.094 233.5,227.5 Z"/></g>
<g><path style="opacity:0.965" fill="#cbb0df" d="M 283.5,255.5 C 290.134,266.722 291.134,278.389 286.5,290.5C 286.739,288.533 286.406,286.699 285.5,285C 286.802,281.485 287.469,277.818 287.5,274C 286.754,267.657 285.421,261.49 283.5,255.5 Z"/></g>
<g><path style="opacity:0.998" fill="#f4acc7" d="M 94.5,285.5 C 95.1614,286.718 95.8281,288.051 96.5,289.5C 97.086,289.291 97.586,288.957 98,288.5C 98.3333,291.5 98.6667,294.5 99,297.5C 101.309,305.789 104.142,313.789 107.5,321.5C 100.829,310.498 96.4957,298.498 94.5,285.5 Z"/></g>
<g><path style="opacity:1" fill="#f2a0bd" d="M 111.5,224.5 C 107.432,251.556 110.099,277.889 119.5,303.5C 118.048,299.945 116.048,296.612 113.5,293.5C 108.923,273.834 107.423,253.834 109,233.5C 109.204,230.203 110.037,227.203 111.5,224.5 Z"/></g>
<g><path style="opacity:1" fill="#f2def4" d="M 250.5,299.5 C 257.196,299.151 262.863,296.484 267.5,291.5C 268.833,293.5 270.5,295.167 272.5,296.5C 273.833,298.5 273.833,300.5 272.5,302.5C 270.616,298.983 268.283,298.649 265.5,301.5C 263.902,300.515 262.235,300.349 260.5,301C 261.167,301.333 261.833,301.667 262.5,302C 259.226,302.444 256.56,303.944 254.5,306.5C 255.774,308.85 257.107,308.683 258.5,306C 260.473,305.505 262.473,305.338 264.5,305.5C 264.5,306.5 264.5,307.5 264.5,308.5C 265.978,308.238 267.311,308.571 268.5,309.5C 267.061,311.553 265.061,312.553 262.5,312.5C 262.5,311.5 262.5,310.5 262.5,309.5C 258.702,311.984 254.369,313.484 249.5,314C 248.5,315 247.5,316 246.5,317C 247,317.167 247.5,317.333 248,317.5C 249.921,315.997 252.088,315.331 254.5,315.5C 254.184,319.517 253.851,323.517 253.5,327.5C 254.833,327.5 256.167,327.5 257.5,327.5C 257.665,330.85 257.498,334.183 257,337.5C 256.333,336.833 255.667,336.167 255,335.5C 254.503,337.81 254.337,340.143 254.5,342.5C 253.001,341.322 252.001,339.655 251.5,337.5C 251.412,338.922 251.412,340.422 251.5,342C 249.167,342.667 246.833,342.667 244.5,342C 244.833,341.667 245.167,341.333 245.5,341C 242.846,338.928 243.18,337.261 246.5,336C 244.526,334.678 242.692,335.178 241,337.5C 240.667,330.5 240.333,323.5 240,316.5C 234.389,315.428 229.222,313.428 224.5,310.5C 224.719,309.325 224.386,308.325 223.5,307.5C 220.596,305.88 217.596,304.547 214.5,303.5C 210.73,295.168 213.397,290.168 222.5,288.5C 223.833,288.667 225.167,288.833 226.5,289C 232.737,296.47 240.737,299.97 250.5,299.5 Z"/></g>
<g><path style="opacity:1" fill="#e4d1f0" d="M 256.5,255.5 C 260.449,256.596 264.449,257.762 268.5,259C 266.037,262.684 266.87,265.851 271,268.5C 271.667,274.5 271.667,280.5 271,286.5C 269.128,289.821 270.295,291.155 274.5,290.5C 274.201,292.604 274.534,294.604 275.5,296.5C 277.809,295.067 279.309,295.734 280,298.5C 280.75,297.874 281.584,297.374 282.5,297C 281.391,295.187 282.058,294.354 284.5,294.5C 284.34,292.801 284.506,291.134 285,289.5C 285.383,290.056 285.883,290.389 286.5,290.5C 281.963,303.539 273.129,312.539 260,317.5C 259.667,323.833 259.333,330.167 259,336.5C 258.208,339.106 256.708,341.106 254.5,342.5C 254.337,340.143 254.503,337.81 255,335.5C 255.667,336.167 256.333,336.833 257,337.5C 257.498,334.183 257.665,330.85 257.5,327.5C 256.167,327.5 254.833,327.5 253.5,327.5C 253.851,323.517 254.184,319.517 254.5,315.5C 252.088,315.331 249.921,315.997 248,317.5C 247.5,317.333 247,317.167 246.5,317C 247.5,316 248.5,315 249.5,314C 254.369,313.484 258.702,311.984 262.5,309.5C 262.5,310.5 262.5,311.5 262.5,312.5C 265.061,312.553 267.061,311.553 268.5,309.5C 267.311,308.571 265.978,308.238 264.5,308.5C 264.5,307.5 264.5,306.5 264.5,305.5C 262.473,305.338 260.473,305.505 258.5,306C 257.107,308.683 255.774,308.85 254.5,306.5C 256.56,303.944 259.226,302.444 262.5,302C 261.833,301.667 261.167,301.333 260.5,301C 262.235,300.349 263.902,300.515 265.5,301.5C 268.283,298.649 270.616,298.983 272.5,302.5C 273.833,300.5 273.833,298.5 272.5,296.5C 270.5,295.167 268.833,293.5 267.5,291.5C 262.863,296.484 257.196,299.151 250.5,299.5C 268.661,292.499 273.494,280.166 265,262.5C 262.004,260.267 259.171,257.934 256.5,255.5 Z"/></g>
<g><path style="opacity:0.903" fill="#dfc0ea" d="M 214.5,303.5 C 217.596,304.547 220.596,305.88 223.5,307.5C 224.386,308.325 224.719,309.325 224.5,310.5C 229.222,313.428 234.389,315.428 240,316.5C 240.333,323.5 240.667,330.5 241,337.5C 242.692,335.178 244.526,334.678 246.5,336C 243.18,337.261 242.846,338.928 245.5,341C 245.167,341.333 244.833,341.667 244.5,342C 246.833,342.667 249.167,342.667 251.5,342C 251.412,340.422 251.412,338.922 251.5,337.5C 252.001,339.655 253.001,341.322 254.5,342.5C 248.981,345.563 244.148,344.563 240,339.5C 239.798,332.45 239.298,325.45 238.5,318.5C 228.451,316.491 220.451,311.491 214.5,303.5 Z"/></g>
<g><path style="opacity:0.804" fill="#9dbbe9" d="M 402.5,294.5 C 399.892,305.687 395.558,316.02 389.5,325.5C 389.338,323.473 389.505,321.473 390,319.5C 393.623,316.369 395.123,312.369 394.5,307.5C 395.675,307.719 396.675,307.386 397.5,306.5C 398.094,303.17 398.76,299.836 399.5,296.5C 400.265,295.388 401.265,294.721 402.5,294.5 Z"/></g>
<g><path style="opacity:1" fill="#d1e2fa" d="M 374.5,348.5 C 373.833,349.5 373.167,350.5 372.5,351.5C 371.167,351.5 369.833,351.5 368.5,351.5C 368.719,352.675 368.386,353.675 367.5,354.5C 365.883,354.669 364.216,355.003 362.5,355.5C 362.709,356.086 363.043,356.586 363.5,357C 361.893,358.049 361.227,359.549 361.5,361.5C 360.448,361.351 359.448,361.517 358.5,362C 358.833,362.333 359.167,362.667 359.5,363C 358.234,363.309 357.067,363.809 356,364.5C 354.251,366.753 352.751,369.086 351.5,371.5C 350.5,371.5 349.5,371.5 348.5,371.5C 348.5,372.5 348.5,373.5 348.5,374.5C 344.473,374.719 343.806,373.552 346.5,371C 343.874,368.971 342.874,369.805 343.5,373.5C 340.988,373.577 338.988,372.577 337.5,370.5C 339.274,369.813 340.941,368.98 342.5,368C 339.722,364.767 336.722,364.267 333.5,366.5C 330.869,364.995 331.203,364.329 334.5,364.5C 334.5,363.5 334.5,362.5 334.5,361.5C 342.463,354.704 349.963,347.371 357,339.5C 363.587,331.322 369.42,322.656 374.5,313.5C 376.942,313.646 377.609,312.813 376.5,311C 377.967,309.902 378.801,308.402 379,306.5C 380.076,308.067 380.909,309.734 381.5,311.5C 380.311,314.043 378.978,316.543 377.5,319C 379.193,321.952 381.026,322.118 383,319.5C 384.333,319.5 385.667,319.5 387,319.5C 388.023,320.6 388.523,321.933 388.5,323.5C 388.396,327.286 387.729,327.286 386.5,323.5C 385.269,324.651 385.269,325.817 386.5,327C 385.376,327.249 384.376,327.749 383.5,328.5C 384.428,329.768 384.595,331.101 384,332.5C 383.667,332.167 383.333,331.833 383,331.5C 382.021,334.625 380.187,337.125 377.5,339C 378.022,339.561 378.355,340.228 378.5,341C 376.855,342.645 375.188,344.312 373.5,346C 374.252,346.671 374.586,347.504 374.5,348.5 Z"/></g>
<g><path style="opacity:0.996" fill="#b0c3f4" d="M 372.5,351.5 C 365.777,360.523 357.777,368.19 348.5,374.5C 348.5,373.5 348.5,372.5 348.5,371.5C 349.5,371.5 350.5,371.5 351.5,371.5C 352.751,369.086 354.251,366.753 356,364.5C 357.067,363.809 358.234,363.309 359.5,363C 359.167,362.667 358.833,362.333 358.5,362C 359.448,361.517 360.448,361.351 361.5,361.5C 361.227,359.549 361.893,358.049 363.5,357C 363.043,356.586 362.709,356.086 362.5,355.5C 364.216,355.003 365.883,354.669 367.5,354.5C 368.386,353.675 368.719,352.675 368.5,351.5C 369.833,351.5 371.167,351.5 372.5,351.5 Z"/></g>
<g><path style="opacity:1" fill="#f3cae8" d="M 121.5,344.5 C 123.012,346.317 125.012,347.317 127.5,347.5C 127.5,348.833 127.5,350.167 127.5,351.5C 129.167,351.5 130.833,351.5 132.5,351.5C 132.343,352.873 132.51,354.207 133,355.5C 137.425,355.899 138.925,358.066 137.5,362C 139.522,365.534 142.522,367.034 146.5,366.5C 147.095,362.72 147.095,359.387 146.5,356.5C 147.086,356.291 147.586,355.957 148,355.5C 149.997,356.672 151.83,358.005 153.5,359.5C 154.737,359.444 155.737,358.944 156.5,358C 152.224,355.28 149.558,351.447 148.5,346.5C 158.351,356.691 169.351,365.358 181.5,372.5C 177.934,372.051 174.934,370.551 172.5,368C 169.28,366.648 165.947,365.814 162.5,365.5C 161.382,370.812 158.549,372.145 154,369.5C 152.629,370.581 151.129,371.415 149.5,372C 153.417,372.769 156.084,375.102 157.5,379C 159.433,379.251 161.266,379.751 163,380.5C 163.333,380.167 163.667,379.833 164,379.5C 165.35,383.524 168.016,384.524 172,382.5C 172.423,385.133 173.59,387.299 175.5,389C 179.388,389.581 183.054,389.248 186.5,388C 186.167,388.333 185.833,388.667 185.5,389C 186.308,389.308 186.975,389.808 187.5,390.5C 186.088,391.806 184.421,392.64 182.5,393C 183.571,393.852 184.571,394.685 185.5,395.5C 159.231,384.698 137.898,367.698 121.5,344.5 Z"/></g>
<g><path style="opacity:1" fill="#d3e0fa" d="M 334.5,361.5 C 334.5,362.5 334.5,363.5 334.5,364.5C 331.203,364.329 330.869,364.995 333.5,366.5C 336.722,364.267 339.722,364.767 342.5,368C 340.941,368.98 339.274,369.813 337.5,370.5C 338.988,372.577 340.988,373.577 343.5,373.5C 342.874,369.805 343.874,368.971 346.5,371C 343.806,373.552 344.473,374.719 348.5,374.5C 340.689,381.914 331.689,387.58 321.5,391.5C 317.929,392.642 314.262,393.309 310.5,393.5C 310.5,394.5 310.5,395.5 310.5,396.5C 303.991,397.295 298.491,398.962 294,401.5C 293.275,400.941 292.442,400.608 291.5,400.5C 289.733,402.282 287.733,403.615 285.5,404.5C 280.732,406.069 275.732,407.235 270.5,408C 256.169,409.945 241.835,409.945 227.5,408C 219.76,407.286 212.427,405.453 205.5,402.5C 208.421,401.806 211.421,400.973 214.5,400C 208.31,397.976 208.31,395.642 214.5,393C 216.213,391.622 217.547,389.955 218.5,388C 219.448,387.517 220.448,387.351 221.5,387.5C 262.923,394.089 300.59,385.422 334.5,361.5 Z"/></g>
<g><path style="opacity:1" fill="#f1def4" d="M 181.5,372.5 C 194.51,378.685 207.844,383.685 221.5,387.5C 220.448,387.351 219.448,387.517 218.5,388C 217.547,389.955 216.213,391.622 214.5,393C 208.31,395.642 208.31,397.976 214.5,400C 211.421,400.973 208.421,401.806 205.5,402.5C 198.335,401.335 191.669,399.002 185.5,395.5C 184.571,394.685 183.571,393.852 182.5,393C 184.421,392.64 186.088,391.806 187.5,390.5C 186.975,389.808 186.308,389.308 185.5,389C 185.833,388.667 186.167,388.333 186.5,388C 183.054,389.248 179.388,389.581 175.5,389C 173.59,387.299 172.423,385.133 172,382.5C 168.016,384.524 165.35,383.524 164,379.5C 163.667,379.833 163.333,380.167 163,380.5C 161.266,379.751 159.433,379.251 157.5,379C 156.084,375.102 153.417,372.769 149.5,372C 151.129,371.415 152.629,370.581 154,369.5C 158.549,372.145 161.382,370.812 162.5,365.5C 165.947,365.814 169.28,366.648 172.5,368C 174.934,370.551 177.934,372.051 181.5,372.5 Z"/></g>
<g><path style="opacity:0.878" fill="#a1b8eb" d="M 321.5,391.5 C 310.498,398.171 298.498,402.504 285.5,404.5C 287.733,403.615 289.733,402.282 291.5,400.5C 292.442,400.608 293.275,400.941 294,401.5C 298.491,398.962 303.991,397.295 310.5,396.5C 310.5,395.5 310.5,394.5 310.5,393.5C 314.262,393.309 317.929,392.642 321.5,391.5 Z"/></g>
</svg>
