<?xml version="1.0" encoding="UTF-8"?>
<!DOCTYPE svg PUBLIC "-//W3C//DTD SVG 1.1//EN" "http://www.w3.org/Graphics/SVG/1.1/DTD/svg11.dtd">
<svg xmlns="http://www.w3.org/2000/svg" version="1.1" width="500px" height="500px" style="shape-rendering:geometricPrecision; text-rendering:geometricPrecision; image-rendering:optimizeQuality; fill-rule:evenodd; clip-rule:evenodd" xmlns:xlink="http://www.w3.org/1999/xlink">
<g><path style="opacity:0.124" fill="#1159de" d="M 120.5,55.5 C 130.265,56.1432 139.932,56.8098 149.5,57.5C 139.442,58.14 129.775,57.4733 120.5,55.5 Z"/></g>
<g><path style="opacity:1" fill="#0d92e7" d="M 118.5,55.5 C 119.167,55.5 119.833,55.5 120.5,55.5C 129.775,57.4733 139.442,58.14 149.5,57.5C 218.833,57.5 288.167,57.5 357.5,57.5C 326.338,58.4982 295.004,58.8315 263.5,58.5C 211.832,58.3333 160.166,58.5 108.5,59C 99.8572,59.4289 92.1905,60.9289 85.5,63.5C 88.3968,61.2217 91.7301,59.7217 95.5,59C 102.782,57.8655 110.115,57.1988 117.5,57C 118.056,56.6174 118.389,56.1174 118.5,55.5 Z"/></g>
<g><path style="opacity:0.729" fill="#17a6f5" d="M 357.5,57.5 C 358.167,57.5 358.833,57.5 359.5,57.5C 359.833,58.1667 360.167,58.8333 360.5,59.5C 327.996,59.8316 295.662,59.4982 263.5,58.5C 295.004,58.8315 326.338,58.4982 357.5,57.5 Z"/></g>
<g><path style="opacity:0.528" fill="#0f74db" d="M 359.5,57.5 C 373.029,57.3336 386.362,58.0002 399.5,59.5C 386.5,59.5 373.5,59.5 360.5,59.5C 360.167,58.8333 359.833,58.1667 359.5,57.5 Z"/></g>
<g><path style="opacity:1" fill="#18e3fd" d="M 269.5,60.5 C 260.018,61.7018 250.351,62.5351 240.5,63C 241.328,63.9147 242.328,64.5814 243.5,65C 246.553,65.1786 249.553,65.6786 252.5,66.5C 221.507,67.4998 190.507,67.8332 159.5,67.5C 148.833,67.5 138.167,67.5 127.5,67.5C 124.5,67.5 121.5,67.5 118.5,67.5C 116.774,65.1799 116.107,62.5133 116.5,59.5C 167.512,59.2084 218.512,59.5418 269.5,60.5 Z"/></g>
<g><path style="opacity:1" fill="#19cafc" d="M 263.5,58.5 C 295.662,59.4982 327.996,59.8316 360.5,59.5C 373.5,59.5 386.5,59.5 399.5,59.5C 400.448,60.9779 401.781,61.9779 403.5,62.5C 399.298,62.8168 395.298,62.4834 391.5,61.5C 351.003,60.5014 310.337,60.1681 269.5,60.5C 218.512,59.5418 167.512,59.2084 116.5,59.5C 116.107,62.5133 116.774,65.1799 118.5,67.5C 110.447,67.2252 102.447,67.7252 94.5,69C 86.9882,72.6796 81.3215,78.1796 77.5,85.5C 78.7855,80.7335 80.2855,76.0668 82,71.5C 83.6804,72.6034 85.1804,72.2701 86.5,70.5C 85.2178,67.8674 83.8844,67.8674 82.5,70.5C 81.1877,69.5396 79.8544,69.7063 78.5,71C 74.3053,75.2247 72.1387,80.3914 72,86.5C 70.2518,88.401 68.7518,90.401 67.5,92.5C 68.3308,87.183 69.9975,82.183 72.5,77.5C 75.4259,71.5724 79.7592,66.9057 85.5,63.5C 92.1905,60.9289 99.8572,59.4289 108.5,59C 160.166,58.5 211.832,58.3333 263.5,58.5 Z"/></g>
<g><path style="opacity:1" fill="#75e2fc" d="M 391.5,61.5 C 395.298,62.4834 399.298,62.8168 403.5,62.5C 407.287,63.7113 410.954,65.378 414.5,67.5C 417.519,71.3532 421.019,74.6865 425,77.5C 426.845,79.8668 428.011,82.5335 428.5,85.5C 427.143,84.4097 426.143,83.0764 425.5,81.5C 423.756,79.1126 421.422,77.446 418.5,76.5C 418.167,77.3333 417.833,78.1667 417.5,79C 419.143,83.7006 420.477,88.534 421.5,93.5C 417.531,84.6925 411.531,77.5259 403.5,72C 402.207,71.51 400.873,71.3433 399.5,71.5C 399.158,70.6618 398.492,70.3284 397.5,70.5C 396.5,69.8333 395.5,69.1667 394.5,68.5C 393.391,67.71 392.058,67.21 390.5,67C 358.158,66.7156 325.825,66.0489 293.5,65C 291.167,64.6667 288.833,64.3333 286.5,64C 302.464,62.6342 318.464,62.1342 334.5,62.5C 353.424,61.5133 372.424,61.18 391.5,61.5 Z"/></g>
<g><path style="opacity:1" fill="#4ce1fd" d="M 269.5,60.5 C 310.337,60.1681 351.003,60.5014 391.5,61.5C 372.424,61.18 353.424,61.5133 334.5,62.5C 309.988,61.2421 285.321,61.4088 260.5,63C 265.037,64.7571 269.704,66.0905 274.5,67C 288.339,67.1689 302.006,67.6689 315.5,68.5C 290.167,68.5 264.833,68.5 239.5,68.5C 212.661,68.8312 185.995,68.4979 159.5,67.5C 190.507,67.8332 221.507,67.4998 252.5,66.5C 249.553,65.6786 246.553,65.1786 243.5,65C 242.328,64.5814 241.328,63.9147 240.5,63C 250.351,62.5351 260.018,61.7018 269.5,60.5 Z"/></g>
<g><path style="opacity:1" fill="#65e7fd" d="M 334.5,62.5 C 318.464,62.1342 302.464,62.6342 286.5,64C 288.833,64.3333 291.167,64.6667 293.5,65C 325.825,66.0489 358.158,66.7156 390.5,67C 392.058,67.21 393.391,67.71 394.5,68.5C 368.167,68.5 341.833,68.5 315.5,68.5C 302.006,67.6689 288.339,67.1689 274.5,67C 269.704,66.0905 265.037,64.7571 260.5,63C 285.321,61.4088 309.988,61.2421 334.5,62.5 Z"/></g>
<g><path style="opacity:1" fill="#2abff4" d="M 239.5,68.5 C 264.833,68.5 290.167,68.5 315.5,68.5C 341.833,68.5 368.167,68.5 394.5,68.5C 395.5,69.1667 396.5,69.8333 397.5,70.5C 344.683,69.8551 292.016,69.1884 239.5,68.5 Z"/></g>
<g><path style="opacity:0.396" fill="#0c63c7" d="M 118.5,67.5 C 121.5,67.5 124.5,67.5 127.5,67.5C 163.157,68.8946 198.823,69.8946 234.5,70.5C 189.499,70.3333 144.499,70.5 99.5,71C 88.6932,73.8068 81.8599,80.6401 79,91.5C 77.9477,98.1276 77.4477,104.794 77.5,111.5C 77.1667,111.5 76.8333,111.5 76.5,111.5C 76.5,105.167 76.5,98.8333 76.5,92.5C 76.6741,90.139 77.0074,87.8056 77.5,85.5C 81.3215,78.1796 86.9882,72.6796 94.5,69C 102.447,67.7252 110.447,67.2252 118.5,67.5 Z"/></g>
<g><path style="opacity:0.474" fill="#188fe5" d="M 127.5,67.5 C 138.167,67.5 148.833,67.5 159.5,67.5C 185.995,68.4979 212.661,68.8312 239.5,68.5C 292.016,69.1884 344.683,69.8551 397.5,70.5C 398.492,70.3284 399.158,70.6618 399.5,71.5C 396.5,71.5 393.5,71.5 390.5,71.5C 338.502,70.9167 286.502,70.5834 234.5,70.5C 198.823,69.8946 163.157,68.8946 127.5,67.5 Z"/></g>
<g><path style="opacity:0.843" fill="#0b66cf" d="M 118.5,55.5 C 118.389,56.1174 118.056,56.6174 117.5,57C 110.115,57.1988 102.782,57.8655 95.5,59C 91.7301,59.7217 88.3968,61.2217 85.5,63.5C 79.7592,66.9057 75.4259,71.5724 72.5,77.5C 70.8267,78.343 69.66,79.6763 69,81.5C 67.1729,85.2815 66.1729,89.2815 66,93.5C 65.5,115.164 65.3334,136.831 65.5,158.5C 65.1667,158.5 64.8333,158.5 64.5,158.5C 63.8148,137.835 63.6482,117.169 64,96.5C 65.5698,73.9339 77.4031,60.4339 99.5,56C 105.825,55.5005 112.158,55.3338 118.5,55.5 Z"/></g>
<g><path style="opacity:1" fill="#13d2fd" d="M 77.5,85.5 C 77.0074,87.8056 76.6741,90.139 76.5,92.5C 75.667,173.332 75.167,254.332 75,335.5C 74.8299,345.009 74.3299,354.342 73.5,363.5C 73.4652,288.58 73.2985,213.58 73,138.5C 72.6667,128.833 72.3333,119.167 72,109.5C 71.6667,109.833 71.3333,110.167 71,110.5C 70.7935,107.377 70.1268,104.377 69,101.5C 67.3883,180.007 67.055,258.674 68,337.5C 68.1676,348.515 68.6676,359.515 69.5,370.5C 70.2876,369.23 71.2876,368.23 72.5,367.5C 72.5,368.167 72.5,368.833 72.5,369.5C 71.2801,371.284 71.2801,372.95 72.5,374.5C 73.3007,376.042 73.634,377.708 73.5,379.5C 72.596,378.791 72.2627,377.791 72.5,376.5C 67.2527,376.64 66.2527,378.806 69.5,383C 68.7069,384.085 68.0402,385.252 67.5,386.5C 69.3672,389.754 71.7005,392.587 74.5,395C 73.944,395.383 73.6107,395.883 73.5,396.5C 68.4631,392.781 65.4631,387.781 64.5,381.5C 65.0585,378.715 66.3918,376.382 68.5,374.5C 67.8728,373.583 67.5394,372.583 67.5,371.5C 66.1691,278.493 66.1691,185.493 67.5,92.5C 68.7518,90.401 70.2518,88.401 72,86.5C 72.1387,80.3914 74.3053,75.2247 78.5,71C 79.8544,69.7063 81.1877,69.5396 82.5,70.5C 83.8844,67.8674 85.2178,67.8674 86.5,70.5C 85.1804,72.2701 83.6804,72.6034 82,71.5C 80.2855,76.0668 78.7855,80.7335 77.5,85.5 Z"/></g>
<g><path style="opacity:1" fill="#76e4fd" d="M 425.5,81.5 C 425.316,85.0794 425.983,88.4127 427.5,91.5C 427.19,92.7383 426.69,92.7383 426,91.5C 425.302,98.9253 425.802,106.259 427.5,113.5C 426.884,118.151 426.218,122.818 425.5,127.5C 424.914,127.709 424.414,128.043 424,128.5C 423.833,175.002 423.333,221.335 422.5,267.5C 422.832,210.998 422.499,154.664 421.5,98.5C 421.5,96.8333 421.5,95.1667 421.5,93.5C 420.477,88.534 419.143,83.7006 417.5,79C 417.833,78.1667 418.167,77.3333 418.5,76.5C 421.422,77.446 423.756,79.1126 425.5,81.5 Z"/></g>
<g><path style="opacity:0.461" fill="#0c66cc" d="M 390.5,71.5 C 393.5,71.5 396.5,71.5 399.5,71.5C 400.873,71.3433 402.207,71.51 403.5,72C 411.531,77.5259 417.531,84.6925 421.5,93.5C 421.5,95.1667 421.5,96.8333 421.5,98.5C 422.151,114.536 421.484,130.202 419.5,145.5C 420.578,127.853 420.078,110.186 418,92.5C 413.202,79.5423 404.035,72.5423 390.5,71.5 Z"/></g>
<g><path style="opacity:1" fill="#90e6fd" d="M 427.5,91.5 C 428.324,95.3123 428.824,99.3123 429,103.5C 429.5,116.829 429.667,130.163 429.5,143.5C 428.673,139.637 427.839,135.637 427,131.5C 425.339,138.823 425.172,145.989 426.5,153C 425.862,158.152 425.362,163.319 425,168.5C 424.5,219.166 424.333,269.832 424.5,320.5C 424.5,322.833 424.5,325.167 424.5,327.5C 424.167,327.5 423.833,327.5 423.5,327.5C 423.83,307.993 423.497,288.659 422.5,269.5C 422.5,268.833 422.5,268.167 422.5,267.5C 423.333,221.335 423.833,175.002 424,128.5C 424.414,128.043 424.914,127.709 425.5,127.5C 426.218,122.818 426.884,118.151 427.5,113.5C 425.802,106.259 425.302,98.9253 426,91.5C 426.69,92.7383 427.19,92.7383 427.5,91.5 Z"/></g>
<g><path style="opacity:1" fill="#eef5f8" d="M 175.5,152.5 C 178.262,149.275 181.928,147.442 186.5,147C 187.861,145.416 188.528,143.582 188.5,141.5C 185.813,141.336 183.146,141.503 180.5,142C 176.378,143.96 172.045,145.293 167.5,146C 164.435,148.626 161.102,150.793 157.5,152.5C 160.209,149.825 162.876,147.158 165.5,144.5C 174.456,142.033 183.456,139.533 192.5,137C 199.536,135.236 206.536,135.236 213.5,137C 217.698,139.956 218.698,143.789 216.5,148.5C 208.189,147.501 199.856,147.335 191.5,148C 186.048,149.333 180.715,150.833 175.5,152.5 Z"/></g>
<g><path style="opacity:0.147" fill="#117fdb" d="M 399.5,59.5 C 406.305,60.0694 412.305,62.5694 417.5,67C 426.121,73.4092 431.287,81.9092 433,92.5C 433.5,145.166 433.667,197.832 433.5,250.5C 432.833,199.167 432.167,147.833 431.5,96.5C 431.5,92.5074 430.5,88.8407 428.5,85.5C 428.011,82.5335 426.845,79.8668 425,77.5C 421.019,74.6865 417.519,71.3532 414.5,67.5C 410.954,65.378 407.287,63.7113 403.5,62.5C 401.781,61.9779 400.448,60.9779 399.5,59.5 Z"/></g>
<g><path style="opacity:1" fill="#f4f6f7" d="M 292.5,135.5 C 300.763,136.974 308.93,138.974 317,141.5C 321.276,143.43 325.442,145.43 329.5,147.5C 329.987,148.473 330.487,149.473 331,150.5C 336.394,152.182 336.561,153.516 331.5,154.5C 331.5,155.5 331.5,156.5 331.5,157.5C 334.757,157.764 336.757,159.43 337.5,162.5C 336.167,162.5 334.833,162.5 333.5,162.5C 330.866,160.031 328.366,157.364 326,154.5C 326.734,151.041 325.734,150.707 323,153.5C 319.601,152.107 316.101,150.94 312.5,150C 302.126,148.322 291.793,146.489 281.5,144.5C 278.328,139.173 279.828,135.84 286,134.5C 288.099,135.287 290.266,135.62 292.5,135.5 Z"/></g>
<g><path style="opacity:1" fill="#9ec2dc" d="M 278.5,152.5 C 255.164,152.333 231.831,152.5 208.5,153C 207.944,153.383 207.611,153.883 207.5,154.5C 201.639,156.272 195.639,157.272 189.5,157.5C 195.279,155.213 201.279,153.213 207.5,151.5C 205.636,150.007 203.47,149.34 201,149.5C 183.301,150.109 168.468,156.776 156.5,169.5C 156.5,168.167 156.5,166.833 156.5,165.5C 157.5,165.5 158.5,165.5 159.5,165.5C 159.5,164.5 159.5,163.5 159.5,162.5C 160.5,162.5 161.5,162.5 162.5,162.5C 162.5,161.5 162.5,160.5 162.5,159.5C 166.994,157.42 171.328,155.087 175.5,152.5C 180.715,150.833 186.048,149.333 191.5,148C 199.856,147.335 208.189,147.501 216.5,148.5C 218.698,143.789 217.698,139.956 213.5,137C 206.536,135.236 199.536,135.236 192.5,137C 183.456,139.533 174.456,142.033 165.5,144.5C 169.561,141.3 174.228,139.133 179.5,138C 188.494,135.293 197.661,133.46 207,132.5C 218.622,133.883 221.789,139.716 216.5,150C 230.157,149.644 243.823,149.644 257.5,150C 264.744,150.048 271.744,150.882 278.5,152.5 Z"/></g>
<g><path style="opacity:1" fill="#c5ddee" d="M 290.5,132.5 C 290.782,133.778 291.449,134.778 292.5,135.5C 290.266,135.62 288.099,135.287 286,134.5C 279.828,135.84 278.328,139.173 281.5,144.5C 291.793,146.489 302.126,148.322 312.5,150C 316.101,150.94 319.601,152.107 323,153.5C 325.734,150.707 326.734,151.041 326,154.5C 328.366,157.364 330.866,160.031 333.5,162.5C 334.551,163.222 335.218,164.222 335.5,165.5C 334.833,165.5 334.167,165.5 333.5,165.5C 326.464,160.313 318.797,156.146 310.5,153C 300.272,150.462 289.938,148.462 279.5,147C 274.244,142.076 274.244,137.076 279.5,132C 283.358,131.19 287.024,131.357 290.5,132.5 Z"/></g>
<g><path style="opacity:0.965" fill="#94b6d6" d="M 281.5,152.5 C 287.563,153.191 293.229,154.858 298.5,157.5C 293.474,156.885 288.474,156.051 283.5,155C 282.619,154.292 281.953,153.458 281.5,152.5 Z"/></g>
<g><path style="opacity:1" fill="#f7f9fa" d="M 204.5,165.5 C 197.963,167.103 191.63,169.27 185.5,172C 181.5,174 177.5,176 173.5,178C 171.864,182.693 168.864,184.193 164.5,182.5C 160.715,179.05 160.549,175.383 164,171.5C 170.435,166.533 177.602,163.033 185.5,161C 186.731,159.595 188.064,158.429 189.5,157.5C 195.639,157.272 201.639,156.272 207.5,154.5C 225.802,153.373 244.135,153.206 262.5,154C 269.011,154.068 275.344,155.068 281.5,157C 278.183,157.498 274.85,157.665 271.5,157.5C 271.5,158.833 271.5,160.167 271.5,161.5C 252.489,160.048 233.489,160.215 214.5,162C 210.996,162.986 207.663,164.153 204.5,165.5 Z"/></g>
<g><path style="opacity:1" fill="#bfdbee" d="M 165.5,144.5 C 162.876,147.158 160.209,149.825 157.5,152.5C 157.489,154.017 156.823,155.184 155.5,156C 150.397,157.7 147.731,161.2 147.5,166.5C 144.405,166.626 142.572,168.293 142,171.5C 141.329,172.252 140.496,172.586 139.5,172.5C 139.629,170.784 139.962,169.117 140.5,167.5C 145.933,158.233 153.266,150.733 162.5,145C 163.448,144.517 164.448,144.351 165.5,144.5 Z"/></g>
<g><path style="opacity:1" fill="#e8f5f9" d="M 278.5,152.5 C 279.5,152.5 280.5,152.5 281.5,152.5C 281.953,153.458 282.619,154.292 283.5,155C 288.474,156.051 293.474,156.885 298.5,157.5C 300.378,158.532 302.045,159.866 303.5,161.5C 299.589,160.617 295.756,159.617 292,158.5C 289.109,158.26 286.609,159.093 284.5,161C 285.448,161.483 286.448,161.649 287.5,161.5C 287.238,162.978 287.571,164.311 288.5,165.5C 293.104,167.175 297.771,168.675 302.5,170C 303.056,170.383 303.389,170.883 303.5,171.5C 295.585,169.044 287.585,166.877 279.5,165C 260.731,162.455 242.064,161.955 223.5,163.5C 217.145,163.979 210.812,164.646 204.5,165.5C 207.663,164.153 210.996,162.986 214.5,162C 233.489,160.215 252.489,160.048 271.5,161.5C 271.5,160.167 271.5,158.833 271.5,157.5C 274.85,157.665 278.183,157.498 281.5,157C 275.344,155.068 269.011,154.068 262.5,154C 244.135,153.206 225.802,153.373 207.5,154.5C 207.611,153.883 207.944,153.383 208.5,153C 231.831,152.5 255.164,152.333 278.5,152.5 Z"/></g>
<g><path style="opacity:0.973" fill="#a5c7de" d="M 189.5,157.5 C 188.064,158.429 186.731,159.595 185.5,161C 177.602,163.033 170.435,166.533 164,171.5C 160.549,175.383 160.715,179.05 164.5,182.5C 163.167,182.167 161.833,181.833 160.5,181.5C 157.674,176.927 158.341,172.76 162.5,169C 170.781,163.571 179.781,159.738 189.5,157.5 Z"/></g>
<g><path style="opacity:0.827" fill="#8ab3d4" d="M 298.5,157.5 C 306.337,159.747 314.004,162.58 321.5,166C 329.071,168.498 331.571,173.331 329,180.5C 327.13,183.018 324.63,184.352 321.5,184.5C 300.977,172.219 278.643,165.552 254.5,164.5C 244.347,163.506 234.014,163.172 223.5,163.5C 242.064,161.955 260.731,162.455 279.5,165C 287.585,166.877 295.585,169.044 303.5,171.5C 308.74,174.13 313.74,177.296 318.5,181C 320.677,182.202 323.011,182.702 325.5,182.5C 325.955,180.633 326.622,178.8 327.5,177C 327.327,174.979 326.66,173.146 325.5,171.5C 318.625,167.061 311.291,163.727 303.5,161.5C 302.045,159.866 300.378,158.532 298.5,157.5 Z"/></g>
<g><path style="opacity:1" fill="#f7fafa" d="M 303.5,161.5 C 311.291,163.727 318.625,167.061 325.5,171.5C 326.66,173.146 327.327,174.979 327.5,177C 326.622,178.8 325.955,180.633 325.5,182.5C 323.011,182.702 320.677,182.202 318.5,181C 313.74,177.296 308.74,174.13 303.5,171.5C 303.389,170.883 303.056,170.383 302.5,170C 297.771,168.675 293.104,167.175 288.5,165.5C 287.571,164.311 287.238,162.978 287.5,161.5C 286.448,161.649 285.448,161.483 284.5,161C 286.609,159.093 289.109,158.26 292,158.5C 295.756,159.617 299.589,160.617 303.5,161.5 Z"/></g>
<g><path style="opacity:1" fill="#f1f5f7" d="M 175.5,152.5 C 171.328,155.087 166.994,157.42 162.5,159.5C 162.5,160.5 162.5,161.5 162.5,162.5C 161.5,162.5 160.5,162.5 159.5,162.5C 159.5,163.5 159.5,164.5 159.5,165.5C 158.5,165.5 157.5,165.5 156.5,165.5C 156.5,166.833 156.5,168.167 156.5,169.5C 155.18,171.817 153.514,173.817 151.5,175.5C 150.504,175.414 149.671,175.748 149,176.5C 147.603,179.354 146.103,182.02 144.5,184.5C 144.209,180.223 142.209,177.223 138.5,175.5C 138.557,174.391 138.89,173.391 139.5,172.5C 140.496,172.586 141.329,172.252 142,171.5C 142.572,168.293 144.405,166.626 147.5,166.5C 147.731,161.2 150.397,157.7 155.5,156C 156.823,155.184 157.489,154.017 157.5,152.5C 161.102,150.793 164.435,148.626 167.5,146C 172.045,145.293 176.378,143.96 180.5,142C 183.146,141.503 185.813,141.336 188.5,141.5C 188.528,143.582 187.861,145.416 186.5,147C 181.928,147.442 178.262,149.275 175.5,152.5 Z"/></g>
<g><path style="opacity:1" fill="#03e1fc" d="M 73.5,363.5 C 73.7678,365.099 73.4345,366.432 72.5,367.5C 71.2876,368.23 70.2876,369.23 69.5,370.5C 68.6676,359.515 68.1676,348.515 68,337.5C 67.055,258.674 67.3883,180.007 69,101.5C 70.1268,104.377 70.7935,107.377 71,110.5C 71.3333,110.167 71.6667,109.833 72,109.5C 72.3333,119.167 72.6667,128.833 73,138.5C 73.2985,213.58 73.4652,288.58 73.5,363.5 Z"/></g>
<g><path style="opacity:1" fill="#96eafd" d="M 429.5,170.5 C 429.667,254.167 429.5,337.834 429,421.5C 429.017,426.207 427.35,427.207 424,424.5C 423.5,392.168 423.333,359.835 423.5,327.5C 423.833,327.5 424.167,327.5 424.5,327.5C 424.333,357.835 424.5,388.168 425,418.5C 427.058,412.386 428.058,406.053 428,399.5C 428.5,371.169 428.667,342.835 428.5,314.5C 428.168,266.33 428.501,218.33 429.5,170.5 Z"/></g>
<g><path style="opacity:0.51" fill="#709dc2" d="M 223.5,163.5 C 234.014,163.172 244.347,163.506 254.5,164.5C 229.526,162.624 205.526,166.457 182.5,176C 177.462,179.181 172.462,182.348 167.5,185.5C 164.433,185.272 162.1,183.939 160.5,181.5C 161.833,181.833 163.167,182.167 164.5,182.5C 168.864,184.193 171.864,182.693 173.5,178C 177.5,176 181.5,174 185.5,172C 191.63,169.27 197.963,167.103 204.5,165.5C 210.812,164.646 217.145,163.979 223.5,163.5 Z"/></g>
<g><path style="opacity:0.718" fill="#91b6d5" d="M 333.5,165.5 C 334.167,165.5 334.833,165.5 335.5,165.5C 337.498,167.6 339.665,169.6 342,171.5C 352.27,188.275 358.104,206.608 359.5,226.5C 355.951,211.974 351.451,197.64 346,183.5C 342.812,176.814 338.646,170.814 333.5,165.5 Z"/></g>
<g><path style="opacity:1" fill="#f3f7f8" d="M 329.5,147.5 C 337.988,152.143 345.154,158.477 351,166.5C 355.392,173.377 358.892,180.71 361.5,188.5C 362.362,195.426 363.695,202.26 365.5,209C 365.294,210.366 364.96,211.699 364.5,213C 365.604,214.82 367.104,216.32 369,217.5C 369.19,223.416 369.69,229.249 370.5,235C 366.972,241.48 365.138,240.98 365,233.5C 363.681,235.25 363.181,237.25 363.5,239.5C 362.683,237.031 362.183,234.365 362,231.5C 361.392,229.934 360.558,228.6 359.5,227.5C 359.5,227.167 359.5,226.833 359.5,226.5C 358.104,206.608 352.27,188.275 342,171.5C 339.665,169.6 337.498,167.6 335.5,165.5C 335.218,164.222 334.551,163.222 333.5,162.5C 334.833,162.5 336.167,162.5 337.5,162.5C 336.757,159.43 334.757,157.764 331.5,157.5C 331.5,156.5 331.5,155.5 331.5,154.5C 336.561,153.516 336.394,152.182 331,150.5C 330.487,149.473 329.987,148.473 329.5,147.5 Z"/></g>
<g><path style="opacity:1" fill="#77e8fe" d="M 425.5,81.5 C 426.143,83.0764 427.143,84.4097 428.5,85.5C 430.5,88.8407 431.5,92.5074 431.5,96.5C 431.131,205.5 430.798,314.5 430.5,423.5C 429.076,425.515 428.41,427.848 428.5,430.5C 424.616,430.942 422.616,429.275 422.5,425.5C 422.5,373.5 422.5,321.5 422.5,269.5C 423.497,288.659 423.83,307.993 423.5,327.5C 423.333,359.835 423.5,392.168 424,424.5C 427.35,427.207 429.017,426.207 429,421.5C 429.5,337.834 429.667,254.167 429.5,170.5C 429.5,161.5 429.5,152.5 429.5,143.5C 429.667,130.163 429.5,116.829 429,103.5C 428.824,99.3123 428.324,95.3123 427.5,91.5C 425.983,88.4127 425.316,85.0794 425.5,81.5 Z"/></g>
<g><path style="opacity:1" fill="#f8f8f7" d="M 138.5,175.5 C 142.209,177.223 144.209,180.223 144.5,184.5C 142.421,188.328 140.588,192.328 139,196.5C 138.503,198.81 138.337,201.143 138.5,203.5C 137.288,204.23 136.288,205.23 135.5,206.5C 134.676,204.252 133.676,204.086 132.5,206C 135.119,207.856 135.952,210.356 135,213.5C 134.53,217.312 132.696,220.145 129.5,222C 131.698,223.878 131.864,226.045 130,228.5C 129.781,227.062 129.281,225.729 128.5,224.5C 128.167,224.667 127.833,224.833 127.5,225C 128.538,228.39 129.205,231.89 129.5,235.5C 127.088,244.725 125.255,254.058 124,263.5C 123.971,260.633 123.138,258.133 121.5,256C 122.147,250.22 122.814,244.387 123.5,238.5C 126.316,222.562 129.649,206.895 133.5,191.5C 134.833,191.5 136.167,191.5 137.5,191.5C 137.523,189.4 136.856,187.567 135.5,186C 137.078,183.032 137.745,179.865 137.5,176.5C 137.5,175.833 137.833,175.5 138.5,175.5 Z"/></g>
<g><path style="opacity:0.641" fill="#79a8ce" d="M 140.5,167.5 C 139.962,169.117 139.629,170.784 139.5,172.5C 138.89,173.391 138.557,174.391 138.5,175.5C 137.833,175.5 137.5,175.833 137.5,176.5C 133.445,186.217 129.945,196.217 127,206.5C 122.698,227.734 119.032,249.067 116,270.5C 113.647,283.768 117.48,294.768 127.5,303.5C 129.606,306.055 131.94,308.388 134.5,310.5C 140.694,315.194 147.028,319.694 153.5,324C 154.252,324.671 154.586,325.504 154.5,326.5C 141.144,319.221 129.311,309.888 119,298.5C 116.486,294.475 114.819,290.141 114,285.5C 113.335,277.464 113.669,269.464 115,261.5C 118.76,241.515 122.426,221.515 126,201.5C 128.739,189.117 133.573,177.783 140.5,167.5 Z"/></g>
<g><path style="opacity:0.794" fill="#0eadf6" d="M 72.5,77.5 C 69.9975,82.183 68.3308,87.183 67.5,92.5C 66.1691,185.493 66.1691,278.493 67.5,371.5C 66.8826,371.389 66.3826,371.056 66,370.5C 65.5,299.834 65.3333,229.167 65.5,158.5C 65.3334,136.831 65.5,115.164 66,93.5C 66.1729,89.2815 67.1729,85.2815 69,81.5C 69.66,79.6763 70.8267,78.343 72.5,77.5 Z"/></g>
<g><path style="opacity:0.616" fill="#88accb" d="M 151.5,175.5 C 146.982,185.551 143.149,195.884 140,206.5C 135.253,230.734 131.087,255.067 127.5,279.5C 127.697,284.557 129.53,288.89 133,292.5C 141.401,299.082 149.901,305.415 158.5,311.5C 154.396,311.116 150.729,309.616 147.5,307C 143.288,304.066 139.288,300.899 135.5,297.5C 128.85,293.836 125.516,288.17 125.5,280.5C 128.644,254.633 132.978,228.967 138.5,203.5C 138.337,201.143 138.503,198.81 139,196.5C 140.588,192.328 142.421,188.328 144.5,184.5C 146.103,182.02 147.603,179.354 149,176.5C 149.671,175.748 150.504,175.414 151.5,175.5 Z"/></g>
<g><path style="opacity:0.398" fill="#85b4d8" d="M 213.5,220.5 C 208.821,220.334 204.155,220.501 199.5,221C 196.688,222.549 193.688,223.382 190.5,223.5C 192.858,221.871 195.524,220.705 198.5,220C 203.684,219.184 208.684,219.35 213.5,220.5 Z"/></g>
<g><path style="opacity:0.933" fill="#94bbde" d="M 213.5,220.5 C 219.626,221.725 224.626,224.725 228.5,229.5C 224.015,227.093 219.348,224.926 214.5,223C 213.748,222.329 213.414,221.496 213.5,220.5 Z"/></g>
<g><path style="opacity:1" fill="#33adec" d="M 421.5,98.5 C 422.499,154.664 422.832,210.998 422.5,267.5C 422.5,268.167 422.5,268.833 422.5,269.5C 422.167,269.5 421.833,269.5 421.5,269.5C 422.161,228.82 421.494,188.486 419.5,148.5C 419.5,147.5 419.5,146.5 419.5,145.5C 421.484,130.202 422.151,114.536 421.5,98.5 Z"/></g>
<g><path style="opacity:1" fill="#8cb7dc" d="M 306.5,270.5 C 311.466,260.828 313.299,250.495 312,239.5C 311.74,237.382 310.74,235.716 309,234.5C 308.506,232.866 308.34,231.199 308.5,229.5C 306.901,229.768 305.568,229.434 304.5,228.5C 304.586,227.504 304.252,226.671 303.5,226C 299.167,223.667 294.833,221.333 290.5,219C 286.833,218.333 283.167,218.333 279.5,219C 275.572,220.802 271.572,222.302 267.5,223.5C 269.819,220.706 272.819,218.872 276.5,218C 293.494,214.307 305.661,220.141 313,235.5C 317.334,248.475 315.168,260.141 306.5,270.5 Z"/></g>
<g><path style="opacity:1" fill="#f2f7f8" d="M 191.5,238.5 C 190.427,244.115 190.26,249.782 191,255.5C 191.875,258.215 193.708,259.548 196.5,259.5C 197.057,264.049 199.557,267.049 204,268.5C 204.167,269.667 204.333,270.833 204.5,272C 203.24,274.753 202.24,277.587 201.5,280.5C 196.941,279.462 193.274,276.962 190.5,273C 189.255,272.209 187.922,271.709 186.5,271.5C 185.5,271.167 184.833,270.5 184.5,269.5C 182.979,264.784 181.145,260.117 179,255.5C 178.267,250.115 178.433,244.782 179.5,239.5C 181.415,235.81 184.082,232.643 187.5,230C 191.114,230.467 193.947,228.967 196,225.5C 197.011,226.337 198.178,226.67 199.5,226.5C 199.649,227.552 199.483,228.552 199,229.5C 194.41,230.911 191.91,233.911 191.5,238.5 Z"/></g>
<g><path style="opacity:1" fill="#edf4f7" d="M 213.5,220.5 C 213.414,221.496 213.748,222.329 214.5,223C 219.348,224.926 224.015,227.093 228.5,229.5C 229.256,234.416 230.756,239.083 233,243.5C 233.499,247.486 233.666,251.486 233.5,255.5C 232.5,255.5 231.5,255.5 230.5,255.5C 229.111,262.534 226.778,269.201 223.5,275.5C 217.603,277.769 212.436,276.769 208,272.5C 207.056,269.653 207.556,267.153 209.5,265C 212.101,264.08 214.768,263.413 217.5,263C 224.092,255.709 225.259,247.543 221,238.5C 214.596,231.856 206.762,229.69 197.5,232C 195.208,234.116 193.208,236.282 191.5,238.5C 191.91,233.911 194.41,230.911 199,229.5C 199.483,228.552 199.649,227.552 199.5,226.5C 198.178,226.67 197.011,226.337 196,225.5C 193.947,228.967 191.114,230.467 187.5,230C 184.082,232.643 181.415,235.81 179.5,239.5C 179.517,237.435 179.85,235.435 180.5,233.5C 182.167,228.5 185.5,225.167 190.5,223.5C 193.688,223.382 196.688,222.549 199.5,221C 204.155,220.501 208.821,220.334 213.5,220.5 Z"/></g>
<g><path style="opacity:1" fill="#f1f6f7" d="M 304.5,228.5 C 305.568,229.434 306.901,229.768 308.5,229.5C 308.34,231.199 308.506,232.866 309,234.5C 310.74,235.716 311.74,237.382 312,239.5C 313.299,250.495 311.466,260.828 306.5,270.5C 305.833,270.5 305.5,270.833 305.5,271.5C 302.722,272.389 300.055,273.555 297.5,275C 293.11,275.772 288.777,275.606 284.5,274.5C 281.051,271.926 280.718,269.092 283.5,266C 290.971,267.224 296.638,264.724 300.5,258.5C 301.75,258.423 302.583,257.756 303,256.5C 304.574,251.354 304.74,246.188 303.5,241C 306.313,238.12 305.646,236.62 301.5,236.5C 300.833,234.181 300.666,231.847 301,229.5C 302.011,228.663 303.178,228.33 304.5,228.5 Z"/></g>
<g><path style="opacity:0.678" fill="#97b6da" d="M 228.5,229.5 C 234.877,237.343 237.043,246.343 235,256.5C 233.279,260.943 231.279,265.276 229,269.5C 227.618,272.043 225.785,274.043 223.5,275.5C 226.778,269.201 229.111,262.534 230.5,255.5C 231.5,255.5 232.5,255.5 233.5,255.5C 233.666,251.486 233.499,247.486 233,243.5C 230.756,239.083 229.256,234.416 228.5,229.5 Z"/></g>
<g><path style="opacity:0.596" fill="#95bfda" d="M 300.5,258.5 C 296.638,264.724 290.971,267.224 283.5,266C 280.718,269.092 281.051,271.926 284.5,274.5C 288.777,275.606 293.11,275.772 297.5,275C 300.055,273.555 302.722,272.389 305.5,271.5C 301.181,276.343 295.681,279.01 289,279.5C 285.416,278.875 282.416,277.208 280,274.5C 279.617,275.056 279.117,275.389 278.5,275.5C 279.826,272.999 280.326,270.332 280,267.5C 268.998,260.172 265.332,250.172 269,237.5C 271.397,235.218 274.231,233.884 277.5,233.5C 277.281,232.325 277.614,231.325 278.5,230.5C 285.177,227.385 291.344,228.052 297,232.5C 302.761,240.581 303.928,249.248 300.5,258.5 Z M 277.5,233.5 C 295.127,229.29 302.294,236.29 299,254.5C 296.533,261.304 291.699,264.47 284.5,264C 283.069,264.465 281.903,265.299 281,266.5C 277.176,262.186 273.843,257.519 271,252.5C 269.205,244.767 271.372,238.433 277.5,233.5 Z"/></g>
<g><path style="opacity:1" fill="#f1f7fa" d="M 361.5,188.5 C 364.996,197.499 367.829,206.832 370,216.5C 372.561,233.618 375.228,250.618 378,267.5C 378.788,274.556 378.455,281.556 377,288.5C 374.798,293.563 372.631,298.563 370.5,303.5C 369.5,303.5 368.5,303.5 367.5,303.5C 366.778,303.918 366.278,304.584 366,305.5C 363.19,298.957 361.356,299.457 360.5,307C 361.167,307.333 361.833,307.667 362.5,308C 361.056,308.781 359.723,308.614 358.5,307.5C 359.506,306.604 359.506,305.938 358.5,305.5C 356.929,306.309 355.262,306.643 353.5,306.5C 353.5,305.5 353.5,304.5 353.5,303.5C 356.416,301.432 359.249,299.099 362,296.5C 363.795,292.317 365.795,288.317 368,284.5C 368.667,278.5 368.667,272.5 368,266.5C 366.36,257.516 364.86,248.516 363.5,239.5C 363.181,237.25 363.681,235.25 365,233.5C 365.138,240.98 366.972,241.48 370.5,235C 369.69,229.249 369.19,223.416 369,217.5C 367.104,216.32 365.604,214.82 364.5,213C 364.96,211.699 365.294,210.366 365.5,209C 363.695,202.26 362.362,195.426 361.5,188.5 Z"/></g>
<g><path style="opacity:1" fill="#ebf3f7" d="M 304.5,228.5 C 303.178,228.33 302.011,228.663 301,229.5C 300.666,231.847 300.833,234.181 301.5,236.5C 305.646,236.62 306.313,238.12 303.5,241C 304.74,246.188 304.574,251.354 303,256.5C 302.583,257.756 301.75,258.423 300.5,258.5C 303.928,249.248 302.761,240.581 297,232.5C 291.344,228.052 285.177,227.385 278.5,230.5C 277.614,231.325 277.281,232.325 277.5,233.5C 274.231,233.884 271.397,235.218 269,237.5C 265.332,250.172 268.998,260.172 280,267.5C 280.326,270.332 279.826,272.999 278.5,275.5C 278.027,276.906 277.027,277.573 275.5,277.5C 273.208,277.756 271.041,277.423 269,276.5C 266.113,271.732 263.447,266.732 261,261.5C 257.892,253.476 256.725,245.143 257.5,236.5C 259.396,230.952 262.729,226.619 267.5,223.5C 271.572,222.302 275.572,220.802 279.5,219C 283.167,218.333 286.833,218.333 290.5,219C 294.833,221.333 299.167,223.667 303.5,226C 304.252,226.671 304.586,227.504 304.5,228.5 Z"/></g>
<g><path style="opacity:0.737" fill="#95bce0" d="M 180.5,233.5 C 179.85,235.435 179.517,237.435 179.5,239.5C 178.433,244.782 178.267,250.115 179,255.5C 181.145,260.117 182.979,264.784 184.5,269.5C 176.941,261.304 174.441,251.637 177,240.5C 177.522,237.719 178.689,235.385 180.5,233.5 Z"/></g>
<g><path style="opacity:1" fill="#edf6fa" d="M 137.5,176.5 C 137.745,179.865 137.078,183.032 135.5,186C 136.856,187.567 137.523,189.4 137.5,191.5C 136.167,191.5 134.833,191.5 133.5,191.5C 129.649,206.895 126.316,222.562 123.5,238.5C 122.814,244.387 122.147,250.22 121.5,256C 123.138,258.133 123.971,260.633 124,263.5C 125.255,254.058 127.088,244.725 129.5,235.5C 129.205,231.89 128.538,228.39 127.5,225C 127.833,224.833 128.167,224.667 128.5,224.5C 129.281,225.729 129.781,227.062 130,228.5C 131.864,226.045 131.698,223.878 129.5,222C 132.696,220.145 134.53,217.312 135,213.5C 135.952,210.356 135.119,207.856 132.5,206C 133.676,204.086 134.676,204.252 135.5,206.5C 136.288,205.23 137.288,204.23 138.5,203.5C 132.978,228.967 128.644,254.633 125.5,280.5C 125.516,288.17 128.85,293.836 135.5,297.5C 131.44,296.945 128.273,294.945 126,291.5C 124.844,292.993 124.01,292.826 123.5,291C 123.836,283.918 124.002,276.751 124,269.5C 123.692,270.308 123.192,270.975 122.5,271.5C 121.895,268.696 121.062,266.029 120,263.5C 119.085,264.328 118.419,265.328 118,266.5C 115.946,278.305 118.113,288.972 124.5,298.5C 125.167,297.833 125.833,297.167 126.5,296.5C 127.474,298.743 127.808,301.076 127.5,303.5C 117.48,294.768 113.647,283.768 116,270.5C 119.032,249.067 122.698,227.734 127,206.5C 129.945,196.217 133.445,186.217 137.5,176.5 Z"/></g>
<g><path style="opacity:0.875" fill="#81a7c8" d="M 257.5,236.5 C 256.725,245.143 257.892,253.476 261,261.5C 263.447,266.732 266.113,271.732 269,276.5C 271.041,277.423 273.208,277.756 275.5,277.5C 274.626,278.525 273.459,279.192 272,279.5C 269.121,278.624 266.787,276.958 265,274.5C 259.682,266.031 256.182,256.864 254.5,247C 255.449,243.355 256.449,239.855 257.5,236.5 Z"/></g>
<g><path style="opacity:0.9" fill="#9cbfd9" d="M 359.5,227.5 C 360.558,228.6 361.392,229.934 362,231.5C 362.183,234.365 362.683,237.031 363.5,239.5C 364.86,248.516 366.36,257.516 368,266.5C 368.667,272.5 368.667,278.5 368,284.5C 365.795,288.317 363.795,292.317 362,296.5C 359.249,299.099 356.416,301.432 353.5,303.5C 351.95,304.441 350.284,305.107 348.5,305.5C 352.771,301.731 356.938,297.731 361,293.5C 366.096,285.906 367.763,277.573 366,268.5C 363.507,254.879 361.34,241.213 359.5,227.5 Z"/></g>
<g><path style="opacity:0.447" fill="#77a1c4" d="M 179.5,283.5 C 173.994,284.622 169.66,282.956 166.5,278.5C 164.955,277.548 163.288,277.215 161.5,277.5C 161.866,276.305 162.699,275.639 164,275.5C 168.883,278.857 174.05,281.524 179.5,283.5 Z"/></g>
<g><path style="opacity:0.62" fill="#96bdd9" d="M 223.5,275.5 C 218.312,279.442 212.978,279.442 207.5,275.5C 206.547,280.952 203.381,284.286 198,285.5C 193.452,281.394 189.619,276.727 186.5,271.5C 187.922,271.709 189.255,272.209 190.5,273C 193.274,276.962 196.941,279.462 201.5,280.5C 202.24,277.587 203.24,274.753 204.5,272C 204.333,270.833 204.167,269.667 204,268.5C 199.557,267.049 197.057,264.049 196.5,259.5C 193.708,259.548 191.875,258.215 191,255.5C 190.26,249.782 190.427,244.115 191.5,238.5C 193.208,236.282 195.208,234.116 197.5,232C 206.762,229.69 214.596,231.856 221,238.5C 225.259,247.543 224.092,255.709 217.5,263C 214.768,263.413 212.101,264.08 209.5,265C 207.556,267.153 207.056,269.653 208,272.5C 212.436,276.769 217.603,277.769 223.5,275.5 Z M 196.5,259.5 C 190.052,251.225 190.385,243.391 197.5,236C 210.611,231.222 218.277,235.722 220.5,249.5C 220.242,256.878 216.576,261.378 209.5,263C 207.232,264.558 206.066,266.724 206,269.5C 203.332,265.666 200.165,262.333 196.5,259.5 Z"/></g>
<g><path style="opacity:1" fill="#8db9e0" d="M 290.5,132.5 C 298.478,134.379 306.478,136.212 314.5,138C 336.592,144.424 352.092,158.258 361,179.5C 365.189,189.548 368.523,199.882 371,210.5C 375.031,232.584 378.531,254.751 381.5,277C 381.057,289.227 376.39,299.393 367.5,307.5C 367.5,306.167 367.5,304.833 367.5,303.5C 368.5,303.5 369.5,303.5 370.5,303.5C 372.631,298.563 374.798,293.563 377,288.5C 378.455,281.556 378.788,274.556 378,267.5C 375.228,250.618 372.561,233.618 370,216.5C 367.829,206.832 364.996,197.499 361.5,188.5C 358.892,180.71 355.392,173.377 351,166.5C 345.154,158.477 337.988,152.143 329.5,147.5C 325.442,145.43 321.276,143.43 317,141.5C 308.93,138.974 300.763,136.974 292.5,135.5C 291.449,134.778 290.782,133.778 290.5,132.5 Z"/></g>
<g><path style="opacity:0.969" fill="#a3c3e1" d="M 329.5,284.5 C 322.829,286.837 316.162,289.17 309.5,291.5C 309.414,290.504 309.748,289.671 310.5,289C 314.012,287.628 317.345,285.962 320.5,284C 325.841,283.986 330.508,282.32 334.5,279C 332.351,269.215 327.018,267.048 318.5,272.5C 323.529,266.436 328.862,266.103 334.5,271.5C 337.731,277.814 336.065,282.148 329.5,284.5 Z"/></g>
<g><path style="opacity:1" fill="#f8f8f8" d="M 135.5,297.5 C 136.39,300.224 137.89,302.557 140,304.5C 141.073,303.72 142.24,303.887 143.5,305C 147.949,308.732 152.616,312.232 157.5,315.5C 156.277,316.614 154.944,316.781 153.5,316C 150.512,312.352 146.845,311.352 142.5,313C 139.989,310.157 137.156,307.657 134,305.5C 133.71,303.956 133.044,302.623 132,301.5C 130.89,303.037 129.39,303.703 127.5,303.5C 127.808,301.076 127.474,298.743 126.5,296.5C 125.833,297.167 125.167,297.833 124.5,298.5C 118.113,288.972 115.946,278.305 118,266.5C 118.419,265.328 119.085,264.328 120,263.5C 121.062,266.029 121.895,268.696 122.5,271.5C 123.192,270.975 123.692,270.308 124,269.5C 124.002,276.751 123.836,283.918 123.5,291C 124.01,292.826 124.844,292.993 126,291.5C 128.273,294.945 131.44,296.945 135.5,297.5 Z"/></g>
<g><path style="opacity:1" fill="#f3f8fa" d="M 309.5,291.5 C 306.782,292.043 304.115,292.709 301.5,293.5C 299.787,292.365 299.12,290.698 299.5,288.5C 296.37,288.599 293.704,289.766 291.5,292C 288.854,292.497 286.187,292.664 283.5,292.5C 283.5,293.833 283.5,295.167 283.5,296.5C 282.247,297.152 278.247,297.152 271.5,296.5C 287.312,290.595 302.645,283.595 317.5,275.5C 318.386,274.675 318.719,273.675 318.5,272.5C 327.018,267.048 332.351,269.215 334.5,279C 330.508,282.32 325.841,283.986 320.5,284C 317.345,285.962 314.012,287.628 310.5,289C 309.748,289.671 309.414,290.504 309.5,291.5 Z"/></g>
<g><path style="opacity:1" fill="#47c8fb" d="M 421.5,269.5 C 421.833,269.5 422.167,269.5 422.5,269.5C 422.5,321.5 422.5,373.5 422.5,425.5C 422.828,430.875 422.495,436.208 421.5,441.5C 418.684,444.126 416.018,444.126 413.5,441.5C 416.272,441.78 418.772,441.113 421,439.5C 421.5,410.502 421.667,381.502 421.5,352.5C 421.5,324.833 421.5,297.167 421.5,269.5 Z"/></g>
<g><path style="opacity:1" fill="#f0f7f9" d="M 161.5,277.5 C 163.288,277.215 164.955,277.548 166.5,278.5C 169.66,282.956 173.994,284.622 179.5,283.5C 180.823,285.686 182.823,287.186 185.5,288C 195.079,291.211 204.746,293.711 214.5,295.5C 207.153,295.76 199.986,294.76 193,292.5C 191.108,289.61 190.275,289.944 190.5,293.5C 191.552,293.351 192.552,293.517 193.5,294C 191.947,295.097 190.614,296.43 189.5,298C 190.056,298.383 190.389,298.883 190.5,299.5C 180.225,298.019 170.558,294.852 161.5,290C 159.71,286.417 159.043,282.584 159.5,278.5C 159.842,277.662 160.508,277.328 161.5,277.5 Z"/></g>
<g><path style="opacity:0.949" fill="#8bafcc" d="M 318.5,272.5 C 318.719,273.675 318.386,274.675 317.5,275.5C 302.645,283.595 287.312,290.595 271.5,296.5C 252.424,299.496 233.424,299.163 214.5,295.5C 204.746,293.711 195.079,291.211 185.5,288C 182.823,287.186 180.823,285.686 179.5,283.5C 200.815,290.992 222.815,295.326 245.5,296.5C 263.741,296.085 281.075,291.919 297.5,284C 304.5,280.167 311.5,276.333 318.5,272.5 Z"/></g>
<g><path style="opacity:0.682" fill="#6889b5" d="M 329.5,284.5 C 322.45,288.408 315.117,291.741 307.5,294.5C 308.551,293.778 309.218,292.778 309.5,291.5C 316.162,289.17 322.829,286.837 329.5,284.5 Z"/></g>
<g><path style="opacity:0.607" fill="#1da2ed" d="M 76.5,92.5 C 76.5,98.8333 76.5,105.167 76.5,111.5C 76.6667,194.167 76.5,276.834 76,359.5C 75.6667,362.167 75.3333,364.833 75,367.5C 74.2917,368.381 73.4584,369.047 72.5,369.5C 72.5,368.833 72.5,368.167 72.5,367.5C 73.4345,366.432 73.7678,365.099 73.5,363.5C 74.3299,354.342 74.8299,345.009 75,335.5C 75.167,254.332 75.667,173.332 76.5,92.5 Z"/></g>
<g><path style="opacity:0.906" fill="#41bcfa" d="M 431.5,96.5 C 432.167,147.833 432.833,199.167 433.5,250.5C 432.179,309.489 432.179,368.489 433.5,427.5C 433.909,433.194 432.743,438.527 430,443.5C 428.549,445.464 426.716,446.797 424.5,447.5C 424.351,446.448 424.517,445.448 425,444.5C 427,443.167 428.667,441.5 430,439.5C 430.499,434.177 430.666,428.844 430.5,423.5C 430.798,314.5 431.131,205.5 431.5,96.5 Z"/></g>
<g><path style="opacity:1" fill="#f5f8fa" d="M 301.5,293.5 C 301.703,295.39 301.037,296.89 299.5,298C 300.428,298.388 301.095,299.055 301.5,300C 299.038,302.693 298.871,305.527 301,308.5C 308.471,317.115 317.971,320.448 329.5,318.5C 332.896,317.802 336.229,317.802 339.5,318.5C 340.216,317.689 341.05,317.022 342,316.5C 343.098,317.384 343.598,318.384 343.5,319.5C 344.532,317.96 345.865,317.46 347.5,318C 345.5,319.667 343.5,321.333 341.5,323C 335.881,323.277 330.381,324.11 325,325.5C 320.311,325.06 315.478,325.06 310.5,325.5C 305.611,324.911 301.444,322.911 298,319.5C 296.721,316.888 295.055,314.555 293,312.5C 292.174,309.207 291.674,305.874 291.5,302.5C 280.923,304.246 270.256,306.079 259.5,308C 254.667,308.167 249.833,308.333 245,308.5C 230.787,308.011 216.62,307.011 202.5,305.5C 202.747,308.939 202.414,312.272 201.5,315.5C 196.814,316.15 193.814,318.817 192.5,323.5C 191.808,322.975 191.308,322.308 191,321.5C 189.985,324.342 187.985,326.009 185,326.5C 181.962,326.164 179.128,325.331 176.5,324C 177.784,323.316 178.951,323.483 180,324.5C 180.617,323.551 180.451,322.718 179.5,322C 182.79,321.747 185.79,320.747 188.5,319C 190.439,318.092 191.439,316.592 191.5,314.5C 192.379,312.772 193.046,310.939 193.5,309C 193.156,307.635 192.489,306.468 191.5,305.5C 192.167,304.5 192.833,303.5 193.5,302.5C 192.23,301.712 191.23,300.712 190.5,299.5C 190.389,298.883 190.056,298.383 189.5,298C 190.614,296.43 191.947,295.097 193.5,294C 192.552,293.517 191.552,293.351 190.5,293.5C 190.275,289.944 191.108,289.61 193,292.5C 199.986,294.76 207.153,295.76 214.5,295.5C 233.424,299.163 252.424,299.496 271.5,296.5C 278.247,297.152 282.247,297.152 283.5,296.5C 283.5,295.167 283.5,293.833 283.5,292.5C 286.187,292.664 288.854,292.497 291.5,292C 293.704,289.766 296.37,288.599 299.5,288.5C 299.12,290.698 299.787,292.365 301.5,293.5 Z"/></g>
<g><path style="opacity:1" fill="#9cbcd7" d="M 309.5,291.5 C 309.218,292.778 308.551,293.778 307.5,294.5C 302.257,301.173 302.924,307.006 309.5,312C 317.509,315.806 325.842,316.473 334.5,314C 339.328,311.42 343.995,308.586 348.5,305.5C 348.719,306.675 348.386,307.675 347.5,308.5C 344.274,309.606 341.607,311.439 339.5,314C 336.054,315.509 332.72,317.009 329.5,318.5C 317.971,320.448 308.471,317.115 301,308.5C 298.871,305.527 299.038,302.693 301.5,300C 301.095,299.055 300.428,298.388 299.5,298C 301.037,296.89 301.703,295.39 301.5,293.5C 304.115,292.709 306.782,292.043 309.5,291.5 Z"/></g>
<g><path style="opacity:1" fill="#a1e5fc" d="M 429.5,143.5 C 429.5,152.5 429.5,161.5 429.5,170.5C 428.501,218.33 428.168,266.33 428.5,314.5C 427.698,315.952 427.198,317.618 427,319.5C 426.667,319.167 426.333,318.833 426,318.5C 425.722,319.416 425.222,320.082 424.5,320.5C 424.333,269.832 424.5,219.166 425,168.5C 425.362,163.319 425.862,158.152 426.5,153C 425.172,145.989 425.339,138.823 427,131.5C 427.839,135.637 428.673,139.637 429.5,143.5 Z"/></g>
<g><path style="opacity:0.62" fill="#8cb6da" d="M 310.5,325.5 C 312.019,326.41 313.685,327.243 315.5,328C 333.483,329.761 348.483,324.095 360.5,311C 361.448,310.517 362.448,310.351 363.5,310.5C 363.5,309.5 363.5,308.5 363.5,307.5C 364.833,307.5 366.167,307.5 367.5,307.5C 352.019,326.382 332.353,333.216 308.5,328C 297.384,324.388 290.717,316.888 288.5,305.5C 274.188,308.664 259.688,310.664 245,311.5C 231.044,310.475 217.211,308.975 203.5,307C 205.895,314.972 203.562,321.472 196.5,326.5C 187.721,331.137 178.387,332.637 168.5,331C 163.219,330.961 158.553,329.461 154.5,326.5C 164.302,329.072 174.302,329.905 184.5,329C 190.084,326.917 195.251,324.084 200,320.5C 201.009,318.975 201.509,317.308 201.5,315.5C 202.414,312.272 202.747,308.939 202.5,305.5C 216.62,307.011 230.787,308.011 245,308.5C 249.833,308.333 254.667,308.167 259.5,308C 270.256,306.079 280.923,304.246 291.5,302.5C 291.674,305.874 292.174,309.207 293,312.5C 295.055,314.555 296.721,316.888 298,319.5C 301.444,322.911 305.611,324.911 310.5,325.5 Z"/></g>
<g><path style="opacity:0.953" fill="#83aac8" d="M 159.5,278.5 C 159.043,282.584 159.71,286.417 161.5,290C 170.558,294.852 180.225,298.019 190.5,299.5C 191.23,300.712 192.23,301.712 193.5,302.5C 192.833,303.5 192.167,304.5 191.5,305.5C 192.489,306.468 193.156,307.635 193.5,309C 193.046,310.939 192.379,312.772 191.5,314.5C 181.308,320.987 170.975,321.154 160.5,315C 159.663,313.989 159.33,312.822 159.5,311.5C 166.438,316.197 174.105,317.697 182.5,316C 184.96,315.604 186.96,314.437 188.5,312.5C 189.598,309.247 190.264,305.914 190.5,302.5C 180.528,300.272 170.861,297.105 161.5,293C 157.741,289.257 156.574,284.757 158,279.5C 158.383,278.944 158.883,278.611 159.5,278.5 Z"/></g>
<g><path style="opacity:1" fill="#edf6f9" d="M 367.5,303.5 C 367.5,304.833 367.5,306.167 367.5,307.5C 366.167,307.5 364.833,307.5 363.5,307.5C 363.5,308.5 363.5,309.5 363.5,310.5C 362.448,310.351 361.448,310.517 360.5,311C 348.483,324.095 333.483,329.761 315.5,328C 313.685,327.243 312.019,326.41 310.5,325.5C 315.478,325.06 320.311,325.06 325,325.5C 330.381,324.11 335.881,323.277 341.5,323C 343.5,321.333 345.5,319.667 347.5,318C 345.865,317.46 344.532,317.96 343.5,319.5C 343.598,318.384 343.098,317.384 342,316.5C 341.05,317.022 340.216,317.689 339.5,318.5C 336.229,317.802 332.896,317.802 329.5,318.5C 332.72,317.009 336.054,315.509 339.5,314C 341.607,311.439 344.274,309.606 347.5,308.5C 348.386,307.675 348.719,306.675 348.5,305.5C 350.284,305.107 351.95,304.441 353.5,303.5C 353.5,304.5 353.5,305.5 353.5,306.5C 355.262,306.643 356.929,306.309 358.5,305.5C 359.506,305.938 359.506,306.604 358.5,307.5C 359.723,308.614 361.056,308.781 362.5,308C 361.833,307.667 361.167,307.333 360.5,307C 361.356,299.457 363.19,298.957 366,305.5C 366.278,304.584 366.778,303.918 367.5,303.5 Z"/></g>
<g><path style="opacity:0.652" fill="#0b6fce" d="M 419.5,148.5 C 421.494,188.486 422.161,228.82 421.5,269.5C 421.5,297.167 421.5,324.833 421.5,352.5C 420.833,341.167 420.167,329.833 419.5,318.5C 419.514,261.685 419.514,205.018 419.5,148.5 Z"/></g>
<g><path style="opacity:1" fill="#edf5f8" d="M 135.5,297.5 C 139.288,300.899 143.288,304.066 147.5,307C 150.729,309.616 154.396,311.116 158.5,311.5C 158.833,311.5 159.167,311.5 159.5,311.5C 159.33,312.822 159.663,313.989 160.5,315C 170.975,321.154 181.308,320.987 191.5,314.5C 191.439,316.592 190.439,318.092 188.5,319C 185.79,320.747 182.79,321.747 179.5,322C 180.451,322.718 180.617,323.551 180,324.5C 178.951,323.483 177.784,323.316 176.5,324C 179.128,325.331 181.962,326.164 185,326.5C 187.985,326.009 189.985,324.342 191,321.5C 191.308,322.308 191.808,322.975 192.5,323.5C 193.814,318.817 196.814,316.15 201.5,315.5C 201.509,317.308 201.009,318.975 200,320.5C 195.251,324.084 190.084,326.917 184.5,329C 174.302,329.905 164.302,329.072 154.5,326.5C 154.586,325.504 154.252,324.671 153.5,324C 147.028,319.694 140.694,315.194 134.5,310.5C 131.94,308.388 129.606,306.055 127.5,303.5C 129.39,303.703 130.89,303.037 132,301.5C 133.044,302.623 133.71,303.956 134,305.5C 137.156,307.657 139.989,310.157 142.5,313C 146.845,311.352 150.512,312.352 153.5,316C 154.944,316.781 156.277,316.614 157.5,315.5C 152.616,312.232 147.949,308.732 143.5,305C 142.24,303.887 141.073,303.72 140,304.5C 137.89,302.557 136.39,300.224 135.5,297.5 Z"/></g>
<g><path style="opacity:0.075" fill="#086ac2" d="M 76.5,111.5 C 76.8333,111.5 77.1667,111.5 77.5,111.5C 77.8305,197.571 77.4971,283.571 76.5,369.5C 73.7026,369.967 72.3692,371.633 72.5,374.5C 71.2801,372.95 71.2801,371.284 72.5,369.5C 73.4584,369.047 74.2917,368.381 75,367.5C 75.3333,364.833 75.6667,362.167 76,359.5C 76.5,276.834 76.6667,194.167 76.5,111.5 Z"/></g>
<g><path style="opacity:1" fill="#a4e6fb" d="M 428.5,314.5 C 428.667,342.835 428.5,371.169 428,399.5C 428.058,406.053 427.058,412.386 425,418.5C 424.5,388.168 424.333,357.835 424.5,327.5C 424.5,325.167 424.5,322.833 424.5,320.5C 425.222,320.082 425.722,319.416 426,318.5C 426.333,318.833 426.667,319.167 427,319.5C 427.198,317.618 427.698,315.952 428.5,314.5 Z"/></g>
<g><path style="opacity:1" fill="#6bdffc" d="M 326.5,370.5 C 329.271,370.421 331.937,370.921 334.5,372C 346.684,382.2 358.017,393.034 368.5,404.5C 366.527,403.513 364.527,402.513 362.5,401.5C 357.716,397.413 353.383,392.913 349.5,388C 347.655,386.872 345.655,386.372 343.5,386.5C 343.649,385.448 343.483,384.448 343,383.5C 339.695,382.028 337.195,379.695 335.5,376.5C 333.5,375.167 331.5,375.167 329.5,376.5C 331.223,380.391 334.056,383.057 338,384.5C 340.257,388.012 342.757,391.346 345.5,394.5C 348.879,395.85 351.879,397.683 354.5,400C 365.322,408.988 375.656,418.654 385.5,429C 389.619,431.29 393.286,434.124 396.5,437.5C 398.618,438.946 400.951,439.613 403.5,439.5C 402.617,437.09 401.45,434.757 400,432.5C 399.667,432.833 399.333,433.167 399,433.5C 397.743,431.254 395.91,429.921 393.5,429.5C 393.88,426.208 392.547,423.875 389.5,422.5C 386.112,424.139 384.112,423.139 383.5,419.5C 382.167,419.5 380.833,419.5 379.5,419.5C 379.785,417.712 379.452,416.045 378.5,414.5C 375.655,411.242 372.989,407.909 370.5,404.5C 373.971,405.633 375.971,407.967 376.5,411.5C 377.552,411.351 378.552,411.517 379.5,412C 382.48,414.651 385.147,417.651 387.5,421C 388.833,421.333 390.167,421.667 391.5,422C 397.192,427.305 402.525,432.805 407.5,438.5C 407.393,440.903 408.393,442.736 410.5,444C 409.975,444.692 409.308,445.192 408.5,445.5C 406.809,443.744 404.809,443.244 402.5,444C 403.056,444.383 403.389,444.883 403.5,445.5C 398.553,441.891 393.886,437.891 389.5,433.5C 386.135,432.968 383.802,431.134 382.5,428C 378.388,426.39 375.388,423.556 373.5,419.5C 368.205,415.54 363.205,411.207 358.5,406.5C 351.219,402.123 344.886,396.623 339.5,390C 334.491,387.161 329.824,383.827 325.5,380C 324.552,379.517 323.552,379.351 322.5,379.5C 322.34,377.801 322.506,376.134 323,374.5C 324.376,373.295 325.542,371.962 326.5,370.5 Z"/></g>
<g><path style="opacity:1" fill="#a5e8fc" d="M 368.5,404.5 C 369.167,404.5 369.833,404.5 370.5,404.5C 372.989,407.909 375.655,411.242 378.5,414.5C 379.452,416.045 379.785,417.712 379.5,419.5C 380.833,419.5 382.167,419.5 383.5,419.5C 384.112,423.139 386.112,424.139 389.5,422.5C 392.547,423.875 393.88,426.208 393.5,429.5C 395.91,429.921 397.743,431.254 399,433.5C 399.333,433.167 399.667,432.833 400,432.5C 401.45,434.757 402.617,437.09 403.5,439.5C 400.951,439.613 398.618,438.946 396.5,437.5C 393.286,434.124 389.619,431.29 385.5,429C 375.656,418.654 365.322,408.988 354.5,400C 351.879,397.683 348.879,395.85 345.5,394.5C 342.757,391.346 340.257,388.012 338,384.5C 334.056,383.057 331.223,380.391 329.5,376.5C 331.5,375.167 333.5,375.167 335.5,376.5C 337.195,379.695 339.695,382.028 343,383.5C 343.483,384.448 343.649,385.448 343.5,386.5C 345.655,386.372 347.655,386.872 349.5,388C 353.383,392.913 357.716,397.413 362.5,401.5C 364.527,402.513 366.527,403.513 368.5,404.5 Z"/></g>
<g><path style="opacity:0.467" fill="#0960cd" d="M 64.5,158.5 C 64.8333,158.5 65.1667,158.5 65.5,158.5C 65.3333,229.167 65.5,299.834 66,370.5C 66.3826,371.056 66.8826,371.389 67.5,371.5C 67.5394,372.583 67.8728,373.583 68.5,374.5C 66.3918,376.382 65.0585,378.715 64.5,381.5C 65.4631,387.781 68.4631,392.781 73.5,396.5C 79.7813,405.027 88.1146,410.027 98.5,411.5C 99.9002,412.1 100.9,413.1 101.5,414.5C 83.1528,411.998 69.9862,402.332 62,385.5C 60.7444,380.771 61.9111,376.771 65.5,373.5C 64.27,371.067 63.27,368.567 62.5,366C 63.3002,361.92 63.8002,357.753 64,353.5C 64.5,288.501 64.6667,223.501 64.5,158.5 Z"/></g>
<g><path style="opacity:1" fill="#11e0fc" d="M 73.5,379.5 C 75.83,383.492 78.1633,387.492 80.5,391.5C 81.7036,393.734 82.8703,396.067 84,398.5C 92.3195,402.621 101.153,404.621 110.5,404.5C 108.393,405.468 106.059,405.802 103.5,405.5C 103.5,406.833 103.5,408.167 103.5,409.5C 102.127,409.343 100.793,409.51 99.5,410C 100.737,410.232 101.737,410.732 102.5,411.5C 101.167,411.5 99.8333,411.5 98.5,411.5C 88.1146,410.027 79.7813,405.027 73.5,396.5C 73.6107,395.883 73.944,395.383 74.5,395C 71.7005,392.587 69.3672,389.754 67.5,386.5C 68.0402,385.252 68.7069,384.085 69.5,383C 66.2527,378.806 67.2527,376.64 72.5,376.5C 72.2627,377.791 72.596,378.791 73.5,379.5 Z"/></g>
<g><path style="opacity:0.587" fill="#0860c4" d="M 76.5,369.5 C 76.2488,371.17 75.5822,372.67 74.5,374C 78.252,382.166 83.252,389.5 89.5,396C 91.9562,397.711 94.6229,399.044 97.5,400C 124.496,400.786 151.496,401.286 178.5,401.5C 153.672,402.498 128.672,402.831 103.5,402.5C 94.0326,402.462 86.366,398.796 80.5,391.5C 78.1633,387.492 75.83,383.492 73.5,379.5C 73.634,377.708 73.3007,376.042 72.5,374.5C 72.3692,371.633 73.7026,369.967 76.5,369.5 Z"/></g>
<g><path style="opacity:1" fill="#1eb5f4" d="M 334.5,397.5 C 344.154,398.602 347.487,403.935 344.5,413.5C 344.672,414.492 344.338,415.158 343.5,415.5C 341.741,415.046 339.741,415.046 337.5,415.5C 342.682,413.377 344.682,409.377 343.5,403.5C 325.594,405.383 307.594,406.049 289.5,405.5C 281.016,404.507 272.349,404.174 263.5,404.5C 286.663,403.93 309.996,403.93 333.5,404.5C 333.448,402.097 333.781,399.764 334.5,397.5 Z"/></g>
<g><path style="opacity:0.262" fill="#157bd5" d="M 334.5,397.5 C 333.781,399.764 333.448,402.097 333.5,404.5C 309.996,403.93 286.663,403.93 263.5,404.5C 209.996,404.377 156.663,403.71 103.5,402.5C 128.672,402.831 153.672,402.498 178.5,401.5C 228.163,402.506 277.829,402.672 327.5,402C 329.522,399.991 331.855,398.491 334.5,397.5 Z"/></g>
<g><path style="opacity:0.529" fill="#1d82da" d="M 326.5,370.5 C 325.542,371.962 324.376,373.295 323,374.5C 322.506,376.134 322.34,377.801 322.5,379.5C 323.552,379.351 324.552,379.517 325.5,380C 329.824,383.827 334.491,387.161 339.5,390C 344.886,396.623 351.219,402.123 358.5,406.5C 363.205,411.207 368.205,415.54 373.5,419.5C 375.388,423.556 378.388,426.39 382.5,428C 383.802,431.134 386.135,432.968 389.5,433.5C 393.886,437.891 398.553,441.891 403.5,445.5C 410.003,450.05 417.003,450.717 424.5,447.5C 421.517,450.386 417.851,451.72 413.5,451.5C 409.944,451.555 406.611,450.722 403.5,449C 384.667,432.833 365.833,416.667 347,400.5C 346.667,404.5 346.333,408.5 346,412.5C 345.617,413.056 345.117,413.389 344.5,413.5C 347.487,403.935 344.154,398.602 334.5,397.5C 335.531,396.751 336.698,396.085 338,395.5C 337.805,393.255 336.638,391.422 334.5,390C 330.833,388.333 327.167,386.667 323.5,385C 318.834,378.824 319.834,373.991 326.5,370.5 Z"/></g>
<g><path style="opacity:1" fill="#4cd5fc" d="M 80.5,391.5 C 86.366,398.796 94.0326,402.462 103.5,402.5C 156.663,403.71 209.996,404.377 263.5,404.5C 272.349,404.174 281.016,404.507 289.5,405.5C 248.807,405.631 208.14,405.631 167.5,405.5C 148.674,404.503 129.674,404.17 110.5,404.5C 101.153,404.621 92.3195,402.621 84,398.5C 82.8703,396.067 81.7036,393.734 80.5,391.5 Z"/></g>
<g><path style="opacity:1" fill="#4be5fc" d="M 110.5,404.5 C 129.674,404.17 148.674,404.503 167.5,405.5C 154.15,405.167 140.817,405.501 127.5,406.5C 128.348,407.991 129.681,408.658 131.5,408.5C 133.189,408.274 134.855,407.941 136.5,407.5C 140.067,408.761 143.734,409.595 147.5,410C 171.016,410.206 194.349,411.039 217.5,412.5C 178.996,412.832 140.663,412.499 102.5,411.5C 101.737,410.732 100.737,410.232 99.5,410C 100.793,409.51 102.127,409.343 103.5,409.5C 103.5,408.167 103.5,406.833 103.5,405.5C 106.059,405.802 108.393,405.468 110.5,404.5 Z"/></g>
<g><path style="opacity:1" fill="#6ce3fc" d="M 337.5,415.5 C 319.194,414.553 300.861,414.22 282.5,414.5C 282.5,414.167 282.5,413.833 282.5,413.5C 260.758,413.822 239.091,413.488 217.5,412.5C 194.349,411.039 171.016,410.206 147.5,410C 143.734,409.595 140.067,408.761 136.5,407.5C 134.855,407.941 133.189,408.274 131.5,408.5C 129.681,408.658 128.348,407.991 127.5,406.5C 140.817,405.501 154.15,405.167 167.5,405.5C 208.14,405.631 248.807,405.631 289.5,405.5C 307.594,406.049 325.594,405.383 343.5,403.5C 344.682,409.377 342.682,413.377 337.5,415.5 Z"/></g>
<g><path style="opacity:1" fill="#89e6fc" d="M 271.5,406.5 C 260.659,407.167 249.659,407.833 238.5,408.5C 243.67,409.238 248.837,409.904 254,410.5C 255,410.167 256,409.833 257,409.5C 264.398,411.699 271.732,411.699 279,409.5C 286.83,411.471 294.997,412.471 303.5,412.5C 312.176,412.291 320.842,411.958 329.5,411.5C 329.67,410.178 329.337,409.011 328.5,408C 325.635,407.817 322.969,407.317 320.5,406.5C 326.842,406.334 333.175,406.5 339.5,407C 340.451,407.718 340.617,408.551 340,409.5C 339.08,411.314 337.58,412.314 335.5,412.5C 317.855,413.46 300.188,413.793 282.5,413.5C 261.66,412.691 240.66,411.858 219.5,411C 215.358,410.273 211.358,409.273 207.5,408C 228.803,406.61 250.137,406.11 271.5,406.5 Z"/></g>
<g><path style="opacity:1" fill="#9ce6fc" d="M 271.5,406.5 C 287.833,406.5 304.167,406.5 320.5,406.5C 322.969,407.317 325.635,407.817 328.5,408C 329.337,409.011 329.67,410.178 329.5,411.5C 320.842,411.958 312.176,412.291 303.5,412.5C 294.997,412.471 286.83,411.471 279,409.5C 271.732,411.699 264.398,411.699 257,409.5C 256,409.833 255,410.167 254,410.5C 248.837,409.904 243.67,409.238 238.5,408.5C 249.659,407.833 260.659,407.167 271.5,406.5 Z"/></g>
<g><path style="opacity:0.907" fill="#22b0f4" d="M 98.5,411.5 C 99.8333,411.5 101.167,411.5 102.5,411.5C 140.663,412.499 178.996,412.832 217.5,412.5C 239.091,413.488 260.758,413.822 282.5,413.5C 282.5,413.833 282.5,414.167 282.5,414.5C 261.167,414.5 239.833,414.5 218.5,414.5C 179.5,414.5 140.5,414.5 101.5,414.5C 100.9,413.1 99.9002,412.1 98.5,411.5 Z"/></g>
<g><path style="opacity:0.941" fill="#1796df" d="M 218.5,414.5 C 239.833,414.5 261.167,414.5 282.5,414.5C 300.861,414.22 319.194,414.553 337.5,415.5C 339.741,415.046 341.741,415.046 343.5,415.5C 338.823,418.233 333.823,418.899 328.5,417.5C 328.389,416.883 328.056,416.383 327.5,416C 311.837,415.5 296.17,415.333 280.5,415.5C 259.66,415.831 238.993,415.497 218.5,414.5 Z"/></g>
<g><path style="opacity:0.039" fill="#1160d1" d="M 280.5,415.5 C 296.17,415.333 311.837,415.5 327.5,416C 328.056,416.383 328.389,416.883 328.5,417.5C 312.314,417.546 296.314,416.88 280.5,415.5 Z"/></g>
<g><path style="opacity:0.365" fill="#197adb" d="M 419.5,318.5 C 420.167,329.833 420.833,341.167 421.5,352.5C 421.667,381.502 421.5,410.502 421,439.5C 418.772,441.113 416.272,441.78 413.5,441.5C 411.216,441.025 409.216,440.025 407.5,438.5C 402.525,432.805 397.192,427.305 391.5,422C 390.167,421.667 388.833,421.333 387.5,421C 385.147,417.651 382.48,414.651 379.5,412C 378.552,411.517 377.552,411.351 376.5,411.5C 375.971,407.967 373.971,405.633 370.5,404.5C 369.833,404.5 369.167,404.5 368.5,404.5C 358.017,393.034 346.684,382.2 334.5,372C 331.937,370.921 329.271,370.421 326.5,370.5C 328.966,369.366 331.633,369.199 334.5,370C 337.167,371.667 339.833,373.333 342.5,375C 360.833,392 379.167,409 397.5,426C 403.076,430.584 408.91,434.751 415,438.5C 417.892,437.158 419.225,434.825 419,431.5C 419.217,421.806 419.717,412.139 420.5,402.5C 419.517,374.525 419.183,346.525 419.5,318.5 Z"/></g>
<g><path style="opacity:1" fill="#21e4fb" d="M 430.5,423.5 C 430.666,428.844 430.499,434.177 430,439.5C 428.667,441.5 427,443.167 425,444.5C 424.517,445.448 424.351,446.448 424.5,447.5C 417.003,450.717 410.003,450.05 403.5,445.5C 403.389,444.883 403.056,444.383 402.5,444C 404.809,443.244 406.809,443.744 408.5,445.5C 409.308,445.192 409.975,444.692 410.5,444C 408.393,442.736 407.393,440.903 407.5,438.5C 409.216,440.025 411.216,441.025 413.5,441.5C 416.018,444.126 418.684,444.126 421.5,441.5C 422.495,436.208 422.828,430.875 422.5,425.5C 422.616,429.275 424.616,430.942 428.5,430.5C 428.41,427.848 429.076,425.515 430.5,423.5 Z"/></g>
</svg>
