<?xml version="1.0" encoding="UTF-8"?>
<!DOCTYPE svg PUBLIC "-//W3C//DTD SVG 1.1//EN" "http://www.w3.org/Graphics/SVG/1.1/DTD/svg11.dtd">
<svg xmlns="http://www.w3.org/2000/svg" version="1.1" width="400px" height="300px" style="shape-rendering:geometricPrecision; text-rendering:geometricPrecision; image-rendering:optimizeQuality; fill-rule:evenodd; clip-rule:evenodd" xmlns:xlink="http://www.w3.org/1999/xlink">
<g><path style="opacity:0.902" fill="#7f7b7b" d="M 212.5,63.5 C 200.424,63.1294 188.424,63.7961 176.5,65.5C 179.628,64.3681 182.962,63.5348 186.5,63C 195.343,62.1764 204.01,62.3431 212.5,63.5 Z"/></g>
<g><path style="opacity:1" fill="#d9d4d4" d="M 217.5,64.5 C 222.529,64.9205 227.195,66.2538 231.5,68.5C 229.173,68.6646 227.007,69.3313 225,70.5C 224.395,68.5188 223.395,68.1854 222,69.5C 220.215,68.7599 218.382,68.0933 216.5,67.5C 215.167,68.5 215.167,69.5 216.5,70.5C 217.768,69.5721 219.101,69.4054 220.5,70C 219.833,70.3333 219.167,70.6667 218.5,71C 220.879,71.7162 222.879,72.8828 224.5,74.5C 213.537,72.627 202.537,72.2937 191.5,73.5C 190.006,73.7092 188.839,74.3759 188,75.5C 187,74.5 186,73.5 185,72.5C 184.383,73.4491 184.549,74.2825 185.5,75C 183.122,75.9745 183.456,76.6411 186.5,77C 185.263,77.2321 184.263,77.7321 183.5,78.5C 182.833,78.5 182.167,78.5 181.5,78.5C 175.221,78.5317 175.221,77.3651 181.5,75C 180.692,74.6924 180.025,74.1924 179.5,73.5C 180.5,72.6667 181.5,71.8333 182.5,71C 181.167,70.3333 181.167,69.6667 182.5,69C 186.668,68.6247 190.668,67.6247 194.5,66C 200.552,65.2097 206.552,65.3764 212.5,66.5C 213.696,66.1543 213.696,65.6543 212.5,65C 214.134,64.5065 215.801,64.3398 217.5,64.5 Z"/></g>
<g><path style="opacity:1" fill="#cec9c9" d="M 212.5,63.5 C 214.415,63.2155 216.081,63.5489 217.5,64.5C 215.801,64.3398 214.134,64.5065 212.5,65C 213.696,65.6543 213.696,66.1543 212.5,66.5C 206.552,65.3764 200.552,65.2097 194.5,66C 190.668,67.6247 186.668,68.6247 182.5,69C 181.167,69.6667 181.167,70.3333 182.5,71C 181.5,71.8333 180.5,72.6667 179.5,73.5C 180.025,74.1924 180.692,74.6924 181.5,75C 175.221,77.3651 175.221,78.5317 181.5,78.5C 178.746,79.9459 175.746,80.9459 172.5,81.5C 171.737,80.7321 170.737,80.2321 169.5,80C 171.081,79.2935 172.581,78.4601 174,77.5C 174.333,77.8333 174.667,78.1667 175,78.5C 175.483,77.552 175.649,76.552 175.5,75.5C 165.542,75.9166 165.209,74.9166 174.5,72.5C 175.532,74.0396 176.865,74.5396 178.5,74C 178.043,73.586 177.709,73.086 177.5,72.5C 178.811,71.7425 179.311,70.7425 179,69.5C 173.203,70.8214 167.703,72.8214 162.5,75.5C 166.315,72.422 170.649,70.0887 175.5,68.5C 176.386,67.675 176.719,66.675 176.5,65.5C 188.424,63.7961 200.424,63.1294 212.5,63.5 Z"/></g>
<g><path style="opacity:1" fill="#dedbda" d="M 231.5,68.5 C 236.919,70.0444 241.919,72.3777 246.5,75.5C 245.07,75.4208 243.736,75.7542 242.5,76.5C 239.398,73.9334 238.398,74.6001 239.5,78.5C 234.73,76.411 229.73,75.0776 224.5,74.5C 222.879,72.8828 220.879,71.7162 218.5,71C 219.167,70.6667 219.833,70.3333 220.5,70C 219.101,69.4054 217.768,69.5721 216.5,70.5C 215.167,69.5 215.167,68.5 216.5,67.5C 218.382,68.0933 220.215,68.7599 222,69.5C 223.395,68.1854 224.395,68.5188 225,70.5C 227.007,69.3313 229.173,68.6646 231.5,68.5 Z"/></g>
<g><path style="opacity:1" fill="#c8c5c7" d="M 224.5,74.5 C 229.73,75.0776 234.73,76.411 239.5,78.5C 244.199,81.487 248.199,85.1537 251.5,89.5C 242.137,85.9932 232.804,82.1599 223.5,78C 220.462,77.115 217.795,77.615 215.5,79.5C 211.828,80.2408 208.161,81.4075 204.5,83C 199.638,86.6972 195.304,90.8639 191.5,95.5C 191.149,93.1305 190.982,90.7972 191,88.5C 192.396,90.8083 193.063,90.475 193,87.5C 190.619,86.565 188.119,86.2317 185.5,86.5C 183.216,85.3226 182.882,83.6559 184.5,81.5C 184.953,80.5416 185.619,79.7083 186.5,79C 185.552,78.5172 184.552,78.3505 183.5,78.5C 184.263,77.7321 185.263,77.2321 186.5,77C 183.456,76.6411 183.122,75.9745 185.5,75C 184.549,74.2825 184.383,73.4491 185,72.5C 186,73.5 187,74.5 188,75.5C 188.839,74.3759 190.006,73.7092 191.5,73.5C 202.537,72.2937 213.537,72.627 224.5,74.5 Z"/></g>
<g><path style="opacity:1" fill="#d4d0d0" d="M 172.5,81.5 C 163.896,85.4719 155.896,90.4719 148.5,96.5C 149.031,93.763 149.864,91.0964 151,88.5C 151.333,88.8333 151.667,89.1667 152,89.5C 152.801,85.367 155.301,83.5337 159.5,84C 160.129,79.8112 162.295,78.6445 166,80.5C 166.374,79.5838 166.874,78.7504 167.5,78C 163.654,76.8426 160.821,78.0093 159,81.5C 157.951,80.4829 156.784,80.3162 155.5,81C 152.978,83.0902 150.312,84.9235 147.5,86.5C 150.487,80.1907 155.487,76.524 162.5,75.5C 167.703,72.8214 173.203,70.8214 179,69.5C 179.311,70.7425 178.811,71.7425 177.5,72.5C 177.709,73.086 178.043,73.586 178.5,74C 176.865,74.5396 175.532,74.0396 174.5,72.5C 165.209,74.9166 165.542,75.9166 175.5,75.5C 175.649,76.552 175.483,77.552 175,78.5C 174.667,78.1667 174.333,77.8333 174,77.5C 172.581,78.4601 171.081,79.2935 169.5,80C 170.737,80.2321 171.737,80.7321 172.5,81.5 Z"/></g>
<g><path style="opacity:1" fill="#e0ddde" d="M 246.5,75.5 C 251.09,77.7621 255.09,80.7621 258.5,84.5C 256.177,85.0584 253.843,85.7251 251.5,86.5C 254.046,89.9512 257.212,92.6178 261,94.5C 262.756,97.0729 264.256,99.7396 265.5,102.5C 263.167,100.5 260.833,98.5 258.5,96.5C 256.576,93.9087 254.242,91.5754 251.5,89.5C 248.199,85.1537 244.199,81.487 239.5,78.5C 238.398,74.6001 239.398,73.9334 242.5,76.5C 243.736,75.7542 245.07,75.4208 246.5,75.5 Z"/></g>
<g><path style="opacity:1" fill="#afafa9" d="M 251.5,89.5 C 254.242,91.5754 256.576,93.9087 258.5,96.5C 259.248,98.3325 260.248,99.9991 261.5,101.5C 258.265,100.733 256.099,98.7328 255,95.5C 253.226,94.035 251.392,92.7017 249.5,91.5C 247.146,90.9872 245.146,89.8205 243.5,88C 241.866,87.5065 240.199,87.3398 238.5,87.5C 231.354,83.4314 223.687,80.7647 215.5,79.5C 217.795,77.615 220.462,77.115 223.5,78C 232.804,82.1599 242.137,85.9932 251.5,89.5 Z"/></g>
<g><path style="opacity:1" fill="#c6bdbd" d="M 176.5,65.5 C 176.719,66.675 176.386,67.675 175.5,68.5C 170.649,70.0887 166.315,72.422 162.5,75.5C 155.487,76.524 150.487,80.1907 147.5,86.5C 143.403,90.2502 139.069,93.9168 134.5,97.5C 132.483,100.875 130.483,104.208 128.5,107.5C 121.795,117.952 117.462,129.285 115.5,141.5C 114.343,149.99 114.176,158.657 115,167.5C 118.383,176.315 121.383,185.315 124,194.5C 128.311,203.3 134.478,210.3 142.5,215.5C 147.222,220.707 152.889,224.707 159.5,227.5C 161.437,228.954 163.103,230.621 164.5,232.5C 159.613,231.329 154.947,229.662 150.5,227.5C 148.388,225.207 146.388,222.707 144.5,220C 141.754,217.967 138.92,216.134 136,214.5C 132.257,210.268 128.757,205.935 125.5,201.5C 125.167,201.5 124.833,201.5 124.5,201.5C 121.849,193.996 118.682,186.663 115,179.5C 111.307,165.303 110.64,150.97 113,136.5C 116.644,125.889 120.811,115.556 125.5,105.5C 127.024,101.798 129.19,98.4645 132,95.5C 137.554,90.6125 142.721,85.4459 147.5,80C 154.934,76.738 162.267,73.238 169.5,69.5C 170.298,69.0431 170.631,68.3764 170.5,67.5C 172.214,66.2616 174.214,65.595 176.5,65.5 Z"/></g>
<g><path style="opacity:1" fill="#6c776b" d="M 238.5,87.5 C 240.199,87.3398 241.866,87.5065 243.5,88C 245.146,89.8205 247.146,90.9872 249.5,91.5C 251.871,97.0415 255.871,101.208 261.5,104C 260.549,104.718 260.383,105.551 261,106.5C 265.058,108.955 266.891,112.288 266.5,116.5C 259.212,104.878 249.878,95.2112 238.5,87.5 Z"/></g>
<g><path style="opacity:1" fill="#e1dede" d="M 148.5,96.5 C 144.806,99.5271 141.473,102.86 138.5,106.5C 138.993,104.194 139.326,101.861 139.5,99.5C 140.5,99.5 141.5,99.5 142.5,99.5C 142.778,97.6536 142.111,96.3202 140.5,95.5C 137.872,99.7922 134.872,103.792 131.5,107.5C 130.575,108.562 129.575,108.562 128.5,107.5C 130.483,104.208 132.483,100.875 134.5,97.5C 139.069,93.9168 143.403,90.2502 147.5,86.5C 150.312,84.9235 152.978,83.0902 155.5,81C 156.784,80.3162 157.951,80.4829 159,81.5C 160.821,78.0093 163.654,76.8426 167.5,78C 166.874,78.7504 166.374,79.5838 166,80.5C 162.295,78.6445 160.129,79.8112 159.5,84C 155.301,83.5337 152.801,85.367 152,89.5C 151.667,89.1667 151.333,88.8333 151,88.5C 149.864,91.0964 149.031,93.763 148.5,96.5 Z"/></g>
<g><path style="opacity:1" fill="#e3e1e2" d="M 258.5,84.5 C 264.307,88.455 268.973,93.455 272.5,99.5C 271.603,98.4019 270.77,98.4019 270,99.5C 269.059,97.9386 267.892,96.6053 266.5,95.5C 265.653,97.061 265.986,98.561 267.5,100C 267.975,103.226 269.642,106.226 272.5,109C 272.272,109.399 271.938,109.565 271.5,109.5C 268.8,107.766 266.8,105.432 265.5,102.5C 264.256,99.7396 262.756,97.0729 261,94.5C 257.212,92.6178 254.046,89.9512 251.5,86.5C 253.843,85.7251 256.177,85.0584 258.5,84.5 Z"/></g>
<g><path style="opacity:1" fill="#40c899" d="M 218.5,92.5 C 217.127,92.3433 215.793,92.51 214.5,93C 215.167,93.3333 215.833,93.6667 216.5,94C 215.244,94.4169 214.577,95.2502 214.5,96.5C 213.5,96.5 212.5,96.5 211.5,96.5C 211.683,102.691 212.683,108.691 214.5,114.5C 210.748,108.741 208.915,102.408 209,95.5C 211.367,91.697 214.534,90.697 218.5,92.5 Z"/></g>
<g><path style="opacity:1" fill="#7e7675" d="M 170.5,67.5 C 170.631,68.3764 170.298,69.0431 169.5,69.5C 162.267,73.238 154.934,76.738 147.5,80C 142.721,85.4459 137.554,90.6125 132,95.5C 129.19,98.4645 127.024,101.798 125.5,105.5C 122.468,109.061 119.968,113.061 118,117.5C 116.887,118.305 115.721,118.972 114.5,119.5C 125.154,93.5119 143.821,76.1786 170.5,67.5 Z"/></g>
<g><path style="opacity:1" fill="#86a6d5" d="M 184.5,81.5 C 182.882,83.6559 183.216,85.3226 185.5,86.5C 185.149,89.2377 184.482,91.9044 183.5,94.5C 181.253,95.2446 179.42,96.578 178,98.5C 177.391,102.121 175.891,105.121 173.5,107.5C 172.5,107.5 171.5,107.5 170.5,107.5C 170.562,112.638 169.229,117.305 166.5,121.5C 165.833,121.5 165.167,121.5 164.5,121.5C 168.016,106.468 174.682,93.1351 184.5,81.5 Z"/></g>
<g><path style="opacity:1" fill="#96c6f2" d="M 185.5,86.5 C 188.119,86.2317 190.619,86.565 193,87.5C 193.063,90.475 192.396,90.8083 191,88.5C 190.982,90.7972 191.149,93.1305 191.5,95.5C 187.619,102.595 184.285,109.929 181.5,117.5C 176.289,118.24 171.289,119.574 166.5,121.5C 169.229,117.305 170.562,112.638 170.5,107.5C 171.5,107.5 172.5,107.5 173.5,107.5C 175.891,105.121 177.391,102.121 178,98.5C 179.42,96.578 181.253,95.2446 183.5,94.5C 184.482,91.9044 185.149,89.2377 185.5,86.5 Z"/></g>
<g><path style="opacity:1" fill="#999b93" d="M 249.5,91.5 C 251.392,92.7017 253.226,94.035 255,95.5C 256.099,98.7328 258.265,100.733 261.5,101.5C 264.584,103.707 266.584,106.707 267.5,110.5C 271.093,115.686 273.593,121.353 275,127.5C 275.301,130.507 275.135,133.507 274.5,136.5C 272.053,129.841 269.386,123.174 266.5,116.5C 266.891,112.288 265.058,108.955 261,106.5C 260.383,105.551 260.549,104.718 261.5,104C 255.871,101.208 251.871,97.0415 249.5,91.5 Z"/></g>
<g><path style="opacity:1" fill="#ebebeb" d="M 272.5,99.5 C 278.04,105.907 282.04,113.241 284.5,121.5C 283.504,121.414 282.671,121.748 282,122.5C 282.257,119.624 281.257,116.957 279,114.5C 278.51,115.793 278.343,117.127 278.5,118.5C 276.833,116.5 275.167,114.5 273.5,112.5C 272.833,111.5 272.167,110.5 271.5,109.5C 271.938,109.565 272.272,109.399 272.5,109C 269.642,106.226 267.975,103.226 267.5,100C 265.986,98.561 265.653,97.061 266.5,95.5C 267.892,96.6053 269.059,97.9386 270,99.5C 270.77,98.4019 271.603,98.4019 272.5,99.5 Z"/></g>
<g><path style="opacity:1" fill="#62eac0" d="M 218.5,92.5 C 220.451,93.2823 221.951,94.6156 223,96.5C 226.532,103.932 229.366,111.599 231.5,119.5C 233.137,125.023 234.137,130.69 234.5,136.5C 233.05,132.034 231.884,127.368 231,122.5C 230.263,120.404 229.097,118.737 227.5,117.5C 225.255,116.172 224.922,114.339 226.5,112C 225.109,110.98 223.609,110.147 222,109.5C 220.504,104.497 218.004,100.164 214.5,96.5C 214.577,95.2502 215.244,94.4169 216.5,94C 215.833,93.6667 215.167,93.3333 214.5,93C 215.793,92.51 217.127,92.3433 218.5,92.5 Z"/></g>
<g><path style="opacity:1" fill="#39f3a8" d="M 214.5,96.5 C 218.004,100.164 220.504,104.497 222,109.5C 223.609,110.147 225.109,110.98 226.5,112C 224.922,114.339 225.255,116.172 227.5,117.5C 227.036,123.732 227.703,129.732 229.5,135.5C 227.417,133.396 225.083,133.062 222.5,134.5C 221.1,133.9 220.1,132.9 219.5,131.5C 219.662,129.473 219.495,127.473 219,125.5C 217.494,122.09 215.994,118.756 214.5,115.5C 214.5,115.167 214.5,114.833 214.5,114.5C 212.683,108.691 211.683,102.691 211.5,96.5C 212.5,96.5 213.5,96.5 214.5,96.5 Z"/></g>
<g><path style="opacity:1" fill="#23ccdd" d="M 195.5,117.5 C 201.933,117.443 208.266,118.11 214.5,119.5C 214.714,121.144 214.38,122.644 213.5,124C 209.132,126.883 204.465,129.05 199.5,130.5C 196.833,130.5 194.167,130.5 191.5,130.5C 192.091,129.849 192.757,129.182 193.5,128.5C 193.291,127.914 192.957,127.414 192.5,127C 194.315,126.243 195.981,125.41 197.5,124.5C 200.271,124.579 202.937,124.079 205.5,123C 202.309,121.913 198.975,121.08 195.5,120.5C 196.791,119.473 196.791,118.473 195.5,117.5 Z"/></g>
<g><path style="opacity:1" fill="#e3e2e2" d="M 138.5,106.5 C 133.074,114.685 128.741,123.352 125.5,132.5C 124.732,131.737 124.232,130.737 124,129.5C 122.621,134.029 120.454,138.029 117.5,141.5C 116.581,147.794 116.247,154.127 116.5,160.5C 115.51,154.355 115.177,148.022 115.5,141.5C 117.462,129.285 121.795,117.952 128.5,107.5C 129.575,108.562 130.575,108.562 131.5,107.5C 134.872,103.792 137.872,99.7922 140.5,95.5C 142.111,96.3202 142.778,97.6536 142.5,99.5C 141.5,99.5 140.5,99.5 139.5,99.5C 139.326,101.861 138.993,104.194 138.5,106.5 Z"/></g>
<g><path style="opacity:1" fill="#30e6f6" d="M 184.5,117.5 C 184.833,117.5 185.167,117.5 185.5,117.5C 188.833,117.5 192.167,117.5 195.5,117.5C 196.791,118.473 196.791,119.473 195.5,120.5C 198.975,121.08 202.309,121.913 205.5,123C 202.937,124.079 200.271,124.579 197.5,124.5C 192.139,124.885 186.806,125.551 181.5,126.5C 179.05,126.239 176.717,125.572 174.5,124.5C 173.614,123.675 173.281,122.675 173.5,121.5C 175.284,122.893 177.284,123.393 179.5,123C 178.833,122.333 178.167,121.667 177.5,121C 179.925,119.787 182.259,118.621 184.5,117.5 Z"/></g>
<g><path style="opacity:1" fill="#1fb2c2" d="M 214.5,115.5 C 215.994,118.756 217.494,122.09 219,125.5C 219.495,127.473 219.662,129.473 219.5,131.5C 212.922,130.54 206.255,130.207 199.5,130.5C 204.465,129.05 209.132,126.883 213.5,124C 214.38,122.644 214.714,121.144 214.5,119.5C 208.266,118.11 201.933,117.443 195.5,117.5C 192.167,117.5 188.833,117.5 185.5,117.5C 195.167,116.833 204.833,116.167 214.5,115.5 Z"/></g>
<g><path style="opacity:1" fill="#2ed6e9" d="M 181.5,117.5 C 182.5,117.5 183.5,117.5 184.5,117.5C 182.259,118.621 179.925,119.787 177.5,121C 178.167,121.667 178.833,122.333 179.5,123C 177.284,123.393 175.284,122.893 173.5,121.5C 170.512,123.273 167.179,123.94 163.5,123.5C 163.719,124.675 163.386,125.675 162.5,126.5C 160.802,125.319 159.135,125.319 157.5,126.5C 158.908,127.243 160.241,128.077 161.5,129C 159.073,129.902 156.74,130.736 154.5,131.5C 152.072,129.957 149.406,128.957 146.5,128.5C 152.109,125.404 158.109,123.07 164.5,121.5C 165.167,121.5 165.833,121.5 166.5,121.5C 171.289,119.574 176.289,118.24 181.5,117.5 Z"/></g>
<g><path style="opacity:0.304" fill="#0a6579" d="M 191.5,131.5 C 191.5,131.167 191.5,130.833 191.5,130.5C 194.167,130.5 196.833,130.5 199.5,130.5C 206.255,130.207 212.922,130.54 219.5,131.5C 219.5,131.833 219.5,132.167 219.5,132.5C 210.199,131.613 200.866,131.279 191.5,131.5 Z"/></g>
<g><path style="opacity:1" fill="#ededed" d="M 284.5,121.5 C 287.519,127.722 289.353,134.389 290,141.5C 290.802,150.245 290.636,158.912 289.5,167.5C 288.71,168.609 288.21,169.942 288,171.5C 287.667,170.167 287.333,168.833 287,167.5C 286.678,170.666 285.511,173.333 283.5,175.5C 287.374,155.903 285.708,136.903 278.5,118.5C 278.343,117.127 278.51,115.793 279,114.5C 281.257,116.957 282.257,119.624 282,122.5C 282.671,121.748 283.504,121.414 284.5,121.5 Z"/></g>
<g><path style="opacity:1" fill="#1adef1" d="M 173.5,121.5 C 173.281,122.675 173.614,123.675 174.5,124.5C 176.717,125.572 179.05,126.239 181.5,126.5C 186.806,125.551 192.139,124.885 197.5,124.5C 195.981,125.41 194.315,126.243 192.5,127C 192.957,127.414 193.291,127.914 193.5,128.5C 192.757,129.182 192.091,129.849 191.5,130.5C 191.5,130.833 191.5,131.167 191.5,131.5C 187.865,132.114 184.198,132.448 180.5,132.5C 175.088,133.26 169.755,134.427 164.5,136C 163.944,136.383 163.611,136.883 163.5,137.5C 162.833,137.5 162.167,137.5 161.5,137.5C 161.5,136.167 161.5,134.833 161.5,133.5C 158.772,133.829 156.438,133.163 154.5,131.5C 156.74,130.736 159.073,129.902 161.5,129C 160.241,128.077 158.908,127.243 157.5,126.5C 159.135,125.319 160.802,125.319 162.5,126.5C 163.386,125.675 163.719,124.675 163.5,123.5C 167.179,123.94 170.512,123.273 173.5,121.5 Z"/></g>
<g><path style="opacity:1" fill="#83c4cd" d="M 234.5,120.5 C 242.099,121.808 249.099,124.475 255.5,128.5C 253.312,129.536 253.312,131.036 255.5,133C 253.423,133.192 251.423,133.692 249.5,134.5C 252.833,137.167 256.167,139.833 259.5,142.5C 257.86,144.583 255.86,144.916 253.5,143.5C 247.753,140.631 241.753,138.297 235.5,136.5C 235.926,134.715 237.092,133.715 239,133.5C 241.736,135.259 244.569,135.592 247.5,134.5C 244.266,133.299 241.099,131.965 238,130.5C 237.804,128.714 236.971,127.381 235.5,126.5C 234.534,124.604 234.201,122.604 234.5,120.5 Z"/></g>
<g><path style="opacity:1" fill="#b1fdb9" d="M 227.5,117.5 C 229.097,118.737 230.263,120.404 231,122.5C 231.884,127.368 233.05,132.034 234.5,136.5C 234.5,137.167 234.5,137.833 234.5,138.5C 234.44,139.043 234.107,139.376 233.5,139.5C 232.358,138.174 231.024,137.174 229.5,136.5C 229.5,136.167 229.5,135.833 229.5,135.5C 227.703,129.732 227.036,123.732 227.5,117.5 Z"/></g>
<g><path style="opacity:1" fill="#5ac9c7" d="M 231.5,119.5 C 232.609,119.557 233.609,119.89 234.5,120.5C 234.201,122.604 234.534,124.604 235.5,126.5C 236.971,127.381 237.804,128.714 238,130.5C 241.099,131.965 244.266,133.299 247.5,134.5C 244.569,135.592 241.736,135.259 239,133.5C 237.092,133.715 235.926,134.715 235.5,136.5C 235.5,137.167 235.5,137.833 235.5,138.5C 235.167,138.5 234.833,138.5 234.5,138.5C 234.5,137.833 234.5,137.167 234.5,136.5C 234.137,130.69 233.137,125.023 231.5,119.5 Z"/></g>
<g><path style="opacity:1" fill="#599848" d="M 219.5,131.5 C 220.1,132.9 221.1,133.9 222.5,134.5C 222.5,139.167 222.5,143.833 222.5,148.5C 222.5,149.5 222.5,150.5 222.5,151.5C 222.5,154.167 222.5,156.833 222.5,159.5C 222.5,160.167 222.5,160.833 222.5,161.5C 222.167,161.5 221.833,161.5 221.5,161.5C 221.692,151.764 221.025,142.098 219.5,132.5C 219.5,132.167 219.5,131.833 219.5,131.5 Z"/></g>
<g><path style="opacity:1" fill="#2edee8" d="M 146.5,128.5 C 149.406,128.957 152.072,129.957 154.5,131.5C 156.438,133.163 158.772,133.829 161.5,133.5C 161.5,134.833 161.5,136.167 161.5,137.5C 160.833,137.5 160.5,137.833 160.5,138.5C 156.407,140.045 152.407,141.879 148.5,144C 140.78,145.275 137.28,142.109 138,134.5C 139.851,131.154 142.684,129.154 146.5,128.5 Z"/></g>
<g><path style="opacity:1" fill="#62a0de" d="M 180.5,132.5 C 179.828,133.267 178.995,133.934 178,134.5C 177.825,139.019 177.325,143.353 176.5,147.5C 176.785,145.712 176.452,144.045 175.5,142.5C 174.914,142.709 174.414,143.043 174,143.5C 173.79,141.942 173.29,140.609 172.5,139.5C 169.219,139.58 166.219,138.913 163.5,137.5C 163.611,136.883 163.944,136.383 164.5,136C 169.755,134.427 175.088,133.26 180.5,132.5 Z"/></g>
<g><path style="opacity:1" fill="#a3c5cc" d="M 255.5,128.5 C 260.368,130.382 264.701,133.048 268.5,136.5C 265.407,135.446 264.74,136.612 266.5,140C 265.313,141.019 264.313,142.186 263.5,143.5C 264.95,144.85 265.617,146.516 265.5,148.5C 263.412,147.061 261.079,146.394 258.5,146.5C 256.566,145.89 254.899,144.89 253.5,143.5C 255.86,144.916 257.86,144.583 259.5,142.5C 256.167,139.833 252.833,137.167 249.5,134.5C 251.423,133.692 253.423,133.192 255.5,133C 253.312,131.036 253.312,129.536 255.5,128.5 Z"/></g>
<g><path style="opacity:1" fill="#ebeaea" d="M 125.5,132.5 C 124.812,141.105 127.478,148.438 133.5,154.5C 131.31,155.374 130.31,157.041 130.5,159.5C 126.596,159.939 124.096,158.272 123,154.5C 122.505,156.473 122.338,158.473 122.5,160.5C 121.902,157.275 120.568,154.275 118.5,151.5C 117.31,157.173 117.31,162.84 118.5,168.5C 116.777,166.22 116.111,163.553 116.5,160.5C 116.247,154.127 116.581,147.794 117.5,141.5C 120.454,138.029 122.621,134.029 124,129.5C 124.232,130.737 124.732,131.737 125.5,132.5 Z"/></g>
<g><path style="opacity:1" fill="#6ede5c" d="M 229.5,135.5 C 229.5,135.833 229.5,136.167 229.5,136.5C 229.927,140.824 230.261,145.158 230.5,149.5C 229.07,149.421 227.736,149.754 226.5,150.5C 225.476,149.147 224.143,148.48 222.5,148.5C 222.5,143.833 222.5,139.167 222.5,134.5C 225.083,133.062 227.417,133.396 229.5,135.5 Z"/></g>
<g><path style="opacity:1" fill="#afa8a6" d="M 267.5,110.5 C 270.19,113.039 272.357,116.039 274,119.5C 276.535,125.944 278.369,132.611 279.5,139.5C 279.666,144.844 279.499,150.177 279,155.5C 277.276,149.991 274.609,144.991 271,140.5C 270.667,140.833 270.333,141.167 270,141.5C 269.392,139.846 268.892,138.179 268.5,136.5C 270.392,137.702 272.226,139.035 274,140.5C 274.49,139.207 274.657,137.873 274.5,136.5C 275.135,133.507 275.301,130.507 275,127.5C 273.593,121.353 271.093,115.686 267.5,110.5 Z"/></g>
<g><path style="opacity:1" fill="#6083de" d="M 160.5,138.5 C 160.5,137.833 160.833,137.5 161.5,137.5C 162.167,137.5 162.833,137.5 163.5,137.5C 166.219,138.913 169.219,139.58 172.5,139.5C 172.037,142.482 171.704,145.482 171.5,148.5C 168.697,147.072 165.697,146.405 162.5,146.5C 162.5,151.833 162.5,157.167 162.5,162.5C 161.201,155.141 161.201,147.641 162.5,140C 162.164,138.97 161.497,138.47 160.5,138.5 Z"/></g>
<g><path style="opacity:1" fill="#cec9c7" d="M 258.5,96.5 C 260.833,98.5 263.167,100.5 265.5,102.5C 266.8,105.432 268.8,107.766 271.5,109.5C 272.167,110.5 272.833,111.5 273.5,112.5C 281.639,130.597 284.306,149.597 281.5,169.5C 280.833,170.5 280.167,171.5 279.5,172.5C 280.33,165.857 280.997,159.191 281.5,152.5C 281.541,147.921 280.874,143.588 279.5,139.5C 278.369,132.611 276.535,125.944 274,119.5C 272.357,116.039 270.19,113.039 267.5,110.5C 266.584,106.707 264.584,103.707 261.5,101.5C 260.248,99.9991 259.248,98.3325 258.5,96.5 Z"/></g>
<g><path style="opacity:1" fill="#a4ea6e" d="M 229.5,136.5 C 231.024,137.174 232.358,138.174 233.5,139.5C 234.107,139.376 234.44,139.043 234.5,138.5C 234.833,138.5 235.167,138.5 235.5,138.5C 235.5,139.5 235.5,140.5 235.5,141.5C 235.588,145.306 234.921,148.973 233.5,152.5C 229.829,152.494 226.162,152.161 222.5,151.5C 222.5,150.5 222.5,149.5 222.5,148.5C 224.143,148.48 225.476,149.147 226.5,150.5C 227.736,149.754 229.07,149.421 230.5,149.5C 230.261,145.158 229.927,140.824 229.5,136.5 Z"/></g>
<g><path style="opacity:1" fill="#605858" d="M 114.5,120.5 C 114.704,127.298 113.204,133.631 110,139.5C 109.351,152.548 109.851,165.548 111.5,178.5C 105.654,158.826 106.654,139.492 114.5,120.5 Z"/></g>
<g><path style="opacity:1" fill="#f3f3f3" d="M 122.5,160.5 C 123.77,162.548 124.103,164.548 123.5,166.5C 123.5,167.167 123.833,167.5 124.5,167.5C 124.704,170.518 125.037,173.518 125.5,176.5C 124.826,178.024 123.826,179.358 122.5,180.5C 123.498,183.028 124.331,183.028 125,180.5C 125.642,182.762 126.475,184.929 127.5,187C 125.807,187.484 124.473,186.984 123.5,185.5C 121.208,180.054 119.541,174.387 118.5,168.5C 117.31,162.84 117.31,157.173 118.5,151.5C 120.568,154.275 121.902,157.275 122.5,160.5 Z"/></g>
<g><path style="opacity:1" fill="#ac92fb" d="M 171.5,148.5 C 173.088,158.071 173.754,167.738 173.5,177.5C 172.676,173.688 172.176,169.688 172,165.5C 170.099,162.464 168.932,159.13 168.5,155.5C 168,155.167 167.5,154.833 167,154.5C 165.523,155.444 164.523,156.777 164,158.5C 164.326,162.47 164.326,166.47 164,170.5C 163.814,167.964 163.314,165.631 162.5,163.5C 162.5,163.167 162.5,162.833 162.5,162.5C 162.5,157.167 162.5,151.833 162.5,146.5C 165.697,146.405 168.697,147.072 171.5,148.5 Z"/></g>
<g><path style="opacity:1" fill="#c8d052" d="M 235.5,141.5 C 236.493,150.318 236.827,159.318 236.5,168.5C 236.167,168.5 235.833,168.5 235.5,168.5C 234.659,166.621 234.325,164.621 234.5,162.5C 231.455,162.508 228.455,162.841 225.5,163.5C 225.5,162.167 225.5,160.833 225.5,159.5C 224.5,159.5 223.5,159.5 222.5,159.5C 222.5,156.833 222.5,154.167 222.5,151.5C 226.162,152.161 229.829,152.494 233.5,152.5C 234.921,148.973 235.588,145.306 235.5,141.5 Z"/></g>
<g><path style="opacity:1" fill="#c5bbba" d="M 268.5,136.5 C 268.892,138.179 269.392,139.846 270,141.5C 270.333,141.167 270.667,140.833 271,140.5C 274.609,144.991 277.276,149.991 279,155.5C 279.499,150.177 279.666,144.844 279.5,139.5C 280.874,143.588 281.541,147.921 281.5,152.5C 280.997,159.191 280.33,165.857 279.5,172.5C 279.557,174.884 279.223,177.218 278.5,179.5C 276.52,181.795 275.353,184.461 275,187.5C 271.889,191.387 269.556,195.72 268,200.5C 265.969,203.355 263.803,206.022 261.5,208.5C 256.362,213.468 251.029,218.301 245.5,223C 243.509,223.374 241.842,224.207 240.5,225.5C 234.303,227.57 227.97,229.237 221.5,230.5C 218.982,230.477 216.316,230.144 213.5,229.5C 222.461,227.176 231.127,223.842 239.5,219.5C 244.355,218.503 248.688,216.336 252.5,213C 258.081,206.043 263.748,199.21 269.5,192.5C 277.286,181.945 278.953,170.445 274.5,158C 271.143,155.08 268.143,151.914 265.5,148.5C 265.617,146.516 264.95,144.85 263.5,143.5C 264.313,142.186 265.313,141.019 266.5,140C 264.74,136.612 265.407,135.446 268.5,136.5 Z"/></g>
<g><path style="opacity:1" fill="#e7e4e4" d="M 273.5,112.5 C 275.167,114.5 276.833,116.5 278.5,118.5C 285.708,136.903 287.374,155.903 283.5,175.5C 282.933,176.42 283.599,176.754 285.5,176.5C 284.956,178.58 284.122,180.58 283,182.5C 282.667,181.833 282.333,181.167 282,180.5C 281.503,182.81 281.337,185.143 281.5,187.5C 280.5,187.5 279.5,187.5 278.5,187.5C 277.477,190.393 277.477,193.226 278.5,196C 277.667,196.833 276.833,197.667 276,198.5C 275.742,194.096 276.242,189.762 277.5,185.5C 279.815,180.528 281.149,175.194 281.5,169.5C 284.306,149.597 281.639,130.597 273.5,112.5 Z"/></g>
<g><path style="opacity:1" fill="#a9a09d" d="M 258.5,146.5 C 261.079,146.394 263.412,147.061 265.5,148.5C 268.143,151.914 271.143,155.08 274.5,158C 278.953,170.445 277.286,181.945 269.5,192.5C 271.033,188.453 271.7,184.453 271.5,180.5C 274.188,170.504 272.355,161.504 266,153.5C 263.521,151.034 261.021,148.701 258.5,146.5 Z"/></g>
<g><path style="opacity:1" fill="#d7cad7" d="M 133.5,154.5 C 136.526,157.195 139.526,159.862 142.5,162.5C 140.94,162.519 139.44,162.852 138,163.5C 134.988,166.038 131.821,168.038 128.5,169.5C 127.167,168.833 125.833,168.167 124.5,167.5C 123.833,167.5 123.5,167.167 123.5,166.5C 124.103,164.548 123.77,162.548 122.5,160.5C 122.338,158.473 122.505,156.473 123,154.5C 124.096,158.272 126.596,159.939 130.5,159.5C 130.31,157.041 131.31,155.374 133.5,154.5 Z"/></g>
<g><path style="opacity:1" fill="#d9b5e3" d="M 142.5,162.5 C 144.434,163.11 146.101,164.11 147.5,165.5C 146.167,165.5 144.833,165.5 143.5,165.5C 144.296,169.639 142.963,172.805 139.5,175C 141.842,176.392 141.842,177.225 139.5,177.5C 135.249,175.575 131.583,172.908 128.5,169.5C 131.821,168.038 134.988,166.038 138,163.5C 139.44,162.852 140.94,162.519 142.5,162.5 Z"/></g>
<g><path style="opacity:1" fill="#7f609e" d="M 176.5,155.5 C 177.489,161.322 178.156,167.322 178.5,173.5C 176.772,167.762 176.105,161.762 176.5,155.5 Z"/></g>
<g><path style="opacity:1" fill="#eec13a" d="M 222.5,159.5 C 223.5,159.5 224.5,159.5 225.5,159.5C 225.5,160.833 225.5,162.167 225.5,163.5C 228.455,162.841 231.455,162.508 234.5,162.5C 234.325,164.621 234.659,166.621 235.5,168.5C 235.5,168.833 235.5,169.167 235.5,169.5C 235.158,170.338 234.492,170.672 233.5,170.5C 231.052,169.527 228.385,169.194 225.5,169.5C 225.5,168.167 225.5,166.833 225.5,165.5C 224.5,165.5 223.5,165.5 222.5,165.5C 222.5,164.167 222.5,162.833 222.5,161.5C 222.5,160.833 222.5,160.167 222.5,159.5 Z"/></g>
<g><path style="opacity:1" fill="#968b8a" d="M 125.5,105.5 C 120.811,115.556 116.644,125.889 113,136.5C 110.64,150.97 111.307,165.303 115,179.5C 118.682,186.663 121.849,193.996 124.5,201.5C 123.395,200.4 122.062,199.733 120.5,199.5C 119.23,191.667 116.23,184.667 111.5,178.5C 109.851,165.548 109.351,152.548 110,139.5C 113.204,133.631 114.704,127.298 114.5,120.5C 114.5,120.167 114.5,119.833 114.5,119.5C 115.721,118.972 116.887,118.305 118,117.5C 119.968,113.061 122.468,109.061 125.5,105.5 Z"/></g>
<g><path style="opacity:0.667" fill="#7c4422" d="M 221.5,165.5 C 221.5,168.5 221.5,171.5 221.5,174.5C 220.833,174.5 220.167,174.5 219.5,174.5C 220.088,171.39 220.755,168.39 221.5,165.5 Z"/></g>
<g><path style="opacity:1" fill="#efa33e" d="M 221.5,161.5 C 221.833,161.5 222.167,161.5 222.5,161.5C 222.5,162.833 222.5,164.167 222.5,165.5C 223.5,165.5 224.5,165.5 225.5,165.5C 225.5,166.833 225.5,168.167 225.5,169.5C 228.385,169.194 231.052,169.527 233.5,170.5C 232.5,171.167 231.5,171.833 230.5,172.5C 227.5,173.167 224.5,173.833 221.5,174.5C 221.5,171.5 221.5,168.5 221.5,165.5C 221.5,164.167 221.5,162.833 221.5,161.5 Z"/></g>
<g><path style="opacity:1" fill="#ce8ce7" d="M 147.5,165.5 C 149.153,165.66 150.486,166.326 151.5,167.5C 150.357,167.908 149.357,168.575 148.5,169.5C 149.853,170.524 150.52,171.857 150.5,173.5C 148.897,173.312 147.563,173.812 146.5,175C 148.833,176.243 149.5,177.909 148.5,180C 151.097,180.779 151.097,181.279 148.5,181.5C 145.088,180.958 142.088,179.625 139.5,177.5C 141.842,177.225 141.842,176.392 139.5,175C 142.963,172.805 144.296,169.639 143.5,165.5C 144.833,165.5 146.167,165.5 147.5,165.5 Z"/></g>
<g><path style="opacity:1" fill="#c562ef" d="M 164.5,173.5 C 162.396,173.201 160.396,173.534 158.5,174.5C 159.865,176.751 159.531,178.751 157.5,180.5C 159.335,181.428 159.668,182.594 158.5,184C 160.81,184.497 163.143,184.663 165.5,184.5C 165.5,183.5 165.5,182.5 165.5,181.5C 166.458,183.302 167.125,185.302 167.5,187.5C 167.167,187.5 166.833,187.5 166.5,187.5C 162.884,187.101 159.55,186.101 156.5,184.5C 155.829,183.153 155.829,181.986 156.5,181C 152.66,179.36 152.66,177.86 156.5,176.5C 155.885,174.884 154.885,173.551 153.5,172.5C 157.368,171.427 161.035,171.761 164.5,173.5 Z"/></g>
<g><path style="opacity:1" fill="#c17df6" d="M 173.5,177.5 C 173.998,181.575 173.998,185.575 173.5,189.5C 173,189.833 172.5,190.167 172,190.5C 170.357,189.685 168.857,188.685 167.5,187.5C 167.125,185.302 166.458,183.302 165.5,181.5C 165.599,178.763 165.265,176.096 164.5,173.5C 161.035,171.761 157.368,171.427 153.5,172.5C 154.885,173.551 155.885,174.884 156.5,176.5C 152.66,177.86 152.66,179.36 156.5,181C 155.829,181.986 155.829,183.153 156.5,184.5C 153.458,184.267 150.792,183.267 148.5,181.5C 151.097,181.279 151.097,180.779 148.5,180C 149.5,177.909 148.833,176.243 146.5,175C 147.563,173.812 148.897,173.312 150.5,173.5C 150.52,171.857 149.853,170.524 148.5,169.5C 149.357,168.575 150.357,167.908 151.5,167.5C 155.099,168.699 158.765,169.699 162.5,170.5C 162.5,168.167 162.5,165.833 162.5,163.5C 163.314,165.631 163.814,167.964 164,170.5C 164.326,166.47 164.326,162.47 164,158.5C 164.523,156.777 165.523,155.444 167,154.5C 167.5,154.833 168,155.167 168.5,155.5C 168.932,159.13 170.099,162.464 172,165.5C 172.176,169.688 172.676,173.688 173.5,177.5 Z"/></g>
<g><path style="opacity:1" fill="#f5ed65" d="M 258.5,163.5 C 258.5,164.833 258.5,166.167 258.5,167.5C 256.394,167.679 254.728,168.679 253.5,170.5C 254.376,171.251 255.376,171.751 256.5,172C 253.332,172.109 250.665,173.275 248.5,175.5C 249.167,176.167 249.833,176.833 250.5,177.5C 248.604,178.466 246.604,178.799 244.5,178.5C 244.579,177.07 244.246,175.736 243.5,174.5C 241.328,173.795 239.328,172.795 237.5,171.5C 238.881,170.119 240.215,168.785 241.5,167.5C 246.395,162.886 252.062,161.552 258.5,163.5 Z"/></g>
<g><path style="opacity:1" fill="#cb53fa" d="M 164.5,173.5 C 165.265,176.096 165.599,178.763 165.5,181.5C 165.5,182.5 165.5,183.5 165.5,184.5C 163.143,184.663 160.81,184.497 158.5,184C 159.668,182.594 159.335,181.428 157.5,180.5C 159.531,178.751 159.865,176.751 158.5,174.5C 160.396,173.534 162.396,173.201 164.5,173.5 Z"/></g>
<g><path style="opacity:1" fill="#f3e379" d="M 258.5,163.5 C 261.761,166.32 262.261,169.654 260,173.5C 256.345,176.744 252.178,179.078 247.5,180.5C 240.464,182 236.131,179.334 234.5,172.5C 233.833,173.5 233.167,174.5 232.5,175.5C 231.824,174.398 231.158,173.398 230.5,172.5C 231.5,171.833 232.5,171.167 233.5,170.5C 234.492,170.672 235.158,170.338 235.5,169.5C 236.167,169.5 236.5,169.167 236.5,168.5C 238.117,167.962 239.784,167.629 241.5,167.5C 240.215,168.785 238.881,170.119 237.5,171.5C 239.328,172.795 241.328,173.795 243.5,174.5C 244.246,175.736 244.579,177.07 244.5,178.5C 246.604,178.799 248.604,178.466 250.5,177.5C 249.833,176.833 249.167,176.167 248.5,175.5C 250.665,173.275 253.332,172.109 256.5,172C 255.376,171.751 254.376,171.251 253.5,170.5C 254.728,168.679 256.394,167.679 258.5,167.5C 258.5,166.167 258.5,164.833 258.5,163.5 Z"/></g>
<g><path style="opacity:1" fill="#f5cd8d" d="M 230.5,172.5 C 231.158,173.398 231.824,174.398 232.5,175.5C 233.167,174.5 233.833,173.5 234.5,172.5C 236.131,179.334 240.464,182 247.5,180.5C 246.07,181.537 244.403,182.204 242.5,182.5C 240.143,182.337 237.81,182.503 235.5,183C 234.09,183.368 233.09,184.201 232.5,185.5C 230.955,186.452 229.288,186.785 227.5,186.5C 227.626,184.8 228.293,183.3 229.5,182C 228.459,177.945 227.793,177.779 227.5,181.5C 220.235,182.437 219.568,180.77 225.5,176.5C 224.051,175.828 222.718,175.161 221.5,174.5C 224.5,173.833 227.5,173.167 230.5,172.5 Z"/></g>
<g><path style="opacity:1" fill="#edbc98" d="M 219.5,174.5 C 220.167,174.5 220.833,174.5 221.5,174.5C 222.718,175.161 224.051,175.828 225.5,176.5C 219.568,180.77 220.235,182.437 227.5,181.5C 227.793,177.779 228.459,177.945 229.5,182C 228.293,183.3 227.626,184.8 227.5,186.5C 223.507,186.5 219.841,187.5 216.5,189.5C 216.167,189.5 215.833,189.5 215.5,189.5C 214.5,189.5 213.5,189.5 212.5,189.5C 212.998,184.848 213.331,180.181 213.5,175.5C 215.265,174.539 217.265,174.205 219.5,174.5 Z"/></g>
<g><path style="opacity:1" fill="#d2abf8" d="M 172.5,139.5 C 173.29,140.609 173.79,141.942 174,143.5C 174.414,143.043 174.914,142.709 175.5,142.5C 176.452,144.045 176.785,145.712 176.5,147.5C 176.5,150.167 176.5,152.833 176.5,155.5C 176.105,161.762 176.772,167.762 178.5,173.5C 178.5,173.833 178.5,174.167 178.5,174.5C 178.328,175.492 178.662,176.158 179.5,176.5C 179.833,178.5 180.167,180.5 180.5,182.5C 178.444,180.76 177.111,178.427 176.5,175.5C 176.167,176.667 175.833,177.833 175.5,179C 177.672,186.853 177.838,194.686 176,202.5C 175,201.833 174,201.167 173,200.5C 172.601,200.728 172.435,201.062 172.5,201.5C 169.933,197.151 167.933,192.485 166.5,187.5C 166.833,187.5 167.167,187.5 167.5,187.5C 168.857,188.685 170.357,189.685 172,190.5C 172.5,190.167 173,189.833 173.5,189.5C 173.998,185.575 173.998,181.575 173.5,177.5C 173.754,167.738 173.088,158.071 171.5,148.5C 171.704,145.482 172.037,142.482 172.5,139.5 Z"/></g>
<g><path style="opacity:1" fill="#e6adb2" d="M 210.5,175.5 C 211.5,175.5 212.5,175.5 213.5,175.5C 213.331,180.181 212.998,184.848 212.5,189.5C 209.387,189.935 208.721,188.935 210.5,186.5C 207.838,182.845 207.838,179.179 210.5,175.5 Z"/></g>
<g><path style="opacity:1" fill="#5e5657" d="M 111.5,178.5 C 116.23,184.667 119.23,191.667 120.5,199.5C 118.526,197.572 117.026,195.239 116,192.5C 113.987,187.963 112.487,183.296 111.5,178.5 Z"/></g>
<g><path style="opacity:1" fill="#d74cf5" d="M 179.5,176.5 C 185.677,176.238 191.344,177.571 196.5,180.5C 196.132,182.8 196.132,184.967 196.5,187C 192.454,189.174 188.121,190.007 183.5,189.5C 182.055,187.429 181.055,185.096 180.5,182.5C 180.167,180.5 179.833,178.5 179.5,176.5 Z"/></g>
<g><path style="opacity:1" fill="#d692b4" d="M 203.5,176.5 C 205.607,175.532 207.941,175.198 210.5,175.5C 207.838,179.179 207.838,182.845 210.5,186.5C 208.721,188.935 209.387,189.935 212.5,189.5C 213.5,189.5 214.5,189.5 215.5,189.5C 213.052,190.473 210.385,190.806 207.5,190.5C 206.522,190.189 205.855,189.522 205.5,188.5C 205.5,185.167 205.5,181.833 205.5,178.5C 205.145,177.478 204.478,176.811 203.5,176.5 Z"/></g>
<g><path style="opacity:1" fill="#d360dc" d="M 178.5,174.5 C 182.833,175.167 187.167,175.833 191.5,176.5C 194.023,177.254 196.689,177.92 199.5,178.5C 201.003,182.355 201.67,186.355 201.5,190.5C 197.167,190.5 192.833,190.5 188.5,190.5C 186.833,190.5 185.167,190.5 183.5,190.5C 183.5,190.167 183.5,189.833 183.5,189.5C 188.121,190.007 192.454,189.174 196.5,187C 196.132,184.967 196.132,182.8 196.5,180.5C 191.344,177.571 185.677,176.238 179.5,176.5C 178.662,176.158 178.328,175.492 178.5,174.5 Z"/></g>
<g><path style="opacity:1" fill="#c36dbb" d="M 191.5,176.5 C 195.5,176.5 199.5,176.5 203.5,176.5C 204.478,176.811 205.145,177.478 205.5,178.5C 205.5,181.833 205.5,185.167 205.5,188.5C 205.855,189.522 206.522,190.189 207.5,190.5C 201.167,191.833 194.833,191.833 188.5,190.5C 192.833,190.5 197.167,190.5 201.5,190.5C 201.67,186.355 201.003,182.355 199.5,178.5C 196.689,177.92 194.023,177.254 191.5,176.5 Z"/></g>
<g><path style="opacity:1" fill="#ecbbf8" d="M 180.5,182.5 C 181.055,185.096 182.055,187.429 183.5,189.5C 183.5,189.833 183.5,190.167 183.5,190.5C 183.5,190.833 183.5,191.167 183.5,191.5C 180.498,189.708 178.665,187.041 178,183.5C 177.833,184 177.667,184.5 177.5,185C 179.678,193.609 182.011,202.109 184.5,210.5C 182.534,209.2 180.368,208.2 178,207.5C 176.317,205.649 174.484,203.983 172.5,202.5C 172.5,202.167 172.5,201.833 172.5,201.5C 172.435,201.062 172.601,200.728 173,200.5C 174,201.167 175,201.833 176,202.5C 177.838,194.686 177.672,186.853 175.5,179C 175.833,177.833 176.167,176.667 176.5,175.5C 177.111,178.427 178.444,180.76 180.5,182.5 Z"/></g>
<g><path style="opacity:1" fill="#d9a36a" d="M 242.5,182.5 C 239.88,184.105 237.047,185.438 234,186.5C 232.973,189.662 231.806,192.662 230.5,195.5C 230.5,194.167 230.5,192.833 230.5,191.5C 230.5,190.167 230.5,188.833 230.5,187.5C 220.51,186.156 216.177,190.49 217.5,200.5C 217.5,201.167 217.5,201.833 217.5,202.5C 217.294,204.549 216.461,204.883 215,203.5C 214.506,201.866 214.34,200.199 214.5,198.5C 215.167,195.5 215.833,192.5 216.5,189.5C 219.841,187.5 223.507,186.5 227.5,186.5C 229.288,186.785 230.955,186.452 232.5,185.5C 233.09,184.201 234.09,183.368 235.5,183C 237.81,182.503 240.143,182.337 242.5,182.5 Z"/></g>
<g><path style="opacity:1" fill="#fab663" d="M 230.5,191.5 C 228.801,191.34 227.134,191.506 225.5,192C 221.953,194.216 219.286,197.049 217.5,200.5C 216.177,190.49 220.51,186.156 230.5,187.5C 230.5,188.833 230.5,190.167 230.5,191.5 Z"/></g>
<g><path style="opacity:1" fill="#dbdada" d="M 289.5,167.5 C 288.121,180.902 283.455,192.902 275.5,203.5C 273.735,202.539 271.735,202.205 269.5,202.5C 269.343,201.127 269.51,199.793 270,198.5C 272.946,194.34 275.446,190.007 277.5,185.5C 276.242,189.762 275.742,194.096 276,198.5C 276.833,197.667 277.667,196.833 278.5,196C 277.477,193.226 277.477,190.393 278.5,187.5C 279.5,187.5 280.5,187.5 281.5,187.5C 281.337,185.143 281.503,182.81 282,180.5C 282.333,181.167 282.667,181.833 283,182.5C 284.122,180.58 284.956,178.58 285.5,176.5C 283.599,176.754 282.933,176.42 283.5,175.5C 285.511,173.333 286.678,170.666 287,167.5C 287.333,168.833 287.667,170.167 288,171.5C 288.21,169.942 288.71,168.609 289.5,167.5 Z"/></g>
<g><path style="opacity:1" fill="#fbc882" d="M 230.5,191.5 C 230.5,192.833 230.5,194.167 230.5,195.5C 228.799,196.525 227.465,198.025 226.5,200C 227.291,201.101 227.291,201.934 226.5,202.5C 225.719,201.271 225.219,199.938 225,198.5C 223.315,200.017 221.815,201.684 220.5,203.5C 219.583,202.873 218.583,202.539 217.5,202.5C 217.5,201.833 217.5,201.167 217.5,200.5C 219.286,197.049 221.953,194.216 225.5,192C 227.134,191.506 228.801,191.34 230.5,191.5 Z"/></g>
<g><path style="opacity:1" fill="#dfdada" d="M 115.5,141.5 C 115.177,148.022 115.51,154.355 116.5,160.5C 116.111,163.553 116.777,166.22 118.5,168.5C 119.541,174.387 121.208,180.054 123.5,185.5C 124.62,188.387 125.62,191.387 126.5,194.5C 131.788,201.654 137.121,208.654 142.5,215.5C 134.478,210.3 128.311,203.3 124,194.5C 121.383,185.315 118.383,176.315 115,167.5C 114.176,158.657 114.343,149.99 115.5,141.5 Z"/></g>
<g><path style="opacity:1" fill="#f3d7f3" d="M 183.5,191.5 C 187.68,197.523 189.847,204.19 190,211.5C 188.961,212.71 187.794,213.71 186.5,214.5C 182.901,214.738 182.567,213.738 185.5,211.5C 185.376,210.893 185.043,210.56 184.5,210.5C 182.011,202.109 179.678,193.609 177.5,185C 177.667,184.5 177.833,184 178,183.5C 178.665,187.041 180.498,189.708 183.5,191.5 Z"/></g>
<g><path style="opacity:1" fill="#ecc395" d="M 230.5,195.5 C 229.796,200.29 228.129,204.623 225.5,208.5C 224.313,207.466 223.48,206.133 223,204.5C 219.073,207.045 215.573,210.045 212.5,213.5C 211.38,209.983 211.38,206.316 212.5,202.5C 212.66,200.847 213.326,199.514 214.5,198.5C 214.34,200.199 214.506,201.866 215,203.5C 216.461,204.883 217.294,204.549 217.5,202.5C 218.583,202.539 219.583,202.873 220.5,203.5C 221.815,201.684 223.315,200.017 225,198.5C 225.219,199.938 225.719,201.271 226.5,202.5C 227.291,201.934 227.291,201.101 226.5,200C 227.465,198.025 228.799,196.525 230.5,195.5 Z"/></g>
<g><path style="opacity:1" fill="#d9d7d7" d="M 281.5,169.5 C 281.149,175.194 279.815,180.528 277.5,185.5C 275.446,190.007 272.946,194.34 270,198.5C 269.51,199.793 269.343,201.127 269.5,202.5C 271.735,202.205 273.735,202.539 275.5,203.5C 269.235,214.099 260.902,222.766 250.5,229.5C 249.85,227.565 249.517,225.565 249.5,223.5C 250.833,223.5 252.167,223.5 253.5,223.5C 253.883,219.646 255.883,218.313 259.5,219.5C 261.673,216.828 264.173,214.494 267,212.5C 267.215,210.58 266.548,208.914 265,207.5C 264.385,209.116 263.385,210.449 262,211.5C 261.517,210.552 261.351,209.552 261.5,208.5C 263.803,206.022 265.969,203.355 268,200.5C 269.556,195.72 271.889,191.387 275,187.5C 275.353,184.461 276.52,181.795 278.5,179.5C 279.223,177.218 279.557,174.884 279.5,172.5C 280.167,171.5 280.833,170.5 281.5,169.5 Z"/></g>
<g><path style="opacity:1" fill="#cfa4ca" d="M 172.5,202.5 C 174.484,203.983 176.317,205.649 178,207.5C 180.368,208.2 182.534,209.2 184.5,210.5C 185.043,210.56 185.376,210.893 185.5,211.5C 182.567,213.738 182.901,214.738 186.5,214.5C 183.893,215.802 181.227,215.636 178.5,214C 175.837,210.507 173.837,206.673 172.5,202.5 Z"/></g>
<g><path style="opacity:1" fill="#e7e5e5" d="M 125.5,176.5 C 130.999,190.681 139.333,203.014 150.5,213.5C 149.957,213.56 149.624,213.893 149.5,214.5C 151.657,216.822 153.99,218.989 156.5,221C 156.167,221.167 155.833,221.333 155.5,221.5C 150.729,220.279 146.396,218.279 142.5,215.5C 137.121,208.654 131.788,201.654 126.5,194.5C 125.62,191.387 124.62,188.387 123.5,185.5C 124.473,186.984 125.807,187.484 127.5,187C 126.475,184.929 125.642,182.762 125,180.5C 124.331,183.028 123.498,183.028 122.5,180.5C 123.826,179.358 124.826,178.024 125.5,176.5 Z"/></g>
<g><path style="opacity:1" fill="#d4b09f" d="M 212.5,202.5 C 211.38,206.316 211.38,209.983 212.5,213.5C 210.167,215.167 208.167,217.167 206.5,219.5C 205.417,219.461 204.417,219.127 203.5,218.5C 202.476,219.853 201.143,220.52 199.5,220.5C 204.64,215.035 208.973,209.035 212.5,202.5 Z"/></g>
<g><path style="opacity:1" fill="#5e5757" d="M 120.5,199.5 C 122.062,199.733 123.395,200.4 124.5,201.5C 124.833,201.5 125.167,201.5 125.5,201.5C 125.491,203.308 125.991,204.975 127,206.5C 132.344,212.676 137.844,218.676 143.5,224.5C 145.955,225.355 148.288,226.355 150.5,227.5C 152.279,228.67 153.279,230.336 153.5,232.5C 138.833,225.167 127.833,214.167 120.5,199.5 Z"/></g>
<g><path style="opacity:1" fill="#9b8683" d="M 271.5,180.5 C 271.7,184.453 271.033,188.453 269.5,192.5C 263.748,199.21 258.081,206.043 252.5,213C 248.688,216.336 244.355,218.503 239.5,219.5C 253.824,209.509 264.49,196.509 271.5,180.5 Z"/></g>
<g><path style="opacity:1" fill="#ebdac8" d="M 225.5,208.5 C 222.893,216.057 218.56,222.39 212.5,227.5C 210.961,224.722 208.628,222.889 205.5,222C 206.252,221.329 206.586,220.496 206.5,219.5C 208.167,217.167 210.167,215.167 212.5,213.5C 215.573,210.045 219.073,207.045 223,204.5C 223.48,206.133 224.313,207.466 225.5,208.5 Z"/></g>
<g><path style="opacity:1" fill="#a59b9b" d="M 125.5,201.5 C 128.757,205.935 132.257,210.268 136,214.5C 138.92,216.134 141.754,217.967 144.5,220C 146.388,222.707 148.388,225.207 150.5,227.5C 148.288,226.355 145.955,225.355 143.5,224.5C 137.844,218.676 132.344,212.676 127,206.5C 125.991,204.975 125.491,203.308 125.5,201.5 Z"/></g>
<g><path style="opacity:1" fill="#dfdddc" d="M 250.5,229.5 C 248.474,228.473 246.641,227.139 245,225.5C 240.356,227.442 236.523,230.442 233.5,234.5C 232.583,235.127 231.583,235.461 230.5,235.5C 228.314,235.489 227.481,234.489 228,232.5C 232.265,230.254 236.432,227.92 240.5,225.5C 241.842,224.207 243.509,223.374 245.5,223C 251.029,218.301 256.362,213.468 261.5,208.5C 261.351,209.552 261.517,210.552 262,211.5C 263.385,210.449 264.385,209.116 265,207.5C 266.548,208.914 267.215,210.58 267,212.5C 264.173,214.494 261.673,216.828 259.5,219.5C 255.883,218.313 253.883,219.646 253.5,223.5C 252.167,223.5 250.833,223.5 249.5,223.5C 249.517,225.565 249.85,227.565 250.5,229.5 Z"/></g>
<g><path style="opacity:1" fill="#e0dddd" d="M 150.5,213.5 C 158.533,219.682 167.533,224.015 177.5,226.5C 180.305,227.319 183.305,227.819 186.5,228C 184.167,228.333 181.833,228.667 179.5,229C 181.589,230.171 183.589,231.504 185.5,233C 183.581,234.934 182.081,234.767 181,232.5C 179.041,233.044 177.208,233.377 175.5,233.5C 172.518,233.037 169.518,232.704 166.5,232.5C 165.833,232.5 165.167,232.5 164.5,232.5C 163.103,230.621 161.437,228.954 159.5,227.5C 152.889,224.707 147.222,220.707 142.5,215.5C 146.396,218.279 150.729,220.279 155.5,221.5C 155.833,221.333 156.167,221.167 156.5,221C 153.99,218.989 151.657,216.822 149.5,214.5C 149.624,213.893 149.957,213.56 150.5,213.5 Z"/></g>
<g><path style="opacity:1" fill="#dcd8d7" d="M 206.5,219.5 C 206.586,220.496 206.252,221.329 205.5,222C 208.628,222.889 210.961,224.722 212.5,227.5C 212.5,228.167 212.167,228.5 211.5,228.5C 210.691,229.469 209.691,230.302 208.5,231C 204.576,231.26 200.909,232.26 197.5,234C 198.833,235 200.167,236 201.5,237C 192.47,237.622 183.803,236.456 175.5,233.5C 177.208,233.377 179.041,233.044 181,232.5C 182.081,234.767 183.581,234.934 185.5,233C 183.589,231.504 181.589,230.171 179.5,229C 181.833,228.667 184.167,228.333 186.5,228C 183.305,227.819 180.305,227.319 177.5,226.5C 181.514,226.666 185.514,226.499 189.5,226C 193.016,224.41 196.35,222.577 199.5,220.5C 201.143,220.52 202.476,219.853 203.5,218.5C 204.417,219.127 205.417,219.461 206.5,219.5 Z"/></g>
<g><path style="opacity:1" fill="#d9d4d4" d="M 240.5,225.5 C 236.432,227.92 232.265,230.254 228,232.5C 227.481,234.489 228.314,235.489 230.5,235.5C 229.766,236.708 229.433,238.041 229.5,239.5C 227.94,239.481 226.44,239.148 225,238.5C 215.578,240.107 206.078,240.774 196.5,240.5C 187.988,240.167 179.654,238.667 171.5,236C 169.119,235.777 167.453,234.61 166.5,232.5C 169.518,232.704 172.518,233.037 175.5,233.5C 183.803,236.456 192.47,237.622 201.5,237C 200.167,236 198.833,235 197.5,234C 200.909,232.26 204.576,231.26 208.5,231C 209.691,230.302 210.691,229.469 211.5,228.5C 211.842,229.338 212.508,229.672 213.5,229.5C 216.316,230.144 218.982,230.477 221.5,230.5C 227.97,229.237 234.303,227.57 240.5,225.5 Z"/></g>
<g><path style="opacity:1" fill="#686161" d="M 153.5,232.5 C 155.199,232.34 156.866,232.506 158.5,233C 165.41,235.958 172.076,239.124 178.5,242.5C 169.476,240.718 161.143,237.385 153.5,232.5 Z"/></g>
<g><path style="opacity:1" fill="#b9b1b2" d="M 150.5,227.5 C 154.947,229.662 159.613,231.329 164.5,232.5C 165.167,232.5 165.833,232.5 166.5,232.5C 167.453,234.61 169.119,235.777 171.5,236C 179.654,238.667 187.988,240.167 196.5,240.5C 205.397,241.279 214.397,241.613 223.5,241.5C 220.781,242.913 217.781,243.58 214.5,243.5C 203.143,243.69 191.81,243.356 180.5,242.5C 179.833,242.5 179.167,242.5 178.5,242.5C 172.076,239.124 165.41,235.958 158.5,233C 156.866,232.506 155.199,232.34 153.5,232.5C 153.279,230.336 152.279,228.67 150.5,227.5 Z"/></g>
<g><path style="opacity:1" fill="#cbc6c6" d="M 250.5,229.5 C 242.398,235.382 233.398,239.382 223.5,241.5C 214.397,241.613 205.397,241.279 196.5,240.5C 206.078,240.774 215.578,240.107 225,238.5C 226.44,239.148 227.94,239.481 229.5,239.5C 229.433,238.041 229.766,236.708 230.5,235.5C 231.583,235.461 232.583,235.127 233.5,234.5C 236.523,230.442 240.356,227.442 245,225.5C 246.641,227.139 248.474,228.473 250.5,229.5 Z"/></g>
<g><path style="opacity:0.984" fill="#6c6766" d="M 180.5,242.5 C 191.81,243.356 203.143,243.69 214.5,243.5C 203.128,245.832 191.795,245.499 180.5,242.5 Z"/></g>
</svg>
