<?xml version="1.0" encoding="UTF-8"?>
<!DOCTYPE svg PUBLIC "-//W3C//DTD SVG 1.1//EN" "http://www.w3.org/Graphics/SVG/1.1/DTD/svg11.dtd">
<svg xmlns="http://www.w3.org/2000/svg" version="1.1" width="626px" height="352px" style="shape-rendering:geometricPrecision; text-rendering:geometricPrecision; image-rendering:optimizeQuality; fill-rule:evenodd; clip-rule:evenodd" xmlns:xlink="http://www.w3.org/1999/xlink">
<g><path style="opacity:0.481" fill="#b569c3" d="M 281.5,84.5 C 281.5,84.1667 281.5,83.8333 281.5,83.5C 314.168,83.3334 346.835,83.5 379.5,84C 380.737,84.2321 381.737,84.7321 382.5,85.5C 382.167,85.5 381.833,85.5 381.5,85.5C 374.877,84.6204 368.211,84.287 361.5,84.5C 334.833,84.5 308.167,84.5 281.5,84.5 Z"/></g>
<g><path style="opacity:0.688" fill="#dd6b52" d="M 281.5,83.5 C 281.5,83.8333 281.5,84.1667 281.5,84.5C 280.508,84.3284 279.842,84.6618 279.5,85.5C 273.167,85.5 266.833,85.5 260.5,85.5C 262.831,84.6827 265.331,84.0161 268,83.5C 272.419,83.8513 276.919,83.8513 281.5,83.5 Z"/></g>
<g><path style="opacity:0.991" fill="#fec1fb" d="M 279.5,85.5 C 279.842,84.6618 280.508,84.3284 281.5,84.5C 308.167,84.5 334.833,84.5 361.5,84.5C 361.082,85.2216 360.416,85.7216 359.5,86C 361.382,86.1981 363.048,86.6981 364.5,87.5C 363.508,87.3284 362.842,87.6618 362.5,88.5C 361.5,88.5 360.5,88.5 359.5,88.5C 333.5,88.5 307.5,88.5 281.5,88.5C 281.715,86.8212 281.048,85.8212 279.5,85.5 Z"/></g>
<g><path style="opacity:0.999" fill="#ebdaff" d="M 361.5,84.5 C 368.211,84.287 374.877,84.6204 381.5,85.5C 381.918,86.2216 382.584,86.7216 383.5,87C 382.833,87.3333 382.167,87.6667 381.5,88C 375.833,88.2417 370.167,88.0751 364.5,87.5C 363.048,86.6981 361.382,86.1981 359.5,86C 360.416,85.7216 361.082,85.2216 361.5,84.5 Z"/></g>
<g><path style="opacity:1" fill="#f2a581" d="M 260.5,85.5 C 266.833,85.5 273.167,85.5 279.5,85.5C 281.048,85.8212 281.715,86.8212 281.5,88.5C 281.062,88.4346 280.728,88.6012 280.5,89C 281.737,89.2321 282.737,89.7321 283.5,90.5C 274.792,90.2555 266.126,90.5888 257.5,91.5C 254.626,91.6234 252.126,92.6234 250,94.5C 248.989,93.6634 247.822,93.33 246.5,93.5C 246.953,92.5416 247.619,91.7083 248.5,91C 252.71,89.3914 256.71,87.5581 260.5,85.5 Z"/></g>
<g><path style="opacity:0.341" fill="#c259ad" d="M 281.5,88.5 C 307.5,88.5 333.5,88.5 359.5,88.5C 334.326,89.2556 308.992,89.9223 283.5,90.5C 282.737,89.7321 281.737,89.2321 280.5,89C 280.728,88.6012 281.062,88.4346 281.5,88.5 Z"/></g>
<g><path style="opacity:0.965" fill="#ad97e2" d="M 381.5,85.5 C 381.833,85.5 382.167,85.5 382.5,85.5C 388.805,86.812 394.138,89.812 398.5,94.5C 396.574,93.7577 394.741,92.7577 393,91.5C 392.667,91.8333 392.333,92.1667 392,92.5C 390.192,90.5971 388.192,88.9304 386,87.5C 382.985,88.3589 382.819,89.6922 385.5,91.5C 377.957,89.6608 370.291,88.6608 362.5,88.5C 362.842,87.6618 363.508,87.3284 364.5,87.5C 370.167,88.0751 375.833,88.2417 381.5,88C 382.167,87.6667 382.833,87.3333 383.5,87C 382.584,86.7216 381.918,86.2216 381.5,85.5 Z"/></g>
<g><path style="opacity:0.357" fill="#d96d4e" d="M 260.5,85.5 C 256.71,87.5581 252.71,89.3914 248.5,91C 247.619,91.7083 246.953,92.5416 246.5,93.5C 244.833,94.1667 243.167,94.8333 241.5,95.5C 246.524,89.8199 252.857,86.4866 260.5,85.5 Z"/></g>
<g><path style="opacity:1" fill="#e9946e" d="M 257.5,91.5 C 251.318,94.3458 245.985,98.3458 241.5,103.5C 241.414,102.504 241.748,101.671 242.5,101C 241.619,100.292 240.953,99.4584 240.5,98.5C 240.5,97.8333 240.5,97.1667 240.5,96.5C 241.167,96.5 241.5,96.1667 241.5,95.5C 243.167,94.8333 244.833,94.1667 246.5,93.5C 247.822,93.33 248.989,93.6634 250,94.5C 252.126,92.6234 254.626,91.6234 257.5,91.5 Z"/></g>
<g><path style="opacity:1" fill="#cab8ef" d="M 398.5,94.5 C 401.544,96.9093 403.878,99.9093 405.5,103.5C 404.179,101.58 402.846,101.413 401.5,103C 402.171,103.986 402.171,105.153 401.5,106.5C 397.452,100.118 392.118,95.1178 385.5,91.5C 382.819,89.6922 382.985,88.3589 386,87.5C 388.192,88.9304 390.192,90.5971 392,92.5C 392.333,92.1667 392.667,91.8333 393,91.5C 394.741,92.7577 396.574,93.7577 398.5,94.5 Z"/></g>
<g><path style="opacity:0.757" fill="#d86e4e" d="M 274.5,103.5 C 270.167,103.5 265.833,103.5 261.5,103.5C 265.863,100.91 270.196,100.91 274.5,103.5 Z"/></g>
<g><path style="opacity:0.529" fill="#cd5f40" d="M 261.5,103.5 C 259.5,106.167 257.167,108.5 254.5,110.5C 255.833,107.167 258.167,104.833 261.5,103.5 Z"/></g>
<g><path style="opacity:0.89" fill="#d9724f" d="M 240.5,96.5 C 240.5,97.1667 240.5,97.8333 240.5,98.5C 236.539,102.333 233.873,106.999 232.5,112.5C 231.732,113.263 231.232,114.263 231,115.5C 230.5,130.163 230.333,144.83 230.5,159.5C 229.504,146.344 229.171,133.01 229.5,119.5C 230.24,110.357 233.906,102.69 240.5,96.5 Z"/></g>
<g><path style="opacity:1" fill="#fcbf96" d="M 261.5,103.5 C 265.833,103.5 270.167,103.5 274.5,103.5C 275.742,105.25 277.242,106.917 279,108.5C 279.78,110.387 279.613,112.054 278.5,113.5C 278.167,112.5 277.5,111.833 276.5,111.5C 275.167,110.5 273.833,109.5 272.5,108.5C 272.389,107.883 272.056,107.383 271.5,107C 269.167,106.333 266.833,106.333 264.5,107C 262.574,107.422 261.574,108.589 261.5,110.5C 261.167,110.5 260.833,110.5 260.5,110.5C 259.21,111.058 258.377,112.058 258,113.5C 257.997,117.567 257.83,121.567 257.5,125.5C 255.674,123.853 254.34,121.853 253.5,119.5C 253.739,117.533 253.406,115.699 252.5,114C 253.085,112.698 253.751,111.531 254.5,110.5C 257.167,108.5 259.5,106.167 261.5,103.5 Z"/></g>
<g><path style="opacity:0.349" fill="#d05b3d" d="M 272.5,108.5 C 268.351,106.664 264.685,107.331 261.5,110.5C 261.574,108.589 262.574,107.422 264.5,107C 266.833,106.333 269.167,106.333 271.5,107C 272.056,107.383 272.389,107.883 272.5,108.5 Z"/></g>
<g><path style="opacity:1" fill="#f29e86" d="M 274.5,103.5 C 278.968,104.965 281.635,107.965 282.5,112.5C 282.5,115.5 282.5,118.5 282.5,121.5C 282.741,124.034 281.741,125.7 279.5,126.5C 281.668,123.876 281.835,121.21 280,118.5C 279.722,119.416 279.222,120.082 278.5,120.5C 278.5,118.167 278.5,115.833 278.5,113.5C 279.613,112.054 279.78,110.387 279,108.5C 277.242,106.917 275.742,105.25 274.5,103.5 Z"/></g>
<g><path style="opacity:0.431" fill="#b74943" d="M 282.5,112.5 C 285.017,115.461 285.017,118.461 282.5,121.5C 282.5,118.5 282.5,115.5 282.5,112.5 Z"/></g>
<g><path style="opacity:1" fill="#e1d2fd" d="M 405.5,103.5 C 407.677,106.518 409.177,109.518 410,112.5C 410.5,125.162 410.667,137.829 410.5,150.5C 410.5,174.833 410.5,199.167 410.5,223.5C 410.5,224.5 410.5,225.5 410.5,226.5C 410.167,226.5 409.833,226.5 409.5,226.5C 409.83,209.325 409.497,192.325 408.5,175.5C 408.284,169.491 408.284,163.491 408.5,157.5C 408.122,155.283 407.455,153.283 406.5,151.5C 406.828,140.654 406.494,129.987 405.5,119.5C 405.785,116.171 405.118,113.171 403.5,110.5C 402.326,109.486 401.66,108.153 401.5,106.5C 402.171,105.153 402.171,103.986 401.5,103C 402.846,101.413 404.179,101.58 405.5,103.5 Z"/></g>
<g><path style="opacity:1" fill="#fcc196" d="M 240.5,98.5 C 240.953,99.4584 241.619,100.292 242.5,101C 241.748,101.671 241.414,102.504 241.5,103.5C 240.737,105.368 239.737,107.035 238.5,108.5C 234.995,113.835 233.329,119.835 233.5,126.5C 232.223,125.306 231.556,123.64 231.5,121.5C 231.768,118.483 232.102,115.483 232.5,112.5C 233.873,106.999 236.539,102.333 240.5,98.5 Z"/></g>
<g><path style="opacity:0.329" fill="#8170cd" d="M 403.5,110.5 C 405.118,113.171 405.785,116.171 405.5,119.5C 404.343,116.727 403.676,113.727 403.5,110.5 Z"/></g>
<g><path style="opacity:0.557" fill="#c65d41" d="M 276.5,111.5 C 277.5,111.833 278.167,112.5 278.5,113.5C 278.5,115.833 278.5,118.167 278.5,120.5C 277.367,123.971 275.033,125.971 271.5,126.5C 276.931,122.875 278.597,117.875 276.5,111.5 Z"/></g>
<g><path style="opacity:1" fill="#dd7b59" d="M 260.5,110.5 C 258.767,113.271 258.1,116.104 258.5,119C 259.758,120.741 260.758,122.574 261.5,124.5C 260.078,124.75 259.078,125.583 258.5,127C 259.449,127.617 260.282,127.451 261,126.5C 262.32,129.901 264.82,131.235 268.5,130.5C 271.247,130.537 273.414,129.537 275,127.5C 276.145,128.684 277.312,128.684 278.5,127.5C 276.948,129.959 274.615,131.459 271.5,132C 265.505,133.247 260.338,131.747 256,127.5C 254.833,125.167 253.667,122.833 252.5,120.5C 252.624,119.893 252.957,119.56 253.5,119.5C 254.34,121.853 255.674,123.853 257.5,125.5C 257.83,121.567 257.997,117.567 258,113.5C 258.377,112.058 259.21,111.058 260.5,110.5 Z"/></g>
<g><path style="opacity:1" fill="#fec29e" d="M 279.5,126.5 C 279.5,127.167 279.167,127.5 278.5,127.5C 277.312,128.684 276.145,128.684 275,127.5C 273.414,129.537 271.247,130.537 268.5,130.5C 264.82,131.235 262.32,129.901 261,126.5C 260.282,127.451 259.449,127.617 258.5,127C 259.078,125.583 260.078,124.75 261.5,124.5C 261.953,125.458 262.619,126.292 263.5,127C 266.367,127.801 269.034,127.634 271.5,126.5C 275.033,125.971 277.367,123.971 278.5,120.5C 279.222,120.082 279.722,119.416 280,118.5C 281.835,121.21 281.668,123.876 279.5,126.5 Z"/></g>
<g><path style="opacity:0.11" fill="#d35b37" d="M 261.5,124.5 C 264.552,126.178 267.885,126.845 271.5,126.5C 269.034,127.634 266.367,127.801 263.5,127C 262.619,126.292 261.953,125.458 261.5,124.5 Z"/></g>
<g><path style="opacity:0.707" fill="#f0896e" d="M 238.5,108.5 C 236.059,115.234 234.726,122.234 234.5,129.5C 234.5,134.167 234.5,138.833 234.5,143.5C 234.167,143.5 233.833,143.5 233.5,143.5C 233.5,137.833 233.5,132.167 233.5,126.5C 233.329,119.835 234.995,113.835 238.5,108.5 Z"/></g>
<g><path style="opacity:0.655" fill="#c768c8" d="M 312.5,131.5 C 320.342,129.868 328.009,130.534 335.5,133.5C 332.14,133.384 328.807,133.051 325.5,132.5C 321.366,131.515 317.032,131.182 312.5,131.5 Z"/></g>
<g><path style="opacity:1" fill="#f4a37e" d="M 232.5,112.5 C 232.102,115.483 231.768,118.483 231.5,121.5C 231.556,123.64 232.223,125.306 233.5,126.5C 233.5,132.167 233.5,137.833 233.5,143.5C 231.519,156.458 230.852,169.791 231.5,183.5C 231.5,198.5 231.5,213.5 231.5,228.5C 229.971,223.084 229.305,217.417 229.5,211.5C 229.75,204.491 230.084,197.491 230.5,190.5C 230.5,180.167 230.5,169.833 230.5,159.5C 230.333,144.83 230.5,130.163 231,115.5C 231.232,114.263 231.732,113.263 232.5,112.5 Z"/></g>
<g><path style="opacity:0.998" fill="#f5b0ed" d="M 312.5,131.5 C 317.032,131.182 321.366,131.515 325.5,132.5C 321.818,132.335 318.152,132.501 314.5,133C 313.429,133.852 312.429,134.685 311.5,135.5C 307.169,137.33 303.169,139.663 299.5,142.5C 296.694,145.728 293.694,148.728 290.5,151.5C 287.834,151.934 286.667,150.934 287,148.5C 291.062,144.269 295.229,140.269 299.5,136.5C 303.237,133.473 307.57,131.807 312.5,131.5 Z"/></g>
<g><path style="opacity:0.486" fill="#bf5eb7" d="M 311.5,135.5 C 316.844,135.334 322.177,135.501 327.5,136C 329.852,136.24 331.852,137.073 333.5,138.5C 321.589,134.992 310.256,136.326 299.5,142.5C 303.169,139.663 307.169,137.33 311.5,135.5 Z"/></g>
<g><path style="opacity:0.62" fill="#c077cf" d="M 335.5,133.5 C 341.594,135.272 346.594,138.606 350.5,143.5C 346.176,140.335 341.51,137.668 336.5,135.5C 336.137,134.817 335.804,134.15 335.5,133.5 Z"/></g>
<g><path style="opacity:0.988" fill="#fabffb" d="M 325.5,132.5 C 328.807,133.051 332.14,133.384 335.5,133.5C 335.804,134.15 336.137,134.817 336.5,135.5C 341.51,137.668 346.176,140.335 350.5,143.5C 350.5,144.5 350.5,145.5 350.5,146.5C 349.5,146.5 348.5,146.5 347.5,146.5C 345.754,144.748 343.754,143.415 341.5,142.5C 338.86,141.18 336.193,139.847 333.5,138.5C 331.852,137.073 329.852,136.24 327.5,136C 322.177,135.501 316.844,135.334 311.5,135.5C 312.429,134.685 313.429,133.852 314.5,133C 318.152,132.501 321.818,132.335 325.5,132.5 Z"/></g>
<g><path style="opacity:0.247" fill="#a056b0" d="M 341.5,142.5 C 343.754,143.415 345.754,144.748 347.5,146.5C 348.6,147.605 349.267,148.938 349.5,150.5C 346.5,148.167 343.833,145.5 341.5,142.5 Z"/></g>
<g><path style="opacity:0.975" fill="#d79ce4" d="M 350.5,143.5 C 354.336,146.678 357.002,150.678 358.5,155.5C 355.724,153.967 353.89,151.634 353,148.5C 352.13,149.108 351.63,149.941 351.5,151C 353.013,152.879 353.679,155.046 353.5,157.5C 351.929,155.365 350.596,153.032 349.5,150.5C 349.267,148.938 348.6,147.605 347.5,146.5C 348.5,146.5 349.5,146.5 350.5,146.5C 350.5,145.5 350.5,144.5 350.5,143.5 Z"/></g>
<g><path style="opacity:1" fill="#d977a5" d="M 299.5,136.5 C 295.229,140.269 291.062,144.269 287,148.5C 286.667,150.934 287.834,151.934 290.5,151.5C 289.532,154.1 288.199,156.434 286.5,158.5C 288.036,151.449 286.703,150.782 282.5,156.5C 282.167,156.5 281.833,156.5 281.5,156.5C 285.052,147.616 291.052,140.949 299.5,136.5 Z"/></g>
<g><path style="opacity:1" fill="#e2d5ff" d="M 406.5,151.5 C 407.455,153.283 408.122,155.283 408.5,157.5C 408.284,163.491 408.284,169.491 408.5,175.5C 407.833,190.5 407.167,205.5 406.5,220.5C 406.5,197.5 406.5,174.5 406.5,151.5 Z"/></g>
<g><path style="opacity:1" fill="#fbccfe" d="M 358.5,155.5 C 358.873,158.574 359.539,161.574 360.5,164.5C 360.666,169.179 360.499,173.845 360,178.5C 359.085,179.328 358.419,180.328 358,181.5C 357.517,180.552 357.351,179.552 357.5,178.5C 357.666,173.821 357.499,169.155 357,164.5C 356.626,162.509 355.793,160.842 354.5,159.5C 354.167,158.833 353.833,158.167 353.5,157.5C 353.679,155.046 353.013,152.879 351.5,151C 351.63,149.941 352.13,149.108 353,148.5C 353.89,151.634 355.724,153.967 358.5,155.5 Z"/></g>
<g><path style="opacity:1" fill="#ffca9d" d="M 233.5,143.5 C 233.667,155.505 233.5,167.505 233,179.5C 232.79,181.058 232.29,182.391 231.5,183.5C 230.852,169.791 231.519,156.458 233.5,143.5 Z"/></g>
<g><path style="opacity:0.024" fill="#ab2308" d="M 229.5,119.5 C 229.171,133.01 229.504,146.344 230.5,159.5C 230.5,169.833 230.5,180.167 230.5,190.5C 229.043,176.027 228.376,161.36 228.5,146.5C 228.5,137.327 228.834,128.327 229.5,119.5 Z"/></g>
<g><path style="opacity:0.545" fill="#d1595c" d="M 281.5,157.5 C 281.3,160.63 280.634,163.63 279.5,166.5C 278.903,166.265 278.57,165.765 278.5,165C 279.233,162.28 280.233,159.78 281.5,157.5 Z"/></g>
<g><path style="opacity:0.58" fill="#a56fc4" d="M 358.5,155.5 C 360.472,158.084 361.472,161.084 361.5,164.5C 361.167,164.5 360.833,164.5 360.5,164.5C 359.539,161.574 358.873,158.574 358.5,155.5 Z"/></g>
<g><path style="opacity:0.518" fill="#cd5767" d="M 286.5,159.5 C 286.335,161.827 285.669,163.993 284.5,166C 284.929,169.047 284.929,172.214 284.5,175.5C 283.355,171.689 283.188,167.689 284,163.5C 284.2,161.68 285.034,160.347 286.5,159.5 Z"/></g>
<g><path style="opacity:0.215" fill="#5a43bb" d="M 410.5,150.5 C 411.214,165.346 411.88,180.346 412.5,195.5C 412.457,202.841 412.457,210.174 412.5,217.5C 412.122,219.717 411.455,221.717 410.5,223.5C 410.5,199.167 410.5,174.833 410.5,150.5 Z"/></g>
<g><path style="opacity:0.857" fill="#ef968c" d="M 281.5,156.5 C 281.833,156.5 282.167,156.5 282.5,156.5C 282.157,161.206 281.491,165.873 280.5,170.5C 280.156,176.816 280.823,183.15 282.5,189.5C 280.895,186.88 279.562,184.047 278.5,181C 278.348,176.2 278.681,171.367 279.5,166.5C 280.634,163.63 281.3,160.63 281.5,157.5C 281.5,157.167 281.5,156.833 281.5,156.5 Z"/></g>
<g><path style="opacity:0.212" fill="#9b5bbb" d="M 354.5,159.5 C 355.793,160.842 356.626,162.509 357,164.5C 357.499,169.155 357.666,173.821 357.5,178.5C 356.833,179.833 356.167,181.167 355.5,182.5C 355.062,182.565 354.728,182.399 354.5,182C 356.943,174.551 356.943,167.051 354.5,159.5 Z"/></g>
<g><path style="opacity:0.278" fill="#8947b5" d="M 361.5,164.5 C 362.164,167.146 362.498,169.979 362.5,173C 362.714,177.133 362.048,180.966 360.5,184.5C 361.331,177.869 361.664,171.202 361.5,164.5 Z"/></g>
<g><path style="opacity:1" fill="#eaddfe" d="M 408.5,175.5 C 409.497,192.325 409.83,209.325 409.5,226.5C 408.699,228.042 408.366,229.708 408.5,231.5C 408.5,231.833 408.5,232.167 408.5,232.5C 407.599,233.29 406.932,234.29 406.5,235.5C 405.788,236.739 404.788,237.239 403.5,237C 403.726,234.731 404.059,232.231 404.5,229.5C 406.118,226.829 406.785,223.829 406.5,220.5C 407.167,205.5 407.833,190.5 408.5,175.5 Z"/></g>
<g><path style="opacity:0.986" fill="#fec1c7" d="M 286.5,158.5 C 286.5,158.833 286.5,159.167 286.5,159.5C 285.034,160.347 284.2,161.68 284,163.5C 283.188,167.689 283.355,171.689 284.5,175.5C 284.5,177.167 284.5,178.833 284.5,180.5C 284.56,183.341 285.226,186.007 286.5,188.5C 286.5,189.5 286.5,190.5 286.5,191.5C 285.5,191.5 284.5,191.5 283.5,191.5C 282.662,191.158 282.328,190.492 282.5,189.5C 280.823,183.15 280.156,176.816 280.5,170.5C 281.491,165.873 282.157,161.206 282.5,156.5C 286.703,150.782 288.036,151.449 286.5,158.5 Z"/></g>
<g><path style="opacity:0.998" fill="#f0bdf7" d="M 360.5,164.5 C 360.833,164.5 361.167,164.5 361.5,164.5C 361.664,171.202 361.331,177.869 360.5,184.5C 360.598,186.553 359.931,188.22 358.5,189.5C 356.509,191.802 354.509,193.469 352.5,194.5C 351.614,193.675 351.281,192.675 351.5,191.5C 352.561,188.378 353.895,185.378 355.5,182.5C 356.167,181.167 356.833,179.833 357.5,178.5C 357.351,179.552 357.517,180.552 358,181.5C 358.419,180.328 359.085,179.328 360,178.5C 360.499,173.845 360.666,169.179 360.5,164.5 Z"/></g>
<g><path style="opacity:0.408" fill="#dc6987" d="M 284.5,180.5 C 286.287,183.968 287.62,187.635 288.5,191.5C 287.833,190.5 287.167,189.5 286.5,188.5C 285.226,186.007 284.56,183.341 284.5,180.5 Z"/></g>
<g><path style="opacity:1" fill="#f2aadc" d="M 286.5,188.5 C 287.167,189.5 287.833,190.5 288.5,191.5C 291.2,193.234 293.2,195.568 294.5,198.5C 295.625,200.129 296.959,201.629 298.5,203C 296.975,204.009 295.308,204.509 293.5,204.5C 288.642,201.312 285.308,196.979 283.5,191.5C 284.5,191.5 285.5,191.5 286.5,191.5C 286.5,190.5 286.5,189.5 286.5,188.5 Z"/></g>
<g><path style="opacity:0.985" fill="#de9de6" d="M 358.5,189.5 C 356.348,196.648 352.015,201.981 345.5,205.5C 347.93,203.704 347.93,202.037 345.5,200.5C 343.512,201.289 343.179,202.455 344.5,204C 341.348,203.225 338.682,204.225 336.5,207C 334.866,207.494 333.199,207.66 331.5,207.5C 339.636,204.033 346.303,198.7 351.5,191.5C 351.281,192.675 351.614,193.675 352.5,194.5C 354.509,193.469 356.509,191.802 358.5,189.5 Z"/></g>
<g><path style="opacity:0.999" fill="#fec29b" d="M 233.5,143.5 C 233.833,143.5 234.167,143.5 234.5,143.5C 234.333,170.169 234.5,196.835 235,223.5C 235.232,224.737 235.732,225.737 236.5,226.5C 236.5,226.833 236.5,227.167 236.5,227.5C 236.365,229.924 236.032,231.924 235.5,233.5C 233.784,232.451 232.451,231.118 231.5,229.5C 231.5,229.167 231.5,228.833 231.5,228.5C 231.5,213.5 231.5,198.5 231.5,183.5C 232.29,182.391 232.79,181.058 233,179.5C 233.5,167.505 233.667,155.505 233.5,143.5 Z"/></g>
<g><path style="opacity:0.914" fill="#dd80c6" d="M 294.5,198.5 C 297.842,200.836 301.175,203.169 304.5,205.5C 302.105,204.637 299.771,204.637 297.5,205.5C 299.059,207.131 301.059,207.964 303.5,208C 302.402,208.77 302.402,209.603 303.5,210.5C 299.495,209.502 296.161,207.502 293.5,204.5C 295.308,204.509 296.975,204.009 298.5,203C 296.959,201.629 295.625,200.129 294.5,198.5 Z"/></g>
<g><path style="opacity:0.857" fill="#e997e0" d="M 304.5,205.5 C 306.921,205.878 309.254,206.545 311.5,207.5C 312.167,208.167 312.833,208.833 313.5,209.5C 313.36,211.124 314.027,212.29 315.5,213C 319.821,213.499 324.154,213.666 328.5,213.5C 323.35,214.651 318.016,214.817 312.5,214C 309.135,213.495 306.135,212.328 303.5,210.5C 302.402,209.603 302.402,208.77 303.5,208C 301.059,207.964 299.059,207.131 297.5,205.5C 299.771,204.637 302.105,204.637 304.5,205.5 Z"/></g>
<g><path style="opacity:0.118" fill="#c960c0" d="M 311.5,207.5 C 318.154,208.724 324.82,208.724 331.5,207.5C 330.391,208.29 329.058,208.79 327.5,209C 322.845,209.499 318.179,209.666 313.5,209.5C 312.833,208.833 312.167,208.167 311.5,207.5 Z"/></g>
<g><path style="opacity:0.972" fill="#f6b7f6" d="M 345.5,205.5 C 340.784,210.023 335.117,212.69 328.5,213.5C 324.154,213.666 319.821,213.499 315.5,213C 314.027,212.29 313.36,211.124 313.5,209.5C 318.179,209.666 322.845,209.499 327.5,209C 329.058,208.79 330.391,208.29 331.5,207.5C 333.199,207.66 334.866,207.494 336.5,207C 338.682,204.225 341.348,203.225 344.5,204C 343.179,202.455 343.512,201.289 345.5,200.5C 347.93,202.037 347.93,203.704 345.5,205.5 Z"/></g>
<g><path style="opacity:0.204" fill="#7d6ec6" d="M 405.5,119.5 C 406.494,129.987 406.828,140.654 406.5,151.5C 406.5,174.5 406.5,197.5 406.5,220.5C 406.785,223.829 406.118,226.829 404.5,229.5C 405.475,192.857 405.808,156.191 405.5,119.5 Z"/></g>
<g><path style="opacity:0.696" fill="#cc5c3e" d="M 234.5,129.5 C 236.441,161.728 237.108,194.062 236.5,226.5C 235.732,225.737 235.232,224.737 235,223.5C 234.5,196.835 234.333,170.169 234.5,143.5C 234.5,138.833 234.5,134.167 234.5,129.5 Z"/></g>
<g><path style="opacity:0.447" fill="#8770ce" d="M 409.5,226.5 C 409.833,226.5 410.167,226.5 410.5,226.5C 410.88,228.698 410.213,230.365 408.5,231.5C 408.366,229.708 408.699,228.042 409.5,226.5 Z"/></g>
<g><path style="opacity:0.18" fill="#6550b5" d="M 408.5,232.5 C 408.938,232.435 409.272,232.601 409.5,233C 408.601,234.652 407.601,236.152 406.5,237.5C 406.5,236.833 406.5,236.167 406.5,235.5C 406.932,234.29 407.599,233.29 408.5,232.5 Z"/></g>
<g><path style="opacity:0.898" fill="#e99670" d="M 236.5,227.5 C 238.023,231.424 239.689,235.424 241.5,239.5C 239.058,241.139 238.891,243.139 241,245.5C 243.871,249.143 247.371,250.476 251.5,249.5C 252.167,249.833 252.833,250.167 253.5,250.5C 253.082,251.222 252.416,251.722 251.5,252C 252.973,252.71 253.64,253.876 253.5,255.5C 248.356,253.533 243.856,250.533 240,246.5C 236.117,241.348 233.284,235.681 231.5,229.5C 232.451,231.118 233.784,232.451 235.5,233.5C 236.032,231.924 236.365,229.924 236.5,227.5 Z"/></g>
<g><path style="opacity:0.667" fill="#d06342" d="M 241.5,239.5 C 245.565,243.572 249.898,247.238 254.5,250.5C 254.167,250.5 253.833,250.5 253.5,250.5C 252.833,250.167 252.167,249.833 251.5,249.5C 247.145,247.145 243.812,243.812 241.5,239.5 Z"/></g>
<g><path style="opacity:0.959" fill="#fec59c" d="M 241.5,239.5 C 243.812,243.812 247.145,247.145 251.5,249.5C 247.371,250.476 243.871,249.143 241,245.5C 238.891,243.139 239.058,241.139 241.5,239.5 Z"/></g>
<g><path style="opacity:1" fill="#cab9f1" d="M 404.5,229.5 C 404.059,232.231 403.726,234.731 403.5,237C 404.788,237.239 405.788,236.739 406.5,235.5C 406.5,236.167 406.5,236.833 406.5,237.5C 404.267,242.401 400.934,246.401 396.5,249.5C 394.973,249.427 393.973,250.094 393.5,251.5C 389.106,254.859 384.106,256.859 378.5,257.5C 376.833,257.5 375.167,257.5 373.5,257.5C 373.082,256.778 372.416,256.278 371.5,256C 371.833,255.667 372.167,255.333 372.5,255C 369.183,254.502 365.85,254.335 362.5,254.5C 366.833,253.833 371.167,253.167 375.5,252.5C 389.567,250.309 399.234,242.642 404.5,229.5 Z"/></g>
<g><path style="opacity:0.012" fill="#5f36b6" d="M 396.5,249.5 C 396.027,250.906 395.027,251.573 393.5,251.5C 393.973,250.094 394.973,249.427 396.5,249.5 Z"/></g>
<g><path style="opacity:0.306" fill="#cf6445" d="M 254.5,250.5 C 262.255,253.086 270.255,254.086 278.5,253.5C 278.5,253.833 278.5,254.167 278.5,254.5C 272.824,254.666 267.157,254.499 261.5,254C 258.826,253.33 256.493,252.163 254.5,250.5 Z"/></g>
<g><path style="opacity:0.537" fill="#cd79d0" d="M 375.5,252.5 C 371.167,253.167 366.833,253.833 362.5,254.5C 352.167,254.5 341.833,254.5 331.5,254.5C 314.5,254.5 297.5,254.5 280.5,254.5C 279.833,254.5 279.167,254.5 278.5,254.5C 278.5,254.167 278.5,253.833 278.5,253.5C 310.867,253.344 343.201,253.011 375.5,252.5 Z"/></g>
<g><path style="opacity:0.983" fill="#f9b391" d="M 253.5,250.5 C 253.833,250.5 254.167,250.5 254.5,250.5C 256.493,252.163 258.826,253.33 261.5,254C 267.157,254.499 272.824,254.666 278.5,254.5C 279.167,254.5 279.833,254.5 280.5,254.5C 281.057,256.235 281.39,257.902 281.5,259.5C 275.464,259.64 269.464,259.307 263.5,258.5C 260.495,256.723 257.162,255.723 253.5,255.5C 253.64,253.876 252.973,252.71 251.5,252C 252.416,251.722 253.082,251.222 253.5,250.5 Z"/></g>
<g><path style="opacity:0.934" fill="#f1a9eb" d="M 280.5,254.5 C 297.5,254.5 314.5,254.5 331.5,254.5C 330.391,255.29 329.058,255.79 327.5,256C 342.81,257.208 358.143,257.708 373.5,257.5C 375.167,257.5 376.833,257.5 378.5,257.5C 346.335,258.464 314.001,259.13 281.5,259.5C 281.39,257.902 281.057,256.235 280.5,254.5 Z"/></g>
<g><path style="opacity:0.926" fill="#fccffe" d="M 331.5,254.5 C 341.833,254.5 352.167,254.5 362.5,254.5C 365.85,254.335 369.183,254.502 372.5,255C 372.167,255.333 371.833,255.667 371.5,256C 372.416,256.278 373.082,256.778 373.5,257.5C 358.143,257.708 342.81,257.208 327.5,256C 329.058,255.79 330.391,255.29 331.5,254.5 Z"/></g>
<g><path style="opacity:0.714" fill="#d56a4d" d="M 253.5,255.5 C 257.162,255.723 260.495,256.723 263.5,258.5C 263.565,258.938 263.399,259.272 263,259.5C 259.709,258.243 256.542,256.91 253.5,255.5 Z"/></g>
</svg>
