<?xml version="1.0" encoding="UTF-8"?>
<!DOCTYPE svg PUBLIC "-//W3C//DTD SVG 1.1//EN" "http://www.w3.org/Graphics/SVG/1.1/DTD/svg11.dtd">
<svg xmlns="http://www.w3.org/2000/svg" version="1.1" width="500px" height="500px" style="shape-rendering:geometricPrecision; text-rendering:geometricPrecision; image-rendering:optimizeQuality; fill-rule:evenodd; clip-rule:evenodd" xmlns:xlink="http://www.w3.org/1999/xlink">
<g><path style="opacity:0.278" fill="#89720c" d="M 264.5,79.5 C 275.928,80.1089 286.928,82.6089 297.5,87C 300.599,88.2763 303.266,90.1097 305.5,92.5C 299.577,89.9116 293.577,87.4116 287.5,85C 279.587,83.5801 271.92,81.7468 264.5,79.5 Z"/></g>
<g><path style="opacity:1" fill="#fefdf4" d="M 271.5,86.5 C 296.675,90.7191 316.675,103.052 331.5,123.5C 328.637,122.945 325.637,121.945 322.5,120.5C 323.801,122.672 324.801,125.005 325.5,127.5C 323.833,126.167 322.167,124.833 320.5,123.5C 316.786,116.12 311.119,110.786 303.5,107.5C 294.222,102.699 284.556,98.6987 274.5,95.5C 273.942,94.2101 272.942,93.3768 271.5,93C 258.993,92.1735 246.66,92.3401 234.5,93.5C 225.63,94.763 216.963,96.9297 208.5,100C 205.353,101.343 202.686,103.177 200.5,105.5C 196.427,105.908 193.427,107.908 191.5,111.5C 184.5,115.167 179.167,120.5 175.5,127.5C 168.602,133.953 164.268,141.953 162.5,151.5C 161.442,152.6 160.608,153.934 160,155.5C 159.56,161.902 158.727,168.235 157.5,174.5C 156.508,181.648 156.175,188.981 156.5,196.5C 151.982,195.876 147.648,195.876 143.5,196.5C 124.954,199.526 117.12,210.526 120,229.5C 120.278,230.416 120.778,231.082 121.5,231.5C 124.011,234.997 126.345,238.664 128.5,242.5C 135.483,248.754 142.983,254.42 151,259.5C 151.667,261.833 151.667,264.167 151,266.5C 149.139,268.888 147.806,271.554 147,274.5C 137.538,285.627 127.038,295.793 115.5,305C 105.159,306.851 97.4922,312.351 92.5,321.5C 90.8926,327.191 91.7259,332.525 95,337.5C 97.6833,340.016 100.183,342.683 102.5,345.5C 110.874,349.6 119.54,353.1 128.5,356C 131.883,359.269 134.383,363.103 136,367.5C 138.106,370.118 140.606,372.118 143.5,373.5C 146.135,375.328 149.135,376.495 152.5,377C 166.623,376.94 180.29,379.106 193.5,383.5C 197.74,387.23 202.406,390.396 207.5,393C 212.843,395.339 218.177,397.672 223.5,400C 226.757,401.043 230.09,401.543 233.5,401.5C 233.918,402.222 234.584,402.722 235.5,403C 244.343,403.824 253.01,403.657 261.5,402.5C 267.194,402.135 272.527,400.802 277.5,398.5C 282.689,397.446 287.356,395.446 291.5,392.5C 297.975,387.767 304.975,383.767 312.5,380.5C 322.751,378.681 333.084,377.514 343.5,377C 346.457,376.721 349.123,375.887 351.5,374.5C 353.685,374.296 355.685,373.63 357.5,372.5C 360.767,370.573 363.767,368.239 366.5,365.5C 367.5,368.167 368.5,368.167 369.5,365.5C 367.078,363.952 367.078,362.286 369.5,360.5C 371.225,361.015 372.892,361.682 374.5,362.5C 373.05,363.85 372.383,365.516 372.5,367.5C 371.969,371.544 369.969,374.71 366.5,377C 361.214,380.167 355.88,383.001 350.5,385.5C 339.467,385.291 328.467,385.791 317.5,387C 315.253,388.277 313.253,389.777 311.5,391.5C 309.099,392.049 306.765,392.882 304.5,394C 288.024,406.382 269.357,412.215 248.5,411.5C 240.737,411.654 233.071,410.987 225.5,409.5C 221.076,406.482 216.076,404.815 210.5,404.5C 207.325,401.672 203.658,399.672 199.5,398.5C 195.405,394.905 190.738,392.239 185.5,390.5C 184.4,389.442 183.066,388.608 181.5,388C 171.245,386.22 160.911,385.22 150.5,385C 137.391,383.563 128.724,376.563 124.5,364C 115.705,360.913 107.038,357.58 98.5,354C 92.3347,349.361 88.0013,343.528 85.5,336.5C 84.6129,330.855 84.4462,325.188 85,319.5C 87.3162,317.388 88.6495,314.722 89,311.5C 93.088,307.895 97.2546,304.562 101.5,301.5C 114.738,294.11 126.571,284.776 137,273.5C 137.853,270.155 139.353,267.155 141.5,264.5C 141.124,262.617 140.124,261.117 138.5,260C 116.569,250.063 107.736,233.229 112,209.5C 114.682,204.123 117.849,199.123 121.5,194.5C 125.431,192.672 129.431,190.838 133.5,189C 137.418,187.844 141.418,187.344 145.5,187.5C 146.5,187.5 147.5,187.5 148.5,187.5C 149.361,178.193 150.028,168.86 150.5,159.5C 152.467,153.313 154.301,146.98 156,140.5C 157.082,138.382 158.249,136.382 159.5,134.5C 163.472,128.854 167.472,123.187 171.5,117.5C 175.474,113.862 179.474,110.195 183.5,106.5C 185.343,103.242 188.009,100.909 191.5,99.5C 196.362,96.6589 201.695,94.9923 207.5,94.5C 207.5,93.5 207.5,92.5 207.5,91.5C 208.167,91.5 208.833,91.5 209.5,91.5C 229.725,85.7832 250.392,84.1166 271.5,86.5 Z"/></g>
<g><path style="opacity:0.553" fill="#85710f" d="M 221.5,81.5 C 212.111,84.7463 202.778,88.413 193.5,92.5C 201.669,86.113 211.003,82.4463 221.5,81.5 Z"/></g>
<g><path style="opacity:1" fill="#bca518" d="M 339.5,196.5 C 338.119,183.589 336.285,170.589 334,157.5C 333.153,155.807 332.32,154.14 331.5,152.5C 331.186,149.053 330.352,145.72 329,142.5C 327.234,140.404 325.901,138.071 325,135.5C 323.629,133.959 322.129,132.625 320.5,131.5C 317.738,127.561 314.738,123.728 311.5,120C 304.695,116.392 298.361,112.059 292.5,107C 283.2,103.068 273.533,100.235 263.5,98.5C 249.949,97.1727 236.282,97.5061 222.5,99.5C 224.5,98.5 226.5,97.5 228.5,96.5C 251.914,92.6285 274.247,95.7952 295.5,106C 328.624,126.755 343.29,156.921 339.5,196.5 Z"/></g>
<g><path style="opacity:0.22" fill="#826a0d" d="M 309.5,94.5 C 319.078,99.4476 326.745,106.448 332.5,115.5C 324.679,108.67 317.012,101.67 309.5,94.5 Z"/></g>
<g><path style="opacity:1" fill="#f2e76c" d="M 265.5,94.5 C 268.518,94.7038 271.518,95.0371 274.5,95.5C 284.556,98.6987 294.222,102.699 303.5,107.5C 309.418,112.414 315.085,117.747 320.5,123.5C 322.167,124.833 323.833,126.167 325.5,127.5C 331.625,136.683 336.125,146.683 339,157.5C 340.829,170.587 341.996,183.587 342.5,196.5C 349.21,196.004 355.876,196.67 362.5,198.5C 356.642,198.178 350.975,198.511 345.5,199.5C 343.833,199.5 342.167,199.5 340.5,199.5C 339.89,198.609 339.557,197.609 339.5,196.5C 343.29,156.921 328.624,126.755 295.5,106C 274.247,95.7952 251.914,92.6285 228.5,96.5C 228.918,95.7784 229.584,95.2784 230.5,95C 242.162,94.5001 253.829,94.3335 265.5,94.5 Z"/></g>
<g><path style="opacity:1" fill="#efe25d" d="M 228.5,96.5 C 226.5,97.5 224.5,98.5 222.5,99.5C 220.456,100.508 218.456,101.508 216.5,102.5C 210.137,103.754 204.137,105.921 198.5,109C 189.647,115.689 181.647,123.189 174.5,131.5C 174.433,130.041 174.766,128.708 175.5,127.5C 180.5,121.833 185.833,116.5 191.5,111.5C 193.427,107.908 196.427,105.908 200.5,105.5C 209.49,101.28 218.824,98.2805 228.5,96.5 Z"/></g>
<g><path style="opacity:0.714" fill="#7b6612" d="M 263.5,98.5 C 273.533,100.235 283.2,103.068 292.5,107C 298.361,112.059 304.695,116.392 311.5,120C 314.738,123.728 317.738,127.561 320.5,131.5C 324.735,138.205 328.401,145.205 331.5,152.5C 332.32,154.14 333.153,155.807 334,157.5C 336.285,170.589 338.119,183.589 339.5,196.5C 339.557,197.609 339.89,198.609 340.5,199.5C 338.589,199.426 337.422,198.426 337,196.5C 335.583,183.076 333.583,169.743 331,156.5C 312.343,112.74 279.176,94.2399 231.5,101C 225.684,102.061 220.018,103.561 214.5,105.5C 214.062,105.565 213.728,105.399 213.5,105C 214.942,104.623 215.942,103.79 216.5,102.5C 232.004,99.458 247.67,98.1247 263.5,98.5 Z"/></g>
<g><path style="opacity:1" fill="#b49d13" d="M 216.5,102.5 C 215.942,103.79 214.942,104.623 213.5,105C 213.728,105.399 214.062,105.565 214.5,105.5C 213.791,106.404 212.791,106.737 211.5,106.5C 201.984,108.836 193.818,113.502 187,120.5C 186.517,121.448 186.351,122.448 186.5,123.5C 185.455,124.878 184.122,125.878 182.5,126.5C 178.743,127.767 176.576,130.434 176,134.5C 174.25,136.424 172.417,138.091 170.5,139.5C 171.82,136.86 173.153,134.193 174.5,131.5C 181.647,123.189 189.647,115.689 198.5,109C 204.137,105.921 210.137,103.754 216.5,102.5 Z"/></g>
<g><path style="opacity:1" fill="#f9f5c6" d="M 303.5,107.5 C 311.119,110.786 316.786,116.12 320.5,123.5C 315.085,117.747 309.418,112.414 303.5,107.5 Z"/></g>
<g><path style="opacity:0.969" fill="#88700a" d="M 211.5,106.5 C 202.684,111.412 194.351,117.078 186.5,123.5C 186.351,122.448 186.517,121.448 187,120.5C 193.818,113.502 201.984,108.836 211.5,106.5 Z"/></g>
<g><path style="opacity:0.851" fill="#8d7510" d="M 193.5,92.5 C 189.438,96.7091 184.772,100.209 179.5,103C 177.536,104.451 176.203,106.284 175.5,108.5C 174.761,108.369 174.094,108.536 173.5,109C 169.365,113.478 165.365,117.978 161.5,122.5C 169.269,109.397 179.936,99.3972 193.5,92.5 Z"/></g>
<g><path style="opacity:0.978" fill="#b19c18" d="M 264.5,79.5 C 271.92,81.7468 279.587,83.5801 287.5,85C 293.577,87.4116 299.577,89.9116 305.5,92.5C 307.38,92.2291 308.713,92.8958 309.5,94.5C 317.012,101.67 324.679,108.67 332.5,115.5C 340.136,124.68 345.97,135.013 350,146.5C 351.822,157.612 354.156,168.612 357,179.5C 360.862,182.498 365.029,184.831 369.5,186.5C 365.473,185.861 361.473,185.028 357.5,184C 354.367,179.946 352.701,175.446 352.5,170.5C 349.248,141.487 336.248,117.987 313.5,100C 283.07,81.4421 250.404,76.4421 215.5,85C 208.484,88.4875 201.484,91.8209 194.5,95C 188.01,99.3309 181.676,103.831 175.5,108.5C 176.203,106.284 177.536,104.451 179.5,103C 184.772,100.209 189.438,96.7091 193.5,92.5C 202.778,88.413 212.111,84.7463 221.5,81.5C 235.611,77.4698 249.945,76.8031 264.5,79.5 Z"/></g>
<g><path style="opacity:1" fill="#e9e48a" d="M 191.5,111.5 C 185.833,116.5 180.5,121.833 175.5,127.5C 179.167,120.5 184.5,115.167 191.5,111.5 Z"/></g>
<g><path style="opacity:1" fill="#fdfdf3" d="M 331.5,123.5 C 335.576,127.09 338.743,131.423 341,136.5C 347.501,152.508 350.834,169.175 351,186.5C 384.511,191.529 395.344,209.862 383.5,241.5C 379.105,246.898 374.105,251.565 368.5,255.5C 365.335,258.285 361.835,260.618 358,262.5C 357.833,263.333 357.667,264.167 357.5,265C 368.25,283.417 383.583,296.417 403.5,304C 408.445,307.945 412.278,312.779 415,318.5C 416.718,337.112 408.885,350.112 391.5,357.5C 386.505,359.33 381.505,361.163 376.5,363C 374.93,364.397 373.596,365.897 372.5,367.5C 372.383,365.516 373.05,363.85 374.5,362.5C 372.892,361.682 371.225,361.015 369.5,360.5C 367.078,362.286 367.078,363.952 369.5,365.5C 368.5,368.167 367.5,368.167 366.5,365.5C 363.767,368.239 360.767,370.573 357.5,372.5C 359.773,369.723 362.273,367.057 365,364.5C 365.33,361.589 366.497,359.089 368.5,357C 376.812,354.496 384.812,351.33 392.5,347.5C 399.374,345.129 404.207,340.462 407,333.5C 407.667,329.5 407.667,325.5 407,321.5C 406.722,320.584 406.222,319.918 405.5,319.5C 404.298,317.608 402.965,315.774 401.5,314C 393.668,309.221 385.668,304.721 377.5,300.5C 372.014,296.18 366.68,291.68 361.5,287C 357.03,280.521 352.53,274.021 348,267.5C 347.333,264.5 347.333,261.5 348,258.5C 354.428,255.369 360.262,251.369 365.5,246.5C 370.123,243.711 373.956,240.045 377,235.5C 377.662,233.187 378.162,230.854 378.5,228.5C 380.38,221.242 379.546,214.242 376,207.5C 373.96,205.63 372.127,203.63 370.5,201.5C 368.88,199.016 366.547,197.516 363.5,197C 356.515,195.333 349.515,195.167 342.5,196.5C 341.996,183.587 340.829,170.587 339,157.5C 336.125,146.683 331.625,136.683 325.5,127.5C 324.801,125.005 323.801,122.672 322.5,120.5C 325.637,121.945 328.637,122.945 331.5,123.5 Z"/></g>
<g><path style="opacity:1" fill="#f6f2ac" d="M 171.5,117.5 C 167.472,123.187 163.472,128.854 159.5,134.5C 161.249,130.005 163.249,125.672 165.5,121.5C 165.833,120.5 166.5,119.833 167.5,119.5C 168.833,118.833 170.167,118.167 171.5,117.5 Z"/></g>
<g><path style="opacity:1" fill="#937a10" d="M 320.5,131.5 C 322.129,132.625 323.629,133.959 325,135.5C 325.901,138.071 327.234,140.404 329,142.5C 330.352,145.72 331.186,149.053 331.5,152.5C 328.401,145.205 324.735,138.205 320.5,131.5 Z"/></g>
<g><path style="opacity:1" fill="#ece486" d="M 175.5,127.5 C 174.766,128.708 174.433,130.041 174.5,131.5C 172.215,132.957 170.382,134.957 169,137.5C 167.101,142.396 164.935,147.063 162.5,151.5C 164.268,141.953 168.602,133.953 175.5,127.5 Z"/></g>
<g><path style="opacity:1" fill="#e2d342" d="M 174.5,131.5 C 173.153,134.193 171.82,136.86 170.5,139.5C 168.669,145.659 166.669,151.659 164.5,157.5C 162.349,161.25 161.016,165.25 160.5,169.5C 160.384,163.311 161.051,157.311 162.5,151.5C 164.935,147.063 167.101,142.396 169,137.5C 170.382,134.957 172.215,132.957 174.5,131.5 Z"/></g>
<g><path style="opacity:1" fill="#e2cf2b" d="M 146.5,174.5 C 146.665,177.85 146.498,181.183 146,184.5C 143.959,185.423 141.792,185.756 139.5,185.5C 142.696,182.32 145.029,178.653 146.5,174.5 Z"/></g>
<g><path style="opacity:1" fill="#f8f5ba" d="M 150.5,159.5 C 150.028,168.86 149.361,178.193 148.5,187.5C 147.5,187.5 146.5,187.5 145.5,187.5C 146.504,186.317 147.338,184.984 148,183.5C 148.333,176.833 148.667,170.167 149,163.5C 149.21,161.942 149.71,160.609 150.5,159.5 Z"/></g>
<g><path style="opacity:1" fill="#bea717" d="M 164.5,157.5 C 162.5,168.971 161.333,180.637 161,192.5C 160.768,193.737 160.268,194.737 159.5,195.5C 159.928,186.838 160.262,178.171 160.5,169.5C 161.016,165.25 162.349,161.25 164.5,157.5 Z"/></g>
<g><path style="opacity:0.892" fill="#917a0e" d="M 182.5,126.5 C 177.091,134.431 172.257,142.764 168,151.5C 167,155.5 166,159.5 165,163.5C 164.573,174.912 163.573,186.245 162,197.5C 161.184,198.823 160.017,199.489 158.5,199.5C 159.234,198.292 159.567,196.959 159.5,195.5C 160.268,194.737 160.768,193.737 161,192.5C 161.333,180.637 162.5,168.971 164.5,157.5C 166.669,151.659 168.669,145.659 170.5,139.5C 172.417,138.091 174.25,136.424 176,134.5C 176.576,130.434 178.743,127.767 182.5,126.5 Z"/></g>
<g><path style="opacity:1" fill="#f7f3b8" d="M 157.5,174.5 C 157.5,182.167 157.5,189.833 157.5,197.5C 152.797,197.563 148.13,197.229 143.5,196.5C 147.648,195.876 151.982,195.876 156.5,196.5C 156.175,188.981 156.508,181.648 157.5,174.5 Z"/></g>
<g><path style="opacity:0.996" fill="#cbb927" d="M 352.5,170.5 C 352.701,175.446 354.367,179.946 357.5,184C 361.473,185.028 365.473,185.861 369.5,186.5C 371.967,186.755 373.967,187.755 375.5,189.5C 376.5,190.833 377.5,192.167 378.5,193.5C 371.096,188.198 362.763,185.365 353.5,185C 352.531,180.263 352.197,175.43 352.5,170.5 Z"/></g>
<g><path style="opacity:1" fill="#fbf9cd" d="M 370.5,201.5 C 368.022,200.117 365.355,199.117 362.5,198.5C 355.876,196.67 349.21,196.004 342.5,196.5C 349.515,195.167 356.515,195.333 363.5,197C 366.547,197.516 368.88,199.016 370.5,201.5 Z"/></g>
<g><path style="opacity:1" fill="#f0e674" d="M 162.5,151.5 C 161.051,157.311 160.384,163.311 160.5,169.5C 160.262,178.171 159.928,186.838 159.5,195.5C 159.567,196.959 159.234,198.292 158.5,199.5C 150.107,199.17 141.773,199.67 133.5,201C 129.24,204.089 125.907,207.922 123.5,212.5C 122.685,213.429 121.852,214.429 121,215.5C 120.324,220.871 120.491,226.204 121.5,231.5C 120.778,231.082 120.278,230.416 120,229.5C 117.12,210.526 124.954,199.526 143.5,196.5C 148.13,197.229 152.797,197.563 157.5,197.5C 157.5,189.833 157.5,182.167 157.5,174.5C 158.727,168.235 159.56,161.902 160,155.5C 160.608,153.934 161.442,152.6 162.5,151.5 Z"/></g>
<g><path style="opacity:0.584" fill="#b49e16" d="M 340.5,199.5 C 342.167,199.5 343.833,199.5 345.5,199.5C 351.221,199.369 356.888,199.869 362.5,201C 361.944,201.383 361.611,201.883 361.5,202.5C 354.881,201.743 348.215,201.243 341.5,201C 340.944,200.617 340.611,200.117 340.5,199.5 Z"/></g>
<g><path style="opacity:1" fill="#ebe383" d="M 362.5,198.5 C 365.355,199.117 368.022,200.117 370.5,201.5C 372.127,203.63 373.96,205.63 376,207.5C 379.546,214.242 380.38,221.242 378.5,228.5C 380.124,214.654 374.791,204.654 362.5,198.5 Z"/></g>
<g><path style="opacity:0.951" fill="#ad9817" d="M 375.5,189.5 C 382.155,191.989 386.655,196.656 389,203.5C 397.696,223.585 393.862,240.918 377.5,255.5C 373.523,258.309 369.69,261.309 366,264.5C 365.506,266.134 365.34,267.801 365.5,269.5C 364.378,267.712 364.211,265.712 365,263.5C 366.085,262.264 366.918,260.931 367.5,259.5C 389.847,245.783 396.014,226.783 386,202.5C 383.636,199.31 381.136,196.31 378.5,193.5C 377.5,192.167 376.5,190.833 375.5,189.5 Z"/></g>
<g><path style="opacity:1" fill="#f3e75a" d="M 123.5,212.5 C 119.97,226.861 124.303,237.861 136.5,245.5C 133.594,245.043 130.928,244.043 128.5,242.5C 126.345,238.664 124.011,234.997 121.5,231.5C 120.491,226.204 120.324,220.871 121,215.5C 121.852,214.429 122.685,213.429 123.5,212.5 Z"/></g>
<g><path style="opacity:1" fill="#e1d13e" d="M 345.5,199.5 C 350.975,198.511 356.642,198.178 362.5,198.5C 374.791,204.654 380.124,214.654 378.5,228.5C 376.87,230.026 376.037,232.026 376,234.5C 374.02,236.899 371.853,238.899 369.5,240.5C 375.45,231.597 376.95,221.93 374,211.5C 370.71,208.452 367.21,205.785 363.5,203.5C 362.508,203.672 361.842,203.338 361.5,202.5C 361.611,201.883 361.944,201.383 362.5,201C 356.888,199.869 351.221,199.369 345.5,199.5 Z"/></g>
<g><path style="opacity:0.345" fill="#c0ab15" d="M 158.5,199.5 C 158.389,200.117 158.056,200.617 157.5,201C 145.195,198.716 135.029,202.216 127,211.5C 122.403,219.878 123.07,227.878 129,235.5C 131.5,238 134,240.5 136.5,243C 142.077,246.61 147.41,250.443 152.5,254.5C 152.5,255.167 152.5,255.833 152.5,256.5C 147.129,252.821 141.796,249.154 136.5,245.5C 124.303,237.861 119.97,226.861 123.5,212.5C 125.907,207.922 129.24,204.089 133.5,201C 141.773,199.67 150.107,199.17 158.5,199.5 Z"/></g>
<g><path style="opacity:1" fill="#f5f09f" d="M 378.5,228.5 C 378.162,230.854 377.662,233.187 377,235.5C 373.956,240.045 370.123,243.711 365.5,246.5C 367.192,244.795 368.525,242.795 369.5,240.5C 371.853,238.899 374.02,236.899 376,234.5C 376.037,232.026 376.87,230.026 378.5,228.5 Z"/></g>
<g><path style="opacity:0.616" fill="#ac9517" d="M 175.5,108.5 C 173.633,110.909 171.466,113.242 169,115.5C 168.209,116.745 167.709,118.078 167.5,119.5C 166.5,119.833 165.833,120.5 165.5,121.5C 157.058,131.283 151.558,142.616 149,155.5C 147.73,161.785 146.897,168.118 146.5,174.5C 145.029,178.653 142.696,182.32 139.5,185.5C 119.51,189.225 108.843,201.392 107.5,222C 108.996,238.178 116.662,250.345 130.5,258.5C 131.172,259.267 132.005,259.934 133,260.5C 133.667,263.5 133.667,266.5 133,269.5C 132.434,272.229 130.934,274.229 128.5,275.5C 130.435,273.031 131.768,270.198 132.5,267C 132.167,266 131.833,265 131.5,264C 122.98,257.813 115.813,250.313 110,241.5C 101.774,223.153 104.607,206.653 118.5,192C 125.995,187.554 133.661,183.387 141.5,179.5C 143.51,167.763 146.01,156.096 149,144.5C 151.711,138.076 154.711,131.743 158,125.5C 158.759,123.937 159.926,122.937 161.5,122.5C 165.365,117.978 169.365,113.478 173.5,109C 174.094,108.536 174.761,108.369 175.5,108.5 Z"/></g>
<g><path style="opacity:1" fill="#f0e896" d="M 383.5,241.5 C 380.414,248.254 375.414,252.921 368.5,255.5C 374.105,251.565 379.105,246.898 383.5,241.5 Z"/></g>
<g><path style="opacity:0.937" fill="#a38817" d="M 152.5,254.5 C 156.165,258.039 157.332,262.372 156,267.5C 155.284,269.879 154.117,271.879 152.5,273.5C 153.167,271.167 153.833,268.833 154.5,266.5C 154.664,263.813 154.497,261.146 154,258.5C 153.722,257.584 153.222,256.918 152.5,256.5C 152.5,255.833 152.5,255.167 152.5,254.5 Z"/></g>
<g><path style="opacity:0.612" fill="#a99315" d="M 363.5,203.5 C 367.21,205.785 370.71,208.452 374,211.5C 376.95,221.93 375.45,231.597 369.5,240.5C 361.927,246.536 354.094,252.202 346,257.5C 344.578,260.03 344.245,262.697 345,265.5C 351.172,279.321 360.339,290.821 372.5,300C 378.247,304.406 384.247,308.239 390.5,311.5C 390.5,311.833 390.5,312.167 390.5,312.5C 388.442,311.067 386.108,310.4 383.5,310.5C 365.39,300.555 351.89,286.222 343,267.5C 342.163,263.705 342.496,260.039 344,256.5C 348.603,251.896 353.77,248.062 359.5,245C 366.172,239.803 371.006,233.303 374,225.5C 374.667,222.833 374.667,220.167 374,217.5C 371.053,212.39 367.553,207.724 363.5,203.5 Z"/></g>
<g><path style="opacity:0.996" fill="#d1be29" d="M 130.5,258.5 C 139.676,259.454 141.51,263.454 136,270.5C 132.325,274.069 128.825,277.735 125.5,281.5C 126.5,279.5 127.5,277.5 128.5,275.5C 130.934,274.229 132.434,272.229 133,269.5C 133.667,266.5 133.667,263.5 133,260.5C 132.005,259.934 131.172,259.267 130.5,258.5 Z"/></g>
<g><path style="opacity:0.769" fill="#c9b51d" d="M 367.5,259.5 C 366.918,260.931 366.085,262.264 365,263.5C 364.211,265.712 364.378,267.712 365.5,269.5C 368.492,273.492 371.826,277.158 375.5,280.5C 375.733,282.062 376.4,283.395 377.5,284.5C 374.269,282.78 371.436,280.447 369,277.5C 365.947,274.113 363.28,270.447 361,266.5C 360.333,265.5 360.333,264.5 361,263.5C 363.052,261.942 365.219,260.608 367.5,259.5 Z"/></g>
<g><path style="opacity:1" fill="#f2e87b" d="M 165.5,121.5 C 163.249,125.672 161.249,130.005 159.5,134.5C 158.249,136.382 157.082,138.382 156,140.5C 154.301,146.98 152.467,153.313 150.5,159.5C 149.71,160.609 149.21,161.942 149,163.5C 148.667,170.167 148.333,176.833 148,183.5C 147.338,184.984 146.504,186.317 145.5,187.5C 141.418,187.344 137.418,187.844 133.5,189C 129.431,190.838 125.431,192.672 121.5,194.5C 117.849,199.123 114.682,204.123 112,209.5C 107.736,233.229 116.569,250.063 138.5,260C 140.124,261.117 141.124,262.617 141.5,264.5C 139.353,267.155 137.853,270.155 137,273.5C 126.571,284.776 114.738,294.11 101.5,301.5C 86.3917,307.189 80.5584,318.189 84,334.5C 84.2784,335.416 84.7784,336.082 85.5,336.5C 88.0013,343.528 92.3347,349.361 98.5,354C 107.038,357.58 115.705,360.913 124.5,364C 128.724,376.563 137.391,383.563 150.5,385C 160.911,385.22 171.245,386.22 181.5,388C 183.066,388.608 184.4,389.442 185.5,390.5C 183.833,390.5 182.167,390.5 180.5,390.5C 170.564,389.056 160.564,388.222 150.5,388C 137.212,385.867 127.879,378.701 122.5,366.5C 119.379,364.605 116.046,363.272 112.5,362.5C 102.214,359.197 93.5475,353.53 86.5,345.5C 76.1674,328.302 78.8341,313.469 94.5,301C 106.698,296.874 117.031,290.374 125.5,281.5C 128.825,277.735 132.325,274.069 136,270.5C 141.51,263.454 139.676,259.454 130.5,258.5C 116.662,250.345 108.996,238.178 107.5,222C 108.843,201.392 119.51,189.225 139.5,185.5C 141.792,185.756 143.959,185.423 146,184.5C 146.498,181.183 146.665,177.85 146.5,174.5C 146.897,168.118 147.73,161.785 149,155.5C 151.558,142.616 157.058,131.283 165.5,121.5 Z"/></g>
<g><path style="opacity:0.953" fill="#ac9415" d="M 154.5,266.5 C 153.833,268.833 153.167,271.167 152.5,273.5C 151.205,277.423 149.372,281.09 147,284.5C 136.272,297.074 123.439,306.741 108.5,313.5C 108.557,312.391 108.89,311.391 109.5,310.5C 124.597,302.243 137.431,291.243 148,277.5C 149.703,273.408 151.869,269.741 154.5,266.5 Z"/></g>
<g><path style="opacity:0.071" fill="#866e0b" d="M 383.5,310.5 C 386.108,310.4 388.442,311.067 390.5,312.5C 392.428,314.474 394.761,315.974 397.5,317C 398.971,318.583 399.971,320.417 400.5,322.5C 395.389,317.772 389.722,313.772 383.5,310.5 Z"/></g>
<g><path style="opacity:1" fill="#c2ad18" d="M 390.5,311.5 C 392.308,311.491 393.975,311.991 395.5,313C 398.333,315.167 401.167,317.333 404,319.5C 406.486,329.726 403.319,337.559 394.5,343C 387.249,346.307 379.916,349.307 372.5,352C 369.403,353.273 366.736,355.107 364.5,357.5C 365.203,355.284 366.536,353.451 368.5,352C 378.293,348.626 387.626,344.293 396.5,339C 400.893,334.26 402.226,328.76 400.5,322.5C 399.971,320.417 398.971,318.583 397.5,317C 394.761,315.974 392.428,314.474 390.5,312.5C 390.5,312.167 390.5,311.833 390.5,311.5 Z"/></g>
<g><path style="opacity:1" fill="#fcfbd6" d="M 101.5,301.5 C 97.2546,304.562 93.088,307.895 89,311.5C 88.6495,314.722 87.3162,317.388 85,319.5C 84.4462,325.188 84.6129,330.855 85.5,336.5C 84.7784,336.082 84.2784,335.416 84,334.5C 80.5584,318.189 86.3917,307.189 101.5,301.5 Z"/></g>
<g><path style="opacity:0.4" fill="#b3991b" d="M 128.5,275.5 C 127.5,277.5 126.5,279.5 125.5,281.5C 117.031,290.374 106.698,296.874 94.5,301C 78.8341,313.469 76.1674,328.302 86.5,345.5C 85.5,345.5 84.5,345.5 83.5,345.5C 78.0834,336.276 76.9168,326.609 80,316.5C 81.2277,312.941 82.8944,309.608 85,306.5C 95.2441,299.293 105.744,292.46 116.5,286C 120.668,282.664 124.668,279.164 128.5,275.5 Z"/></g>
<g><path style="opacity:1" fill="#f4ea76" d="M 369.5,240.5 C 368.525,242.795 367.192,244.795 365.5,246.5C 360.262,251.369 354.428,255.369 348,258.5C 347.333,261.5 347.333,264.5 348,267.5C 352.53,274.021 357.03,280.521 361.5,287C 366.68,291.68 372.014,296.18 377.5,300.5C 385.668,304.721 393.668,309.221 401.5,314C 402.965,315.774 404.298,317.608 405.5,319.5C 407.539,331.794 403.205,341.127 392.5,347.5C 384.812,351.33 376.812,354.496 368.5,357C 366.497,359.089 365.33,361.589 365,364.5C 362.273,367.057 359.773,369.723 357.5,372.5C 355.685,373.63 353.685,374.296 351.5,374.5C 352.694,373.728 353.694,372.728 354.5,371.5C 360.256,368.687 363.589,364.02 364.5,357.5C 366.736,355.107 369.403,353.273 372.5,352C 379.916,349.307 387.249,346.307 394.5,343C 403.319,337.559 406.486,329.726 404,319.5C 401.167,317.333 398.333,315.167 395.5,313C 393.975,311.991 392.308,311.491 390.5,311.5C 384.247,308.239 378.247,304.406 372.5,300C 360.339,290.821 351.172,279.321 345,265.5C 344.245,262.697 344.578,260.03 346,257.5C 354.094,252.202 361.927,246.536 369.5,240.5 Z"/></g>
<g><path style="opacity:1" fill="#f3e871" d="M 128.5,242.5 C 130.928,244.043 133.594,245.043 136.5,245.5C 141.796,249.154 147.129,252.821 152.5,256.5C 153.222,256.918 153.722,257.584 154,258.5C 154.497,261.146 154.664,263.813 154.5,266.5C 151.869,269.741 149.703,273.408 148,277.5C 137.431,291.243 124.597,302.243 109.5,310.5C 101.626,312.543 96.6259,317.376 94.5,325C 94.7281,328.869 95.2281,332.702 96,336.5C 106.046,344.975 117.546,350.808 130.5,354C 131.667,355.167 132.833,356.333 134,357.5C 134.403,360.708 135.403,363.708 137,366.5C 147.042,373.412 158.209,376.079 170.5,374.5C 171.167,374.5 171.833,374.5 172.5,374.5C 176.905,375.582 181.239,376.915 185.5,378.5C 171.411,377.392 157.411,375.725 143.5,373.5C 140.606,372.118 138.106,370.118 136,367.5C 134.383,363.103 131.883,359.269 128.5,356C 119.54,353.1 110.874,349.6 102.5,345.5C 100.183,342.683 97.6833,340.016 95,337.5C 91.7259,332.525 90.8926,327.191 92.5,321.5C 97.4922,312.351 105.159,306.851 115.5,305C 127.038,295.793 137.538,285.627 147,274.5C 147.806,271.554 149.139,268.888 151,266.5C 151.667,264.167 151.667,261.833 151,259.5C 142.983,254.42 135.483,248.754 128.5,242.5 Z"/></g>
<g><path style="opacity:0.714" fill="#c1ab1a" d="M 109.5,310.5 C 108.89,311.391 108.557,312.391 108.5,313.5C 103.436,316.068 99.9363,320.068 98,325.5C 97.3333,327.833 97.3333,330.167 98,332.5C 99.7932,335.295 101.96,337.795 104.5,340C 112.421,344.425 120.755,348.092 129.5,351C 133.787,354.29 136.953,358.457 139,363.5C 143.576,368.039 149.076,370.872 155.5,372C 160.728,372.296 165.728,373.129 170.5,374.5C 158.209,376.079 147.042,373.412 137,366.5C 135.403,363.708 134.403,360.708 134,357.5C 132.833,356.333 131.667,355.167 130.5,354C 117.546,350.808 106.046,344.975 96,336.5C 95.2281,332.702 94.7281,328.869 94.5,325C 96.6259,317.376 101.626,312.543 109.5,310.5 Z"/></g>
<g><path style="opacity:1" fill="#fbf9d0" d="M 405.5,319.5 C 406.222,319.918 406.722,320.584 407,321.5C 407.667,325.5 407.667,329.5 407,333.5C 404.207,340.462 399.374,345.129 392.5,347.5C 403.205,341.127 407.539,331.794 405.5,319.5 Z"/></g>
<g><path style="opacity:1" fill="#f0e673" d="M 352.5,170.5 C 352.197,175.43 352.531,180.263 353.5,185C 362.763,185.365 371.096,188.198 378.5,193.5C 381.136,196.31 383.636,199.31 386,202.5C 396.014,226.783 389.847,245.783 367.5,259.5C 365.219,260.608 363.052,261.942 361,263.5C 360.333,264.5 360.333,265.5 361,266.5C 363.28,270.447 365.947,274.113 369,277.5C 371.436,280.447 374.269,282.78 377.5,284.5C 386.436,291.562 396.103,297.729 406.5,303C 421.159,317.077 422.326,332.243 410,348.5C 404.937,352.949 399.437,356.783 393.5,360C 387.614,361.611 381.947,363.777 376.5,366.5C 370.855,378.999 361.188,386.165 347.5,388C 338.084,388.207 328.75,389.041 319.5,390.5C 321.026,388.87 323.026,388.037 325.5,388C 333.996,387.272 342.33,386.439 350.5,385.5C 355.88,383.001 361.214,380.167 366.5,377C 369.969,374.71 371.969,371.544 372.5,367.5C 373.596,365.897 374.93,364.397 376.5,363C 381.505,361.163 386.505,359.33 391.5,357.5C 408.885,350.112 416.718,337.112 415,318.5C 412.278,312.779 408.445,307.945 403.5,304C 383.583,296.417 368.25,283.417 357.5,265C 357.667,264.167 357.833,263.333 358,262.5C 361.835,260.618 365.335,258.285 368.5,255.5C 375.414,252.921 380.414,248.254 383.5,241.5C 395.344,209.862 384.511,191.529 351,186.5C 350.834,169.175 347.501,152.508 341,136.5C 338.743,131.423 335.576,127.09 331.5,123.5C 316.675,103.052 296.675,90.7191 271.5,86.5C 268.977,85.6156 266.31,84.7823 263.5,84C 250.09,83.1143 236.757,83.781 223.5,86C 218.388,86.9761 213.722,88.8094 209.5,91.5C 208.833,91.5 208.167,91.5 207.5,91.5C 201.626,93.2264 196.293,95.8931 191.5,99.5C 188.009,100.909 185.343,103.242 183.5,106.5C 180.053,108.397 176.72,110.563 173.5,113C 172.418,114.33 171.751,115.83 171.5,117.5C 170.167,118.167 168.833,118.833 167.5,119.5C 167.709,118.078 168.209,116.745 169,115.5C 171.466,113.242 173.633,110.909 175.5,108.5C 181.676,103.831 188.01,99.3309 194.5,95C 201.484,91.8209 208.484,88.4875 215.5,85C 250.404,76.4421 283.07,81.4421 313.5,100C 336.248,117.987 349.248,141.487 352.5,170.5 Z"/></g>
<g><path style="opacity:1" fill="#f9f7c4" d="M 183.5,106.5 C 179.474,110.195 175.474,113.862 171.5,117.5C 171.751,115.83 172.418,114.33 173.5,113C 176.72,110.563 180.053,108.397 183.5,106.5 Z"/></g>
<g><path style="opacity:0.996" fill="#987f0e" d="M 263.5,98.5 C 247.67,98.1247 232.004,99.458 216.5,102.5C 218.456,101.508 220.456,100.508 222.5,99.5C 236.282,97.5061 249.949,97.1727 263.5,98.5 Z"/></g>
<g><path style="opacity:1" fill="#ede685" d="M 234.5,93.5 C 245.014,93.1724 255.347,93.5058 265.5,94.5C 253.829,94.3335 242.162,94.5001 230.5,95C 229.584,95.2784 228.918,95.7784 228.5,96.5C 218.824,98.2805 209.49,101.28 200.5,105.5C 202.686,103.177 205.353,101.343 208.5,100C 216.963,96.9297 225.63,94.763 234.5,93.5 Z"/></g>
<g><path style="opacity:1" fill="#f9f5c3" d="M 207.5,91.5 C 207.5,92.5 207.5,93.5 207.5,94.5C 201.695,94.9923 196.362,96.6589 191.5,99.5C 196.293,95.8931 201.626,93.2264 207.5,91.5 Z"/></g>
<g><path style="opacity:1" fill="#f7f3c2" d="M 234.5,93.5 C 246.66,92.3401 258.993,92.1735 271.5,93C 272.942,93.3768 273.942,94.2101 274.5,95.5C 271.518,95.0371 268.518,94.7038 265.5,94.5C 255.347,93.5058 245.014,93.1724 234.5,93.5 Z"/></g>
<g><path style="opacity:1" fill="#fcfbdb" d="M 271.5,86.5 C 250.392,84.1166 229.725,85.7832 209.5,91.5C 213.722,88.8094 218.388,86.9761 223.5,86C 236.757,83.781 250.09,83.1143 263.5,84C 266.31,84.7823 268.977,85.6156 271.5,86.5 Z"/></g>
<g><path style="opacity:0.984" fill="#998211" d="M 83.5,345.5 C 84.5,345.5 85.5,345.5 86.5,345.5C 93.5475,353.53 102.214,359.197 112.5,362.5C 118.479,366.479 123.479,371.479 127.5,377.5C 127.376,378.107 127.043,378.44 126.5,378.5C 124.734,376.229 122.734,374.063 120.5,372C 110.312,366.375 100.312,360.375 90.5,354C 87.5766,351.584 85.2433,348.75 83.5,345.5 Z"/></g>
<g><path style="opacity:0.824" fill="#c7b119" d="M 364.5,357.5 C 363.589,364.02 360.256,368.687 354.5,371.5C 347.359,373.783 340.026,374.783 332.5,374.5C 341.546,373.981 349.879,371.147 357.5,366C 359.733,363.004 362.066,360.171 364.5,357.5 Z"/></g>
<g><path style="opacity:0.984" fill="#b09b18" d="M 375.5,280.5 C 387.713,289.195 400.213,297.529 413,305.5C 424.455,323.221 422.622,339.387 407.5,354C 397.482,360.56 387.149,366.56 376.5,372C 370.581,381.911 361.914,387.911 350.5,390C 334.53,388.488 319.863,391.988 306.5,400.5C 302.774,400.574 299.774,402.074 297.5,405C 293.77,405.411 290.436,406.744 287.5,409C 266.659,417.019 245.326,418.519 223.5,413.5C 219.07,411.925 214.403,410.758 209.5,410C 205.652,406.743 201.319,404.576 196.5,403.5C 189.921,399.018 182.921,395.185 175.5,392C 163.415,391.235 151.415,389.902 139.5,388C 134.142,386.129 129.809,382.962 126.5,378.5C 127.043,378.44 127.376,378.107 127.5,377.5C 123.479,371.479 118.479,366.479 112.5,362.5C 116.046,363.272 119.379,364.605 122.5,366.5C 127.879,378.701 137.212,385.867 150.5,388C 160.564,388.222 170.564,389.056 180.5,390.5C 180.369,391.376 180.702,392.043 181.5,392.5C 191.939,396.886 201.939,402.053 211.5,408C 217.16,409.664 222.827,411.164 228.5,412.5C 249.801,416.562 270.467,414.395 290.5,406C 299.628,401.035 308.628,395.868 317.5,390.5C 318.167,390.5 318.833,390.5 319.5,390.5C 328.75,389.041 338.084,388.207 347.5,388C 361.188,386.165 370.855,378.999 376.5,366.5C 381.947,363.777 387.614,361.611 393.5,360C 399.437,356.783 404.937,352.949 410,348.5C 422.326,332.243 421.159,317.077 406.5,303C 396.103,297.729 386.436,291.562 377.5,284.5C 376.4,283.395 375.733,282.062 375.5,280.5 Z"/></g>
<g><path style="opacity:1" fill="#efea96" d="M 350.5,385.5 C 342.33,386.439 333.996,387.272 325.5,388C 323.026,388.037 321.026,388.87 319.5,390.5C 318.833,390.5 318.167,390.5 317.5,390.5C 315.435,390.517 313.435,390.85 311.5,391.5C 313.253,389.777 315.253,388.277 317.5,387C 328.467,385.791 339.467,385.291 350.5,385.5 Z"/></g>
<g><path style="opacity:1" fill="#f0eca2" d="M 351.5,374.5 C 349.123,375.887 346.457,376.721 343.5,377C 333.084,377.514 322.751,378.681 312.5,380.5C 314.562,379.224 316.896,378.39 319.5,378C 330.209,377.081 340.875,375.915 351.5,374.5 Z"/></g>
<g><path style="opacity:1" fill="#efe78e" d="M 143.5,373.5 C 157.411,375.725 171.411,377.392 185.5,378.5C 187.786,378.595 189.786,379.262 191.5,380.5C 192.167,381.5 192.833,382.5 193.5,383.5C 180.29,379.106 166.623,376.94 152.5,377C 149.135,376.495 146.135,375.328 143.5,373.5 Z"/></g>
<g><path style="opacity:0.792" fill="#b7a013" d="M 172.5,374.5 C 177.912,374.791 183.245,375.624 188.5,377C 200.32,382.41 211.987,388.077 223.5,394C 227.988,395.811 232.654,396.811 237.5,397C 248.877,397.856 260.21,397.522 271.5,396C 279.446,392.19 287.446,388.69 295.5,385.5C 294.284,387.451 292.618,388.951 290.5,390C 284.312,392.925 277.979,395.591 271.5,398C 255.418,400.291 239.418,399.958 223.5,397C 213.106,390.723 202.439,385.223 191.5,380.5C 189.786,379.262 187.786,378.595 185.5,378.5C 181.239,376.915 176.905,375.582 172.5,374.5 Z"/></g>
<g><path style="opacity:1" fill="#f6f1af" d="M 291.5,392.5 C 287.356,395.446 282.689,397.446 277.5,398.5C 281.657,395.551 286.323,393.551 291.5,392.5 Z"/></g>
<g><path style="opacity:1" fill="#f0e363" d="M 354.5,371.5 C 353.694,372.728 352.694,373.728 351.5,374.5C 340.875,375.915 330.209,377.081 319.5,378C 316.896,378.39 314.562,379.224 312.5,380.5C 304.975,383.767 297.975,387.767 291.5,392.5C 286.323,393.551 281.657,395.551 277.5,398.5C 272.527,400.802 267.194,402.135 261.5,402.5C 252.134,402.721 242.801,402.387 233.5,401.5C 230.09,401.543 226.757,401.043 223.5,400C 218.177,397.672 212.843,395.339 207.5,393C 202.406,390.396 197.74,387.23 193.5,383.5C 192.833,382.5 192.167,381.5 191.5,380.5C 202.439,385.223 213.106,390.723 223.5,397C 239.418,399.958 255.418,400.291 271.5,398C 277.979,395.591 284.312,392.925 290.5,390C 292.618,388.951 294.284,387.451 295.5,385.5C 306.446,377.674 318.779,374.007 332.5,374.5C 340.026,374.783 347.359,373.783 354.5,371.5 Z"/></g>
<g><path style="opacity:1" fill="#ece796" d="M 199.5,398.5 C 203.658,399.672 207.325,401.672 210.5,404.5C 206.356,403.263 202.689,401.263 199.5,398.5 Z"/></g>
<g><path style="opacity:1" fill="#eddf5c" d="M 180.5,390.5 C 182.167,390.5 183.833,390.5 185.5,390.5C 190.738,392.239 195.405,394.905 199.5,398.5C 202.689,401.263 206.356,403.263 210.5,404.5C 210.611,405.117 210.944,405.617 211.5,406C 216.128,407.49 220.794,408.657 225.5,409.5C 226.694,410.272 227.694,411.272 228.5,412.5C 222.827,411.164 217.16,409.664 211.5,408C 201.939,402.053 191.939,396.886 181.5,392.5C 180.702,392.043 180.369,391.376 180.5,390.5 Z"/></g>
<g><path style="opacity:1" fill="#f4eea2" d="M 233.5,401.5 C 242.801,402.387 252.134,402.721 261.5,402.5C 253.01,403.657 244.343,403.824 235.5,403C 234.584,402.722 233.918,402.222 233.5,401.5 Z"/></g>
<g><path style="opacity:1" fill="#f1e778" d="M 317.5,390.5 C 308.628,395.868 299.628,401.035 290.5,406C 270.467,414.395 249.801,416.562 228.5,412.5C 227.694,411.272 226.694,410.272 225.5,409.5C 233.071,410.987 240.737,411.654 248.5,411.5C 269.357,412.215 288.024,406.382 304.5,394C 306.765,392.882 309.099,392.049 311.5,391.5C 313.435,390.85 315.435,390.517 317.5,390.5 Z"/></g>
<g><path style="opacity:1" fill="#f2e89b" d="M 210.5,404.5 C 216.076,404.815 221.076,406.482 225.5,409.5C 220.794,408.657 216.128,407.49 211.5,406C 210.944,405.617 210.611,405.117 210.5,404.5 Z"/></g>
<g><path style="opacity:0.573" fill="#725e0f" d="M 196.5,403.5 C 201.319,404.576 205.652,406.743 209.5,410C 214.403,410.758 219.07,411.925 223.5,413.5C 224.167,414.167 224.833,414.833 225.5,415.5C 214.482,414.483 204.816,410.483 196.5,403.5 Z"/></g>
<g><path style="opacity:0.49" fill="#90770f" d="M 306.5,400.5 C 289.111,412.677 269.611,418.344 248,417.5C 240.41,417.564 232.91,416.898 225.5,415.5C 224.833,414.833 224.167,414.167 223.5,413.5C 245.326,418.519 266.659,417.019 287.5,409C 290.436,406.744 293.77,405.411 297.5,405C 299.774,402.074 302.774,400.574 306.5,400.5 Z"/></g>
</svg>
