<?xml version="1.0" encoding="UTF-8"?>
<!DOCTYPE svg PUBLIC "-//W3C//DTD SVG 1.1//EN" "http://www.w3.org/Graphics/SVG/1.1/DTD/svg11.dtd">
<svg xmlns="http://www.w3.org/2000/svg" version="1.1" width="500px" height="500px" style="shape-rendering:geometricPrecision; text-rendering:geometricPrecision; image-rendering:optimizeQuality; fill-rule:evenodd; clip-rule:evenodd" xmlns:xlink="http://www.w3.org/1999/xlink">
<g><path style="opacity:0.612" fill="#5085d5" d="M 323.5,111.5 C 315.016,112.493 306.349,112.826 297.5,112.5C 289.178,111.945 280.844,111.612 272.5,111.5C 275.382,110.087 278.549,109.421 282,109.5C 295.854,110.116 309.688,110.783 323.5,111.5 Z"/></g>
<g><path style="opacity:0.947" fill="#77b5e9" d="M 323.5,111.5 C 324.167,111.5 324.5,111.833 324.5,112.5C 326.471,120.765 328.471,129.098 330.5,137.5C 329.833,136.833 329.167,136.167 328.5,135.5C 326.87,129.274 325.87,122.94 325.5,116.5C 324.5,116.5 323.5,116.5 322.5,116.5C 322.179,114.952 321.179,114.285 319.5,114.5C 312.167,113.833 304.833,113.167 297.5,112.5C 306.349,112.826 315.016,112.493 323.5,111.5 Z"/></g>
<g><path style="opacity:1" fill="#a2d1f5" d="M 272.5,111.5 C 280.844,111.612 289.178,111.945 297.5,112.5C 304.833,113.167 312.167,113.833 319.5,114.5C 306.121,114.72 292.788,114.054 279.5,112.5C 277.167,112.667 274.833,112.833 272.5,113C 270.963,114.707 269.296,116.207 267.5,117.5C 268.075,115.589 269.075,113.922 270.5,112.5C 270.842,111.662 271.508,111.328 272.5,111.5 Z"/></g>
<g><path style="opacity:1" fill="#e6f6fd" d="M 288.5,115.5 C 283.489,115.334 278.489,115.501 273.5,116C 272.667,116.833 271.833,117.667 271,118.5C 270.89,128.852 271.39,139.185 272.5,149.5C 272.5,149.833 272.5,150.167 272.5,150.5C 272.5,158.167 272.5,165.833 272.5,173.5C 272.5,174.167 272.5,174.833 272.5,175.5C 272.167,175.5 271.833,175.5 271.5,175.5C 271.666,166.161 271.5,156.827 271,147.5C 270.819,144.305 270.319,141.305 269.5,138.5C 268.62,131.851 268.454,125.184 269,118.5C 270.167,117.333 271.333,116.167 272.5,115C 278.016,114.183 283.35,114.349 288.5,115.5 Z"/></g>
<g><path style="opacity:1" fill="#c7eafd" d="M 319.5,114.5 C 321.179,114.285 322.179,114.952 322.5,116.5C 315.588,115.538 308.588,115.205 301.5,115.5C 297.167,115.5 292.833,115.5 288.5,115.5C 283.35,114.349 278.016,114.183 272.5,115C 271.333,116.167 270.167,117.333 269,118.5C 268.454,125.184 268.62,131.851 269.5,138.5C 269.5,140.167 269.5,141.833 269.5,143.5C 267.942,136.056 267.276,128.389 267.5,120.5C 267.5,119.5 267.5,118.5 267.5,117.5C 269.296,116.207 270.963,114.707 272.5,113C 274.833,112.833 277.167,112.667 279.5,112.5C 292.788,114.054 306.121,114.72 319.5,114.5 Z"/></g>
<g><path style="opacity:1" fill="#f6f9f5" d="M 320.5,117.5 C 321.833,117.5 322.5,118.167 322.5,119.5C 321.735,119.077 320.902,118.743 320,118.5C 314.757,118.756 309.924,119.756 305.5,121.5C 299.43,121.063 293.43,121.063 287.5,121.5C 287.33,120.178 287.663,119.011 288.5,118C 299.161,117.5 309.828,117.333 320.5,117.5 Z"/></g>
<g><path style="opacity:1" fill="#f7fafd" d="M 288.5,115.5 C 292.833,115.5 297.167,115.5 301.5,115.5C 307.833,116.167 314.167,116.833 320.5,117.5C 309.828,117.333 299.161,117.5 288.5,118C 287.663,119.011 287.33,120.178 287.5,121.5C 285.409,121.682 283.409,121.348 281.5,120.5C 280.5,121 279.5,121.5 278.5,122C 279.942,122.377 280.942,123.21 281.5,124.5C 280.281,126.636 279.448,128.969 279,131.5C 278.009,143.815 277.509,156.148 277.5,168.5C 277.167,168.5 276.833,168.5 276.5,168.5C 276.207,160.14 275.54,151.806 274.5,143.5C 273.831,145.631 273.165,147.631 272.5,149.5C 271.39,139.185 270.89,128.852 271,118.5C 271.833,117.667 272.667,116.833 273.5,116C 278.489,115.501 283.489,115.334 288.5,115.5 Z"/></g>
<g><path style="opacity:0.871" fill="#417ac5" d="M 324.5,112.5 C 325.794,113.29 326.961,114.29 328,115.5C 330.061,125.647 332.561,135.647 335.5,145.5C 334.31,143.131 332.643,141.131 330.5,139.5C 330.5,138.833 330.5,138.167 330.5,137.5C 328.471,129.098 326.471,120.765 324.5,112.5 Z"/></g>
<g><path style="opacity:1" fill="#f4f8fd" d="M 287.5,121.5 C 293.43,121.063 299.43,121.063 305.5,121.5C 310.557,120.717 315.557,120.383 320.5,120.5C 320.5,121.5 320.5,122.5 320.5,123.5C 319.5,123.5 318.5,123.5 317.5,123.5C 310.872,122.559 304.206,122.559 297.5,123.5C 292.138,123.472 286.805,123.806 281.5,124.5C 280.942,123.21 279.942,122.377 278.5,122C 279.5,121.5 280.5,121 281.5,120.5C 283.409,121.348 285.409,121.682 287.5,121.5 Z"/></g>
<g><path style="opacity:1" fill="#f4f5f4" d="M 322.5,119.5 C 323.378,123.336 324.044,127.336 324.5,131.5C 322.876,131.36 321.71,132.027 321,133.5C 320.623,132.058 319.79,131.058 318.5,130.5C 318.326,128.139 317.993,125.806 317.5,123.5C 318.5,123.5 319.5,123.5 320.5,123.5C 320.5,122.5 320.5,121.5 320.5,120.5C 315.557,120.383 310.557,120.717 305.5,121.5C 309.924,119.756 314.757,118.756 320,118.5C 320.902,118.743 321.735,119.077 322.5,119.5 Z"/></g>
<g><path style="opacity:1" fill="#d4ebf9" d="M 301.5,115.5 C 308.588,115.205 315.588,115.538 322.5,116.5C 323.5,116.5 324.5,116.5 325.5,116.5C 325.87,122.94 326.87,129.274 328.5,135.5C 328.5,136.833 328.5,138.167 328.5,139.5C 325.628,137.663 324.294,134.997 324.5,131.5C 324.044,127.336 323.378,123.336 322.5,119.5C 322.5,118.167 321.833,117.5 320.5,117.5C 314.167,116.833 307.833,116.167 301.5,115.5 Z"/></g>
<g><path style="opacity:0.996" fill="#b0def7" d="M 313.5,126.5 C 304.06,126.055 294.726,126.555 285.5,128C 284.975,128.692 284.308,129.192 283.5,129.5C 282.507,134.12 282.173,138.786 282.5,143.5C 281.833,148.833 281.167,154.167 280.5,159.5C 280.5,153.167 280.5,146.833 280.5,140.5C 280.032,135.63 280.698,130.964 282.5,126.5C 284.045,125.548 285.712,125.215 287.5,125.5C 293.675,125.378 299.842,125.045 306,124.5C 308.929,124.525 311.429,125.191 313.5,126.5 Z"/></g>
<g><path style="opacity:1" fill="#d5ecfa" d="M 317.5,123.5 C 317.993,125.806 318.326,128.139 318.5,130.5C 319.681,134.743 320.348,139.076 320.5,143.5C 318.326,139.854 316.993,135.854 316.5,131.5C 316.759,129.011 315.759,127.344 313.5,126.5C 311.429,125.191 308.929,124.525 306,124.5C 299.842,125.045 293.675,125.378 287.5,125.5C 290.833,124.833 294.167,124.167 297.5,123.5C 304.206,122.559 310.872,122.559 317.5,123.5 Z"/></g>
<g><path style="opacity:0.235" fill="#5bb1df" d="M 313.5,126.5 C 315.759,127.344 316.759,129.011 316.5,131.5C 315.636,130.312 314.636,129.145 313.5,128C 310,127.833 306.5,127.667 303,127.5C 299.098,127.512 295.598,128.179 292.5,129.5C 288.149,128.533 285.815,130.2 285.5,134.5C 283.89,137.203 282.89,140.203 282.5,143.5C 282.173,138.786 282.507,134.12 283.5,129.5C 284.308,129.192 284.975,128.692 285.5,128C 294.726,126.555 304.06,126.055 313.5,126.5 Z"/></g>
<g><path style="opacity:1" fill="#eff4f7" d="M 318.5,130.5 C 319.79,131.058 320.623,132.058 321,133.5C 321.71,132.027 322.876,131.36 324.5,131.5C 324.294,134.997 325.628,137.663 328.5,139.5C 328.343,140.873 328.51,142.207 329,143.5C 332.088,147.846 334.588,152.512 336.5,157.5C 335.645,158.531 334.978,159.697 334.5,161C 335.515,164.861 337.181,168.361 339.5,171.5C 337.596,171.262 336.262,170.262 335.5,168.5C 331.174,159.591 326.174,151.258 320.5,143.5C 320.348,139.076 319.681,134.743 318.5,130.5 Z"/></g>
<g><path style="opacity:0.765" fill="#699de4" d="M 316.5,131.5 C 316.993,135.854 318.326,139.854 320.5,143.5C 320.232,145.099 320.566,146.432 321.5,147.5C 321.575,150.206 321.908,152.873 322.5,155.5C 318.109,146.968 314.776,137.968 312.5,128.5C 305.745,128.207 299.078,128.54 292.5,129.5C 295.598,128.179 299.098,127.512 303,127.5C 306.5,127.667 310,127.833 313.5,128C 314.636,129.145 315.636,130.312 316.5,131.5 Z"/></g>
<g><path style="opacity:1" fill="#c7e6f9" d="M 320.5,143.5 C 326.174,151.258 331.174,159.591 335.5,168.5C 329.565,162.282 324.898,155.282 321.5,147.5C 320.566,146.432 320.232,145.099 320.5,143.5 Z"/></g>
<g><path style="opacity:0.976" fill="#6face9" d="M 330.5,139.5 C 332.643,141.131 334.31,143.131 335.5,145.5C 337.588,147.336 338.921,149.669 339.5,152.5C 342.413,158.081 346.413,162.747 351.5,166.5C 350.5,166.5 349.5,166.5 348.5,166.5C 343.998,161.491 339.498,156.491 335,151.5C 333.771,147.379 332.271,143.379 330.5,139.5 Z"/></g>
<g><path style="opacity:0.384" fill="#4983cf" d="M 270.5,112.5 C 269.075,113.922 268.075,115.589 267.5,117.5C 267.5,118.5 267.5,119.5 267.5,120.5C 266.539,129.336 266.539,138.336 267.5,147.5C 267.5,155.167 267.5,162.833 267.5,170.5C 266.833,169.5 266.167,168.5 265.5,167.5C 265.333,150.497 265.5,133.497 266,116.5C 266.748,114.249 268.248,112.916 270.5,112.5 Z"/></g>
<g><path style="opacity:1" fill="#bbe3f9" d="M 328.5,135.5 C 329.167,136.167 329.833,136.833 330.5,137.5C 330.5,138.167 330.5,138.833 330.5,139.5C 332.271,143.379 333.771,147.379 335,151.5C 339.498,156.491 343.998,161.491 348.5,166.5C 346.589,165.925 344.922,164.925 343.5,163.5C 341.153,161.419 338.82,159.419 336.5,157.5C 334.588,152.512 332.088,147.846 329,143.5C 328.51,142.207 328.343,140.873 328.5,139.5C 328.5,138.167 328.5,136.833 328.5,135.5 Z"/></g>
<g><path style="opacity:0.055" fill="#437cd6" d="M 339.5,152.5 C 343.637,157.469 348.304,161.969 353.5,166C 359.055,169.574 365.055,172.074 371.5,173.5C 371.083,174.124 370.416,174.457 369.5,174.5C 365.408,173.358 361.408,172.025 357.5,170.5C 354.733,170.13 352.733,168.796 351.5,166.5C 346.413,162.747 342.413,158.081 339.5,152.5 Z"/></g>
<g><path style="opacity:1" fill="#f3f6f3" d="M 276.5,168.5 C 274.71,172.569 273.71,172.236 273.5,167.5C 273.74,163.911 274.073,160.244 274.5,156.5C 273.95,154.343 273.283,152.343 272.5,150.5C 272.5,150.167 272.5,149.833 272.5,149.5C 273.165,147.631 273.831,145.631 274.5,143.5C 275.54,151.806 276.207,160.14 276.5,168.5 Z"/></g>
<g><path style="opacity:1" fill="#ebf4f5" d="M 336.5,157.5 C 338.82,159.419 341.153,161.419 343.5,163.5C 343.557,164.609 343.89,165.609 344.5,166.5C 345.014,168.512 345.18,170.512 345,172.5C 343.989,171.663 342.822,171.33 341.5,171.5C 340.833,171.5 340.167,171.5 339.5,171.5C 337.181,168.361 335.515,164.861 334.5,161C 334.978,159.697 335.645,158.531 336.5,157.5 Z"/></g>
<g><path style="opacity:1" fill="#c4e6f7" d="M 343.5,163.5 C 344.922,164.925 346.589,165.925 348.5,166.5C 349.5,166.5 350.5,166.5 351.5,166.5C 352.733,168.796 354.733,170.13 357.5,170.5C 360.205,173.416 363.538,175.416 367.5,176.5C 364.393,176.649 361.393,176.149 358.5,175C 353.849,172.069 349.182,169.236 344.5,166.5C 343.89,165.609 343.557,164.609 343.5,163.5 Z"/></g>
<g><path style="opacity:1" fill="#ecf4f3" d="M 272.5,150.5 C 273.283,152.343 273.95,154.343 274.5,156.5C 274.073,160.244 273.74,163.911 273.5,167.5C 273.71,172.236 274.71,172.569 276.5,168.5C 276.833,168.5 277.167,168.5 277.5,168.5C 277.814,181.579 277.48,194.579 276.5,207.5C 275.883,207.611 275.383,207.944 275,208.5C 274.501,212.486 274.334,216.486 274.5,220.5C 273.833,204.833 273.167,189.167 272.5,173.5C 272.5,165.833 272.5,158.167 272.5,150.5 Z"/></g>
<g><path style="opacity:1" fill="#def0f7" d="M 297.5,123.5 C 294.167,124.167 290.833,124.833 287.5,125.5C 285.712,125.215 284.045,125.548 282.5,126.5C 280.698,130.964 280.032,135.63 280.5,140.5C 279.683,142.969 279.183,145.635 279,148.5C 278.775,181.846 278.275,215.179 277.5,248.5C 276.833,248.5 276.167,248.5 275.5,248.5C 276.312,234.85 276.645,221.183 276.5,207.5C 277.48,194.579 277.814,181.579 277.5,168.5C 277.509,156.148 278.009,143.815 279,131.5C 279.448,128.969 280.281,126.636 281.5,124.5C 286.805,123.806 292.138,123.472 297.5,123.5 Z"/></g>
<g><path style="opacity:1" fill="#93ccf3" d="M 267.5,120.5 C 267.276,128.389 267.942,136.056 269.5,143.5C 269.5,147.5 269.5,151.5 269.5,155.5C 269.5,167.5 269.5,179.5 269.5,191.5C 268.833,176.833 268.167,162.167 267.5,147.5C 266.539,138.336 266.539,129.336 267.5,120.5 Z"/></g>
<g><path style="opacity:0.886" fill="#71a7eb" d="M 321.5,147.5 C 324.898,155.282 329.565,162.282 335.5,168.5C 336.262,170.262 337.596,171.262 339.5,171.5C 340.707,175.374 343.04,178.374 346.5,180.5C 338.658,176.499 332.158,170.833 327,163.5C 325.235,160.968 323.735,158.301 322.5,155.5C 321.908,152.873 321.575,150.206 321.5,147.5 Z"/></g>
<g><path style="opacity:1" fill="#e8f1f5" d="M 344.5,166.5 C 349.182,169.236 353.849,172.069 358.5,175C 361.393,176.149 364.393,176.649 367.5,176.5C 367.5,177.5 367.5,178.5 367.5,179.5C 367.5,180.5 367.5,181.5 367.5,182.5C 364.08,182.926 361.247,181.926 359,179.5C 354.122,178.97 349.622,177.637 345.5,175.5C 343.5,174.833 342.167,173.5 341.5,171.5C 342.822,171.33 343.989,171.663 345,172.5C 345.18,170.512 345.014,168.512 344.5,166.5 Z"/></g>
<g><path style="opacity:0.976" fill="#7ab6ef" d="M 357.5,170.5 C 361.408,172.025 365.408,173.358 369.5,174.5C 370.416,174.457 371.083,174.124 371.5,173.5C 375.983,174.228 380.316,175.228 384.5,176.5C 386.785,177.479 388.452,179.145 389.5,181.5C 387.804,181.315 386.471,180.481 385.5,179C 379.411,178.625 373.411,177.792 367.5,176.5C 363.538,175.416 360.205,173.416 357.5,170.5 Z"/></g>
<g><path style="opacity:1" fill="#bfe6fc" d="M 367.5,176.5 C 373.411,177.792 379.411,178.625 385.5,179C 386.471,180.481 387.804,181.315 389.5,181.5C 389.5,181.833 389.5,182.167 389.5,182.5C 389.5,188.833 389.5,195.167 389.5,201.5C 388.672,195.681 388.172,189.681 388,183.5C 387.617,182.944 387.117,182.611 386.5,182.5C 386.389,181.883 386.056,181.383 385.5,181C 382.518,180.502 379.518,180.335 376.5,180.5C 373.545,179.841 370.545,179.508 367.5,179.5C 367.5,178.5 367.5,177.5 367.5,176.5 Z"/></g>
<g><path style="opacity:1" fill="#b9defb" d="M 339.5,171.5 C 340.167,171.5 340.833,171.5 341.5,171.5C 342.167,173.5 343.5,174.833 345.5,175.5C 347.925,178.762 351.258,180.262 355.5,180C 359.192,181.942 362.858,183.776 366.5,185.5C 366.5,185.833 366.5,186.167 366.5,186.5C 360.002,183.889 353.335,181.889 346.5,180.5C 343.04,178.374 340.707,175.374 339.5,171.5 Z"/></g>
<g><path style="opacity:1" fill="#eaf0f6" d="M 345.5,175.5 C 349.622,177.637 354.122,178.97 359,179.5C 361.247,181.926 364.08,182.926 367.5,182.5C 367.5,181.5 367.5,180.5 367.5,179.5C 370.545,179.508 373.545,179.841 376.5,180.5C 376.53,181.497 376.03,182.164 375,182.5C 371.825,182.834 368.992,183.834 366.5,185.5C 362.858,183.776 359.192,181.942 355.5,180C 351.258,180.262 347.925,178.762 345.5,175.5 Z"/></g>
<g><path style="opacity:1" fill="#e5f4f3" d="M 376.5,180.5 C 379.518,180.335 382.518,180.502 385.5,181C 386.056,181.383 386.389,181.883 386.5,182.5C 386.5,183.5 386.5,184.5 386.5,185.5C 384.738,185.643 383.071,185.309 381.5,184.5C 380.099,185.521 378.765,186.521 377.5,187.5C 374.14,187.384 370.807,187.051 367.5,186.5C 367.167,186.5 366.833,186.5 366.5,186.5C 366.5,186.167 366.5,185.833 366.5,185.5C 368.992,183.834 371.825,182.834 375,182.5C 376.03,182.164 376.53,181.497 376.5,180.5 Z"/></g>
<g><path style="opacity:0.949" fill="#6da4e4" d="M 346.5,180.5 C 353.335,181.889 360.002,183.889 366.5,186.5C 366.833,186.5 367.167,186.5 367.5,186.5C 369.838,188.04 372.505,188.706 375.5,188.5C 377.065,191.19 377.731,194.19 377.5,197.5C 377.247,202.524 376.747,207.524 376,212.5C 375.722,213.416 375.222,214.082 374.5,214.5C 375.395,207.127 375.395,199.794 374.5,192.5C 368.071,190.635 361.738,188.468 355.5,186C 352.102,184.643 349.102,182.81 346.5,180.5 Z"/></g>
<g><path style="opacity:1" fill="#d1ecf9" d="M 269.5,138.5 C 270.319,141.305 270.819,144.305 271,147.5C 271.5,156.827 271.666,166.161 271.5,175.5C 271.5,208.5 271.5,241.5 271.5,274.5C 270.833,234.833 270.167,195.167 269.5,155.5C 269.5,151.5 269.5,147.5 269.5,143.5C 269.5,141.833 269.5,140.167 269.5,138.5 Z"/></g>
<g><path style="opacity:1" fill="#c8e8f9" d="M 280.5,140.5 C 280.5,146.833 280.5,153.167 280.5,159.5C 279.667,207.332 279.167,255.332 279,303.5C 278.809,305.708 278.309,307.708 277.5,309.5C 277.5,301.833 277.5,294.167 277.5,286.5C 277.5,273.833 277.5,261.167 277.5,248.5C 278.275,215.179 278.775,181.846 279,148.5C 279.183,145.635 279.683,142.969 280.5,140.5 Z"/></g>
<g><path style="opacity:1" fill="#eef4f8" d="M 386.5,185.5 C 386.425,196.223 387.092,206.89 388.5,217.5C 386.825,214.493 386.159,211.16 386.5,207.5C 386.001,203.51 385.501,199.51 385,195.5C 383.748,198.014 383.248,200.68 383.5,203.5C 382.5,203.5 381.5,203.5 380.5,203.5C 380.821,198.305 380.487,193.305 379.5,188.5C 378.833,188.167 378.167,187.833 377.5,187.5C 378.765,186.521 380.099,185.521 381.5,184.5C 383.071,185.309 384.738,185.643 386.5,185.5 Z"/></g>
<g><path style="opacity:1" fill="#ddf1fc" d="M 386.5,182.5 C 387.117,182.611 387.617,182.944 388,183.5C 388.172,189.681 388.672,195.681 389.5,201.5C 389.407,207.863 389.74,214.196 390.5,220.5C 389.662,220.842 389.328,221.508 389.5,222.5C 388.549,221.081 388.216,219.415 388.5,217.5C 387.092,206.89 386.425,196.223 386.5,185.5C 386.5,184.5 386.5,183.5 386.5,182.5 Z"/></g>
<g><path style="opacity:0.99" fill="#96c9f2" d="M 375.5,188.5 C 376.496,188.414 377.329,188.748 378,189.5C 379.21,199.755 378.21,209.755 375,219.5C 370.4,220.823 365.9,220.823 361.5,219.5C 365.371,219.815 369.038,219.482 372.5,218.5C 373.806,217.533 374.473,216.199 374.5,214.5C 375.222,214.082 375.722,213.416 376,212.5C 376.747,207.524 377.247,202.524 377.5,197.5C 377.731,194.19 377.065,191.19 375.5,188.5 Z"/></g>
<g><path style="opacity:0.055" fill="#4175c5" d="M 384.5,176.5 C 389.056,176.554 391.556,178.888 392,183.5C 392.561,195.167 393.061,206.834 393.5,218.5C 392.833,216.5 392.167,214.5 391.5,212.5C 391.666,203.494 391.5,194.494 391,185.5C 390.768,184.263 390.268,183.263 389.5,182.5C 389.5,182.167 389.5,181.833 389.5,181.5C 388.452,179.145 386.785,177.479 384.5,176.5 Z"/></g>
<g><path style="opacity:0.306" fill="#3e61de" d="M 265.5,167.5 C 266.167,168.5 266.833,169.5 267.5,170.5C 267.5,189.5 267.5,208.5 267.5,227.5C 266.833,220.5 266.167,213.5 265.5,206.5C 265.5,193.5 265.5,180.5 265.5,167.5 Z"/></g>
<g><path style="opacity:0.736" fill="#255cab" d="M 285.5,134.5 C 284.797,143.149 284.464,151.815 284.5,160.5C 283.503,178.326 283.17,196.326 283.5,214.5C 283.167,214.5 282.833,214.5 282.5,214.5C 282.5,190.833 282.5,167.167 282.5,143.5C 282.89,140.203 283.89,137.203 285.5,134.5 Z"/></g>
<g><path style="opacity:0.992" fill="#9ccdf4" d="M 389.5,182.5 C 390.268,183.263 390.768,184.263 391,185.5C 391.5,194.494 391.666,203.494 391.5,212.5C 391.5,215.167 391.5,217.833 391.5,220.5C 391.167,220.5 390.833,220.5 390.5,220.5C 389.74,214.196 389.407,207.863 389.5,201.5C 389.5,195.167 389.5,188.833 389.5,182.5 Z"/></g>
<g><path style="opacity:1" fill="#dceff6" d="M 271.5,175.5 C 271.833,175.5 272.167,175.5 272.5,175.5C 272.169,199.672 272.502,223.672 273.5,247.5C 273.5,247.833 273.5,248.167 273.5,248.5C 272.629,258.806 272.296,269.14 272.5,279.5C 271.549,278.081 271.216,276.415 271.5,274.5C 271.5,241.5 271.5,208.5 271.5,175.5 Z"/></g>
<g><path style="opacity:1" fill="#e6f2f2" d="M 328.5,209.5 C 332.158,211.478 335.491,213.812 338.5,216.5C 340.066,218.875 342.399,220.042 345.5,220C 346.167,220.667 346.833,221.333 347.5,222C 345.497,222.335 343.83,223.168 342.5,224.5C 337.736,221.631 332.569,219.631 327,218.5C 325.624,218.684 324.791,219.351 324.5,220.5C 323.883,220.611 323.383,220.944 323,221.5C 322.667,224.5 322.333,227.5 322,230.5C 318.002,227.488 317.502,223.822 320.5,219.5C 319.079,215.972 318.412,212.306 318.5,208.5C 321.807,209.051 325.14,209.384 328.5,209.5 Z"/></g>
<g><path style="opacity:1" fill="#f5f8fa" d="M 386.5,207.5 C 385.677,210.977 385.177,214.644 385,218.5C 382.277,214.244 381.11,214.578 381.5,219.5C 382.5,219.5 383.5,219.5 384.5,219.5C 384.297,221.39 384.963,222.89 386.5,224C 386,224.5 385.5,225 385,225.5C 383.644,224.62 382.144,224.286 380.5,224.5C 380.5,221.5 380.5,218.5 380.5,215.5C 380.5,211.5 380.5,207.5 380.5,203.5C 381.5,203.5 382.5,203.5 383.5,203.5C 383.248,200.68 383.748,198.014 385,195.5C 385.501,199.51 386.001,203.51 386.5,207.5 Z"/></g>
<g><path style="opacity:0.947" fill="#77b8ee" d="M 250.5,211.5 C 250.5,212.167 250.5,212.833 250.5,213.5C 250.83,230.675 250.497,247.675 249.5,264.5C 249.667,248.163 249.5,231.83 249,215.5C 246.801,212.087 243.634,210.753 239.5,211.5C 237.048,211.539 235.048,212.206 233.5,213.5C 225.518,214.646 217.518,215.646 209.5,216.5C 222.652,211.243 236.319,209.576 250.5,211.5 Z"/></g>
<g><path style="opacity:1" fill="#e0f0f6" d="M 325.5,206.5 C 326.1,207.9 327.1,208.9 328.5,209.5C 325.14,209.384 321.807,209.051 318.5,208.5C 318.412,212.306 319.079,215.972 320.5,219.5C 317.502,223.822 318.002,227.488 322,230.5C 322.333,227.5 322.667,224.5 323,221.5C 323.383,220.944 323.883,220.611 324.5,220.5C 324.5,224.167 324.5,227.833 324.5,231.5C 323.509,237.979 323.176,244.646 323.5,251.5C 322.674,246.684 322.174,241.684 322,236.5C 317.502,243.111 317.336,249.778 321.5,256.5C 321.5,256.833 321.5,257.167 321.5,257.5C 320.745,260.053 320.078,262.72 319.5,265.5C 318.675,261.353 318.175,257.019 318,252.5C 317.5,237.837 317.333,223.17 317.5,208.5C 317.611,207.883 317.944,207.383 318.5,207C 320.81,206.503 323.143,206.337 325.5,206.5 Z"/></g>
<g><path style="opacity:0.875" fill="#265aa3" d="M 282.5,214.5 C 282.833,214.5 283.167,214.5 283.5,214.5C 282.877,221.255 283.544,227.588 285.5,233.5C 285.5,237.167 285.5,240.833 285.5,244.5C 284.596,245.209 284.263,246.209 284.5,247.5C 283.505,259.655 283.171,271.989 283.5,284.5C 283.167,284.5 282.833,284.5 282.5,284.5C 282.5,261.167 282.5,237.833 282.5,214.5 Z"/></g>
<g><path style="opacity:1" fill="#bce4fb" d="M 233.5,213.5 C 237.514,213.334 241.514,213.501 245.5,214C 246.056,214.383 246.389,214.883 246.5,215.5C 245.833,215.5 245.167,215.5 244.5,215.5C 232.122,214.048 220.122,215.715 208.5,220.5C 206.421,220.971 204.421,221.637 202.5,222.5C 198.375,222.092 195.041,223.426 192.5,226.5C 190.303,227.845 187.97,229.011 185.5,230C 184.695,231.113 184.028,232.279 183.5,233.5C 181.205,234.475 179.205,235.808 177.5,237.5C 176.833,237.5 176.167,237.5 175.5,237.5C 177.833,233.833 180.833,230.833 184.5,228.5C 192.158,223.172 200.491,219.172 209.5,216.5C 217.518,215.646 225.518,214.646 233.5,213.5 Z"/></g>
<g><path style="opacity:0.871" fill="#67a7ea" d="M 335.5,208.5 C 335.47,209.497 335.97,210.164 337,210.5C 342.261,212.216 347.095,214.549 351.5,217.5C 343.683,216.228 336.683,213.062 330.5,208C 328.846,207.392 327.179,206.892 325.5,206.5C 322.132,203.954 318.799,203.954 315.5,206.5C 314.833,211.167 314.167,215.833 313.5,220.5C 313.819,215.637 313.486,210.97 312.5,206.5C 314.025,203.062 316.691,201.062 320.5,200.5C 326.288,201.891 331.288,204.558 335.5,208.5 Z"/></g>
<g><path style="opacity:0.086" fill="#457ad3" d="M 335.5,208.5 C 343.362,211.621 351.362,214.455 359.5,217C 363.832,217.583 368.165,218.083 372.5,218.5C 369.038,219.482 365.371,219.815 361.5,219.5C 358.306,218.242 354.973,217.576 351.5,217.5C 347.095,214.549 342.261,212.216 337,210.5C 335.97,210.164 335.47,209.497 335.5,208.5 Z"/></g>
<g><path style="opacity:1" fill="#f5fcfa" d="M 386.5,207.5 C 386.159,211.16 386.825,214.493 388.5,217.5C 388.216,219.415 388.549,221.081 389.5,222.5C 389.664,225.187 389.497,227.854 389,230.5C 388.329,231.252 387.496,231.586 386.5,231.5C 380.483,230.864 374.483,230.031 368.5,229C 367.185,227.605 367.519,226.605 369.5,226C 372.063,225.874 374.396,225.707 376.5,225.5C 377.496,225.586 378.329,225.252 379,224.5C 379.181,221.305 379.681,218.305 380.5,215.5C 380.5,218.5 380.5,221.5 380.5,224.5C 382.144,224.286 383.644,224.62 385,225.5C 385.5,225 386,224.5 386.5,224C 384.963,222.89 384.297,221.39 384.5,219.5C 383.5,219.5 382.5,219.5 381.5,219.5C 381.11,214.578 382.277,214.244 385,218.5C 385.177,214.644 385.677,210.977 386.5,207.5 Z"/></g>
<g><path style="opacity:1" fill="#e8f0f7" d="M 232.5,216.5 C 236.298,215.517 240.298,215.183 244.5,215.5C 245.167,215.5 245.833,215.5 246.5,215.5C 247.265,218.096 247.599,220.763 247.5,223.5C 246.673,228.985 246.173,234.652 246,240.5C 245.667,234.5 245.333,228.5 245,222.5C 243.244,221.015 242.077,221.348 241.5,223.5C 241.167,223.5 240.833,223.5 240.5,223.5C 239.833,223.5 239.5,223.167 239.5,222.5C 239.5,222.167 239.5,221.833 239.5,221.5C 239.351,220.448 239.517,219.448 240,218.5C 240.893,219.711 241.726,219.711 242.5,218.5C 242.291,217.914 241.957,217.414 241.5,217C 238.518,216.502 235.518,216.335 232.5,216.5 Z"/></g>
<g><path style="opacity:1" fill="#e8f2f2" d="M 232.5,216.5 C 235.518,216.335 238.518,216.502 241.5,217C 241.957,217.414 242.291,217.914 242.5,218.5C 241.726,219.711 240.893,219.711 240,218.5C 239.517,219.448 239.351,220.448 239.5,221.5C 234.167,221.5 228.833,221.5 223.5,221.5C 223.5,220.167 223.5,218.833 223.5,217.5C 226.518,217.296 229.518,216.963 232.5,216.5 Z"/></g>
<g><path style="opacity:1" fill="#e5f2f3" d="M 272.5,173.5 C 273.167,189.167 273.833,204.833 274.5,220.5C 273.585,229.46 273.252,238.46 273.5,247.5C 272.502,223.672 272.169,199.672 272.5,175.5C 272.5,174.833 272.5,174.167 272.5,173.5 Z"/></g>
<g><path style="opacity:1" fill="#e3f1f0" d="M 211.5,226.5 C 211.167,226.5 210.833,226.5 210.5,226.5C 207.101,226.391 204.434,225.058 202.5,222.5C 204.421,221.637 206.421,220.971 208.5,220.5C 212.238,219.921 215.904,219.921 219.5,220.5C 216.808,222.515 214.141,224.515 211.5,226.5 Z"/></g>
<g><path style="opacity:1" fill="#bee7f9" d="M 325.5,206.5 C 323.143,206.337 320.81,206.503 318.5,207C 317.944,207.383 317.611,207.883 317.5,208.5C 316.502,234.661 316.169,260.995 316.5,287.5C 316.367,295.625 315.367,303.625 313.5,311.5C 311.96,313.838 311.294,316.505 311.5,319.5C 311.167,319.5 310.833,319.5 310.5,319.5C 310.332,315.342 310.998,311.342 312.5,307.5C 314.087,301.371 314.92,295.038 315,288.5C 315.5,261.169 315.667,233.835 315.5,206.5C 318.799,203.954 322.132,203.954 325.5,206.5 Z"/></g>
<g><path style="opacity:1" fill="#d0ecfc" d="M 325.5,206.5 C 327.179,206.892 328.846,207.392 330.5,208C 336.683,213.062 343.683,216.228 351.5,217.5C 351.369,218.376 351.702,219.043 352.5,219.5C 355.662,220.365 358.662,221.365 361.5,222.5C 353.306,222.095 345.639,220.095 338.5,216.5C 335.491,213.812 332.158,211.478 328.5,209.5C 327.1,208.9 326.1,207.9 325.5,206.5 Z"/></g>
<g><path style="opacity:1" fill="#deeff7" d="M 244.5,215.5 C 240.298,215.183 236.298,215.517 232.5,216.5C 229.518,216.963 226.518,217.296 223.5,217.5C 223.5,218.833 223.5,220.167 223.5,221.5C 228.833,221.5 234.167,221.5 239.5,221.5C 239.5,221.833 239.5,222.167 239.5,222.5C 229.873,221.991 220.539,223.324 211.5,226.5C 214.141,224.515 216.808,222.515 219.5,220.5C 215.904,219.921 212.238,219.921 208.5,220.5C 220.122,215.715 232.122,214.048 244.5,215.5 Z"/></g>
<g><path style="opacity:1" fill="#c0e6fa" d="M 342.5,224.5 C 344.426,225.486 346.426,226.486 348.5,227.5C 349.5,228.167 350.5,228.833 351.5,229.5C 348.833,229.5 346.167,229.5 343.5,229.5C 338.823,223.913 332.99,220.913 326,220.5C 325.501,224.486 325.334,228.486 325.5,232.5C 325.831,259.005 325.498,285.339 324.5,311.5C 324.5,305.5 324.5,299.5 324.5,293.5C 324.5,272.833 324.5,252.167 324.5,231.5C 324.5,227.833 324.5,224.167 324.5,220.5C 324.791,219.351 325.624,218.684 327,218.5C 332.569,219.631 337.736,221.631 342.5,224.5 Z"/></g>
<g><path style="opacity:1" fill="#e7f2f5" d="M 338.5,216.5 C 345.639,220.095 353.306,222.095 361.5,222.5C 361.5,222.833 361.5,223.167 361.5,223.5C 358.15,223.335 354.817,223.502 351.5,224C 351.833,224.333 352.167,224.667 352.5,225C 351.5,225.333 350.5,225.667 349.5,226C 351.974,226.037 353.974,226.87 355.5,228.5C 353.236,227.781 350.903,227.448 348.5,227.5C 346.426,226.486 344.426,225.486 342.5,224.5C 343.83,223.168 345.497,222.335 347.5,222C 346.833,221.333 346.167,220.667 345.5,220C 342.399,220.042 340.066,218.875 338.5,216.5 Z"/></g>
<g><path style="opacity:1" fill="#bce1fb" d="M 367.5,186.5 C 370.807,187.051 374.14,187.384 377.5,187.5C 378.167,187.833 378.833,188.167 379.5,188.5C 379.469,199.844 379.136,211.178 378.5,222.5C 372.833,222.5 367.167,222.5 361.5,222.5C 358.662,221.365 355.662,220.365 352.5,219.5C 351.702,219.043 351.369,218.376 351.5,217.5C 354.973,217.576 358.306,218.242 361.5,219.5C 365.9,220.823 370.4,220.823 375,219.5C 378.21,209.755 379.21,199.755 378,189.5C 377.329,188.748 376.496,188.414 375.5,188.5C 372.505,188.706 369.838,188.04 367.5,186.5 Z"/></g>
<g><path style="opacity:0.541" fill="#528cdd" d="M 250.5,211.5 C 236.319,209.576 222.652,211.243 209.5,216.5C 200.491,219.172 192.158,223.172 184.5,228.5C 175.616,232.052 168.949,238.052 164.5,246.5C 162.5,248.167 160.5,249.833 158.5,251.5C 161.559,247.772 164.226,243.772 166.5,239.5C 179.071,227.704 193.738,219.204 210.5,214C 221.024,211.329 231.69,209.495 242.5,208.5C 244.819,209.064 247.153,209.564 249.5,210C 250.056,210.383 250.389,210.883 250.5,211.5 Z"/></g>
<g><path style="opacity:1" fill="#e4f4f0" d="M 276.5,207.5 C 276.645,221.183 276.312,234.85 275.5,248.5C 274.833,248.5 274.167,248.5 273.5,248.5C 273.5,248.167 273.5,247.833 273.5,247.5C 273.252,238.46 273.585,229.46 274.5,220.5C 274.334,216.486 274.501,212.486 275,208.5C 275.383,207.944 275.883,207.611 276.5,207.5 Z"/></g>
<g><path style="opacity:1" fill="#e6f4fd" d="M 379.5,188.5 C 380.487,193.305 380.821,198.305 380.5,203.5C 380.5,207.5 380.5,211.5 380.5,215.5C 379.681,218.305 379.181,221.305 379,224.5C 378.329,225.252 377.496,225.586 376.5,225.5C 371.5,224.833 366.5,224.167 361.5,223.5C 361.5,223.167 361.5,222.833 361.5,222.5C 367.167,222.5 372.833,222.5 378.5,222.5C 379.136,211.178 379.469,199.844 379.5,188.5 Z"/></g>
<g><path style="opacity:0.997" fill="#7eb6ea" d="M 343.5,229.5 C 338.868,228.404 334.534,226.737 330.5,224.5C 330.5,224.167 330.5,223.833 330.5,223.5C 329.791,222.596 328.791,222.263 327.5,222.5C 327.831,253.005 327.498,283.338 326.5,313.5C 326.831,286.328 326.498,259.328 325.5,232.5C 325.334,228.486 325.501,224.486 326,220.5C 332.99,220.913 338.823,223.913 343.5,229.5 Z"/></g>
<g><path style="opacity:1" fill="#eff6f8" d="M 361.5,223.5 C 366.5,224.167 371.5,224.833 376.5,225.5C 374.396,225.707 372.063,225.874 369.5,226C 367.519,226.605 367.185,227.605 368.5,229C 374.483,230.031 380.483,230.864 386.5,231.5C 379.679,232.655 372.679,232.821 365.5,232C 362.571,229.889 359.238,228.722 355.5,228.5C 353.974,226.87 351.974,226.037 349.5,226C 350.5,225.667 351.5,225.333 352.5,225C 352.167,224.667 351.833,224.333 351.5,224C 354.817,223.502 358.15,223.335 361.5,223.5 Z"/></g>
<g><path style="opacity:1" fill="#d2eef7" d="M 202.5,222.5 C 204.434,225.058 207.101,226.391 210.5,226.5C 210.167,227.167 209.833,227.833 209.5,228.5C 203.364,231.109 197.364,234.109 191.5,237.5C 191.5,236.833 191.5,236.167 191.5,235.5C 194.842,233.164 198.175,230.831 201.5,228.5C 200.561,226.947 199.394,225.613 198,224.5C 196.433,225.856 194.6,226.523 192.5,226.5C 195.041,223.426 198.375,222.092 202.5,222.5 Z"/></g>
<g><path style="opacity:1" fill="#76b3e7" d="M 237.5,225.5 C 235.265,225.205 233.265,225.539 231.5,226.5C 221.098,226.906 211.431,229.573 202.5,234.5C 196.695,236.233 191.695,239.233 187.5,243.5C 184.833,245.167 182.167,246.833 179.5,248.5C 181.459,244.874 184.126,241.874 187.5,239.5C 188.605,238.4 189.938,237.733 191.5,237.5C 197.364,234.109 203.364,231.109 209.5,228.5C 214.984,226.621 220.65,225.454 226.5,225C 230.358,224.19 234.024,224.357 237.5,225.5 Z"/></g>
<g><path style="opacity:1" fill="#bce3fc" d="M 239.5,222.5 C 239.5,223.167 239.833,223.5 240.5,223.5C 240.667,234.172 240.5,244.839 240,255.5C 239.617,256.056 239.117,256.389 238.5,256.5C 238.828,245.986 238.494,235.653 237.5,225.5C 234.024,224.357 230.358,224.19 226.5,225C 220.65,225.454 214.984,226.621 209.5,228.5C 209.833,227.833 210.167,227.167 210.5,226.5C 210.833,226.5 211.167,226.5 211.5,226.5C 220.539,223.324 229.873,221.991 239.5,222.5 Z"/></g>
<g><path style="opacity:1" fill="#e0eff3" d="M 191.5,235.5 C 189.862,236.159 188.195,236.826 186.5,237.5C 186.089,236.738 185.923,235.738 186,234.5C 185.329,233.748 184.496,233.414 183.5,233.5C 184.028,232.279 184.695,231.113 185.5,230C 187.97,229.011 190.303,227.845 192.5,226.5C 194.6,226.523 196.433,225.856 198,224.5C 199.394,225.613 200.561,226.947 201.5,228.5C 198.175,230.831 194.842,233.164 191.5,235.5 Z"/></g>
<g><path style="opacity:1" fill="#b4e3fb" d="M 249.5,264.5 C 248.782,267.846 246.782,269.846 243.5,270.5C 234.944,271.056 226.611,272.722 218.5,275.5C 219.058,274.21 220.058,273.377 221.5,273C 224.929,272.467 228.262,271.633 231.5,270.5C 233.179,270.108 234.846,269.608 236.5,269C 236.167,268.667 235.833,268.333 235.5,268C 238.5,267.667 241.5,267.333 244.5,267C 246.333,266.5 247.5,265.333 248,263.5C 248.667,247.833 248.667,232.167 248,216.5C 247.617,215.944 247.117,215.611 246.5,215.5C 246.389,214.883 246.056,214.383 245.5,214C 241.514,213.501 237.514,213.334 233.5,213.5C 235.048,212.206 237.048,211.539 239.5,211.5C 243.634,210.753 246.801,212.087 249,215.5C 249.5,231.83 249.667,248.163 249.5,264.5 Z"/></g>
<g><path style="opacity:0.504" fill="#0e3c93" d="M 284.5,160.5 C 284.632,184.837 284.965,209.17 285.5,233.5C 283.544,227.588 282.877,221.255 283.5,214.5C 283.17,196.326 283.503,178.326 284.5,160.5 Z"/></g>
<g><path style="opacity:1" fill="#2662ac" d="M 231.5,226.5 C 233.167,226.5 234.833,226.5 236.5,226.5C 236.823,232.69 236.49,238.69 235.5,244.5C 235.5,239.167 235.5,233.833 235.5,228.5C 234.167,228.5 232.833,228.5 231.5,228.5C 227.147,228.765 222.813,229.265 218.5,230C 213.21,231.821 207.877,233.321 202.5,234.5C 211.431,229.573 221.098,226.906 231.5,226.5 Z"/></g>
<g><path style="opacity:1" fill="#c8edfc" d="M 390.5,220.5 C 390.833,220.5 391.167,220.5 391.5,220.5C 393.225,227.445 390.892,232.278 384.5,235C 380.179,235.499 375.846,235.666 371.5,235.5C 364.024,235.696 357.357,233.696 351.5,229.5C 350.5,228.833 349.5,228.167 348.5,227.5C 350.903,227.448 353.236,227.781 355.5,228.5C 359.238,228.722 362.571,229.889 365.5,232C 372.679,232.821 379.679,232.655 386.5,231.5C 387.496,231.586 388.329,231.252 389,230.5C 389.497,227.854 389.664,225.187 389.5,222.5C 389.328,221.508 389.662,220.842 390.5,220.5 Z"/></g>
<g><path style="opacity:1" fill="#e2f1f5" d="M 247.5,223.5 C 247.667,234.172 247.5,244.839 247,255.5C 245.648,253.406 245.148,251.073 245.5,248.5C 244.178,248.67 243.011,248.337 242,247.5C 241.5,239.507 241.334,231.507 241.5,223.5C 242.077,221.348 243.244,221.015 245,222.5C 245.333,228.5 245.667,234.5 246,240.5C 246.173,234.652 246.673,228.985 247.5,223.5 Z"/></g>
<g><path style="opacity:1" fill="#d2eaf2" d="M 317.5,208.5 C 317.333,223.17 317.5,237.837 318,252.5C 318.175,257.019 318.675,261.353 319.5,265.5C 319.217,266.289 318.717,266.956 318,267.5C 317.501,272.489 317.334,277.489 317.5,282.5C 317.784,284.415 317.451,286.081 316.5,287.5C 316.169,260.995 316.502,234.661 317.5,208.5 Z"/></g>
<g><path style="opacity:1" fill="#69c1e9" d="M 391.5,212.5 C 392.167,214.5 392.833,216.5 393.5,218.5C 393.5,222.833 393.5,227.167 393.5,231.5C 386.828,236.478 379.495,237.811 371.5,235.5C 375.846,235.666 380.179,235.499 384.5,235C 390.892,232.278 393.225,227.445 391.5,220.5C 391.5,217.833 391.5,215.167 391.5,212.5 Z"/></g>
<g><path style="opacity:1" fill="#114293" d="M 231.5,228.5 C 223.999,231.672 216.332,234.672 208.5,237.5C 207.054,236.387 205.387,236.22 203.5,237C 197.699,238.27 192.366,240.437 187.5,243.5C 191.695,239.233 196.695,236.233 202.5,234.5C 207.877,233.321 213.21,231.821 218.5,230C 222.813,229.265 227.147,228.765 231.5,228.5 Z"/></g>
<g><path style="opacity:1" fill="#a0d3f7" d="M 184.5,228.5 C 180.833,230.833 177.833,233.833 175.5,237.5C 172.8,239.234 170.8,241.568 169.5,244.5C 167.486,244.392 165.82,245.058 164.5,246.5C 168.949,238.052 175.616,232.052 184.5,228.5 Z"/></g>
<g><path style="opacity:0.055" fill="#4984d0" d="M 343.5,229.5 C 346.167,229.5 348.833,229.5 351.5,229.5C 357.357,233.696 364.024,235.696 371.5,235.5C 379.495,237.811 386.828,236.478 393.5,231.5C 393.089,235.079 391.089,237.246 387.5,238C 371.994,238.919 357.328,236.085 343.5,229.5 Z"/></g>
<g><path style="opacity:1" fill="#ddf1f7" d="M 183.5,233.5 C 184.496,233.414 185.329,233.748 186,234.5C 185.923,235.738 186.089,236.738 186.5,237.5C 188.195,236.826 189.862,236.159 191.5,235.5C 191.5,236.167 191.5,236.833 191.5,237.5C 189.938,237.733 188.605,238.4 187.5,239.5C 184.669,240.079 182.336,241.412 180.5,243.5C 179.243,241.632 179.576,239.965 181.5,238.5C 180.311,237.571 178.978,237.238 177.5,237.5C 179.205,235.808 181.205,234.475 183.5,233.5 Z"/></g>
<g><path style="opacity:1" fill="#dfeff1" d="M 175.5,237.5 C 176.167,237.5 176.833,237.5 177.5,237.5C 178.978,237.238 180.311,237.571 181.5,238.5C 179.576,239.965 179.243,241.632 180.5,243.5C 179.207,245.296 177.707,246.963 176,248.5C 174.001,246.747 171.835,245.413 169.5,244.5C 170.8,241.568 172.8,239.234 175.5,237.5 Z"/></g>
<g><path style="opacity:1" fill="#e3f2f3" d="M 323.5,251.5 C 323.204,253.403 322.537,255.07 321.5,256.5C 317.336,249.778 317.502,243.111 322,236.5C 322.174,241.684 322.674,246.684 323.5,251.5 Z"/></g>
<g><path style="opacity:0.996" fill="#0c3588" d="M 208.5,237.5 C 197.538,242.653 187.538,249.32 178.5,257.5C 178.383,255.516 179.05,253.85 180.5,252.5C 179.45,250.898 180.117,250.065 182.5,250C 182.167,249.667 181.833,249.333 181.5,249C 184.043,247.618 186.043,245.785 187.5,243.5C 192.366,240.437 197.699,238.27 203.5,237C 205.387,236.22 207.054,236.387 208.5,237.5 Z"/></g>
<g><path style="opacity:0.937" fill="#7db7ee" d="M 237.5,225.5 C 238.494,235.653 238.828,245.986 238.5,256.5C 238.141,258.371 237.141,259.871 235.5,261C 232.635,261.183 229.969,261.683 227.5,262.5C 218.657,263.428 210.99,266.762 204.5,272.5C 203.761,272.369 203.094,272.536 202.5,273C 198.968,277.36 195.301,281.527 191.5,285.5C 192.75,282.933 193.917,280.267 195,277.5C 197.335,275.6 199.502,273.6 201.5,271.5C 206.914,267.46 212.914,264.46 219.5,262.5C 225.517,261.398 231.351,259.732 237,257.5C 237.5,246.839 237.667,236.172 237.5,225.5 Z"/></g>
<g><path style="opacity:0.485" fill="#5086da" d="M 231.5,226.5 C 233.265,225.539 235.265,225.205 237.5,225.5C 237.667,236.172 237.5,246.839 237,257.5C 231.351,259.732 225.517,261.398 219.5,262.5C 224.415,260.025 229.581,258.025 235,256.5C 235.499,252.514 235.666,248.514 235.5,244.5C 236.49,238.69 236.823,232.69 236.5,226.5C 234.833,226.5 233.167,226.5 231.5,226.5 Z"/></g>
<g><path style="opacity:0.925" fill="#3676b7" d="M 251.5,215.5 C 252.662,232.662 252.829,249.995 252,267.5C 251.583,268.756 250.75,269.423 249.5,269.5C 249.987,268.527 250.487,267.527 251,266.5C 251.5,249.503 251.667,232.503 251.5,215.5 Z"/></g>
<g><path style="opacity:0.365" fill="#1d50a0" d="M 330.5,223.5 C 330.5,223.833 330.5,224.167 330.5,224.5C 329.837,226.641 329.503,228.975 329.5,231.5C 330.348,240.825 331.014,250.158 331.5,259.5C 330.5,260.167 329.5,260.833 328.5,261.5C 327.853,248.456 328.52,235.789 330.5,223.5 Z"/></g>
<g><path style="opacity:1" fill="#d2e8ef" d="M 187.5,239.5 C 184.126,241.874 181.459,244.874 179.5,248.5C 178.833,248.833 178.167,249.167 177.5,249.5C 175.771,250.117 174.271,251.117 173,252.5C 169.837,256.131 167.004,259.798 164.5,263.5C 162.323,266.025 160.323,268.692 158.5,271.5C 157.616,267.51 158.949,264.677 162.5,263C 162,262.5 161.5,262 161,261.5C 159.903,263.053 158.57,264.386 157,265.5C 156.617,264.944 156.117,264.611 155.5,264.5C 157.595,261.486 159.095,258.153 160,254.5C 161.067,253.809 162.234,253.309 163.5,253C 162.833,252.667 162.167,252.333 161.5,252C 162.758,250.259 163.758,248.426 164.5,246.5C 165.82,245.058 167.486,244.392 169.5,244.5C 171.835,245.413 174.001,246.747 176,248.5C 177.707,246.963 179.207,245.296 180.5,243.5C 182.336,241.412 184.669,240.079 187.5,239.5 Z"/></g>
<g><path style="opacity:1" fill="#60a9e1" d="M 250.5,213.5 C 251.338,213.842 251.672,214.508 251.5,215.5C 251.667,232.503 251.5,249.503 251,266.5C 250.487,267.527 249.987,268.527 249.5,269.5C 247.887,270.692 246.22,271.692 244.5,272.5C 242.833,272.5 241.167,272.5 239.5,272.5C 240.833,271.833 242.167,271.167 243.5,270.5C 246.782,269.846 248.782,267.846 249.5,264.5C 250.497,247.675 250.83,230.675 250.5,213.5 Z"/></g>
<g><path style="opacity:1" fill="#d7eaef" d="M 246.5,215.5 C 247.117,215.611 247.617,215.944 248,216.5C 248.667,232.167 248.667,247.833 248,263.5C 247.5,265.333 246.333,266.5 244.5,267C 241.5,267.333 238.5,267.667 235.5,268C 235.833,268.333 236.167,268.667 236.5,269C 234.846,269.608 233.179,270.108 231.5,270.5C 230.027,267.59 227.86,266.923 225,268.5C 224.51,267.207 224.343,265.873 224.5,264.5C 226.027,264.573 227.027,263.906 227.5,262.5C 229.969,261.683 232.635,261.183 235.5,261C 237.141,259.871 238.141,258.371 238.5,256.5C 239.117,256.389 239.617,256.056 240,255.5C 240.5,244.839 240.667,234.172 240.5,223.5C 240.833,223.5 241.167,223.5 241.5,223.5C 241.334,231.507 241.5,239.507 242,247.5C 243.011,248.337 244.178,248.67 245.5,248.5C 245.148,251.073 245.648,253.406 247,255.5C 247.5,244.839 247.667,234.172 247.5,223.5C 247.599,220.763 247.265,218.096 246.5,215.5 Z"/></g>
<g><path style="opacity:0.49" fill="#113f91" d="M 250.5,211.5 C 251.79,212.058 252.623,213.058 253,214.5C 254.089,228.48 254.589,242.48 254.5,256.5C 254.572,259.193 254.905,261.86 255.5,264.5C 254.487,267.116 253.653,269.782 253,272.5C 247.774,274.733 242.274,275.733 236.5,275.5C 239.246,274.749 241.913,273.749 244.5,272.5C 246.22,271.692 247.887,270.692 249.5,269.5C 250.75,269.423 251.583,268.756 252,267.5C 252.829,249.995 252.662,232.662 251.5,215.5C 251.672,214.508 251.338,213.842 250.5,213.5C 250.5,212.833 250.5,212.167 250.5,211.5 Z"/></g>
<g><path style="opacity:0.961" fill="#1c498d" d="M 187.5,243.5 C 186.043,245.785 184.043,247.618 181.5,249C 181.833,249.333 182.167,249.667 182.5,250C 180.117,250.065 179.45,250.898 180.5,252.5C 179.05,253.85 178.383,255.516 178.5,257.5C 176.735,260.709 174.735,263.709 172.5,266.5C 169.255,267.445 166.588,269.111 164.5,271.5C 168.543,263.908 172.876,256.574 177.5,249.5C 178.167,249.167 178.833,248.833 179.5,248.5C 182.167,246.833 184.833,245.167 187.5,243.5 Z"/></g>
<g><path style="opacity:0.204" fill="#3e70d3" d="M 265.5,206.5 C 266.167,213.5 266.833,220.5 267.5,227.5C 267.667,255.169 267.5,282.835 267,310.5C 266.626,312.491 265.793,314.158 264.5,315.5C 265.926,307.578 266.593,299.578 266.5,291.5C 265.694,263.306 265.361,234.972 265.5,206.5 Z"/></g>
<g><path style="opacity:1" fill="#b3ddf4" d="M 164.5,246.5 C 163.758,248.426 162.758,250.259 161.5,252C 162.167,252.333 162.833,252.667 163.5,253C 162.234,253.309 161.067,253.809 160,254.5C 159.095,258.153 157.595,261.486 155.5,264.5C 154.258,266.25 152.758,267.917 151,269.5C 150.304,272.478 149.804,275.478 149.5,278.5C 148.833,278.833 148.167,279.167 147.5,279.5C 148.381,273.05 150.381,267.05 153.5,261.5C 153.691,257.337 155.357,254.004 158.5,251.5C 160.5,249.833 162.5,248.167 164.5,246.5 Z"/></g>
<g><path style="opacity:1" fill="#dcf0f5" d="M 158.5,271.5 C 158.5,272.167 158.5,272.833 158.5,273.5C 157.778,273.082 157.278,272.416 157,271.5C 156.295,275.665 155.461,279.665 154.5,283.5C 154.817,280.428 154.484,277.428 153.5,274.5C 152.591,276.375 151.257,277.708 149.5,278.5C 149.804,275.478 150.304,272.478 151,269.5C 152.758,267.917 154.258,266.25 155.5,264.5C 156.117,264.611 156.617,264.944 157,265.5C 158.57,264.386 159.903,263.053 161,261.5C 161.5,262 162,262.5 162.5,263C 158.949,264.677 157.616,267.51 158.5,271.5 Z"/></g>
<g><path style="opacity:1" fill="#d9ebf0" d="M 275.5,248.5 C 276.167,248.5 276.833,248.5 277.5,248.5C 277.5,261.167 277.5,273.833 277.5,286.5C 277.167,286.5 276.833,286.5 276.5,286.5C 275.889,273.842 275.556,261.176 275.5,248.5 Z"/></g>
<g><path style="opacity:1" fill="#72afe4" d="M 282.5,143.5 C 282.5,167.167 282.5,190.833 282.5,214.5C 282.5,237.833 282.5,261.167 282.5,284.5C 282.666,291.841 282.5,299.174 282,306.5C 281.342,312.517 279.842,318.184 277.5,323.5C 276.5,324.167 275.5,324.833 274.5,325.5C 277.219,319.839 279.052,313.839 280,307.5C 280.5,258.168 280.667,208.834 280.5,159.5C 281.167,154.167 281.833,148.833 282.5,143.5 Z"/></g>
<g><path style="opacity:0.945" fill="#7cb6f0" d="M 153.5,261.5 C 150.381,267.05 148.381,273.05 147.5,279.5C 146.685,280.429 145.852,281.429 145,282.5C 144.276,286.427 143.109,290.094 141.5,293.5C 141.763,288.23 142.763,283.23 144.5,278.5C 146.796,274.131 148.629,269.464 150,264.5C 151.039,263.29 152.206,262.29 153.5,261.5 Z"/></g>
<g><path style="opacity:1" fill="#d9f0f0" d="M 224.5,264.5 C 224.343,265.873 224.51,267.207 225,268.5C 227.86,266.923 230.027,267.59 231.5,270.5C 228.262,271.633 224.929,272.467 221.5,273C 220.058,273.377 219.058,274.21 218.5,275.5C 213.847,276.497 209.18,277.497 204.5,278.5C 203.867,280.519 202.867,280.853 201.5,279.5C 201.15,276.547 202.15,274.213 204.5,272.5C 206.262,272.643 207.929,272.309 209.5,271.5C 211.276,273.447 213.276,273.78 215.5,272.5C 214.975,271.808 214.308,271.308 213.5,271C 215.339,269.868 217.339,269.035 219.5,268.5C 221.015,266.918 222.681,265.584 224.5,264.5 Z"/></g>
<g><path style="opacity:1" fill="#69a6da" d="M 177.5,249.5 C 172.876,256.574 168.543,263.908 164.5,271.5C 158.875,280.631 157.041,290.631 159,301.5C 159.383,302.056 159.883,302.389 160.5,302.5C 160.5,303.5 160.5,304.5 160.5,305.5C 159.21,304.942 158.377,303.942 158,302.5C 157.501,298.848 157.335,295.182 157.5,291.5C 158.064,281.669 160.397,272.335 164.5,263.5C 167.004,259.798 169.837,256.131 173,252.5C 174.271,251.117 175.771,250.117 177.5,249.5 Z"/></g>
<g><path style="opacity:1" fill="#c8e6f3" d="M 227.5,262.5 C 227.027,263.906 226.027,264.573 224.5,264.5C 222.681,265.584 221.015,266.918 219.5,268.5C 217.339,269.035 215.339,269.868 213.5,271C 214.308,271.308 214.975,271.808 215.5,272.5C 213.276,273.78 211.276,273.447 209.5,271.5C 207.929,272.309 206.262,272.643 204.5,272.5C 210.99,266.762 218.657,263.428 227.5,262.5 Z"/></g>
<g><path style="opacity:0.547" fill="#103c99" d="M 285.5,244.5 C 286.494,253.986 286.827,263.652 286.5,273.5C 285.833,283.5 285.167,293.5 284.5,303.5C 284.5,284.833 284.5,266.167 284.5,247.5C 284.263,246.209 284.596,245.209 285.5,244.5 Z"/></g>
<g><path style="opacity:0.439" fill="#3e78d4" d="M 166.5,239.5 C 164.226,243.772 161.559,247.772 158.5,251.5C 155.357,254.004 153.691,257.337 153.5,261.5C 152.206,262.29 151.039,263.29 150,264.5C 148.629,269.464 146.796,274.131 144.5,278.5C 147.937,263.292 155.27,250.292 166.5,239.5 Z"/></g>
<g><path style="opacity:1" fill="#d2eef0" d="M 324.5,231.5 C 324.5,252.167 324.5,272.833 324.5,293.5C 323.883,293.389 323.383,293.056 323,292.5C 322.501,288.514 322.334,284.514 322.5,280.5C 322.429,277.689 321.762,275.022 320.5,272.5C 321.668,267.387 322.002,262.387 321.5,257.5C 321.5,257.167 321.5,256.833 321.5,256.5C 322.537,255.07 323.204,253.403 323.5,251.5C 323.176,244.646 323.509,237.979 324.5,231.5 Z"/></g>
<g><path style="opacity:0.854" fill="#7dbef1" d="M 315.5,206.5 C 315.667,233.835 315.5,261.169 315,288.5C 314.92,295.038 314.087,301.371 312.5,307.5C 311.833,307.833 311.167,308.167 310.5,308.5C 310.198,305.941 310.532,303.607 311.5,301.5C 312.309,299.708 312.809,297.708 313,295.5C 313.5,270.502 313.667,245.502 313.5,220.5C 314.167,215.833 314.833,211.167 315.5,206.5 Z"/></g>
<g><path style="opacity:1" fill="#e0f0f8" d="M 321.5,257.5 C 322.002,262.387 321.668,267.387 320.5,272.5C 321.762,275.022 322.429,277.689 322.5,280.5C 321.833,281.167 321.167,281.833 320.5,282.5C 319.71,283.609 319.21,284.942 319,286.5C 318.79,284.942 318.29,283.609 317.5,282.5C 317.334,277.489 317.501,272.489 318,267.5C 318.717,266.956 319.217,266.289 319.5,265.5C 320.078,262.72 320.745,260.053 321.5,257.5 Z"/></g>
<g><path style="opacity:1" fill="#dcefee" d="M 273.5,248.5 C 274.167,248.5 274.833,248.5 275.5,248.5C 275.556,261.176 275.889,273.842 276.5,286.5C 276.672,287.492 276.338,288.158 275.5,288.5C 274.833,288.167 274.167,287.833 273.5,287.5C 275.076,284.785 274.742,282.452 272.5,280.5C 272.5,280.167 272.5,279.833 272.5,279.5C 272.296,269.14 272.629,258.806 273.5,248.5 Z"/></g>
<g><path style="opacity:0.34" fill="#0d3199" d="M 254.5,256.5 C 259.368,263.657 258.368,269.823 251.5,275C 246.106,275.979 240.772,277.145 235.5,278.5C 235.263,277.209 235.596,276.209 236.5,275.5C 242.274,275.733 247.774,274.733 253,272.5C 253.653,269.782 254.487,267.116 255.5,264.5C 254.905,261.86 254.572,259.193 254.5,256.5 Z"/></g>
<g><path style="opacity:0.265" fill="#4d7fda" d="M 312.5,206.5 C 313.486,210.97 313.819,215.637 313.5,220.5C 313.667,245.502 313.5,270.502 313,295.5C 312.809,297.708 312.309,299.708 311.5,301.5C 311.559,269.852 311.892,238.185 312.5,206.5 Z"/></g>
<g><path style="opacity:1" fill="#2461b0" d="M 164.5,271.5 C 163.402,277.059 162.069,282.559 160.5,288C 160.696,289.878 161.029,291.712 161.5,293.5C 161.492,296.545 161.159,299.545 160.5,302.5C 159.883,302.389 159.383,302.056 159,301.5C 157.041,290.631 158.875,280.631 164.5,271.5 Z"/></g>
<g><path style="opacity:0.996" fill="#154a91" d="M 239.5,272.5 C 241.167,272.5 242.833,272.5 244.5,272.5C 241.913,273.749 239.246,274.749 236.5,275.5C 235.596,276.209 235.263,277.209 235.5,278.5C 228.33,278.477 221.33,279.477 214.5,281.5C 217.814,279.228 221.481,277.395 225.5,276C 230.207,274.506 234.874,273.34 239.5,272.5 Z"/></g>
<g><path style="opacity:1" fill="#e4f5f5" d="M 154.5,283.5 C 154.802,286.059 154.468,288.393 153.5,290.5C 152.542,290.047 151.708,289.381 151,288.5C 149.821,286.364 149.321,284.364 149.5,282.5C 149.5,281.167 149.5,279.833 149.5,278.5C 151.257,277.708 152.591,276.375 153.5,274.5C 154.484,277.428 154.817,280.428 154.5,283.5 Z"/></g>
<g><path style="opacity:0.841" fill="#163fa2" d="M 331.5,259.5 C 332.385,274.333 332.385,289 331.5,303.5C 329.949,296.066 329.282,288.4 329.5,280.5C 329.51,274.588 329.844,268.755 330.5,263C 329.906,262.536 329.239,262.369 328.5,262.5C 328.5,262.167 328.5,261.833 328.5,261.5C 329.5,260.833 330.5,260.167 331.5,259.5 Z"/></g>
<g><path style="opacity:0.999" fill="#7dbef0" d="M 267.5,147.5 C 268.167,162.167 268.833,176.833 269.5,191.5C 269.5,230.5 269.5,269.5 269.5,308.5C 269.5,309.167 269.5,309.833 269.5,310.5C 267.315,314.377 265.315,318.377 263.5,322.5C 264.291,320.309 264.291,318.309 263.5,316.5C 263.5,315.833 263.833,315.5 264.5,315.5C 265.793,314.158 266.626,312.491 267,310.5C 267.5,282.835 267.667,255.169 267.5,227.5C 267.5,208.5 267.5,189.5 267.5,170.5C 267.5,162.833 267.5,155.167 267.5,147.5 Z"/></g>
<g><path style="opacity:0.998" fill="#083c8c" d="M 235.5,278.5 C 229.611,280.242 223.944,282.576 218.5,285.5C 216.774,285.185 215.107,285.019 213.5,285C 210.733,286.566 208.733,288.733 207.5,291.5C 207.491,289.692 207.991,288.025 209,286.5C 211.328,285.336 213.162,283.67 214.5,281.5C 221.33,279.477 228.33,278.477 235.5,278.5 Z"/></g>
<g><path style="opacity:1" fill="#d7eef2" d="M 218.5,275.5 C 217.341,277.25 215.674,278.25 213.5,278.5C 211.692,278.491 210.025,278.991 208.5,280C 206.035,282.196 203.702,284.363 201.5,286.5C 200.081,285.549 198.415,285.216 196.5,285.5C 196.5,284.833 196.5,284.167 196.5,283.5C 198.167,282.167 199.833,280.833 201.5,279.5C 202.867,280.853 203.867,280.519 204.5,278.5C 209.18,277.497 213.847,276.497 218.5,275.5 Z"/></g>
<g><path style="opacity:1" fill="#b5e0fb" d="M 164.5,263.5 C 160.397,272.335 158.064,281.669 157.5,291.5C 156.506,300.652 156.173,309.985 156.5,319.5C 156.167,319.5 155.833,319.5 155.5,319.5C 155.333,307.829 155.5,296.162 156,284.5C 157.15,280.888 157.983,277.222 158.5,273.5C 158.5,272.833 158.5,272.167 158.5,271.5C 160.323,268.692 162.323,266.025 164.5,263.5 Z"/></g>
<g><path style="opacity:1" fill="#c5eafa" d="M 204.5,272.5 C 202.15,274.213 201.15,276.547 201.5,279.5C 199.833,280.833 198.167,282.167 196.5,283.5C 195.206,284.29 194.039,285.29 193,286.5C 192.148,290.264 190.648,293.597 188.5,296.5C 188.704,293.482 189.037,290.482 189.5,287.5C 190.833,287.5 191.5,286.833 191.5,285.5C 195.301,281.527 198.968,277.36 202.5,273C 203.094,272.536 203.761,272.369 204.5,272.5 Z"/></g>
<g><path style="opacity:0.271" fill="#4487e2" d="M 201.5,271.5 C 199.502,273.6 197.335,275.6 195,277.5C 193.917,280.267 192.75,282.933 191.5,285.5C 191.5,286.833 190.833,287.5 189.5,287.5C 188.167,289.5 186.833,291.5 185.5,293.5C 187.43,283.586 192.764,276.253 201.5,271.5 Z"/></g>
<g><path style="opacity:1" fill="#ccedf5" d="M 196.5,283.5 C 196.5,284.167 196.5,284.833 196.5,285.5C 191.575,294.275 189.241,303.775 189.5,314C 190.732,317.865 193.066,320.698 196.5,322.5C 197.338,322.842 197.672,323.508 197.5,324.5C 197.5,326.167 197.5,327.833 197.5,329.5C 196.5,329.5 195.5,329.5 194.5,329.5C 193.5,328.833 192.5,328.167 191.5,327.5C 191.672,326.508 191.338,325.842 190.5,325.5C 190.54,322.575 189.707,319.909 188,317.5C 187.24,310.45 187.407,303.45 188.5,296.5C 190.648,293.597 192.148,290.264 193,286.5C 194.039,285.29 195.206,284.29 196.5,283.5 Z"/></g>
<g><path style="opacity:1" fill="#e9f5f9" d="M 149.5,282.5 C 149.321,284.364 149.821,286.364 151,288.5C 151.708,289.381 152.542,290.047 153.5,290.5C 153.5,295.167 153.5,299.833 153.5,304.5C 150.648,302.427 149.982,299.761 151.5,296.5C 149.994,295.253 148.494,295.253 147,296.5C 146.465,299.969 145.298,302.969 143.5,305.5C 142.592,299.93 144.092,295.263 148,291.5C 148.576,289.623 148.409,287.789 147.5,286C 147.808,284.541 148.475,283.374 149.5,282.5 Z"/></g>
<g><path style="opacity:0.871" fill="#0a3ba0" d="M 172.5,266.5 C 167.054,274.854 163.387,283.854 161.5,293.5C 161.029,291.712 160.696,289.878 160.5,288C 162.069,282.559 163.402,277.059 164.5,271.5C 166.588,269.111 169.255,267.445 172.5,266.5 Z"/></g>
<g><path style="opacity:1" fill="#e2f6f8" d="M 322.5,280.5 C 322.334,284.514 322.501,288.514 323,292.5C 323.383,293.056 323.883,293.389 324.5,293.5C 324.5,299.5 324.5,305.5 324.5,311.5C 324.5,314.167 324.5,316.833 324.5,319.5C 324.293,322.241 323.293,324.574 321.5,326.5C 322.238,321.19 322.905,315.857 323.5,310.5C 323.415,308.667 322.748,307.334 321.5,306.5C 321.771,304.62 321.104,303.287 319.5,302.5C 320.608,298.61 320.275,294.777 318.5,291C 319.994,288.361 320.661,285.528 320.5,282.5C 321.167,281.833 321.833,281.167 322.5,280.5 Z"/></g>
<g><path style="opacity:1" fill="#dbeff4" d="M 196.5,285.5 C 198.415,285.216 200.081,285.549 201.5,286.5C 201.5,286.833 201.5,287.167 201.5,287.5C 199.924,289.584 198.091,291.584 196,293.5C 195.533,298.337 195.033,303.17 194.5,308C 195.696,312.757 196.363,317.59 196.5,322.5C 193.066,320.698 190.732,317.865 189.5,314C 189.241,303.775 191.575,294.275 196.5,285.5 Z"/></g>
<g><path style="opacity:1" fill="#468fce" d="M 330.5,223.5 C 328.52,235.789 327.853,248.456 328.5,261.5C 328.5,261.833 328.5,262.167 328.5,262.5C 328.333,280.836 328.5,299.17 329,317.5C 329.383,318.056 329.883,318.389 330.5,318.5C 329.658,323.745 328.325,328.745 326.5,333.5C 326.103,332.475 325.437,332.308 324.5,333C 321.755,337.657 319.421,342.49 317.5,347.5C 316.833,347.833 316.167,348.167 315.5,348.5C 316.917,344.012 318.583,339.678 320.5,335.5C 321.808,332.882 323.642,330.549 326,328.5C 326.499,323.511 326.666,318.511 326.5,313.5C 327.498,283.338 327.831,253.005 327.5,222.5C 328.791,222.263 329.791,222.596 330.5,223.5 Z"/></g>
<g><path style="opacity:1" fill="#c2e8fc" d="M 269.5,155.5 C 270.167,195.167 270.833,234.833 271.5,274.5C 271.216,276.415 271.549,278.081 272.5,279.5C 272.5,279.833 272.5,280.167 272.5,280.5C 272.666,288.507 272.5,296.507 272,304.5C 271.066,305.858 270.232,307.192 269.5,308.5C 269.5,269.5 269.5,230.5 269.5,191.5C 269.5,179.5 269.5,167.5 269.5,155.5 Z"/></g>
<g><path style="opacity:1" fill="#74b2e5" d="M 243.5,270.5 C 242.167,271.167 240.833,271.833 239.5,272.5C 234.874,273.34 230.207,274.506 225.5,276C 221.481,277.395 217.814,279.228 214.5,281.5C 211.868,283.113 209.202,284.78 206.5,286.5C 204.808,289.231 203.142,291.898 201.5,294.5C 201.687,292.436 202.187,290.436 203,288.5C 206.154,284.74 209.654,281.406 213.5,278.5C 215.674,278.25 217.341,277.25 218.5,275.5C 226.611,272.722 234.944,271.056 243.5,270.5 Z"/></g>
<g><path style="opacity:1" fill="#dbf2fd" d="M 158.5,273.5 C 157.983,277.222 157.15,280.888 156,284.5C 155.5,296.162 155.333,307.829 155.5,319.5C 155.5,321.167 155.5,322.833 155.5,324.5C 154.549,323.081 154.216,321.415 154.5,319.5C 154.587,314.463 154.254,309.463 153.5,304.5C 153.5,299.833 153.5,295.167 153.5,290.5C 154.468,288.393 154.802,286.059 154.5,283.5C 155.461,279.665 156.295,275.665 157,271.5C 157.278,272.416 157.778,273.082 158.5,273.5 Z"/></g>
<g><path style="opacity:1" fill="#2261b4" d="M 328.5,262.5 C 329.239,262.369 329.906,262.536 330.5,263C 329.844,268.755 329.51,274.588 329.5,280.5C 329.282,288.4 329.949,296.066 331.5,303.5C 331.663,308.547 331.329,313.547 330.5,318.5C 329.883,318.389 329.383,318.056 329,317.5C 328.5,299.17 328.333,280.836 328.5,262.5 Z"/></g>
<g><path style="opacity:0.958" fill="#0e42a4" d="M 218.5,285.5 C 204.284,295.678 200.617,309.012 207.5,325.5C 206.624,325.631 205.957,325.298 205.5,324.5C 203.98,322.338 202.98,320.005 202.5,317.5C 202.238,309.78 202.738,302.113 204,294.5C 205.039,293.29 206.206,292.29 207.5,291.5C 208.733,288.733 210.733,286.566 213.5,285C 215.107,285.019 216.774,285.185 218.5,285.5 Z"/></g>
<g><path style="opacity:1" fill="#f0fafd" d="M 153.5,304.5 C 154.254,309.463 154.587,314.463 154.5,319.5C 154.167,319.5 153.833,319.5 153.5,319.5C 152.759,316.587 152.259,313.587 152,310.5C 151.333,309.167 150.667,309.167 150,310.5C 148.82,302.778 146.987,302.778 144.5,310.5C 145.309,312.071 145.643,313.738 145.5,315.5C 145.167,315.5 144.833,315.5 144.5,315.5C 143.586,312.272 143.253,308.939 143.5,305.5C 145.298,302.969 146.465,299.969 147,296.5C 148.494,295.253 149.994,295.253 151.5,296.5C 149.982,299.761 150.648,302.427 153.5,304.5 Z"/></g>
<g><path style="opacity:1" fill="#dff4fa" d="M 317.5,282.5 C 318.29,283.609 318.79,284.942 319,286.5C 319.21,284.942 319.71,283.609 320.5,282.5C 320.661,285.528 319.994,288.361 318.5,291C 320.275,294.777 320.608,298.61 319.5,302.5C 318.791,303.404 317.791,303.737 316.5,303.5C 316.02,306.443 315.02,309.11 313.5,311.5C 315.367,303.625 316.367,295.625 316.5,287.5C 317.451,286.081 317.784,284.415 317.5,282.5 Z"/></g>
<g><path style="opacity:1" fill="#a9d9f9" d="M 325.5,232.5 C 326.498,259.328 326.831,286.328 326.5,313.5C 325.833,315.5 325.167,317.5 324.5,319.5C 324.5,316.833 324.5,314.167 324.5,311.5C 325.498,285.339 325.831,259.005 325.5,232.5 Z"/></g>
<g><path style="opacity:1" fill="#f5fdfd" d="M 153.5,319.5 C 152.167,319.5 150.833,319.5 149.5,319.5C 149.833,316.5 148.5,315.167 145.5,315.5C 145.643,313.738 145.309,312.071 144.5,310.5C 146.987,302.778 148.82,302.778 150,310.5C 150.667,309.167 151.333,309.167 152,310.5C 152.259,313.587 152.759,316.587 153.5,319.5 Z"/></g>
<g><path style="opacity:1" fill="#cbecf6" d="M 201.5,287.5 C 197.695,297.812 196.529,308.478 198,319.5C 199.352,321.594 199.852,323.927 199.5,326.5C 201.292,326.366 202.958,326.699 204.5,327.5C 205.222,328.551 206.222,329.218 207.5,329.5C 208.833,331.833 210.167,334.167 211.5,336.5C 209.641,335.406 207.641,334.573 205.5,334C 203.845,332.556 203.178,330.722 203.5,328.5C 202.167,328.5 200.833,328.5 199.5,328.5C 199.011,327.005 198.345,325.671 197.5,324.5C 197.672,323.508 197.338,322.842 196.5,322.5C 196.363,317.59 195.696,312.757 194.5,308C 195.033,303.17 195.533,298.337 196,293.5C 198.091,291.584 199.924,289.584 201.5,287.5 Z"/></g>
<g><path style="opacity:0.431" fill="#4da5d8" d="M 157.5,291.5 C 157.335,295.182 157.501,298.848 158,302.5C 158.377,303.942 159.21,304.942 160.5,305.5C 160.05,313.96 160.716,322.294 162.5,330.5C 161.549,331.919 161.216,333.585 161.5,335.5C 160.5,332.833 159.5,330.167 158.5,327.5C 158.198,324.627 157.531,321.961 156.5,319.5C 156.173,309.985 156.506,300.652 157.5,291.5 Z"/></g>
<g><path style="opacity:1" fill="#265da2" d="M 282.5,284.5 C 282.833,284.5 283.167,284.5 283.5,284.5C 283.793,295.873 283.293,307.206 282,318.5C 280.231,324.043 277.897,329.376 275,334.5C 273.847,336.818 272.347,338.818 270.5,340.5C 268.098,342.909 265.431,344.909 262.5,346.5C 269.763,340.308 274.763,332.641 277.5,323.5C 279.842,318.184 281.342,312.517 282,306.5C 282.5,299.174 282.666,291.841 282.5,284.5 Z"/></g>
<g><path style="opacity:0.968" fill="#d9f1fc" d="M 149.5,278.5 C 149.5,279.833 149.5,281.167 149.5,282.5C 148.475,283.374 147.808,284.541 147.5,286C 148.409,287.789 148.576,289.623 148,291.5C 144.092,295.263 142.592,299.93 143.5,305.5C 143.253,308.939 143.586,312.272 144.5,315.5C 144.338,317.527 144.505,319.527 145,321.5C 146.82,323.132 147.986,325.132 148.5,327.5C 148.46,330.881 148.793,334.214 149.5,337.5C 147.987,333.818 146.32,330.151 144.5,326.5C 142.704,316.251 142.204,305.918 143,295.5C 144.814,290.224 146.314,284.89 147.5,279.5C 148.167,279.167 148.833,278.833 149.5,278.5 Z"/></g>
<g><path style="opacity:1" fill="#eff8fa" d="M 319.5,302.5 C 321.104,303.287 321.771,304.62 321.5,306.5C 321.892,309.722 321.392,312.722 320,315.5C 318.862,311.65 317.696,311.65 316.5,315.5C 317.137,318.107 318.304,320.44 320,322.5C 320.667,324.5 320.667,326.5 320,328.5C 317.168,326.504 315.335,323.838 314.5,320.5C 313.597,317.609 313.264,314.609 313.5,311.5C 315.02,309.11 316.02,306.443 316.5,303.5C 317.791,303.737 318.791,303.404 319.5,302.5 Z"/></g>
<g><path style="opacity:0.894" fill="#18539f" d="M 214.5,281.5 C 213.162,283.67 211.328,285.336 209,286.5C 207.991,288.025 207.491,289.692 207.5,291.5C 206.206,292.29 205.039,293.29 204,294.5C 202.738,302.113 202.238,309.78 202.5,317.5C 200.961,314.135 200.294,310.469 200.5,306.5C 200.668,302.475 201.001,298.475 201.5,294.5C 203.142,291.898 204.808,289.231 206.5,286.5C 209.202,284.78 211.868,283.113 214.5,281.5 Z"/></g>
<g><path style="opacity:0.444" fill="#1948b9" d="M 286.5,273.5 C 288.682,291.737 287.515,309.737 283,327.5C 282.059,329.727 280.892,331.727 279.5,333.5C 282.87,323.826 284.537,313.826 284.5,303.5C 285.167,293.5 285.833,283.5 286.5,273.5 Z"/></g>
<g><path style="opacity:1" fill="#d3eff2" d="M 272.5,280.5 C 274.742,282.452 275.076,284.785 273.5,287.5C 273.68,296.528 273.347,305.528 272.5,314.5C 273.5,314.5 274.5,314.5 275.5,314.5C 275.995,305.878 275.995,297.212 275.5,288.5C 276.338,288.158 276.672,287.492 276.5,286.5C 276.833,286.5 277.167,286.5 277.5,286.5C 277.5,294.167 277.5,301.833 277.5,309.5C 276.459,315.39 274.792,321.056 272.5,326.5C 271.85,326.196 271.183,325.863 270.5,325.5C 269.605,327.307 268.272,328.64 266.5,329.5C 265.833,329.167 265.167,328.833 264.5,328.5C 266.131,326.78 267.297,324.78 268,322.5C 268.501,318.49 269.001,314.49 269.5,310.5C 269.5,309.833 269.5,309.167 269.5,308.5C 270.232,307.192 271.066,305.858 272,304.5C 272.5,296.507 272.666,288.507 272.5,280.5 Z"/></g>
<g><path style="opacity:1" fill="#e0f1f1" d="M 273.5,287.5 C 274.167,287.833 274.833,288.167 275.5,288.5C 275.995,297.212 275.995,305.878 275.5,314.5C 274.5,314.5 273.5,314.5 272.5,314.5C 273.347,305.528 273.68,296.528 273.5,287.5 Z"/></g>
<g><path style="opacity:1" fill="#ecf9fb" d="M 144.5,315.5 C 144.833,315.5 145.167,315.5 145.5,315.5C 148.5,315.167 149.833,316.5 149.5,319.5C 150.833,319.5 152.167,319.5 153.5,319.5C 153.833,319.5 154.167,319.5 154.5,319.5C 154.216,321.415 154.549,323.081 155.5,324.5C 155.5,327.833 155.5,331.167 155.5,334.5C 155.167,334.5 154.833,334.5 154.5,334.5C 153.618,332.916 152.785,331.249 152,329.5C 151.586,329.957 151.086,330.291 150.5,330.5C 149.824,329.398 149.158,328.398 148.5,327.5C 147.986,325.132 146.82,323.132 145,321.5C 144.505,319.527 144.338,317.527 144.5,315.5 Z"/></g>
<g><path style="opacity:0.435" fill="#a9dff8" d="M 147.5,279.5 C 146.314,284.89 144.814,290.224 143,295.5C 142.204,305.918 142.704,316.251 144.5,326.5C 143.5,326.5 142.5,326.5 141.5,326.5C 140.242,315.476 140.242,304.476 141.5,293.5C 143.109,290.094 144.276,286.427 145,282.5C 145.852,281.429 146.685,280.429 147.5,279.5 Z"/></g>
<g><path style="opacity:1" fill="#b2e2fa" d="M 213.5,278.5 C 209.654,281.406 206.154,284.74 203,288.5C 202.187,290.436 201.687,292.436 201.5,294.5C 200.207,295.842 199.374,297.509 199,299.5C 198.333,305.167 198.333,310.833 199,316.5C 200.934,320.148 202.767,323.814 204.5,327.5C 202.958,326.699 201.292,326.366 199.5,326.5C 199.852,323.927 199.352,321.594 198,319.5C 196.529,308.478 197.695,297.812 201.5,287.5C 201.5,287.167 201.5,286.833 201.5,286.5C 203.702,284.363 206.035,282.196 208.5,280C 210.025,278.991 211.692,278.491 213.5,278.5 Z"/></g>
<g><path style="opacity:1" fill="#effbfc" d="M 321.5,306.5 C 322.748,307.334 323.415,308.667 323.5,310.5C 322.905,315.857 322.238,321.19 321.5,326.5C 321.598,328.553 320.931,330.22 319.5,331.5C 318.833,332.167 318.167,332.833 317.5,333.5C 316.206,329.777 315.039,329.777 314,333.5C 313.837,331.324 313.004,329.491 311.5,328C 312.07,325.244 313.07,322.744 314.5,320.5C 315.335,323.838 317.168,326.504 320,328.5C 320.667,326.5 320.667,324.5 320,322.5C 318.304,320.44 317.137,318.107 316.5,315.5C 317.696,311.65 318.862,311.65 320,315.5C 321.392,312.722 321.892,309.722 321.5,306.5 Z"/></g>
<g><path style="opacity:0.82" fill="#89c2f3" d="M 189.5,287.5 C 189.037,290.482 188.704,293.482 188.5,296.5C 187.407,303.45 187.24,310.45 188,317.5C 189.707,319.909 190.54,322.575 190.5,325.5C 187.934,322.355 186.434,318.688 186,314.5C 185.5,307.508 185.334,300.508 185.5,293.5C 186.833,291.5 188.167,289.5 189.5,287.5 Z"/></g>
<g><path style="opacity:1" fill="#e9f8fd" d="M 313.5,311.5 C 313.264,314.609 313.597,317.609 314.5,320.5C 313.07,322.744 312.07,325.244 311.5,328C 313.004,329.491 313.837,331.324 314,333.5C 315.039,329.777 316.206,329.777 317.5,333.5C 315.971,335.713 314.471,338.046 313,340.5C 312.139,337.473 310.639,334.806 308.5,332.5C 310.536,328.396 311.536,324.062 311.5,319.5C 311.294,316.505 311.96,313.838 313.5,311.5 Z"/></g>
<g><path style="opacity:1" fill="#82d4ee" d="M 326.5,313.5 C 326.666,318.511 326.499,323.511 326,328.5C 323.642,330.549 321.808,332.882 320.5,335.5C 320.167,335.5 319.833,335.5 319.5,335.5C 319.5,334.167 319.5,332.833 319.5,331.5C 320.931,330.22 321.598,328.553 321.5,326.5C 323.293,324.574 324.293,322.241 324.5,319.5C 325.167,317.5 325.833,315.5 326.5,313.5 Z"/></g>
<g><path style="opacity:1" fill="#6daee4" d="M 201.5,294.5 C 201.001,298.475 200.668,302.475 200.5,306.5C 200.294,310.469 200.961,314.135 202.5,317.5C 202.98,320.005 203.98,322.338 205.5,324.5C 205.957,325.298 206.624,325.631 207.5,325.5C 207.5,326.833 207.5,328.167 207.5,329.5C 206.222,329.218 205.222,328.551 204.5,327.5C 202.767,323.814 200.934,320.148 199,316.5C 198.333,310.833 198.333,305.167 199,299.5C 199.374,297.509 200.207,295.842 201.5,294.5 Z"/></g>
<g><path style="opacity:1" fill="#cbecf6" d="M 269.5,310.5 C 269.001,314.49 268.501,318.49 268,322.5C 267.297,324.78 266.131,326.78 264.5,328.5C 265.167,328.833 265.833,329.167 266.5,329.5C 268.272,328.64 269.605,327.307 270.5,325.5C 271.183,325.863 271.85,326.196 272.5,326.5C 269.78,329.217 267.447,332.217 265.5,335.5C 265.5,333.833 265.5,332.167 265.5,330.5C 264.5,330.5 263.5,330.5 262.5,330.5C 262.833,329.167 263.167,327.833 263.5,326.5C 263.5,325.167 263.5,323.833 263.5,322.5C 265.315,318.377 267.315,314.377 269.5,310.5 Z"/></g>
<g><path style="opacity:1" fill="#b3e2fb" d="M 280.5,159.5 C 280.667,208.834 280.5,258.168 280,307.5C 279.052,313.839 277.219,319.839 274.5,325.5C 273.346,328.479 272.18,331.479 271,334.5C 267.853,337.317 265.02,340.484 262.5,344C 260.113,344.564 258.113,345.73 256.5,347.5C 259.037,343.065 262.037,339.065 265.5,335.5C 267.447,332.217 269.78,329.217 272.5,326.5C 274.792,321.056 276.459,315.39 277.5,309.5C 278.309,307.708 278.809,305.708 279,303.5C 279.167,255.332 279.667,207.332 280.5,159.5 Z"/></g>
<g><path style="opacity:1" fill="#75b7e6" d="M 277.5,323.5 C 274.763,332.641 269.763,340.308 262.5,346.5C 260.068,347.75 257.734,349.25 255.5,351C 252.846,351.941 250.179,352.774 247.5,353.5C 245.5,353.5 243.5,353.5 241.5,353.5C 241.5,353.167 241.5,352.833 241.5,352.5C 247.277,352.619 252.277,350.952 256.5,347.5C 258.113,345.73 260.113,344.564 262.5,344C 265.02,340.484 267.853,337.317 271,334.5C 272.18,331.479 273.346,328.479 274.5,325.5C 275.5,324.833 276.5,324.167 277.5,323.5 Z"/></g>
<g><path style="opacity:0.529" fill="#5797e9" d="M 185.5,293.5 C 185.334,300.508 185.5,307.508 186,314.5C 186.434,318.688 187.934,322.355 190.5,325.5C 191.338,325.842 191.672,326.508 191.5,327.5C 192.933,329.558 193.6,331.892 193.5,334.5C 183.745,322.23 181.078,308.563 185.5,293.5 Z"/></g>
<g><path style="opacity:0.102" fill="#6aaeee" d="M 263.5,316.5 C 264.291,318.309 264.291,320.309 263.5,322.5C 263.5,323.833 263.5,325.167 263.5,326.5C 259.325,332.349 253.992,336.682 247.5,339.5C 249.229,338.764 250.229,337.43 250.5,335.5C 256.534,330.466 260.867,324.133 263.5,316.5 Z"/></g>
<g><path style="opacity:0.914" fill="#9acef5" d="M 312.5,307.5 C 310.998,311.342 310.332,315.342 310.5,319.5C 308.699,327.566 306.699,335.566 304.5,343.5C 302.633,344.76 301.3,346.427 300.5,348.5C 298.836,350.408 297.169,352.408 295.5,354.5C 296.61,349.688 298.777,345.354 302,341.5C 302.765,339.934 302.598,338.601 301.5,337.5C 305.581,328.177 308.581,318.511 310.5,308.5C 311.167,308.167 311.833,307.833 312.5,307.5 Z"/></g>
<g><path style="opacity:1" fill="#ccebf6" d="M 197.5,324.5 C 198.345,325.671 199.011,327.005 199.5,328.5C 199.215,330.288 199.548,331.955 200.5,333.5C 203.651,336.15 206.651,338.984 209.5,342C 210.448,342.483 211.448,342.649 212.5,342.5C 212.75,344.674 213.75,346.341 215.5,347.5C 211.732,346.863 208.899,344.863 207,341.5C 205.927,342.28 204.76,342.113 203.5,341C 200.984,338.317 198.317,335.817 195.5,333.5C 194.754,332.264 194.421,330.93 194.5,329.5C 195.5,329.5 196.5,329.5 197.5,329.5C 197.5,327.833 197.5,326.167 197.5,324.5 Z"/></g>
<g><path style="opacity:1" fill="#cbecfd" d="M 155.5,319.5 C 155.833,319.5 156.167,319.5 156.5,319.5C 157.531,321.961 158.198,324.627 158.5,327.5C 158.457,330.91 158.957,334.243 160,337.5C 162.05,340.148 163.216,343.148 163.5,346.5C 162.761,346.631 162.094,346.464 161.5,346C 161.085,343.974 160.085,342.474 158.5,341.5C 157.736,338.982 156.736,336.649 155.5,334.5C 155.5,331.167 155.5,327.833 155.5,324.5C 155.5,322.833 155.5,321.167 155.5,319.5 Z"/></g>
<g><path style="opacity:1" fill="#d2f1f2" d="M 199.5,328.5 C 200.833,328.5 202.167,328.5 203.5,328.5C 203.178,330.722 203.845,332.556 205.5,334C 207.641,334.573 209.641,335.406 211.5,336.5C 212.78,337.931 214.447,338.598 216.5,338.5C 216.833,339.167 217.167,339.833 217.5,340.5C 214.91,338.745 213.243,339.412 212.5,342.5C 211.448,342.649 210.448,342.483 209.5,342C 206.651,338.984 203.651,336.15 200.5,333.5C 199.548,331.955 199.215,330.288 199.5,328.5 Z"/></g>
<g><path style="opacity:1" fill="#e0f4f9" d="M 310.5,319.5 C 310.833,319.5 311.167,319.5 311.5,319.5C 311.536,324.062 310.536,328.396 308.5,332.5C 310.639,334.806 312.139,337.473 313,340.5C 314.471,338.046 315.971,335.713 317.5,333.5C 318.167,332.833 318.833,332.167 319.5,331.5C 319.5,332.833 319.5,334.167 319.5,335.5C 317.833,338.167 316.167,340.833 314.5,343.5C 311.428,344.301 309.762,346.301 309.5,349.5C 305.26,350.241 303.594,348.241 304.5,343.5C 306.699,335.566 308.699,327.566 310.5,319.5 Z"/></g>
<g><path style="opacity:0.139" fill="#4f75d1" d="M 162.5,330.5 C 163.968,336.237 165.635,341.903 167.5,347.5C 164.945,343.872 162.945,339.872 161.5,335.5C 161.216,333.585 161.549,331.919 162.5,330.5 Z"/></g>
<g><path style="opacity:1" fill="#d2efed" d="M 262.5,330.5 C 263.5,330.5 264.5,330.5 265.5,330.5C 265.5,332.167 265.5,333.833 265.5,335.5C 262.037,339.065 259.037,343.065 256.5,347.5C 254.833,347.5 253.167,347.5 251.5,347.5C 250.319,345.933 248.653,345.099 246.5,345C 247.252,344.329 247.586,343.496 247.5,342.5C 253.716,339.944 258.716,335.944 262.5,330.5 Z"/></g>
<g><path style="opacity:1" fill="#89bbef" d="M 158.5,327.5 C 159.5,330.167 160.5,332.833 161.5,335.5C 162.945,339.872 164.945,343.872 167.5,347.5C 169.35,351.036 171.017,354.702 172.5,358.5C 169.394,356.402 167.061,353.735 165.5,350.5C 165.267,348.938 164.6,347.605 163.5,346.5C 163.216,343.148 162.05,340.148 160,337.5C 158.957,334.243 158.457,330.91 158.5,327.5 Z"/></g>
<g><path style="opacity:0.118" fill="#5ca4ee" d="M 207.5,325.5 C 219.203,340.405 233.537,343.739 250.5,335.5C 250.229,337.43 249.229,338.764 247.5,339.5C 240.307,341.463 232.974,341.963 225.5,341C 221.938,338.366 217.938,336.699 213.5,336C 211.951,333.289 209.951,331.123 207.5,329.5C 207.5,328.167 207.5,326.833 207.5,325.5 Z"/></g>
<g><path style="opacity:1" fill="#0c3788" d="M 284.5,247.5 C 284.5,266.167 284.5,284.833 284.5,303.5C 284.537,313.826 282.87,323.826 279.5,333.5C 275.971,342.364 269.971,349.03 261.5,353.5C 257.661,353.388 257.661,352.721 261.5,351.5C 262.386,350.675 262.719,349.675 262.5,348.5C 267.358,348.173 270.025,345.506 270.5,340.5C 272.347,338.818 273.847,336.818 275,334.5C 277.897,329.376 280.231,324.043 282,318.5C 283.293,307.206 283.793,295.873 283.5,284.5C 283.171,271.989 283.505,259.655 284.5,247.5 Z"/></g>
<g><path style="opacity:1" fill="#a0cff8" d="M 141.5,326.5 C 142.5,326.5 143.5,326.5 144.5,326.5C 146.32,330.151 147.987,333.818 149.5,337.5C 150.833,342.167 152.167,346.833 153.5,351.5C 149.503,345.949 146.503,339.783 144.5,333C 144.164,331.97 143.497,331.47 142.5,331.5C 142.371,329.784 142.038,328.117 141.5,326.5 Z"/></g>
<g><path style="opacity:1" fill="#d3f2f0" d="M 217.5,340.5 C 217.414,341.496 217.748,342.329 218.5,343C 221.525,343.154 223.191,344.654 223.5,347.5C 223.5,347.833 223.5,348.167 223.5,348.5C 222.167,348.5 220.833,348.5 219.5,348.5C 218.432,347.566 217.099,347.232 215.5,347.5C 213.75,346.341 212.75,344.674 212.5,342.5C 213.243,339.412 214.91,338.745 217.5,340.5 Z"/></g>
<g><path style="opacity:0.094" fill="#6b9aec" d="M 301.5,337.5 C 302.598,338.601 302.765,339.934 302,341.5C 298.777,345.354 296.61,349.688 295.5,354.5C 293.091,356.902 291.091,359.569 289.5,362.5C 287.142,364.529 284.808,366.529 282.5,368.5C 279.167,370.167 275.833,371.833 272.5,373.5C 276.141,370.032 279.974,366.698 284,363.5C 287.667,359.167 291.333,354.833 295,350.5C 297.705,346.423 299.872,342.09 301.5,337.5 Z"/></g>
<g><path style="opacity:1" fill="#def3f3" d="M 148.5,327.5 C 149.158,328.398 149.824,329.398 150.5,330.5C 151.086,330.291 151.586,329.957 152,329.5C 152.785,331.249 153.618,332.916 154.5,334.5C 154.614,338.404 155.614,342.071 157.5,345.5C 157.333,346.167 157.167,346.833 157,347.5C 155.961,346.29 154.794,345.29 153.5,344.5C 152.528,341.868 151.195,339.535 149.5,337.5C 148.793,334.214 148.46,330.881 148.5,327.5 Z"/></g>
<g><path style="opacity:1" fill="#d8f2f4" d="M 154.5,334.5 C 154.833,334.5 155.167,334.5 155.5,334.5C 156.736,336.649 157.736,338.982 158.5,341.5C 158.12,344.792 159.453,347.125 162.5,348.5C 164.959,351.376 165.126,354.376 163,357.5C 161.907,355.651 160.574,353.984 159,352.5C 158.617,353.056 158.117,353.389 157.5,353.5C 155.787,350.706 154.454,347.706 153.5,344.5C 154.794,345.29 155.961,346.29 157,347.5C 157.167,346.833 157.333,346.167 157.5,345.5C 155.614,342.071 154.614,338.404 154.5,334.5 Z"/></g>
<g><path style="opacity:1" fill="#b5e1fa" d="M 263.5,326.5 C 263.167,327.833 262.833,329.167 262.5,330.5C 258.716,335.944 253.716,339.944 247.5,342.5C 241.013,344.704 234.346,345.038 227.5,343.5C 223.653,342.006 219.987,340.339 216.5,338.5C 214.447,338.598 212.78,337.931 211.5,336.5C 210.167,334.167 208.833,331.833 207.5,329.5C 209.951,331.123 211.951,333.289 213.5,336C 217.938,336.699 221.938,338.366 225.5,341C 232.974,341.963 240.307,341.463 247.5,339.5C 253.992,336.682 259.325,332.349 263.5,326.5 Z"/></g>
<g><path style="opacity:1" fill="#d2eef4" d="M 216.5,338.5 C 219.987,340.339 223.653,342.006 227.5,343.5C 234.346,345.038 241.013,344.704 247.5,342.5C 247.586,343.496 247.252,344.329 246.5,345C 248.653,345.099 250.319,345.933 251.5,347.5C 242.416,346.969 233.083,346.969 223.5,347.5C 223.191,344.654 221.525,343.154 218.5,343C 217.748,342.329 217.414,341.496 217.5,340.5C 217.167,339.833 216.833,339.167 216.5,338.5 Z"/></g>
<g><path style="opacity:1" fill="#c1e8fc" d="M 149.5,337.5 C 151.195,339.535 152.528,341.868 153.5,344.5C 154.454,347.706 155.787,350.706 157.5,353.5C 159.234,356.622 161.234,359.622 163.5,362.5C 163.5,362.833 163.5,363.167 163.5,363.5C 163.5,363.833 163.5,364.167 163.5,364.5C 162.292,363.766 160.959,363.433 159.5,363.5C 158.01,359.147 156.01,355.147 153.5,351.5C 152.167,346.833 150.833,342.167 149.5,337.5 Z"/></g>
<g><path style="opacity:1" fill="#a4d8f9" d="M 191.5,327.5 C 192.5,328.167 193.5,328.833 194.5,329.5C 194.421,330.93 194.754,332.264 195.5,333.5C 198.317,335.817 200.984,338.317 203.5,341C 204.76,342.113 205.927,342.28 207,341.5C 208.899,344.863 211.732,346.863 215.5,347.5C 217.099,347.232 218.432,347.566 219.5,348.5C 221.224,350.689 223.558,351.856 226.5,352C 231.489,352.499 236.489,352.666 241.5,352.5C 241.5,352.833 241.5,353.167 241.5,353.5C 235.491,353.666 229.491,353.499 223.5,353C 218.674,350.63 213.674,348.63 208.5,347C 207.33,345.245 205.663,344.245 203.5,344C 201.355,340.688 198.688,337.854 195.5,335.5C 194.893,335.624 194.56,335.957 194.5,336.5C 193.662,336.158 193.328,335.492 193.5,334.5C 193.6,331.892 192.933,329.558 191.5,327.5 Z"/></g>
<g><path style="opacity:0.682" fill="#2043b4" d="M 326.5,333.5 C 324.66,341.366 321.66,348.699 317.5,355.5C 316.522,355.189 315.855,354.522 315.5,353.5C 316.63,352.378 317.297,351.044 317.5,349.5C 317.5,348.833 317.5,348.167 317.5,347.5C 319.421,342.49 321.755,337.657 324.5,333C 325.437,332.308 326.103,332.475 326.5,333.5 Z"/></g>
<g><path style="opacity:1" fill="#d7eef7" d="M 251.5,347.5 C 251.082,348.222 250.416,348.722 249.5,349C 240.657,349.824 231.99,349.657 223.5,348.5C 223.5,348.167 223.5,347.833 223.5,347.5C 233.083,346.969 242.416,346.969 251.5,347.5 Z"/></g>
<g><path style="opacity:1" fill="#d8f0f6" d="M 304.5,343.5 C 303.594,348.241 305.26,350.241 309.5,349.5C 308.088,351.998 306.921,354.664 306,357.5C 304.887,358.305 303.721,358.972 302.5,359.5C 302.33,358.178 302.663,357.011 303.5,356C 299.037,353.794 297.704,355.127 299.5,360C 298.24,361.806 297.073,363.639 296,365.5C 294.701,364.91 293.868,363.91 293.5,362.5C 296.427,358.107 298.76,353.44 300.5,348.5C 301.3,346.427 302.633,344.76 304.5,343.5 Z"/></g>
<g><path style="opacity:1" fill="#c2ebf5" d="M 251.5,347.5 C 253.167,347.5 254.833,347.5 256.5,347.5C 252.277,350.952 247.277,352.619 241.5,352.5C 236.489,352.666 231.489,352.499 226.5,352C 223.558,351.856 221.224,350.689 219.5,348.5C 220.833,348.5 222.167,348.5 223.5,348.5C 231.99,349.657 240.657,349.824 249.5,349C 250.416,348.722 251.082,348.222 251.5,347.5 Z"/></g>
<g><path style="opacity:1" fill="#134488" d="M 270.5,340.5 C 270.025,345.506 267.358,348.173 262.5,348.5C 262.719,349.675 262.386,350.675 261.5,351.5C 257.661,352.721 257.661,353.388 261.5,353.5C 260.71,354.401 259.71,355.068 258.5,355.5C 257.088,354.467 255.422,353.801 253.5,353.5C 248.604,355.307 243.604,356.64 238.5,357.5C 235.514,357.618 232.848,356.952 230.5,355.5C 236.43,355.872 242.097,355.205 247.5,353.5C 250.179,352.774 252.846,351.941 255.5,351C 257.734,349.25 260.068,347.75 262.5,346.5C 265.431,344.909 268.098,342.909 270.5,340.5 Z"/></g>
<g><path style="opacity:1" fill="#69a8ea" d="M 241.5,353.5 C 243.5,353.5 245.5,353.5 247.5,353.5C 242.097,355.205 236.43,355.872 230.5,355.5C 224.429,354.362 218.429,353.029 212.5,351.5C 205.327,348.001 199.327,343.001 194.5,336.5C 194.56,335.957 194.893,335.624 195.5,335.5C 198.688,337.854 201.355,340.688 203.5,344C 205.663,344.245 207.33,345.245 208.5,347C 213.674,348.63 218.674,350.63 223.5,353C 229.491,353.499 235.491,353.666 241.5,353.5 Z"/></g>
<g><path style="opacity:1" fill="#93c6ee" d="M 319.5,335.5 C 319.833,335.5 320.167,335.5 320.5,335.5C 318.583,339.678 316.917,344.012 315.5,348.5C 311.775,353.597 308.275,358.93 305,364.5C 303.641,365.365 302.474,366.365 301.5,367.5C 300.833,367.5 300.167,367.5 299.5,367.5C 305.604,360.183 310.604,352.183 314.5,343.5C 316.167,340.833 317.833,338.167 319.5,335.5 Z"/></g>
<g><path style="opacity:0.29" fill="#6c9dec" d="M 142.5,331.5 C 143.497,331.47 144.164,331.97 144.5,333C 146.503,339.783 149.503,345.949 153.5,351.5C 156.01,355.147 158.01,359.147 159.5,363.5C 155.53,358.916 152.03,353.916 149,348.5C 146.842,342.848 144.676,337.181 142.5,331.5 Z"/></g>
<g><path style="opacity:0.996" fill="#173493" d="M 317.5,349.5 C 317.297,351.044 316.63,352.378 315.5,353.5C 315.855,354.522 316.522,355.189 317.5,355.5C 315.136,360.909 311.802,365.576 307.5,369.5C 307.5,368.167 307.5,366.833 307.5,365.5C 309.705,360.782 312.205,356.115 315,351.5C 315.708,350.619 316.542,349.953 317.5,349.5 Z"/></g>
<g><path style="opacity:1" fill="#d0eff5" d="M 158.5,341.5 C 160.085,342.474 161.085,343.974 161.5,346C 162.094,346.464 162.761,346.631 163.5,346.5C 164.6,347.605 165.267,348.938 165.5,350.5C 165.34,352.199 165.506,353.866 166,355.5C 167.758,357.083 169.258,358.75 170.5,360.5C 168.598,359.489 166.598,359.322 164.5,360C 163.748,360.671 163.414,361.504 163.5,362.5C 161.234,359.622 159.234,356.622 157.5,353.5C 158.117,353.389 158.617,353.056 159,352.5C 160.574,353.984 161.907,355.651 163,357.5C 165.126,354.376 164.959,351.376 162.5,348.5C 159.453,347.125 158.12,344.792 158.5,341.5 Z"/></g>
<g><path style="opacity:0.439" fill="#1f44a3" d="M 212.5,351.5 C 218.429,353.029 224.429,354.362 230.5,355.5C 232.848,356.952 235.514,357.618 238.5,357.5C 243.604,356.64 248.604,355.307 253.5,353.5C 255.422,353.801 257.088,354.467 258.5,355.5C 242.481,361.721 227.147,360.388 212.5,351.5 Z"/></g>
<g><path style="opacity:1" fill="#c5e7f5" d="M 163.5,363.5 C 167.383,363.751 169.383,365.751 169.5,369.5C 170.5,369.5 171.5,369.5 172.5,369.5C 173.301,371.042 173.634,372.708 173.5,374.5C 174.5,374.5 175.5,374.5 176.5,374.5C 176.366,376.292 176.699,377.958 177.5,379.5C 176.833,379.5 176.167,379.5 175.5,379.5C 172.586,374.915 168.92,370.915 164.5,367.5C 163.614,366.675 163.281,365.675 163.5,364.5C 163.5,364.167 163.5,363.833 163.5,363.5 Z"/></g>
<g><path style="opacity:1" fill="#d5f2f0" d="M 170.5,360.5 C 170.5,363.833 172.167,365.5 175.5,365.5C 174.789,367.03 173.789,368.363 172.5,369.5C 171.5,369.5 170.5,369.5 169.5,369.5C 169.383,365.751 167.383,363.751 163.5,363.5C 163.5,363.167 163.5,362.833 163.5,362.5C 163.414,361.504 163.748,360.671 164.5,360C 166.598,359.322 168.598,359.489 170.5,360.5 Z"/></g>
<g><path style="opacity:1" fill="#c7eafc" d="M 314.5,343.5 C 310.604,352.183 305.604,360.183 299.5,367.5C 296.429,370.246 293.429,372.913 290.5,375.5C 290.167,375.5 289.833,375.5 289.5,375.5C 290.567,371.99 292.567,369.323 295.5,367.5C 298.606,365.402 300.939,362.735 302.5,359.5C 303.721,358.972 304.887,358.305 306,357.5C 306.921,354.664 308.088,351.998 309.5,349.5C 309.762,346.301 311.428,344.301 314.5,343.5 Z"/></g>
<g><path style="opacity:1" fill="#cdedf5" d="M 300.5,348.5 C 298.76,353.44 296.427,358.107 293.5,362.5C 293.868,363.91 294.701,364.91 296,365.5C 297.073,363.639 298.24,361.806 299.5,360C 297.704,355.127 299.037,353.794 303.5,356C 302.663,357.011 302.33,358.178 302.5,359.5C 300.939,362.735 298.606,365.402 295.5,367.5C 295.44,366.957 295.107,366.624 294.5,366.5C 292.527,367.64 290.693,368.973 289,370.5C 287.51,369.272 286.01,369.272 284.5,370.5C 286.167,367.833 287.833,365.167 289.5,362.5C 291.091,359.569 293.091,356.902 295.5,354.5C 297.169,352.408 298.836,350.408 300.5,348.5 Z"/></g>
<g><path style="opacity:0.631" fill="#6499ed" d="M 167.5,347.5 C 175.973,359.472 186.306,369.639 198.5,378C 211.989,384.893 226.323,387.393 241.5,385.5C 240.737,386.268 239.737,386.768 238.5,387C 230.805,387.691 223.139,387.525 215.5,386.5C 214.508,386.672 213.842,386.338 213.5,385.5C 199.251,380.768 186.585,373.268 175.5,363C 173.859,361.871 172.859,360.371 172.5,358.5C 171.017,354.702 169.35,351.036 167.5,347.5 Z"/></g>
<g><path style="opacity:1" fill="#afdcfa" d="M 165.5,350.5 C 167.061,353.735 169.394,356.402 172.5,358.5C 172.859,360.371 173.859,361.871 175.5,363C 186.585,373.268 199.251,380.768 213.5,385.5C 207.905,385.19 202.572,383.857 197.5,381.5C 194.206,379.96 190.872,378.627 187.5,377.5C 186.914,374.188 184.914,372.354 181.5,372C 178.89,370.616 177.39,368.449 177,365.5C 176.31,364.262 175.81,364.262 175.5,365.5C 172.167,365.5 170.5,363.833 170.5,360.5C 169.258,358.75 167.758,357.083 166,355.5C 165.506,353.866 165.34,352.199 165.5,350.5 Z"/></g>
<g><path style="opacity:1" fill="#d0eff2" d="M 187.5,377.5 C 185.158,378.211 184.825,379.544 186.5,381.5C 183.215,381.79 180.215,381.123 177.5,379.5C 176.699,377.958 176.366,376.292 176.5,374.5C 175.5,374.5 174.5,374.5 173.5,374.5C 173.634,372.708 173.301,371.042 172.5,369.5C 173.789,368.363 174.789,367.03 175.5,365.5C 175.81,364.262 176.31,364.262 177,365.5C 177.39,368.449 178.89,370.616 181.5,372C 184.914,372.354 186.914,374.188 187.5,377.5 Z"/></g>
<g><path style="opacity:1" fill="#205599" d="M 317.5,347.5 C 317.5,348.167 317.5,348.833 317.5,349.5C 316.542,349.953 315.708,350.619 315,351.5C 312.205,356.115 309.705,360.782 307.5,365.5C 305.215,368.452 302.548,371.118 299.5,373.5C 296.494,375.839 293.827,378.506 291.5,381.5C 289.978,382.562 288.312,383.229 286.5,383.5C 292.205,378.796 297.205,373.463 301.5,367.5C 302.474,366.365 303.641,365.365 305,364.5C 308.275,358.93 311.775,353.597 315.5,348.5C 316.167,348.167 316.833,347.833 317.5,347.5 Z"/></g>
<g><path style="opacity:0.345" fill="#102a80" d="M 307.5,365.5 C 307.5,366.833 307.5,368.167 307.5,369.5C 304.179,374.486 300.179,378.82 295.5,382.5C 294.733,381.828 294.066,380.995 293.5,380C 296.368,379.139 298.702,377.472 300.5,375C 299.944,374.617 299.611,374.117 299.5,373.5C 302.548,371.118 305.215,368.452 307.5,365.5 Z"/></g>
<g><path style="opacity:1" fill="#7abae8" d="M 299.5,367.5 C 300.167,367.5 300.833,367.5 301.5,367.5C 297.205,373.463 292.205,378.796 286.5,383.5C 282.164,385.332 278.164,387.665 274.5,390.5C 270.398,392.038 266.398,393.871 262.5,396C 257.024,398.103 251.358,399.27 245.5,399.5C 243.5,399.5 241.5,399.5 239.5,399.5C 241.167,398.833 242.833,398.167 244.5,397.5C 254.145,396.285 263.145,393.285 271.5,388.5C 279.249,386.06 285.582,381.727 290.5,375.5C 293.429,372.913 296.429,370.246 299.5,367.5 Z"/></g>
<g><path style="opacity:1" fill="#cdf0ee" d="M 295.5,367.5 C 292.567,369.323 290.567,371.99 289.5,375.5C 288.833,375.5 288.167,375.5 287.5,375.5C 287.762,374.022 287.429,372.689 286.5,371.5C 283.972,374.229 280.972,376.229 277.5,377.5C 278.283,373.59 280.616,371.257 284.5,370.5C 286.01,369.272 287.51,369.272 289,370.5C 290.693,368.973 292.527,367.64 294.5,366.5C 295.107,366.624 295.44,366.957 295.5,367.5 Z"/></g>
<g><path style="opacity:0.047" fill="#70abf0" d="M 159.5,363.5 C 160.959,363.433 162.292,363.766 163.5,364.5C 163.281,365.675 163.614,366.675 164.5,367.5C 168.92,370.915 172.586,374.915 175.5,379.5C 176.6,380.605 177.267,381.938 177.5,383.5C 170.396,377.734 164.396,371.067 159.5,363.5 Z"/></g>
<g><path style="opacity:0.816" fill="#86baf2" d="M 282.5,368.5 C 279.711,371.402 276.377,373.568 272.5,375C 271.695,376.113 271.028,377.279 270.5,378.5C 270.167,378.5 269.833,378.5 269.5,378.5C 267.391,379.391 265.391,380.558 263.5,382C 259.209,381.792 255.542,383.125 252.5,386C 242.984,388.086 233.317,388.919 223.5,388.5C 220.447,388.889 217.78,388.223 215.5,386.5C 223.139,387.525 230.805,387.691 238.5,387C 239.737,386.768 240.737,386.268 241.5,385.5C 252.603,383.731 262.937,379.731 272.5,373.5C 275.833,371.833 279.167,370.167 282.5,368.5 Z"/></g>
<g><path style="opacity:1" fill="#c5e9f8" d="M 289.5,362.5 C 287.833,365.167 286.167,367.833 284.5,370.5C 280.616,371.257 278.283,373.59 277.5,377.5C 275.671,383.395 273.338,383.728 270.5,378.5C 271.028,377.279 271.695,376.113 272.5,375C 276.377,373.568 279.711,371.402 282.5,368.5C 284.808,366.529 287.142,364.529 289.5,362.5 Z"/></g>
<g><path style="opacity:0.953" fill="#123281" d="M 299.5,373.5 C 299.611,374.117 299.944,374.617 300.5,375C 298.702,377.472 296.368,379.139 293.5,380C 294.066,380.995 294.733,381.828 295.5,382.5C 291.223,386.312 286.557,389.645 281.5,392.5C 280.167,392.5 278.833,392.5 277.5,392.5C 279.309,391.519 280.643,390.019 281.5,388C 282.793,387.51 284.127,387.343 285.5,387.5C 285.433,386.041 285.766,384.708 286.5,383.5C 288.312,383.229 289.978,382.562 291.5,381.5C 293.827,378.506 296.494,375.839 299.5,373.5 Z"/></g>
<g><path style="opacity:1" fill="#bde9f7" d="M 287.5,375.5 C 288.167,375.5 288.833,375.5 289.5,375.5C 289.833,375.5 290.167,375.5 290.5,375.5C 285.582,381.727 279.249,386.06 271.5,388.5C 273.023,385.063 275.689,383.063 279.5,382.5C 279.5,381.5 279.5,380.5 279.5,379.5C 282.508,378.77 285.175,377.436 287.5,375.5 Z"/></g>
<g><path style="opacity:1" fill="#d1f0f2" d="M 287.5,375.5 C 285.175,377.436 282.508,378.77 279.5,379.5C 279.5,380.5 279.5,381.5 279.5,382.5C 275.689,383.063 273.023,385.063 271.5,388.5C 267.879,388.708 264.546,389.708 261.5,391.5C 261.611,390.883 261.944,390.383 262.5,390C 259.632,388.617 256.632,387.784 253.5,387.5C 257.59,385.638 261.923,383.972 266.5,382.5C 267.524,381.148 268.524,379.815 269.5,378.5C 269.833,378.5 270.167,378.5 270.5,378.5C 273.338,383.728 275.671,383.395 277.5,377.5C 280.972,376.229 283.972,374.229 286.5,371.5C 287.429,372.689 287.762,374.022 287.5,375.5 Z"/></g>
<g><path style="opacity:0.337" fill="#71a4eb" d="M 175.5,379.5 C 176.167,379.5 176.833,379.5 177.5,379.5C 178.614,380.885 179.614,382.385 180.5,384C 187.948,387.558 195.281,391.391 202.5,395.5C 196.958,394.063 191.625,392.063 186.5,389.5C 183.013,388.255 180.013,386.255 177.5,383.5C 177.267,381.938 176.6,380.605 175.5,379.5 Z"/></g>
<g><path style="opacity:1" fill="#d0efef" d="M 187.5,377.5 C 190.872,378.627 194.206,379.96 197.5,381.5C 200.147,383.811 202.814,386.144 205.5,388.5C 208.522,387.351 211.522,387.351 214.5,388.5C 213.757,389.182 213.091,389.849 212.5,390.5C 210.046,390.321 207.879,390.987 206,392.5C 202.407,390.281 198.573,388.615 194.5,387.5C 192.394,386.217 190.06,385.384 187.5,385C 186.663,383.989 186.33,382.822 186.5,381.5C 184.825,379.544 185.158,378.211 187.5,377.5 Z"/></g>
<g><path style="opacity:1" fill="#c0e8fd" d="M 269.5,378.5 C 268.524,379.815 267.524,381.148 266.5,382.5C 261.923,383.972 257.59,385.638 253.5,387.5C 243.581,389.163 233.581,389.83 223.5,389.5C 223.5,389.167 223.5,388.833 223.5,388.5C 233.317,388.919 242.984,388.086 252.5,386C 255.542,383.125 259.209,381.792 263.5,382C 265.391,380.558 267.391,379.391 269.5,378.5 Z"/></g>
<g><path style="opacity:1" fill="#b7e3fc" d="M 177.5,379.5 C 180.215,381.123 183.215,381.79 186.5,381.5C 186.33,382.822 186.663,383.989 187.5,385C 190.06,385.384 192.394,386.217 194.5,387.5C 194.953,388.458 195.619,389.292 196.5,390C 199.31,390.906 201.976,392.073 204.5,393.5C 205.167,394.167 205.833,394.833 206.5,395.5C 205.167,395.5 203.833,395.5 202.5,395.5C 195.281,391.391 187.948,387.558 180.5,384C 179.614,382.385 178.614,380.885 177.5,379.5 Z"/></g>
<g><path style="opacity:1" fill="#caeaf8" d="M 197.5,381.5 C 202.572,383.857 207.905,385.19 213.5,385.5C 213.842,386.338 214.508,386.672 215.5,386.5C 217.78,388.223 220.447,388.889 223.5,388.5C 223.5,388.833 223.5,389.167 223.5,389.5C 223.5,390.167 223.5,390.833 223.5,391.5C 219.586,391.219 215.92,390.885 212.5,390.5C 213.091,389.849 213.757,389.182 214.5,388.5C 211.522,387.351 208.522,387.351 205.5,388.5C 202.814,386.144 200.147,383.811 197.5,381.5 Z"/></g>
<g><path style="opacity:1" fill="#15458a" d="M 286.5,383.5 C 285.766,384.708 285.433,386.041 285.5,387.5C 284.127,387.343 282.793,387.51 281.5,388C 280.643,390.019 279.309,391.519 277.5,392.5C 272.739,394.87 267.739,396.87 262.5,398.5C 266.5,395.833 270.5,393.167 274.5,390.5C 278.164,387.665 282.164,385.332 286.5,383.5 Z"/></g>
<g><path style="opacity:0.031" fill="#536fda" d="M 186.5,389.5 C 191.625,392.063 196.958,394.063 202.5,395.5C 204.167,396.833 205.833,398.167 207.5,399.5C 199.712,397.689 192.712,394.356 186.5,389.5 Z"/></g>
<g><path style="opacity:1" fill="#d2eef1" d="M 194.5,387.5 C 198.573,388.615 202.407,390.281 206,392.5C 207.879,390.987 210.046,390.321 212.5,390.5C 215.92,390.885 219.586,391.219 223.5,391.5C 232.905,391.792 242.238,391.126 251.5,389.5C 252.5,389.833 253.5,390.167 254.5,390.5C 252.234,391.314 249.9,391.814 247.5,392C 245.404,392.737 243.737,393.903 242.5,395.5C 234.35,396.493 226.017,396.826 217.5,396.5C 216.508,396.672 215.842,396.338 215.5,395.5C 211.833,394.833 208.167,394.167 204.5,393.5C 201.976,392.073 199.31,390.906 196.5,390C 195.619,389.292 194.953,388.458 194.5,387.5 Z"/></g>
<g><path style="opacity:1" fill="#d6f0ee" d="M 215.5,395.5 C 214.047,394.175 214.381,393.342 216.5,393C 223.192,392.169 229.858,392.336 236.5,393.5C 235.624,394.251 234.624,394.751 233.5,395C 227.509,395.499 221.509,395.666 215.5,395.5 Z"/></g>
<g><path style="opacity:1" fill="#cbedee" d="M 253.5,387.5 C 256.632,387.784 259.632,388.617 262.5,390C 261.944,390.383 261.611,390.883 261.5,391.5C 255.435,393.674 249.102,395.007 242.5,395.5C 243.737,393.903 245.404,392.737 247.5,392C 249.9,391.814 252.234,391.314 254.5,390.5C 253.5,390.167 252.5,389.833 251.5,389.5C 242.238,391.126 232.905,391.792 223.5,391.5C 223.5,390.833 223.5,390.167 223.5,389.5C 233.581,389.83 243.581,389.163 253.5,387.5 Z"/></g>
<g><path style="opacity:1" fill="#c4e8fa" d="M 271.5,388.5 C 263.145,393.285 254.145,396.285 244.5,397.5C 235.318,397.827 226.318,397.493 217.5,396.5C 226.017,396.826 234.35,396.493 242.5,395.5C 249.102,395.007 255.435,393.674 261.5,391.5C 264.546,389.708 267.879,388.708 271.5,388.5 Z"/></g>
<g><path style="opacity:1" fill="#1e589b" d="M 274.5,390.5 C 270.5,393.167 266.5,395.833 262.5,398.5C 259.219,398.42 256.219,399.087 253.5,400.5C 246.56,401.649 239.56,402.316 232.5,402.5C 228.982,402.498 225.649,402.165 222.5,401.5C 228.842,401.666 235.175,401.5 241.5,401C 243.058,400.79 244.391,400.29 245.5,399.5C 251.358,399.27 257.024,398.103 262.5,396C 266.398,393.871 270.398,392.038 274.5,390.5 Z"/></g>
<g><path style="opacity:1" fill="#b5e4fd" d="M 204.5,393.5 C 208.167,394.167 211.833,394.833 215.5,395.5C 215.842,396.338 216.508,396.672 217.5,396.5C 226.318,397.493 235.318,397.827 244.5,397.5C 242.833,398.167 241.167,398.833 239.5,399.5C 228.162,400.329 217.162,398.996 206.5,395.5C 205.833,394.833 205.167,394.167 204.5,393.5 Z"/></g>
<g><path style="opacity:1" fill="#65a9e2" d="M 202.5,395.5 C 203.833,395.5 205.167,395.5 206.5,395.5C 217.162,398.996 228.162,400.329 239.5,399.5C 241.5,399.5 243.5,399.5 245.5,399.5C 244.391,400.29 243.058,400.79 241.5,401C 235.175,401.5 228.842,401.666 222.5,401.5C 217.523,400.673 212.523,400.006 207.5,399.5C 205.833,398.167 204.167,396.833 202.5,395.5 Z"/></g>
<g><path style="opacity:0.42" fill="#233091" d="M 277.5,392.5 C 278.833,392.5 280.167,392.5 281.5,392.5C 263.436,403.113 244.102,406.78 223.5,403.5C 231.174,403.666 238.841,403.5 246.5,403C 248.833,401.957 251.166,401.124 253.5,400.5C 256.219,399.087 259.219,398.42 262.5,398.5C 267.739,396.87 272.739,394.87 277.5,392.5 Z"/></g>
<g><path style="opacity:0.574" fill="#1e3e97" d="M 207.5,399.5 C 212.523,400.006 217.523,400.673 222.5,401.5C 225.649,402.165 228.982,402.498 232.5,402.5C 239.56,402.316 246.56,401.649 253.5,400.5C 251.166,401.124 248.833,401.957 246.5,403C 238.841,403.5 231.174,403.666 223.5,403.5C 217.844,403.01 212.51,401.677 207.5,399.5 Z"/></g>
</svg>
