?xml version="1.0" encoding="UTF-8"?>
<!DOCTYPE svg PUBLIC "-//W3C//DTD SVG 1.1//EN" "http://www.w3.org/Graphics/SVG/1.1/DTD/svg11.dtd">
<svg xmlns="http://www.w3.org/2000/svg" version="1.1" width="537px" height="465px" style="shape-rendering:geometricPrecision; text-rendering:geometricPrecision; image-rendering:optimizeQuality; fill-rule:evenodd; clip-rule:evenodd" xmlns:xlink="http://www.w3.org/1999/xlink">
<g><path style="opacity:1" fill="#83c43d" d="M 262.5,90.5 C 270.84,90.3336 279.173,90.5003 287.5,91C 290.708,91.4028 293.708,92.4028 296.5,94C 304.577,94.0979 312.577,94.7645 320.5,96C 321.833,96.6667 321.833,97.3333 320.5,98C 323.79,98.7249 326.79,99.8916 329.5,101.5C 317.664,98.5999 305.664,96.5999 293.5,95.5C 281.007,94.34 268.34,94.1733 255.5,95C 249.497,97.5443 243.163,99.0443 236.5,99.5C 226.299,104.174 215.966,108.674 205.5,113C 196.396,118.612 187.729,124.779 179.5,131.5C 179.279,130.265 178.612,129.265 177.5,128.5C 177.863,127.817 178.196,127.15 178.5,126.5C 202.354,105.418 230.354,93.4181 262.5,90.5 Z"/></g>
<g><path style="opacity:1" fill="#38ed2b" d="M 293.5,95.5 C 305.664,96.5999 317.664,98.5999 329.5,101.5C 340.275,106.502 350.942,112.002 361.5,118C 367.305,121.821 372.972,125.821 378.5,130C 379.252,130.671 379.586,131.504 379.5,132.5C 374.967,129.862 374.301,130.862 377.5,135.5C 361.214,121.02 342.547,110.687 321.5,104.5C 299.984,98.9444 277.984,97.2777 255.5,99.5C 253.712,99.7852 252.045,99.4519 250.5,98.5C 254.427,97.3453 258.427,96.512 262.5,96C 272.828,95.5002 283.161,95.3335 293.5,95.5 Z"/></g>
<g><path style="opacity:1" fill="#f4fdf3" d="M 287.5,100.5 C 298.874,101.554 310.208,102.887 321.5,104.5C 342.547,110.687 361.214,121.02 377.5,135.5C 379.36,136.939 381.027,138.605 382.5,140.5C 384.785,144.727 387.785,148.393 391.5,151.5C 398.779,159.796 404.446,169.129 408.5,179.5C 406.952,179.179 406.285,178.179 406.5,176.5C 404.08,176.708 401.747,176.374 399.5,175.5C 399.167,176 398.833,176.5 398.5,177C 403.055,184.5 405.722,192.666 406.5,201.5C 393.159,159.031 365.492,130.198 323.5,115C 313.18,112.588 302.846,110.421 292.5,108.5C 292.5,108.167 292.5,107.833 292.5,107.5C 295.073,107.852 297.406,107.352 299.5,106C 295.599,105.894 291.932,105.061 288.5,103.5C 287.259,104.037 286.092,104.704 285,105.5C 283.463,104.965 281.963,104.632 280.5,104.5C 283.299,103.794 285.633,102.461 287.5,100.5 Z"/></g>
<g><path style="opacity:1" fill="#dbffd8" d="M 321.5,104.5 C 310.208,102.887 298.874,101.554 287.5,100.5C 275.803,100.254 264.136,100.587 252.5,101.5C 253.5,100.833 254.5,100.167 255.5,99.5C 277.984,97.2777 299.984,98.9444 321.5,104.5 Z"/></g>
<g><path style="opacity:1" fill="#3bea29" d="M 293.5,95.5 C 283.161,95.3335 272.828,95.5002 262.5,96C 258.427,96.512 254.427,97.3453 250.5,98.5C 252.045,99.4519 253.712,99.7852 255.5,99.5C 254.5,100.167 253.5,100.833 252.5,101.5C 251.5,101.5 250.5,101.5 249.5,101.5C 243.42,102.302 237.753,103.969 232.5,106.5C 228.099,107.406 224.099,109.072 220.5,111.5C 215.295,112.769 210.628,115.102 206.5,118.5C 179.21,132.791 159.543,154.124 147.5,182.5C 143.827,188.893 141.494,195.893 140.5,203.5C 138.754,207.889 137.754,212.556 137.5,217.5C 135.612,215.012 134.945,212.012 135.5,208.5C 136.979,201.58 137.979,194.58 138.5,187.5C 139.5,187.5 140.5,187.5 141.5,187.5C 141.34,185.801 141.506,184.134 142,182.5C 146.727,173.381 151.727,164.381 157,155.5C 163.689,146.647 171.189,138.647 179.5,131.5C 187.729,124.779 196.396,118.612 205.5,113C 215.966,108.674 226.299,104.174 236.5,99.5C 243.163,99.0443 249.497,97.5443 255.5,95C 268.34,94.1733 281.007,94.34 293.5,95.5 Z"/></g>
<g><path style="opacity:1" fill="#cafec7" d="M 249.5,101.5 C 244.168,104.25 238.502,105.917 232.5,106.5C 237.753,103.969 243.42,102.302 249.5,101.5 Z"/></g>
<g><path style="opacity:1" fill="#f6fdf5" d="M 287.5,100.5 C 285.633,102.461 283.299,103.794 280.5,104.5C 281.963,104.632 283.463,104.965 285,105.5C 286.092,104.704 287.259,104.037 288.5,103.5C 291.932,105.061 295.599,105.894 299.5,106C 297.406,107.352 295.073,107.852 292.5,107.5C 283.827,107.334 275.16,107.5 266.5,108C 265.263,108.232 264.263,108.732 263.5,109.5C 258.049,110.507 252.716,111.507 247.5,112.5C 207.3,122.699 177.3,146.032 157.5,182.5C 155.732,184.922 154.232,187.588 153,190.5C 152.51,191.793 152.343,193.127 152.5,194.5C 151.652,198.892 150.652,203.225 149.5,207.5C 148.257,211.786 147.257,216.119 146.5,220.5C 146.5,216.5 146.5,212.5 146.5,208.5C 144.297,208.396 142.297,207.73 140.5,206.5C 140.5,205.5 140.5,204.5 140.5,203.5C 143.626,196.88 145.96,189.88 147.5,182.5C 159.543,154.124 179.21,132.791 206.5,118.5C 207.873,118.657 209.207,118.49 210.5,118C 213.95,115.865 217.284,113.699 220.5,111.5C 224.099,109.072 228.099,107.406 232.5,106.5C 238.502,105.917 244.168,104.25 249.5,101.5C 250.5,101.5 251.5,101.5 252.5,101.5C 264.136,100.587 275.803,100.254 287.5,100.5 Z"/></g>
<g><path style="opacity:1" fill="#ccffc9" d="M 292.5,107.5 C 292.5,107.833 292.5,108.167 292.5,108.5C 282.801,108.275 273.134,108.608 263.5,109.5C 264.263,108.732 265.263,108.232 266.5,108C 275.16,107.5 283.827,107.334 292.5,107.5 Z"/></g>
<g><path style="opacity:1" fill="#39eb29" d="M 292.5,108.5 C 302.846,110.421 313.18,112.588 323.5,115C 365.492,130.198 393.159,159.031 406.5,201.5C 406.616,204.86 406.949,208.193 407.5,211.5C 406.034,210.653 405.2,209.32 405,207.5C 404.506,209.134 404.34,210.801 404.5,212.5C 404.167,212.5 403.833,212.5 403.5,212.5C 402.046,205.15 400.546,197.817 399,190.5C 398.059,188.273 396.892,186.273 395.5,184.5C 386.162,163.195 371.662,146.195 352,133.5C 326.233,117.684 298.066,110.851 267.5,113C 260.236,114.483 252.902,115.317 245.5,115.5C 244.761,115.631 244.094,115.464 243.5,115C 244.858,114.066 246.192,113.232 247.5,112.5C 252.716,111.507 258.049,110.507 263.5,109.5C 273.134,108.608 282.801,108.275 292.5,108.5 Z"/></g>
<g><path style="opacity:1" fill="#d8ffd7" d="M 220.5,111.5 C 217.284,113.699 213.95,115.865 210.5,118C 209.207,118.49 207.873,118.657 206.5,118.5C 210.628,115.102 215.295,112.769 220.5,111.5 Z"/></g>
<g><path style="opacity:1" fill="#80be3d" d="M 312.5,121.5 C 264.519,111.361 222.852,123.028 187.5,156.5C 187.41,153.359 188.41,150.692 190.5,148.5C 192.318,145.575 194.651,143.075 197.5,141C 201.823,138.497 205.823,135.497 209.5,132C 216.187,129.225 222.52,125.891 228.5,122C 232.906,121.092 237.239,119.925 241.5,118.5C 248.927,118.779 256.26,118.113 263.5,116.5C 263.291,115.914 262.957,115.414 262.5,115C 272.167,114.333 281.833,114.333 291.5,115C 289.833,115.333 288.167,115.667 286.5,116C 293.115,117.108 299.782,117.775 306.5,118C 308.257,119.75 310.257,120.916 312.5,121.5 Z"/></g>
<g><path style="opacity:1" fill="#81c43d" d="M 395.5,184.5 C 393.64,185.071 391.973,185.071 390.5,184.5C 373.542,152.565 347.542,131.565 312.5,121.5C 310.257,120.916 308.257,119.75 306.5,118C 299.782,117.775 293.115,117.108 286.5,116C 288.167,115.667 289.833,115.333 291.5,115C 281.833,114.333 272.167,114.333 262.5,115C 262.957,115.414 263.291,115.914 263.5,116.5C 256.26,118.113 248.927,118.779 241.5,118.5C 243.076,117.857 244.41,116.857 245.5,115.5C 252.902,115.317 260.236,114.483 267.5,113C 298.066,110.851 326.233,117.684 352,133.5C 371.662,146.195 386.162,163.195 395.5,184.5 Z"/></g>
<g><path style="opacity:1" fill="#80bf3c" d="M 262.5,90.5 C 318.028,84.8553 363.862,103.189 400,145.5C 404.358,151.556 408.192,157.89 411.5,164.5C 411.724,168.179 412.058,171.846 412.5,175.5C 409.024,169.22 405.524,162.886 402,156.5C 397.851,152.196 394.184,147.53 391,142.5C 387.041,139.252 383.208,135.918 379.5,132.5C 379.586,131.504 379.252,130.671 378.5,130C 372.972,125.821 367.305,121.821 361.5,118C 350.942,112.002 340.275,106.502 329.5,101.5C 326.79,99.8916 323.79,98.7249 320.5,98C 321.833,97.3333 321.833,96.6667 320.5,96C 312.577,94.7645 304.577,94.0979 296.5,94C 293.708,92.4028 290.708,91.4028 287.5,91C 279.173,90.5003 270.84,90.3336 262.5,90.5 Z"/></g>
<g><path style="opacity:1" fill="#d2ffce" d="M 382.5,140.5 C 386.215,143.607 389.215,147.273 391.5,151.5C 387.785,148.393 384.785,144.727 382.5,140.5 Z"/></g>
<g><path style="opacity:1" fill="#40eb2e" d="M 247.5,112.5 C 246.192,113.232 244.858,114.066 243.5,115C 244.094,115.464 244.761,115.631 245.5,115.5C 244.41,116.857 243.076,117.857 241.5,118.5C 237.239,119.925 232.906,121.092 228.5,122C 222.52,125.891 216.187,129.225 209.5,132C 205.823,135.497 201.823,138.497 197.5,141C 194.651,143.075 192.318,145.575 190.5,148.5C 188.095,149.398 186.095,150.898 184.5,153C 183.552,153.483 182.552,153.649 181.5,153.5C 181.649,154.552 181.483,155.552 181,156.5C 174.92,163.572 169.253,170.905 164,178.5C 163.667,180.167 163.333,181.833 163,183.5C 158.388,190.886 155.388,198.886 154,207.5C 153.623,208.942 152.79,209.942 151.5,210.5C 152.323,208.545 152.49,206.545 152,204.5C 151.148,205.571 150.315,206.571 149.5,207.5C 150.652,203.225 151.652,198.892 152.5,194.5C 154.928,190.901 156.594,186.901 157.5,182.5C 177.3,146.032 207.3,122.699 247.5,112.5 Z"/></g>
<g><path style="opacity:1" fill="#37eb28" d="M 379.5,132.5 C 383.208,135.918 387.041,139.252 391,142.5C 394.184,147.53 397.851,152.196 402,156.5C 405.524,162.886 409.024,169.22 412.5,175.5C 414.511,181.875 416.678,188.208 419,194.5C 420.366,199.76 421.199,205.093 421.5,210.5C 421.5,220.167 421.5,229.833 421.5,239.5C 421.411,253.445 418.578,266.778 413,279.5C 409.846,284.778 407.013,290.112 404.5,295.5C 404.879,292.433 403.879,291.433 401.5,292.5C 408.941,279.91 413.941,266.243 416.5,251.5C 416.833,250.167 417.167,248.833 417.5,247.5C 419.054,241.246 419.72,234.746 419.5,228C 419.333,223.167 419.167,218.333 419,213.5C 418.768,212.263 418.268,211.263 417.5,210.5C 417.567,209.041 417.234,207.708 416.5,206.5C 416.357,200.74 415.023,195.406 412.5,190.5C 412.323,186.292 410.99,182.626 408.5,179.5C 404.446,169.129 398.779,159.796 391.5,151.5C 389.215,147.273 386.215,143.607 382.5,140.5C 381.027,138.605 379.36,136.939 377.5,135.5C 374.301,130.862 374.967,129.862 379.5,132.5 Z"/></g>
<g><path style="opacity:1" fill="#7fc03b" d="M 190.5,148.5 C 188.41,150.692 187.41,153.359 187.5,156.5C 151.288,197.694 146.455,242.36 173,290.5C 174.188,297.367 173.021,303.701 169.5,309.5C 168.975,303.176 168.475,296.842 168,290.5C 167.292,289.619 166.458,288.953 165.5,288.5C 162.999,281.867 159.832,275.533 156,269.5C 155.769,264.574 154.602,259.908 152.5,255.5C 150.367,240.549 150.034,225.549 151.5,210.5C 152.79,209.942 153.623,208.942 154,207.5C 155.388,198.886 158.388,190.886 163,183.5C 163.333,181.833 163.667,180.167 164,178.5C 169.253,170.905 174.92,163.572 181,156.5C 181.483,155.552 181.649,154.552 181.5,153.5C 182.552,153.649 183.552,153.483 184.5,153C 186.095,150.898 188.095,149.398 190.5,148.5 Z"/></g>
<g><path style="opacity:1" fill="#d5fed0" d="M 157.5,182.5 C 156.594,186.901 154.928,190.901 152.5,194.5C 152.343,193.127 152.51,191.793 153,190.5C 154.232,187.588 155.732,184.922 157.5,182.5 Z"/></g>
<g><path style="opacity:1" fill="#f9fdf9" d="M 408.5,179.5 C 409.165,183.473 410.499,187.14 412.5,190.5C 413.325,196.182 414.658,201.516 416.5,206.5C 417.234,207.708 417.567,209.041 417.5,210.5C 418.728,222.822 418.728,235.155 417.5,247.5C 417.167,248.833 416.833,250.167 416.5,251.5C 415.034,252.347 414.2,253.68 414,255.5C 413.667,254.833 413.333,254.167 413,253.5C 409.705,254.694 408.205,253.361 408.5,249.5C 410.551,238.015 411.051,226.348 410,214.5C 409.617,213.944 409.117,213.611 408.5,213.5C 408.5,212.833 408.167,212.5 407.5,212.5C 407.5,212.167 407.5,211.833 407.5,211.5C 406.949,208.193 406.616,204.86 406.5,201.5C 405.722,192.666 403.055,184.5 398.5,177C 398.833,176.5 399.167,176 399.5,175.5C 401.747,176.374 404.08,176.708 406.5,176.5C 406.285,178.179 406.952,179.179 408.5,179.5 Z"/></g>
<g><path style="opacity:1" fill="#3aeb28" d="M 262.5,195.5 C 266.738,205.227 264.571,213.227 256,219.5C 254.204,221.402 254.037,223.402 255.5,225.5C 251.932,225.241 250.599,223.241 251.5,219.5C 254.234,216.375 256.734,213.042 259,209.5C 259.755,205.745 259.589,202.078 258.5,198.5C 254.503,188.339 249.836,178.506 244.5,169C 237.389,167.312 230.389,167.145 223.5,168.5C 222.448,168.649 221.448,168.483 220.5,168C 221.381,167.292 222.047,166.458 222.5,165.5C 222.611,164.883 222.944,164.383 223.5,164C 230.5,163.333 237.5,163.333 244.5,164C 246.609,165.141 248.442,166.641 250,168.5C 254.193,177.55 258.36,186.55 262.5,195.5 Z"/></g>
<g><path style="opacity:1" fill="#c9ffc8" d="M 408.5,179.5 C 410.99,182.626 412.323,186.292 412.5,190.5C 410.499,187.14 409.165,183.473 408.5,179.5 Z"/></g>
<g><path style="opacity:1" fill="#81bf3d" d="M 178.5,126.5 C 178.196,127.15 177.863,127.817 177.5,128.5C 178.612,129.265 179.279,130.265 179.5,131.5C 171.189,138.647 163.689,146.647 157,155.5C 151.727,164.381 146.727,173.381 142,182.5C 141.506,184.134 141.34,185.801 141.5,187.5C 140.5,187.5 139.5,187.5 138.5,187.5C 137.979,194.58 136.979,201.58 135.5,208.5C 135.167,208.5 134.833,208.5 134.5,208.5C 134.819,206.25 134.319,204.25 133,202.5C 131.049,207.328 129.716,212.328 129,217.5C 128.181,232.247 128.681,246.914 130.5,261.5C 121.815,215.387 132.982,174.72 164,139.5C 168.426,134.566 173.26,130.233 178.5,126.5 Z"/></g>
<g><path style="opacity:1" fill="#d4fecf" d="M 147.5,182.5 C 145.96,189.88 143.626,196.88 140.5,203.5C 141.494,195.893 143.827,188.893 147.5,182.5 Z"/></g>
<g><path style="opacity:1" fill="#d0ffd2" d="M 412.5,190.5 C 415.023,195.406 416.357,200.74 416.5,206.5C 414.658,201.516 413.325,196.182 412.5,190.5 Z"/></g>
<g><path style="opacity:1" fill="#f3fdf2" d="M 258.5,198.5 C 256.7,197.527 254.866,196.527 253,195.5C 252.944,188.704 250.61,182.704 246,177.5C 245.667,178.5 245.333,179.5 245,180.5C 244.333,181.833 243.667,181.833 243,180.5C 243.722,183.293 245.056,185.96 247,188.5C 247.743,186.355 248.576,186.189 249.5,188C 248.434,194.602 248.434,201.102 249.5,207.5C 250.201,203.181 249.034,199.514 246,196.5C 244.164,190.005 241.664,183.838 238.5,178C 232.484,176.52 227.15,177.687 222.5,181.5C 213.577,191.118 211.411,202.118 216,214.5C 223.334,230.659 233.834,244.325 247.5,255.5C 249.737,258.614 252.403,261.281 255.5,263.5C 255.511,265.017 256.177,266.184 257.5,267C 255.656,268.182 253.823,269.349 252,270.5C 249.024,268.309 245.524,265.976 241.5,263.5C 226.898,251.383 215.398,236.716 207,219.5C 206.057,216.176 205.224,212.843 204.5,209.5C 204.36,203.464 204.693,197.464 205.5,191.5C 208.387,181.391 214.387,173.724 223.5,168.5C 230.389,167.145 237.389,167.312 244.5,169C 249.836,178.506 254.503,188.339 258.5,198.5 Z"/></g>
<g><path style="opacity:1" fill="#81c13e" d="M 266.5,214.5 C 266.726,211.751 266.393,209.084 265.5,206.5C 267.7,201.632 267.2,196.966 264,192.5C 263.768,193.737 263.268,194.737 262.5,195.5C 258.36,186.55 254.193,177.55 250,168.5C 248.442,166.641 246.609,165.141 244.5,164C 237.5,163.333 230.5,163.333 223.5,164C 222.944,164.383 222.611,164.883 222.5,165.5C 221.127,165.343 219.793,165.51 218.5,166C 199.69,181.505 194.856,200.671 204,223.5C 207.3,229.48 210.634,235.48 214,241.5C 221.716,250.951 229.883,259.951 238.5,268.5C 237.407,270.567 237.907,271.234 240,270.5C 241.748,272.135 242.915,274.135 243.5,276.5C 245.871,276.892 246.538,277.892 245.5,279.5C 228.369,266.871 214.203,251.537 203,233.5C 191.061,212.36 191.728,191.693 205,171.5C 216.604,158.3 230.771,154.467 247.5,160C 250.616,161.449 253.116,163.616 255,166.5C 259.059,176.285 263.392,185.952 268,195.5C 269.907,201.491 269.907,207.491 268,213.5C 267.617,214.056 267.117,214.389 266.5,214.5 Z"/></g>
<g><path style="opacity:1" fill="#b1feae" d="M 205.5,191.5 C 204.693,197.464 204.36,203.464 204.5,209.5C 203.836,207.19 203.503,204.69 203.5,202C 203.304,198.195 203.97,194.695 205.5,191.5 Z"/></g>
<g><path style="opacity:1" fill="#39ec2a" d="M 249.5,207.5 C 245.884,210.285 242.718,213.619 240,217.5C 239.333,220.167 239.333,222.833 240,225.5C 246.911,238.579 256.745,248.912 269.5,256.5C 276.528,262.075 284.528,265.741 293.5,267.5C 300.193,265.826 305.193,261.826 308.5,255.5C 310.156,254.239 311.822,252.906 313.5,251.5C 321.736,254.285 329.736,257.618 337.5,261.5C 337.821,263.048 338.821,263.715 340.5,263.5C 341.036,266.665 340.203,269.331 338,271.5C 337.809,269.292 337.309,267.292 336.5,265.5C 329.935,261.724 322.935,258.724 315.5,256.5C 310.382,259.784 306.048,263.95 302.5,269C 297.734,271.31 292.734,271.977 287.5,271C 264.118,262.787 246.784,247.62 235.5,225.5C 235.337,223.143 235.503,220.81 236,218.5C 238.158,212.852 241.325,207.852 245.5,203.5C 242.964,196.666 240.131,189.999 237,183.5C 234.108,181.327 230.941,180.994 227.5,182.5C 220.892,187.642 217.559,194.476 217.5,203C 218.5,211.148 221.5,218.315 226.5,224.5C 227.107,227.076 228.274,229.409 230,231.5C 236.708,238.705 243.208,246.038 249.5,253.5C 249.5,254.833 248.833,255.5 247.5,255.5C 233.834,244.325 223.334,230.659 216,214.5C 211.411,202.118 213.577,191.118 222.5,181.5C 227.15,177.687 232.484,176.52 238.5,178C 241.664,183.838 244.164,190.005 246,196.5C 249.034,199.514 250.201,203.181 249.5,207.5 Z M 231.5,186.5 C 234.272,191.878 236.938,197.378 239.5,203C 235.119,207.602 231.619,212.769 229,218.5C 219.981,206.942 220.815,196.275 231.5,186.5 Z"/></g>
<g><path style="opacity:0.999" fill="#7cc83a" d="M 235.5,225.5 C 234.609,224.739 233.942,223.739 233.5,222.5C 232.675,221.614 231.675,221.281 230.5,221.5C 230.669,226.041 230.002,226.374 228.5,222.5C 227.478,222.855 226.811,223.522 226.5,224.5C 221.5,218.315 218.5,211.148 217.5,203C 217.559,194.476 220.892,187.642 227.5,182.5C 230.941,180.994 234.108,181.327 237,183.5C 240.131,189.999 242.964,196.666 245.5,203.5C 241.325,207.852 238.158,212.852 236,218.5C 235.503,220.81 235.337,223.143 235.5,225.5 Z M 231.5,186.5 C 220.815,196.275 219.981,206.942 229,218.5C 231.619,212.769 235.119,207.602 239.5,203C 236.938,197.378 234.272,191.878 231.5,186.5 Z"/></g>
<g><path style="opacity:1" fill="#82c63c" d="M 266.5,214.5 C 265.235,217.525 263.568,220.358 261.5,223C 268.988,233.826 278.821,241.659 291,246.5C 294.011,242.99 297.178,239.656 300.5,236.5C 306.842,236.334 313.175,236.5 319.5,237C 320.571,237.852 321.571,238.685 322.5,239.5C 317.06,237.555 311.393,237.055 305.5,238C 301.284,242.928 296.95,247.761 292.5,252.5C 280.466,248.631 270.466,241.798 262.5,232C 261.552,231.517 260.552,231.351 259.5,231.5C 259.316,228.663 257.982,226.663 255.5,225.5C 254.037,223.402 254.204,221.402 256,219.5C 264.571,213.227 266.738,205.227 262.5,195.5C 263.268,194.737 263.768,193.737 264,192.5C 267.2,196.966 267.7,201.632 265.5,206.5C 266.393,209.084 266.726,211.751 266.5,214.5 Z"/></g>
<g><path style="opacity:1" fill="#6dd530" d="M 403.5,212.5 C 403.833,212.5 404.167,212.5 404.5,212.5C 406.084,227.135 405.084,241.468 401.5,255.5C 402.221,245.298 403.221,235.131 404.5,225C 404.342,220.808 404.009,216.641 403.5,212.5 Z"/></g>
<g><path style="opacity:1" fill="#4ee123" d="M 421.5,210.5 C 422.29,211.609 422.79,212.942 423,214.5C 423.167,218.667 423.333,222.833 423.5,227C 423.491,231.557 422.825,235.724 421.5,239.5C 421.5,229.833 421.5,220.167 421.5,210.5 Z"/></g>
<g><path style="opacity:1" fill="#79fd79" d="M 407.5,212.5 C 408.167,212.5 408.5,212.833 408.5,213.5C 409.788,222.295 409.788,230.962 408.5,239.5C 408.716,230.467 408.383,221.467 407.5,212.5 Z"/></g>
<g><path style="opacity:1" fill="#58e034" d="M 134.5,208.5 C 134.833,208.5 135.167,208.5 135.5,208.5C 134.945,212.012 135.612,215.012 137.5,217.5C 136.629,225.8 136.295,234.133 136.5,242.5C 135.671,234.677 135.171,226.677 135,218.5C 134.667,218.833 134.333,219.167 134,219.5C 133.5,229.494 133.334,239.494 133.5,249.5C 132.34,237.674 132.174,225.674 133,213.5C 134.009,211.975 134.509,210.308 134.5,208.5 Z"/></g>
<g><path style="opacity:1" fill="#e4ffe3" d="M 146.5,222.5 C 145.94,235.312 146.94,247.979 149.5,260.5C 148.034,259.653 147.2,258.32 147,256.5C 144.841,245.591 144.174,234.591 145,223.5C 145.383,222.944 145.883,222.611 146.5,222.5 Z"/></g>
<g><path style="opacity:1" fill="#81c13c" d="M 411.5,164.5 C 420.647,180.114 426.147,197.114 428,215.5C 430.62,271.593 408.787,315.26 362.5,346.5C 358.731,346.244 355.064,346.577 351.5,347.5C 361.682,341.143 371.349,333.81 380.5,325.5C 389.508,316.062 397.508,306.062 404.5,295.5C 407.013,290.112 409.846,284.778 413,279.5C 418.578,266.778 421.411,253.445 421.5,239.5C 422.825,235.724 423.491,231.557 423.5,227C 423.333,222.833 423.167,218.667 423,214.5C 422.79,212.942 422.29,211.609 421.5,210.5C 421.199,205.093 420.366,199.76 419,194.5C 416.678,188.208 414.511,181.875 412.5,175.5C 412.058,171.846 411.724,168.179 411.5,164.5 Z"/></g>
<g><path style="opacity:0.996" fill="#82c23d" d="M 390.5,184.5 C 391.973,185.071 393.64,185.071 395.5,184.5C 396.892,186.273 398.059,188.273 399,190.5C 400.546,197.817 402.046,205.15 403.5,212.5C 404.009,216.641 404.342,220.808 404.5,225C 403.221,235.131 402.221,245.298 401.5,255.5C 396.456,274.872 387.123,291.872 373.5,306.5C 371.167,308.5 368.833,310.5 366.5,312.5C 366.144,310.81 365.144,309.81 363.5,309.5C 398.97,273.718 407.97,232.052 390.5,184.5 Z"/></g>
<g><path style="opacity:1" fill="#f5fdf4" d="M 258.5,198.5 C 259.589,202.078 259.755,205.745 259,209.5C 256.734,213.042 254.234,216.375 251.5,219.5C 249.623,220.659 249.123,222.326 250,224.5C 258.568,236.912 269.401,246.579 282.5,253.5C 278.555,252.344 274.555,251.844 270.5,252C 269.672,252.915 268.672,253.581 267.5,254C 268.756,254.417 269.423,255.25 269.5,256.5C 256.745,248.912 246.911,238.579 240,225.5C 239.333,222.833 239.333,220.167 240,217.5C 242.718,213.619 245.884,210.285 249.5,207.5C 248.434,201.102 248.434,194.602 249.5,188C 248.576,186.189 247.743,186.355 247,188.5C 245.056,185.96 243.722,183.293 243,180.5C 243.667,181.833 244.333,181.833 245,180.5C 245.333,179.5 245.667,178.5 246,177.5C 250.61,182.704 252.944,188.704 253,195.5C 254.866,196.527 256.7,197.527 258.5,198.5 Z"/></g>
<g><path style="opacity:1" fill="#dfffdd" d="M 140.5,203.5 C 140.5,204.5 140.5,205.5 140.5,206.5C 138.275,222.783 137.942,239.116 139.5,255.5C 137.627,251.485 136.627,247.151 136.5,242.5C 136.295,234.133 136.629,225.8 137.5,217.5C 137.754,212.556 138.754,207.889 140.5,203.5 Z"/></g>
<g><path style="opacity:1" fill="#81c03e" d="M 345.5,295.5 C 345.67,294.178 345.337,293.011 344.5,292C 345.5,291.667 346.5,291.333 347.5,291C 346.316,289.855 346.316,288.688 347.5,287.5C 349.451,286.284 350.951,284.618 352,282.5C 355.161,274.086 356.161,265.419 355,256.5C 354.077,255.241 353.243,253.908 352.5,252.5C 342.236,248.7 332.236,244.366 322.5,239.5C 321.571,238.685 320.571,237.852 319.5,237C 313.175,236.5 306.842,236.334 300.5,236.5C 302.983,233.359 306.316,231.692 310.5,231.5C 313.806,232.163 317.139,232.663 320.5,233C 333.603,237.412 345.936,243.245 357.5,250.5C 359.927,254.265 360.927,258.432 360.5,263C 361.242,276.613 356.242,287.446 345.5,295.5 Z"/></g>
<g><path style="opacity:1" fill="#8af887" d="M 417.5,210.5 C 418.268,211.263 418.768,212.263 419,213.5C 419.167,218.333 419.333,223.167 419.5,228C 419.72,234.746 419.054,241.246 417.5,247.5C 418.728,235.155 418.728,222.822 417.5,210.5 Z"/></g>
<g><path style="opacity:1" fill="#e5fee4" d="M 322.5,244.5 C 327.456,245.982 332.123,247.982 336.5,250.5C 333.079,250.238 332.079,251.572 333.5,254.5C 332.271,255.281 330.938,255.781 329.5,256C 333.741,257.704 337.907,259.538 342,261.5C 342.827,265.541 342.66,269.541 341.5,273.5C 340.591,275.375 339.257,276.708 337.5,277.5C 338.128,274.91 339.295,272.577 341,270.5C 341.497,267.854 341.664,265.187 341.5,262.5C 340.041,262.567 338.708,262.234 337.5,261.5C 329.736,257.618 321.736,254.285 313.5,251.5C 311.822,252.906 310.156,254.239 308.5,255.5C 308.635,253.076 308.968,251.076 309.5,249.5C 315.293,251.304 321.126,252.971 327,254.5C 329.909,253.571 331.075,251.571 330.5,248.5C 327.194,248.181 324.527,246.847 322.5,244.5 Z"/></g>
<g><path style="opacity:1" fill="#f6fdf5" d="M 322.5,244.5 C 324.527,246.847 327.194,248.181 330.5,248.5C 331.075,251.571 329.909,253.571 327,254.5C 321.126,252.971 315.293,251.304 309.5,249.5C 308.968,251.076 308.635,253.076 308.5,255.5C 305.193,261.826 300.193,265.826 293.5,267.5C 284.528,265.741 276.528,262.075 269.5,256.5C 269.423,255.25 268.756,254.417 267.5,254C 268.672,253.581 269.672,252.915 270.5,252C 274.555,251.844 278.555,252.344 282.5,253.5C 285.991,255.22 289.657,256.553 293.5,257.5C 298.966,253.077 303.633,247.91 307.5,242C 312.92,240.985 317.92,241.819 322.5,244.5 Z"/></g>
<g><path style="opacity:1" fill="#91f58d" d="M 407.5,247.5 C 407.59,250.152 406.924,252.485 405.5,254.5C 405.41,251.848 406.076,249.515 407.5,247.5 Z"/></g>
<g><path style="opacity:1" fill="#3eeb2e" d="M 251.5,219.5 C 250.599,223.241 251.932,225.241 255.5,225.5C 257.982,226.663 259.316,228.663 259.5,231.5C 260.552,231.351 261.552,231.517 262.5,232C 270.466,241.798 280.466,248.631 292.5,252.5C 296.95,247.761 301.284,242.928 305.5,238C 311.393,237.055 317.06,237.555 322.5,239.5C 332.236,244.366 342.236,248.7 352.5,252.5C 353.243,253.908 354.077,255.241 355,256.5C 356.161,265.419 355.161,274.086 352,282.5C 350.951,284.618 349.451,286.284 347.5,287.5C 345.75,288.742 344.083,290.242 342.5,292C 337.737,294.603 332.737,296.436 327.5,297.5C 318.911,297.457 310.244,297.291 301.5,297C 300.584,296.722 299.918,296.222 299.5,295.5C 316.754,299.107 331.754,295.107 344.5,283.5C 350.058,275.868 352.225,267.202 351,257.5C 346.343,254.755 341.51,252.421 336.5,250.5C 332.123,247.982 327.456,245.982 322.5,244.5C 317.92,241.819 312.92,240.985 307.5,242C 303.633,247.91 298.966,253.077 293.5,257.5C 289.657,256.553 285.991,255.22 282.5,253.5C 269.401,246.579 258.568,236.912 250,224.5C 249.123,222.326 249.623,220.659 251.5,219.5 Z"/></g>
<g><path style="opacity:1" fill="#f9fdf9" d="M 140.5,206.5 C 142.297,207.73 144.297,208.396 146.5,208.5C 146.5,212.5 146.5,216.5 146.5,220.5C 146.5,221.167 146.5,221.833 146.5,222.5C 145.883,222.611 145.383,222.944 145,223.5C 144.174,234.591 144.841,245.591 147,256.5C 147.2,258.32 148.034,259.653 149.5,260.5C 151.396,265.998 153.063,271.665 154.5,277.5C 155.812,280.024 156.312,282.691 156,285.5C 154.416,286.861 152.582,287.528 150.5,287.5C 150.599,284.327 149.932,281.327 148.5,278.5C 147.914,278.709 147.414,279.043 147,279.5C 145.798,276.226 144.798,272.893 144,269.5C 143.617,268.944 143.117,268.611 142.5,268.5C 139.965,264.645 138.965,260.312 139.5,255.5C 137.942,239.116 138.275,222.783 140.5,206.5 Z"/></g>
<g><path style="opacity:1" fill="#82c93b" d="M 235.5,225.5 C 246.784,247.62 264.118,262.787 287.5,271C 292.734,271.977 297.734,271.31 302.5,269C 306.048,263.95 310.382,259.784 315.5,256.5C 322.935,258.724 329.935,261.724 336.5,265.5C 337.34,271.856 334.673,275.69 328.5,277C 327.833,278 327.167,279 326.5,280C 315.427,283.298 304.427,282.965 293.5,279C 288.46,276.491 283.127,274.491 277.5,273C 267.735,267.059 258.401,260.559 249.5,253.5C 243.208,246.038 236.708,238.705 230,231.5C 228.274,229.409 227.107,227.076 226.5,224.5C 226.811,223.522 227.478,222.855 228.5,222.5C 230.002,226.374 230.669,226.041 230.5,221.5C 231.675,221.281 232.675,221.614 233.5,222.5C 233.942,223.739 234.609,224.739 235.5,225.5 Z M 315.5,263.5 C 321.092,264.133 326.092,266.133 330.5,269.5C 322.792,277.454 313.792,279.287 303.5,275C 308.002,271.664 312.002,267.831 315.5,263.5 Z"/></g>
<g><path style="opacity:1" fill="#3ceb2e" d="M 249.5,253.5 C 258.401,260.559 267.735,267.059 277.5,273C 283.127,274.491 288.46,276.491 293.5,279C 304.427,282.965 315.427,283.298 326.5,280C 327.167,279 327.833,278 328.5,277C 334.673,275.69 337.34,271.856 336.5,265.5C 337.309,267.292 337.809,269.292 338,271.5C 340.203,269.331 341.036,266.665 340.5,263.5C 338.821,263.715 337.821,263.048 337.5,261.5C 338.708,262.234 340.041,262.567 341.5,262.5C 341.664,265.187 341.497,267.854 341,270.5C 339.295,272.577 338.128,274.91 337.5,277.5C 335.77,278.026 334.436,279.026 333.5,280.5C 324.29,285.882 314.29,287.882 303.5,286.5C 286.184,281.817 270.184,274.15 255.5,263.5C 252.403,261.281 249.737,258.614 247.5,255.5C 248.833,255.5 249.5,254.833 249.5,253.5 Z M 315.5,263.5 C 312.002,267.831 308.002,271.664 303.5,275C 313.792,279.287 322.792,277.454 330.5,269.5C 326.092,266.133 321.092,264.133 315.5,263.5 Z"/></g>
<g><path style="opacity:1" fill="#f9fdf9" d="M 336.5,250.5 C 341.51,252.421 346.343,254.755 351,257.5C 352.225,267.202 350.058,275.868 344.5,283.5C 342.167,283.5 339.833,283.5 337.5,283.5C 337.649,284.552 337.483,285.552 337,286.5C 332.556,283.992 332.389,284.492 336.5,288C 334.75,289.319 332.75,289.819 330.5,289.5C 330.5,290.5 330.5,291.5 330.5,292.5C 318.827,295.076 307.161,295.076 295.5,292.5C 295.586,291.504 295.252,290.671 294.5,290C 296.134,289.506 297.801,289.34 299.5,289.5C 299.5,288.5 299.5,287.5 299.5,286.5C 300.833,286.5 302.167,286.5 303.5,286.5C 303.918,287.222 304.584,287.722 305.5,288C 307.667,288.167 309.833,288.333 312,288.5C 318.413,287.107 324.913,286.107 331.5,285.5C 331.831,283.678 332.498,282.011 333.5,280.5C 334.436,279.026 335.77,278.026 337.5,277.5C 339.257,276.708 340.591,275.375 341.5,273.5C 342.66,269.541 342.827,265.541 342,261.5C 337.907,259.538 333.741,257.704 329.5,256C 330.938,255.781 332.271,255.281 333.5,254.5C 332.079,251.572 333.079,250.238 336.5,250.5 Z"/></g>
<g><path style="opacity:1" fill="#f2fdf2" d="M 241.5,263.5 C 245.524,265.976 249.024,268.309 252,270.5C 253.823,269.349 255.656,268.182 257.5,267C 256.177,266.184 255.511,265.017 255.5,263.5C 270.184,274.15 286.184,281.817 303.5,286.5C 302.167,286.5 300.833,286.5 299.5,286.5C 299.5,287.5 299.5,288.5 299.5,289.5C 297.801,289.34 296.134,289.506 294.5,290C 295.252,290.671 295.586,291.504 295.5,292.5C 294.167,292.5 292.833,292.5 291.5,292.5C 272.125,287.48 255.459,277.813 241.5,263.5 Z"/></g>
<g><path style="opacity:1" fill="#d3fdce" d="M 403.5,265.5 C 401.622,272.689 399.289,279.689 396.5,286.5C 395.5,286.5 394.5,286.5 393.5,286.5C 396.889,279.469 400.222,272.469 403.5,265.5 Z"/></g>
<g><path style="opacity:1" fill="#3aea29" d="M 222.5,165.5 C 222.047,166.458 221.381,167.292 220.5,168C 221.448,168.483 222.448,168.649 223.5,168.5C 214.387,173.724 208.387,181.391 205.5,191.5C 203.97,194.695 203.304,198.195 203.5,202C 203.503,204.69 203.836,207.19 204.5,209.5C 205.224,212.843 206.057,216.176 207,219.5C 215.398,236.716 226.898,251.383 241.5,263.5C 255.459,277.813 272.125,287.48 291.5,292.5C 294.076,293.488 296.743,294.488 299.5,295.5C 299.918,296.222 300.584,296.722 301.5,297C 310.244,297.291 318.911,297.457 327.5,297.5C 327.082,298.222 326.416,298.722 325.5,299C 316.173,299.5 306.839,299.666 297.5,299.5C 297.389,298.883 297.056,298.383 296.5,298C 285.923,295.289 275.59,291.956 265.5,288C 256.393,281.738 247.393,275.238 238.5,268.5C 229.883,259.951 221.716,250.951 214,241.5C 210.634,235.48 207.3,229.48 204,223.5C 194.856,200.671 199.69,181.505 218.5,166C 219.793,165.51 221.127,165.343 222.5,165.5 Z"/></g>
<g><path style="opacity:1" fill="#7fbf3c" d="M 238.5,268.5 C 247.393,275.238 256.393,281.738 265.5,288C 275.59,291.956 285.923,295.289 296.5,298C 297.056,298.383 297.389,298.883 297.5,299.5C 307.704,302.141 318.037,302.141 328.5,299.5C 329.167,299.833 329.833,300.167 330.5,300.5C 331.833,299.5 333.167,298.5 334.5,297.5C 335.736,298.246 337.07,298.579 338.5,298.5C 338.5,297.167 338.5,295.833 338.5,294.5C 340.553,294.402 342.22,295.069 343.5,296.5C 326.293,307.575 307.96,309.409 288.5,302C 272.38,297.61 258.047,290.11 245.5,279.5C 246.538,277.892 245.871,276.892 243.5,276.5C 242.915,274.135 241.748,272.135 240,270.5C 237.907,271.234 237.407,270.567 238.5,268.5 Z"/></g>
<g><path style="opacity:1" fill="#e4ffe2" d="M 333.5,280.5 C 332.498,282.011 331.831,283.678 331.5,285.5C 324.913,286.107 318.413,287.107 312,288.5C 309.833,288.333 307.667,288.167 305.5,288C 304.584,287.722 303.918,287.222 303.5,286.5C 314.29,287.882 324.29,285.882 333.5,280.5 Z"/></g>
<g><path style="opacity:1" fill="#f6fdf5" d="M 142.5,268.5 C 143.117,268.611 143.617,268.944 144,269.5C 144.798,272.893 145.798,276.226 147,279.5C 147.414,279.043 147.914,278.709 148.5,278.5C 149.932,281.327 150.599,284.327 150.5,287.5C 152.582,287.528 154.416,286.861 156,285.5C 156.312,282.691 155.812,280.024 154.5,277.5C 155.458,277.953 156.292,278.619 157,279.5C 157.384,282.06 158.217,284.394 159.5,286.5C 160.794,290.088 161.794,293.754 162.5,297.5C 161.821,300.506 161.154,303.506 160.5,306.5C 157.454,318.694 154.121,330.694 150.5,342.5C 147.811,345.52 145.478,348.853 143.5,352.5C 141.651,350.811 140.651,348.644 140.5,346C 141.077,343.863 141.41,341.696 141.5,339.5C 142.458,339.047 143.292,338.381 144,337.5C 145.362,331.594 146.528,325.594 147.5,319.5C 147.5,319.167 147.5,318.833 147.5,318.5C 149.411,314.767 150.744,310.767 151.5,306.5C 152.34,302.17 152.84,297.837 153,293.5C 147.856,285.876 144.356,277.542 142.5,268.5 Z"/></g>
<g><path style="opacity:1" fill="#f1fdf0" d="M 408.5,213.5 C 409.117,213.611 409.617,213.944 410,214.5C 411.051,226.348 410.551,238.015 408.5,249.5C 408.205,253.361 409.705,254.694 413,253.5C 413.333,254.167 413.667,254.833 414,255.5C 414.2,253.68 415.034,252.347 416.5,251.5C 413.941,266.243 408.941,279.91 401.5,292.5C 398.564,298.041 394.897,303.041 390.5,307.5C 390.753,305.173 390.086,303.173 388.5,301.5C 386.055,302.312 383.722,303.312 381.5,304.5C 385.49,298.529 389.49,292.529 393.5,286.5C 394.5,286.5 395.5,286.5 396.5,286.5C 399.289,279.689 401.622,272.689 403.5,265.5C 403.424,261.616 404.09,257.95 405.5,254.5C 406.924,252.485 407.59,250.152 407.5,247.5C 407.833,244.833 408.167,242.167 408.5,239.5C 409.788,230.962 409.788,222.295 408.5,213.5 Z"/></g>
<g><path style="opacity:1" fill="#3aeb2d" d="M 151.5,210.5 C 150.034,225.549 150.367,240.549 152.5,255.5C 154.602,259.908 155.769,264.574 156,269.5C 159.832,275.533 162.999,281.867 165.5,288.5C 167.647,293.284 167.981,298.284 166.5,303.5C 161.709,318.326 157.375,333.326 153.5,348.5C 171.096,344.185 188.762,340.018 206.5,336C 211.75,335.019 216.75,335.519 221.5,337.5C 222.29,338.401 223.29,339.068 224.5,339.5C 224.38,340.586 223.713,341.253 222.5,341.5C 216.23,338.035 209.897,337.702 203.5,340.5C 184.896,345.367 166.23,350.034 147.5,354.5C 147.326,350.189 148.326,346.189 150.5,342.5C 154.121,330.694 157.454,318.694 160.5,306.5C 163.389,302.033 164.223,297.033 163,291.5C 162.098,289.569 160.931,287.903 159.5,286.5C 158.217,284.394 157.384,282.06 157,279.5C 156.292,278.619 155.458,277.953 154.5,277.5C 153.063,271.665 151.396,265.998 149.5,260.5C 146.94,247.979 145.94,235.312 146.5,222.5C 146.5,221.833 146.5,221.167 146.5,220.5C 147.257,216.119 148.257,211.786 149.5,207.5C 150.315,206.571 151.148,205.571 152,204.5C 152.49,206.545 152.323,208.545 151.5,210.5 Z"/></g>
<g><path style="opacity:1" fill="#7ad137" d="M 347.5,287.5 C 346.316,288.688 346.316,289.855 347.5,291C 346.5,291.333 345.5,291.667 344.5,292C 345.337,293.011 345.67,294.178 345.5,295.5C 344.833,295.833 344.167,296.167 343.5,296.5C 342.22,295.069 340.553,294.402 338.5,294.5C 338.5,295.833 338.5,297.167 338.5,298.5C 337.07,298.579 335.736,298.246 334.5,297.5C 333.167,298.5 331.833,299.5 330.5,300.5C 329.833,300.167 329.167,299.833 328.5,299.5C 318.037,302.141 307.704,302.141 297.5,299.5C 306.839,299.666 316.173,299.5 325.5,299C 326.416,298.722 327.082,298.222 327.5,297.5C 332.737,296.436 337.737,294.603 342.5,292C 344.083,290.242 345.75,288.742 347.5,287.5 Z"/></g>
<g><path style="opacity:1" fill="#83c43b" d="M 134.5,208.5 C 134.509,210.308 134.009,211.975 133,213.5C 132.174,225.674 132.34,237.674 133.5,249.5C 134.748,256.942 136.248,264.275 138,271.5C 141.686,280.152 145.186,288.819 148.5,297.5C 148.151,304.005 146.318,310.005 143,315.5C 142.226,319.147 141.559,322.814 141,326.5C 140.333,327.167 139.667,327.833 139,328.5C 138.689,332.09 137.856,335.423 136.5,338.5C 136.448,334.802 136.114,331.135 135.5,327.5C 137.576,317.346 140.243,307.346 143.5,297.5C 137.33,286.145 132.996,274.145 130.5,261.5C 128.681,246.914 128.181,232.247 129,217.5C 129.716,212.328 131.049,207.328 133,202.5C 134.319,204.25 134.819,206.25 134.5,208.5 Z"/></g>
<g><path style="opacity:1" fill="#d1fed0" d="M 159.5,286.5 C 160.931,287.903 162.098,289.569 163,291.5C 164.223,297.033 163.389,302.033 160.5,306.5C 161.154,303.506 161.821,300.506 162.5,297.5C 161.794,293.754 160.794,290.088 159.5,286.5 Z"/></g>
<g><path style="opacity:1" fill="#e4fee5" d="M 344.5,283.5 C 331.754,295.107 316.754,299.107 299.5,295.5C 296.743,294.488 294.076,293.488 291.5,292.5C 292.833,292.5 294.167,292.5 295.5,292.5C 307.161,295.076 318.827,295.076 330.5,292.5C 330.5,291.5 330.5,290.5 330.5,289.5C 332.75,289.819 334.75,289.319 336.5,288C 332.389,284.492 332.556,283.992 337,286.5C 337.483,285.552 337.649,284.552 337.5,283.5C 339.833,283.5 342.167,283.5 344.5,283.5 Z"/></g>
<g><path style="opacity:1" fill="#37eb26" d="M 407.5,211.5 C 407.5,211.833 407.5,212.167 407.5,212.5C 408.383,221.467 408.716,230.467 408.5,239.5C 408.167,242.167 407.833,244.833 407.5,247.5C 406.076,249.515 405.41,251.848 405.5,254.5C 404.09,257.95 403.424,261.616 403.5,265.5C 400.222,272.469 396.889,279.469 393.5,286.5C 389.49,292.529 385.49,298.529 381.5,304.5C 379.456,306.219 377.456,307.886 375.5,309.5C 373.952,309.179 373.285,308.179 373.5,306.5C 387.123,291.872 396.456,274.872 401.5,255.5C 405.084,241.468 406.084,227.135 404.5,212.5C 404.34,210.801 404.506,209.134 405,207.5C 405.2,209.32 406.034,210.653 407.5,211.5 Z"/></g>
<g><path style="opacity:1" fill="#35ec28" d="M 404.5,295.5 C 397.508,306.062 389.508,316.062 380.5,325.5C 371.349,333.81 361.682,341.143 351.5,347.5C 338.334,355 324.334,360.334 309.5,363.5C 297.906,365.162 286.239,366.162 274.5,366.5C 268.029,366.693 261.696,365.86 255.5,364C 258.146,363.503 260.813,363.336 263.5,363.5C 275.442,363.991 287.109,362.991 298.5,360.5C 313.803,358.789 328.136,354.456 341.5,347.5C 361.122,338.19 377.455,324.856 390.5,307.5C 394.897,303.041 398.564,298.041 401.5,292.5C 403.879,291.433 404.879,292.433 404.5,295.5 Z"/></g>
<g><path style="opacity:1" fill="#c2fdbd" d="M 151.5,306.5 C 150.744,310.767 149.411,314.767 147.5,318.5C 147.861,314.085 149.194,310.085 151.5,306.5 Z"/></g>
<g><path style="opacity:0.992" fill="#82c23e" d="M 363.5,309.5 C 365.144,309.81 366.144,310.81 366.5,312.5C 335.795,341.326 299.461,352.66 257.5,346.5C 261.182,346.665 264.848,346.499 268.5,346C 267.294,344.982 267.627,344.482 269.5,344.5C 278.683,345.184 287.849,345.517 297,345.5C 299.491,343.178 302.324,341.511 305.5,340.5C 327.145,334.529 346.478,324.196 363.5,309.5 Z"/></g>
<g><path style="opacity:1" fill="#f3fdf2" d="M 390.5,307.5 C 377.455,324.856 361.122,338.19 341.5,347.5C 343.688,344.935 344.688,341.935 344.5,338.5C 340.256,339.783 335.922,340.783 331.5,341.5C 344.66,335.213 356.994,327.38 368.5,318C 371.099,315.249 373.432,312.416 375.5,309.5C 377.456,307.886 379.456,306.219 381.5,304.5C 383.722,303.312 386.055,302.312 388.5,301.5C 390.086,303.173 390.753,305.173 390.5,307.5 Z"/></g>
<g><path style="opacity:1" fill="#41e82e" d="M 373.5,306.5 C 373.285,308.179 373.952,309.179 375.5,309.5C 373.432,312.416 371.099,315.249 368.5,318C 356.994,327.38 344.66,335.213 331.5,341.5C 327.134,342.575 323.134,344.241 319.5,346.5C 310.741,348.51 302.074,350.51 293.5,352.5C 280.656,352.829 267.989,352.495 255.5,351.5C 311.466,350.337 311.466,349.504 255.5,349C 252.028,347.42 248.362,347.087 244.5,348C 246.32,348.2 247.653,349.034 248.5,350.5C 247.167,350.5 245.833,350.5 244.5,350.5C 234.751,347.471 225.084,343.971 215.5,340C 211.476,339.503 207.476,339.669 203.5,340.5C 209.897,337.702 216.23,338.035 222.5,341.5C 223.713,341.253 224.38,340.586 224.5,339.5C 235.107,343.497 246.107,345.831 257.5,346.5C 299.461,352.66 335.795,341.326 366.5,312.5C 368.833,310.5 371.167,308.5 373.5,306.5 Z"/></g>
<g><path style="opacity:1" fill="#34ec26" d="M 136.5,242.5 C 136.627,247.151 137.627,251.485 139.5,255.5C 138.965,260.312 139.965,264.645 142.5,268.5C 144.356,277.542 147.856,285.876 153,293.5C 152.84,297.837 152.34,302.17 151.5,306.5C 149.194,310.085 147.861,314.085 147.5,318.5C 147.5,318.833 147.5,319.167 147.5,319.5C 144.588,325.799 142.588,332.465 141.5,339.5C 141.167,339.5 140.833,339.5 140.5,339.5C 137.655,345.483 135.488,351.816 134,358.5C 133.306,354.446 133.473,350.446 134.5,346.5C 135.371,343.997 136.037,341.33 136.5,338.5C 137.856,335.423 138.689,332.09 139,328.5C 139.667,327.833 140.333,327.167 141,326.5C 141.559,322.814 142.226,319.147 143,315.5C 146.318,310.005 148.151,304.005 148.5,297.5C 145.186,288.819 141.686,280.152 138,271.5C 136.248,264.275 134.748,256.942 133.5,249.5C 133.334,239.494 133.5,229.494 134,219.5C 134.333,219.167 134.667,218.833 135,218.5C 135.171,226.677 135.671,234.677 136.5,242.5 Z"/></g>
<g><path style="opacity:1" fill="#defed9" d="M 147.5,319.5 C 146.528,325.594 145.362,331.594 144,337.5C 143.292,338.381 142.458,339.047 141.5,339.5C 142.588,332.465 144.588,325.799 147.5,319.5 Z"/></g>
<g><path style="opacity:1" fill="#f4fdf3" d="M 140.5,339.5 C 140.833,339.5 141.167,339.5 141.5,339.5C 141.41,341.696 141.077,343.863 140.5,346C 140.651,348.644 141.651,350.811 143.5,352.5C 145.478,348.853 147.811,345.52 150.5,342.5C 148.326,346.189 147.326,350.189 147.5,354.5C 166.23,350.034 184.896,345.367 203.5,340.5C 207.476,339.669 211.476,339.503 215.5,340C 225.084,343.971 234.751,347.471 244.5,350.5C 240.032,350.407 235.699,349.907 231.5,349C 231.833,349.333 232.167,349.667 232.5,350C 230.162,351.162 228.828,352.996 228.5,355.5C 222.657,353.58 216.824,351.58 211,349.5C 186.831,354.431 162.998,360.431 139.5,367.5C 136.438,366.732 134.772,364.732 134.5,361.5C 136.635,354.132 138.635,346.799 140.5,339.5 Z"/></g>
<g><path style="opacity:0.976" fill="#7fc53b" d="M 165.5,288.5 C 166.458,288.953 167.292,289.619 168,290.5C 168.475,296.842 168.975,303.176 169.5,309.5C 167.011,320.134 164.011,330.634 160.5,341C 175.036,337.551 189.703,334.385 204.5,331.5C 203.571,332.315 202.571,333.148 201.5,334C 207.859,334.169 214.193,334.669 220.5,335.5C 220.863,336.183 221.196,336.85 221.5,337.5C 216.75,335.519 211.75,335.019 206.5,336C 188.762,340.018 171.096,344.185 153.5,348.5C 157.375,333.326 161.709,318.326 166.5,303.5C 167.981,298.284 167.647,293.284 165.5,288.5 Z"/></g>
<g><path style="opacity:1" fill="#7fbe3d" d="M 305.5,340.5 C 302.324,341.511 299.491,343.178 297,345.5C 287.849,345.517 278.683,345.184 269.5,344.5C 267.627,344.482 267.294,344.982 268.5,346C 264.848,346.499 261.182,346.665 257.5,346.5C 246.107,345.831 235.107,343.497 224.5,339.5C 223.29,339.068 222.29,338.401 221.5,337.5C 221.196,336.85 220.863,336.183 220.5,335.5C 214.193,334.669 207.859,334.169 201.5,334C 202.571,333.148 203.571,332.315 204.5,331.5C 208.531,329.561 212.864,329.061 217.5,330C 245.604,343.399 274.937,346.899 305.5,340.5 Z"/></g>
<g><path style="opacity:1" fill="#cffecb" d="M 331.5,341.5 C 330.093,343.614 328.093,345.114 325.5,346C 323.527,346.495 321.527,346.662 319.5,346.5C 323.134,344.241 327.134,342.575 331.5,341.5 Z"/></g>
<g><path style="opacity:1" fill="#19f112" d="M 255.5,351.5 C 253.097,351.552 250.764,351.219 248.5,350.5C 247.653,349.034 246.32,348.2 244.5,348C 248.362,347.087 252.028,347.42 255.5,349C 311.466,349.504 311.466,350.337 255.5,351.5 Z"/></g>
<g><path style="opacity:1" fill="#f8fdf7" d="M 341.5,347.5 C 328.136,354.456 313.803,358.789 298.5,360.5C 282.156,361.889 265.823,361.722 249.5,360C 245.126,357.899 240.459,357.065 235.5,357.5C 232.921,357.606 230.588,356.939 228.5,355.5C 228.828,352.996 230.162,351.162 232.5,350C 232.167,349.667 231.833,349.333 231.5,349C 235.699,349.907 240.032,350.407 244.5,350.5C 245.833,350.5 247.167,350.5 248.5,350.5C 250.832,352.096 253.499,353.262 256.5,354C 266.833,354.667 277.167,354.667 287.5,354C 289.708,353.809 291.708,353.309 293.5,352.5C 302.074,350.51 310.741,348.51 319.5,346.5C 321.527,346.662 323.527,346.495 325.5,346C 328.093,345.114 330.093,343.614 331.5,341.5C 335.922,340.783 340.256,339.783 344.5,338.5C 344.688,341.935 343.688,344.935 341.5,347.5 Z"/></g>
<g><path style="opacity:1" fill="#d6ffd3" d="M 248.5,350.5 C 250.764,351.219 253.097,351.552 255.5,351.5C 267.989,352.495 280.656,352.829 293.5,352.5C 291.708,353.309 289.708,353.809 287.5,354C 277.167,354.667 266.833,354.667 256.5,354C 253.499,353.262 250.832,352.096 248.5,350.5 Z"/></g>
<g><path style="opacity:1" fill="#83c33c" d="M 135.5,327.5 C 136.114,331.135 136.448,334.802 136.5,338.5C 136.037,341.33 135.371,343.997 134.5,346.5C 125.958,371.108 133.625,377.608 157.5,366C 165.439,364.093 173.439,362.427 181.5,361C 183.5,360 185.5,359 187.5,358C 193.468,356.844 199.468,356.011 205.5,355.5C 197.797,356.792 190.464,359.459 183.5,363.5C 181.902,362.515 180.235,362.349 178.5,363C 179.5,363.333 180.5,363.667 181.5,364C 179.24,364.549 177.574,365.716 176.5,367.5C 165.416,370.017 154.416,372.85 143.5,376C 140.408,376.736 137.408,376.569 134.5,375.5C 131.558,372.55 129.058,369.216 127,365.5C 126.466,361.141 126.632,356.808 127.5,352.5C 129.792,343.959 132.459,335.626 135.5,327.5 Z"/></g>
<g><path style="opacity:1" fill="#3dea29" d="M 140.5,339.5 C 138.635,346.799 136.635,354.132 134.5,361.5C 134.772,364.732 136.438,366.732 139.5,367.5C 162.998,360.431 186.831,354.431 211,349.5C 216.824,351.58 222.657,353.58 228.5,355.5C 230.588,356.939 232.921,357.606 235.5,357.5C 244.638,360.474 253.971,362.474 263.5,363.5C 260.813,363.336 258.146,363.503 255.5,364C 261.696,365.86 268.029,366.693 274.5,366.5C 286.239,366.162 297.906,365.162 309.5,363.5C 307.723,364.6 305.723,365.434 303.5,366C 272.429,370.083 242.429,366.416 213.5,355C 210.779,354.398 208.113,354.565 205.5,355.5C 199.468,356.011 193.468,356.844 187.5,358C 185.5,359 183.5,360 181.5,361C 173.439,362.427 165.439,364.093 157.5,366C 133.625,377.608 125.958,371.108 134.5,346.5C 133.473,350.446 133.306,354.446 134,358.5C 135.488,351.816 137.655,345.483 140.5,339.5 Z"/></g>
<g><path style="opacity:1" fill="#82c13e" d="M 362.5,346.5 C 322.34,371.688 279.007,378.522 232.5,367C 225.06,364.464 217.727,361.631 210.5,358.5C 199.154,361.505 187.821,364.505 176.5,367.5C 177.574,365.716 179.24,364.549 181.5,364C 180.5,363.667 179.5,363.333 178.5,363C 180.235,362.349 181.902,362.515 183.5,363.5C 190.464,359.459 197.797,356.792 205.5,355.5C 208.113,354.565 210.779,354.398 213.5,355C 242.429,366.416 272.429,370.083 303.5,366C 305.723,365.434 307.723,364.6 309.5,363.5C 324.334,360.334 338.334,355 351.5,347.5C 355.064,346.577 358.731,346.244 362.5,346.5 Z"/></g>
<g><path style="opacity:1" fill="#dbffd9" d="M 235.5,357.5 C 240.459,357.065 245.126,357.899 249.5,360C 265.823,361.722 282.156,361.889 298.5,360.5C 287.109,362.991 275.442,363.991 263.5,363.5C 253.971,362.474 244.638,360.474 235.5,357.5 Z"/></g>
<g><path style="opacity:0.965" fill="#639632" d="M 127.5,352.5 C 126.632,356.808 126.466,361.141 127,365.5C 129.058,369.216 131.558,372.55 134.5,375.5C 125.999,371.478 123.165,364.811 126,355.5C 126.232,354.263 126.732,353.263 127.5,352.5 Z"/></g>
</svg>
