<svg xmlns="http://www.w3.org/2000/svg" xmlns:xlink="http://www.w3.org/1999/xlink" width="500" zoomAndPan="magnify" viewBox="0 0 375 374.999991" height="500" preserveAspectRatio="xMidYMid meet" version="1.0"><defs><filter x="0%" y="0%" width="100%" height="100%" id="a91bf9a1ca"><feColorMatrix values="0 0 0 0 1 0 0 0 0 1 0 0 0 0 1 0 0 0 1 0" color-interpolation-filters="sRGB"/></filter><g/><mask id="d0b7e17d18"><g filter="url(#a91bf9a1ca)"><rect x="-37.5" width="450" fill="#000000" y="-37.499999" height="449.999989" fill-opacity="0.5"/></g></mask><clipPath id="bee2b675b3"><path d="M 23 23 L 196 23 L 196 195 L 23 195 Z M 23 23 " clip-rule="nonzero"/></clipPath><clipPath id="899276b128"><path d="M 18.253906 85.671875 L 132.976562 17.390625 L 201.257812 132.113281 L 86.539062 200.394531 Z M 18.253906 85.671875 " clip-rule="nonzero"/></clipPath><clipPath id="dca91977ce"><path d="M 18.253906 85.671875 L 132.652344 17.582031 L 200.746094 131.980469 L 86.34375 200.074219 Z M 18.253906 85.671875 " clip-rule="nonzero"/></clipPath><clipPath id="7532d5cbd5"><path d="M 31.144531 78 L 119.765625 25.253906 C 126.882812 21.019531 136.089844 23.355469 140.324219 30.472656 L 193.074219 119.09375 C 197.308594 126.210938 194.972656 135.417969 187.855469 139.652344 L 99.234375 192.402344 C 92.117188 196.636719 82.910156 194.300781 78.671875 187.183594 L 25.925781 98.5625 C 21.691406 91.445312 24.027344 82.238281 31.144531 78 Z M 31.144531 78 " clip-rule="nonzero"/></clipPath><clipPath id="a9c4fb810e"><rect x="0" width="218" y="0" height="218"/></clipPath><mask id="dac6ff56d4"><g filter="url(#a91bf9a1ca)"><rect x="-37.5" width="450" fill="#000000" y="-37.499999" height="449.999989" fill-opacity="0.5"/></g></mask><clipPath id="35fddaa748"><path d="M 21 21 L 184 21 L 184 185 L 21 185 Z M 21 21 " clip-rule="nonzero"/></clipPath><clipPath id="dabe2a3760"><path d="M 63.695312 17.0625 L 188.617188 64.15625 L 141.523438 189.078125 L 16.601562 141.984375 Z M 63.695312 17.0625 " clip-rule="nonzero"/></clipPath><clipPath id="ba31cd79b9"><path d="M 63.695312 17.0625 L 188.265625 64.023438 L 141.304688 188.59375 L 16.734375 141.632812 Z M 63.695312 17.0625 " clip-rule="nonzero"/></clipPath><clipPath id="51f5b57aa9"><path d="M 77.730469 22.351562 L 174.230469 58.730469 C 181.984375 61.65625 185.898438 70.308594 182.976562 78.058594 L 146.59375 174.558594 C 143.671875 182.308594 135.019531 186.226562 127.269531 183.304688 L 30.769531 146.921875 C 23.015625 144 19.101562 135.347656 22.023438 127.597656 L 58.40625 31.097656 C 61.328125 23.34375 69.980469 19.429688 77.730469 22.351562 Z M 77.730469 22.351562 " clip-rule="nonzero"/></clipPath><clipPath id="8c9149817d"><rect x="0" width="205" y="0" height="205"/></clipPath><mask id="bbb97cfdc1"><g filter="url(#a91bf9a1ca)"><rect x="-37.5" width="450" fill="#000000" y="-37.499999" height="449.999989" fill-opacity="0.85"/></g></mask><clipPath id="a5df43fbdf"><rect x="0" width="209" y="0" height="209"/></clipPath></defs><rect x="-37.5" width="450" fill="#ffffff" y="-37.499999" height="449.999989" fill-opacity="1"/><rect x="-37.5" width="450" fill="#ffffff" y="-37.499999" height="449.999989" fill-opacity="1"/><g mask="url(#d0b7e17d18)"><g transform="matrix(1, 0, 0, 1, 78, 61)"><g clip-path="url(#a9c4fb810e)"><g clip-path="url(#bee2b675b3)"><g clip-path="url(#899276b128)"><g clip-path="url(#dca91977ce)"><g clip-path="url(#7532d5cbd5)"><path stroke-linecap="butt" transform="matrix(0.825332, -0.491239, 0.491239, 0.825332, 18.255247, 85.673506)" fill="none" stroke-linejoin="miter" d="M 15.61803 -0.00159227 L 122.993556 -0.000382596 C 131.616023 0.00121773 138.609441 6.994013 138.60784 15.61648 L 138.610126 122.994085 C 138.608525 131.616552 131.61573 138.609971 122.993263 138.60837 L 15.615658 138.610656 C 6.993191 138.609055 -0.000227655 131.61626 -0.00212217 122.991713 L -0.000912487 15.616187 C 0.000687843 6.99372 6.993483 0.000302237 15.61803 -0.00159227 Z M 15.61803 -0.00159227 " stroke="#000000" stroke-width="6.246984" stroke-opacity="1" stroke-miterlimit="4"/></g></g></g></g></g></g></g><g mask="url(#dac6ff56d4)"><g transform="matrix(1, 0, 0, 1, 85, 67)"><g clip-path="url(#8c9149817d)"><g clip-path="url(#35fddaa748)"><g clip-path="url(#dabe2a3760)"><g clip-path="url(#ba31cd79b9)"><g clip-path="url(#51f5b57aa9)"><path stroke-linecap="butt" transform="matrix(0.898718, 0.338814, -0.338814, 0.898718, 63.695844, 17.06091)" fill="none" stroke-linejoin="miter" d="M 15.616133 -0.000346687 L 122.990782 -0.00159707 C 131.619468 0.00091988 138.610521 6.99274 138.610375 15.616185 L 138.60782 122.992268 C 138.607674 131.615714 131.617289 138.610573 122.993843 138.610427 L 15.61776 138.607872 C 6.990509 138.60916 -0.000544474 131.617341 -0.000398418 122.993895 L 0.00215679 15.617812 C 0.000868149 6.990561 6.992688 -0.000492743 15.616133 -0.000346687 Z M 15.616133 -0.000346687 " stroke="#000000" stroke-width="6.246984" stroke-opacity="1" stroke-miterlimit="4"/></g></g></g></g></g></g></g><g mask="url(#bbb97cfdc1)"><g transform="matrix(1, 0, 0, 1, 83, 64)"><g clip-path="url(#a5df43fbdf)"><path fill="#0092dc" d="M 33.476562 26.121094 C 0.941406 58.65625 43.945312 128.789062 105.933594 116.339844 C 75.027344 110.851562 74.175781 83.722656 83.347656 57.472656 C 87.058594 46.867188 84.671875 34.597656 76.195312 26.121094 C 64.398438 14.328125 45.269531 14.328125 33.476562 26.121094 " fill-opacity="1" fill-rule="evenodd"/><path fill="#f6d500" d="M 175.863281 182.621094 C 208.398438 150.085938 165.394531 79.953125 103.40625 92.402344 C 134.3125 97.886719 135.164062 125.015625 125.992188 151.265625 C 122.285156 161.875 124.671875 174.144531 133.144531 182.621094 C 144.941406 194.414062 164.070312 194.414062 175.863281 182.621094 " fill-opacity="1" fill-rule="evenodd"/><path fill="#dc137b" d="M 182.921875 33.175781 C 150.386719 0.640625 80.253906 43.644531 92.703125 105.632812 C 98.191406 74.726562 125.316406 73.875 151.570312 83.046875 C 162.175781 86.757812 174.445312 84.371094 182.921875 75.894531 C 194.714844 64.097656 194.714844 44.96875 182.921875 33.175781 " fill-opacity="1" fill-rule="evenodd"/><path fill="#000000" d="M 26.421875 175.5625 C 58.957031 208.097656 129.089844 165.09375 116.640625 103.105469 C 111.152344 134.011719 84.027344 134.867188 57.777344 125.695312 C 47.167969 121.984375 34.902344 124.367188 26.425781 132.847656 C 14.628906 144.640625 14.628906 163.769531 26.421875 175.5625 " fill-opacity="1" fill-rule="evenodd"/></g></g></g><g fill="#0092dc" fill-opacity="1"><g transform="translate(33.048974, 299.881217)"><g><path d="M 5.921875 0 L 1.9375 0 L 1.9375 -29.15625 L 5.921875 -29.15625 C 7.765625 -29.15625 9.53125 -28.878906 11.21875 -28.328125 C 12.914062 -27.773438 14.425781 -26.914062 15.75 -25.75 C 17.082031 -24.582031 18.132812 -23.078125 18.90625 -21.234375 C 19.6875 -19.390625 20.078125 -17.171875 20.078125 -14.578125 C 20.078125 -11.984375 19.6875 -9.765625 18.90625 -7.921875 C 18.132812 -6.078125 17.082031 -4.570312 15.75 -3.40625 C 14.425781 -2.238281 12.914062 -1.378906 11.21875 -0.828125 C 9.53125 -0.273438 7.765625 0 5.921875 0 Z M 5.1875 -26.390625 L 5.1875 -2.75 C 7.519531 -2.75 9.445312 -3.078125 10.96875 -3.734375 C 12.488281 -4.398438 13.675781 -5.289062 14.53125 -6.40625 C 15.382812 -7.53125 15.984375 -8.796875 16.328125 -10.203125 C 16.671875 -11.609375 16.84375 -13.066406 16.84375 -14.578125 C 16.84375 -16.085938 16.65625 -17.539062 16.28125 -18.9375 C 15.914062 -20.34375 15.289062 -21.609375 14.40625 -22.734375 C 13.519531 -23.859375 12.328125 -24.75 10.828125 -25.40625 C 9.328125 -26.0625 7.445312 -26.390625 5.1875 -26.390625 Z M 5.1875 -26.390625 "/></g></g></g><g fill="#0092dc" fill-opacity="1"><g transform="translate(55.077971, 299.881217)"><g><path d="M 1.9375 -14.40625 C 1.9375 -16.4375 2.191406 -18.363281 2.703125 -20.1875 C 3.210938 -22.019531 4.015625 -23.640625 5.109375 -25.046875 C 6.210938 -26.460938 7.664062 -27.582031 9.46875 -28.40625 C 11.269531 -29.226562 13.46875 -29.640625 16.0625 -29.640625 C 16.90625 -29.640625 17.640625 -29.597656 18.265625 -29.515625 C 18.890625 -29.441406 19.59375 -29.320312 20.375 -29.15625 L 20.375 -26.171875 C 19.570312 -26.347656 18.859375 -26.484375 18.234375 -26.578125 C 17.609375 -26.671875 16.851562 -26.71875 15.96875 -26.71875 C 14.09375 -26.71875 12.492188 -26.441406 11.171875 -25.890625 C 9.859375 -25.347656 8.789062 -24.582031 7.96875 -23.59375 C 7.144531 -22.613281 6.515625 -21.488281 6.078125 -20.21875 C 5.648438 -18.957031 5.382812 -17.613281 5.28125 -16.1875 L 17.6875 -16.1875 L 17.6875 -13.28125 L 5.25 -13.28125 C 5.332031 -11.144531 5.597656 -9.203125 6.046875 -7.453125 C 6.503906 -5.703125 7.003906 -4.191406 7.546875 -2.921875 L 20.34375 -2.921875 L 20.34375 0 L 5.4375 0 C 4.851562 -1.226562 4.289062 -2.640625 3.75 -4.234375 C 3.21875 -5.835938 2.78125 -7.515625 2.4375 -9.265625 C 2.101562 -11.015625 1.9375 -12.726562 1.9375 -14.40625 Z M 1.9375 -14.40625 "/></g></g></g><g fill="#0092dc" fill-opacity="1"><g transform="translate(76.426664, 299.881217)"><g><path d="M 1.625 -6.640625 L 4.109375 -8.421875 C 4.546875 -7.273438 5.175781 -6.25 6 -5.34375 C 6.832031 -4.4375 7.796875 -3.726562 8.890625 -3.21875 C 9.984375 -2.71875 11.132812 -2.46875 12.34375 -2.46875 C 13.269531 -2.46875 14.140625 -2.628906 14.953125 -2.953125 C 15.773438 -3.273438 16.445312 -3.753906 16.96875 -4.390625 C 17.488281 -5.023438 17.75 -5.785156 17.75 -6.671875 C 17.75 -7.679688 17.46875 -8.570312 16.90625 -9.34375 C 16.34375 -10.113281 15.597656 -10.804688 14.671875 -11.421875 C 13.742188 -12.035156 12.726562 -12.625 11.625 -13.1875 C 10.519531 -13.75 9.410156 -14.332031 8.296875 -14.9375 C 7.191406 -15.539062 6.175781 -16.203125 5.25 -16.921875 C 4.320312 -17.648438 3.578125 -18.476562 3.015625 -19.40625 C 2.453125 -20.332031 2.171875 -21.421875 2.171875 -22.671875 C 2.171875 -23.898438 2.410156 -24.957031 2.890625 -25.84375 C 3.378906 -26.726562 4.046875 -27.453125 4.890625 -28.015625 C 5.734375 -28.578125 6.675781 -28.988281 7.71875 -29.25 C 8.
769531 -29.507812 9.859375 -29.640625 10.984375 -29.640625 C 12.492188 -29.617188 13.976562 -29.429688 15.4375 -29.078125 C 16.894531 -28.734375 18.117188 -28.316406 19.109375 -27.828125 L 19.109375 -24.546875 C 18.628906 -24.847656 17.953125 -25.171875 17.078125 -25.515625 C 16.210938 -25.867188 15.25 -26.164062 14.1875 -26.40625 C 13.125 -26.65625 12.066406 -26.78125 11.015625 -26.78125 C 10.015625 -26.78125 9.085938 -26.65625 8.234375 -26.40625 C 7.390625 -26.164062 6.710938 -25.742188 6.203125 -25.140625 C 5.691406 -24.535156 5.4375 -23.703125 5.4375 -22.640625 C 5.4375 -21.835938 5.71875 -21.113281 6.28125 -20.46875 C 6.84375 -19.820312 7.585938 -19.21875 8.515625 -18.65625 C 9.441406 -18.09375 10.460938 -17.53125 11.578125 -16.96875 C 12.691406 -16.40625 13.796875 -15.804688 14.890625 -15.171875 C 15.992188 -14.535156 17.007812 -13.816406 17.9375 -13.015625 C 18.875 -12.222656 19.617188 -11.3125 20.171875 -10.28125 C 20.734375 -9.257812 21.015625 -8.078125 21.015625 -6.734375 C 21.015625 -5.359375 20.644531 -4.113281 19.90625 -3 C 19.175781 -1.882812 18.160156 -1.015625 16.859375 -0.390625 C 15.554688 0.234375 14.050781 0.523438 12.34375 0.484375 C 10.875 0.441406 9.425781 0.160156 8 -0.359375 C 6.570312 -0.878906 5.296875 -1.65625 4.171875 -2.6875 C 3.054688 -3.726562 2.207031 -5.046875 1.625 -6.640625 Z M 1.625 -6.640625 "/></g></g></g><g fill="#0092dc" fill-opacity="1"><g transform="translate(99.071177, 299.881217)"><g><path d="M 1.9375 0 L 1.9375 -29.15625 L 5.21875 -29.15625 L 5.21875 0 Z M 1.9375 0 "/></g></g></g><g fill="#0092dc" fill-opacity="1"><g transform="translate(106.230607, 299.881217)"><g><path d="M 16.265625 0.484375 C 13.410156 0.484375 10.90625 -0.117188 8.75 -1.328125 C 6.601562 -2.535156 4.929688 -4.257812 3.734375 -6.5 C 2.535156 -8.75 1.9375 -11.441406 1.9375 -14.578125 C 1.9375 -17.703125 2.535156 -20.390625 3.734375 -22.640625 C 4.929688 -24.890625 6.601562 -26.617188 8.75 -27.828125 C 10.90625 -29.035156 13.410156 -29.640625 16.265625 -29.640625 C 17.015625 -29.640625 17.769531 -29.597656 18.53125 -29.515625 C 19.300781 -29.441406 20.015625 -29.320312 20.671875 -29.15625 L 20.671875 -26.234375 C 20.015625 -26.410156 19.300781 -26.535156 18.53125 -26.609375 C 17.769531 -26.679688 17.015625 -26.71875 16.265625 -26.71875 C 14.234375 -26.71875 12.378906 -26.296875 10.703125 -25.453125 C 9.023438 -24.617188 7.6875 -23.304688 6.6875 -21.515625 C 5.6875 -19.734375 5.1875 -17.421875 5.1875 -14.578125 C 5.1875 -11.742188 5.6875 -9.429688 6.6875 -7.640625 C 7.6875 -5.847656 9.023438 -4.53125 10.703125 -3.6875 C 12.378906 -2.84375 14.234375 -2.421875 16.265625 -2.421875 C 16.453125 -2.421875 16.644531 -2.421875 16.84375 -2.421875 C 17.039062 -2.421875 17.234375 -2.4375 17.421875 -2.46875 L 17.421875 -13.28125 L 10.953125 -13.28125 L 10.953125 -16.1875 L 20.671875 -16.1875 L 20.671875 0 C 20.015625 0.15625 19.300781 0.273438 18.53125 0.359375 C 17.769531 0.441406 17.015625 0.484375 16.265625 0.484375 Z M 16.265625 0.484375 "/></g></g></g><g fill="#0092dc" fill-opacity="1"><g transform="translate(128.842727, 299.881217)"><g><path d="M 5.1875 -0.421875 L 5.1875 -0.78125 C 5.1875 -0.71875 5.1875 -0.648438 5.1875 -0.578125 C 5.1875 -0.515625 5.1875 -0.460938 5.1875 -0.421875 Z M 21.046875 0 L 17.8125 0 L 17.8125 -25.078125 C 16.382812 -24.679688 15.050781 -23.9375 13.8125 -22.84375 C 12.570312 -21.757812 11.441406 -20.425781 10.421875 -18.84375 C 9.410156 -17.269531 8.523438 -15.5625 7.765625 -13.71875 C 7.015625 -11.875 6.414062 -9.992188 5.96875 -8.078125 C 5.53125 -6.171875 5.269531 -4.34375 5.1875 -2.59375 L 5.1875 0 L 1.9375 0 L 1.9375 -29.15625 L 5.1875 -29.15625 L 5.1875 -14.734375 C 5.570312 -16.117188 6.132812 -17.492188 6.875 -18.859375 C 7.625 -20.234375 8.515625 -21.539062 9.546875 -22.78125 C 10.585938 -24.03125 11.726562 -25.128906 12.96875 -26.078125 C 14.207031 -27.023438 15.515625 -27.773438 16.890625 -28.328125 C 18.265625 -28.878906 19.648438 -29.15625 21.046875 -29.15625 Z M 21.046875 0 "/></g></g></g><g fill="#0092dc" fill-opacity="1"><g transform="translate(151.843595, 299.881217)"><g/></g></g><g fill="#0092dc" fill-opacity="1"><g transform="translate(163.182053, 299.881217)"><g><path d="M 0.96875 0 L 9.0625 -29.15625 L 14.703125 -29.15625 L 22.796875 0 L 19.4375 0 L 17.203125 -8.09375 L 6.578125 -8.09375 L 4.34375 0 Z M 11.890625 -27.171875 L 6.578125 -8.09375 L 7.390625 -11.015625 L 16.390625 -11.015625 Z M 11.890625 -27.171875 "/></g></g></g><g fill="#0092dc" fill-opacity="1"><g transform="translate(186.960418, 299.881217)"><g><path d="M 5.1875 -0.421875 L 5.1875 -0.78125 C 5.1875 -0.71875 5.1875 -0.648438 5.1875 -0.578125 C 5.1875 -0.515625 5.1875 -0.460938 5.1875 -0.421875 Z M 21.046875 0 L 17.8125 0 L 17.8125 -25.078125 C 16.382812 -24.679688 15.050781 -23.9375 13.8125 -22.84375 C 12.570312 -21.757812 11.441406 -20.425781 10.421875 -18.84375 C 9.410156 -17.269531 8.523438 -15.5625 7.765625 -13.71875 C 7.015625 -11.875 6.414062 -9.992188 5.96875 -8.078125 C 5.53125 -6.171875 5.269531 -4.34375 5.1875 -2.59375 L 5.1875 0 L 1.9375 0 L 1.9375 -29.15625 L 5.1875 -29.15625 L 5.1875 -14.734375 C 5.570312 -16.117188 6.132812 -17.492188 6.875 -18.859375 C 7.625 -20.234375 8.515625 -21.539062 9.546875 -22.78125 C 10.585938 -24.03125 11.726562 -25.128906 12.96875 -26.078125 C 14.207031 -27.023438 15.515625 -27.773438 16.890625 -28.328125 C 18.265625 -28.878906 19.648438 -29.15625 21.046875 -29.15625 Z M 21.046875 0 "/></g></g></g><g fill="#0092dc" fill-opacity="1"><g transform="translate(209.961296, 299.881217)"><g><path d="M 5.921875 0 L 1.9375 0 L 1.9375 -29.15625 L 5.921875 -29.15625 C 7.765625 -29.15625 9.53125 -28.878906 11.21875 -28.328125 C 12.914062 -27.773438 14.425781 -26.914062 15.75 -25.75 C 17.082031 -24.582031 18.132812 -23.078125 18.90625 -21.234375 C 19.6875 -19.390625 20.078125 -17.171875 20.078125 -14.578125 C 20.078125 -11.984375 19.6875 -9.765625 18.90625 -7.921875 C 18.132812 -6.078125 17.082031 -4.570312 15.75 -3.40625 C 14.425781 -2.238281 12.914062 -1.378906 11.21875 -0.828125 C 9.53125 -0.273438 7.765625 0 5.921875 0 Z M 5.1875 -26.390625 L 5.1875 -2.75 C 7.519531 -2.75 9.445312 -3.078125 10.96875 -3.734375 C 12.488281 -4.398438 13.675781 -5.289062 14.53125 -6.40625 C 15.382812 -7.53125 15.984375 -8.796875 16.328125 -10.203125 C 16.671875 -11.609375 16.84375 -13.066406 16.84375 -14.578125 C 16.84375 -16.085938 16.65625 -17.539062 16.28125 -18.9375 C 15.914062 -20.34375 15.289062 -21.609375 14.40625 -22.734375 C 13.519531 -23.859375 12.328125 -24.75 10.828125 -25.40625 C 9.328125 -26.0625 7.445312 -26.390625 5.1875 -26.390625 Z M 5.1875 -26.390625 "/></g></g></g><g fill="#0092dc" fill-opacity="1"><g transform="translate(231.990273, 299.881217)"><g/></g></g><g fill="#0092dc" fill-opacity="1"><g transform="translate(243.328742, 299.881217)"><g><path d="M 1.9375 0 L 1.9375 -20.53125 C 1.9375 -22.257812 2.320312 -23.84375 3.09375 -25.28125 C 3.863281 -26.71875 4.992188 -27.867188 6.484375 -28.734375 C 7.972656 -29.597656 9.816406 -30.03125 12.015625 -30.03125 C 13.804688 -30.03125 15.332031 -29.722656 16.59375 -29.109375 C 17.863281 -28.492188 18.890625 -27.671875 19.671875 -26.640625 C 20.460938 -25.617188 21.046875 -24.472656 21.421875 -23.203125 C 21.804688 -21.941406 22 -20.675781 22 -19.40625 C 22 -17.65625 21.71875 -16.128906 21.15625 -14.828125 C 20.59375 -13.535156 19.816406 -12.460938 18.828125 -11.609375 C 17.847656 -10.753906 16.726562 -10.125 15.46875 -9.71875 C 14.207031 -9.3125 12.875 -9.109375 11.46875 -9.109375 C 10.40625 -9.109375 9.316406 -9.265625 8.203125 -9.578125 C 7.097656 -9.890625 6.101562 -10.367188 5.21875 -11.015625 L 5.21875 0 Z M 5.21875 -19.828125 L 5.21875 -16.09375 C 5.382812 -15.28125 5.796875 -14.566406 6.453125 -13.953125 C 7.117188 -13.347656 7.898438 -12.878906 8.796875 -12.546875 C 9.691406 -12.210938 10.59375 -12.046875 11.5 -12.046875 C 13.070312 -12.046875 14.398438 -12.375 15.484375 -13.03125 C 16.566406 -13.695312 17.378906 -14.585938 17.921875 -15.703125 C 18.472656 -16.828125 18.75 -18.070312 18.75 -19.4375 C 18.75 -20.34375 18.628906 -21.25 18.390625 -22.15625 C 18.160156 -23.0625 17.78125 -23.882812 17.25 -24.625 C 16.71875 -25.375 16.023438 -25.972656 15.171875 -26.421875 C 14.316406 -26.878906 13.273438 -27.109375 12.046875 -27.109375 C 9.910156 -27.109375 8.238281 -26.519531 7.03125 -25.34375 C 5.820312 -24.164062 5.21875 -22.328125 5.21875 -19.828125 Z M 5.21875 -19.828125 "/></g></g></g><g fill="#0092dc" fill-opacity="1"><g transform="translate(266.945116, 299.881217)"><g><path d="M 1.9375 -20.140625 C 1.9375 -21.867188 2.3125 -23.453125 3.0625 -24.890625 C 3.820312 -26.328125 4.953125 -27.476562 6.453125 -28.34375 C 7.960938 -29.207031 9.816406 -29.640625 12.015625 -29.640625 C 13.742188 -29.640625 15.195312 -29.398438 16.375 -28.921875 C 17.550781 -28.453125 18.503906 -27.828125 19.234375 -27.046875 C 19.972656 -26.265625 20.503906 -25.398438 20.828125 -24.453125 C 21.148438 -23.503906 21.3125 -22.546875 21.3125 -21.578125 C 21.3125 -20.128906 21.0625 -18.921875 20.5625 -17.953125 C 20.070312 -16.992188 19.4375 -16.234375 18.65625 -15.671875 C 17.875 -15.109375 17.070312 -14.691406 16.25 -14.421875 C 15.4375 -14.160156 14.707031 -13.972656 14.0625 -13.859375 C 15.613281 -13.617188 16.890625 -13.078125 17.890625 -12.234375 C 18.898438 -11.398438 19.65625 -10.347656 20.15625 -9.078125 C 20.664062 -7.816406 20.957031 -6.410156 21.03125 -4.859375 C 21.113281 -3.304688 20.992188 -1.6875 20.671875 0 L 17.453125 0 C 17.890625 -2.476562 17.960938 -4.570312 17.671875 -6.28125 C 17.378906 -7.988281 16.835938 -9.351562 16.046875 -10.375 C 15.265625 -11.40625 14.300781 -12.144531 13.15625 -12.59375 C 12.007812 -13.050781 10.785156 -13.28125 9.484375 -13.28125 L 5.1875 -13.28125 L 5.1875 0 L 1.9375 0 Z M 5.1875 -16.1875 L 11.171875 -16.1875 C 11.890625 -16.1875 12.644531 -16.269531 13.4375 -16.4375 C 14.238281 -16.601562 14.988281 -16.882812 15.6875 -17.28125 C 16.394531 -17.675781 16.96875 -18.222656 17.40625 -18.
921875 C 17.851562 -19.628906 18.078125 -20.535156 18.078125 -21.640625 C 18.078125 -22.484375 17.863281 -23.289062 17.4375 -24.0625 C 17.019531 -24.84375 16.367188 -25.476562 15.484375 -25.96875 C 14.597656 -26.46875 13.453125 -26.71875 12.046875 -26.71875 C 9.910156 -26.71875 8.234375 -26.128906 7.015625 -24.953125 C 5.796875 -23.773438 5.1875 -21.9375 5.1875 -19.4375 Z M 5.1875 -16.1875 "/></g></g></g><g fill="#0092dc" fill-opacity="1"><g transform="translate(289.881206, 299.881217)"><g><path d="M 1.9375 0 L 1.9375 -29.15625 L 5.21875 -29.15625 L 5.21875 0 Z M 1.9375 0 "/></g></g></g><g fill="#0092dc" fill-opacity="1"><g transform="translate(297.040635, 299.881217)"><g><path d="M 5.1875 -0.421875 L 5.1875 -0.78125 C 5.1875 -0.71875 5.1875 -0.648438 5.1875 -0.578125 C 5.1875 -0.515625 5.1875 -0.460938 5.1875 -0.421875 Z M 21.046875 0 L 17.8125 0 L 17.8125 -25.078125 C 16.382812 -24.679688 15.050781 -23.9375 13.8125 -22.84375 C 12.570312 -21.757812 11.441406 -20.425781 10.421875 -18.84375 C 9.410156 -17.269531 8.523438 -15.5625 7.765625 -13.71875 C 7.015625 -11.875 6.414062 -9.992188 5.96875 -8.078125 C 5.53125 -6.171875 5.269531 -4.34375 5.1875 -2.59375 L 5.1875 0 L 1.9375 0 L 1.9375 -29.15625 L 5.1875 -29.15625 L 5.1875 -14.734375 C 5.570312 -16.117188 6.132812 -17.492188 6.875 -18.859375 C 7.625 -20.234375 8.515625 -21.539062 9.546875 -22.78125 C 10.585938 -24.03125 11.726562 -25.128906 12.96875 -26.078125 C 14.207031 -27.023438 15.515625 -27.773438 16.890625 -28.328125 C 18.265625 -28.878906 19.648438 -29.15625 21.046875 -29.15625 Z M 21.046875 0 "/></g></g></g><g fill="#0092dc" fill-opacity="1"><g transform="translate(320.041493, 299.881217)"><g><path d="M 0.96875 -26.390625 L 0.96875 -29.15625 L 20.921875 -29.15625 L 20.921875 -26.390625 L 12.53125 -26.390625 L 12.53125 0 L 9.296875 0 L 9.296875 -26.390625 Z M 0.96875 -26.390625 "/></g></g></g></svg>