<svg xmlns="http://www.w3.org/2000/svg" xmlns:xlink="http://www.w3.org/1999/xlink" width="500" zoomAndPan="magnify" viewBox="0 0 375 374.999991" height="500" preserveAspectRatio="xMidYMid meet" version="1.0"><defs><filter x="0%" y="0%" width="100%" height="100%" id="f01796223c"><feColorMatrix values="0 0 0 0 1 0 0 0 0 1 0 0 0 0 1 0 0 0 1 0" color-interpolation-filters="sRGB"/></filter><g/><linearGradient x1="0" gradientTransform="matrix(0.75, 0, 0, 0.75, 0.0000045, 0)" y1="250" x2="499.999979" gradientUnits="userSpaceOnUse" y2="250" id="3ab27cdffb"><stop stop-opacity="1" stop-color="rgb(0%, 0%, 0%)" offset="0"/><stop stop-opacity="1" stop-color="rgb(0.0808716%, 0.0778198%, 0.312805%)" offset="0.00390625"/><stop stop-opacity="1" stop-color="rgb(0.161743%, 0.15564%, 0.627136%)" offset="0.0078125"/><stop stop-opacity="1" stop-color="rgb(0.242615%, 0.233459%, 0.941467%)" offset="0.0117187"/><stop stop-opacity="1" stop-color="rgb(0.323486%, 0.311279%, 1.255798%)" offset="0.015625"/><stop stop-opacity="1" stop-color="rgb(0.404358%, 0.389099%, 1.568604%)" offset="0.0195312"/><stop stop-opacity="1" stop-color="rgb(0.486755%, 0.468445%, 1.882935%)" offset="0.0234375"/><stop stop-opacity="1" stop-color="rgb(0.567627%, 0.546265%, 2.197266%)" offset="0.0273438"/><stop stop-opacity="1" stop-color="rgb(0.648499%, 0.624084%, 2.511597%)" offset="0.03125"/><stop stop-opacity="1" stop-color="rgb(0.72937%, 0.701904%, 2.825928%)" offset="0.0351562"/><stop stop-opacity="1" stop-color="rgb(0.811768%, 0.779724%, 3.140259%)" offset="0.0390625"/><stop stop-opacity="1" stop-color="rgb(0.892639%, 0.857544%, 3.453064%)" offset="0.0429687"/><stop stop-opacity="1" stop-color="rgb(0.973511%, 0.93689%, 3.767395%)" offset="0.046875"/><stop stop-opacity="1" stop-color="rgb(1.054382%, 1.014709%, 4.081726%)" offset="0.0507812"/><stop stop-opacity="1" stop-color="rgb(1.13678%, 1.092529%, 4.396057%)" offset="0.0546875"/><stop stop-opacity="1" stop-color="rgb(1.217651%, 1.170349%, 4.710388%)" offset="0.0585938"/><stop stop-opacity="1" stop-color="rgb(1.298523%, 1.249695%, 5.024719%)" offset="0.0625"/><stop stop-opacity="1" stop-color="rgb(1.379395%, 1.327515%, 5.337524%)" offset="0.0664062"/><stop stop-opacity="1" stop-color="rgb(1.461792%, 1.405334%, 5.651855%)" offset="0.0703125"/><stop stop-opacity="1" stop-color="rgb(1.542664%, 1.483154%, 5.966187%)" offset="0.0742187"/><stop stop-opacity="1" stop-color="rgb(1.623535%, 1.560974%, 6.280518%)" offset="0.078125"/><stop stop-opacity="1" stop-color="rgb(1.704407%, 1.638794%, 6.594849%)" offset="0.0820312"/><stop stop-opacity="1" stop-color="rgb(1.786804%, 1.71814%, 6.90918%)" offset="0.0859375"/><stop stop-opacity="1" stop-color="rgb(1.867676%, 1.795959%, 7.221985%)" offset="0.0898437"/><stop stop-opacity="1" stop-color="rgb(1.948547%, 1.873779%, 7.536316%)" offset="0.09375"/><stop stop-opacity="1" stop-color="rgb(2.029419%, 1.951599%, 7.850647%)" offset="0.0976562"/><stop stop-opacity="1" stop-color="rgb(2.111816%, 2.030945%, 8.164978%)" offset="0.101562"/><stop stop-opacity="1" stop-color="rgb(2.192688%, 2.108765%, 8.479309%)" offset="0.105469"/><stop stop-opacity="1" stop-color="rgb(2.27356%, 2.186584%, 8.79364%)" offset="0.109375"/><stop stop-opacity="1" stop-color="rgb(2.354431%, 2.264404%, 9.106445%)" offset="0.113281"/><stop stop-opacity="1" stop-color="rgb(2.436829%, 2.342224%, 9.420776%)" offset="0.117188"/><stop stop-opacity="1" stop-color="rgb(2.5177%, 2.420044%, 9.735107%)" offset="0.121094"/><stop stop-opacity="1" stop-color="rgb(2.598572%, 2.49939%, 10.049438%)" offset="0.125"/><stop stop-opacity="1" stop-color="rgb(2.679443%, 2.577209%, 10.36377%)" offset="0.128906"/><stop stop-opacity="1" stop-color="rgb(2.761841%, 2.655029%, 10.678101%)" offset="0.132812"/><stop stop-opacity="1" stop-color="rgb(2.842712%, 2.732849%, 10.990906%)" offset="0.136719"/><stop stop-opacity="1" stop-color="rgb(2.923584%, 2.812195%, 11.305237%)" offset="0.140625"/><stop stop-opacity="1" stop-color="rgb(3.004456%, 2.890015%, 11.619568%)" offset="0.144531"/><stop stop-opacity="1" stop-color="rgb(3.086853%, 2.967834%, 11.933899%)" offset="0.148437"/><stop stop-opacity="1" stop-color="rgb(3.167725%, 3.045654%, 12.246704%)" offset="0.152344"/><stop stop-opacity="1" stop-color="rgb(3.248596%, 3.123474%, 12.561035%)" offset="0.15625"/><stop stop-opacity="1" stop-color="rgb(3.329468%, 3.201294%, 12.875366%)" offset="0.160156"/><stop stop-opacity="1" stop-color="rgb(3.411865%, 3.28064%, 13.189697%)" offset="0.164062"/><stop stop-opacity="1" stop-color="rgb(3.492737%, 3.358459%, 13.504028%)" offset="0.167969"/><stop stop-opacity="1" stop-color="rgb(3.573608%, 3.436279%, 13.818359%)" offset="0.171875"/><stop stop-opacity="1" stop-color="rgb(3.65448%, 3.514099%, 14.131165%)" offset="0.175781"/><stop stop-opacity="1" stop-color="rgb(3.736877%, 3.593445%, 14.445496%)" offset="0.179687"/><stop stop-opacity="1" stop-color="rgb(3.817749%, 3.671265%, 14.759827%)" offset="0.183594"/><stop stop-opacity="1" stop-color="rgb(3.898621%, 3.749084%, 15.074158%)" offset="0.1875"/><stop stop-opacity="1" stop-color="rgb(3.979492%, 3.826904%, 15.388489%)" offset="0.191406"/><stop stop-opacity="1" stop-color="rgb(4.06189%, 3.904724%, 15.70282%)" offset="0.195312"/><stop stop-opacity="1" stop-color="rgb(4.142761%, 3.982544%, 16.015625%)" offset="0.199219"/><stop stop-opacity="1" stop-color="rgb(4.223633%, 4.06189%, 16.329956%)" offset="0.203125"/><stop stop-opacity="1" stop-color="rgb(4.304504%, 4.139709%, 16.644287%)" offset="0.207031"/><stop stop-opacity="1" stop-color="rgb(4.386902%, 4.217529%, 16.958618%)" offset="0.210938"/><stop stop-opacity="1" stop-color="rgb(4.467773%, 4.295349%, 17.272949%)" offset="0.214844"/><stop stop-opacity="1" stop-color="rgb(4.548645%, 4.374695%, 17.58728%)" offset="0.21875"/><stop stop-opacity="1" stop-color="rgb(4.629517%, 4.452515%, 17.900085%)" offset="0.222656"/><stop stop-opacity="1" stop-color="rgb(4.711914%, 4.530334%, 18.214417%)" offset="0.226562"/><stop stop-opacity="1" stop-color="rgb(4.792786%, 4.608154%, 18.528748%)" offset="0.230469"/><stop stop-opacity="1" stop-color="rgb(4.873657%, 4.685974%, 18.843079%)" offset="0.234375"/><stop stop-opacity="1" stop-color="rgb(4.954529%, 4.763794%, 19.15741%)" offset="0.238281"/><stop stop-opacity="1" stop-color="rgb(5.036926%, 4.84314%, 19.471741%)" offset="0.242188"/><stop stop-opacity="1" stop-color="rgb(5.117798%, 4.920959%, 19.784546%)" offset="0.246094"/><stop stop-opacity="1" stop-color="rgb(5.198669%, 4.998779%, 20.098877%)" offset="0.25"/><stop stop-opacity="1" stop-color="rgb(5.279541%, 5.076599%, 20.413208%)" offset="0.253906"/><stop stop-opacity="1" stop-color="rgb(5.361938%, 5.155945%, 20.727539%)" offset="0.257812"/><stop stop-opacity="1" stop-color="rgb(5.44281%, 5.233765%, 21.04187%)" offset="0.261719"/><stop stop-opacity="1" stop-color="rgb(5.523682%, 5.311584%, 21.356201%)" offset="0.265625"/><stop stop-opacity="1" stop-color="rgb(5.604553%, 5.389404%, 21.669006%)" offset="0.269531"/><stop stop-opacity="1" stop-color="rgb(5.686951%, 5.467224%, 21.983337%)" offset="0.273437"/><stop stop-opacity="1" stop-color="rgb(5.767822%, 5.545044%, 22.297668%)" offset="0.277344"/><stop stop-opacity="1" stop-color="rgb(5.848694%, 5.62439%, 22.612%)" offset="0.28125"/><stop stop-opacity="1" stop-color="rgb(5.929565%, 5.702209%, 22.924805%)" offset="0.285156"/><stop stop-opacity="1" stop-color="rgb(6.011963%, 5.780029%, 23.239136%)" offset="0.289062"/><stop stop-opacity="1" stop-color="rgb(6.092834%, 5.857849%, 23.553467%)" offset="0.292969"/><stop stop-opacity="1" stop-color="rgb(6.173706%, 5.937195%, 23.867798%)" offset="0.296875"/><stop stop-opacity="1" stop-color="rgb(6.254578%, 6.015015%, 24.182129%)" offset="0.300781"/><stop stop-opacity="1" stop-color="rgb(6.336975%, 6.092834%, 24.49646%)" offset="0.304687"/><stop stop-opacity="1" stop-color="rgb(6.417847%, 6.170654%, 24.809265%)" offset="0.308594"/><stop stop-opacity="1" stop-color="rgb(6.498718%, 6.248474%, 25.123596%)" offset="0.3125"/><stop stop-opacity="1" stop-color="rgb(6.57959%, 6.326294%, 25.437927%)" offset="0.316406"/><stop stop-opacity="1" stop-color="rgb(6.661987%, 6.40564%, 25.752258%)" offset="0.320312"/><stop stop-opacity="1" stop-color="rgb(6.742859%, 6.483459%, 26.066589%)" offset="0.324219"/><stop stop-opacity="1" stop-color="rgb(6.82373%, 6.561279%, 26.38092%)" offset="0.328125"/><stop stop-opacity="1" stop-color="rgb(6.904602%, 6.639099%, 26.693726%)" offset="0.332031"/><stop stop-opacity="1" stop-color="rgb(6.987%, 6.718445%, 27.008057%)" offset="0.335937"/><stop stop-opacity="1" stop-color="rgb(7.067871%, 6.796265%, 27.322388%)" offset="0.339844"/><stop stop-opacity="1" stop-color="rgb(7.148743%, 6.874084%, 27.636719%)" offset="0.34375"/><stop stop-opacity="1" stop-color="rgb(7.229614%, 6.951904%, 27.95105%)" offset="0.347656"/><stop stop-opacity="1" stop-color="rgb(7.312012%, 7.029724%, 28.265381%)" offset="0.351562"/><stop stop-opacity="1" stop-color="rgb(7.392883%, 7.107544%, 28.578186%)" offset="0.355469"/><stop stop-opacity="1" stop-color="rgb(7.473755%, 7.18689%, 28.892517%)" offset="0.359375"/><stop stop-opacity="1" stop-color="rgb(7.554626%, 7.264709%, 29.206848%)" offset="0.363281"/><stop stop-opacity="1" stop-color="rgb(7.637024%, 7.342529%, 29.521179%)" offset="0.367187"/><stop stop-opacity="1" stop-color="rgb(7.717896%, 7.420349%, 29.83551%)" offset="0.371094"/><stop stop-opacity="1" stop-color="rgb(7.798767%, 7.499695%, 30.149841%)" offset="0.375"/><stop stop-opacity="1" stop-color="rgb(7.879639%, 7.577515%, 30.462646%)" offset="0.378906"/><stop stop-opacity="1" stop-color="rgb(7.962036%, 7.655334%, 30.776978%)" offset="0.382812"/><stop stop-opacity="1" stop-color="rgb(8.042908%, 7.733154%, 31.091309%)" offset="0.386719"/><stop stop-opacity="1" stop-color="rgb(8.123779%, 7.810974%, 31.40564%)" offset="0.390625"/><stop stop-opacity="1" stop-color="rgb(8.204651%, 7.888794%, 31.719971%)" offset="0.394531"/><stop stop-opacity="1" stop-color="rgb(8.287048%, 7.
96814%, 32.034302%)" offset="0.398438"/><stop stop-opacity="1" stop-color="rgb(8.36792%, 8.045959%, 32.347107%)" offset="0.402344"/><stop stop-opacity="1" stop-color="rgb(8.448792%, 8.123779%, 32.661438%)" offset="0.40625"/><stop stop-opacity="1" stop-color="rgb(8.529663%, 8.201599%, 32.975769%)" offset="0.410156"/><stop stop-opacity="1" stop-color="rgb(8.612061%, 8.280945%, 33.2901%)" offset="0.414062"/><stop stop-opacity="1" stop-color="rgb(8.692932%, 8.358765%, 33.602905%)" offset="0.417969"/><stop stop-opacity="1" stop-color="rgb(8.773804%, 8.436584%, 33.917236%)" offset="0.421875"/><stop stop-opacity="1" stop-color="rgb(8.854675%, 8.514404%, 34.231567%)" offset="0.425781"/><stop stop-opacity="1" stop-color="rgb(8.937073%, 8.592224%, 34.545898%)" offset="0.429688"/><stop stop-opacity="1" stop-color="rgb(9.017944%, 8.670044%, 34.860229%)" offset="0.433594"/><stop stop-opacity="1" stop-color="rgb(9.098816%, 8.74939%, 35.174561%)" offset="0.4375"/><stop stop-opacity="1" stop-color="rgb(9.179688%, 8.827209%, 35.487366%)" offset="0.441406"/><stop stop-opacity="1" stop-color="rgb(9.262085%, 8.905029%, 35.801697%)" offset="0.445312"/><stop stop-opacity="1" stop-color="rgb(9.342957%, 8.982849%, 36.116028%)" offset="0.449219"/><stop stop-opacity="1" stop-color="rgb(9.423828%, 9.062195%, 36.430359%)" offset="0.453125"/><stop stop-opacity="1" stop-color="rgb(9.5047%, 9.140015%, 36.74469%)" offset="0.457031"/><stop stop-opacity="1" stop-color="rgb(9.587097%, 9.217834%, 37.059021%)" offset="0.460938"/><stop stop-opacity="1" stop-color="rgb(9.667969%, 9.295654%, 37.371826%)" offset="0.464844"/><stop stop-opacity="1" stop-color="rgb(9.74884%, 9.373474%, 37.686157%)" offset="0.46875"/><stop stop-opacity="1" stop-color="rgb(9.829712%, 9.451294%, 38.000488%)" offset="0.472656"/><stop stop-opacity="1" stop-color="rgb(9.912109%, 9.53064%, 38.314819%)" offset="0.476562"/><stop stop-opacity="1" stop-color="rgb(9.992981%, 9.608459%, 38.62915%)" offset="0.480469"/><stop stop-opacity="1" stop-color="rgb(10.073853%, 9.686279%, 38.943481%)" offset="0.484375"/><stop stop-opacity="1" stop-color="rgb(10.154724%, 9.764099%, 39.256287%)" offset="0.488281"/><stop stop-opacity="1" stop-color="rgb(10.237122%, 9.843445%, 39.570618%)" offset="0.492188"/><stop stop-opacity="1" stop-color="rgb(10.317993%, 9.921265%, 39.884949%)" offset="0.496094"/><stop stop-opacity="1" stop-color="rgb(10.398865%, 9.999084%, 40.19928%)" offset="0.5"/><stop stop-opacity="1" stop-color="rgb(10.479736%, 10.076904%, 40.513611%)" offset="0.503906"/><stop stop-opacity="1" stop-color="rgb(10.562134%, 10.154724%, 40.827942%)" offset="0.507812"/><stop stop-opacity="1" stop-color="rgb(10.643005%, 10.232544%, 41.140747%)" offset="0.511719"/><stop stop-opacity="1" stop-color="rgb(10.723877%, 10.31189%, 41.455078%)" offset="0.515625"/><stop stop-opacity="1" stop-color="rgb(10.804749%, 10.389709%, 41.769409%)" offset="0.519531"/><stop stop-opacity="1" stop-color="rgb(10.887146%, 10.467529%, 42.08374%)" offset="0.523437"/><stop stop-opacity="1" stop-color="rgb(10.968018%, 10.545349%, 42.398071%)" offset="0.527344"/><stop stop-opacity="1" stop-color="rgb(11.048889%, 10.624695%, 42.712402%)" offset="0.53125"/><stop stop-opacity="1" stop-color="rgb(11.129761%, 10.702515%, 43.025208%)" offset="0.535156"/><stop stop-opacity="1" stop-color="rgb(11.212158%, 10.780334%, 43.339539%)" offset="0.539062"/><stop stop-opacity="1" stop-color="rgb(11.29303%, 10.858154%, 43.65387%)" offset="0.542969"/><stop stop-opacity="1" stop-color="rgb(11.373901%, 10.935974%, 43.968201%)" offset="0.546875"/><stop stop-opacity="1" stop-color="rgb(11.454773%, 11.013794%, 44.282532%)" offset="0.550781"/><stop stop-opacity="1" stop-color="rgb(11.53717%, 11.09314%, 44.596863%)" offset="0.554687"/><stop stop-opacity="1" stop-color="rgb(11.618042%, 11.170959%, 44.909668%)" offset="0.558594"/><stop stop-opacity="1" stop-color="rgb(11.698914%, 11.248779%, 45.223999%)" offset="0.5625"/><stop stop-opacity="1" stop-color="rgb(11.779785%, 11.326599%, 45.53833%)" offset="0.566406"/><stop stop-opacity="1" stop-color="rgb(11.862183%, 11.405945%, 45.852661%)" offset="0.570312"/><stop stop-opacity="1" stop-color="rgb(11.943054%, 11.483765%, 46.165466%)" offset="0.574219"/><stop stop-opacity="1" stop-color="rgb(12.023926%, 11.561584%, 46.479797%)" offset="0.578125"/><stop stop-opacity="1" stop-color="rgb(12.104797%, 11.639404%, 46.794128%)" offset="0.582031"/><stop stop-opacity="1" stop-color="rgb(12.187195%, 11.717224%, 47.108459%)" offset="0.585937"/><stop stop-opacity="1" stop-color="rgb(12.268066%, 11.795044%, 47.422791%)" offset="0.589844"/><stop stop-opacity="1" stop-color="rgb(12.348938%, 11.87439%, 47.737122%)" offset="0.59375"/><stop stop-opacity="1" stop-color="rgb(12.42981%, 11.952209%, 48.049927%)" offset="0.597656"/><stop stop-opacity="1" stop-color="rgb(12.512207%, 12.030029%, 48.364258%)" offset="0.601562"/><stop stop-opacity="1" stop-color="rgb(12.593079%, 12.107849%, 48.678589%)" offset="0.605469"/><stop stop-opacity="1" stop-color="rgb(12.67395%, 12.187195%, 48.99292%)" offset="0.609375"/><stop stop-opacity="1" stop-color="rgb(12.754822%, 12.265015%, 49.307251%)" offset="0.613281"/><stop stop-opacity="1" stop-color="rgb(12.837219%, 12.342834%, 49.621582%)" offset="0.617187"/><stop stop-opacity="1" stop-color="rgb(12.918091%, 12.420654%, 49.934387%)" offset="0.621094"/><stop stop-opacity="1" stop-color="rgb(12.998962%, 12.498474%, 50.248718%)" offset="0.625"/><stop stop-opacity="1" stop-color="rgb(13.079834%, 12.576294%, 50.563049%)" offset="0.628906"/><stop stop-opacity="1" stop-color="rgb(13.162231%, 12.65564%, 50.87738%)" offset="0.632812"/><stop stop-opacity="1" stop-color="rgb(13.243103%, 12.733459%, 51.191711%)" offset="0.636719"/><stop stop-opacity="1" stop-color="rgb(13.323975%, 12.811279%, 51.506042%)" offset="0.640625"/><stop stop-opacity="1" stop-color="rgb(13.404846%, 12.889099%, 51.818848%)" offset="0.644531"/><stop stop-opacity="1" stop-color="rgb(13.487244%, 12.968445%, 52.133179%)" offset="0.648437"/><stop stop-opacity="1" stop-color="rgb(13.568115%, 13.046265%, 52.44751%)" offset="0.652344"/><stop stop-opacity="1" stop-color="rgb(13.648987%, 13.124084%, 52.761841%)" offset="0.65625"/><stop stop-opacity="1" stop-color="rgb(13.729858%, 13.201904%, 53.076172%)" offset="0.660156"/><stop stop-opacity="1" stop-color="rgb(13.812256%, 13.279724%, 53.390503%)" offset="0.664062"/><stop stop-opacity="1" stop-color="rgb(13.893127%, 13.357544%, 53.703308%)" offset="0.667969"/><stop stop-opacity="1" stop-color="rgb(13.973999%, 13.43689%, 54.017639%)" offset="0.671875"/><stop stop-opacity="1" stop-color="rgb(14.054871%, 13.514709%, 54.33197%)" offset="0.675781"/><stop stop-opacity="1" stop-color="rgb(14.137268%, 13.592529%, 54.646301%)" offset="0.679687"/><stop stop-opacity="1" stop-color="rgb(14.21814%, 13.670349%, 54.960632%)" offset="0.683594"/><stop stop-opacity="1" stop-color="rgb(14.299011%, 13.749695%, 55.274963%)" offset="0.6875"/><stop stop-opacity="1" stop-color="rgb(14.379883%, 13.827515%, 55.587769%)" offset="0.691406"/><stop stop-opacity="1" stop-color="rgb(14.46228%, 13.905334%, 55.9021%)" offset="0.695312"/><stop stop-opacity="1" stop-color="rgb(14.543152%, 13.983154%, 56.216431%)" offset="0.699219"/><stop stop-opacity="1" stop-color="rgb(14.624023%, 14.060974%, 56.530762%)" offset="0.703125"/><stop stop-opacity="1" stop-color="rgb(14.704895%, 14.138794%, 56.843567%)" offset="0.707031"/><stop stop-opacity="1" stop-color="rgb(14.787292%, 14.21814%, 57.157898%)" offset="0.710937"/><stop stop-opacity="1" stop-color="rgb(14.868164%, 14.295959%, 57.472229%)" offset="0.714844"/><stop stop-opacity="1" stop-color="rgb(14.949036%, 14.373779%, 57.78656%)" offset="0.71875"/><stop stop-opacity="1" stop-color="rgb(15.029907%, 14.451599%, 58.100891%)" offset="0.722656"/><stop stop-opacity="1" stop-color="rgb(15.112305%, 14.530945%, 58.415222%)" offset="0.726562"/><stop stop-opacity="1" stop-color="rgb(15.193176%, 14.608765%, 58.728027%)" offset="0.730469"/><stop stop-opacity="1" stop-color="rgb(15.274048%, 14.686584%, 59.042358%)" offset="0.734375"/><stop stop-opacity="1" stop-color="rgb(15.354919%, 14.764404%, 59.356689%)" offset="0.738281"/><stop stop-opacity="1" stop-color="rgb(15.437317%, 14.842224%, 59.671021%)" offset="0.742187"/><stop stop-opacity="1" stop-color="rgb(15.518188%, 14.920044%, 59.985352%)" offset="0.746094"/><stop stop-opacity="1" stop-color="rgb(15.59906%, 14.99939%, 60.299683%)" offset="0.75"/><stop stop-opacity="1" stop-color="rgb(15.679932%, 15.077209%, 60.612488%)" offset="0.753906"/><stop stop-opacity="1" stop-color="rgb(15.762329%, 15.155029%, 60.926819%)" offset="0.757812"/><stop stop-opacity="1" stop-color="rgb(15.843201%, 15.232849%, 61.24115%)" offset="0.761719"/><stop stop-opacity="1" stop-color="rgb(15.924072%, 15.312195%, 61.555481%)" offset="0.765625"/><stop stop-opacity="1" stop-color="rgb(16.004944%, 15.390015%, 61.869812%)" offset="0.769531"/><stop stop-opacity="1" stop-color="rgb(16.087341%, 15.467834%, 62.184143%)" offset="0.773438"/><stop stop-opacity="1" stop-color="rgb(16.168213%, 15.545654%, 62.496948%)" offset="0.777344"/><stop stop-opacity="1" stop-color="rgb(16.249084%, 15.623474%, 62.811279%)" offset="0.78125"/><stop stop-opacity="1" stop-color="rgb(16.329956%, 15.701294%, 63.12561%)" offset="0.785156"/><stop stop-opacity="1" stop-color="rgb(16.412354%, 15.78064%, 63.439941%)" offset="0.789062"/><stop stop-opacity="1" stop-color="rgb(16.493225%, 15.858459%, 63.754272%)" offset="0.792969"/><stop stop-opacity="1" stop-color="rgb(16.574097%, 15.936279%, 64.068604%)" offset="0.796875"/><stop stop-opacity="1" stop-color="rgb(16.654968%, 16.014099%, 64.381409%)" offset="0.800781"/><stop stop-opacity="1" stop-color="rgb(16.737366%, 16.093445%, 64.69574%)" offset="0.804688"/><stop stop-opacity="1" stop-color="rgb(16.818237%, 16.171265%, 65.010071%)" offset="0.808594"/><stop stop-opacity="1" stop-color="rgb(16.899109%, 16.249084%, 65.324402%)" offset="0.8125"/
><stop stop-opacity="1" stop-color="rgb(16.97998%, 16.326904%, 65.638733%)" offset="0.816406"/><stop stop-opacity="1" stop-color="rgb(17.062378%, 16.404724%, 65.953064%)" offset="0.820312"/><stop stop-opacity="1" stop-color="rgb(17.14325%, 16.482544%, 66.265869%)" offset="0.824219"/><stop stop-opacity="1" stop-color="rgb(17.224121%, 16.56189%, 66.5802%)" offset="0.828125"/><stop stop-opacity="1" stop-color="rgb(17.304993%, 16.639709%, 66.894531%)" offset="0.832031"/><stop stop-opacity="1" stop-color="rgb(17.38739%, 16.717529%, 67.208862%)" offset="0.835938"/><stop stop-opacity="1" stop-color="rgb(17.468262%, 16.795349%, 67.521667%)" offset="0.839844"/><stop stop-opacity="1" stop-color="rgb(17.549133%, 16.874695%, 67.835999%)" offset="0.84375"/><stop stop-opacity="1" stop-color="rgb(17.630005%, 16.952515%, 68.15033%)" offset="0.847656"/><stop stop-opacity="1" stop-color="rgb(17.712402%, 17.030334%, 68.464661%)" offset="0.851562"/><stop stop-opacity="1" stop-color="rgb(17.793274%, 17.108154%, 68.778992%)" offset="0.855469"/><stop stop-opacity="1" stop-color="rgb(17.874146%, 17.185974%, 69.093323%)" offset="0.859375"/><stop stop-opacity="1" stop-color="rgb(17.955017%, 17.263794%, 69.406128%)" offset="0.863281"/><stop stop-opacity="1" stop-color="rgb(18.037415%, 17.34314%, 69.720459%)" offset="0.867188"/><stop stop-opacity="1" stop-color="rgb(18.118286%, 17.420959%, 70.03479%)" offset="0.871094"/><stop stop-opacity="1" stop-color="rgb(18.199158%, 17.498779%, 70.349121%)" offset="0.875"/><stop stop-opacity="1" stop-color="rgb(18.280029%, 17.576599%, 70.663452%)" offset="0.878906"/><stop stop-opacity="1" stop-color="rgb(18.362427%, 17.655945%, 70.977783%)" offset="0.882812"/><stop stop-opacity="1" stop-color="rgb(18.443298%, 17.733765%, 71.290588%)" offset="0.886719"/><stop stop-opacity="1" stop-color="rgb(18.52417%, 17.811584%, 71.604919%)" offset="0.890625"/><stop stop-opacity="1" stop-color="rgb(18.605042%, 17.889404%, 71.91925%)" offset="0.894531"/><stop stop-opacity="1" stop-color="rgb(18.687439%, 17.967224%, 72.233582%)" offset="0.898438"/><stop stop-opacity="1" stop-color="rgb(18.768311%, 18.045044%, 72.547913%)" offset="0.902344"/><stop stop-opacity="1" stop-color="rgb(18.849182%, 18.12439%, 72.862244%)" offset="0.90625"/><stop stop-opacity="1" stop-color="rgb(18.930054%, 18.202209%, 73.175049%)" offset="0.910156"/><stop stop-opacity="1" stop-color="rgb(19.012451%, 18.280029%, 73.48938%)" offset="0.914062"/><stop stop-opacity="1" stop-color="rgb(19.093323%, 18.357849%, 73.803711%)" offset="0.917969"/><stop stop-opacity="1" stop-color="rgb(19.174194%, 18.437195%, 74.118042%)" offset="0.921875"/><stop stop-opacity="1" stop-color="rgb(19.255066%, 18.515015%, 74.432373%)" offset="0.925781"/><stop stop-opacity="1" stop-color="rgb(19.337463%, 18.592834%, 74.746704%)" offset="0.929688"/><stop stop-opacity="1" stop-color="rgb(19.418335%, 18.670654%, 75.059509%)" offset="0.933594"/><stop stop-opacity="1" stop-color="rgb(19.499207%, 18.748474%, 75.37384%)" offset="0.9375"/><stop stop-opacity="1" stop-color="rgb(19.580078%, 18.826294%, 75.688171%)" offset="0.941406"/><stop stop-opacity="1" stop-color="rgb(19.662476%, 18.90564%, 76.002502%)" offset="0.945312"/><stop stop-opacity="1" stop-color="rgb(19.743347%, 18.983459%, 76.316833%)" offset="0.949219"/><stop stop-opacity="1" stop-color="rgb(19.824219%, 19.061279%, 76.631165%)" offset="0.953125"/><stop stop-opacity="1" stop-color="rgb(19.90509%, 19.139099%, 76.94397%)" offset="0.957031"/><stop stop-opacity="1" stop-color="rgb(19.987488%, 19.218445%, 77.258301%)" offset="0.960938"/><stop stop-opacity="1" stop-color="rgb(20.068359%, 19.296265%, 77.572632%)" offset="0.964844"/><stop stop-opacity="1" stop-color="rgb(20.149231%, 19.374084%, 77.886963%)" offset="0.96875"/><stop stop-opacity="1" stop-color="rgb(20.230103%, 19.451904%, 78.199768%)" offset="0.972656"/><stop stop-opacity="1" stop-color="rgb(20.310974%, 19.529724%, 78.514099%)" offset="0.976562"/><stop stop-opacity="1" stop-color="rgb(20.391846%, 19.607544%, 78.82843%)" offset="0.980469"/><stop stop-opacity="1" stop-color="rgb(20.474243%, 19.68689%, 79.142761%)" offset="0.984375"/><stop stop-opacity="1" stop-color="rgb(20.555115%, 19.764709%, 79.457092%)" offset="0.988281"/><stop stop-opacity="1" stop-color="rgb(20.635986%, 19.842529%, 79.771423%)" offset="0.992188"/><stop stop-opacity="1" stop-color="rgb(20.716858%, 19.920349%, 80.084229%)" offset="0.996094"/><stop stop-opacity="1" stop-color="rgb(20.799255%, 19.999695%, 80.39856%)" offset="1"/></linearGradient><clipPath id="9619c0b7c9"><path d="M 95 0 L 279.789062 0 L 279.789062 185 L 95 185 Z M 95 0 " clip-rule="nonzero"/></clipPath><mask id="a9bcb18beb"><g filter="url(#f01796223c)"><rect x="-37.5" width="450" fill="#000000" y="-37.499999" height="449.999989" fill-opacity="0.23"/></g></mask><clipPath id="5fc8889a30"><path d="M 0.519531 1 L 21 1 L 21 7 L 0.519531 7 Z M 0.519531 1 " clip-rule="nonzero"/></clipPath><clipPath id="5053d8620e"><path d="M 34 14 L 67 14 L 67 57.519531 L 34 57.519531 Z M 34 14 " clip-rule="nonzero"/></clipPath><clipPath id="11744459a1"><rect x="0" width="68" y="0" height="58"/></clipPath><mask id="28ff3ed348"><g filter="url(#f01796223c)"><rect x="-37.5" width="450" fill="#000000" y="-37.499999" height="449.999989" fill-opacity="0.32"/></g></mask><clipPath id="562aec7714"><path d="M 0.601562 118 L 8 118 L 8 126 L 0.601562 126 Z M 0.601562 118 " clip-rule="nonzero"/></clipPath><clipPath id="e507f00f02"><path d="M 124 119 L 131.398438 119 L 131.398438 127 L 124 127 Z M 124 119 " clip-rule="nonzero"/></clipPath><clipPath id="2ca378fb59"><path d="M 51 0.558594 L 54 0.558594 L 54 4 L 51 4 Z M 51 0.558594 " clip-rule="nonzero"/></clipPath><clipPath id="b56125e880"><rect x="0" width="132" y="0" height="133"/></clipPath></defs><rect x="-37.5" width="450" fill="#ffffff" y="-37.499999" height="449.999989" fill-opacity="1"/><rect x="-37.5" fill="url(#3ab27cdffb)" width="450" y="-37.499999" height="449.999989"/><path fill="#000000" d="M 249.953125 88.40625 L 145.261719 27.960938 L 145.261719 148.851562 Z M 249.953125 88.40625 " fill-opacity="1" fill-rule="nonzero"/><path fill="#d11d4d" d="M 217.558594 95.832031 L 200.941406 105.425781 L 186.382812 113.832031 L 167.890625 124.507812 C 165.597656 125.832031 163.074219 125.960938 160.875 125.210938 C 160.433594 125.066406 160.011719 124.882812 159.601562 124.664062 C 157.15625 123.375 155.328125 120.925781 155.058594 117.867188 C 155.035156 117.609375 155.027344 117.347656 155.027344 117.078125 L 155.027344 59.730469 C 155.027344 53.925781 160.546875 50.039062 165.765625 51.417969 C 166.488281 51.609375 167.203125 51.902344 167.894531 52.300781 C 167.894531 52.300781 167.898438 52.304688 167.902344 52.308594 L 169.140625 53.023438 L 172.046875 54.699219 L 217.558594 80.976562 C 223.277344 84.277344 223.277344 92.53125 217.558594 95.832031 Z M 217.558594 95.832031 " fill-opacity="1" fill-rule="nonzero"/><path fill="#ffae00" d="M 217.558594 95.832031 C 217.558594 95.832031 217.554688 95.832031 217.550781 95.835938 L 200.941406 105.425781 L 186.382812 113.832031 L 167.890625 124.507812 C 165.597656 125.832031 163.074219 125.960938 160.875 125.210938 C 159.042969 123.828125 157.742188 121.710938 157.515625 119.167969 C 157.496094 118.910156 157.484375 118.648438 157.484375 118.382812 L 157.484375 61.03125 C 157.484375 55.226562 163.003906 51.339844 168.222656 52.71875 C 168.527344 52.804688 168.835938 52.902344 169.140625 53.023438 L 172.046875 54.699219 L 217.554688 80.976562 C 223.277344 84.277344 223.277344 92.53125 217.558594 95.832031 Z M 217.558594 95.832031 " fill-opacity="1" fill-rule="nonzero"/><g clip-path="url(#9619c0b7c9)"><path fill="#000000" d="M 251.722656 82.375 L 217.917969 18.789062 C 212 7.652344 200.492188 0.734375 187.886719 0.734375 C 185.910156 0.734375 183.917969 0.910156 181.96875 1.253906 L 111.800781 13.628906 L 139.152344 29.441406 L 100.988281 90.511719 C 97.15625 96.644531 95.398438 103.703125 95.902344 110.914062 C 96.40625 118.132812 99.132812 124.871094 103.78125 130.414062 L 149.582031 184.992188 L 149.597656 153.398438 L 221.566406 155.914062 C 221.960938 155.925781 222.363281 155.933594 222.761719 155.933594 C 229.765625 155.933594 236.503906 153.808594 242.25 149.792969 C 248.007812 145.769531 252.324219 140.148438 254.726562 133.546875 L 279.09375 66.59375 Z M 149.601562 141.269531 L 149.648438 35.507812 L 241.21875 88.429688 Z M 149.601562 141.269531 " fill-opacity="1" fill-rule="nonzero"/></g><path fill="#ffae00" d="M 214.039062 20.851562 L 249.953125 88.40625 L 249.945312 88.402344 L 124.441406 15.863281 L 129.195312 15.027344 L 182.730469 5.585938 C 195.371094 3.355469 208.011719 9.515625 214.039062 20.851562 Z M 214.039062 20.851562 " fill-opacity="1" fill-rule="nonzero"/><path fill="#d11d4d" d="M 270.839844 76.421875 L 268.464844 82.949219 L 250.597656 132.042969 C 246.210938 144.105469 234.546875 151.972656 221.71875 151.523438 L 145.261719 148.851562 L 145.277344 148.839844 Z M 270.839844 76.421875 " fill-opacity="1" fill-rule="nonzero"/><path fill="#00ffc7" d="M 145.257812 27.960938 L 145.214844 125.179688 L 145.195312 172.929688 L 141.289062 168.273438 L 130.175781 155.027344 L 111.097656 132.292969 L 107.144531 127.585938 C 98.894531 117.753906 97.914062 103.726562 104.71875 92.839844 L 116.570312 73.871094 Z M 145.257812 27.960938 " fill-opacity="1" fill-rule="nonzero"/><path fill="#000000" d="M 145.257812 27.960938 L 130.175781 155.03125 L 111.097656 132.296875 L 107.144531 127.589844 C 98.894531 117.757812 97.914062 103.726562 104.71875 92.839844 Z M 145.257812 27.960938 " fill-opacity="0.23" fill-rule="nonzero"/><path fill="#000000" d="M 145.257812 27.960938 L 111.097656 132.292969 L 107.144531 127.585938 C 98.894531 117.753906 97.914062 103.726562 104.71875 92.839844 Z M 145.257812 27.960938 " fill-opacity="0.23" fill-rule="nonzero"/><path fill="#000000" d="M 249.953125 88.40625 L 147.453125 11.804688 L 176.675781 6.648438 L 182.730469 5.578125 C 195.
371094 3.351562 208.011719 9.515625 214.039062 20.851562 Z M 249.953125 88.40625 " fill-opacity="0.23" fill-rule="nonzero"/><path fill="#000000" d="M 249.953125 88.40625 L 176.675781 6.652344 L 182.730469 5.582031 C 195.371094 3.355469 208.011719 9.515625 214.039062 20.851562 Z M 249.953125 88.40625 " fill-opacity="0.23" fill-rule="nonzero"/><path fill="#000000" d="M 145.257812 148.851562 L 262.84375 98.382812 L 252.695312 126.269531 L 250.59375 132.046875 C 246.203125 144.109375 234.546875 151.972656 221.714844 151.523438 Z M 145.257812 148.851562 " fill-opacity="0.23" fill-rule="nonzero"/><path fill="#000000" d="M 145.257812 148.851562 L 252.695312 126.265625 L 250.59375 132.042969 C 246.203125 144.105469 234.546875 151.972656 221.714844 151.523438 Z M 145.257812 148.851562 " fill-opacity="0.23" fill-rule="nonzero"/><path fill="#ffffff" d="M 249.953125 88.402344 L 249.945312 88.398438 L 124.441406 15.863281 L 129.195312 15.023438 Z M 249.953125 88.402344 " fill-opacity="0.46" fill-rule="nonzero"/><path fill="#ffffff" d="M 145.257812 27.960938 L 145.195312 172.929688 L 141.289062 168.273438 Z M 145.257812 27.960938 " fill-opacity="0.46" fill-rule="nonzero"/><path fill="#ffffff" d="M 270.839844 76.421875 L 268.464844 82.949219 L 145.261719 148.851562 L 145.277344 148.839844 Z M 270.839844 76.421875 " fill-opacity="0.46" fill-rule="nonzero"/><g mask="url(#a9bcb18beb)"><g transform="matrix(1, 0, 0, 1, 155, 50)"><g clip-path="url(#11744459a1)"><g clip-path="url(#5fc8889a30)"><path fill="#000000" d="M 9.828125 5.097656 C 13.535156 5.097656 17.113281 5.652344 20.480469 6.683594 L 17.046875 4.699219 L 12.902344 2.308594 C 12.898438 2.304688 12.894531 2.300781 12.894531 2.300781 C 12.199219 1.902344 11.488281 1.609375 10.765625 1.417969 C 6.6875 0.339844 2.425781 2.480469 0.757812 6.238281 C 3.65625 5.492188 6.695312 5.097656 9.828125 5.097656 Z M 9.828125 5.097656 " fill-opacity="1" fill-rule="nonzero"/></g><g clip-path="url(#5053d8620e)"><path fill="#000000" d="M 62.558594 30.976562 L 34.609375 14.839844 C 41.753906 21.484375 46.222656 30.96875 46.222656 41.496094 C 46.222656 47.183594 44.917969 52.5625 42.59375 57.359375 L 45.941406 55.425781 L 62.554688 45.835938 C 68.277344 42.53125 68.277344 34.277344 62.558594 30.976562 Z M 62.558594 30.976562 " fill-opacity="1" fill-rule="nonzero"/></g></g></g></g><path fill="#000000" d="M 155.023438 103.1875 L 155.023438 117.078125 C 155.023438 117.347656 155.035156 117.609375 155.058594 117.867188 C 155.597656 124 162.402344 127.671875 167.890625 124.507812 L 177.375 119.03125 C 167.707031 117.492188 159.53125 111.484375 155.023438 103.1875 Z M 155.023438 103.1875 " fill-opacity="0.23" fill-rule="nonzero"/><path fill="#000000" d="M 145.214844 125.179688 L 145.195312 172.929688 L 141.289062 168.273438 L 130.175781 155.027344 L 111.097656 132.292969 L 107.144531 127.585938 C 98.894531 117.753906 97.914062 103.726562 104.71875 92.839844 L 116.570312 73.871094 C 112.53125 86.582031 111.652344 102.144531 121.683594 116.855469 C 129.933594 128.960938 138.140625 129.425781 145.214844 125.179688 Z M 145.214844 125.179688 " fill-opacity="0.23" fill-rule="nonzero"/><path fill="#000000" d="M 165.78125 39.757812 L 124.441406 15.863281 L 130.421875 14.808594 L 147.453125 11.804688 L 176.675781 6.648438 L 182.730469 5.578125 C 195.371094 3.351562 208.011719 9.515625 214.039062 20.851562 L 224.539062 40.601562 C 215.546875 30.746094 202.511719 22.203125 184.757812 23.535156 C 170.148438 24.628906 165.640625 31.503906 165.78125 39.757812 Z M 165.78125 39.757812 " fill-opacity="0.23" fill-rule="nonzero"/><path fill="#000000" d="M 229.476562 100.277344 L 270.839844 76.421875 L 268.761719 82.128906 L 262.847656 98.378906 L 252.699219 126.265625 L 250.597656 132.042969 C 246.207031 144.105469 234.546875 151.972656 221.71875 151.523438 L 199.363281 150.738281 C 212.394531 147.882812 226.3125 140.859375 234.035156 124.820312 C 240.390625 111.621094 236.691406 104.28125 229.476562 100.277344 Z M 229.476562 100.277344 " fill-opacity="0.23" fill-rule="nonzero"/><path fill="#ffffff" d="M 217.558594 95.832031 L 200.941406 105.425781 L 186.382812 113.832031 L 167.890625 124.507812 C 165.140625 126.097656 162.058594 125.964844 159.601562 124.664062 Z M 217.558594 95.832031 " fill-opacity="0.32" fill-rule="nonzero"/><path fill="#ffffff" d="M 201.820312 87.003906 L 199.859375 88.136719 L 190.144531 93.746094 L 179.914062 99.652344 L 166.914062 107.15625 C 165.304688 108.085938 163.53125 108.175781 161.984375 107.652344 C 160.695312 106.675781 159.785156 105.1875 159.625 103.402344 C 159.609375 103.222656 159.601562 103.039062 159.601562 102.851562 L 159.601562 62.546875 C 159.601562 58.46875 163.480469 55.734375 167.148438 56.703125 C 167.363281 56.761719 167.578125 56.832031 167.792969 56.917969 L 169.835938 58.097656 L 201.820312 76.5625 C 205.839844 78.882812 205.839844 84.683594 201.820312 87.003906 Z M 201.820312 87.003906 " fill-opacity="0.18" fill-rule="nonzero"/><path fill="#ffffff" d="M 201.824219 85.367188 L 190.144531 92.109375 L 179.914062 98.019531 L 166.917969 105.519531 C 165.308594 106.449219 163.53125 106.542969 161.984375 106.015625 C 160.699219 105.046875 159.785156 103.554688 159.625 101.769531 C 159.609375 101.585938 159.601562 101.402344 159.601562 101.214844 L 159.601562 60.910156 C 159.601562 56.832031 163.480469 54.097656 167.148438 55.066406 C 167.367188 55.125 167.582031 55.195312 167.792969 55.28125 L 169.835938 56.460938 L 201.820312 74.925781 C 205.839844 77.246094 205.839844 83.046875 201.824219 85.367188 Z M 201.824219 85.367188 " fill-opacity="0.32" fill-rule="nonzero"/><g mask="url(#28ff3ed348)"><g transform="matrix(1, 0, 0, 1, 117, 10)"><g clip-path="url(#b56125e880)"><path fill="#ffffff" d="M 22.886719 100.609375 L 22.886719 100.605469 C 22.890625 100.609375 22.890625 100.609375 22.890625 100.613281 C 22.890625 100.613281 22.890625 100.613281 22.886719 100.609375 Z M 22.886719 100.609375 " fill-opacity="1" fill-rule="nonzero"/><path fill="#ffffff" d="M 4.648438 71.421875 C 4.648438 71.59375 4.617188 71.757812 4.550781 71.917969 C 4.484375 72.074219 4.390625 72.214844 4.269531 72.335938 C 4.148438 72.457031 4.007812 72.550781 3.851562 72.617188 C 3.691406 72.683594 3.527344 72.714844 3.355469 72.714844 C 3.183594 72.714844 3.019531 72.683594 2.859375 72.617188 C 2.703125 72.550781 2.5625 72.457031 2.441406 72.335938 C 2.320312 72.214844 2.226562 72.074219 2.160156 71.917969 C 2.09375 71.757812 2.0625 71.59375 2.0625 71.421875 C 2.0625 71.25 2.09375 71.085938 2.160156 70.929688 C 2.226562 70.769531 2.320312 70.628906 2.441406 70.507812 C 2.5625 70.386719 2.703125 70.292969 2.859375 70.226562 C 3.019531 70.164062 3.183594 70.128906 3.355469 70.128906 C 3.527344 70.128906 3.691406 70.164062 3.851562 70.226562 C 4.007812 70.292969 4.148438 70.386719 4.269531 70.507812 C 4.390625 70.628906 4.484375 70.769531 4.550781 70.929688 C 4.617188 71.085938 4.648438 71.25 4.648438 71.421875 Z M 4.648438 71.421875 " fill-opacity="1" fill-rule="nonzero"/><path fill="#ffffff" d="M 18.296875 93.132812 C 18.296875 93.515625 18.226562 93.878906 18.078125 94.230469 C 17.933594 94.582031 17.726562 94.894531 17.457031 95.164062 C 17.1875 95.429688 16.878906 95.636719 16.527344 95.785156 C 16.175781 95.929688 15.808594 96.003906 15.429688 96.003906 C 15.050781 96.003906 14.683594 95.929688 14.332031 95.785156 C 13.980469 95.636719 13.671875 95.429688 13.402344 95.164062 C 13.132812 94.894531 12.925781 94.582031 12.78125 94.230469 C 12.632812 93.878906 12.5625 93.515625 12.5625 93.132812 C 12.5625 92.753906 12.632812 92.386719 12.78125 92.035156 C 12.925781 91.683594 13.132812 91.375 13.402344 91.105469 C 13.671875 90.835938 13.980469 90.628906 14.332031 90.484375 C 14.683594 90.339844 15.050781 90.265625 15.429688 90.265625 C 15.808594 90.265625 16.175781 90.339844 16.527344 90.484375 C 16.878906 90.628906 17.1875 90.835938 17.457031 91.105469 C 17.726562 91.375 17.933594 91.683594 18.078125 92.035156 C 18.226562 92.386719 18.296875 92.753906 18.296875 93.132812 Z M 18.296875 93.132812 " fill-opacity="1" fill-rule="nonzero"/><g clip-path="url(#562aec7714)"><path fill="#ffffff" d="M 7.101562 122.007812 C 7.101562 122.425781 7.023438 122.828125 6.863281 123.214844 C 6.703125 123.601562 6.476562 123.941406 6.179688 124.234375 C 5.882812 124.53125 5.542969 124.757812 5.15625 124.917969 C 4.773438 125.078125 4.371094 125.15625 3.953125 125.160156 C 3.535156 125.15625 3.132812 125.078125 2.746094 124.917969 C 2.359375 124.757812 2.019531 124.53125 1.726562 124.234375 C 1.429688 123.941406 1.203125 123.601562 1.042969 123.214844 C 0.882812 122.828125 0.800781 122.425781 0.800781 122.007812 C 0.800781 121.589844 0.882812 121.1875 1.042969 120.804688 C 1.203125 120.417969 1.429688 120.078125 1.726562 119.78125 C 2.019531 119.484375 2.359375 119.257812 2.746094 119.097656 C 3.132812 118.9375 3.535156 118.859375 3.953125 118.859375 C 4.371094 118.859375 4.773438 118.9375 5.15625 119.097656 C 5.542969 119.257812 5.882812 119.484375 6.179688 119.78125 C 6.476562 120.078125 6.703125 120.417969 6.863281 120.804688 C 7.023438 121.1875 7.101562 121.589844 7.101562 122.007812 Z M 7.101562 122.007812 " fill-opacity="1" fill-rule="nonzero"/></g><path fill="#ffffff" d="M 105.773438 126.625 C 105.773438 126.820312 105.738281 127.007812 105.664062 127.1875 C 105.589844 127.367188 105.480469 127.527344 105.34375 127.664062 C 105.207031 127.804688 105.046875 127.910156 104.867188 127.984375 C 104.6875 128.058594 104.5 128.09375 104.304688 128.09375 C 104.109375 128.09375 103.921875 128.058594 103.742188 127.984375 C 103.5625 127.910156 103.402344 127.804688 103.265625 127.664062 C 103.128906 127.527344 103.023438 127.367188 102.945312 127.1875 C 102.871094 127.007812 102.835938 126.820312 102.835938 126.625 C 102.835938 126.429688 102.871094 126.242188 102.945312 126.0625 C 103.023438 125.882812 103.128906 125.722656 103.265625 125.585938 C 103.402344 125.449219 103.5625 125.34375 103.742188 125.269531 C 103.921875 
125.191406 104.109375 125.15625 104.304688 125.15625 C 104.5 125.15625 104.6875 125.191406 104.867188 125.269531 C 105.046875 125.34375 105.207031 125.449219 105.34375 125.585938 C 105.480469 125.722656 105.589844 125.882812 105.664062 126.0625 C 105.738281 126.242188 105.773438 126.429688 105.773438 126.625 Z M 105.773438 126.625 " fill-opacity="1" fill-rule="nonzero"/><path fill="#ffffff" d="M 126.53125 96.203125 C 126.53125 96.359375 126.503906 96.503906 126.445312 96.648438 C 126.386719 96.789062 126.300781 96.914062 126.195312 97.023438 C 126.085938 97.128906 125.960938 97.214844 125.820312 97.273438 C 125.675781 97.332031 125.53125 97.359375 125.378906 97.359375 C 125.222656 97.359375 125.078125 97.332031 124.933594 97.273438 C 124.792969 97.214844 124.667969 97.128906 124.558594 97.023438 C 124.453125 96.914062 124.367188 96.789062 124.308594 96.648438 C 124.25 96.503906 124.222656 96.359375 124.222656 96.203125 C 124.222656 96.050781 124.25 95.90625 124.308594 95.761719 C 124.367188 95.621094 124.453125 95.496094 124.558594 95.386719 C 124.667969 95.28125 124.792969 95.195312 124.933594 95.136719 C 125.078125 95.078125 125.222656 95.050781 125.378906 95.050781 C 125.53125 95.050781 125.675781 95.078125 125.820312 95.136719 C 125.960938 95.195312 126.085938 95.28125 126.195312 95.386719 C 126.300781 95.496094 126.386719 95.621094 126.445312 95.761719 C 126.503906 95.90625 126.53125 96.050781 126.53125 96.203125 Z M 126.53125 96.203125 " fill-opacity="1" fill-rule="nonzero"/><g clip-path="url(#e507f00f02)"><path fill="#ffffff" d="M 131.148438 123.207031 C 131.148438 123.664062 131.0625 124.109375 130.886719 124.53125 C 130.710938 124.957031 130.460938 125.332031 130.132812 125.65625 C 129.808594 125.980469 129.433594 126.230469 129.011719 126.40625 C 128.585938 126.582031 128.144531 126.671875 127.683594 126.671875 C 127.226562 126.671875 126.78125 126.582031 126.359375 126.40625 C 125.933594 126.230469 125.558594 125.980469 125.234375 125.65625 C 124.910156 125.332031 124.660156 124.957031 124.484375 124.53125 C 124.308594 124.109375 124.21875 123.664062 124.21875 123.207031 C 124.21875 122.746094 124.308594 122.304688 124.484375 121.878906 C 124.660156 121.457031 124.910156 121.082031 125.234375 120.757812 C 125.558594 120.429688 125.933594 120.179688 126.359375 120.003906 C 126.78125 119.828125 127.226562 119.742188 127.683594 119.742188 C 128.144531 119.742188 128.585938 119.828125 129.011719 120.003906 C 129.433594 120.179688 129.808594 120.429688 130.132812 120.757812 C 130.460938 121.082031 130.710938 121.457031 130.886719 121.878906 C 131.0625 122.304688 131.148438 122.746094 131.148438 123.207031 Z M 131.148438 123.207031 " fill-opacity="1" fill-rule="nonzero"/></g><path fill="#ffffff" d="M 75.753906 130.449219 C 75.753906 130.652344 75.714844 130.851562 75.636719 131.039062 C 75.558594 131.226562 75.445312 131.394531 75.300781 131.539062 C 75.15625 131.683594 74.988281 131.796875 74.800781 131.875 C 74.609375 131.953125 74.414062 131.992188 74.210938 131.992188 C 74.003906 131.992188 73.808594 131.953125 73.617188 131.875 C 73.429688 131.796875 73.261719 131.683594 73.117188 131.539062 C 72.972656 131.394531 72.859375 131.226562 72.78125 131.039062 C 72.703125 130.851562 72.664062 130.652344 72.664062 130.449219 C 72.664062 130.242188 72.703125 130.046875 72.78125 129.859375 C 72.859375 129.667969 72.972656 129.5 73.117188 129.355469 C 73.261719 129.210938 73.429688 129.101562 73.617188 129.023438 C 73.808594 128.945312 74.003906 128.90625 74.210938 128.90625 C 74.414062 128.90625 74.609375 128.945312 74.800781 129.023438 C 74.988281 129.101562 75.15625 129.210938 75.300781 129.355469 C 75.445312 129.5 75.558594 129.667969 75.636719 129.859375 C 75.714844 130.046875 75.753906 130.242188 75.753906 130.449219 Z M 75.753906 130.449219 " fill-opacity="1" fill-rule="nonzero"/><g clip-path="url(#2ca378fb59)"><path fill="#ffffff" d="M 53.773438 2.296875 C 53.773438 2.476562 53.738281 2.648438 53.667969 2.8125 C 53.601562 2.976562 53.503906 3.121094 53.378906 3.25 C 53.25 3.375 53.105469 3.472656 52.941406 3.539062 C 52.777344 3.609375 52.605469 3.644531 52.425781 3.644531 C 52.246094 3.644531 52.074219 3.609375 51.910156 3.539062 C 51.746094 3.472656 51.601562 3.375 51.472656 3.25 C 51.347656 3.121094 51.25 2.976562 51.183594 2.8125 C 51.113281 2.648438 51.082031 2.476562 51.082031 2.296875 C 51.082031 2.117188 51.113281 1.945312 51.183594 1.78125 C 51.25 1.617188 51.347656 1.472656 51.472656 1.34375 C 51.601562 1.21875 51.746094 1.121094 51.910156 1.054688 C 52.074219 0.984375 52.246094 0.949219 52.425781 0.949219 C 52.605469 0.949219 52.777344 0.984375 52.941406 1.054688 C 53.105469 1.121094 53.25 1.21875 53.378906 1.34375 C 53.503906 1.472656 53.601562 1.617188 53.667969 1.78125 C 53.738281 1.945312 53.773438 2.117188 53.773438 2.296875 Z M 53.773438 2.296875 " fill-opacity="1" fill-rule="nonzero"/></g><path fill="#ffffff" d="M 83.714844 27.074219 C 83.714844 27.28125 83.675781 27.480469 83.597656 27.675781 C 83.515625 27.867188 83.402344 28.035156 83.257812 28.183594 C 83.109375 28.328125 82.941406 28.441406 82.746094 28.523438 C 82.554688 28.601562 82.355469 28.640625 82.148438 28.640625 C 81.941406 28.640625 81.738281 28.601562 81.546875 28.523438 C 81.355469 28.441406 81.1875 28.328125 81.039062 28.183594 C 80.890625 28.035156 80.777344 27.867188 80.699219 27.675781 C 80.621094 27.480469 80.578125 27.28125 80.578125 27.074219 C 80.578125 26.867188 80.621094 26.667969 80.699219 26.472656 C 80.777344 26.28125 80.890625 26.113281 81.039062 25.964844 C 81.1875 25.820312 81.355469 25.707031 81.546875 25.625 C 81.738281 25.546875 81.941406 25.507812 82.148438 25.507812 C 82.355469 25.507812 82.554688 25.546875 82.746094 25.625 C 82.941406 25.707031 83.109375 25.820312 83.257812 25.964844 C 83.402344 26.113281 83.515625 26.28125 83.597656 26.472656 C 83.675781 26.667969 83.714844 26.867188 83.714844 27.074219 Z M 83.714844 27.074219 " fill-opacity="1" fill-rule="nonzero"/><path fill="#ffffff" d="M 109.660156 50.199219 C 109.660156 50.359375 109.601562 50.492188 109.492188 50.605469 C 109.378906 50.71875 109.242188 50.777344 109.082031 50.777344 C 108.921875 50.777344 108.785156 50.71875 108.675781 50.605469 C 108.5625 50.492188 108.503906 50.359375 108.503906 50.199219 C 108.503906 50.039062 108.5625 49.902344 108.675781 49.789062 C 108.785156 49.675781 108.921875 49.621094 109.082031 49.621094 C 109.242188 49.621094 109.378906 49.675781 109.492188 49.789062 C 109.601562 49.902344 109.660156 50.039062 109.660156 50.199219 Z M 109.660156 50.199219 " fill-opacity="1" fill-rule="nonzero"/><path fill="#ffffff" d="M 54 17.972656 C 54 18.355469 53.925781 18.722656 53.777344 19.078125 C 53.632812 19.429688 53.425781 19.742188 53.152344 20.011719 C 52.882812 20.285156 52.570312 20.492188 52.21875 20.640625 C 51.863281 20.785156 51.496094 20.859375 51.113281 20.859375 C 50.730469 20.859375 50.363281 20.785156 50.011719 20.640625 C 49.65625 20.492188 49.34375 20.285156 49.074219 20.011719 C 48.804688 19.742188 48.59375 19.429688 48.449219 19.078125 C 48.300781 18.722656 48.230469 18.355469 48.230469 17.972656 C 48.230469 17.589844 48.300781 17.222656 48.449219 16.871094 C 48.59375 16.515625 48.804688 16.203125 49.074219 15.933594 C 49.34375 15.664062 49.65625 15.453125 50.011719 15.308594 C 50.363281 15.160156 50.730469 15.089844 51.113281 15.089844 C 51.496094 15.089844 51.863281 15.160156 52.21875 15.308594 C 52.570312 15.453125 52.882812 15.664062 53.152344 15.933594 C 53.425781 16.203125 53.632812 16.515625 53.777344 16.871094 C 53.925781 17.222656 54 17.589844 54 17.972656 Z M 54 17.972656 " fill-opacity="1" fill-rule="nonzero"/><path fill="#ffffff" d="M 75.84375 36.269531 C 75.84375 36.484375 75.800781 36.691406 75.71875 36.890625 C 75.636719 37.085938 75.519531 37.261719 75.371094 37.414062 C 75.21875 37.566406 75.042969 37.683594 74.84375 37.765625 C 74.648438 37.847656 74.441406 37.886719 74.226562 37.886719 C 74.011719 37.886719 73.804688 37.847656 73.605469 37.765625 C 73.410156 37.683594 73.234375 37.566406 73.082031 37.414062 C 72.929688 37.261719 72.8125 37.085938 72.730469 36.890625 C 72.648438 36.691406 72.609375 36.484375 72.609375 36.269531 C 72.609375 36.054688 72.648438 35.847656 72.730469 35.652344 C 72.8125 35.453125 72.929688 35.277344 73.082031 35.125 C 73.234375 34.976562 73.410156 34.859375 73.605469 34.777344 C 73.804688 34.695312 74.011719 34.652344 74.226562 34.652344 C 74.441406 34.652344 74.648438 34.695312 74.84375 34.777344 C 75.042969 34.859375 75.21875 34.976562 75.371094 35.125 C 75.519531 35.277344 75.636719 35.453125 75.71875 35.652344 C 75.800781 35.847656 75.84375 36.054688 75.84375 36.269531 Z M 75.84375 36.269531 " fill-opacity="1" fill-rule="nonzero"/></g></g></g><path fill="#ffffff" d="M 159.601562 76.460938 L 159.601562 102.851562 C 159.601562 103.039062 159.609375 103.222656 159.625 103.402344 C 159.785156 105.1875 160.695312 106.675781 161.984375 107.652344 C 163.53125 108.175781 165.304688 108.085938 166.914062 107.15625 L 179.914062 99.652344 L 186.101562 96.082031 C 168.238281 103.867188 161.128906 88.867188 159.601562 76.460938 Z M 159.601562 76.460938 " fill-opacity="0.2471" fill-rule="nonzero"/><path fill="#ffffff" d="M 217.550781 95.835938 L 200.941406 105.425781 L 186.382812 113.832031 L 167.890625 124.507812 C 165.597656 125.832031 163.074219 125.960938 160.875 125.210938 C 159.042969 123.828125 157.742188 121.710938 157.515625 119.167969 C 157.496094 118.910156 157.484375 118.648438 157.484375 118.382812 L 157.484375 114.210938 C 160.570312 116.449219 164.84375 118.269531 169.722656 116.761719 C 179.574219 113.722656 216.96875 96.113281 217.550781 95.835938 Z M 217.550781 95.835938 " fill-opacity="0.32" fill-rule="nonzero"/><g fill="#d11d4d" fill-opacity="1"><g transform="translate(128.940114, 275.932396)"><g><path d="M 13.609375 0 L 2.375 0 L 10.984375 -44.953125 L 22.21875 -44.953125 Z M 13.609375 0 "/></g></g></g><g fill="#d11d4d" fill-opacity="1"><g 
transform="translate(149.357928, 275.932396)"><g><path d="M 27.234375 -25.046875 L 51.890625 -25.046875 L 50.984375 -20.03125 C 50.304688 -16.175781 48.84375 -12.664062 46.59375 -9.5 C 44.34375 -6.332031 41.441406 -3.816406 37.890625 -1.953125 C 34.335938 -0.0976562 30.378906 0.828125 26.015625 0.828125 C 21.773438 0.828125 17.953125 -0.0546875 14.546875 -1.828125 C 11.140625 -3.609375 8.453125 -6.09375 6.484375 -9.28125 C 4.515625 -12.46875 3.53125 -16.117188 3.53125 -20.234375 C 3.53125 -24.722656 4.65625 -28.925781 6.90625 -32.84375 C 9.15625 -36.757812 12.28125 -39.894531 16.28125 -42.25 C 20.28125 -44.601562 24.742188 -45.78125 29.671875 -45.78125 C 33.390625 -45.78125 36.800781 -45.09375 39.90625 -43.71875 C 43.007812 -42.351562 45.578125 -40.441406 47.609375 -37.984375 C 49.648438 -35.523438 50.988281 -32.710938 51.625 -29.546875 L 39.6875 -29.546875 C 38.957031 -31.253906 37.710938 -32.71875 35.953125 -33.9375 C 34.203125 -35.15625 31.957031 -35.765625 29.21875 -35.765625 C 26.476562 -35.765625 24.023438 -35.023438 21.859375 -33.546875 C 19.703125 -32.078125 18.015625 -30.175781 16.796875 -27.84375 C 15.578125 -25.507812 14.96875 -23.078125 14.96875 -20.546875 C 14.96875 -17.210938 16.015625 -14.453125 18.109375 -12.265625 C 20.203125 -10.078125 23.09375 -8.984375 26.78125 -8.984375 C 29.5625 -8.984375 32.019531 -9.65625 34.15625 -11 C 36.300781 -12.351562 37.929688 -14.082031 39.046875 -16.1875 L 25.5625 -16.1875 Z M 27.234375 -25.046875 "/></g></g></g><g fill="#d11d4d" fill-opacity="1"><g transform="translate(200.146657, 275.932396)"><g><path d="M 13.609375 0 L 2.375 0 L 10.984375 -44.953125 L 22.21875 -44.953125 Z M 13.609375 0 "/></g></g></g><g fill="#d11d4d" fill-opacity="1"><g transform="translate(220.564471, 275.932396)"><g><path d="M 20.421875 0 L 9.1875 0 L 15.859375 -34.8125 L 4.875 -34.8125 L 6.8125 -44.953125 L 40.015625 -44.953125 L 38.078125 -34.8125 L 27.09375 -34.8125 Z M 20.421875 0 "/></g></g></g><g fill="#d11d4d" fill-opacity="1"><g transform="translate(254.466202, 275.932396)"><g><path d="M 43.546875 0 L 32.4375 0 L 31.078125 -8.796875 L 14.25 -8.796875 L 9.5 0 L -2.5 0 L 23.25 -44.953125 L 35 -44.953125 Z M 29.984375 -18.171875 L 27.421875 -33.78125 L 18.875 -18.171875 Z M 29.984375 -18.171875 "/></g></g></g><g fill="#d11d4d" fill-opacity="1"><g transform="translate(299.347685, 275.932396)"><g><path d="M 30.046875 0 L 2.0625 0 L 10.65625 -44.953125 L 21.90625 -44.953125 L 15.28125 -10.140625 L 32.046875 -10.140625 Z M 30.046875 0 "/></g></g></g><g fill="#d11d4d" fill-opacity="1"><g transform="translate(128.940114, 329.986755)"><g><path d="M 39.75 -44.953125 L 37.953125 -35.390625 L 20.09375 -35.390625 L 18.625 -27.609375 L 35.765625 -27.609375 L 34.03125 -18.296875 L 16.828125 -18.296875 L 15.15625 -9.5625 L 33.65625 -9.5625 L 31.78125 0 L 2.0625 0 L 10.65625 -44.953125 Z M 39.75 -44.953125 "/></g></g></g><g fill="#d11d4d" fill-opacity="1"><g transform="translate(165.346007, 329.986755)"><g><path d="M 2.0625 0 L 10.65625 -44.953125 L 24.78125 -44.953125 C 29.445312 -44.953125 33.523438 -44.113281 37.015625 -42.4375 C 40.503906 -40.769531 43.191406 -38.425781 45.078125 -35.40625 C 46.960938 -32.394531 47.90625 -28.921875 47.90625 -24.984375 C 47.90625 -20.484375 46.84375 -16.328125 44.71875 -12.515625 C 42.601562 -8.710938 39.476562 -5.675781 35.34375 -3.40625 C 31.21875 -1.132812 26.242188 0 20.421875 0 Z M 20.484375 -9.828125 C 24.171875 -9.828125 27.203125 -10.53125 29.578125 -11.9375 C 31.953125 -13.351562 33.691406 -15.160156 34.796875 -17.359375 C 35.910156 -19.566406 36.46875 -21.9375 36.46875 -24.46875 C 36.46875 -27.71875 35.375 -30.304688 33.1875 -32.234375 C 31.007812 -34.160156 27.953125 -35.125 24.015625 -35.125 L 20.09375 -35.125 L 15.21875 -9.828125 Z M 20.484375 -9.828125 "/></g></g></g><g fill="#d11d4d" fill-opacity="1"><g transform="translate(212.667452, 329.986755)"><g><path d="M 13.609375 0 L 2.375 0 L 10.984375 -44.953125 L 22.21875 -44.953125 Z M 13.609375 0 "/></g></g></g><g fill="#d11d4d" fill-opacity="1"><g transform="translate(233.085266, 329.986755)"><g><path d="M 43.546875 0 L 32.4375 0 L 31.078125 -8.796875 L 14.25 -8.796875 L 9.5 0 L -2.5 0 L 23.25 -44.953125 L 35 -44.953125 Z M 29.984375 -18.171875 L 27.421875 -33.78125 L 18.875 -18.171875 Z M 29.984375 -18.171875 "/></g></g></g><g fill="#ffae00" fill-opacity="1"><g transform="translate(58.709836, 273.426959)"><g><path d="M 2.9375 0 L 15.265625 -64.40625 L 35.515625 -64.40625 C 42.203125 -64.40625 48.039062 -63.207031 53.03125 -60.8125 C 58.03125 -58.414062 61.878906 -55.054688 64.578125 -50.734375 C 67.273438 -46.410156 68.625 -41.425781 68.625 -35.78125 C 68.625 -29.34375 67.109375 -23.394531 64.078125 -17.9375 C 61.046875 -12.476562 56.566406 -8.125 50.640625 -4.875 C 44.722656 -1.625 37.59375 0 29.25 0 Z M 29.34375 -14.078125 C 34.625 -14.078125 38.960938 -15.085938 42.359375 -17.109375 C 45.765625 -19.128906 48.265625 -21.71875 49.859375 -24.875 C 51.453125 -28.039062 52.25 -31.429688 52.25 -35.046875 C 52.25 -39.710938 50.6875 -43.425781 47.5625 -46.1875 C 44.4375 -48.945312 40.050781 -50.328125 34.40625 -50.328125 L 28.796875 -50.328125 L 21.796875 -14.078125 Z M 29.34375 -14.078125 "/></g></g></g><g fill="#ffae00" fill-opacity="1"><g transform="translate(39.126916, 351.365803)"><g><path d="M 44.71875 -23.921875 L 69.828125 -64.40625 L 84.09375 -64.40625 L 80.953125 0 L 65.40625 0 L 67.34375 -35.96875 L 44.984375 0 L 36.4375 0 L 28.0625 -36.0625 L 15.921875 0 L 0 0 L 21.890625 -64.40625 L 35.328125 -64.40625 Z M 44.71875 -23.921875 "/></g></g></g></svg>