<?xml version="1.0" encoding="UTF-8"?>
<!DOCTYPE svg PUBLIC "-//W3C//DTD SVG 1.1//EN" "http://www.w3.org/Graphics/SVG/1.1/DTD/svg11.dtd">
<svg xmlns="http://www.w3.org/2000/svg" version="1.1" width="499px" height="499px" style="shape-rendering:geometricPrecision; text-rendering:geometricPrecision; image-rendering:optimizeQuality; fill-rule:evenodd; clip-rule:evenodd" xmlns:xlink="http://www.w3.org/1999/xlink">
<g><path style="opacity:1" fill="#fdfafc" d="M 207.5,102.5 C 242.835,102.333 278.168,102.5 313.5,103C 315.5,103.333 317.5,103.667 319.5,104C 292.33,104.168 265.33,104.668 238.5,105.5C 217.66,105.169 196.993,105.503 176.5,106.5C 169.825,106.666 163.158,106.5 156.5,106C 156.833,105.667 157.167,105.333 157.5,105C 173.804,103.126 190.471,102.292 207.5,102.5 Z"/></g>
<g><path style="opacity:0.497" fill="#f595e5" d="M 325.5,101.5 C 332.072,101.239 338.406,101.906 344.5,103.5C 341.5,103.5 338.5,103.5 335.5,103.5C 331.671,104.069 328.337,103.402 325.5,101.5 Z"/></g>
<g><path style="opacity:0.973" fill="#fdd9f7" d="M 207.5,101.5 C 207.5,101.833 207.5,102.167 207.5,102.5C 190.471,102.292 173.804,103.126 157.5,105C 157.167,105.333 156.833,105.667 156.5,106C 163.158,106.5 169.825,106.666 176.5,106.5C 176.5,106.833 176.5,107.167 176.5,107.5C 176.167,107.5 175.833,107.5 175.5,107.5C 168.492,107.334 161.492,107.5 154.5,108C 153.263,108.232 152.263,108.732 151.5,109.5C 146.122,110.182 141.122,111.848 136.5,114.5C 133.484,114.841 130.818,116.007 128.5,118C 126.035,121.107 123.702,124.274 121.5,127.5C 119.654,129.7 117.988,132.033 116.5,134.5C 115.481,132.54 115.481,130.54 116.5,128.5C 116.5,128.167 116.5,127.833 116.5,127.5C 118.326,125.853 119.66,123.853 120.5,121.5C 123.5,119.167 126.167,116.5 128.5,113.5C 131.079,110.865 134.079,108.699 137.5,107C 143.427,105.352 149.427,104.018 155.5,103C 172.801,101.64 190.135,101.14 207.5,101.5 Z"/></g>
<g><path style="opacity:1" fill="#ffe3fc" d="M 325.5,101.5 C 328.337,103.402 331.671,104.069 335.5,103.5C 338.5,104.093 341.5,104.926 344.5,106C 324.996,106.168 305.662,106.668 286.5,107.5C 283.455,107.492 280.455,107.159 277.5,106.5C 264.677,105.505 251.677,105.171 238.5,105.5C 265.33,104.668 292.33,104.168 319.5,104C 317.5,103.667 315.5,103.333 313.5,103C 278.168,102.5 242.835,102.333 207.5,102.5C 207.5,102.167 207.5,101.833 207.5,101.5C 246.765,100.572 286.098,100.572 325.5,101.5 Z"/></g>
<g><path style="opacity:0.515" fill="#ffbaed" d="M 238.5,105.5 C 251.677,105.171 264.677,105.505 277.5,106.5C 243.837,107.115 210.17,107.448 176.5,107.5C 176.5,107.167 176.5,106.833 176.5,106.5C 196.993,105.503 217.66,105.169 238.5,105.5 Z"/></g>
<g><path style="opacity:0.985" fill="#ffc5ec" d="M 335.5,103.5 C 338.5,103.5 341.5,103.5 344.5,103.5C 348.964,103.598 353.297,104.431 357.5,106C 359.32,106.2 360.653,107.034 361.5,108.5C 358.668,107.9 355.835,107.233 353,106.5C 350.72,106.894 350.22,107.894 351.5,109.5C 349.833,109.5 348.167,109.5 346.5,109.5C 345.048,108.698 343.382,108.198 341.5,108C 335.843,107.501 330.176,107.334 324.5,107.5C 311.833,107.5 299.167,107.5 286.5,107.5C 305.662,106.668 324.996,106.168 344.5,106C 341.5,104.926 338.5,104.093 335.5,103.5 Z"/></g>
<g><path style="opacity:0.035" fill="#f772e0" d="M 175.5,107.5 C 167.665,108.384 159.665,109.05 151.5,109.5C 152.263,108.732 153.263,108.232 154.5,108C 161.492,107.5 168.492,107.334 175.5,107.5 Z"/></g>
<g><path style="opacity:0.114" fill="#f26fc4" d="M 324.5,107.5 C 330.176,107.334 335.843,107.501 341.5,108C 343.382,108.198 345.048,108.698 346.5,109.5C 338.998,109.077 331.665,108.41 324.5,107.5 Z"/></g>
<g><path style="opacity:1" fill="#fdf4fb" d="M 361.5,108.5 C 362.278,109.156 362.944,109.989 363.5,111C 363.167,111.5 362.833,112 362.5,112.5C 359.122,110.621 355.456,109.621 351.5,109.5C 350.22,107.894 350.72,106.894 353,106.5C 355.835,107.233 358.668,107.9 361.5,108.5 Z"/></g>
<g><path style="opacity:0.302" fill="#f88add" d="M 128.5,113.5 C 126.167,116.5 123.5,119.167 120.5,121.5C 122.167,117.833 124.833,115.167 128.5,113.5 Z"/></g>
<g><path style="opacity:0.039" fill="#fcc56e" d="M 331.5,149.5 C 330.833,151.167 330.167,152.833 329.5,154.5C 331.021,142.554 331.688,130.554 331.5,118.5C 313.992,118.17 296.659,118.503 279.5,119.5C 277.5,119.5 275.5,119.5 273.5,119.5C 274.609,118.71 275.942,118.21 277.5,118C 296.176,117.167 314.842,117.334 333.5,118.5C 334.022,128.862 333.355,139.195 331.5,149.5 Z"/></g>
<g><path style="opacity:0.55" fill="#fdefb0" d="M 279.5,119.5 C 296.659,118.503 313.992,118.17 331.5,118.5C 331.688,130.554 331.021,142.554 329.5,154.5C 328.833,158.167 328.167,161.833 327.5,165.5C 327.5,161.167 327.5,156.833 327.5,152.5C 328.425,143.81 329.425,134.977 330.5,126C 330.456,124.236 330.122,122.569 329.5,121C 312.903,119.544 296.237,119.044 279.5,119.5 Z"/></g>
<g><path style="opacity:0.027" fill="#fb85e1" d="M 136.5,114.5 C 130.5,118.5 125.5,123.5 121.5,129.5C 121.5,128.833 121.5,128.167 121.5,127.5C 123.702,124.274 126.035,121.107 128.5,118C 130.818,116.007 133.484,114.841 136.5,114.5 Z"/></g>
<g><path style="opacity:0.314" fill="#fb9ae6" d="M 120.5,121.5 C 119.66,123.853 118.326,125.853 116.5,127.5C 116.845,124.802 118.178,122.802 120.5,121.5 Z"/></g>
<g><path style="opacity:0.731" fill="#fdf3b6" d="M 276.5,123.5 C 293.5,123.5 310.5,123.5 327.5,123.5C 326.946,130.153 326.612,136.82 326.5,143.5C 325.918,146.313 324.918,148.98 323.5,151.5C 324.092,148.873 324.425,146.206 324.5,143.5C 324.906,137.137 325.573,130.803 326.5,124.5C 309.139,124.223 291.805,124.556 274.5,125.5C 275.167,124.833 275.833,124.167 276.5,123.5 Z"/></g>
<g><path style="opacity:1" fill="#fdfde8" d="M 271.5,119.5 C 272.167,119.5 272.833,119.5 273.5,119.5C 275.5,119.5 277.5,119.5 279.5,119.5C 296.237,119.044 312.903,119.544 329.5,121C 330.122,122.569 330.456,124.236 330.5,126C 329.425,134.977 328.425,143.81 327.5,152.5C 327.81,149.287 327.477,146.287 326.5,143.5C 326.612,136.82 326.946,130.153 327.5,123.5C 310.5,123.5 293.5,123.5 276.5,123.5C 272.521,124.465 268.521,124.965 264.5,125C 265.591,123.45 266.924,122.283 268.5,121.5C 269.5,120.833 270.5,120.167 271.5,119.5 Z"/></g>
<g><path style="opacity:0.993" fill="#fdd0f1" d="M 361.5,108.5 C 364.016,108.755 366.35,109.589 368.5,111C 375.549,116.73 380.715,123.896 384,132.5C 384.494,134.134 384.66,135.801 384.5,137.5C 381.57,131.974 380.237,132.64 380.5,139.5C 377.393,128.564 371.06,120.064 361.5,114C 357.939,112.768 354.606,111.268 351.5,109.5C 355.456,109.621 359.122,110.621 362.5,112.5C 362.833,112 363.167,111.5 363.5,111C 362.944,109.989 362.278,109.156 361.5,108.5 Z"/></g>
<g><path style="opacity:0.792" fill="#fdd87c" d="M 324.5,143.5 C 323.857,145.076 322.857,146.41 321.5,147.5C 321.791,141.796 322.458,136.129 323.5,130.5C 323.43,129.228 323.097,128.062 322.5,127C 305.821,125.49 289.155,125.823 272.5,128C 269.454,128.739 266.454,129.572 263.5,130.5C 258.958,131.295 254.958,133.128 251.5,136C 250.552,136.483 249.552,136.649 248.5,136.5C 249.694,135.728 250.694,134.728 251.5,133.5C 258.431,128.947 266.098,126.281 274.5,125.5C 291.805,124.556 309.139,124.223 326.5,124.5C 325.573,130.803 324.906,137.137 324.5,143.5 Z"/></g>
<g><path style="opacity:0.997" fill="#f2afe5" d="M 121.5,127.5 C 121.5,128.167 121.5,128.833 121.5,129.5C 120.056,133.001 118.89,136.668 118,140.5C 117.5,154.163 117.333,167.829 117.5,181.5C 116.508,173.684 116.174,165.684 116.5,157.5C 116.666,150.825 116.5,144.158 116,137.5C 115.292,136.619 114.458,135.953 113.5,135.5C 113.552,132.654 114.552,130.32 116.5,128.5C 115.481,130.54 115.481,132.54 116.5,134.5C 117.988,132.033 119.654,129.7 121.5,127.5 Z"/></g>
<g><path style="opacity:0.298" fill="#ffb959" d="M 263.5,130.5 C 247.758,139.577 235.758,152.243 227.5,168.5C 227.5,166.833 227.5,165.167 227.5,163.5C 227.5,163.167 227.5,162.833 227.5,162.5C 232.548,152.49 239.548,143.823 248.5,136.5C 249.552,136.649 250.552,136.483 251.5,136C 254.958,133.128 258.958,131.295 263.5,130.5 Z"/></g>
<g><path style="opacity:0.675" fill="#fe9b43" d="M 242.5,130.5 C 242.013,131.473 241.513,132.473 241,133.5C 235.707,137.407 230.873,141.74 226.5,146.5C 230.167,139.5 235.5,134.167 242.5,130.5 Z"/></g>
<g><path style="opacity:1" fill="#fef9db" d="M 268.5,121.5 C 266.924,122.283 265.591,123.45 264.5,125C 268.521,124.965 272.521,124.465 276.5,123.5C 275.833,124.167 275.167,124.833 274.5,125.5C 266.098,126.281 258.431,128.947 251.5,133.5C 250.078,133.709 248.745,134.209 247.5,135C 241.801,140.365 236.467,146.031 231.5,152C 230.517,152.591 229.85,152.257 229.5,151C 230.414,149.594 231.08,148.094 231.5,146.5C 235.625,140.874 240.291,135.707 245.5,131C 248.291,129.382 251.291,128.215 254.5,127.5C 258.392,123.892 263.058,121.892 268.5,121.5 Z"/></g>
<g><path style="opacity:0.918" fill="#fbbf67" d="M 271.5,119.5 C 270.5,120.167 269.5,120.833 268.5,121.5C 263.058,121.892 258.392,123.892 254.5,127.5C 251.291,128.215 248.291,129.382 245.5,131C 240.291,135.707 235.625,140.874 231.5,146.5C 227.137,148.879 224.47,152.545 223.5,157.5C 222.015,161.961 220.349,166.295 218.5,170.5C 217.833,171.5 217.167,172.5 216.5,173.5C 217.255,163.435 220.588,154.435 226.5,146.5C 230.873,141.74 235.707,137.407 241,133.5C 241.513,132.473 242.013,131.473 242.5,130.5C 247.597,126.836 253.264,124.003 259.5,122C 263.447,120.846 267.447,120.013 271.5,119.5 Z"/></g>
<g><path style="opacity:1" fill="#fef0b7" d="M 251.5,133.5 C 250.694,134.728 249.694,135.728 248.5,136.5C 239.548,143.823 232.548,152.49 227.5,162.5C 228.135,159.507 228.301,156.507 228,153.5C 226.693,155.192 225.193,156.525 223.5,157.5C 224.47,152.545 227.137,148.879 231.5,146.5C 231.08,148.094 230.414,149.594 229.5,151C 229.85,152.257 230.517,152.591 231.5,152C 236.467,146.031 241.801,140.365 247.5,135C 248.745,134.209 250.078,133.709 251.5,133.5 Z"/></g>
<g><path style="opacity:0.275" fill="#f8c281" d="M 324.5,143.5 C 324.425,146.206 324.092,148.873 323.5,151.5C 322.505,159.804 321.839,168.137 321.5,176.5C 315.5,176.5 309.5,176.5 303.5,176.5C 303.611,175.883 303.944,175.383 304.5,175C 309.019,174.825 313.353,174.325 317.5,173.5C 319.968,165.131 321.302,156.464 321.5,147.5C 322.857,146.41 323.857,145.076 324.5,143.5 Z"/></g>
<g><path style="opacity:0.29" fill="#f9b689" d="M 331.5,149.5 C 330.494,160.683 329.161,171.683 327.5,182.5C 327.5,181.167 327.5,179.833 327.5,178.5C 327.5,174.167 327.5,169.833 327.5,165.5C 328.167,161.833 328.833,158.167 329.5,154.5C 330.167,152.833 330.833,151.167 331.5,149.5 Z"/></g>
<g><path style="opacity:1" fill="#fdfbe5" d="M 227.5,162.5 C 227.5,162.833 227.5,163.167 227.5,163.5C 223.921,166.59 222.587,170.59 223.5,175.5C 221.825,178.507 221.159,181.84 221.5,185.5C 218.667,184.406 217.333,182.239 217.5,179C 217.798,176.152 218.131,173.319 218.5,170.5C 220.349,166.295 222.015,161.961 223.5,157.5C 225.193,156.525 226.693,155.192 228,153.5C 228.301,156.507 228.135,159.507 227.5,162.5 Z"/></g>
<g><path style="opacity:0.39" fill="#fdbbf8" d="M 380.5,139.5 C 382.162,154.3 382.828,169.3 382.5,184.5C 382.5,194.167 382.5,203.833 382.5,213.5C 382.167,213.5 381.833,213.5 381.5,213.5C 380.57,188.85 380.237,164.184 380.5,139.5 Z"/></g>
<g><path style="opacity:1" fill="#fdf4e3" d="M 326.5,143.5 C 327.477,146.287 327.81,149.287 327.5,152.5C 327.5,156.833 327.5,161.167 327.5,165.5C 327.5,169.833 327.5,174.167 327.5,178.5C 326.566,179.568 326.232,180.901 326.5,182.5C 315.162,182.333 303.828,182.5 292.5,183C 290.482,183.505 288.482,184.005 286.5,184.5C 286.804,183.85 287.137,183.183 287.5,182.5C 296.816,181.668 306.149,181.168 315.5,181C 316.624,180.751 317.624,180.251 318.5,179.5C 307.055,177.952 295.721,178.286 284.5,180.5C 286.385,178.689 288.719,177.522 291.5,177C 295.486,176.501 299.486,176.334 303.5,176.5C 309.5,176.5 315.5,176.5 321.5,176.5C 321.839,168.137 322.505,159.804 323.5,151.5C 324.918,148.98 325.918,146.313 326.5,143.5 Z"/></g>
<g><path style="opacity:0.792" fill="#fbbc85" d="M 227.5,163.5 C 227.5,165.167 227.5,166.833 227.5,168.5C 226.868,172.702 225.868,176.702 224.5,180.5C 223.699,178.958 223.366,177.292 223.5,175.5C 222.587,170.59 223.921,166.59 227.5,163.5 Z"/></g>
<g><path style="opacity:0.983" fill="#fef8fc" d="M 384.5,137.5 C 384.5,137.833 384.5,138.167 384.5,138.5C 384.667,157.836 384.5,177.17 384,196.5C 383.824,192.312 383.324,188.312 382.5,184.5C 382.828,169.3 382.162,154.3 380.5,139.5C 380.237,132.64 381.57,131.974 384.5,137.5 Z"/></g>
<g><path style="opacity:0.851" fill="#faa993" d="M 317.5,173.5 C 313.353,174.325 309.019,174.825 304.5,175C 303.944,175.383 303.611,175.883 303.5,176.5C 299.486,176.334 295.486,176.501 291.5,177C 288.719,177.522 286.385,178.689 284.5,180.5C 280.206,181.798 277.206,184.465 275.5,188.5C 274.5,189.167 273.5,189.833 272.5,190.5C 276.314,179.88 283.98,174.38 295.5,174C 302.826,173.5 310.159,173.334 317.5,173.5 Z"/></g>
<g><path style="opacity:1" fill="#fdf9f5" d="M 286.5,184.5 C 281.516,186.484 278.849,190.151 278.5,195.5C 276.227,199.766 274.894,204.433 274.5,209.5C 273.357,203.501 273.357,197.501 274.5,191.5C 275.11,190.609 275.443,189.609 275.5,188.5C 277.206,184.465 280.206,181.798 284.5,180.5C 295.721,178.286 307.055,177.952 318.5,179.5C 317.624,180.251 316.624,180.751 315.5,181C 306.149,181.168 296.816,181.668 287.5,182.5C 287.137,183.183 286.804,183.85 286.5,184.5 Z"/></g>
<g><path style="opacity:1" fill="#fdf1f5" d="M 218.5,170.5 C 218.131,173.319 217.798,176.152 217.5,179C 217.333,182.239 218.667,184.406 221.5,185.5C 221.5,187.5 221.5,189.5 221.5,191.5C 222.145,203.548 221.478,215.215 219.5,226.5C 219.741,223.966 218.741,222.3 216.5,221.5C 216.828,209.655 216.495,197.988 215.5,186.5C 215.231,182.069 215.564,177.735 216.5,173.5C 217.167,172.5 217.833,171.5 218.5,170.5 Z"/></g>
<g><path style="opacity:0.239" fill="#fdb5b3" d="M 327.5,178.5 C 327.5,179.833 327.5,181.167 327.5,182.5C 327.389,183.117 327.056,183.617 326.5,184C 315.167,184.333 303.833,184.667 292.5,185C 285.686,186.649 281.352,190.815 279.5,197.5C 278.662,197.158 278.328,196.492 278.5,195.5C 278.849,190.151 281.516,186.484 286.5,184.5C 288.482,184.005 290.482,183.505 292.5,183C 303.828,182.5 315.162,182.333 326.5,182.5C 326.232,180.901 326.566,179.568 327.5,178.5 Z"/></g>
<g><path style="opacity:0.974" fill="#fbd5f6" d="M 384.5,138.5 C 385.995,149.297 386.829,160.297 387,171.5C 387.5,206.165 387.667,240.832 387.5,275.5C 386.107,269.872 385.107,264.039 384.5,258C 384.316,256.624 383.649,255.791 382.5,255.5C 382.5,241.5 382.5,227.5 382.5,213.5C 382.5,203.833 382.5,194.167 382.5,184.5C 383.324,188.312 383.824,192.312 384,196.5C 384.5,177.17 384.667,157.836 384.5,138.5 Z"/></g>
<g><path style="opacity:0.892" fill="#f7c3b8" d="M 223.5,175.5 C 223.366,177.292 223.699,178.958 224.5,180.5C 224.276,184.179 223.942,187.846 223.5,191.5C 222.833,191.5 222.167,191.5 221.5,191.5C 221.5,189.5 221.5,187.5 221.5,185.5C 221.159,181.84 221.825,178.507 223.5,175.5 Z"/></g>
<g><path style="opacity:0.894" fill="#fff2fe" d="M 113.5,135.5 C 114.458,135.953 115.292,136.619 116,137.5C 116.5,144.158 116.666,150.825 116.5,157.5C 115.501,195.33 115.168,233.33 115.5,271.5C 114.668,245.003 114.168,218.336 114,191.5C 113.617,192.056 113.117,192.389 112.5,192.5C 112.829,177.657 112.496,162.99 111.5,148.5C 112.31,144.224 112.977,139.891 113.5,135.5 Z"/></g>
<g><path style="opacity:0.998" fill="#feeffa" d="M 274.5,191.5 C 273.357,197.501 273.357,203.501 274.5,209.5C 274.894,204.433 276.227,199.766 278.5,195.5C 278.328,196.492 278.662,197.158 279.5,197.5C 278.57,201.4 278.237,205.4 278.5,209.5C 277.517,213.298 277.183,217.298 277.5,221.5C 276.022,221.238 274.689,221.571 273.5,222.5C 274.826,223.642 275.826,224.976 276.5,226.5C 275.167,226.5 273.833,226.5 272.5,226.5C 272.333,215.828 272.5,205.161 273,194.5C 273.232,193.263 273.732,192.263 274.5,191.5 Z"/></g>
<g><path style="opacity:0.031" fill="#e984cc" d="M 278.5,209.5 C 278.5,213.167 278.5,216.833 278.5,220.5C 279.5,220.5 280.5,220.5 281.5,220.5C 280.432,221.434 279.099,221.768 277.5,221.5C 277.183,217.298 277.517,213.298 278.5,209.5 Z"/></g>
<g><path style="opacity:0.263" fill="#e389e6" d="M 381.5,213.5 C 381.833,213.5 382.167,213.5 382.5,213.5C 382.5,227.5 382.5,241.5 382.5,255.5C 382.5,256.167 382.167,256.5 381.5,256.5C 381.47,242.473 381.47,228.14 381.5,213.5 Z"/></g>
<g><path style="opacity:0.993" fill="#fdf9fa" d="M 277.5,221.5 C 294.325,222.497 311.325,222.83 328.5,222.5C 327.117,228.145 326.451,233.979 326.5,240C 326.502,243.352 326.835,246.518 327.5,249.5C 327.5,250.167 327.167,250.5 326.5,250.5C 324.685,256.963 323.185,263.63 322,270.5C 319.578,266.05 320.078,262.05 323.5,258.5C 322.543,252.561 322.21,246.561 322.5,240.5C 322.983,235.902 322.983,231.402 322.5,227C 307.17,226.5 291.837,226.333 276.5,226.5C 275.826,224.976 274.826,223.642 273.5,222.5C 274.689,221.571 276.022,221.238 277.5,221.5 Z"/></g>
<g><path style="opacity:0.993" fill="#fcfafa" d="M 216.5,221.5 C 218.741,222.3 219.741,223.966 219.5,226.5C 204.167,226.5 188.833,226.5 173.5,226.5C 172.671,234.323 172.171,242.323 172,250.5C 171.617,251.056 171.117,251.389 170.5,251.5C 169.126,241.89 168.459,232.223 168.5,222.5C 184.578,222.817 200.578,222.484 216.5,221.5 Z"/></g>
<g><path style="opacity:0.393" fill="#fbbcee" d="M 221.5,191.5 C 222.167,191.5 222.833,191.5 223.5,191.5C 223.821,203.414 223.488,215.247 222.5,227C 221.391,227.638 220.225,228.138 219,228.5C 204.203,227.524 189.369,227.191 174.5,227.5C 174.5,229.5 174.5,231.5 174.5,233.5C 173.532,231.393 173.198,229.059 173.5,226.5C 188.833,226.5 204.167,226.5 219.5,226.5C 221.478,215.215 222.145,203.548 221.5,191.5 Z"/></g>
<g><path style="opacity:0.498" fill="#fbc2f5" d="M 275.5,188.5 C 275.443,189.609 275.11,190.609 274.5,191.5C 273.732,192.263 273.232,193.263 273,194.5C 272.5,205.161 272.333,215.828 272.5,226.5C 273.833,226.5 275.167,226.5 276.5,226.5C 291.837,226.333 307.17,226.5 322.5,227C 322.983,231.402 322.983,235.902 322.5,240.5C 322.167,240.5 321.833,240.5 321.5,240.5C 321.629,236.122 321.629,231.955 321.5,228C 305.918,227.473 290.418,227.64 275,228.5C 273.527,228.097 272.194,227.43 271,226.5C 270.333,215.833 270.333,205.167 271,194.5C 271.41,193.099 271.91,191.766 272.5,190.5C 273.5,189.833 274.5,189.167 275.5,188.5 Z"/></g>
<g><path style="opacity:0.856" fill="#ffbff8" d="M 281.5,220.5 C 297.327,220.178 313.327,220.511 329.5,221.5C 329.493,230.885 328.827,240.219 327.5,249.5C 326.835,246.518 326.502,243.352 326.5,240C 326.451,233.979 327.117,228.145 328.5,222.5C 311.325,222.83 294.325,222.497 277.5,221.5C 279.099,221.768 280.432,221.434 281.5,220.5 Z"/></g>
<g><path style="opacity:0.996" fill="#f9e8fd" d="M 173.5,226.5 C 173.198,229.059 173.532,231.393 174.5,233.5C 174.5,233.833 174.5,234.167 174.5,234.5C 174.334,241.508 174.5,248.508 175,255.5C 175.21,257.058 175.71,258.391 176.5,259.5C 176.5,260.833 176.5,262.167 176.5,263.5C 176.5,268.167 176.5,272.833 176.5,277.5C 174.864,276.251 173.697,274.584 173,272.5C 172.833,274.833 172.667,277.167 172.5,279.5C 172.574,282.287 173.24,284.787 174.5,287C 185.828,287.5 197.162,287.667 208.5,287.5C 212.222,286.68 214.555,288.013 215.5,291.5C 214.711,291.217 214.044,290.717 213.5,290C 199.488,289.833 185.488,289.333 171.5,288.5C 170.833,283.47 170.166,278.47 169.5,273.5C 170.492,266.352 170.825,259.019 170.5,251.5C 171.117,251.389 171.617,251.056 172,250.5C 172.171,242.323 172.671,234.323 173.5,226.5 Z"/></g>
<g><path style="opacity:0.275" fill="#e4b0f6" d="M 116.5,157.5 C 116.174,165.684 116.508,173.684 117.5,181.5C 116.95,227.275 116.95,273.275 117.5,319.5C 116.566,318.432 116.232,317.099 116.5,315.5C 116.583,300.821 116.25,286.154 115.5,271.5C 115.168,233.33 115.501,195.33 116.5,157.5 Z"/></g>
<g><path style="opacity:0.436" fill="#fcbdf9" d="M 174.5,234.5 C 175.678,242.644 176.345,250.978 176.5,259.5C 175.71,258.391 175.21,257.058 175,255.5C 174.5,248.508 174.334,241.508 174.5,234.5 Z"/></g>
<g><path style="opacity:0.368" fill="#fdc1f8" d="M 215.5,186.5 C 216.495,197.988 216.828,209.655 216.5,221.5C 200.578,222.484 184.578,222.817 168.5,222.5C 168.459,232.223 169.126,241.89 170.5,251.5C 170.825,259.019 170.492,266.352 169.5,273.5C 168.886,256.46 168.053,239.46 167,222.5C 168.734,221.751 170.567,221.251 172.5,221C 186.829,220.5 201.163,220.333 215.5,220.5C 215.5,209.167 215.5,197.833 215.5,186.5 Z"/></g>
<g><path style="opacity:0.978" fill="#f6fbfd" d="M 115.5,271.5 C 116.25,286.154 116.583,300.821 116.5,315.5C 115.669,327.326 115.169,339.326 115,351.5C 113.882,346.159 113.048,340.826 112.5,335.5C 112.5,287.833 112.5,240.167 112.5,192.5C 113.117,192.389 113.617,192.056 114,191.5C 114.168,218.336 114.668,245.003 115.5,271.5 Z"/></g>
<g><path style="opacity:0.668" fill="#e7bcf4" d="M 111.5,148.5 C 112.496,162.99 112.829,177.657 112.5,192.5C 112.5,240.167 112.5,287.833 112.5,335.5C 112.737,336.791 112.404,337.791 111.5,338.5C 110.185,275.166 110.185,211.833 111.5,148.5 Z"/></g>
<g><path style="opacity:0.993" fill="#e5d6fc" d="M 321.5,240.5 C 321.833,240.5 322.167,240.5 322.5,240.5C 322.21,246.561 322.543,252.561 323.5,258.5C 320.078,262.05 319.578,266.05 322,270.5C 323.185,263.63 324.685,256.963 326.5,250.5C 326.498,256.523 326.165,262.523 325.5,268.5C 324.191,270.571 323.525,273.071 323.5,276C 323.503,278.69 323.836,281.19 324.5,283.5C 323.911,285.352 323.244,287.185 322.5,289C 308.122,289.183 293.789,289.683 279.5,290.5C 278.5,315.158 278.167,339.824 278.5,364.5C 277.506,355.014 277.173,345.348 277.5,335.5C 277.5,328.5 277.5,321.5 277.5,314.5C 277.5,306.167 277.5,297.833 277.5,289.5C 292.129,287.516 307.129,286.85 322.5,287.5C 322.771,282.087 322.271,276.754 321,271.5C 319.981,273.502 319.148,275.502 318.5,277.5C 319.38,266.153 320.38,254.819 321.5,243.5C 321.5,242.5 321.5,241.5 321.5,240.5 Z"/></g>
<g><path style="opacity:0.406" fill="#f6bdf9" d="M 325.5,268.5 C 325.249,273.507 324.916,278.507 324.5,283.5C 323.836,281.19 323.503,278.69 323.5,276C 323.525,273.071 324.191,270.571 325.5,268.5 Z"/></g>
<g><path style="opacity:0.988" fill="#fcfcfc" d="M 176.5,277.5 C 176.083,280.079 176.75,282.246 178.5,284C 189.5,284.333 200.5,284.667 211.5,285C 210.058,285.377 209.058,286.21 208.5,287.5C 197.162,287.667 185.828,287.5 174.5,287C 173.24,284.787 172.574,282.287 172.5,279.5C 172.667,277.167 172.833,274.833 173,272.5C 173.697,274.584 174.864,276.251 176.5,277.5 Z"/></g>
<g><path style="opacity:0.456" fill="#f2d3fa" d="M 176.5,263.5 C 177.604,268.353 178.604,273.353 179.5,278.5C 191.345,278.172 203.012,278.505 214.5,279.5C 213.051,281.164 211.051,281.998 208.5,282C 209.056,282.383 209.389,282.883 209.5,283.5C 199.828,283.666 190.161,283.5 180.5,283C 180.167,282.667 179.833,282.333 179.5,282C 189.599,281.951 199.599,281.284 209.5,280C 198.251,280.112 187.251,279.278 176.5,277.5C 176.5,272.833 176.5,268.167 176.5,263.5 Z"/></g>
<g><path style="opacity:0.899" fill="#f3dcfc" d="M 321.5,243.5 C 320.38,254.819 319.38,266.153 318.5,277.5C 317.75,281.839 315.083,283.672 310.5,283C 299.167,283.333 287.833,283.667 276.5,284C 274.161,285.989 272.827,288.489 272.5,291.5C 272.5,299.5 272.5,307.5 272.5,315.5C 271.514,319.97 271.181,324.637 271.5,329.5C 271.167,329.5 270.833,329.5 270.5,329.5C 270.721,322.47 270.387,315.47 269.5,308.5C 270.215,301.853 270.715,295.187 271,288.5C 272.679,284.618 275.179,281.452 278.5,279C 291.162,278.5 303.829,278.333 316.5,278.5C 317.648,266.631 319.314,254.965 321.5,243.5 Z"/></g>
<g><path style="opacity:0.929" fill="#ccc3f8" d="M 214.5,279.5 C 219.295,281.482 222.129,285.149 223,290.5C 223.5,300.828 223.666,311.161 223.5,321.5C 223.167,321.5 222.833,321.5 222.5,321.5C 222.5,320.833 222.5,320.167 222.5,319.5C 222.926,309.088 222.426,298.754 221,288.5C 218.468,284.093 214.635,282.426 209.5,283.5C 209.389,282.883 209.056,282.383 208.5,282C 211.051,281.998 213.051,281.164 214.5,279.5 Z"/></g>
<g><path style="opacity:0.992" fill="#fdf9fc" d="M 277.5,289.5 C 276.175,290.953 275.342,290.619 275,288.5C 274.148,289.571 273.315,290.571 272.5,291.5C 272.827,288.489 274.161,285.989 276.5,284C 287.833,283.667 299.167,283.333 310.5,283C 315.083,283.672 317.75,281.839 318.5,277.5C 319.148,275.502 319.981,273.502 321,271.5C 322.271,276.754 322.771,282.087 322.5,287.5C 307.129,286.85 292.129,287.516 277.5,289.5 Z"/></g>
<g><path style="opacity:0.986" fill="#f3f1fe" d="M 176.5,277.5 C 187.251,279.278 198.251,280.112 209.5,280C 199.599,281.284 189.599,281.951 179.5,282C 179.833,282.333 180.167,282.667 180.5,283C 190.161,283.5 199.828,283.666 209.5,283.5C 214.635,282.426 218.468,284.093 221,288.5C 222.426,298.754 222.926,309.088 222.5,319.5C 222.167,319.5 221.833,319.5 221.5,319.5C 221.666,311.16 221.5,302.827 221,294.5C 219.86,291.898 219.027,289.231 218.5,286.5C 217.325,286.281 216.325,286.614 215.5,287.5C 217.029,289.707 217.695,292.207 217.5,295C 216.746,301.814 216.412,308.647 216.5,315.5C 216.5,322.167 216.5,328.833 216.5,335.5C 216.167,335.5 215.833,335.5 215.5,335.5C 215.5,320.833 215.5,306.167 215.5,291.5C 214.555,288.013 212.222,286.68 208.5,287.5C 209.058,286.21 210.058,285.377 211.5,285C 200.5,284.667 189.5,284.333 178.5,284C 176.75,282.246 176.083,280.079 176.5,277.5 Z"/></g>
<g><path style="opacity:0.982" fill="#e2dcfa" d="M 382.5,255.5 C 383.649,255.791 384.316,256.624 384.5,258C 385.107,264.039 386.107,269.872 387.5,275.5C 386.636,295.153 386.303,314.82 386.5,334.5C 385.681,327.666 385.014,320.666 384.5,313.5C 384.167,312.167 383.833,310.833 383.5,309.5C 383.167,309.833 382.833,310.167 382.5,310.5C 381.525,320.447 381.192,330.447 381.5,340.5C 381.167,340.5 380.833,340.5 380.5,340.5C 380.42,312.417 380.753,284.417 381.5,256.5C 382.167,256.5 382.5,256.167 382.5,255.5 Z"/></g>
<g><path style="opacity:0.995" fill="#fafbfd" d="M 277.5,289.5 C 277.5,297.833 277.5,306.167 277.5,314.5C 276.847,318.093 276.014,321.759 275,325.5C 273.648,322.28 272.814,318.947 272.5,315.5C 272.5,307.5 272.5,299.5 272.5,291.5C 273.315,290.571 274.148,289.571 275,288.5C 275.342,290.619 276.175,290.953 277.5,289.5 Z"/></g>
<g><path style="opacity:1" fill="#fbfdfc" d="M 221.5,319.5 C 220.532,321.607 220.198,323.941 220.5,326.5C 219.679,329.641 219.179,332.975 219,336.5C 218.667,336.167 218.333,335.833 218,335.5C 217.828,328.654 217.328,321.987 216.5,315.5C 216.412,308.647 216.746,301.814 217.5,295C 217.695,292.207 217.029,289.707 215.5,287.5C 216.325,286.614 217.325,286.281 218.5,286.5C 219.027,289.231 219.86,291.898 221,294.5C 221.5,302.827 221.666,311.16 221.5,319.5 Z"/></g>
<g><path style="opacity:0.998" fill="#f0fdfe" d="M 277.5,314.5 C 277.5,321.5 277.5,328.5 277.5,335.5C 276.503,353.326 276.17,371.326 276.5,389.5C 275.876,387.166 275.043,384.833 274,382.5C 273.802,384.382 273.302,386.048 272.5,387.5C 272.455,368.161 272.121,348.827 271.5,329.5C 271.181,324.637 271.514,319.97 272.5,315.5C 272.814,318.947 273.648,322.28 275,325.5C 276.014,321.759 276.847,318.093 277.5,314.5 Z"/></g>
<g><path style="opacity:1" fill="#ecfdfe" d="M 386.5,334.5 C 386.5,335.167 386.167,335.5 385.5,335.5C 384.496,341.063 383.329,346.73 382,352.5C 381.501,348.514 381.334,344.514 381.5,340.5C 381.192,330.447 381.525,320.447 382.5,310.5C 382.833,310.167 383.167,309.833 383.5,309.5C 383.833,310.833 384.167,312.167 384.5,313.5C 385.014,320.666 385.681,327.666 386.5,334.5 Z"/></g>
<g><path style="opacity:1" fill="#f3fefe" d="M 216.5,315.5 C 217.328,321.987 217.828,328.654 218,335.5C 218.333,335.833 218.667,336.167 219,336.5C 219.179,332.975 219.679,329.641 220.5,326.5C 220.833,346.844 220.5,367.178 219.5,387.5C 218.025,370.187 217.025,352.854 216.5,335.5C 216.5,328.833 216.5,322.167 216.5,315.5 Z"/></g>
<g><path style="opacity:0.816" fill="#c0f7fe" d="M 270.5,329.5 C 270.833,329.5 271.167,329.5 271.5,329.5C 272.121,348.827 272.455,368.161 272.5,387.5C 272.672,388.492 272.338,389.158 271.5,389.5C 270.838,385.534 270.505,381.534 270.5,377.5C 270.5,361.5 270.5,345.5 270.5,329.5 Z"/></g>
<g><path style="opacity:0.917" fill="#c2ecf9" d="M 116.5,315.5 C 116.232,317.099 116.566,318.432 117.5,319.5C 117.333,331.838 117.5,344.171 118,356.5C 119.556,365.211 124.056,371.878 131.5,376.5C 132.754,379.093 134.42,381.427 136.5,383.5C 134.621,383.393 134.288,383.893 135.5,385C 139.253,387.203 142.92,389.369 146.5,391.5C 129.767,387.935 118.934,377.935 114,361.5C 113.012,353.827 112.178,346.16 111.5,338.5C 112.404,337.791 112.737,336.791 112.5,335.5C 113.048,340.826 113.882,346.159 115,351.5C 115.169,339.326 115.669,327.326 116.5,315.5 Z"/></g>
<g><path style="opacity:1" fill="#c0f1fc" d="M 385.5,335.5 C 387.567,350.802 384.4,364.802 376,377.5C 365.969,387.597 353.802,392.93 339.5,393.5C 343.327,392.321 347.327,391.321 351.5,390.5C 351.709,389.914 352.043,389.414 352.5,389C 347.56,389.326 342.56,389.492 337.5,389.5C 342.034,388.51 346.701,387.51 351.5,386.5C 352.77,385.712 353.77,384.712 354.5,383.5C 363.431,380.85 370.431,375.517 375.5,367.5C 379.933,359.033 381.6,350.033 380.5,340.5C 380.833,340.5 381.167,340.5 381.5,340.5C 381.334,344.514 381.501,348.514 382,352.5C 383.329,346.73 384.496,341.063 385.5,335.5 Z"/></g>
<g><path style="opacity:0.643" fill="#68d4f4" d="M 131.5,376.5 C 142.608,383.865 154.941,386.865 168.5,385.5C 168.414,386.496 168.748,387.329 169.5,388C 185.117,389.42 200.784,389.92 216.5,389.5C 203.344,390.496 190.01,390.829 176.5,390.5C 166.822,389.874 157.155,389.041 147.5,388C 143.852,386.511 140.185,385.011 136.5,383.5C 134.42,381.427 132.754,379.093 131.5,376.5 Z"/></g>
<g><path style="opacity:0.988" fill="#2aaff9" d="M 213.5,381.5 C 214.461,383.265 214.795,385.265 214.5,387.5C 208.824,387.666 203.157,387.499 197.5,387C 198.5,386.667 199.5,386.333 200.5,386C 197.305,385.819 194.305,385.319 191.5,384.5C 197.176,384.666 202.843,384.499 208.5,384C 210.452,383.634 212.118,382.801 213.5,381.5 Z"/></g>
<g><path style="opacity:1" fill="#ddfdfe" d="M 221.5,319.5 C 221.833,319.5 222.167,319.5 222.5,319.5C 222.5,320.167 222.5,320.833 222.5,321.5C 222.013,344.497 221.68,367.497 221.5,390.5C 237.833,390.5 254.167,390.5 270.5,390.5C 245.337,391.332 220.003,391.832 194.5,392C 196.058,392.21 197.391,392.71 198.5,393.5C 186.655,393.172 174.988,393.505 163.5,394.5C 157.726,393.575 152.059,392.575 146.5,391.5C 162.156,392.463 177.823,392.629 193.5,392C 187.652,391.827 181.985,391.327 176.5,390.5C 190.01,390.829 203.344,390.496 216.5,389.5C 216.827,380.318 216.493,371.318 215.5,362.5C 215.5,353.5 215.5,344.5 215.5,335.5C 215.833,335.5 216.167,335.5 216.5,335.5C 217.025,352.854 218.025,370.187 219.5,387.5C 220.5,367.178 220.833,346.844 220.5,326.5C 220.198,323.941 220.532,321.607 221.5,319.5 Z"/></g>
<g><path style="opacity:0.969" fill="#37b8f3" d="M 278.5,372.5 C 278.264,375.609 278.597,378.609 279.5,381.5C 279.5,383.833 279.5,386.167 279.5,388.5C 288.582,388.914 297.582,388.414 306.5,387C 306.167,386.667 305.833,386.333 305.5,386C 308.365,385.817 311.031,385.317 313.5,384.5C 327.159,384.387 340.826,384.054 354.5,383.5C 353.77,384.712 352.77,385.712 351.5,386.5C 346.701,387.51 342.034,388.51 337.5,389.5C 331.167,389.5 324.833,389.5 318.5,389.5C 304.833,389.5 291.167,389.5 277.5,389.5C 277.178,383.642 277.511,377.975 278.5,372.5 Z"/></g>
<g><path style="opacity:0.992" fill="#40c3f5" d="M 215.5,362.5 C 216.493,371.318 216.827,380.318 216.5,389.5C 200.784,389.92 185.117,389.42 169.5,388C 168.748,387.329 168.414,386.496 168.5,385.5C 176.316,384.575 183.983,384.241 191.5,384.5C 194.305,385.319 197.305,385.819 200.5,386C 199.5,386.333 198.5,386.667 197.5,387C 203.157,387.499 208.824,387.666 214.5,387.5C 214.795,385.265 214.461,383.265 213.5,381.5C 213.783,380.711 214.283,380.044 215,379.5C 215.499,373.843 215.666,368.176 215.5,362.5 Z"/></g>
<g><path style="opacity:1" fill="#29acf8" d="M 279.5,381.5 C 290.638,384.175 301.971,385.175 313.5,384.5C 311.031,385.317 308.365,385.817 305.5,386C 305.833,386.333 306.167,386.667 306.5,387C 297.582,388.414 288.582,388.914 279.5,388.5C 279.5,386.167 279.5,383.833 279.5,381.5 Z"/></g>
<g><path style="opacity:1" fill="#43c8f1" d="M 223.5,370.5 C 223.298,372.95 223.631,375.283 224.5,377.5C 223.217,380.365 223.217,383.365 224.5,386.5C 239.485,387.499 254.485,387.833 269.5,387.5C 269.795,385.265 269.461,383.265 268.5,381.5C 268.989,380.005 269.655,378.671 270.5,377.5C 270.505,381.534 270.838,385.534 271.5,389.5C 255.167,389.5 238.833,389.5 222.5,389.5C 222.177,382.978 222.51,376.645 223.5,370.5 Z"/></g>
<g><path style="opacity:1" fill="#27b4f9" d="M 224.5,377.5 C 224.833,378.167 225.167,378.833 225.5,379.5C 225.083,382.079 225.75,384.246 227.5,386C 240.829,386.5 254.163,386.667 267.5,386.5C 267.433,385.041 267.766,383.708 268.5,382.5C 268.5,382.167 268.5,381.833 268.5,381.5C 269.461,383.265 269.795,385.265 269.5,387.5C 254.485,387.833 239.485,387.499 224.5,386.5C 223.217,383.365 223.217,380.365 224.5,377.5 Z"/></g>
<g><path style="opacity:1" fill="#209bf2" d="M 225.5,379.5 C 230.59,381.605 235.924,382.772 241.5,383C 250.513,383.552 259.513,383.385 268.5,382.5C 267.766,383.708 267.433,385.041 267.5,386.5C 254.163,386.667 240.829,386.5 227.5,386C 225.75,384.246 225.083,382.079 225.5,379.5 Z"/></g>
<g><path style="opacity:1" fill="#91ddf3" d="M 222.5,321.5 C 222.833,321.5 223.167,321.5 223.5,321.5C 223.5,337.833 223.5,354.167 223.5,370.5C 222.51,376.645 222.177,382.978 222.5,389.5C 238.833,389.5 255.167,389.5 271.5,389.5C 271.5,390.167 271.167,390.5 270.5,390.5C 254.167,390.5 237.833,390.5 221.5,390.5C 221.68,367.497 222.013,344.497 222.5,321.5 Z"/></g>
<g><path style="opacity:1" fill="#e8fefe" d="M 136.5,383.5 C 140.185,385.011 143.852,386.511 147.5,388C 157.155,389.041 166.822,389.874 176.5,390.5C 181.985,391.327 187.652,391.827 193.5,392C 177.823,392.629 162.156,392.463 146.5,391.5C 142.92,389.369 139.253,387.203 135.5,385C 134.288,383.893 134.621,383.393 136.5,383.5 Z"/></g>
<g><path style="opacity:1" fill="#c4f6fc" d="M 277.5,335.5 C 277.173,345.348 277.506,355.014 278.5,364.5C 277.629,367.272 277.629,369.938 278.5,372.5C 277.511,377.975 277.178,383.642 277.5,389.5C 291.167,389.5 304.833,389.5 318.5,389.5C 316.708,390.309 314.708,390.809 312.5,391C 301.172,391.5 289.838,391.667 278.5,391.5C 277.167,391.5 276.5,390.833 276.5,389.5C 276.17,371.326 276.503,353.326 277.5,335.5 Z"/></g>
<g><path style="opacity:1" fill="#e8fefe" d="M 339.5,393.5 C 319.167,393.5 298.833,393.5 278.5,393.5C 278.5,392.833 278.5,392.167 278.5,391.5C 289.838,391.667 301.172,391.5 312.5,391C 314.708,390.809 316.708,390.309 318.5,389.5C 324.833,389.5 331.167,389.5 337.5,389.5C 342.56,389.492 347.56,389.326 352.5,389C 352.043,389.414 351.709,389.914 351.5,390.5C 347.327,391.321 343.327,392.321 339.5,393.5 Z"/></g>
<g><path style="opacity:1" fill="#f3fefe" d="M 276.5,389.5 C 276.5,390.833 277.167,391.5 278.5,391.5C 278.5,392.167 278.5,392.833 278.5,393.5C 251.833,393.5 225.167,393.5 198.5,393.5C 197.391,392.71 196.058,392.21 194.5,392C 220.003,391.832 245.337,391.332 270.5,390.5C 271.167,390.5 271.5,390.167 271.5,389.5C 272.338,389.158 272.672,388.492 272.5,387.5C 273.302,386.048 273.802,384.382 274,382.5C 275.043,384.833 275.876,387.166 276.5,389.5 Z"/></g>
<g><path style="opacity:0.901" fill="#afebfc" d="M 163.5,394.5 C 174.988,393.505 186.655,393.172 198.5,393.5C 225.167,393.5 251.833,393.5 278.5,393.5C 298.833,393.5 319.167,393.5 339.5,393.5C 321.347,394.934 303.014,395.934 284.5,396.5C 267.132,395.26 249.799,395.26 232.5,396.5C 214.519,394.591 196.519,394.258 178.5,395.5C 173.595,394.555 168.595,394.221 163.5,394.5 Z"/></g>
<g><path style="opacity:0.141" fill="#65bdf8" d="M 178.5,395.5 C 196.519,394.258 214.519,394.591 232.5,396.5C 214.494,396.441 196.494,396.108 178.5,395.5 Z"/></g>
</svg>
