<?xml version="1.0" encoding="UTF-8"?>
<!DOCTYPE svg PUBLIC "-//W3C//DTD SVG 1.1//EN" "http://www.w3.org/Graphics/SVG/1.1/DTD/svg11.dtd">
<svg xmlns="http://www.w3.org/2000/svg" version="1.1" width="499px" height="500px" style="shape-rendering:geometricPrecision; text-rendering:geometricPrecision; image-rendering:optimizeQuality; fill-rule:evenodd; clip-rule:evenodd" xmlns:xlink="http://www.w3.org/1999/xlink">
<g><path style="opacity:1" fill="#cae2a6" d="M 236.5,42.5 C 246.172,42.3335 255.839,42.5002 265.5,43C 270.434,43.1161 275.1,43.9494 279.5,45.5C 252.743,43.6715 226.077,44.3382 199.5,47.5C 211.468,44.1276 223.801,42.461 236.5,42.5 Z"/></g>
<g><path style="opacity:0.536" fill="#0a1005" d="M 300.5,45.5 C 299.903,46.1386 299.07,46.472 298,46.5C 277.558,41.9339 257.058,40.6005 236.5,42.5C 223.801,42.461 211.468,44.1276 199.5,47.5C 182.817,50.6143 167.15,56.281 152.5,64.5C 148.164,66.332 144.164,68.6654 140.5,71.5C 139.391,71.5569 138.391,71.8902 137.5,72.5C 136.167,72.5 134.833,72.5 133.5,72.5C 173.852,45.4476 218.519,34.2809 267.5,39C 278.686,40.4708 289.686,42.6374 300.5,45.5 Z"/></g>
<g><path style="opacity:1" fill="#d0f39c" d="M 279.5,45.5 C 280.167,45.5 280.833,45.5 281.5,45.5C 281.611,46.1174 281.944,46.6174 282.5,47C 286.147,47.7745 289.814,48.4412 293.5,49C 295.777,50.8951 298.444,52.0618 301.5,52.5C 299.556,53.8509 297.389,54.5176 295,54.5C 279.367,54.0939 263.701,53.0939 248,51.5C 235.118,52.0125 222.285,53.0125 209.5,54.5C 203.963,55.3074 198.463,56.3074 193,57.5C 189.4,57.1188 185.9,56.2855 182.5,55C 188.056,52.0901 193.723,49.5901 199.5,47.5C 226.077,44.3382 252.743,43.6715 279.5,45.5 Z"/></g>
<g><path style="opacity:1" fill="#dbf2d1" d="M 296.5,59.5 C 293.5,59.5 290.5,59.5 287.5,59.5C 284.763,59.5987 282.096,59.2653 279.5,58.5C 278.167,58.5 276.833,58.5 275.5,58.5C 247.944,53.4978 220.611,54.8311 193.5,62.5C 179.506,66.163 166.173,71.4963 153.5,78.5C 156.032,75.6401 159.032,73.3067 162.5,71.5C 166.779,70.0272 170.779,68.0272 174.5,65.5C 179.719,65.0566 184.386,63.2232 188.5,60C 194.995,58.9506 201.329,57.7839 207.5,56.5C 218.581,54.7804 229.748,53.7804 241,53.5C 256.52,54.1273 272.02,55.1273 287.5,56.5C 290.656,57.3838 293.656,58.3838 296.5,59.5 Z"/></g>
<g><path style="opacity:1" fill="#d5f8b9" d="M 281.5,45.5 C 288.999,46.5418 296.332,48.2085 303.5,50.5C 304.974,51.6751 306.64,52.6751 308.5,53.5C 306.997,54.0522 305.331,54.0522 303.5,53.5C 303.773,55.451 303.107,56.951 301.5,58C 303.433,58.2511 305.266,58.7511 307,59.5C 310.161,58.5521 311.994,59.8854 312.5,63.5C 307.253,61.7758 301.92,60.4424 296.5,59.5C 293.656,58.3838 290.656,57.3838 287.5,56.5C 272.02,55.1273 256.52,54.1273 241,53.5C 229.748,53.7804 218.581,54.7804 207.5,56.5C 208.167,55.8333 208.833,55.1667 209.5,54.5C 222.285,53.0125 235.118,52.0125 248,51.5C 263.701,53.0939 279.367,54.0939 295,54.5C 297.389,54.5176 299.556,53.8509 301.5,52.5C 298.444,52.0618 295.777,50.8951 293.5,49C 289.814,48.4412 286.147,47.7745 282.5,47C 281.944,46.6174 281.611,46.1174 281.5,45.5 Z"/></g>
<g><path style="opacity:1" fill="#d5f0a7" d="M 199.5,47.5 C 193.723,49.5901 188.056,52.0901 182.5,55C 185.9,56.2855 189.4,57.1188 193,57.5C 198.463,56.3074 203.963,55.3074 209.5,54.5C 208.833,55.1667 208.167,55.8333 207.5,56.5C 201.329,57.7839 194.995,58.9506 188.5,60C 184.386,63.2232 179.719,65.0566 174.5,65.5C 175.574,64.1154 176.907,62.9487 178.5,62C 177.552,61.5172 176.552,61.3505 175.5,61.5C 175.5,60.5 175.5,59.5 175.5,58.5C 177.429,58.7692 179.095,58.2692 180.5,57C 173.038,57.2609 166.038,59.2609 159.5,63C 157.26,63.977 154.927,64.477 152.5,64.5C 167.15,56.281 182.817,50.6143 199.5,47.5 Z"/></g>
<g><path style="opacity:0.96" fill="#070e08" d="M 275.5,58.5 C 261.744,57.4133 247.744,56.7467 233.5,56.5C 233.227,58.451 233.893,59.951 235.5,61C 232.875,62.3928 232.875,63.5595 235.5,64.5C 220.047,65.8531 204.713,68.5197 189.5,72.5C 188.235,71.5207 186.901,70.5207 185.5,69.5C 187.991,68.4593 187.991,67.6259 185.5,67C 188.758,66.2138 191.424,64.7138 193.5,62.5C 220.611,54.8311 247.944,53.4978 275.5,58.5 Z"/></g>
<g><path style="opacity:0.885" fill="#040805" d="M 275.5,58.5 C 276.833,58.5 278.167,58.5 279.5,58.5C 279.297,60.3904 279.963,61.8904 281.5,63C 286.536,62.6592 290.87,64.1592 294.5,67.5C 296.942,67.7183 299.442,67.7183 302,67.5C 303.171,68.3396 304.338,69.1729 305.5,70C 303.944,70.7202 302.944,71.8868 302.5,73.5C 280.709,67.0131 258.375,64.0131 235.5,64.5C 232.875,63.5595 232.875,62.3928 235.5,61C 233.893,59.951 233.227,58.451 233.5,56.5C 247.744,56.7467 261.744,57.4133 275.5,58.5 Z"/></g>
<g><path style="opacity:1" fill="#d8f39a" d="M 174.5,65.5 C 170.779,68.0272 166.779,70.0272 162.5,71.5C 163.876,69.9184 164.876,68.0851 165.5,66C 165.095,65.0546 164.428,64.3879 163.5,64C 158.938,64.928 154.272,65.7613 149.5,66.5C 149.67,67.8221 149.337,68.9887 148.5,70C 145.883,70.8215 143.216,71.3215 140.5,71.5C 144.164,68.6654 148.164,66.332 152.5,64.5C 154.927,64.477 157.26,63.977 159.5,63C 166.038,59.2609 173.038,57.2609 180.5,57C 179.095,58.2692 177.429,58.7692 175.5,58.5C 175.5,59.5 175.5,60.5 175.5,61.5C 176.552,61.3505 177.552,61.5172 178.5,62C 176.907,62.9487 175.574,64.1154 174.5,65.5 Z"/></g>
<g><path style="opacity:1" fill="#c0edaf" d="M 303.5,50.5 C 317.779,54.2598 331.446,59.5932 344.5,66.5C 345.167,68.1667 345.833,69.8333 346.5,71.5C 347.037,74.1396 346.203,74.1396 344,71.5C 343.667,71.8333 343.333,72.1667 343,72.5C 342.424,70.1484 340.924,69.1484 338.5,69.5C 337.006,69.7092 335.839,70.3759 335,71.5C 327.597,68.5213 320.097,65.8546 312.5,63.5C 311.994,59.8854 310.161,58.5521 307,59.5C 305.266,58.7511 303.433,58.2511 301.5,58C 303.107,56.951 303.773,55.451 303.5,53.5C 305.331,54.0522 306.997,54.0522 308.5,53.5C 306.64,52.6751 304.974,51.6751 303.5,50.5 Z"/></g>
<g><path style="opacity:0.971" fill="#0a0f07" d="M 193.5,62.5 C 191.424,64.7138 188.758,66.2138 185.5,67C 187.991,67.6259 187.991,68.4593 185.5,69.5C 186.901,70.5207 188.235,71.5207 189.5,72.5C 147.111,87.2245 113.444,113.224 88.5,150.5C 86.228,150.089 85.8947,148.922 87.5,147C 87.3699,145.941 86.8699,145.108 86,144.5C 84.907,146.349 83.5737,148.016 82,149.5C 81.6667,149.167 81.3333,148.833 81,148.5C 79.9398,151.439 79.4398,154.439 79.5,157.5C 78.5224,157.023 77.6891,156.357 77,155.5C 76.1065,157.767 74.6065,159.434 72.5,160.5C 77.8231,149.852 84.1564,139.852 91.5,130.5C 104.367,115.245 118.7,101.578 134.5,89.5C 134.833,89.5 135.167,89.5 135.5,89.5C 141.5,85.8333 147.5,82.1667 153.5,78.5C 166.173,71.4963 179.506,66.163 193.5,62.5 Z"/></g>
<g><path style="opacity:1" fill="#defa89" d="M 162.5,71.5 C 157.249,72.4574 152.915,74.9574 149.5,79C 147.189,79.2359 145.189,80.0693 143.5,81.5C 143.351,80.448 143.517,79.448 144,78.5C 149.972,76.0954 149.806,74.0954 143.5,72.5C 140.978,73.762 138.311,74.4287 135.5,74.5C 136.167,73.8333 136.833,73.1667 137.5,72.5C 138.391,71.8902 139.391,71.5569 140.5,71.5C 143.216,71.3215 145.883,70.8215 148.5,70C 149.337,68.9887 149.67,67.8221 149.5,66.5C 154.272,65.7613 158.938,64.928 163.5,64C 164.428,64.3879 165.095,65.0546 165.5,66C 164.876,68.0851 163.876,69.9184 162.5,71.5 Z"/></g>
<g><path style="opacity:1" fill="#bef1bd" d="M 312.5,63.5 C 320.097,65.8546 327.597,68.5213 335,71.5C 335.839,70.3759 337.006,69.7092 338.5,69.5C 340.924,69.1484 342.424,70.1484 343,72.5C 343.333,72.1667 343.667,71.8333 344,71.5C 346.203,74.1396 347.037,74.1396 346.5,71.5C 348.199,71.3398 349.866,71.5065 351.5,72C 353.503,74.0022 355.836,75.5022 358.5,76.5C 359.616,78.8378 360.95,81.0045 362.5,83C 360.863,83.6012 359.197,84.1012 357.5,84.5C 353.723,82.9737 350.056,81.307 346.5,79.5C 334.999,74.2907 323.666,68.9573 312.5,63.5 Z"/></g>
<g><path style="opacity:0.369" fill="#131e15" d="M 236.5,42.5 C 257.058,40.6005 277.558,41.9339 298,46.5C 299.07,46.472 299.903,46.1386 300.5,45.5C 318.221,50.1933 334.888,57.36 350.5,67C 369.088,77.7525 385.421,91.2525 399.5,107.5C 399.5,108.167 399.5,108.833 399.5,109.5C 392.368,102.869 385.368,96.0359 378.5,89C 375.122,85.9854 371.456,83.4854 367.5,81.5C 360.382,75.7669 352.716,70.7669 344.5,66.5C 331.446,59.5932 317.779,54.2598 303.5,50.5C 296.332,48.2085 288.999,46.5418 281.5,45.5C 280.833,45.5 280.167,45.5 279.5,45.5C 275.1,43.9494 270.434,43.1161 265.5,43C 255.839,42.5002 246.172,42.3335 236.5,42.5 Z"/></g>
<g><path style="opacity:1" fill="#e2f877" d="M 143.5,81.5 C 141.342,83.9929 138.676,85.6595 135.5,86.5C 135.5,87.5 135.5,88.5 135.5,89.5C 135.167,89.5 134.833,89.5 134.5,89.5C 132.394,90.7829 130.06,91.6162 127.5,92C 123.214,96.7965 118.548,100.963 113.5,104.5C 114.754,101.907 116.42,99.5732 118.5,97.5C 121.487,96.1743 123.82,94.1743 125.5,91.5C 127.512,90.7717 129.512,89.9383 131.5,89C 134.408,86.5967 136.741,83.7633 138.5,80.5C 138.333,80.1667 138.167,79.8333 138,79.5C 132.565,79.9324 127.399,81.2657 122.5,83.5C 126.553,80.1173 130.886,77.1173 135.5,74.5C 138.311,74.4287 140.978,73.762 143.5,72.5C 149.806,74.0954 149.972,76.0954 144,78.5C 143.517,79.448 143.351,80.448 143.5,81.5 Z"/></g>
<g><path style="opacity:1" fill="#e0f2b4" d="M 162.5,71.5 C 159.032,73.3067 156.032,75.6401 153.5,78.5C 147.5,82.1667 141.5,85.8333 135.5,89.5C 135.5,88.5 135.5,87.5 135.5,86.5C 138.676,85.6595 141.342,83.9929 143.5,81.5C 145.189,80.0693 147.189,79.2359 149.5,79C 152.915,74.9574 157.249,72.4574 162.5,71.5 Z"/></g>
<g><path style="opacity:0.727" fill="#181a04" d="M 133.5,72.5 C 134.833,72.5 136.167,72.5 137.5,72.5C 136.833,73.1667 136.167,73.8333 135.5,74.5C 130.886,77.1173 126.553,80.1173 122.5,83.5C 118.793,85.6885 115.46,88.3552 112.5,91.5C 106.224,96.1072 100.557,101.441 95.5,107.5C 89.7067,113.083 84.3734,119.083 79.5,125.5C 76.5,129.5 73.5,133.5 70.5,137.5C 69.962,135.883 69.6287,134.216 69.5,132.5C 87.3123,108.686 108.646,88.6859 133.5,72.5 Z"/></g>
<g><path style="opacity:1" fill="#e0f45e" d="M 125.5,91.5 C 126.105,89.9743 127.271,88.9743 129,88.5C 129.483,87.552 129.649,86.552 129.5,85.5C 127.712,85.2148 126.045,85.5481 124.5,86.5C 125.744,88.1333 125.244,89.1333 123,89.5C 122.055,89.0946 121.388,88.428 121,87.5C 118.167,88.9387 115.334,90.272 112.5,91.5C 115.46,88.3552 118.793,85.6885 122.5,83.5C 127.399,81.2657 132.565,79.9324 138,79.5C 138.167,79.8333 138.333,80.1667 138.5,80.5C 136.741,83.7633 134.408,86.5967 131.5,89C 129.512,89.9383 127.512,90.7717 125.5,91.5 Z"/></g>
<g><path style="opacity:0.908" fill="#060c0c" d="M 279.5,58.5 C 282.096,59.2653 284.763,59.5987 287.5,59.5C 345.563,73.1939 388.896,106.194 417.5,158.5C 415.735,157.206 413.902,156.206 412,155.5C 411.666,152.064 410.166,149.397 407.5,147.5C 406.05,148.655 405.05,150.155 404.5,152C 406.5,153.324 408.167,154.991 409.5,157C 408.244,157.417 407.577,158.25 407.5,159.5C 383.293,117.624 348.293,88.9573 302.5,73.5C 302.944,71.8868 303.944,70.7202 305.5,70C 304.338,69.1729 303.171,68.3396 302,67.5C 299.442,67.7183 296.942,67.7183 294.5,67.5C 290.87,64.1592 286.536,62.6592 281.5,63C 279.963,61.8904 279.297,60.3904 279.5,58.5 Z"/></g>
<g><path style="opacity:1" fill="#e6fa4e" d="M 125.5,91.5 C 123.82,94.1743 121.487,96.1743 118.5,97.5C 116.42,99.5732 114.754,101.907 113.5,104.5C 113.167,104.5 112.833,104.5 112.5,104.5C 106.88,109.784 101.213,115.117 95.5,120.5C 95.5,118.833 95.5,117.167 95.5,115.5C 99.6971,115.806 101.697,113.806 101.5,109.5C 107.902,108.351 110.236,105.018 108.5,99.5C 105.464,101.036 103.297,103.369 102,106.5C 101.667,106.167 101.333,105.833 101,105.5C 100.417,107.002 99.5836,108.335 98.5,109.5C 97.4728,108.209 96.4728,108.209 95.5,109.5C 95.5,108.833 95.5,108.167 95.5,107.5C 101.776,102.893 107.443,97.5595 112.5,91.5C 115.334,90.272 118.167,88.9387 121,87.5C 121.388,88.428 122.055,89.0946 123,89.5C 125.244,89.1333 125.744,88.1333 124.5,86.5C 126.045,85.5481 127.712,85.2148 129.5,85.5C 129.649,86.552 129.483,87.552 129,88.5C 127.271,88.9743 126.105,89.9743 125.5,91.5 Z"/></g>
<g><path style="opacity:1" fill="#dfecac" d="M 134.5,89.5 C 118.7,101.578 104.367,115.245 91.5,130.5C 91.5,129.5 91.5,128.5 91.5,127.5C 91.5,126.833 91.8333,126.5 92.5,126.5C 99.5075,119.492 106.174,112.158 112.5,104.5C 112.833,104.5 113.167,104.5 113.5,104.5C 118.548,100.963 123.214,96.7965 127.5,92C 130.06,91.6162 132.394,90.7829 134.5,89.5 Z"/></g>
<g><path style="opacity:1" fill="#aee9c6" d="M 344.5,66.5 C 352.716,70.7669 360.382,75.7669 367.5,81.5C 367.511,83.0174 368.177,84.1841 369.5,85C 375.428,87.2602 379.261,91.4269 381,97.5C 382.651,99.2102 384.484,100.544 386.5,101.5C 386.799,103.604 386.466,105.604 385.5,107.5C 384.583,106.873 383.583,106.539 382.5,106.5C 382.123,104.742 381.456,103.075 380.5,101.5C 376.946,99.1059 373.279,96.9392 369.5,95C 364.393,90.2689 358.393,86.7689 351.5,84.5C 349.487,83.0305 347.82,81.3638 346.5,79.5C 350.056,81.307 353.723,82.9737 357.5,84.5C 359.197,84.1012 360.863,83.6012 362.5,83C 360.95,81.0045 359.616,78.8378 358.5,76.5C 355.836,75.5022 353.503,74.0022 351.5,72C 349.866,71.5065 348.199,71.3398 346.5,71.5C 345.833,69.8333 345.167,68.1667 344.5,66.5 Z"/></g>
<g><path style="opacity:1" fill="#dbe970" d="M 112.5,91.5 C 107.443,97.5595 101.776,102.893 95.5,107.5C 100.557,101.441 106.224,96.1072 112.5,91.5 Z"/></g>
<g><path style="opacity:1" fill="#ebfc83" d="M 112.5,104.5 C 106.174,112.158 99.5075,119.492 92.5,126.5C 93.2055,124.328 94.2055,122.328 95.5,120.5C 101.213,115.117 106.88,109.784 112.5,104.5 Z"/></g>
<g><path style="opacity:1" fill="#dcea65" d="M 95.5,107.5 C 95.5,108.167 95.5,108.833 95.5,109.5C 91.532,113.639 87.6987,117.973 84,122.5C 82.871,124.141 81.371,125.141 79.5,125.5C 84.3734,119.083 89.7067,113.083 95.5,107.5 Z"/></g>
<g><path style="opacity:1" fill="#eefb3e" d="M 95.5,120.5 C 94.2055,122.328 93.2055,124.328 92.5,126.5C 91.8333,126.5 91.5,126.833 91.5,127.5C 86.8678,129.377 83.7012,132.71 82,137.5C 78.4713,140.296 76.1379,143.963 75,148.5C 74.3292,149.252 73.4959,149.586 72.5,149.5C 70.9519,149.821 70.2852,150.821 70.5,152.5C 69.5,152.5 68.5,152.5 67.5,152.5C 67.2243,149.148 68.391,146.481 71,144.5C 71.3333,145.167 71.6667,145.833 72,146.5C 71.0798,141.788 72.4131,137.788 76,134.5C 76.9895,131.374 78.1562,128.374 79.5,125.5C 81.371,125.141 82.871,124.141 84,122.5C 87.6987,117.973 91.532,113.639 95.5,109.5C 96.4728,108.209 97.4728,108.209 98.5,109.5C 99.5836,108.335 100.417,107.002 101,105.5C 101.333,105.833 101.667,106.167 102,106.5C 103.297,103.369 105.464,101.036 108.5,99.5C 110.236,105.018 107.902,108.351 101.5,109.5C 101.697,113.806 99.6971,115.806 95.5,115.5C 95.5,117.167 95.5,118.833 95.5,120.5 Z"/></g>
<g><path style="opacity:1" fill="#f2fc79" d="M 91.5,127.5 C 91.5,128.5 91.5,129.5 91.5,130.5C 89.5742,131.242 87.7409,132.242 86,133.5C 80.2305,142.049 74.7305,150.716 69.5,159.5C 70.7476,156.28 71.7476,152.947 72.5,149.5C 73.4959,149.586 74.3292,149.252 75,148.5C 76.1379,143.963 78.4713,140.296 82,137.5C 83.7012,132.71 86.8678,129.377 91.5,127.5 Z"/></g>
<g><path style="opacity:0.965" fill="#06120f" d="M 399.5,107.5 C 418.049,126.911 432.882,148.911 444,173.5C 447.048,180.59 449.215,187.923 450.5,195.5C 449.962,197.117 449.629,198.784 449.5,200.5C 448.651,198.112 447.651,195.779 446.5,193.5C 444.465,184.722 441.465,176.389 437.5,168.5C 437.5,168.167 437.5,167.833 437.5,167.5C 427.617,146.295 414.95,126.961 399.5,109.5C 399.5,108.833 399.5,108.167 399.5,107.5 Z"/></g>
<g><path style="opacity:1" fill="#caf0e6" d="M 287.5,59.5 C 290.5,59.5 293.5,59.5 296.5,59.5C 301.92,60.4424 307.253,61.7758 312.5,63.5C 323.666,68.9573 334.999,74.2907 346.5,79.5C 347.82,81.3638 349.487,83.0305 351.5,84.5C 358.393,86.7689 364.393,90.2689 369.5,95C 373.279,96.9392 376.946,99.1059 380.5,101.5C 381.456,103.075 382.123,104.742 382.5,106.5C 386.845,110.057 391.012,114.057 395,118.5C 395.49,119.793 395.657,121.127 395.5,122.5C 396.552,122.351 397.552,122.517 398.5,123C 403.413,127.994 406.913,133.828 409,140.5C 413.813,144.815 417.647,149.815 420.5,155.5C 423.715,162.262 427.215,168.928 431,175.5C 431.333,177.833 431.667,180.167 432,182.5C 434.189,185.523 435.689,188.856 436.5,192.5C 437.088,197.808 438.421,202.808 440.5,207.5C 442.151,220.104 442.818,232.77 442.5,245.5C 442.427,254.189 441.927,262.855 441,271.5C 440.503,269.19 440.337,266.857 440.5,264.5C 443.167,233.818 438.501,204.485 426.5,176.5C 424.535,169.903 421.535,163.903 417.5,158.5C 388.896,106.194 345.563,73.1939 287.5,59.5 Z"/></g>
<g><path style="opacity:0.979" fill="#0f1105" d="M 201.5,149.5 C 202.172,151.668 203.672,153.001 206,153.5C 211.845,152.771 217.512,151.437 223,149.5C 232.915,149.528 242.748,150.194 252.5,151.5C 242.652,151.173 232.986,151.506 223.5,152.5C 218.609,152.532 213.943,153.199 209.5,154.5C 206.572,154.565 203.905,155.232 201.5,156.5C 196.492,156.006 191.826,154.339 187.5,151.5C 187.167,151.5 186.833,151.5 186.5,151.5C 176.377,144.775 165.377,139.609 153.5,136C 149.167,135.333 144.833,135.333 140.5,136C 138.859,137.129 137.859,138.629 137.5,140.5C 135.349,144.497 134.016,148.83 133.5,153.5C 132.096,158.599 131.429,163.932 131.5,169.5C 131.98,177.189 132.646,184.855 133.5,192.5C 129.749,196.995 126.749,201.995 124.5,207.5C 123.433,209.964 122.1,212.297 120.5,214.5C 121.354,209.666 122.687,204.999 124.5,200.5C 128.218,197.514 130.552,193.681 131.5,189C 128.72,175.082 129.054,161.249 132.5,147.5C 132.154,146.304 131.654,146.304 131,147.5C 129.956,149.715 129.29,152.048 129,154.5C 128.617,153.944 128.117,153.611 127.5,153.5C 129.631,130.257 141.631,123.091 163.5,132C 174.558,136.089 184.891,141.422 194.5,148C 196.74,148.977 199.073,149.477 201.5,149.5 Z"/></g>
<g><path style="opacity:1" fill="#e5ed77" d="M 186.5,151.5 C 182.809,151.342 179.476,150.342 176.5,148.5C 173.216,147.74 170.549,145.907 168.5,143C 163.006,141.299 157.673,139.299 152.5,137C 146.693,135.461 141.693,136.628 137.5,140.5C 137.859,138.629 138.859,137.129 140.5,136C 144.833,135.333 149.167,135.333 153.5,136C 165.377,139.609 176.377,144.775 186.5,151.5 Z"/></g>
<g><path style="opacity:1" fill="#95d2bd" d="M 367.5,81.5 C 371.456,83.4854 375.122,85.9854 378.5,89C 385.368,96.0359 392.368,102.869 399.5,109.5C 414.95,126.961 427.617,146.295 437.5,167.5C 434.804,165.149 432.804,162.149 431.5,158.5C 430.302,158.06 429.135,157.727 428,157.5C 426.279,153.057 424.279,148.724 422,144.5C 420.581,143.54 419.081,142.707 417.5,142C 417.957,141.586 418.291,141.086 418.5,140.5C 415.653,138.133 413.82,135.133 413,131.5C 410.312,128.978 407.479,126.644 404.5,124.5C 402.511,120.205 400.844,115.872 399.5,111.5C 396.033,111.554 393.366,110.054 391.5,107C 390.207,106.51 388.873,106.343 387.5,106.5C 387.784,104.585 387.451,102.919 386.5,101.5C 384.484,100.544 382.651,99.2102 381,97.5C 379.261,91.4269 375.428,87.2602 369.5,85C 368.177,84.1841 367.511,83.0174 367.5,81.5 Z"/></g>
<g><path style="opacity:1" fill="#e8ecb3" d="M 91.5,130.5 C 84.1564,139.852 77.8231,149.852 72.5,160.5C 68.9118,166.675 65.5785,173.009 62.5,179.5C 61.1429,180.59 60.1429,181.924 59.5,183.5C 59.3433,182.127 59.51,180.793 60,179.5C 64.2889,173.374 67.4555,166.708 69.5,159.5C 74.7305,150.716 80.2305,142.049 86,133.5C 87.7409,132.242 89.5742,131.242 91.5,130.5 Z"/></g>
<g><path style="opacity:1" fill="#f5fa48" d="M 176.5,148.5 C 176.038,149.88 175.038,150.547 173.5,150.5C 170.535,149.588 167.535,149.588 164.5,150.5C 163.552,146.621 161.219,145.621 157.5,147.5C 155.708,147.634 154.042,147.301 152.5,146.5C 145.952,142.7 142.786,144.7 143,152.5C 141.715,155.999 139.715,158.999 137,161.5C 135.025,159.83 134.191,157.664 134.5,155C 135.935,150.328 136.935,145.495 137.5,140.5C 141.693,136.628 146.693,135.461 152.5,137C 157.673,139.299 163.006,141.299 168.5,143C 170.549,145.907 173.216,147.74 176.5,148.5 Z"/></g>
<g><path style="opacity:0.901" fill="#060f0e" d="M 365.5,159.5 C 364.504,159.414 363.671,159.748 363,160.5C 362.283,164.045 362.45,167.545 363.5,171C 361.394,175.051 360.061,179.218 359.5,183.5C 360.444,172.847 360.61,162.181 360,151.5C 358.387,143.608 353.554,139.942 345.5,140.5C 340.224,140.741 335.224,141.741 330.5,143.5C 317.643,147.678 305.477,153.345 294,160.5C 280.519,155.904 266.686,152.904 252.5,151.5C 242.748,150.194 232.915,149.528 223,149.5C 217.512,151.437 211.845,152.771 206,153.5C 203.672,153.001 202.172,151.668 201.5,149.5C 206.096,148.532 210.763,147.699 215.5,147C 232.5,146.333 249.5,146.333 266.5,147C 274.91,148.527 283.243,150.36 291.5,152.5C 292.833,152.333 294.167,152.167 295.5,152C 310.504,141.998 327.004,136.165 345,134.5C 354.924,134.295 361.257,138.962 364,148.5C 364.548,152.17 365.048,155.837 365.5,159.5 Z"/></g>
<g><path style="opacity:1" fill="#e3e68a" d="M 152.5,146.5 C 154.042,147.301 155.708,147.634 157.5,147.5C 163.773,150.551 170.107,153.718 176.5,157C 177.381,157.708 178.047,158.542 178.5,159.5C 169.223,154.699 159.556,150.699 149.5,147.5C 146.829,149.764 145.496,152.764 145.5,156.5C 144.833,157.5 144.167,158.5 143.5,159.5C 144.167,155.167 144.833,150.833 145.5,146.5C 147.833,146.5 150.167,146.5 152.5,146.5 Z"/></g>
<g><path style="opacity:1" fill="#a0e3c5" d="M 350.5,176.5 C 350.831,168.472 350.498,160.472 349.5,152.5C 338.856,151.396 328.856,153.563 319.5,159C 317.5,159.333 315.5,159.667 313.5,160C 307.216,164.302 300.716,168.135 294,171.5C 282.527,167.067 270.694,163.734 258.5,161.5C 255.956,162.279 253.622,163.279 251.5,164.5C 243.833,164.5 236.167,164.5 228.5,164.5C 233.658,163.542 238.991,162.875 244.5,162.5C 252.038,163.323 254.038,160.49 250.5,154C 241.568,152.619 232.568,152.119 223.5,152.5C 232.986,151.506 242.652,151.173 252.5,151.5C 266.686,152.904 280.519,155.904 294,160.5C 305.477,153.345 317.643,147.678 330.5,143.5C 337.513,143.165 344.513,142.998 351.5,143C 355.431,146.589 358.098,150.922 359.5,156C 358.779,164.149 358.279,172.316 358,180.5C 357.761,184.387 356.928,188.054 355.5,191.5C 353.023,191.949 351.023,191.283 349.5,189.5C 350.439,185.235 350.772,180.902 350.5,176.5 Z"/></g>
<g><path style="opacity:1" fill="#e8ec94" d="M 187.5,151.5 C 191.826,154.339 196.492,156.006 201.5,156.5C 198.26,157.742 194.926,157.576 191.5,156C 189.365,155.124 188.031,153.624 187.5,151.5 Z"/></g>
<g><path style="opacity:1" fill="#cef397" d="M 239.5,153.5 C 243.54,153.591 247.207,154.758 250.5,157C 249.193,159.48 247.193,160.98 244.5,161.5C 242.833,161.5 241.167,161.5 239.5,161.5C 239.5,158.833 239.5,156.167 239.5,153.5 Z"/></g>
<g><path style="opacity:1" fill="#c5efb1" d="M 223.5,152.5 C 232.568,152.119 241.568,152.619 250.5,154C 254.038,160.49 252.038,163.323 244.5,162.5C 244.5,162.167 244.5,161.833 244.5,161.5C 247.193,160.98 249.193,159.48 250.5,157C 247.207,154.758 243.54,153.591 239.5,153.5C 229.482,153.41 219.482,153.743 209.5,154.5C 213.943,153.199 218.609,152.532 223.5,152.5 Z"/></g>
<g><path style="opacity:0.961" fill="#050c0d" d="M 345.5,206.5 C 346.11,207.391 346.443,208.391 346.5,209.5C 346.966,211.201 346.966,212.701 346.5,214C 352.49,220.632 354.824,228.298 353.5,237C 354.357,237.689 355.023,238.522 355.5,239.5C 353.614,243.831 353.614,247.998 355.5,252C 355.887,255.157 355.387,258.323 354,261.5C 353.333,260.833 352.667,260.167 352,259.5C 351.808,261.577 351.308,263.577 350.5,265.5C 349.583,264.873 348.583,264.539 347.5,264.5C 351.938,243.523 348.105,224.189 336,206.5C 336.427,192.077 337.927,177.744 340.5,163.5C 340.392,162.558 340.059,161.725 339.5,161C 326.18,163.821 313.847,169.154 302.5,177C 299.656,178.424 296.656,179.257 293.5,179.5C 283.871,176.843 274.204,174.343 264.5,172C 251.172,170.389 237.839,170.222 224.5,171.5C 229.1,169.869 234.1,168.869 239.5,168.5C 236.167,167.833 232.833,167.167 229.5,166.5C 242.157,165.601 254.823,165.601 267.5,166.5C 276.767,167.734 285.767,170.067 294.5,173.5C 306.732,166.551 319.399,160.385 332.5,155C 337.442,153.672 342.442,153.339 347.5,154C 348.634,169.639 347.301,185.139 343.5,200.5C 343.361,202.883 344.028,204.883 345.5,206.5 Z"/></g>
<g><path style="opacity:0.939" fill="#05090c" d="M 417.5,158.5 C 421.535,163.903 424.535,169.903 426.5,176.5C 426.374,181.398 427.707,185.731 430.5,189.5C 430.167,190.167 429.833,190.833 429.5,191.5C 431.815,194.025 433.315,197.025 434,200.5C 440.808,231.375 441.308,262.375 435.5,293.5C 434.791,299.003 433.458,304.336 431.5,309.5C 427.701,318.441 423.868,327.441 420,336.5C 416.709,341.238 414.209,346.238 412.5,351.5C 408.895,358.391 404.562,364.725 399.5,370.5C 397.801,370.66 396.134,370.494 394.5,370C 395.731,368.817 395.731,367.651 394.5,366.5C 392.667,368.167 390.833,369.833 389,371.5C 388.086,370.346 387.253,370.513 386.5,372C 388.032,374.034 389.365,376.201 390.5,378.5C 388.955,379.452 387.288,379.785 385.5,379.5C 385.386,377.282 384.72,375.282 383.5,373.5C 422.101,327.46 436.601,274.46 427,214.5C 423.147,195.099 416.647,176.766 407.5,159.5C 407.577,158.25 408.244,157.417 409.5,157C 408.167,154.991 406.5,153.324 404.5,152C 405.05,150.155 406.05,148.655 407.5,147.5C 410.166,149.397 411.666,152.064 412,155.5C 413.902,156.206 415.735,157.206 417.5,158.5 Z"/></g>
<g><path style="opacity:0.872" fill="#0b0e05" d="M 178.5,159.5 C 181.144,161.723 184.144,163.389 187.5,164.5C 192.755,170.047 198.755,170.88 205.5,167C 213.154,165.983 220.821,165.15 228.5,164.5C 236.167,164.5 243.833,164.5 251.5,164.5C 257.051,164.527 262.384,165.194 267.5,166.5C 254.823,165.601 242.157,165.601 229.5,166.5C 232.833,167.167 236.167,167.833 239.5,168.5C 234.1,168.869 229.1,169.869 224.5,171.5C 217.054,172.09 209.721,173.257 202.5,175C 199.167,175.667 195.833,175.667 192.5,175C 179.92,167.792 167.087,160.959 154,154.5C 151.188,156.8 150.022,159.8 150.5,163.5C 151.69,172.198 152.69,180.864 153.5,189.5C 152.849,190.091 152.182,190.757 151.5,191.5C 150.422,186.545 149.589,181.545 149,176.5C 148.586,176.043 148.086,175.709 147.5,175.5C 146.77,177.341 146.103,179.175 145.5,181C 147.018,184.736 148.352,188.57 149.5,192.5C 148.55,196.446 146.216,199.113 142.5,200.5C 144.891,197.838 145.891,194.671 145.5,191C 144.206,179.487 144.206,167.987 145.5,156.5C 145.496,152.764 146.829,149.764 149.5,147.5C 159.556,150.699 169.223,154.699 178.5,159.5 Z"/></g>
<g><path style="opacity:1" fill="#dff480" d="M 239.5,153.5 C 239.5,156.167 239.5,158.833 239.5,161.5C 236.167,161.833 232.833,162.167 229.5,162.5C 231.957,161.755 233.957,160.255 235.5,158C 235.18,156.347 234.18,155.347 232.5,155C 222.138,154.753 211.805,155.253 201.5,156.5C 203.905,155.232 206.572,154.565 209.5,154.5C 219.482,153.743 229.482,153.41 239.5,153.5 Z"/></g>
<g><path style="opacity:0.878" fill="#0a0905" d="M 120.5,214.5 C 120.326,216.861 119.993,219.194 119.5,221.5C 117.549,227.923 116.215,234.589 115.5,241.5C 114.822,251.235 114.155,261.068 113.5,271C 114.973,271.71 115.64,272.876 115.5,274.5C 114.5,274.5 113.5,274.5 112.5,274.5C 105.963,244.597 110.463,216.597 126,190.5C 124.939,178.06 125.439,165.727 127.5,153.5C 128.117,153.611 128.617,153.944 129,154.5C 129.29,152.048 129.956,149.715 131,147.5C 131.654,146.304 132.154,146.304 132.5,147.5C 129.054,161.249 128.72,175.082 131.5,189C 130.552,193.681 128.218,197.514 124.5,200.5C 122.687,204.999 121.354,209.666 120.5,214.5 Z"/></g>
<g><path style="opacity:1" fill="#d9db7d" d="M 178.5,159.5 C 182.222,159.861 185.222,161.528 187.5,164.5C 184.144,163.389 181.144,161.723 178.5,159.5 Z"/></g>
<g><path style="opacity:1" fill="#f1f156" d="M 176.5,148.5 C 179.476,150.342 182.809,151.342 186.5,151.5C 186.833,151.5 187.167,151.5 187.5,151.5C 188.031,153.624 189.365,155.124 191.5,156C 194.926,157.576 198.26,157.742 201.5,156.5C 211.805,155.253 222.138,154.753 232.5,155C 234.18,155.347 235.18,156.347 235.5,158C 233.957,160.255 231.957,161.755 229.5,162.5C 218.639,163.545 207.805,164.878 197,166.5C 193.752,166.06 190.585,165.393 187.5,164.5C 185.222,161.528 182.222,159.861 178.5,159.5C 178.047,158.542 177.381,157.708 176.5,157C 170.107,153.718 163.773,150.551 157.5,147.5C 161.219,145.621 163.552,146.621 164.5,150.5C 167.535,149.588 170.535,149.588 173.5,150.5C 175.038,150.547 176.038,149.88 176.5,148.5 Z"/></g>
<g><path style="opacity:1" fill="#efe751" d="M 79.5,125.5 C 78.1562,128.374 76.9895,131.374 76,134.5C 72.4131,137.788 71.0798,141.788 72,146.5C 71.6667,145.833 71.3333,145.167 71,144.5C 68.391,146.481 67.2243,149.148 67.5,152.5C 68.5,152.5 69.5,152.5 70.5,152.5C 70.2852,150.821 70.9519,149.821 72.5,149.5C 71.7476,152.947 70.7476,156.28 69.5,159.5C 68.1667,159.5 67.5,160.167 67.5,161.5C 65.2598,162.568 63.4264,164.234 62,166.5C 61.6667,166.167 61.3333,165.833 61,165.5C 60.4837,161.62 60.6503,157.62 61.5,153.5C 64.472,148.184 67.472,142.85 70.5,137.5C 73.5,133.5 76.5,129.5 79.5,125.5 Z"/></g>
<g><path style="opacity:1" fill="#e4e892" d="M 239.5,161.5 C 241.167,161.5 242.833,161.5 244.5,161.5C 244.5,161.833 244.5,162.167 244.5,162.5C 238.991,162.875 233.658,163.542 228.5,164.5C 220.821,165.15 213.154,165.983 205.5,167C 198.755,170.88 192.755,170.047 187.5,164.5C 190.585,165.393 193.752,166.06 197,166.5C 207.805,164.878 218.639,163.545 229.5,162.5C 232.833,162.167 236.167,161.833 239.5,161.5 Z"/></g>
<g><path style="opacity:1" fill="#d3c672" d="M 133.5,153.5 C 133.345,166.185 133.678,178.851 134.5,191.5C 134.737,192.791 134.404,193.791 133.5,194.5C 133.5,193.833 133.5,193.167 133.5,192.5C 132.646,184.855 131.98,177.189 131.5,169.5C 131.429,163.932 132.096,158.599 133.5,153.5 Z"/></g>
<g><path style="opacity:0.862" fill="#080a05" d="M 88.5,150.5 C 70.9979,177.482 61.6646,207.149 60.5,239.5C 59.2412,234.421 58.5746,229.421 58.5,224.5C 57.3211,240.212 56.8211,255.879 57,271.5C 55.7912,267.415 54.9578,263.248 54.5,259C 55.4085,247.935 55.4085,236.935 54.5,226C 56.3149,224.3 57.3149,222.134 57.5,219.5C 58.2259,216.042 56.8925,214.375 53.5,214.5C 55.4062,202.541 58.4062,190.875 62.5,179.5C 65.5785,173.009 68.9118,166.675 72.5,160.5C 74.6065,159.434 76.1065,157.767 77,155.5C 77.6891,156.357 78.5224,157.023 79.5,157.5C 79.4398,154.439 79.9398,151.439 81,148.5C 81.3333,148.833 81.6667,149.167 82,149.5C 83.5737,148.016 84.907,146.349 86,144.5C 86.8699,145.108 87.3699,145.941 87.5,147C 85.8947,148.922 86.228,150.089 88.5,150.5 Z"/></g>
<g><path style="opacity:1" fill="#f5e491" d="M 69.5,159.5 C 67.4555,166.708 64.2889,173.374 60,179.5C 59.51,180.793 59.3433,182.127 59.5,183.5C 58.205,187.969 56.5384,192.302 54.5,196.5C 53.8333,196.833 53.1667,197.167 52.5,197.5C 53.2934,193.12 54.2934,188.786 55.5,184.5C 57.3401,181.698 59.0068,178.698 60.5,175.5C 61.9269,170.399 64.2602,165.732 67.5,161.5C 67.5,160.167 68.1667,159.5 69.5,159.5 Z"/></g>
<g><path style="opacity:1" fill="#f5e25f" d="M 137.5,140.5 C 136.935,145.495 135.935,150.328 134.5,155C 134.191,157.664 135.025,159.83 137,161.5C 139.715,158.999 141.715,155.999 143,152.5C 142.786,144.7 145.952,142.7 152.5,146.5C 150.167,146.5 147.833,146.5 145.5,146.5C 144.833,150.833 144.167,155.167 143.5,159.5C 142.883,159.611 142.383,159.944 142,160.5C 140.21,169.475 140.043,178.475 141.5,187.5C 140.732,186.737 140.232,185.737 140,184.5C 139.333,185.833 138.667,185.833 138,184.5C 137.503,186.81 137.337,189.143 137.5,191.5C 136.5,191.5 135.5,191.5 134.5,191.5C 133.678,178.851 133.345,166.185 133.5,153.5C 134.016,148.83 135.349,144.497 137.5,140.5 Z"/></g>
<g><path style="opacity:1" fill="#eed25a" d="M 61.5,153.5 C 60.6503,157.62 60.4837,161.62 61,165.5C 61.3333,165.833 61.6667,166.167 62,166.5C 63.4264,164.234 65.2598,162.568 67.5,161.5C 64.2602,165.732 61.9269,170.399 60.5,175.5C 59.0068,178.698 57.3401,181.698 55.5,184.5C 53.554,186.353 52.054,188.686 51,191.5C 49.7308,190.095 49.2308,188.429 49.5,186.5C 53.2075,179.264 55.5409,171.597 56.5,163.5C 57.6589,159.849 59.3256,156.515 61.5,153.5 Z"/></g>
<g><path style="opacity:1" fill="#f6eb8f" d="M 143.5,159.5 C 143.5,170.167 143.5,180.833 143.5,191.5C 141.824,190.817 141.157,189.483 141.5,187.5C 140.043,178.475 140.21,169.475 142,160.5C 142.383,159.944 142.883,159.611 143.5,159.5 Z"/></g>
<g><path style="opacity:1" fill="#dfc86b" d="M 56.5,163.5 C 55.5409,171.597 53.2075,179.264 49.5,186.5C 48.3088,188.327 46.9755,189.993 45.5,191.5C 48.0996,181.652 51.7663,172.318 56.5,163.5 Z"/></g>
<g><path style="opacity:1" fill="#b7e4d7" d="M 350.5,176.5 C 348.551,186.559 346.885,196.559 345.5,206.5C 344.028,204.883 343.361,202.883 343.5,200.5C 347.301,185.139 348.634,169.639 347.5,154C 342.442,153.339 337.442,153.672 332.5,155C 319.399,160.385 306.732,166.551 294.5,173.5C 285.767,170.067 276.767,167.734 267.5,166.5C 262.384,165.194 257.051,164.527 251.5,164.5C 253.622,163.279 255.956,162.279 258.5,161.5C 270.694,163.734 282.527,167.067 294,171.5C 300.716,168.135 307.216,164.302 313.5,160C 315.5,159.667 317.5,159.333 319.5,159C 328.856,153.563 338.856,151.396 349.5,152.5C 350.498,160.472 350.831,168.472 350.5,176.5 Z"/></g>
<g><path style="opacity:1" fill="#f4c163" d="M 55.5,184.5 C 54.2934,188.786 53.2934,193.12 52.5,197.5C 51.0666,199.519 49.7332,201.686 48.5,204C 47.0563,204.781 45.723,204.614 44.5,203.5C 45.4173,200.242 45.7507,196.909 45.5,193.5C 45.5,192.833 45.5,192.167 45.5,191.5C 46.9755,189.993 48.3088,188.327 49.5,186.5C 49.2308,188.429 49.7308,190.095 51,191.5C 52.054,188.686 53.554,186.353 55.5,184.5 Z"/></g>
<g><path style="opacity:1" fill="#9be0c4" d="M 386.5,101.5 C 387.451,102.919 387.784,104.585 387.5,106.5C 388.873,106.343 390.207,106.51 391.5,107C 393.366,110.054 396.033,111.554 399.5,111.5C 400.844,115.872 402.511,120.205 404.5,124.5C 407.479,126.644 410.312,128.978 413,131.5C 413.82,135.133 415.653,138.133 418.5,140.5C 418.291,141.086 417.957,141.586 417.5,142C 419.081,142.707 420.581,143.54 422,144.5C 424.279,148.724 426.279,153.057 428,157.5C 429.135,157.727 430.302,158.06 431.5,158.5C 432.804,162.149 434.804,165.149 437.5,167.5C 437.5,167.833 437.5,168.167 437.5,168.5C 438.733,173.332 439.567,178.332 440,183.5C 442.956,187.42 444.456,191.92 444.5,197C 444.342,199.149 443.508,200.983 442,202.5C 440.392,198.944 438.559,195.611 436.5,192.5C 435.689,188.856 434.189,185.523 432,182.5C 431.667,180.167 431.333,177.833 431,175.5C 427.215,168.928 423.715,162.262 420.5,155.5C 417.647,149.815 413.813,144.815 409,140.5C 406.913,133.828 403.413,127.994 398.5,123C 397.552,122.517 396.552,122.351 395.5,122.5C 395.657,121.127 395.49,119.793 395,118.5C 391.012,114.057 386.845,110.057 382.5,106.5C 383.583,106.539 384.583,106.873 385.5,107.5C 386.466,105.604 386.799,103.604 386.5,101.5 Z"/></g>
<g><path style="opacity:1" fill="#080706" d="M 153.5,189.5 C 153.543,192.91 153.043,196.243 152,199.5C 136.718,221.308 131.885,245.308 137.5,271.5C 136.167,271.5 134.833,271.5 133.5,271.5C 133.413,277.938 132.58,277.938 131,271.5C 130.362,268.464 130.528,265.464 131.5,262.5C 129.028,255.033 128.028,247.367 128.5,239.5C 128.699,233.037 129.699,226.704 131.5,220.5C 134.629,213.579 138.295,206.912 142.5,200.5C 146.216,199.113 148.55,196.446 149.5,192.5C 148.352,188.57 147.018,184.736 145.5,181C 146.103,179.175 146.77,177.341 147.5,175.5C 148.086,175.709 148.586,176.043 149,176.5C 149.589,181.545 150.422,186.545 151.5,191.5C 152.182,190.757 152.849,190.091 153.5,189.5 Z"/></g>
<g><path style="opacity:1" fill="#f0c268" d="M 141.5,187.5 C 141.157,189.483 141.824,190.817 143.5,191.5C 143.944,195.946 142.277,199.279 138.5,201.5C 127.073,207.641 125.406,205.308 133.5,194.5C 134.404,193.791 134.737,192.791 134.5,191.5C 135.5,191.5 136.5,191.5 137.5,191.5C 137.337,189.143 137.503,186.81 138,184.5C 138.667,185.833 139.333,185.833 140,184.5C 140.232,185.737 140.732,186.737 141.5,187.5 Z"/></g>
<g><path style="opacity:1" fill="#99dacc" d="M 359.5,183.5 C 357.46,189.569 356.626,195.902 357,202.5C 360.321,207.474 362.821,212.807 364.5,218.5C 364.318,220.591 364.652,222.591 365.5,224.5C 365.167,225.5 364.5,226.167 363.5,226.5C 362.205,224.672 361.205,222.672 360.5,220.5C 359.264,221.246 357.93,221.579 356.5,221.5C 354.53,217.183 352.53,212.85 350.5,208.5C 349.15,207.05 347.484,206.383 345.5,206.5C 346.885,196.559 348.551,186.559 350.5,176.5C 350.772,180.902 350.439,185.235 349.5,189.5C 351.023,191.283 353.023,191.949 355.5,191.5C 356.928,188.054 357.761,184.387 358,180.5C 358.279,172.316 358.779,164.149 359.5,156C 358.098,150.922 355.431,146.589 351.5,143C 344.513,142.998 337.513,143.165 330.5,143.5C 335.224,141.741 340.224,140.741 345.5,140.5C 353.554,139.942 358.387,143.608 360,151.5C 360.61,162.181 360.444,172.847 359.5,183.5 Z"/></g>
<g><path style="opacity:1" fill="#f7d5a5" d="M 54.5,196.5 C 53.8086,202.563 52.142,208.229 49.5,213.5C 49.8704,208.024 50.8704,202.691 52.5,197.5C 53.1667,197.167 53.8333,196.833 54.5,196.5 Z"/></g>
<g><path style="opacity:1" fill="#efb375" d="M 45.5,193.5 C 45.7507,196.909 45.4173,200.242 44.5,203.5C 45.723,204.614 47.0563,204.781 48.5,204C 49.7332,201.686 51.0666,199.519 52.5,197.5C 50.8704,202.691 49.8704,208.024 49.5,213.5C 49.5,213.833 49.5,214.167 49.5,214.5C 46.909,215.254 45.0757,216.921 44,219.5C 43.6667,218.833 43.3333,218.167 43,217.5C 42.7583,211.833 42.9249,206.167 43.5,200.5C 43.7215,197.933 44.3882,195.599 45.5,193.5 Z"/></g>
<g><path style="opacity:1" fill="#060e11" d="M 365.5,159.5 C 365.486,172.307 364.153,184.974 361.5,197.5C 380.223,233.262 380.056,268.929 361,304.5C 355.691,312.635 349.524,319.968 342.5,326.5C 343.374,322.967 344.707,319.634 346.5,316.5C 347.167,315.5 347.833,314.5 348.5,313.5C 351.605,310.725 353.938,307.392 355.5,303.5C 367.63,283.776 372.297,262.442 369.5,239.5C 369.536,231.982 367.869,224.982 364.5,218.5C 362.821,212.807 360.321,207.474 357,202.5C 356.626,195.902 357.46,189.569 359.5,183.5C 360.061,179.218 361.394,175.051 363.5,171C 362.45,167.545 362.283,164.045 363,160.5C 363.671,159.748 364.504,159.414 365.5,159.5 Z"/></g>
<g><path style="opacity:1" fill="#94d5c3" d="M 437.5,168.5 C 441.465,176.389 444.465,184.722 446.5,193.5C 448.531,203.053 449.531,212.72 449.5,222.5C 448.15,221.517 447.15,220.184 446.5,218.5C 445.833,218.833 445.167,219.167 444.5,219.5C 443.283,215.349 441.95,211.349 440.5,207.5C 438.421,202.808 437.088,197.808 436.5,192.5C 438.559,195.611 440.392,198.944 442,202.5C 443.508,200.983 444.342,199.149 444.5,197C 444.456,191.92 442.956,187.42 440,183.5C 439.567,178.332 438.733,173.332 437.5,168.5 Z"/></g>
<g><path style="opacity:1" fill="#efb579" d="M 133.5,192.5 C 133.5,193.167 133.5,193.833 133.5,194.5C 125.406,205.308 127.073,207.641 138.5,201.5C 137.37,203.315 136.704,205.315 136.5,207.5C 134.821,207.285 133.821,207.952 133.5,209.5C 131.081,212.673 128.914,216.007 127,219.5C 125.933,218.809 124.766,218.309 123.5,218C 122.941,217.275 122.608,216.442 122.5,215.5C 123.762,212.978 124.429,210.311 124.5,207.5C 126.749,201.995 129.749,196.995 133.5,192.5 Z"/></g>
<g><path style="opacity:1" fill="#e2d1b0" d="M 145.5,156.5 C 144.206,167.987 144.206,179.487 145.5,191C 145.891,194.671 144.891,197.838 142.5,200.5C 138.295,206.912 134.629,213.579 131.5,220.5C 130.833,221.167 130.167,221.833 129.5,222.5C 130.833,218.167 132.167,213.833 133.5,209.5C 133.821,207.952 134.821,207.285 136.5,207.5C 136.704,205.315 137.37,203.315 138.5,201.5C 142.277,199.279 143.944,195.946 143.5,191.5C 143.5,180.833 143.5,170.167 143.5,159.5C 144.167,158.5 144.833,157.5 145.5,156.5 Z"/></g>
<g><path style="opacity:1" fill="#eee5d3" d="M 62.5,179.5 C 58.4062,190.875 55.4062,202.541 53.5,214.5C 51.3383,223.327 50.3383,232.327 50.5,241.5C 49.5104,235.69 49.1771,229.69 49.5,223.5C 49.5,220.833 49.5,218.167 49.5,215.5C 49.5,215.167 49.5,214.833 49.5,214.5C 49.5,214.167 49.5,213.833 49.5,213.5C 52.142,208.229 53.8086,202.563 54.5,196.5C 56.5384,192.302 58.205,187.969 59.5,183.5C 60.1429,181.924 61.1429,180.59 62.5,179.5 Z"/></g>
<g><path style="opacity:1" fill="#e2a080" d="M 43.5,200.5 C 42.9249,206.167 42.7583,211.833 43,217.5C 43.3333,218.167 43.6667,218.833 44,219.5C 45.0757,216.921 46.909,215.254 49.5,214.5C 49.5,214.833 49.5,215.167 49.5,215.5C 48.5058,218.124 47.5058,220.79 46.5,223.5C 44.665,224.122 43.4983,225.456 43,227.5C 42.9428,225.09 41.7761,223.756 39.5,223.5C 39.8286,215.539 41.1619,207.872 43.5,200.5 Z"/></g>
<g><path style="opacity:1" fill="#f3ac8e" d="M 124.5,207.5 C 124.429,210.311 123.762,212.978 122.5,215.5C 122.608,216.442 122.941,217.275 123.5,218C 124.766,218.309 125.933,218.809 127,219.5C 128.914,216.007 131.081,212.673 133.5,209.5C 132.167,213.833 130.833,218.167 129.5,222.5C 127.505,225.429 126.505,228.763 126.5,232.5C 125.732,231.737 125.232,230.737 125,229.5C 124.363,231.303 123.197,232.636 121.5,233.5C 119.855,229.68 119.189,225.68 119.5,221.5C 119.993,219.194 120.326,216.861 120.5,214.5C 122.1,212.297 123.433,209.964 124.5,207.5 Z"/></g>
<g><path style="opacity:1" fill="#99e2dc" d="M 440.5,207.5 C 441.95,211.349 443.283,215.349 444.5,219.5C 445.167,219.167 445.833,218.833 446.5,218.5C 447.15,220.184 448.15,221.517 449.5,222.5C 450.747,229.48 450.747,236.48 449.5,243.5C 449.611,245.648 448.944,245.981 447.5,244.5C 445.84,245.172 444.507,246.172 443.5,247.5C 443.672,246.508 443.338,245.842 442.5,245.5C 442.818,232.77 442.151,220.104 440.5,207.5 Z"/></g>
<g><path style="opacity:1" fill="#8bc7c4" d="M 446.5,193.5 C 447.651,195.779 448.651,198.112 449.5,200.5C 450.663,208.815 451.83,217.149 453,225.5C 453.5,233.493 453.666,241.493 453.5,249.5C 453.167,249.5 452.833,249.5 452.5,249.5C 452.245,247.033 451.245,245.033 449.5,243.5C 450.747,236.48 450.747,229.48 449.5,222.5C 449.531,212.72 448.531,203.053 446.5,193.5 Z"/></g>
<g><path style="opacity:1" fill="#de8c83" d="M 39.5,223.5 C 41.7761,223.756 42.9428,225.09 43,227.5C 43.4983,225.456 44.665,224.122 46.5,223.5C 46.0199,228.822 45.6865,234.155 45.5,239.5C 43.3313,240.082 40.998,240.082 38.5,239.5C 38.5,237.5 38.5,235.5 38.5,233.5C 38.1872,229.958 38.5206,226.625 39.5,223.5 Z"/></g>
<g><path style="opacity:1" fill="#eaa19e" d="M 119.5,221.5 C 119.189,225.68 119.855,229.68 121.5,233.5C 123.197,232.636 124.363,231.303 125,229.5C 125.232,230.737 125.732,231.737 126.5,232.5C 126.5,234.833 126.5,237.167 126.5,239.5C 125.513,244.305 125.179,249.305 125.5,254.5C 124.513,249.695 124.179,244.695 124.5,239.5C 123.167,239.5 121.833,239.5 120.5,239.5C 120.313,237.436 119.813,235.436 119,233.5C 116.778,240.296 115.945,247.296 116.5,254.5C 116.5,255.833 116.5,257.167 116.5,258.5C 116.167,258.5 115.833,258.5 115.5,258.5C 115.5,252.833 115.5,247.167 115.5,241.5C 116.215,234.589 117.549,227.923 119.5,221.5 Z"/></g>
<g><path style="opacity:1" fill="#f6dfdb" d="M 131.5,220.5 C 129.699,226.704 128.699,233.037 128.5,239.5C 127.51,245.645 127.177,251.978 127.5,258.5C 126.51,252.355 126.177,246.022 126.5,239.5C 126.5,237.167 126.5,234.833 126.5,232.5C 126.505,228.763 127.505,225.429 129.5,222.5C 130.167,221.833 130.833,221.167 131.5,220.5 Z"/></g>
<g><path style="opacity:1" fill="#f5b7c4" d="M 49.5,215.5 C 49.5,218.167 49.5,220.833 49.5,223.5C 47.899,244.758 48.5657,266.091 51.5,287.5C 49.2945,279.265 47.6278,270.932 46.5,262.5C 46.5,262.167 46.5,261.833 46.5,261.5C 46.7973,254.08 46.464,246.746 45.5,239.5C 45.6865,234.155 46.0199,228.822 46.5,223.5C 47.5058,220.79 48.5058,218.124 49.5,215.5 Z"/></g>
<g><path style="opacity:1" fill="#8cd6e1" d="M 364.5,218.5 C 367.869,224.982 369.536,231.982 369.5,239.5C 368.518,242.962 368.185,246.629 368.5,250.5C 367.069,250.119 366.236,249.119 366,247.5C 364.092,250.215 362.759,253.215 362,256.5C 362.126,250.412 361.292,244.745 359.5,239.5C 359.714,233.275 358.714,227.275 356.5,221.5C 357.93,221.579 359.264,221.246 360.5,220.5C 361.205,222.672 362.205,224.672 363.5,226.5C 364.5,226.167 365.167,225.5 365.5,224.5C 364.652,222.591 364.318,220.591 364.5,218.5 Z"/></g>
<g><path style="opacity:1" fill="#b9e5eb" d="M 345.5,206.5 C 347.484,206.383 349.15,207.05 350.5,208.5C 352.53,212.85 354.53,217.183 356.5,221.5C 358.714,227.275 359.714,233.275 359.5,239.5C 359.79,252.244 358.957,264.911 357,277.5C 353.299,286.126 349.133,294.459 344.5,302.5C 342.833,304.5 341.167,306.5 339.5,308.5C 338.833,308.5 338.167,308.5 337.5,308.5C 358.133,281.152 362.966,251.152 352,218.5C 350.643,215.102 348.81,212.102 346.5,209.5C 346.443,208.391 346.11,207.391 345.5,206.5 Z"/></g>
<g><path style="opacity:1" fill="#d97a8e" d="M 38.5,233.5 C 38.5,235.5 38.5,237.5 38.5,239.5C 40.998,240.082 43.3313,240.082 45.5,239.5C 46.464,246.746 46.7973,254.08 46.5,261.5C 44.8372,259.562 44.1706,257.228 44.5,254.5C 42.8333,254.5 41.1667,254.5 39.5,254.5C 39.8182,259.032 39.4849,263.366 38.5,267.5C 37.7141,256.518 37.3808,245.518 37.5,234.5C 37.5,233.833 37.8333,233.5 38.5,233.5 Z"/></g>
<g><path style="opacity:1" fill="#ed8e9b" d="M 125.5,254.5 C 125.98,259.822 126.313,265.155 126.5,270.5C 124.937,265.394 123.77,260.061 123,254.5C 122.667,253.833 122.333,253.167 122,252.5C 121.29,253.973 120.124,254.64 118.5,254.5C 118.649,253.448 118.483,252.448 118,251.5C 117.768,252.737 117.268,253.737 116.5,254.5C 115.945,247.296 116.778,240.296 119,233.5C 119.813,235.436 120.313,237.436 120.5,239.5C 121.833,239.5 123.167,239.5 124.5,239.5C 124.179,244.695 124.513,249.695 125.5,254.5 Z"/></g>
<g><path style="opacity:1" fill="#95c6d9" d="M 369.5,239.5 C 372.297,262.442 367.63,283.776 355.5,303.5C 353.952,303.179 353.285,302.179 353.5,300.5C 356.355,298.494 358.521,295.828 360,292.5C 365.652,279.127 368.485,265.127 368.5,250.5C 368.185,246.629 368.518,242.962 369.5,239.5 Z"/></g>
<g><path style="opacity:1" fill="#94d8f0" d="M 359.5,239.5 C 361.292,244.745 362.126,250.412 362,256.5C 362.759,253.215 364.092,250.215 366,247.5C 366.236,249.119 367.069,250.119 368.5,250.5C 368.485,265.127 365.652,279.127 360,292.5C 358.521,295.828 356.355,298.494 353.5,300.5C 353.189,299.522 352.522,298.855 351.5,298.5C 350.5,299.833 349.5,299.833 348.5,298.5C 347.479,300.188 346.145,301.521 344.5,302.5C 349.133,294.459 353.299,286.126 357,277.5C 358.957,264.911 359.79,252.244 359.5,239.5 Z"/></g>
<g><path style="opacity:1" fill="#1e050f" d="M 37.5,234.5 C 37.3808,245.518 37.7141,256.518 38.5,267.5C 38.2322,269.099 38.5655,270.432 39.5,271.5C 40.848,285.209 43.848,298.543 48.5,311.5C 47.3303,309.721 45.6636,308.721 43.5,308.5C 45.3056,304.103 44.639,300.103 41.5,296.5C 36.6234,276.053 35.29,255.387 37.5,234.5 Z"/></g>
<g><path style="opacity:1" fill="#19272a" d="M 426.5,176.5 C 438.501,204.485 443.167,233.818 440.5,264.5C 439.568,274.286 437.901,283.952 435.5,293.5C 441.308,262.375 440.808,231.375 434,200.5C 433.315,197.025 431.815,194.025 429.5,191.5C 429.833,190.833 430.167,190.167 430.5,189.5C 427.707,185.731 426.374,181.398 426.5,176.5 Z"/></g>
<g><path style="opacity:1" fill="#e77097" d="M 126.5,270.5 C 126.5,271.833 126.5,273.167 126.5,274.5C 125.504,274.414 124.671,274.748 124,275.5C 118.96,271.081 116.46,265.414 116.5,258.5C 116.5,257.167 116.5,255.833 116.5,254.5C 117.268,253.737 117.768,252.737 118,251.5C 118.483,252.448 118.649,253.448 118.5,254.5C 120.124,254.64 121.29,253.973 122,252.5C 122.333,253.167 122.667,253.833 123,254.5C 123.77,260.061 124.937,265.394 126.5,270.5 Z"/></g>
<g><path style="opacity:0.997" fill="#091014" d="M 346.5,209.5 C 348.81,212.102 350.643,215.102 352,218.5C 362.966,251.152 358.133,281.152 337.5,308.5C 336.167,309.833 334.833,311.167 333.5,312.5C 333.714,310.856 333.38,309.356 332.5,308C 334.441,307.696 336.107,306.863 337.5,305.5C 338.731,304.349 338.731,303.183 337.5,302C 340.362,300.214 341.028,297.881 339.5,295C 338.423,294.53 337.423,294.697 336.5,295.5C 339.776,289.462 342.609,283.128 345,276.5C 346.359,272.595 347.192,268.595 347.5,264.5C 348.583,264.539 349.583,264.873 350.5,265.5C 351.308,263.577 351.808,261.577 352,259.5C 352.667,260.167 353.333,260.833 354,261.5C 355.387,258.323 355.887,255.157 355.5,252C 353.614,247.998 353.614,243.831 355.5,239.5C 355.023,238.522 354.357,237.689 353.5,237C 354.824,228.298 352.49,220.632 346.5,214C 346.966,212.701 346.966,211.201 346.5,209.5 Z"/></g>
<g><path style="opacity:0.917" fill="#0c0705" d="M 69.5,132.5 C 69.6287,134.216 69.962,135.883 70.5,137.5C 67.472,142.85 64.472,148.184 61.5,153.5C 59.3256,156.515 57.6589,159.849 56.5,163.5C 51.7663,172.318 48.0996,181.652 45.5,191.5C 45.5,192.167 45.5,192.833 45.5,193.5C 44.3882,195.599 43.7215,197.933 43.5,200.5C 41.1619,207.872 39.8286,215.539 39.5,223.5C 38.5206,226.625 38.1872,229.958 38.5,233.5C 37.8333,233.5 37.5,233.833 37.5,234.5C 35.29,255.387 36.6234,276.053 41.5,296.5C 44.639,300.103 45.3056,304.103 43.5,308.5C 45.6636,308.721 47.3303,309.721 48.5,311.5C 48.5,311.833 48.5,312.167 48.5,312.5C 48.9537,315.865 49.6203,319.198 50.5,322.5C 50.4805,323.726 50.1471,324.726 49.5,325.5C 35.1988,291.916 30.3655,256.916 35,220.5C 38.5624,187.761 50.0624,158.428 69.5,132.5 Z"/></g>
<g><path style="opacity:1" fill="#96d7ea" d="M 449.5,243.5 C 451.245,245.033 452.245,247.033 452.5,249.5C 451.685,250.429 450.852,251.429 450,252.5C 449.667,260.167 449.333,267.833 449,275.5C 448.676,277.569 447.842,277.902 446.5,276.5C 446.167,277 445.833,277.5 445.5,278C 444.227,281.267 442.894,284.434 441.5,287.5C 443.098,274.231 443.764,260.897 443.5,247.5C 444.507,246.172 445.84,245.172 447.5,244.5C 448.944,245.981 449.611,245.648 449.5,243.5 Z"/></g>
<g><path style="opacity:1" fill="#d6648e" d="M 46.5,261.5 C 46.5,261.833 46.5,262.167 46.5,262.5C 46.3337,269.175 46.5004,275.842 47,282.5C 48.6619,287.333 49.8286,292.333 50.5,297.5C 48.3579,298.598 47.0246,297.764 46.5,295C 46.8333,294.667 47.1667,294.333 47.5,294C 45.9496,292.004 44.6162,289.838 43.5,287.5C 42.3154,281.423 40.982,276.09 39.5,271.5C 38.5655,270.432 38.2322,269.099 38.5,267.5C 39.4849,263.366 39.8182,259.032 39.5,254.5C 41.1667,254.5 42.8333,254.5 44.5,254.5C 44.1706,257.228 44.8372,259.562 46.5,261.5 Z"/></g>
<g><path style="opacity:1" fill="#ed8cb9" d="M 46.5,262.5 C 47.6278,270.932 49.2945,279.265 51.5,287.5C 54.0134,298.365 57.3468,309.031 61.5,319.5C 60.548,318.548 59.548,317.548 58.5,316.5C 56.7231,311.763 55.0565,306.93 53.5,302C 53.1639,300.97 52.4972,300.47 51.5,300.5C 51.7373,299.209 51.404,298.209 50.5,297.5C 49.8286,292.333 48.6619,287.333 47,282.5C 46.5004,275.842 46.3337,269.175 46.5,262.5 Z"/></g>
<g><path style="opacity:0.989" fill="#0b080c" d="M 53.5,214.5 C 56.8925,214.375 58.2259,216.042 57.5,219.5C 57.3149,222.134 56.3149,224.3 54.5,226C 55.4085,236.935 55.4085,247.935 54.5,259C 54.9578,263.248 55.7912,267.415 57,271.5C 56.8211,255.879 57.3211,240.212 58.5,224.5C 58.5746,229.421 59.2412,234.421 60.5,239.5C 59.405,273.117 67.0717,304.451 83.5,333.5C 84.6733,335.341 84.6733,337.174 83.5,339C 84.9704,341.442 86.3038,343.942 87.5,346.5C 87.3918,347.442 87.0585,348.275 86.5,349C 88.0728,351.4 89.5728,353.9 91,356.5C 91.1554,358.856 91.1554,361.189 91,363.5C 92.5,365 94,366.5 95.5,368C 94.944,368.383 94.6107,368.883 94.5,369.5C 64.1339,332.407 49.4673,289.74 50.5,241.5C 50.3383,232.327 51.3383,223.327 53.5,214.5 Z"/></g>
<g><path style="opacity:1" fill="#8bc1db" d="M 452.5,249.5 C 452.833,249.5 453.167,249.5 453.5,249.5C 453.403,266.68 451.57,283.68 448,300.5C 447.1,303.718 445.933,306.718 444.5,309.5C 442.148,307.776 440.481,305.442 439.5,302.5C 440.903,297.609 441.57,292.609 441.5,287.5C 442.894,284.434 444.227,281.267 445.5,278C 445.833,277.5 446.167,277 446.5,276.5C 447.842,277.902 448.676,277.569 449,275.5C 449.333,267.833 449.667,260.167 450,252.5C 450.852,251.429 451.685,250.429 452.5,249.5 Z"/></g>
<g><path style="opacity:1" fill="#d16793" d="M 115.5,258.5 C 115.833,258.5 116.167,258.5 116.5,258.5C 116.46,265.414 118.96,271.081 124,275.5C 124.671,274.748 125.504,274.414 126.5,274.5C 126.34,276.199 126.506,277.866 127,279.5C 130.015,284.524 132.182,289.858 133.5,295.5C 131.761,294.566 130.095,294.566 128.5,295.5C 130.47,301.106 132.803,306.439 135.5,311.5C 129.836,305.524 125.669,298.524 123,290.5C 119.238,280.118 116.738,269.451 115.5,258.5 Z"/></g>
<g><path style="opacity:1" fill="#c0e5f0" d="M 442.5,245.5 C 443.338,245.842 443.672,246.508 443.5,247.5C 443.764,260.897 443.098,274.231 441.5,287.5C 441.57,292.609 440.903,297.609 439.5,302.5C 438.188,305.615 436.522,308.615 434.5,311.5C 433.442,312.6 432.608,313.934 432,315.5C 431.31,316.738 430.81,316.738 430.5,315.5C 430.833,313.5 431.167,311.5 431.5,309.5C 433.458,304.336 434.791,299.003 435.5,293.5C 437.901,283.952 439.568,274.286 440.5,264.5C 440.337,266.857 440.503,269.19 441,271.5C 441.927,262.855 442.427,254.189 442.5,245.5 Z"/></g>
<g><path style="opacity:1" fill="#e699c0" d="M 126.5,270.5 C 127.117,270.611 127.617,270.944 128,271.5C 130.852,280.894 134.019,290.227 137.5,299.5C 136.167,298.167 134.833,296.833 133.5,295.5C 132.182,289.858 130.015,284.524 127,279.5C 126.506,277.866 126.34,276.199 126.5,274.5C 126.5,273.167 126.5,271.833 126.5,270.5 Z"/></g>
<g><path style="opacity:0.934" fill="#0b090e" d="M 128.5,239.5 C 128.028,247.367 129.028,255.033 131.5,262.5C 130.528,265.464 130.362,268.464 131,271.5C 132.58,277.938 133.413,277.938 133.5,271.5C 134.833,271.5 136.167,271.5 137.5,271.5C 143.801,294.966 158.468,310.466 181.5,318C 191.392,320.312 201.392,321.978 211.5,323C 219.828,326.628 222.328,332.794 219,341.5C 218.148,342.571 217.315,343.571 216.5,344.5C 215.065,341.972 214.065,339.305 213.5,336.5C 212.327,334.496 210.66,332.996 208.5,332C 160.195,330.513 133.195,306.013 127.5,258.5C 127.177,251.978 127.51,245.645 128.5,239.5 Z"/></g>
<g><path style="opacity:1" fill="#e16aa3" d="M 133.5,295.5 C 134.833,296.833 136.167,298.167 137.5,299.5C 137.857,301.589 138.523,303.589 139.5,305.5C 142.889,309.891 146.889,313.558 151.5,316.5C 154.061,318.677 154.061,320.844 151.5,323C 154.063,323.763 154.063,324.263 151.5,324.5C 146.223,321.55 141.556,317.883 137.5,313.5C 136.5,313.167 135.833,312.5 135.5,311.5C 132.803,306.439 130.47,301.106 128.5,295.5C 130.095,294.566 131.761,294.566 133.5,295.5 Z"/></g>
<g><path style="opacity:1" fill="#efa0cb" d="M 137.5,299.5 C 142.784,305.12 148.117,310.787 153.5,316.5C 152.833,316.5 152.167,316.5 151.5,316.5C 146.889,313.558 142.889,309.891 139.5,305.5C 138.523,303.589 137.857,301.589 137.5,299.5 Z"/></g>
<g><path style="opacity:0.906" fill="#070a0e" d="M 333.5,312.5 C 323.244,322.631 310.911,329.131 296.5,332C 288.536,333.55 280.536,334.883 272.5,336C 270.574,336.422 269.574,337.589 269.5,339.5C 268.007,340.312 267.34,341.645 267.5,343.5C 267.709,344.994 268.376,346.161 269.5,347C 269.167,347.333 268.833,347.667 268.5,348C 270.25,349.754 270.917,351.921 270.5,354.5C 269.5,354.5 268.5,354.5 267.5,354.5C 264.631,349.736 262.631,344.569 261.5,339C 262.051,335.345 263.385,332.011 265.5,329C 280.239,325.795 294.906,322.128 309.5,318C 320.178,312.487 329.178,304.987 336.5,295.5C 337.423,294.697 338.423,294.53 339.5,295C 341.028,297.881 340.362,300.214 337.5,302C 338.731,303.183 338.731,304.349 337.5,305.5C 336.107,306.863 334.441,307.696 332.5,308C 333.38,309.356 333.714,310.856 333.5,312.5 Z"/></g>
<g><path style="opacity:0.749" fill="#090f16" d="M 450.5,195.5 C 452.465,201.596 453.965,207.929 455,214.5C 460.583,255.496 455.916,295.163 441,333.5C 436.102,342.961 430.935,352.294 425.5,361.5C 424.904,360.065 424.904,358.398 425.5,356.5C 427.757,352.317 429.757,347.984 431.5,343.5C 435.458,336.975 438.458,329.975 440.5,322.5C 442.61,318.498 443.943,314.165 444.5,309.5C 445.933,306.718 447.1,303.718 448,300.5C 451.57,283.68 453.403,266.68 453.5,249.5C 453.666,241.493 453.5,233.493 453,225.5C 451.83,217.149 450.663,208.815 449.5,200.5C 449.629,198.784 449.962,197.117 450.5,195.5 Z"/></g>
<g><path style="opacity:0.486" fill="#110911" d="M 115.5,241.5 C 115.5,247.167 115.5,252.833 115.5,258.5C 116.738,269.451 119.238,280.118 123,290.5C 125.669,298.524 129.836,305.524 135.5,311.5C 135.833,312.5 136.5,313.167 137.5,313.5C 138.882,316.394 140.882,318.894 143.5,321C 157.882,332.522 174.215,339.689 192.5,342.5C 192.009,348.168 190.676,353.502 188.5,358.5C 172.612,362.158 159.112,358.158 148,346.5C 140.785,334.952 131.285,325.785 119.5,319C 114.833,318.333 110.167,318.333 105.5,319C 104.058,319.377 103.058,320.21 102.5,321.5C 100.833,322.5 99.5,323.833 98.5,325.5C 96.8024,330.408 98.1358,334.408 102.5,337.5C 102.833,338.833 103.167,340.167 103.5,341.5C 93.5019,336.338 91.0019,328.672 96,318.5C 105.651,309.086 116.484,307.419 128.5,313.5C 128.833,313.167 129.167,312.833 129.5,312.5C 121.137,301.094 115.471,288.428 112.5,274.5C 113.5,274.5 114.5,274.5 115.5,274.5C 115.64,272.876 114.973,271.71 113.5,271C 114.155,261.068 114.822,251.235 115.5,241.5 Z M 149.5,331.5 C 161.502,336.556 173.835,340.723 186.5,344C 189.2,344.949 190.033,346.783 189,349.5C 177.309,352.102 166.143,350.269 155.5,344C 153.451,341.407 151.285,338.907 149,336.5C 148.36,334.735 148.527,333.068 149.5,331.5 Z"/></g>
<g><path style="opacity:1" fill="#c45a8b" d="M 50.5,297.5 C 51.404,298.209 51.7373,299.209 51.5,300.5C 52.6367,308.374 55.3034,315.708 59.5,322.5C 58.5,322.5 57.5,322.5 56.5,322.5C 57.9843,326.993 58.9843,331.66 59.5,336.5C 55.3023,328.769 51.6356,320.769 48.5,312.5C 48.5,312.167 48.5,311.833 48.5,311.5C 43.848,298.543 40.848,285.209 39.5,271.5C 40.982,276.09 42.3154,281.423 43.5,287.5C 44.6162,289.838 45.9496,292.004 47.5,294C 47.1667,294.333 46.8333,294.667 46.5,295C 47.0246,297.764 48.3579,298.598 50.5,297.5 Z"/></g>
<g><path style="opacity:1" fill="#a4c4ee" d="M 353.5,300.5 C 353.285,302.179 353.952,303.179 355.5,303.5C 353.938,307.392 351.605,310.725 348.5,313.5C 348.5,312.5 348.5,311.5 348.5,310.5C 346.418,310.472 344.584,311.139 343,312.5C 342.667,311.833 342.333,311.167 342,310.5C 339.323,313.343 336.49,316.01 333.5,318.5C 333.5,317.833 333.5,317.167 333.5,316.5C 336.647,314.687 338.647,312.02 339.5,308.5C 341.167,306.5 342.833,304.5 344.5,302.5C 346.145,301.521 347.479,300.188 348.5,298.5C 349.5,299.833 350.5,299.833 351.5,298.5C 352.522,298.855 353.189,299.522 353.5,300.5 Z"/></g>
<g><path style="opacity:1" fill="#d1dcf3" d="M 337.5,308.5 C 338.167,308.5 338.833,308.5 339.5,308.5C 338.647,312.02 336.647,314.687 333.5,316.5C 328.685,319.487 324.019,322.654 319.5,326C 312.384,329.673 305.051,332.506 297.5,334.5C 289.191,335.665 280.858,336.832 272.5,338C 271.131,339.719 270.131,341.552 269.5,343.5C 269.5,342.167 269.5,340.833 269.5,339.5C 269.574,337.589 270.574,336.422 272.5,336C 280.536,334.883 288.536,333.55 296.5,332C 310.911,329.131 323.244,322.631 333.5,312.5C 334.833,311.167 336.167,309.833 337.5,308.5 Z"/></g>
<g><path style="opacity:1" fill="#1f282c" d="M 431.5,309.5 C 431.167,311.5 430.833,313.5 430.5,315.5C 427.26,322.691 424.094,330.025 421,337.5C 418.392,342.397 415.559,347.063 412.5,351.5C 414.209,346.238 416.709,341.238 420,336.5C 423.868,327.441 427.701,318.441 431.5,309.5 Z"/></g>
<g><path style="opacity:1" fill="#a6bde7" d="M 439.5,302.5 C 440.481,305.442 442.148,307.776 444.5,309.5C 443.943,314.165 442.61,318.498 440.5,322.5C 440.762,321.022 440.429,319.689 439.5,318.5C 439.167,318.667 438.833,318.833 438.5,319C 436.726,322.944 434.726,326.777 432.5,330.5C 431.749,329.624 431.249,328.624 431,327.5C 430.601,327.728 430.435,328.062 430.5,328.5C 429.833,328.5 429.167,328.5 428.5,328.5C 429.504,327.317 430.338,325.984 431,324.5C 431.598,319.984 432.764,315.651 434.5,311.5C 436.522,308.615 438.188,305.615 439.5,302.5 Z"/></g>
<g><path style="opacity:1" fill="#f9b1dc" d="M 120.5,323.5 C 114.551,322.421 108.551,322.254 102.5,323C 101.333,324.167 100.167,325.333 99,326.5C 98.6012,326.272 98.4346,325.938 98.5,325.5C 99.5,323.833 100.833,322.5 102.5,321.5C 107.129,320.519 111.796,320.352 116.5,321C 118.32,321.2 119.653,322.034 120.5,323.5 Z"/></g>
<g><path style="opacity:1" fill="#d87bac" d="M 137.5,313.5 C 141.556,317.883 146.223,321.55 151.5,324.5C 154.063,324.263 154.063,323.763 151.5,323C 154.061,320.844 154.061,318.677 151.5,316.5C 152.167,316.5 152.833,316.5 153.5,316.5C 156.918,318.037 159.918,320.204 162.5,323C 166.51,324.124 170.344,325.624 174,327.5C 175.03,327.836 175.53,328.503 175.5,329.5C 173.801,329.66 172.134,329.494 170.5,329C 166.304,326.488 161.804,324.654 157,323.5C 155.72,323.613 154.887,324.28 154.5,325.5C 159.931,329.725 165.931,333.225 172.5,336C 178.83,337.581 185.163,339.081 191.5,340.5C 193.213,341.223 194.213,342.557 194.5,344.5C 192.921,349.344 192.088,354.344 192,359.5C 191.29,360.973 190.124,361.64 188.5,361.5C 189.091,360.849 189.757,360.182 190.5,359.5C 190.043,358.702 189.376,358.369 188.5,358.5C 190.676,353.502 192.009,348.168 192.5,342.5C 174.215,339.689 157.882,332.522 143.5,321C 140.882,318.894 138.882,316.394 137.5,313.5 Z"/></g>
<g><path style="opacity:1" fill="#ecc9e2" d="M 126.5,239.5 C 126.177,246.022 126.51,252.355 127.5,258.5C 133.195,306.013 160.195,330.513 208.5,332C 210.66,332.996 212.327,334.496 213.5,336.5C 213.598,338.553 212.931,340.22 211.5,341.5C 211.868,338.944 211.034,336.944 209,335.5C 202.849,334.706 196.683,334.04 190.5,333.5C 185.543,332.168 180.543,330.834 175.5,329.5C 175.53,328.503 175.03,327.836 174,327.5C 170.344,325.624 166.51,324.124 162.5,323C 159.918,320.204 156.918,318.037 153.5,316.5C 148.117,310.787 142.784,305.12 137.5,299.5C 134.019,290.227 130.852,280.894 128,271.5C 127.617,270.944 127.117,270.611 126.5,270.5C 126.313,265.155 125.98,259.822 125.5,254.5C 125.179,249.305 125.513,244.305 126.5,239.5 Z"/></g>
<g><path style="opacity:1" fill="#f682c6" d="M 120.5,323.5 C 125.152,323.486 128.485,325.486 130.5,329.5C 125.663,328.087 120.997,326.087 116.5,323.5C 115.653,325.061 115.986,326.561 117.5,328C 117.167,328.333 116.833,328.667 116.5,329C 121.658,331.659 125.658,335.492 128.5,340.5C 125.703,338.205 123.036,335.705 120.5,333C 119.552,332.517 118.552,332.351 117.5,332.5C 116.811,331.226 115.977,331.226 115,332.5C 114.333,333.5 114.333,334.5 115,335.5C 123.115,342.414 128.948,350.747 132.5,360.5C 129.932,357.709 128.099,354.376 127,350.5C 125.266,348.549 123.099,347.549 120.5,347.5C 121.041,344.348 120.041,341.848 117.5,340C 114.338,339.554 111.338,340.054 108.5,341.5C 106.246,340.585 104.246,339.252 102.5,337.5C 98.1358,334.408 96.8024,330.408 98.5,325.5C 98.4346,325.938 98.6012,326.272 99,326.5C 100.167,325.333 101.333,324.167 102.5,323C 108.551,322.254 114.551,322.421 120.5,323.5 Z"/></g>
<g><path style="opacity:1" fill="#aaaee4" d="M 348.5,313.5 C 347.833,314.5 347.167,315.5 346.5,316.5C 341.802,322.348 336.136,327.015 329.5,330.5C 327.51,330.007 327.51,328.84 329.5,327C 326.854,326.503 324.187,326.336 321.5,326.5C 323.277,325.4 325.277,324.566 327.5,324C 329.045,321.62 331.045,319.786 333.5,318.5C 336.49,316.01 339.323,313.343 342,310.5C 342.333,311.167 342.667,311.833 343,312.5C 344.584,311.139 346.418,310.472 348.5,310.5C 348.5,311.5 348.5,312.5 348.5,313.5 Z"/></g>
<g><path style="opacity:1" fill="#c7c8f5" d="M 333.5,316.5 C 333.5,317.167 333.5,317.833 333.5,318.5C 331.045,319.786 329.045,321.62 327.5,324C 325.277,324.566 323.277,325.4 321.5,326.5C 314.315,331.34 306.315,334.006 297.5,334.5C 305.051,332.506 312.384,329.673 319.5,326C 324.019,322.654 328.685,319.487 333.5,316.5 Z"/></g>
<g><path style="opacity:1" fill="#a9a6dc" d="M 440.5,322.5 C 438.458,329.975 435.458,336.975 431.5,343.5C 431.5,341.833 431.5,340.167 431.5,338.5C 429.833,338.5 428.167,338.5 426.5,338.5C 427.833,335.167 429.167,331.833 430.5,328.5C 430.435,328.062 430.601,327.728 431,327.5C 431.249,328.624 431.749,329.624 432.5,330.5C 434.726,326.777 436.726,322.944 438.5,319C 438.833,318.833 439.167,318.667 439.5,318.5C 440.429,319.689 440.762,321.022 440.5,322.5 Z"/></g>
<g><path style="opacity:1" fill="#dd65a2" d="M 175.5,329.5 C 180.543,330.834 185.543,332.168 190.5,333.5C 188.075,333.684 188.075,334.351 190.5,335.5C 189.975,336.192 189.308,336.692 188.5,337C 190.056,337.72 191.056,338.887 191.5,340.5C 185.163,339.081 178.83,337.581 172.5,336C 165.931,333.225 159.931,329.725 154.5,325.5C 154.887,324.28 155.72,323.613 157,323.5C 161.804,324.654 166.304,326.488 170.5,329C 172.134,329.494 173.801,329.66 175.5,329.5 Z"/></g>
<g><path style="opacity:1" fill="#b4a1df" d="M 321.5,326.5 C 324.187,326.336 326.854,326.503 329.5,327C 327.51,328.84 327.51,330.007 329.5,330.5C 318.185,338.476 305.519,343.142 291.5,344.5C 297.439,342.679 303.439,340.845 309.5,339C 311.332,338.252 312.999,337.252 314.5,336C 308.15,335.476 301.816,335.642 295.5,336.5C 296.167,335.833 296.833,335.167 297.5,334.5C 306.315,334.006 314.315,331.34 321.5,326.5 Z"/></g>
<g><path style="opacity:1" fill="#f7b6e2" d="M 66.5,330.5 C 71.1373,336.483 74.4706,343.15 76.5,350.5C 72.1161,344.399 68.7828,337.732 66.5,330.5 Z"/></g>
<g><path style="opacity:1" fill="#f8b2e0" d="M 130.5,329.5 C 132.516,330.456 134.349,331.79 136,333.5C 138.52,337.224 141.02,340.891 143.5,344.5C 138.822,339.821 134.489,334.821 130.5,329.5 Z"/></g>
<g><path style="opacity:1" fill="#dbc3f3" d="M 297.5,334.5 C 296.833,335.167 296.167,335.833 295.5,336.5C 291.4,337.192 287.4,338.192 283.5,339.5C 279.901,340.344 276.234,340.677 272.5,340.5C 272.341,343.187 273.175,345.52 275,347.5C 275.497,350.146 275.664,352.813 275.5,355.5C 272.992,351.818 270.992,347.818 269.5,343.5C 270.131,341.552 271.131,339.719 272.5,338C 280.858,336.832 289.191,335.665 297.5,334.5 Z"/></g>
<g><path style="opacity:1" fill="#c19be1" d="M 291.5,344.5 C 291.158,345.338 290.492,345.672 289.5,345.5C 287.735,344.539 285.735,344.205 283.5,344.5C 285.631,343.686 287.964,343.186 290.5,343C 290.957,342.586 291.291,342.086 291.5,341.5C 288.966,340.223 286.466,340.223 284,341.5C 283.536,340.906 283.369,340.239 283.5,339.5C 287.4,338.192 291.4,337.192 295.5,336.5C 301.816,335.642 308.15,335.476 314.5,336C 312.999,337.252 311.332,338.252 309.5,339C 303.439,340.845 297.439,342.679 291.5,344.5 Z"/></g>
<g><path style="opacity:1" fill="#e5b0f8" d="M 283.5,339.5 C 283.369,340.239 283.536,340.906 284,341.5C 286.466,340.223 288.966,340.223 291.5,341.5C 291.291,342.086 290.957,342.586 290.5,343C 287.964,343.186 285.631,343.686 283.5,344.5C 282.378,346.288 282.211,348.288 283,350.5C 285.064,353.86 286.231,357.526 286.5,361.5C 284.747,358.854 283.747,355.854 283.5,352.5C 281.201,351.862 279.034,350.862 277,349.5C 277.002,355.189 277.502,360.856 278.5,366.5C 278.167,366.5 277.833,366.5 277.5,366.5C 276.515,362.924 275.848,359.258 275.5,355.5C 275.664,352.813 275.497,350.146 275,347.5C 273.175,345.52 272.341,343.187 272.5,340.5C 276.234,340.677 279.901,340.344 283.5,339.5 Z"/></g>
<g><path style="opacity:1" fill="#f6b2e3" d="M 143.5,344.5 C 146.935,348.438 150.602,352.271 154.5,356C 159.078,357.789 163.744,359.455 168.5,361C 173.489,361.499 178.489,361.666 183.5,361.5C 178.015,362.652 172.349,362.818 166.5,362C 164.091,360.293 161.425,359.46 158.5,359.5C 151.868,356.201 146.868,351.201 143.5,344.5 Z"/></g>
<g><path style="opacity:1" fill="#f0d8f0" d="M 188.5,358.5 C 189.376,358.369 190.043,358.702 190.5,359.5C 189.757,360.182 189.091,360.849 188.5,361.5C 186.833,361.5 185.167,361.5 183.5,361.5C 178.489,361.666 173.489,361.499 168.5,361C 163.744,359.455 159.078,357.789 154.5,356C 150.602,352.271 146.935,348.438 143.5,344.5C 141.02,340.891 138.52,337.224 136,333.5C 134.349,331.79 132.516,330.456 130.5,329.5C 128.485,325.486 125.152,323.486 120.5,323.5C 119.653,322.034 118.32,321.2 116.5,321C 111.796,320.352 107.129,320.519 102.5,321.5C 103.058,320.21 104.058,319.377 105.5,319C 110.167,318.333 114.833,318.333 119.5,319C 131.285,325.785 140.785,334.952 148,346.5C 159.112,358.158 172.612,362.158 188.5,358.5 Z"/></g>
<g><path style="opacity:0.968" fill="#0e0914" d="M 346.5,316.5 C 344.707,319.634 343.374,322.967 342.5,326.5C 328.464,338.681 312.131,346.347 293.5,349.5C 293.667,371.49 293.001,393.49 291.5,415.5C 290.5,415.5 289.5,415.5 288.5,415.5C 288.225,422.874 287.558,430.207 286.5,437.5C 286.167,437.5 285.833,437.5 285.5,437.5C 286.58,421.189 287.247,404.856 287.5,388.5C 288.657,379.676 288.824,370.676 288,361.5C 287.299,357.029 286.133,352.696 284.5,348.5C 285.073,345.915 286.739,344.915 289.5,345.5C 290.492,345.672 291.158,345.338 291.5,344.5C 305.519,343.142 318.185,338.476 329.5,330.5C 336.136,327.015 341.802,322.348 346.5,316.5 Z"/></g>
<g><path style="opacity:1" fill="#d2c5f0" d="M 428.5,328.5 C 429.167,328.5 429.833,328.5 430.5,328.5C 429.167,331.833 427.833,335.167 426.5,338.5C 424.102,341.065 422.436,344.065 421.5,347.5C 419.861,349.806 417.861,351.806 415.5,353.5C 419.662,344.962 423.996,336.628 428.5,328.5 Z"/></g>
<g><path style="opacity:1" fill="#c498d5" d="M 426.5,338.5 C 428.167,338.5 429.833,338.5 431.5,338.5C 431.5,340.167 431.5,341.833 431.5,343.5C 429.757,347.984 427.757,352.317 425.5,356.5C 423.213,360.122 420.547,363.455 417.5,366.5C 417.975,363.687 416.975,361.687 414.5,360.5C 415.582,357.343 417.415,354.677 420,352.5C 421.009,350.975 421.509,349.308 421.5,347.5C 422.436,344.065 424.102,341.065 426.5,338.5 Z"/></g>
<g><path style="opacity:1" fill="#e065aa" d="M 130.5,329.5 C 134.489,334.821 138.822,339.821 143.5,344.5C 146.868,351.201 151.868,356.201 158.5,359.5C 160.598,360.935 162.931,362.102 165.5,363C 172.525,364.24 179.525,364.406 186.5,363.5C 189.972,364.771 193.306,365.771 196.5,366.5C 196.158,367.338 195.492,367.672 194.5,367.5C 184.924,369.196 175.257,369.863 165.5,369.5C 154.406,368.535 145.572,363.535 139,354.5C 135.668,349.673 132.168,345.007 128.5,340.5C 125.658,335.492 121.658,331.659 116.5,329C 116.833,328.667 117.167,328.333 117.5,328C 115.986,326.561 115.653,325.061 116.5,323.5C 120.997,326.087 125.663,328.087 130.5,329.5 Z"/></g>
<g><path style="opacity:1" fill="#e67fbb" d="M 51.5,300.5 C 52.4972,300.47 53.1639,300.97 53.5,302C 55.0565,306.93 56.7231,311.763 58.5,316.5C 59.548,317.548 60.548,318.548 61.5,319.5C 61.3433,320.873 61.51,322.207 62,323.5C 63.5387,325.937 65.0387,328.27 66.5,330.5C 68.7828,337.732 72.1161,344.399 76.5,350.5C 78.3706,355.21 81.5372,358.876 86,361.5C 87.2989,364.147 88.6322,366.814 90,369.5C 92.7272,370.759 94.5606,372.759 95.5,375.5C 96.758,377.687 97.758,380.02 98.5,382.5C 93.561,379.454 89.7277,374.788 87,368.5C 83.4104,366.105 81.077,362.772 80,358.5C 77.6667,357.5 76,355.833 75,353.5C 70.1142,342.998 64.9475,332.665 59.5,322.5C 55.3034,315.708 52.6367,308.374 51.5,300.5 Z"/></g>
<g><path style="opacity:1" fill="#df97c4" d="M 202.5,351.5 C 202.116,355.586 201.283,359.586 200,363.5C 199.578,365.426 198.411,366.426 196.5,366.5C 196.092,363.401 197.259,361.067 200,359.5C 199.947,356.325 200.78,353.658 202.5,351.5 Z"/></g>
<g><path style="opacity:0.995" fill="#08050c" d="M 83.5,333.5 C 94.755,352.645 108.422,369.978 124.5,385.5C 124.217,386.289 123.717,386.956 123,387.5C 121.116,385.424 118.949,385.09 116.5,386.5C 117.132,388.965 118.632,390.631 121,391.5C 121.167,392 121.333,392.5 121.5,393C 121.15,394.257 120.483,394.591 119.5,394C 117.167,391 114.5,388.333 111.5,386C 112.325,384.312 113.325,384.145 114.5,385.5C 117.155,382.42 116.488,380.086 112.5,378.5C 111.139,380.028 109.972,381.695 109,383.5C 106.791,381.627 104.958,379.46 103.5,377C 103.833,376.667 104.167,376.333 104.5,376C 101.716,375.564 100.55,374.064 101,371.5C 102.153,373.497 103.653,373.83 105.5,372.5C 103.548,370.467 101.382,370.134 99,371.5C 98.6667,370.5 98.3333,369.5 98,368.5C 96.9887,369.337 95.8221,369.67 94.5,369.5C 94.6107,368.883 94.944,368.383 95.5,368C 94,366.5 92.5,365 91,363.5C 91.1554,361.189 91.1554,358.856 91,356.5C 89.5728,353.9 88.0728,351.4 86.5,349C 87.0585,348.275 87.3918,347.442 87.5,346.5C 86.3038,343.942 84.9704,341.442 83.5,339C 84.6733,337.174 84.6733,335.341 83.5,333.5 Z"/></g>
<g><path style="opacity:1" fill="#1e121f" d="M 117.5,332.5 C 118.552,332.351 119.552,332.517 120.5,333C 123.036,335.705 125.703,338.205 128.5,340.5C 132.168,345.007 135.668,349.673 139,354.5C 145.572,363.535 154.406,368.535 165.5,369.5C 165.5,369.833 165.5,370.167 165.5,370.5C 163.5,370.5 161.5,370.5 159.5,370.5C 159.719,371.675 159.386,372.675 158.5,373.5C 156.668,370.735 154.334,368.568 151.5,367C 148.488,366.22 145.655,365.053 143,363.5C 142.308,364.025 141.808,364.692 141.5,365.5C 142.982,367.483 144.649,369.316 146.5,371C 151.162,373.243 155.496,375.743 159.5,378.5C 151.741,377.038 145.241,373.371 140,367.5C 136.473,361.779 133.473,355.779 131,349.5C 126.643,343.652 122.143,337.985 117.5,332.5 Z"/></g>
<g><path style="opacity:1" fill="#ef75ba" d="M 190.5,333.5 C 196.683,334.04 202.849,334.706 209,335.5C 211.034,336.944 211.868,338.944 211.5,341.5C 209.044,343.066 206.544,344.733 204,346.5C 202.991,348.025 202.491,349.692 202.5,351.5C 200.78,353.658 199.947,356.325 200,359.5C 197.259,361.067 196.092,363.401 196.5,366.5C 193.306,365.771 189.972,364.771 186.5,363.5C 179.525,364.406 172.525,364.24 165.5,363C 162.931,362.102 160.598,360.935 158.5,359.5C 161.425,359.46 164.091,360.293 166.5,362C 172.349,362.818 178.015,362.652 183.5,361.5C 185.167,361.5 186.833,361.5 188.5,361.5C 190.124,361.64 191.29,360.973 192,359.5C 192.088,354.344 192.921,349.344 194.5,344.5C 194.213,342.557 193.213,341.223 191.5,340.5C 191.056,338.887 190.056,337.72 188.5,337C 189.308,336.692 189.975,336.192 190.5,335.5C 188.075,334.351 188.075,333.684 190.5,333.5 Z"/></g>
<g><path style="opacity:1" fill="#dc61ad" d="M 132.5,360.5 C 134.247,369.082 138.913,375.582 146.5,380C 152.424,381.878 158.424,383.545 164.5,385C 174.5,385.333 184.5,385.667 194.5,386C 195.487,397.085 195.821,408.252 195.5,419.5C 194.883,419.611 194.383,419.944 194,420.5C 193.377,426.254 191.21,431.421 187.5,436C 183.154,438.1 179.154,437.934 175.5,435.5C 179.182,435.665 182.848,435.499 186.5,435C 187.056,434.617 187.389,434.117 187.5,433.5C 187.5,432.5 187.5,431.5 187.5,430.5C 187.829,417.989 187.495,405.655 186.5,393.5C 185.848,392.275 184.681,391.608 183,391.5C 174.489,390.785 165.989,389.952 157.5,389C 148.209,386.766 140.042,382.266 133,375.5C 132.69,371.655 130.857,368.988 127.5,367.5C 126.602,364.721 125.269,362.388 123.5,360.5C 121.774,358.058 120.274,355.391 119,352.5C 115.296,348.964 111.796,345.298 108.5,341.5C 111.338,340.054 114.338,339.554 117.5,340C 120.041,341.848 121.041,344.348 120.5,347.5C 123.099,347.549 125.266,348.549 127,350.5C 128.099,354.376 129.932,357.709 132.5,360.5 Z"/></g>
<g><path style="opacity:1" fill="#e4e2f4" d="M 434.5,311.5 C 432.764,315.651 431.598,319.984 431,324.5C 430.338,325.984 429.504,327.317 428.5,328.5C 423.996,336.628 419.662,344.962 415.5,353.5C 410.578,360.936 405.411,368.269 400,375.5C 394.167,380.667 388.667,386.167 383.5,392C 379.964,394.388 376.631,396.888 373.5,399.5C 372.833,399.5 372.167,399.5 371.5,399.5C 381.506,390.494 390.839,380.827 399.5,370.5C 404.562,364.725 408.895,358.391 412.5,351.5C 415.559,347.063 418.392,342.397 421,337.5C 424.094,330.025 427.26,322.691 430.5,315.5C 430.81,316.738 431.31,316.738 432,315.5C 432.608,313.934 433.442,312.6 434.5,311.5 Z"/></g>
<g><path style="opacity:1" fill="#cfaedd" d="M 283.5,344.5 C 285.735,344.205 287.735,344.539 289.5,345.5C 286.739,344.915 285.073,345.915 284.5,348.5C 286.133,352.696 287.299,357.029 288,361.5C 288.824,370.676 288.657,379.676 287.5,388.5C 287.804,379.416 287.471,370.416 286.5,361.5C 286.231,357.526 285.064,353.86 283,350.5C 282.211,348.288 282.378,346.288 283.5,344.5 Z"/></g>
<g><path style="opacity:1" fill="#0e0811" d="M 213.5,336.5 C 214.065,339.305 215.065,341.972 216.5,344.5C 214.229,346.266 212.063,348.266 210,350.5C 209.115,358.499 206.281,365.666 201.5,372C 203.147,373.733 204.647,375.566 206,377.5C 206.667,393.833 206.667,410.167 206,426.5C 204.321,442.494 195.488,448.994 179.5,446C 169.679,443.747 160.679,439.914 152.5,434.5C 159.671,437.686 167.004,440.353 174.5,442.5C 174.833,442.5 175.167,442.5 175.5,442.5C 181.544,444.073 187.544,443.573 193.5,441C 195.439,439.568 196.772,437.735 197.5,435.5C 197.5,434.833 197.5,434.167 197.5,433.5C 198.352,420.001 199.018,406.335 199.5,392.5C 199.498,389.314 199.165,386.314 198.5,383.5C 197.485,380.564 195.318,379.231 192,379.5C 181.045,382.299 170.212,381.966 159.5,378.5C 155.496,375.743 151.162,373.243 146.5,371C 144.649,369.316 142.982,367.483 141.5,365.5C 141.808,364.692 142.308,364.025 143,363.5C 145.655,365.053 148.488,366.22 151.5,367C 154.334,368.568 156.668,370.735 158.5,373.5C 159.386,372.675 159.719,371.675 159.5,370.5C 161.5,370.5 163.5,370.5 165.5,370.5C 171.472,371.474 177.472,371.641 183.5,371C 187.614,370.885 191.281,369.718 194.5,367.5C 195.492,367.672 196.158,367.338 196.5,366.5C 198.411,366.426 199.578,365.426 200,363.5C 201.283,359.586 202.116,355.586 202.5,351.5C 202.491,349.692 202.991,348.025 204,346.5C 206.544,344.733 209.044,343.066 211.5,341.5C 212.931,340.22 213.598,338.553 213.5,336.5 Z"/></g>
<g><path style="opacity:1" fill="#c4709f" d="M 194.5,367.5 C 191.281,369.718 187.614,370.885 183.5,371C 177.472,371.641 171.472,371.474 165.5,370.5C 165.5,370.167 165.5,369.833 165.5,369.5C 175.257,369.863 184.924,369.196 194.5,367.5 Z"/></g>
<g><path style="opacity:1" fill="#e6bcf0" d="M 277.5,366.5 C 277.833,366.5 278.167,366.5 278.5,366.5C 279.122,369.415 279.456,372.415 279.5,375.5C 279.492,383.914 278.492,391.914 276.5,399.5C 276.5,397.833 276.5,396.167 276.5,394.5C 276.833,385.167 277.167,375.833 277.5,366.5 Z"/></g>
<g><path style="opacity:1" fill="#eb84c9" d="M 132.5,360.5 C 134.547,362.55 136.214,364.883 137.5,367.5C 137.351,368.552 137.517,369.552 138,370.5C 141.961,375.077 146.794,378.577 152.5,381C 167.328,384.127 182.328,385.294 197.5,384.5C 197.5,400.833 197.5,417.167 197.5,433.5C 197.5,434.167 197.5,434.833 197.5,435.5C 196.833,435.167 196.167,434.833 195.5,434.5C 195.5,429.5 195.5,424.5 195.5,419.5C 195.821,408.252 195.487,397.085 194.5,386C 184.5,385.667 174.5,385.333 164.5,385C 158.424,383.545 152.424,381.878 146.5,380C 138.913,375.582 134.247,369.082 132.5,360.5 Z"/></g>
<g><path style="opacity:1" fill="#cc579a" d="M 59.5,322.5 C 64.9475,332.665 70.1142,342.998 75,353.5C 76,355.833 77.6667,357.5 80,358.5C 81.077,362.772 83.4104,366.105 87,368.5C 89.7277,374.788 93.561,379.454 98.5,382.5C 98.5569,383.609 98.8902,384.609 99.5,385.5C 98.5041,385.414 97.6708,385.748 97,386.5C 89.9997,381.895 84.333,375.895 80,368.5C 79.3292,367.748 78.4959,367.414 77.5,367.5C 70.226,357.958 64.226,347.625 59.5,336.5C 58.9843,331.66 57.9843,326.993 56.5,322.5C 57.5,322.5 58.5,322.5 59.5,322.5 Z"/></g>
<g><path style="opacity:1" fill="#d792de" d="M 414.5,360.5 C 416.975,361.687 417.975,363.687 417.5,366.5C 411.003,377.338 403.003,387.005 393.5,395.5C 394.449,392.792 394.449,390.126 393.5,387.5C 392.583,388.127 391.583,388.461 390.5,388.5C 394.125,383.675 398.292,380.008 403,377.5C 405.034,374.092 406.701,370.425 408,366.5C 410.037,364.294 412.203,362.294 414.5,360.5 Z"/></g>
<g><path style="opacity:1" fill="#eed9f0" d="M 117.5,332.5 C 122.143,337.985 126.643,343.652 131,349.5C 133.473,355.779 136.473,361.779 140,367.5C 145.241,373.371 151.741,377.038 159.5,378.5C 170.212,381.966 181.045,382.299 192,379.5C 195.318,379.231 197.485,380.564 198.5,383.5C 188.881,383.118 179.214,382.952 169.5,383C 156.959,381.608 146.292,376.441 137.5,367.5C 136.214,364.883 134.547,362.55 132.5,360.5C 128.948,350.747 123.115,342.414 115,335.5C 114.333,334.5 114.333,333.5 115,332.5C 115.977,331.226 116.811,331.226 117.5,332.5 Z"/></g>
<g><path style="opacity:1" fill="#ecafdd" d="M 137.5,367.5 C 146.292,376.441 156.959,381.608 169.5,383C 179.214,382.952 188.881,383.118 198.5,383.5C 199.165,386.314 199.498,389.314 199.5,392.5C 199.018,406.335 198.352,420.001 197.5,433.5C 197.5,417.167 197.5,400.833 197.5,384.5C 182.328,385.294 167.328,384.127 152.5,381C 146.794,378.577 141.961,375.077 138,370.5C 137.517,369.552 137.351,368.552 137.5,367.5 Z"/></g>
<g><path style="opacity:1" fill="#d88ede" d="M 286.5,361.5 C 287.471,370.416 287.804,379.416 287.5,388.5C 287.247,404.856 286.58,421.189 285.5,437.5C 285.5,438.167 285.5,438.833 285.5,439.5C 285.167,439.5 284.833,439.5 284.5,439.5C 284.667,426.496 284.5,413.496 284,400.5C 282.26,397.091 281.26,393.424 281,389.5C 279.515,400.094 278.515,410.76 278,421.5C 277.617,422.056 277.117,422.389 276.5,422.5C 276.5,414.833 276.5,407.167 276.5,399.5C 278.492,391.914 279.492,383.914 279.5,375.5C 279.456,372.415 279.122,369.415 278.5,366.5C 277.502,360.856 277.002,355.189 277,349.5C 279.034,350.862 281.201,351.862 283.5,352.5C 283.747,355.854 284.747,358.854 286.5,361.5 Z"/></g>
<g><path style="opacity:0.447" fill="#21081a" d="M 102.5,337.5 C 104.246,339.252 106.246,340.585 108.5,341.5C 111.796,345.298 115.296,348.964 119,352.5C 120.274,355.391 121.774,358.058 123.5,360.5C 127.947,374.781 137.28,384.281 151.5,389C 158.59,390.731 165.59,392.231 172.5,393.5C 168.5,393.5 164.5,393.5 160.5,393.5C 146.178,392.09 135.012,385.424 127,373.5C 123.588,366.342 119.922,359.342 116,352.5C 112.233,348.224 108.066,344.557 103.5,341.5C 103.167,340.167 102.833,338.833 102.5,337.5 Z"/></g>
<g><path style="opacity:1" fill="#b55a92" d="M 123.5,360.5 C 125.269,362.388 126.602,364.721 127.5,367.5C 130.857,368.988 132.69,371.655 133,375.5C 140.042,382.266 148.209,386.766 157.5,389C 165.989,389.952 174.489,390.785 183,391.5C 184.681,391.608 185.848,392.275 186.5,393.5C 181.833,393.5 177.167,393.5 172.5,393.5C 165.59,392.231 158.59,390.731 151.5,389C 137.28,384.281 127.947,374.781 123.5,360.5 Z"/></g>
<g><path style="opacity:1" fill="#e6b8f1" d="M 421.5,347.5 C 421.509,349.308 421.009,350.975 420,352.5C 417.415,354.677 415.582,357.343 414.5,360.5C 412.203,362.294 410.037,364.294 408,366.5C 406.701,370.425 405.034,374.092 403,377.5C 398.292,380.008 394.125,383.675 390.5,388.5C 382.852,392.976 376.519,398.81 371.5,406C 369.372,406.655 367.372,407.489 365.5,408.5C 367.272,406.394 369.438,404.727 372,403.5C 372.791,402.255 373.291,400.922 373.5,399.5C 376.631,396.888 379.964,394.388 383.5,392C 388.667,386.167 394.167,380.667 400,375.5C 405.411,368.269 410.578,360.936 415.5,353.5C 417.861,351.806 419.861,349.806 421.5,347.5 Z"/></g>
<g><path style="opacity:1" fill="#f4abe0" d="M 95.5,375.5 C 101.33,380.497 106.663,385.997 111.5,392C 117.905,397.413 124.572,402.413 131.5,407C 133.706,409.037 135.706,411.203 137.5,413.5C 133.891,411.02 130.224,408.52 126.5,406C 125.552,405.517 124.552,405.351 123.5,405.5C 115.577,397.585 107.244,389.919 98.5,382.5C 97.758,380.02 96.758,377.687 95.5,375.5 Z"/></g>
<g><path style="opacity:0.983" fill="#0b0d11" d="M 399.5,370.5 C 390.839,380.827 381.506,390.494 371.5,399.5C 364.765,404.23 357.765,408.563 350.5,412.5C 345.088,414.04 340.088,416.374 335.5,419.5C 336.09,418.234 336.59,416.901 337,415.5C 337.333,415.833 337.667,416.167 338,416.5C 342.7,413.126 347.534,410.959 352.5,410C 351.833,408 351.167,406 350.5,404C 347.443,403.446 345.276,404.613 344,407.5C 343.517,406.552 343.351,405.552 343.5,404.5C 357.976,395.696 371.31,385.363 383.5,373.5C 384.72,375.282 385.386,377.282 385.5,379.5C 387.288,379.785 388.955,379.452 390.5,378.5C 389.365,376.201 388.032,374.034 386.5,372C 387.253,370.513 388.086,370.346 389,371.5C 390.833,369.833 392.667,368.167 394.5,366.5C 395.731,367.651 395.731,368.817 394.5,370C 396.134,370.494 397.801,370.66 399.5,370.5 Z"/></g>
<g><path style="opacity:0.897" fill="#0d0711" d="M 269.5,339.5 C 269.5,340.833 269.5,342.167 269.5,343.5C 270.992,347.818 272.992,351.818 275.5,355.5C 275.848,359.258 276.515,362.924 277.5,366.5C 277.167,375.833 276.833,385.167 276.5,394.5C 274.727,409.815 274.394,425.149 275.5,440.5C 275.461,443.089 276.461,445.089 278.5,446.5C 279.167,448.5 280.5,449.833 282.5,450.5C 291.008,453.084 299.341,452.084 307.5,447.5C 309.167,447.5 310.833,447.5 312.5,447.5C 300.713,453.897 288.38,455.064 275.5,451C 270.667,446.185 268,440.352 267.5,433.5C 269.274,410.528 270.108,387.528 270,364.5C 269.697,361.001 268.864,357.668 267.5,354.5C 268.5,354.5 269.5,354.5 270.5,354.5C 270.917,351.921 270.25,349.754 268.5,348C 268.833,347.667 269.167,347.333 269.5,347C 268.376,346.161 267.709,344.994 267.5,343.5C 267.34,341.645 268.007,340.312 269.5,339.5 Z"/></g>
<g><path style="opacity:1" fill="#ebe7f2" d="M 371.5,399.5 C 370.386,400.885 369.386,402.385 368.5,404C 362.5,408 356.5,412 350.5,416C 346.847,416.83 343.847,418.663 341.5,421.5C 334.424,425.704 327.091,429.371 319.5,432.5C 311.416,435.033 303.416,437.866 295.5,441C 292.5,441.667 289.5,441.667 286.5,441C 285.944,440.617 285.611,440.117 285.5,439.5C 285.5,438.833 285.5,438.167 285.5,437.5C 285.833,437.5 286.167,437.5 286.5,437.5C 287.793,438.158 289.293,438.492 291,438.5C 293.821,438.592 296.321,437.926 298.5,436.5C 317.151,431.172 334.484,423.172 350.5,412.5C 357.765,408.563 364.765,404.23 371.5,399.5 Z"/></g>
<g><path style="opacity:1" fill="#ac4e8a" d="M 77.5,367.5 C 78.4959,367.414 79.3292,367.748 80,368.5C 84.333,375.895 89.9997,381.895 97,386.5C 97.6708,385.748 98.5041,385.414 99.5,385.5C 100.695,385.866 101.361,386.699 101.5,388C 100.363,392.041 102.03,393.875 106.5,393.5C 110.158,400.522 115.491,406.022 122.5,410C 124.075,412.356 125.741,414.522 127.5,416.5C 107.565,403.566 90.8982,387.232 77.5,367.5 Z"/></g>
<g><path style="opacity:0.924" fill="#06060c" d="M 335.5,419.5 C 324.3,426.157 312.3,431.324 299.5,435C 298.944,435.383 298.611,435.883 298.5,436.5C 296.321,437.926 293.821,438.592 291,438.5C 289.293,438.492 287.793,438.158 286.5,437.5C 287.558,430.207 288.225,422.874 288.5,415.5C 289.5,415.5 290.5,415.5 291.5,415.5C 288.717,424.923 292.05,428.423 301.5,426C 315.858,419.287 329.858,412.121 343.5,404.5C 343.351,405.552 343.517,406.552 344,407.5C 345.276,404.613 347.443,403.446 350.5,404C 351.167,406 351.833,408 352.5,410C 347.534,410.959 342.7,413.126 338,416.5C 337.667,416.167 337.333,415.833 337,415.5C 336.59,416.901 336.09,418.234 335.5,419.5 Z"/></g>
<g><path style="opacity:1" fill="#e384c9" d="M 123.5,405.5 C 124.552,405.351 125.552,405.517 126.5,406C 130.224,408.52 133.891,411.02 137.5,413.5C 143.028,415.705 147.695,419.038 151.5,423.5C 146.999,422.163 142.666,420.33 138.5,418C 133.858,413.303 128.858,409.136 123.5,405.5 Z"/></g>
<g><path style="opacity:1" fill="#e988e1" d="M 284.5,439.5 C 283.671,431.677 283.171,423.677 283,415.5C 282.433,418.168 281.933,420.834 281.5,423.5C 280.167,423.5 278.833,423.5 277.5,423.5C 277.233,431.222 277.566,438.889 278.5,446.5C 276.461,445.089 275.461,443.089 275.5,440.5C 275.833,434.5 276.167,428.5 276.5,422.5C 277.117,422.389 277.617,422.056 278,421.5C 278.515,410.76 279.515,400.094 281,389.5C 281.26,393.424 282.26,397.091 284,400.5C 284.5,413.496 284.667,426.496 284.5,439.5 Z"/></g>
<g><path style="opacity:0.972" fill="#0f0a12" d="M 124.5,385.5 C 136.047,394.533 148.047,403.033 160.5,411C 166.541,414.351 172.874,417.184 179.5,419.5C 180.647,419.182 181.481,418.516 182,417.5C 182.335,412.481 182.835,407.481 183.5,402.5C 183.665,399.994 182.665,398.161 180.5,397C 173.579,396.475 166.912,395.308 160.5,393.5C 164.5,393.5 168.5,393.5 172.5,393.5C 177.167,393.5 181.833,393.5 186.5,393.5C 187.495,405.655 187.829,417.989 187.5,430.5C 182.825,431.869 178.159,431.702 173.5,430C 142.064,416.385 115.731,396.218 94.5,369.5C 95.8221,369.67 96.9887,369.337 98,368.5C 98.3333,369.5 98.6667,370.5 99,371.5C 101.382,370.134 103.548,370.467 105.5,372.5C 103.653,373.83 102.153,373.497 101,371.5C 100.55,374.064 101.716,375.564 104.5,376C 104.167,376.333 103.833,376.667 103.5,377C 104.958,379.46 106.791,381.627 109,383.5C 109.972,381.695 111.139,380.028 112.5,378.5C 116.488,380.086 117.155,382.42 114.5,385.5C 113.325,384.145 112.325,384.312 111.5,386C 114.5,388.333 117.167,391 119.5,394C 120.483,394.591 121.15,394.257 121.5,393C 121.333,392.5 121.167,392 121,391.5C 118.632,390.631 117.132,388.965 116.5,386.5C 118.949,385.09 121.116,385.424 123,387.5C 123.717,386.956 124.217,386.289 124.5,385.5 Z"/></g>
<g><path style="opacity:0.447" fill="#1c0315" d="M 48.5,312.5 C 51.6356,320.769 55.3023,328.769 59.5,336.5C 64.226,347.625 70.226,357.958 77.5,367.5C 90.8982,387.232 107.565,403.566 127.5,416.5C 127.5,417.167 127.833,417.5 128.5,417.5C 131.688,419.932 134.688,422.599 137.5,425.5C 118.175,414.691 101.342,400.691 87,383.5C 72.2346,365.637 59.7346,346.304 49.5,325.5C 50.1471,324.726 50.4805,323.726 50.5,322.5C 49.6203,319.198 48.9537,315.865 48.5,312.5 Z"/></g>
<g><path style="opacity:1" fill="#dc82ce" d="M 393.5,395.5 C 369.252,418.298 341.252,434.964 309.5,445.5C 315.647,442.889 321.647,439.889 327.5,436.5C 327.723,435.033 328.056,433.533 328.5,432C 327.906,431.536 327.239,431.369 326.5,431.5C 335.033,428.235 343.366,424.402 351.5,420C 354.225,418.911 356.225,417.078 357.5,414.5C 360.426,412.916 363.092,410.916 365.5,408.5C 367.372,407.489 369.372,406.655 371.5,406C 376.519,398.81 382.852,392.976 390.5,388.5C 391.583,388.461 392.583,388.127 393.5,387.5C 394.449,390.126 394.449,392.792 393.5,395.5 Z"/></g>
<g><path style="opacity:1" fill="#eed8ee" d="M 49.5,223.5 C 49.1771,229.69 49.5104,235.69 50.5,241.5C 49.4673,289.74 64.1339,332.407 94.5,369.5C 115.731,396.218 142.064,416.385 173.5,430C 178.159,431.702 182.825,431.869 187.5,430.5C 187.5,431.5 187.5,432.5 187.5,433.5C 186.033,433.894 184.533,434.227 183,434.5C 176.875,432.856 170.708,431.356 164.5,430C 161.474,426.817 157.807,424.651 153.5,423.5C 152.833,423.5 152.167,423.5 151.5,423.5C 147.695,419.038 143.028,415.705 137.5,413.5C 135.706,411.203 133.706,409.037 131.5,407C 124.572,402.413 117.905,397.413 111.5,392C 106.663,385.997 101.33,380.497 95.5,375.5C 94.5606,372.759 92.7272,370.759 90,369.5C 88.6322,366.814 87.2989,364.147 86,361.5C 81.5372,358.876 78.3706,355.21 76.5,350.5C 74.4706,343.15 71.1373,336.483 66.5,330.5C 65.0387,328.27 63.5387,325.937 62,323.5C 61.51,322.207 61.3433,320.873 61.5,319.5C 57.3468,309.031 54.0134,298.365 51.5,287.5C 48.5657,266.091 47.899,244.758 49.5,223.5 Z"/></g>
<g><path style="opacity:1" fill="#f5d1f7" d="M 371.5,399.5 C 372.167,399.5 372.833,399.5 373.5,399.5C 373.291,400.922 372.791,402.255 372,403.5C 369.438,404.727 367.272,406.394 365.5,408.5C 363.092,410.916 360.426,412.916 357.5,414.5C 356.127,414.343 354.793,414.51 353.5,415C 350.595,416.547 347.929,418.381 345.5,420.5C 344.264,421.246 342.93,421.579 341.5,421.5C 343.847,418.663 346.847,416.83 350.5,416C 356.5,412 362.5,408 368.5,404C 369.386,402.385 370.386,400.885 371.5,399.5 Z"/></g>
<g><path style="opacity:1" fill="#97457e" d="M 128.5,417.5 C 129.873,417.343 131.207,417.51 132.5,418C 135.41,421.416 138.743,424.25 142.5,426.5C 140.883,425.962 139.216,425.629 137.5,425.5C 134.688,422.599 131.688,419.932 128.5,417.5 Z"/></g>
<g><path style="opacity:0.231" fill="#18071a" d="M 425.5,356.5 C 424.904,358.398 424.904,360.065 425.5,361.5C 397.696,402.952 360.029,431.619 312.5,447.5C 310.833,447.5 309.167,447.5 307.5,447.5C 308.167,446.833 308.833,446.167 309.5,445.5C 341.252,434.964 369.252,418.298 393.5,395.5C 403.003,387.005 411.003,377.338 417.5,366.5C 420.547,363.455 423.213,360.122 425.5,356.5 Z"/></g>
<g><path style="opacity:1" fill="#f3ace2" d="M 357.5,414.5 C 356.225,417.078 354.225,418.911 351.5,420C 343.366,424.402 335.033,428.235 326.5,431.5C 324.236,432.219 321.903,432.552 319.5,432.5C 327.091,429.371 334.424,425.704 341.5,421.5C 342.93,421.579 344.264,421.246 345.5,420.5C 347.929,418.381 350.595,416.547 353.5,415C 354.793,414.51 356.127,414.343 357.5,414.5 Z"/></g>
<g><path style="opacity:1" fill="#cb55a9" d="M 98.5,382.5 C 107.244,389.919 115.577,397.585 123.5,405.5C 128.858,409.136 133.858,413.303 138.5,418C 142.666,420.33 146.999,422.163 151.5,423.5C 152.167,423.5 152.833,423.5 153.5,423.5C 154.957,425.785 156.957,427.618 159.5,429C 164.827,431.482 170.16,433.649 175.5,435.5C 179.154,437.934 183.154,438.1 187.5,436C 191.21,431.421 193.377,426.254 194,420.5C 194.383,419.944 194.883,419.611 195.5,419.5C 195.5,424.5 195.5,429.5 195.5,434.5C 194.554,436.132 193.554,437.799 192.5,439.5C 187.224,442.198 181.557,443.198 175.5,442.5C 175.167,442.5 174.833,442.5 174.5,442.5C 166.795,437.484 158.462,433.817 149.5,431.5C 146.953,430.066 144.619,428.4 142.5,426.5C 138.743,424.25 135.41,421.416 132.5,418C 131.207,417.51 129.873,417.343 128.5,417.5C 127.833,417.5 127.5,417.167 127.5,416.5C 125.741,414.522 124.075,412.356 122.5,410C 115.491,406.022 110.158,400.522 106.5,393.5C 102.03,393.875 100.363,392.041 101.5,388C 101.361,386.699 100.695,385.866 99.5,385.5C 98.8902,384.609 98.5569,383.609 98.5,382.5 Z"/></g>
<g><path style="opacity:0.404" fill="#25091e" d="M 137.5,425.5 C 139.216,425.629 140.883,425.962 142.5,426.5C 144.619,428.4 146.953,430.066 149.5,431.5C 149.5,431.833 149.5,432.167 149.5,432.5C 145.164,430.668 141.164,428.335 137.5,425.5 Z"/></g>
<g><path style="opacity:1" fill="#d5aad7" d="M 276.5,394.5 C 276.5,396.167 276.5,397.833 276.5,399.5C 276.5,407.167 276.5,414.833 276.5,422.5C 276.167,428.5 275.833,434.5 275.5,440.5C 274.394,425.149 274.727,409.815 276.5,394.5 Z"/></g>
<g><path style="opacity:1" fill="#f6abe7" d="M 153.5,423.5 C 157.807,424.651 161.474,426.817 164.5,430C 170.708,431.356 176.875,432.856 183,434.5C 184.533,434.227 186.033,433.894 187.5,433.5C 187.389,434.117 187.056,434.617 186.5,435C 182.848,435.499 179.182,435.665 175.5,435.5C 170.16,433.649 164.827,431.482 159.5,429C 156.957,427.618 154.957,425.785 153.5,423.5 Z"/></g>
<g><path style="opacity:1" fill="#2a3234" d="M 350.5,412.5 C 334.484,423.172 317.151,431.172 298.5,436.5C 298.611,435.883 298.944,435.383 299.5,435C 312.3,431.324 324.3,426.157 335.5,419.5C 340.088,416.374 345.088,414.04 350.5,412.5 Z"/></g>
<g><path style="opacity:1" fill="#914079" d="M 149.5,431.5 C 158.462,433.817 166.795,437.484 174.5,442.5C 167.004,440.353 159.671,437.686 152.5,434.5C 150.973,434.573 149.973,433.906 149.5,432.5C 149.5,432.167 149.5,431.833 149.5,431.5 Z"/></g>
<g><path style="opacity:1" fill="#eb77da" d="M 284.5,439.5 C 284.539,440.583 284.873,441.583 285.5,442.5C 289.122,443.659 292.789,443.825 296.5,443C 301.351,440.798 306.351,439.131 311.5,438C 314.393,436.351 317.06,434.517 319.5,432.5C 321.903,432.552 324.236,432.219 326.5,431.5C 327.239,431.369 327.906,431.536 328.5,432C 328.056,433.533 327.723,435.033 327.5,436.5C 321.647,439.889 315.647,442.889 309.5,445.5C 308.833,446.167 308.167,446.833 307.5,447.5C 304.123,447.959 300.789,448.626 297.5,449.5C 292.786,449.827 288.12,449.493 283.5,448.5C 282.332,446.783 280.665,446.116 278.5,446.5C 277.566,438.889 277.233,431.222 277.5,423.5C 278.833,423.5 280.167,423.5 281.5,423.5C 281.933,420.834 282.433,418.168 283,415.5C 283.171,423.677 283.671,431.677 284.5,439.5 Z"/></g>
<g><path style="opacity:1" fill="#fbbcf7" d="M 319.5,432.5 C 317.06,434.517 314.393,436.351 311.5,438C 306.351,439.131 301.351,440.798 296.5,443C 292.789,443.825 289.122,443.659 285.5,442.5C 284.873,441.583 284.539,440.583 284.5,439.5C 284.833,439.5 285.167,439.5 285.5,439.5C 285.611,440.117 285.944,440.617 286.5,441C 289.5,441.667 292.5,441.667 295.5,441C 303.416,437.866 311.416,435.033 319.5,432.5 Z"/></g>
<g><path style="opacity:1" fill="#bb5fa2" d="M 195.5,434.5 C 196.167,434.833 196.833,435.167 197.5,435.5C 196.772,437.735 195.439,439.568 193.5,441C 187.544,443.573 181.544,444.073 175.5,442.5C 181.557,443.198 187.224,442.198 192.5,439.5C 193.554,437.799 194.554,436.132 195.5,434.5 Z"/></g>
<g><path style="opacity:0.918" fill="#3c1137" d="M 307.5,447.5 C 299.341,452.084 291.008,453.084 282.5,450.5C 287.712,451.885 292.712,451.552 297.5,449.5C 300.789,448.626 304.123,447.959 307.5,447.5 Z"/></g>
<g><path style="opacity:1" fill="#bd64ab" d="M 278.5,446.5 C 280.665,446.116 282.332,446.783 283.5,448.5C 288.12,449.493 292.786,449.827 297.5,449.5C 292.712,451.552 287.712,451.885 282.5,450.5C 280.5,449.833 279.167,448.5 278.5,446.5 Z"/></g>
</svg>
