<?xml version="1.0" encoding="UTF-8"?>
<!DOCTYPE svg PUBLIC "-//W3C//DTD SVG 1.1//EN" "http://www.w3.org/Graphics/SVG/1.1/DTD/svg11.dtd">
<svg xmlns="http://www.w3.org/2000/svg" version="1.1" width="500px" height="500px" style="shape-rendering:geometricPrecision; text-rendering:geometricPrecision; image-rendering:optimizeQuality; fill-rule:evenodd; clip-rule:evenodd" xmlns:xlink="http://www.w3.org/1999/xlink">
<g><path style="opacity:0.953" fill="#10da86" d="M 171.5,123.5 C 169.599,123.567 167.766,123.233 166,122.5C 161.321,120.24 156.821,117.573 152.5,114.5C 148.555,113.509 144.555,113.176 140.5,113.5C 140.678,116.216 141.178,118.883 142,121.5C 144.517,124.627 147.017,127.627 149.5,130.5C 148.078,129.075 146.411,128.075 144.5,127.5C 142.137,124.451 140.137,121.118 138.5,117.5C 138.261,115.533 138.594,113.699 139.5,112C 146.179,110.849 152.512,111.849 158.5,115C 162.739,118.09 167.072,120.923 171.5,123.5 Z"/></g>
<g><path style="opacity:1" fill="#07b3c3" d="M 138.5,117.5 C 140.137,121.118 142.137,124.451 144.5,127.5C 144.209,128.649 143.376,129.316 142,129.5C 140.634,129.294 139.301,128.96 138,128.5C 136.97,128.836 136.47,129.503 136.5,130.5C 136.5,138.167 136.5,145.833 136.5,153.5C 135.549,154.919 135.216,156.585 135.5,158.5C 134.199,154.057 133.532,149.391 133.5,144.5C 132.5,144.5 131.5,144.5 130.5,144.5C 130.946,147.01 130.28,149.01 128.5,150.5C 128.433,141.138 128.933,131.804 130,122.5C 131.358,118.402 134.192,116.735 138.5,117.5 Z"/></g>
<g><path style="opacity:0.827" fill="#10dc7f" d="M 181.5,137.5 C 171.522,132.177 161.522,126.844 151.5,121.5C 150.893,121.624 150.56,121.957 150.5,122.5C 149.292,121.766 147.959,121.433 146.5,121.5C 146.5,120.5 146.5,119.5 146.5,118.5C 149.32,118.248 151.986,118.748 154.5,120C 162.256,125.595 170.589,130.262 179.5,134C 180.823,134.816 181.489,135.983 181.5,137.5 Z"/></g>
<g><path style="opacity:1" fill="#09f683" d="M 171.5,123.5 C 180.709,127.741 189.375,132.741 197.5,138.5C 200.352,141.614 203.352,144.78 206.5,148C 206,148.167 205.5,148.333 205,148.5C 200.868,145.567 196.368,143.401 191.5,142C 188.85,139.094 185.517,137.594 181.5,137.5C 181.489,135.983 180.823,134.816 179.5,134C 170.589,130.262 162.256,125.595 154.5,120C 151.986,118.748 149.32,118.248 146.5,118.5C 146.5,119.5 146.5,120.5 146.5,121.5C 147.959,121.433 149.292,121.766 150.5,122.5C 151.5,122.833 152.167,123.5 152.5,124.5C 154.411,127.659 156.078,130.993 157.5,134.5C 157.167,134.833 156.833,135.167 156.5,135.5C 155.378,134.37 154.044,133.703 152.5,133.5C 151.167,132.833 150.167,131.833 149.5,130.5C 147.017,127.627 144.517,124.627 142,121.5C 141.178,118.883 140.678,116.216 140.5,113.5C 144.555,113.176 148.555,113.509 152.5,114.5C 156.821,117.573 161.321,120.24 166,122.5C 167.766,123.233 169.599,123.567 171.5,123.5 Z"/></g>
<g><path style="opacity:1" fill="#04c3be" d="M 144.5,127.5 C 146.411,128.075 148.078,129.075 149.5,130.5C 150.167,131.833 151.167,132.833 152.5,133.5C 160.132,142.467 168.132,151.134 176.5,159.5C 176.55,161.59 175.55,162.923 173.5,163.5C 171.535,160.211 168.868,157.878 165.5,156.5C 155.532,148.366 146.365,139.366 138,129.5C 137.617,130.056 137.117,130.389 136.5,130.5C 136.47,129.503 136.97,128.836 138,128.5C 139.301,128.96 140.634,129.294 142,129.5C 143.376,129.316 144.209,128.649 144.5,127.5 Z"/></g>
<g><path style="opacity:1" fill="#0ee87d" d="M 181.5,137.5 C 185.517,137.594 188.85,139.094 191.5,142C 196.368,143.401 200.868,145.567 205,148.5C 205.5,148.333 206,148.167 206.5,148C 203.352,144.78 200.352,141.614 197.5,138.5C 222.103,151.788 246.436,165.455 270.5,179.5C 270.755,182.676 272.422,184.676 275.5,185.5C 273.084,185.626 270.75,185.959 268.5,186.5C 239.038,170.937 210.038,154.604 181.5,137.5 Z"/></g>
<g><path style="opacity:1" fill="#099edb" d="M 135.5,158.5 C 135.5,165.833 135.5,173.167 135.5,180.5C 134.919,175.174 133.752,169.841 132,164.5C 131.103,170.806 130.603,177.139 130.5,183.5C 129.833,183.167 129.167,182.833 128.5,182.5C 128.5,171.833 128.5,161.167 128.5,150.5C 130.28,149.01 130.946,147.01 130.5,144.5C 131.5,144.5 132.5,144.5 133.5,144.5C 133.532,149.391 134.199,154.057 135.5,158.5 Z"/></g>
<g><path style="opacity:1" fill="#05c3bb" d="M 165.5,156.5 C 168.868,157.878 171.535,160.211 173.5,163.5C 175.55,162.923 176.55,161.59 176.5,159.5C 196.272,178.606 215.606,197.939 234.5,217.5C 229.675,214.657 225.508,210.99 222,206.5C 220.731,207.905 220.231,209.571 220.5,211.5C 209.005,200.173 197.339,189.006 185.5,178C 178.578,170.917 171.911,163.751 165.5,156.5 Z"/></g>
<g><path style="opacity:1" fill="#0eee8b" d="M 152.5,124.5 C 190.141,162.476 227.475,200.809 264.5,239.5C 263.022,239.238 261.689,239.571 260.5,240.5C 261.982,242.483 263.649,244.316 265.5,246C 267.847,246.334 270.181,246.167 272.5,245.5C 271.71,246.401 270.71,247.068 269.5,247.5C 268.5,247.5 267.5,247.5 266.5,247.5C 265.761,247.631 265.094,247.464 264.5,247C 260.915,243.135 257.582,239.135 254.5,235C 246.743,230.307 240.076,224.474 234.5,217.5C 215.606,197.939 196.272,178.606 176.5,159.5C 168.132,151.134 160.132,142.467 152.5,133.5C 154.044,133.703 155.378,134.37 156.5,135.5C 156.833,135.167 157.167,134.833 157.5,134.5C 156.078,130.993 154.411,127.659 152.5,124.5 Z"/></g>
<g><path style="opacity:1" fill="#13e677" d="M 270.5,179.5 C 281.296,185.137 291.963,190.971 302.5,197C 305.754,199.747 308.42,202.914 310.5,206.5C 310.5,207.167 310.5,207.833 310.5,208.5C 309.833,208.5 309.167,208.5 308.5,208.5C 306.021,202.966 304.188,203.299 303,209.5C 301.061,211.194 299.228,213.027 297.5,215C 296.552,215.483 295.552,215.649 294.5,215.5C 294.869,217.993 294.203,218.66 292.5,217.5C 294.743,213.585 297.743,210.251 301.5,207.5C 301.333,207.167 301.167,206.833 301,206.5C 290.279,199.605 279.446,192.938 268.5,186.5C 270.75,185.959 273.084,185.626 275.5,185.5C 272.422,184.676 270.755,182.676 270.5,179.5 Z"/></g>
<g><path style="opacity:1" fill="#a6e22a" d="M 310.5,206.5 C 319.167,207.002 326.834,210.002 333.5,215.5C 331.5,215.167 329.5,214.833 327.5,214.5C 327.166,217.188 327.832,219.521 329.5,221.5C 326.274,219.581 322.94,217.748 319.5,216C 316.788,215.174 314.455,215.674 312.5,217.5C 311.876,217.083 311.543,216.416 311.5,215.5C 313.376,213.952 314.376,211.952 314.5,209.5C 312.901,209.768 311.568,209.434 310.5,208.5C 310.5,207.833 310.5,207.167 310.5,206.5 Z"/></g>
<g><path style="opacity:1" fill="#cfd817" d="M 333.5,215.5 C 340.077,218.743 346.41,222.41 352.5,226.5C 350.516,226.383 348.85,227.05 347.5,228.5C 349.261,229.917 350.594,231.583 351.5,233.5C 343.814,230.057 336.48,226.057 329.5,221.5C 327.832,219.521 327.166,217.188 327.5,214.5C 329.5,214.833 331.5,215.167 333.5,215.5 Z"/></g>
<g><path style="opacity:1" fill="#84ee41" d="M 308.5,208.5 C 309.167,208.5 309.833,208.5 310.5,208.5C 311.568,209.434 312.901,209.768 314.5,209.5C 314.376,211.952 313.376,213.952 311.5,215.5C 311.543,216.416 311.876,217.083 312.5,217.5C 307.505,221.493 302.505,225.493 297.5,229.5C 292.072,228.789 291.406,226.789 295.5,223.5C 300.259,218.75 304.592,213.75 308.5,208.5 Z"/></g>
<g><path style="opacity:1" fill="#0cc0b8" d="M 234.5,217.5 C 240.076,224.474 246.743,230.307 254.5,235C 257.582,239.135 260.915,243.135 264.5,247C 265.094,247.464 265.761,247.631 266.5,247.5C 266.768,249.099 266.434,250.432 265.5,251.5C 265.38,250.414 264.713,249.747 263.5,249.5C 262.833,249.833 262.167,250.167 261.5,250.5C 258.417,254.588 254.75,257.921 250.5,260.5C 253.296,257.203 256.296,254.036 259.5,251C 246.38,238.046 233.38,224.879 220.5,211.5C 220.231,209.571 220.731,207.905 222,206.5C 225.508,210.99 229.675,214.657 234.5,217.5 Z"/></g>
<g><path style="opacity:0.008" fill="#8c7900" d="M 369.5,236.5 C 372.167,237.167 373.833,238.833 374.5,241.5C 372.5,240.167 370.833,238.5 369.5,236.5 Z"/></g>
<g><path style="opacity:0.645" fill="#296fda" d="M 128.5,182.5 C 129.167,182.833 129.833,183.167 130.5,183.5C 130.181,247.856 130.514,312.189 131.5,376.5C 130.778,376.082 130.278,375.416 130,374.5C 129.731,360.656 129.231,346.822 128.5,333C 128.813,282.722 128.813,232.555 128.5,182.5 Z"/></g>
<g><path style="opacity:1" fill="#e6d510" d="M 352.5,226.5 C 358.668,229.08 364.335,232.414 369.5,236.5C 370.833,238.5 372.5,240.167 374.5,241.5C 375.966,242.347 376.8,243.68 377,245.5C 377.747,248.924 377.58,252.257 376.5,255.5C 374.914,256.148 373.247,256.648 371.5,257C 372.956,257.423 373.456,258.256 373,259.5C 371.667,260.167 370.333,260.833 369,261.5C 368.4,258.905 368.9,256.571 370.5,254.5C 370.816,251.022 370.316,247.688 369,244.5C 363.524,240.183 357.69,236.517 351.5,233.5C 350.594,231.583 349.261,229.917 347.5,228.5C 348.85,227.05 350.516,226.383 352.5,226.5 Z"/></g>
<g><path style="opacity:1" fill="#1af47d" d="M 308.5,208.5 C 304.592,213.75 300.259,218.75 295.5,223.5C 292.812,224.024 291.312,225.691 291,228.5C 284.4,233.707 278.233,239.373 272.5,245.5C 270.181,246.167 267.847,246.334 265.5,246C 263.649,244.316 261.982,242.483 260.5,240.5C 261.689,239.571 263.022,239.238 264.5,239.5C 267.588,239.623 270.255,238.623 272.5,236.5C 278.576,229.421 285.243,223.087 292.5,217.5C 294.203,218.66 294.869,217.993 294.5,215.5C 295.552,215.649 296.552,215.483 297.5,215C 299.228,213.027 301.061,211.194 303,209.5C 304.188,203.299 306.021,202.966 308.5,208.5 Z"/></g>
<g><path style="opacity:1" fill="#6ee75e" d="M 295.5,223.5 C 291.406,226.789 292.072,228.789 297.5,229.5C 291.509,235.991 285.342,242.325 279,248.5C 278.814,253.496 280.981,257.163 285.5,259.5C 284.265,259.721 283.265,260.388 282.5,261.5C 280.925,260.544 279.258,259.877 277.5,259.5C 274.297,255.733 271.631,251.733 269.5,247.5C 270.71,247.068 271.71,246.401 272.5,245.5C 278.233,239.373 284.4,233.707 291,228.5C 291.312,225.691 292.812,224.024 295.5,223.5 Z"/></g>
<g><path style="opacity:1" fill="#1db1c0" d="M 265.5,251.5 C 261.994,255.309 258.661,259.309 255.5,263.5C 254.833,263.833 254.167,264.167 253.5,264.5C 253.5,263.5 253.5,262.5 253.5,261.5C 252.041,261.433 250.708,261.766 249.5,262.5C 249.328,261.508 249.662,260.842 250.5,260.5C 254.75,257.921 258.417,254.588 261.5,250.5C 262.167,250.167 262.833,249.833 263.5,249.5C 264.713,249.747 265.38,250.414 265.5,251.5 Z"/></g>
<g><path style="opacity:0.933" fill="#67a86a" d="M 266.5,247.5 C 267.5,247.5 268.5,247.5 269.5,247.5C 271.631,251.733 274.297,255.733 277.5,259.5C 278.167,260.5 278.833,261.5 279.5,262.5C 278.417,262.461 277.417,262.127 276.5,261.5C 275.614,262.325 275.281,263.325 275.5,264.5C 272.844,262.85 270.178,261.184 267.5,259.5C 263.885,261.778 260.552,264.445 257.5,267.5C 257.843,265.517 257.176,264.183 255.5,263.5C 258.661,259.309 261.994,255.309 265.5,251.5C 266.434,250.432 266.768,249.099 266.5,247.5 Z"/></g>
<g><path style="opacity:0.996" fill="#6f8973" d="M 255.5,263.5 C 257.176,264.183 257.843,265.517 257.5,267.5C 253.833,271.833 249.833,275.833 245.5,279.5C 245.626,277.8 246.293,276.3 247.5,275C 247.43,274.235 247.097,273.735 246.5,273.5C 248.482,270.19 250.815,267.19 253.5,264.5C 254.167,264.167 254.833,263.833 255.5,263.5 Z"/></g>
<g><path style="opacity:1" fill="#abda43" d="M 277.5,259.5 C 279.258,259.877 280.925,260.544 282.5,261.5C 283.265,260.388 284.265,259.721 285.5,259.5C 289.205,262.205 292.205,265.538 294.5,269.5C 292.517,269.157 291.183,269.824 290.5,271.5C 287.173,268.182 283.507,265.182 279.5,262.5C 278.833,261.5 278.167,260.5 277.5,259.5 Z"/></g>
<g><path style="opacity:0.996" fill="#3e97ba" d="M 253.5,264.5 C 250.815,267.19 248.482,270.19 246.5,273.5C 243.485,276.509 240.152,279.176 236.5,281.5C 239.917,278.313 242.584,274.646 244.5,270.5C 242.784,270.629 241.117,270.962 239.5,271.5C 242.231,267.766 245.564,264.766 249.5,262.5C 250.708,261.766 252.041,261.433 253.5,261.5C 253.5,262.5 253.5,263.5 253.5,264.5 Z"/></g>
<g><path style="opacity:0.988" fill="#9c8f43" d="M 279.5,262.5 C 283.507,265.182 287.173,268.182 290.5,271.5C 291.5,272.833 292.5,274.167 293.5,275.5C 291.606,274.952 289.94,273.952 288.5,272.5C 287.828,273.949 287.161,275.282 286.5,276.5C 282.131,273.131 278.464,269.131 275.5,264.5C 275.281,263.325 275.614,262.325 276.5,261.5C 277.417,262.127 278.417,262.461 279.5,262.5 Z"/></g>
<g><path style="opacity:1" fill="#e4cc12" d="M 370.5,254.5 C 368.9,256.571 368.4,258.905 369,261.5C 370.333,260.833 371.667,260.167 373,259.5C 373.456,258.256 372.956,257.423 371.5,257C 373.247,256.648 374.914,256.148 376.5,255.5C 374.581,260.588 371.081,264.254 366,266.5C 352.379,273.388 339.212,280.888 326.5,289C 322.907,290.781 319.24,292.281 315.5,293.5C 311.279,291.374 307.279,288.707 303.5,285.5C 300.521,281.854 297.188,278.521 293.5,275.5C 292.5,274.167 291.5,272.833 290.5,271.5C 291.183,269.824 292.517,269.157 294.5,269.5C 299.427,273.422 304.094,277.756 308.5,282.5C 311.017,283.895 313.684,284.895 316.5,285.5C 319.725,284.816 322.725,283.649 325.5,282C 337.836,274.225 350.503,266.892 363.5,260C 365.996,258.334 368.329,256.5 370.5,254.5 Z"/></g>
<g><path style="opacity:1" fill="#ce7119" d="M 293.5,275.5 C 297.188,278.521 300.521,281.854 303.5,285.5C 301.695,284.763 300.029,283.763 298.5,282.5C 298.287,284.342 298.287,286.008 298.5,287.5C 294.474,283.805 290.474,280.138 286.5,276.5C 287.161,275.282 287.828,273.949 288.5,272.5C 289.94,273.952 291.606,274.952 293.5,275.5 Z"/></g>
<g><path style="opacity:1" fill="#e0490b" d="M 303.5,285.5 C 307.279,288.707 311.279,291.374 315.5,293.5C 306.913,299.804 297.58,305.137 287.5,309.5C 288.548,307.466 290.214,306.133 292.5,305.5C 293.386,304.675 293.719,303.675 293.5,302.5C 289.667,303.025 286,304.025 282.5,305.5C 288.517,301.399 294.683,297.399 301,293.5C 301.667,292.5 301.667,291.5 301,290.5C 299.955,289.627 299.122,288.627 298.5,287.5C 298.287,286.008 298.287,284.342 298.5,282.5C 300.029,283.763 301.695,284.763 303.5,285.5 Z"/></g>
<g><path style="opacity:1" fill="#278bdd" d="M 236.5,281.5 C 234.998,283.175 233.665,285.008 232.5,287C 225.047,292.121 218.213,297.954 212,304.5C 206.395,311.385 200.561,318.052 194.5,324.5C 189.553,327.36 185.72,331.36 183,336.5C 180.561,338.629 178.061,340.629 175.5,342.5C 176.242,340.574 177.242,338.741 178.5,337C 177.167,336.333 175.833,336.333 174.5,337C 173.491,339.172 171.824,340.338 169.5,340.5C 192.833,317.5 216.167,294.5 239.5,271.5C 241.117,270.962 242.784,270.629 244.5,270.5C 242.584,274.646 239.917,278.313 236.5,281.5 Z"/></g>
<g><path style="opacity:1" fill="#f12c0d" d="M 287.5,309.5 C 282.161,312.015 276.827,314.182 271.5,316C 270.167,315 270.167,314 271.5,313C 275.82,311.522 279.487,309.022 282.5,305.5C 286,304.025 289.667,303.025 293.5,302.5C 293.719,303.675 293.386,304.675 292.5,305.5C 290.214,306.133 288.548,307.466 287.5,309.5 Z"/></g>
<g><path style="opacity:0.996" fill="#ce191b" d="M 282.5,305.5 C 279.487,309.022 275.82,311.522 271.5,313C 270.167,314 270.167,315 271.5,316C 276.827,314.182 282.161,312.015 287.5,309.5C 265.862,322.657 243.862,335.324 221.5,347.5C 219.453,347.511 217.453,347.844 215.5,348.5C 213.128,347.637 213.128,346.471 215.5,345C 219.88,342.095 224.547,339.762 229.5,338C 233.597,335.63 237.264,332.797 240.5,329.5C 254.072,320.903 268.072,312.903 282.5,305.5 Z"/></g>
<g><path style="opacity:1" fill="#845973" d="M 246.5,273.5 C 247.097,273.735 247.43,274.235 247.5,275C 246.293,276.3 245.626,277.8 245.5,279.5C 228.167,297.5 210.5,315.167 192.5,332.5C 191.5,332.5 190.5,332.5 189.5,332.5C 189.351,331.448 189.517,330.448 190,329.5C 191.707,327.963 193.207,326.296 194.5,324.5C 200.561,318.052 206.395,311.385 212,304.5C 218.213,297.954 225.047,292.121 232.5,287C 233.665,285.008 234.998,283.175 236.5,281.5C 240.152,279.176 243.485,276.509 246.5,273.5 Z"/></g>
<g><path style="opacity:0.988" fill="#7d5d77" d="M 194.5,324.5 C 193.207,326.296 191.707,327.963 190,329.5C 189.517,330.448 189.351,331.448 189.5,332.5C 190.5,332.5 191.5,332.5 192.5,332.5C 177.368,348.132 162.035,363.632 146.5,379C 147.793,379.49 149.127,379.657 150.5,379.5C 149.365,381.213 147.698,381.88 145.5,381.5C 147.559,375.211 146.225,374.211 141.5,378.5C 142.34,376.147 143.674,374.147 145.5,372.5C 146.6,371.442 147.934,370.608 149.5,370C 158.304,360.827 166.971,351.661 175.5,342.5C 178.061,340.629 180.561,338.629 183,336.5C 185.72,331.36 189.553,327.36 194.5,324.5 Z"/></g>
<g><path style="opacity:1" fill="#248de6" d="M 175.5,342.5 C 166.971,351.661 158.304,360.827 149.5,370C 147.934,370.608 146.6,371.442 145.5,372.5C 143.365,372.853 142.032,372.02 141.5,370C 143.654,367.013 145.987,364.18 148.5,361.5C 154.452,353.548 161.452,346.548 169.5,340.5C 171.824,340.338 173.491,339.172 174.5,337C 175.833,336.333 177.167,336.333 178.5,337C 177.242,338.741 176.242,340.574 175.5,342.5 Z"/></g>
<g><path style="opacity:1" fill="#0896f4" d="M 135.5,180.5 C 135.333,243.834 135.5,307.168 136,370.5C 139.136,372.164 140.303,374.831 139.5,378.5C 136.959,377.897 134.626,377.897 132.5,378.5C 131.662,378.158 131.328,377.492 131.5,376.5C 130.514,312.189 130.181,247.856 130.5,183.5C 130.603,177.139 131.103,170.806 132,164.5C 133.752,169.841 134.919,175.174 135.5,180.5 Z"/></g>
<g><path style="opacity:1" fill="#0196fd" d="M 132.5,183.5 C 133.317,185.969 133.817,188.635 134,191.5C 134.667,246.5 134.667,301.5 134,356.5C 133.586,356.957 133.086,357.291 132.5,357.5C 131.441,299.974 131.441,241.974 132.5,183.5 Z"/></g>
<g><path style="opacity:1" fill="#b32d3a" d="M 240.5,329.5 C 237.264,332.797 233.597,335.63 229.5,338C 224.547,339.762 219.88,342.095 215.5,345C 213.128,346.471 213.128,347.637 215.5,348.5C 217.453,347.844 219.453,347.511 221.5,347.5C 215.398,351.39 209.065,355.057 202.5,358.5C 198.358,358.934 194.692,360.434 191.5,363C 190.056,363.781 188.723,363.614 187.5,362.5C 191.232,359.963 194.565,356.963 197.5,353.5C 211.386,344.755 225.719,336.755 240.5,329.5 Z"/></g>
<g><path style="opacity:0.443" fill="#9b3a4c" d="M 197.5,353.5 C 194.565,356.963 191.232,359.963 187.5,362.5C 188.723,363.614 190.056,363.781 191.5,363C 194.692,360.434 198.358,358.934 202.5,358.5C 187.869,366.818 173.202,375.151 158.5,383.5C 156.304,383.59 154.137,383.923 152,384.5C 151.167,384.167 150.333,383.833 149.5,383.5C 149.667,383.167 149.833,382.833 150,382.5C 152.243,381.029 154.743,380.029 157.5,379.5C 164.446,375.538 170.78,370.871 176.5,365.5C 183.361,361.237 190.361,357.237 197.5,353.5 Z"/></g>
<g><path style="opacity:1" fill="#1780c1" d="M 136.5,153.5 C 136.519,225.102 136.519,296.602 136.5,368C 137.126,368.75 137.626,369.584 138,370.5C 141.098,366.893 144.598,363.893 148.5,361.5C 145.987,364.18 143.654,367.013 141.5,370C 142.032,372.02 143.365,372.853 145.5,372.5C 143.674,374.147 142.34,376.147 141.5,378.5C 140.29,378.932 139.29,379.599 138.5,380.5C 136.579,379.637 134.579,378.971 132.5,378.5C 134.626,377.897 136.959,377.897 139.5,378.5C 140.303,374.831 139.136,372.164 136,370.5C 135.5,307.168 135.333,243.834 135.5,180.5C 135.5,173.167 135.5,165.833 135.5,158.5C 135.216,156.585 135.549,154.919 136.5,153.5 Z"/></g>
<g><path style="opacity:1" fill="#8b4a5e" d="M 176.5,365.5 C 170.78,370.871 164.446,375.538 157.5,379.5C 154.743,380.029 152.243,381.029 150,382.5C 149.833,382.833 149.667,383.167 149.5,383.5C 150.333,383.833 151.167,384.167 152,384.5C 154.137,383.923 156.304,383.59 158.5,383.5C 154.074,387.141 149.241,387.474 144,384.5C 142.569,382.562 140.735,381.229 138.5,380.5C 139.29,379.599 140.29,378.932 141.5,378.5C 146.225,374.211 147.559,375.211 145.5,381.5C 147.698,381.88 149.365,381.213 150.5,379.5C 159.191,374.822 167.857,370.156 176.5,365.5 Z"/></g>
</svg>
