<?xml version="1.0" encoding="UTF-8"?>
<!DOCTYPE svg PUBLIC "-//W3C//DTD SVG 1.1//EN" "http://www.w3.org/Graphics/SVG/1.1/DTD/svg11.dtd">
<svg xmlns="http://www.w3.org/2000/svg" version="1.1" width="500px" height="500px" style="shape-rendering:geometricPrecision; text-rendering:geometricPrecision; image-rendering:optimizeQuality; fill-rule:evenodd; clip-rule:evenodd" xmlns:xlink="http://www.w3.org/1999/xlink">
<g><path style="opacity:1" fill="#fefefe" d="M -0.5,-0.5 C 166.167,-0.5 332.833,-0.5 499.5,-0.5C 499.5,166.167 499.5,332.833 499.5,499.5C 332.833,499.5 166.167,499.5 -0.5,499.5C -0.5,332.833 -0.5,166.167 -0.5,-0.5 Z"/></g>
<g><path style="opacity:1" fill="#0d0d0d" d="M 314.5,137.5 C 316.438,139.163 318.772,139.829 321.5,139.5C 323.379,140.341 325.379,140.675 327.5,140.5C 329.838,142.04 332.505,142.706 335.5,142.5C 347.905,145.702 359.905,150.036 371.5,155.5C 370.909,156.151 370.243,156.818 369.5,157.5C 370.35,160.261 369.35,160.928 366.5,159.5C 365.808,160.025 365.308,160.692 365,161.5C 364.963,165.089 364.13,168.422 362.5,171.5C 364.88,173.603 364.213,174.77 360.5,175C 361.167,175.333 361.833,175.667 362.5,176C 361.207,176.49 359.873,176.657 358.5,176.5C 360.056,179.449 359.722,182.116 357.5,184.5C 358.025,185.192 358.692,185.692 359.5,186C 358.833,186.167 358.167,186.333 357.5,186.5C 349.485,184.165 341.485,181.832 333.5,179.5C 333.167,179.5 332.833,179.5 332.5,179.5C 330.585,179.784 328.919,179.451 327.5,178.5C 325.095,177.232 322.428,176.565 319.5,176.5C 319.167,176.5 318.833,176.5 318.5,176.5C 318.389,175.883 318.056,175.383 317.5,175C 312.878,173.844 308.211,173.01 303.5,172.5C 299.785,172.577 296.119,172.244 292.5,171.5C 292.082,170.778 291.416,170.278 290.5,170C 286.848,169.501 283.182,169.335 279.5,169.5C 278.167,169.5 276.833,169.5 275.5,169.5C 275.389,168.883 275.056,168.383 274.5,168C 258.495,166.148 242.495,166.148 226.5,168C 222.535,168.108 218.868,168.941 215.5,170.5C 214.167,170.5 212.833,170.5 211.5,170.5C 186.803,172.258 163.137,177.925 140.5,187.5C 140.548,184.708 139.215,182.875 136.5,182C 137.308,181.692 137.975,181.192 138.5,180.5C 137.066,179.77 135.9,178.77 135,177.5C 134.147,179.125 133.147,179.458 132,178.5C 131.607,176.801 132.107,175.301 133.5,174C 130.684,168.511 128.018,163.011 125.5,157.5C 126.243,156.818 126.909,156.151 127.5,155.5C 132.481,152.907 137.814,150.907 143.5,149.5C 149.237,148.674 154.57,147.007 159.5,144.5C 164.564,142.548 169.897,141.215 175.5,140.5C 178.495,140.706 181.162,140.04 183.5,138.5C 216.386,131.464 249.719,129.631 283.5,133C 293.834,134.537 304.167,136.037 314.5,137.5 Z"/></g>
<g><path style="opacity:1" fill="#818181" d="M 314.5,137.5 C 317.152,137.41 319.485,138.076 321.5,139.5C 318.772,139.829 316.438,139.163 314.5,137.5 Z"/></g>
<g><path style="opacity:1" fill="#565656" d="M 183.5,138.5 C 181.162,140.04 178.495,140.706 175.5,140.5C 177.838,138.96 180.505,138.294 183.5,138.5 Z"/></g>
<g><path style="opacity:1" fill="#acacac" d="M 235.5,148.5 C 234.698,147.048 234.198,145.382 234,143.5C 233.023,142.226 232.189,142.226 231.5,143.5C 230.957,143.44 230.624,143.107 230.5,142.5C 234.107,141.511 237.774,141.177 241.5,141.5C 241.643,146.117 239.976,146.784 236.5,143.5C 235.548,145.045 235.215,146.712 235.5,148.5 Z"/></g>
<g><path style="opacity:1" fill="#8b8b8b" d="M 327.5,140.5 C 330.428,140.565 333.095,141.232 335.5,142.5C 332.505,142.706 329.838,142.04 327.5,140.5 Z"/></g>
<g><path style="opacity:1" fill="#e3e3e3" d="M 276.5,151.5 C 276.325,153.621 276.659,155.621 277.5,157.5C 275.473,157.662 273.473,157.495 271.5,157C 272.38,155.644 272.714,154.144 272.5,152.5C 272.737,151.209 272.404,150.209 271.5,149.5C 271.5,148.5 271.5,147.5 271.5,146.5C 271.443,145.391 271.11,144.391 270.5,143.5C 271.568,142.566 272.901,142.232 274.5,142.5C 275.167,145.5 275.833,148.5 276.5,151.5 Z"/></g>
<g><path style="opacity:1" fill="#e0e0e0" d="M 223.5,157.5 C 222.662,157.158 222.328,156.492 222.5,155.5C 225.04,149.703 223.373,146.037 217.5,144.5C 217.5,146.833 217.5,149.167 217.5,151.5C 217.5,153.833 217.5,156.167 217.5,158.5C 216.504,158.414 215.671,158.748 215,159.5C 214.17,154.192 213.67,148.859 213.5,143.5C 223.412,140.013 227.912,143.346 227,153.5C 225.968,155.027 224.801,156.36 223.5,157.5 Z"/></g>
<g><path style="opacity:1" fill="#141414" d="M 222.5,155.5 C 221.292,156.234 219.959,156.567 218.5,156.5C 218.784,154.585 218.451,152.919 217.5,151.5C 217.5,149.167 217.5,146.833 217.5,144.5C 223.373,146.037 225.04,149.703 222.5,155.5 Z"/></g>
<g><path style="opacity:1" fill="#545454" d="M 159.5,144.5 C 154.57,147.007 149.237,148.674 143.5,149.5C 148.538,147.203 153.871,145.536 159.5,144.5 Z"/></g>
<g><path style="opacity:1" fill="#dcdcdc" d="M 200.5,146.5 C 201.08,148.749 202.413,150.415 204.5,151.5C 205.497,151.53 206.164,151.03 206.5,150C 205.971,148.441 205.304,146.941 204.5,145.5C 205.325,144.614 206.325,144.281 207.5,144.5C 208.254,149.463 208.587,154.463 208.5,159.5C 207.448,159.649 206.448,159.483 205.5,159C 202.614,155.755 199.614,153.088 196.5,151C 197.812,154.051 198.812,157.217 199.5,160.5C 198.675,161.386 197.675,161.719 196.5,161.5C 195.497,156.483 195.497,151.483 196.5,146.5C 197.865,145.193 199.198,145.193 200.5,146.5 Z"/></g>
<g><path style="opacity:1" fill="#7a7a7a" d="M 200.5,146.5 C 202.587,147.585 203.92,149.251 204.5,151.5C 202.413,150.415 201.08,148.749 200.5,146.5 Z"/></g>
<g><path style="opacity:1" fill="#1a1a1a" d="M 271.5,146.5 C 271.5,147.5 271.5,148.5 271.5,149.5C 270.908,152.083 270.242,152.083 269.5,149.5C 269.453,147.962 270.12,146.962 271.5,146.5 Z"/></g>
<g><path style="opacity:1" fill="#f0f0f0" d="M 235.5,148.5 C 240.833,148.833 240.833,149.167 235.5,149.5C 235.5,151.167 235.5,152.833 235.5,154.5C 235.179,156.048 234.179,156.715 232.5,156.5C 232.795,154.265 232.461,152.265 231.5,150.5C 231.5,148.167 231.5,145.833 231.5,143.5C 232.189,142.226 233.023,142.226 234,143.5C 234.198,145.382 234.698,147.048 235.5,148.5 Z"/></g>
<g><path style="opacity:1" fill="#d0d0d0" d="M 180.5,148.5 C 191.507,147.832 194.507,152.498 189.5,162.5C 179.941,166.117 175.775,162.784 177,152.5C 178.032,150.973 179.199,149.64 180.5,148.5 Z"/></g>
<g><path style="opacity:1" fill="#161616" d="M 180.5,150.5 C 182.696,150.565 184.696,151.232 186.5,152.5C 187.642,155.399 188.308,158.399 188.5,161.5C 185.956,161.896 183.789,161.229 182,159.5C 180.851,156.607 180.351,153.607 180.5,150.5 Z"/></g>
<g><path style="opacity:1" fill="#afafaf" d="M 270.5,143.5 C 271.11,144.391 271.443,145.391 271.5,146.5C 270.12,146.962 269.453,147.962 269.5,149.5C 270.242,152.083 270.908,152.083 271.5,149.5C 272.404,150.209 272.737,151.209 272.5,152.5C 271.167,152.5 269.833,152.5 268.5,152.5C 268.5,154.167 268.5,155.833 268.5,157.5C 266.712,157.785 265.045,157.452 263.5,156.5C 265.654,152.006 267.988,147.673 270.5,143.5 Z"/></g>
<g><path style="opacity:1" fill="#d2d2d2" d="M 329.5,151.5 C 333.853,152.059 338.186,152.725 342.5,153.5C 342.721,157.795 341.388,158.462 338.5,155.5C 336.714,158.958 335.381,162.624 334.5,166.5C 335.894,167.687 335.727,168.354 334,168.5C 332.605,168.22 331.438,167.553 330.5,166.5C 331.181,162.744 332.181,159.078 333.5,155.5C 332.388,153.369 330.888,153.369 329,155.5C 328.421,154.072 328.588,152.738 329.5,151.5 Z"/></g>
<g><path style="opacity:1" fill="#d2d2d2" d="M 285.5,143.5 C 287.857,143.337 290.19,143.503 292.5,144C 294.037,145.11 294.703,146.61 294.5,148.5C 292.641,148.539 291.308,147.706 290.5,146C 286.932,145.567 285.266,147.233 285.5,151C 286.296,155.294 288.962,157.294 293.5,157C 286.631,161.399 282.631,159.566 281.5,151.5C 281.282,147.934 282.616,145.268 285.5,143.5 Z"/></g>
<g><path style="opacity:1" fill="#c7c7c7" d="M 242.5,156.5 C 240.801,156.66 239.134,156.494 237.5,156C 238.416,155.722 239.082,155.222 239.5,154.5C 242.083,150.557 243.083,151.223 242.5,156.5 Z"/></g>
<g><path style="opacity:1" fill="#d9d9d9" d="M 298.5,145.5 C 300.527,145.338 302.527,145.505 304.5,146C 301.451,153.881 302.451,154.381 307.5,147.5C 308.833,146.167 310.167,146.167 311.5,147.5C 309.077,148.918 307.411,150.918 306.5,153.5C 307.521,156.75 309.188,159.584 311.5,162C 308.793,162.328 306.126,161.995 303.5,161C 304.694,158.556 304.194,156.389 302,154.5C 301.505,156.473 301.338,158.473 301.5,160.5C 299.473,160.662 297.473,160.495 295.5,160C 297.92,155.496 298.92,150.663 298.5,145.5 Z"/></g>
<g><path style="opacity:1" fill="#797979" d="M 231.5,150.5 C 232.461,152.265 232.795,154.265 232.5,156.5C 234.179,156.715 235.179,156.048 235.5,154.5C 236.833,154.5 238.167,154.5 239.5,154.5C 239.082,155.222 238.416,155.722 237.5,156C 239.134,156.494 240.801,156.66 242.5,156.5C 239.038,157.482 235.371,157.815 231.5,157.5C 231.5,155.167 231.5,152.833 231.5,150.5 Z"/></g>
<g><path style="opacity:1" fill="#f2f2f2" d="M 257.5,141.5 C 258.5,141.5 259.5,141.5 260.5,141.5C 260.666,146.511 260.499,151.511 260,156.5C 259.768,157.737 259.268,158.737 258.5,159.5C 257.51,153.69 257.177,147.69 257.5,141.5 Z"/></g>
<g><path style="opacity:1" fill="#757575" d="M 276.5,151.5 C 277.391,153.291 278.391,155.124 279.5,157C 278.906,157.464 278.239,157.631 277.5,157.5C 276.659,155.621 276.325,153.621 276.5,151.5 Z"/></g>
<g><path style="opacity:1" fill="#888888" d="M 217.5,151.5 C 218.451,152.919 218.784,154.585 218.5,156.5C 219.959,156.567 221.292,156.234 222.5,155.5C 222.328,156.492 222.662,157.158 223.5,157.5C 221.735,158.461 219.735,158.795 217.5,158.5C 217.5,156.167 217.5,153.833 217.5,151.5 Z"/></g>
<g><path style="opacity:1" fill="#b6b6b6" d="M 257.5,141.5 C 257.177,147.69 257.51,153.69 258.5,159.5C 257.688,160.993 256.355,161.66 254.5,161.5C 250.966,161.163 250.633,159.83 253.5,157.5C 254.478,157.977 255.311,158.643 256,159.5C 256.807,153.584 256.641,147.75 255.5,142C 256.094,141.536 256.761,141.369 257.5,141.5 Z"/></g>
<g><path style="opacity:1" fill="#9d9d9d" d="M 351.5,164.5 C 350.504,164.586 349.671,164.252 349,163.5C 348.808,161.423 348.308,159.423 347.5,157.5C 346.482,158.193 345.482,158.859 344.5,159.5C 344.414,158.504 344.748,157.671 345.5,157C 349.786,155.756 353.119,156.922 355.5,160.5C 354.311,161.429 352.978,161.762 351.5,161.5C 351.719,160.325 351.386,159.325 350.5,158.5C 349.23,160.757 349.564,162.757 351.5,164.5 Z"/></g>
<g><path style="opacity:1" fill="#cacaca" d="M 151.5,156.5 C 153.833,156.5 156.167,156.5 158.5,156.5C 158.529,160.243 159.529,163.577 161.5,166.5C 159.977,171.272 156.644,173.606 151.5,173.5C 150.622,169.411 149.455,165.411 148,161.5C 147.5,160.333 146.667,159.5 145.5,159C 147.723,158.434 149.723,157.6 151.5,156.5 Z"/></g>
<g><path style="opacity:1" fill="#d9d9d9" d="M 166.5,168.5 C 166.59,165.848 165.924,163.515 164.5,161.5C 163.992,159.135 163.325,156.801 162.5,154.5C 164.191,152.744 166.191,152.244 168.5,153C 167.151,157.409 167.818,161.576 170.5,165.5C 172.323,164.509 173.823,163.176 175,161.5C 176.269,162.905 176.769,164.571 176.5,166.5C 173.061,166.788 169.728,167.454 166.5,168.5 Z"/></g>
<g><path style="opacity:1" fill="#dfdfdf" d="M 351.5,164.5 C 353.163,171.529 350.497,173.696 343.5,171C 341.963,169.89 341.297,168.39 341.5,166.5C 343.833,167.833 346.167,169.167 348.5,170.5C 347.108,166.804 345.775,163.137 344.5,159.5C 345.482,158.859 346.482,158.193 347.5,157.5C 348.308,159.423 348.808,161.423 349,163.5C 349.671,164.252 350.504,164.586 351.5,164.5 Z"/></g>
<g><path style="opacity:1" fill="#121212" d="M 151.5,158.5 C 154.423,159.163 155.09,160.83 153.5,163.5C 152.05,162.15 151.383,160.484 151.5,158.5 Z"/></g>
<g><path style="opacity:1" fill="#cccccc" d="M 316.5,148.5 C 319.786,149.207 323.119,149.54 326.5,149.5C 326.785,151.288 326.452,152.955 325.5,154.5C 321.118,148.619 319.118,149.286 319.5,156.5C 324.5,157.003 324.167,157.336 318.5,157.5C 318.5,159.167 318.5,160.833 318.5,162.5C 320.722,162.822 322.556,162.155 324,160.5C 324.494,162.134 324.66,163.801 324.5,165.5C 320.833,164.833 317.167,164.167 313.5,163.5C 314.341,158.468 315.341,153.468 316.5,148.5 Z"/></g>
<g><path style="opacity:1" fill="#232323" d="M 129.5,182.5 C 128.772,180.488 127.938,178.488 127,176.5C 123.947,173.113 121.28,169.447 119,165.5C 118.235,163.934 118.402,162.601 119.5,161.5C 120.117,161.389 120.617,161.056 121,160.5C 121.44,162.076 122.273,163.41 123.5,164.5C 123.291,165.086 122.957,165.586 122.5,166C 123.938,166.219 125.271,166.719 126.5,167.5C 125.603,167.669 124.603,168.002 123.5,168.5C 124.861,170.028 126.028,171.695 127,173.5C 127.333,171.833 127.667,170.167 128,168.5C 128.185,172.656 129.018,176.656 130.5,180.5C 130.457,181.416 130.124,182.083 129.5,182.5 Z"/></g>
<g><path style="opacity:1" fill="#141414" d="M 153.5,165.5 C 158.584,165.966 159.25,167.632 155.5,170.5C 154.438,168.978 153.771,167.312 153.5,165.5 Z"/></g>
<g><path style="opacity:1" fill="#3c3c3c" d="M 275.5,169.5 C 255.464,167.968 235.464,168.301 215.5,170.5C 218.868,168.941 222.535,168.108 226.5,168C 242.495,166.148 258.495,166.148 274.5,168C 275.056,168.383 275.389,168.883 275.5,169.5 Z"/></g>
<g><path style="opacity:1" fill="#6c6c6c" d="M 164.5,161.5 C 165.924,163.515 166.59,165.848 166.5,168.5C 165.076,166.485 164.41,164.152 164.5,161.5 Z"/></g>
<g><path style="opacity:1" fill="#f7f7f7" d="M 275.5,169.5 C 276.833,169.5 278.167,169.5 279.5,169.5C 283.639,170.563 287.972,171.23 292.5,171.5C 296.119,172.244 299.785,172.577 303.5,172.5C 308.261,174.326 313.261,175.659 318.5,176.5C 318.833,176.5 319.167,176.5 319.5,176.5C 321.838,178.04 324.505,178.706 327.5,178.5C 328.919,179.451 330.585,179.784 332.5,179.5C 331.589,183.457 330.589,187.457 329.5,191.5C 326.86,193.879 326.86,196.379 329.5,199C 334.085,200.585 338.752,201.918 343.5,203C 346.869,204.346 349.869,206.179 352.5,208.5C 351.292,209.234 349.959,209.567 348.5,209.5C 349.283,213.653 349.616,217.653 349.5,221.5C 352.434,224.638 355.768,227.304 359.5,229.5C 358.761,229.369 358.094,229.536 357.5,230C 357.943,231.518 357.276,232.685 355.5,233.5C 357.854,235.246 358.854,237.579 358.5,240.5C 356.159,238.455 353.826,236.455 351.5,234.5C 350.5,232.833 349.167,231.5 347.5,230.5C 346.167,229.167 344.833,229.167 343.5,230.5C 341.856,230.81 340.856,231.81 340.5,233.5C 339.244,233.461 338.244,233.961 337.5,235C 338.598,235.77 338.598,236.603 337.5,237.5C 336.391,237.443 335.391,237.11 334.5,236.5C 333.1,237.1 332.1,238.1 331.5,239.5C 325.064,242.082 319.23,245.749 314,250.5C 313.868,252.323 314.868,253.323 317,253.5C 318.3,252.293 319.8,251.626 321.5,251.5C 326.088,249.848 329.088,247.181 330.5,243.5C 330.833,243.5 331.167,243.5 331.5,243.5C 335.205,243.871 337.205,245.871 337.5,249.5C 331.604,250.028 326.437,252.361 322,256.5C 321.282,255.549 320.449,255.383 319.5,256C 320.563,257.188 321.897,257.688 323.5,257.5C 323.263,258.791 323.596,259.791 324.5,260.5C 328.812,264.454 332.145,269.12 334.5,274.5C 333.883,274.389 333.383,274.056 333,273.5C 332.516,275.178 331.683,275.844 330.5,275.5C 329.833,274.833 329.167,274.167 328.5,273.5C 327.649,271.118 326.316,269.118 324.5,267.5C 323.686,265.727 322.352,265.227 320.5,266C 316.086,269.299 311.419,272.132 306.5,274.5C 304.352,274.611 304.019,273.944 305.5,272.5C 303.827,270.477 303.16,268.144 303.5,265.5C 304.167,256.17 304.333,246.837 304,237.5C 302.358,232.934 301.025,228.268 300,223.5C 293.484,211.315 283.651,202.982 270.5,198.5C 268.485,197.076 266.152,196.41 263.5,196.5C 240.049,191.927 220.549,198.594 205,216.5C 201.732,221.036 199.565,226.036 198.5,231.5C 197.732,232.263 197.232,233.263 197,234.5C 196.179,241.679 196.345,248.679 197.5,255.5C 197.833,260.833 198.167,266.167 198.5,271.5C 198.371,273.216 198.038,274.883 197.5,276.5C 197.167,276.5 196.833,276.5 196.5,276.5C 191.403,273.252 186.403,269.752 181.5,266C 179.648,265.227 178.314,265.727 177.5,267.5C 175.478,269.531 173.811,271.865 172.5,274.5C 171.766,275.708 171.433,277.041 171.5,278.5C 170.849,277.909 170.182,277.243 169.5,276.5C 169.706,278.61 168.873,280.61 167,282.5C 166.722,281.584 166.222,280.918 165.5,280.5C 165.389,279.883 165.056,279.383 164.5,279C 165.973,278.29 166.64,277.124 166.5,275.5C 169.386,269.617 173.052,264.284 177.5,259.5C 178.872,258.488 180.205,257.488 181.5,256.5C 183.34,254.832 185.34,253.332 187.5,252C 188.738,251.31 188.738,250.81 187.5,250.5C 183.223,246.688 178.557,243.355 173.5,240.5C 172.609,239.89 171.609,239.557 170.5,239.5C 169.596,238.791 169.263,237.791 169.5,236.5C 167.833,236.5 166.167,236.5 164.5,236.5C 164.5,235.5 164.5,234.5 164.5,233.5C 162.446,233.635 160.779,232.968 159.5,231.5C 158.081,230.549 156.415,230.216 154.5,230.5C 153.5,231.167 152.5,231.833 151.5,232.5C 150.047,231.175 150.381,230.342 152.5,230C 151.44,228.702 150.274,227.535 149,226.5C 147.234,227.233 145.401,227.567 143.5,227.5C 146.013,225.074 149.013,223.408 152.5,222.5C 153.163,220.359 153.497,218.025 153.5,215.5C 153.471,212.731 152.805,210.397 151.5,208.5C 150.833,208.5 150.167,208.5 149.5,208.5C 149.833,207.833 150.167,207.167 150.5,206.5C 156.718,205.537 162.385,203.204 167.5,199.5C 167.987,198.554 168.32,197.554 168.5,196.5C 166.867,192.434 165.534,188.268 164.5,184C 164.585,182.893 164.919,181.893 165.5,181C 180.731,176.743 196.064,173.243 211.5,170.5C 212.833,170.5 214.167,170.5 215.5,170.5C 235.464,168.301 255.464,167.968 275.5,169.5 Z"/></g>
<g><path style="opacity:1" fill="#525252" d="M 279.5,169.5 C 283.182,169.335 286.848,169.501 290.5,170C 291.416,170.278 292.082,170.778 292.5,171.5C 287.972,171.23 283.639,170.563 279.5,169.5 Z"/></g>
<g><path style="opacity:1" fill="#3c3c3c" d="M 127.5,155.5 C 126.909,156.151 126.243,156.818 125.5,157.5C 128.018,163.011 130.684,168.511 133.5,174C 132.107,175.301 131.607,176.801 132,178.5C 133.147,179.458 134.147,179.125 135,177.5C 135.9,178.77 137.066,179.77 138.5,180.5C 137.975,181.192 137.308,181.692 136.5,182C 139.215,182.875 140.548,184.708 140.5,187.5C 138.058,187.646 137.391,186.813 138.5,185C 138,184.833 137.5,184.667 137,184.5C 135.332,185.487 134.165,186.487 133.5,187.5C 131.712,186.563 130.379,185.23 129.5,183.5C 129.5,183.167 129.5,182.833 129.5,182.5C 130.124,182.083 130.457,181.416 130.5,180.5C 129.018,176.656 128.185,172.656 128,168.5C 127.667,170.167 127.333,171.833 127,173.5C 126.028,171.695 124.861,170.028 123.5,168.5C 124.603,168.002 125.603,167.669 126.5,167.5C 125.271,166.719 123.938,166.219 122.5,166C 122.957,165.586 123.291,165.086 123.5,164.5C 122.273,163.41 121.44,162.076 121,160.5C 120.617,161.056 120.117,161.389 119.5,161.5C 121.063,158.05 123.73,156.05 127.5,155.5 Z"/></g>
<g><path style="opacity:1" fill="#424242" d="M 303.5,172.5 C 308.211,173.01 312.878,173.844 317.5,175C 318.056,175.383 318.389,175.883 318.5,176.5C 313.261,175.659 308.261,174.326 303.5,172.5 Z"/></g>
<g><path style="opacity:1" fill="#585858" d="M 319.5,176.5 C 322.428,176.565 325.095,177.232 327.5,178.5C 324.505,178.706 321.838,178.04 319.5,176.5 Z"/></g>
<g><path style="opacity:1" fill="#767676" d="M 332.5,179.5 C 332.833,179.5 333.167,179.5 333.5,179.5C 333.689,183.037 333.023,186.37 331.5,189.5C 330.833,189.5 330.5,189.833 330.5,190.5C 330.5,191.167 330.167,191.5 329.5,191.5C 330.589,187.457 331.589,183.457 332.5,179.5 Z"/></g>
<g><path style="opacity:1" fill="#0b0b0b" d="M 122.5,186.5 C 124.806,187.812 127.139,189.145 129.5,190.5C 128.189,191.258 127.689,192.258 128,193.5C 129.507,192.465 131.007,192.632 132.5,194C 132.5,195.667 132.5,197.333 132.5,199C 134.553,200.202 136.553,200.536 138.5,200C 137.167,201 137.167,202 138.5,203C 135.833,203.667 135.833,204.333 138.5,205C 138.167,205.333 137.833,205.667 137.5,206C 138.872,206.402 140.205,206.902 141.5,207.5C 143.722,206.222 146.056,205.222 148.5,204.5C 149.713,204.747 150.38,205.414 150.5,206.5C 149.85,206.196 149.183,205.863 148.5,205.5C 141.5,209 134.5,212.5 127.5,216C 125.174,217.805 123.508,219.972 122.5,222.5C 121.833,222.5 121.5,222.167 121.5,221.5C 121.92,219.906 122.586,218.406 123.5,217C 122.387,215.606 121.053,214.439 119.5,213.5C 120.32,211.057 119.653,208.891 117.5,207C 115.482,206.495 113.482,205.995 111.5,205.5C 109.645,204.31 107.812,202.977 106,201.5C 105.219,200.056 105.386,198.723 106.5,197.5C 111.32,193.001 116.653,189.335 122.5,186.5 Z"/></g>
<g><path style="opacity:1" fill="#0a0a0a" d="M 330.5,190.5 C 330.5,189.833 330.833,189.5 331.5,189.5C 336.175,188.676 340.675,188.342 345,188.5C 346.555,190.146 348.221,190.479 350,189.5C 353.099,190.455 356.266,191.289 359.5,192C 350.423,190.927 341.423,191.427 332.5,193.5C 332.715,191.821 332.048,190.821 330.5,190.5 Z"/></g>
<g><path style="opacity:1" fill="#333333" d="M 211.5,170.5 C 196.064,173.243 180.731,176.743 165.5,181C 164.919,181.893 164.585,182.893 164.5,184C 165.534,188.268 166.867,192.434 168.5,196.5C 168.32,197.554 167.987,198.554 167.5,199.5C 162.385,203.204 156.718,205.537 150.5,206.5C 150.38,205.414 149.713,204.747 148.5,204.5C 146.056,205.222 143.722,206.222 141.5,207.5C 140.205,206.902 138.872,206.402 137.5,206C 137.833,205.667 138.167,205.333 138.5,205C 135.833,204.333 135.833,203.667 138.5,203C 137.167,202 137.167,201 138.5,200C 136.553,200.536 134.553,200.202 132.5,199C 132.5,197.333 132.5,195.667 132.5,194C 131.007,192.632 129.507,192.465 128,193.5C 127.689,192.258 128.189,191.258 129.5,190.5C 127.139,189.145 124.806,187.812 122.5,186.5C 124.395,184.759 126.728,183.759 129.5,183.5C 130.379,185.23 131.712,186.563 133.5,187.5C 134.165,186.487 135.332,185.487 137,184.5C 137.5,184.667 138,184.833 138.5,185C 137.391,186.813 138.058,187.646 140.5,187.5C 163.137,177.925 186.803,172.258 211.5,170.5 Z"/></g>
<g><path style="opacity:1" fill="#090909" d="M 375.5,188.5 C 380.038,190.365 383.704,193.365 386.5,197.5C 384.981,198.41 383.315,199.243 381.5,200C 384.264,201.544 384.097,202.711 381,203.5C 380.667,202.5 380.333,201.5 380,200.5C 377.599,203.335 375.099,206.169 372.5,209C 373.833,209.667 373.833,210.333 372.5,211C 371.24,212.113 370.073,212.28 369,211.5C 368.911,213.113 369.745,214.28 371.5,215C 371.167,215.167 370.833,215.333 370.5,215.5C 364.275,211.22 357.609,207.72 350.5,205C 353.612,203.225 356.445,201.058 359,198.5C 360.533,198.944 362.033,199.277 363.5,199.5C 363.833,198.833 364.167,198.167 364.5,197.5C 365.451,198.326 366.451,198.492 367.5,198C 370.82,195.197 373.487,192.031 375.5,188.5 Z"/></g>
<g><path style="opacity:1" fill="#808080" d="M 263.5,196.5 C 266.152,196.41 268.485,197.076 270.5,198.5C 267.848,198.59 265.515,197.924 263.5,196.5 Z"/></g>
<g><path style="opacity:1" fill="#343434" d="M 371.5,155.5 C 376.334,157.507 377.5,160.841 375,165.5C 368.087,169.561 365.42,175.561 367,183.5C 369.757,185.452 372.59,187.118 375.5,188.5C 373.487,192.031 370.82,195.197 367.5,198C 366.451,198.492 365.451,198.326 364.5,197.5C 364.167,198.167 363.833,198.833 363.5,199.5C 362.033,199.277 360.533,198.944 359,198.5C 356.445,201.058 353.612,203.225 350.5,205C 357.609,207.72 364.275,211.22 370.5,215.5C 370.833,215.333 371.167,215.167 371.5,215C 369.745,214.28 368.911,213.113 369,211.5C 370.073,212.28 371.24,212.113 372.5,211C 373.833,210.333 373.833,209.667 372.5,209C 375.099,206.169 377.599,203.335 380,200.5C 380.333,201.5 380.667,202.5 381,203.5C 384.097,202.711 384.264,201.544 381.5,200C 383.315,199.243 384.981,198.41 386.5,197.5C 390.895,198.96 392.729,201.96 392,206.5C 388.364,208.637 384.864,210.971 381.5,213.5C 379.32,216.837 376.986,220.004 374.5,223C 370.668,223.762 367.002,223.262 363.5,221.5C 362.52,224.086 362.187,226.753 362.5,229.5C 361.5,229.5 360.5,229.5 359.5,229.5C 355.768,227.304 352.434,224.638 349.5,221.5C 350.404,220.791 350.737,219.791 350.5,218.5C 353.187,218.664 355.854,218.497 358.5,218C 356.966,214.817 354.966,211.65 352.5,208.5C 349.869,206.179 346.869,204.346 343.5,203C 338.752,201.918 334.085,200.585 329.5,199C 326.86,196.379 326.86,193.879 329.5,191.5C 330.167,191.5 330.5,191.167 330.5,190.5C 332.048,190.821 332.715,191.821 332.5,193.5C 341.423,191.427 350.423,190.927 359.5,192C 356.266,191.289 353.099,190.455 350,189.5C 348.221,190.479 346.555,190.146 345,188.5C 340.675,188.342 336.175,188.676 331.5,189.5C 333.023,186.37 333.689,183.037 333.5,179.5C 341.485,181.832 349.485,184.165 357.5,186.5C 358.167,186.333 358.833,186.167 359.5,186C 358.692,185.692 358.025,185.192 357.5,184.5C 359.722,182.116 360.056,179.449 358.5,176.5C 359.873,176.657 361.207,176.49 362.5,176C 361.833,175.667 361.167,175.333 360.5,175C 364.213,174.77 364.88,173.603 362.5,171.5C 364.13,168.422 364.963,165.089 365,161.5C 365.308,160.692 365.808,160.025 366.5,159.5C 369.35,160.928 370.35,160.261 369.5,157.5C 370.243,156.818 370.909,156.151 371.5,155.5 Z"/></g>
<g><path style="opacity:1" fill="#181818" d="M 188.5,198.5 C 190.693,200.522 191.693,203.189 191.5,206.5C 193.806,206.993 196.139,207.326 198.5,207.5C 198.5,208.5 198.5,209.5 198.5,210.5C 196.5,210.833 194.5,211.167 192.5,211.5C 193.751,220.329 191.751,221.829 186.5,216C 184.069,215.748 181.735,216.248 179.5,217.5C 179.167,216.833 178.833,216.167 178.5,215.5C 181.52,211.235 180.854,207.568 176.5,204.5C 179.5,203.833 182.5,203.167 185.5,202.5C 186.91,201.431 187.91,200.097 188.5,198.5 Z"/></g>
<g><path style="opacity:1" fill="#111111" d="M 322.5,215.5 C 322.414,216.496 322.748,217.329 323.5,218C 321.866,218.494 320.199,218.66 318.5,218.5C 315.312,216.944 312.979,217.944 311.5,221.5C 311.189,222.478 310.522,223.145 309.5,223.5C 308.682,220.893 308.182,218.226 308,215.5C 305.292,214.104 302.792,212.437 300.5,210.5C 302.971,208.929 305.637,207.929 308.5,207.5C 307.442,197.734 309.442,196.567 314.5,204C 317.578,203.934 320.578,204.101 323.5,204.5C 322.222,206.722 321.222,209.056 320.5,211.5C 321.225,212.867 321.892,214.2 322.5,215.5 Z"/></g>
<g><path style="opacity:1" fill="#8d8d8d" d="M 151.5,208.5 C 152.805,210.397 153.471,212.731 153.5,215.5C 153.497,218.025 153.163,220.359 152.5,222.5C 152.774,217.737 152.441,213.07 151.5,208.5 Z"/></g>
<g><path style="opacity:1" fill="#0e0e0e" d="M 352.5,208.5 C 354.966,211.65 356.966,214.817 358.5,218C 355.854,218.497 353.187,218.664 350.5,218.5C 350.737,219.791 350.404,220.791 349.5,221.5C 349.616,217.653 349.283,213.653 348.5,209.5C 349.959,209.567 351.292,209.234 352.5,208.5 Z"/></g>
<g><path style="opacity:1" fill="#1a1a1a" d="M 149.5,208.5 C 150.167,208.5 150.833,208.5 151.5,208.5C 152.441,213.07 152.774,217.737 152.5,222.5C 149.013,223.408 146.013,225.074 143.5,227.5C 141.8,227.626 140.3,228.293 139,229.5C 137.989,228.944 137.156,228.278 136.5,227.5C 136.201,225.396 136.534,223.396 137.5,221.5C 138.439,223.053 139.606,224.387 141,225.5C 143.806,224.43 146.473,223.097 149,221.5C 149.749,220.365 149.583,219.365 148.5,218.5C 146.556,217.811 144.556,217.311 142.5,217C 144.397,215.89 146.23,215.724 148,216.5C 149.319,214.75 149.819,212.75 149.5,210.5C 145.711,210.263 145.711,209.596 149.5,208.5 Z"/></g>
<g><path style="opacity:1" fill="#484848" d="M 111.5,205.5 C 113.482,205.995 115.482,206.495 117.5,207C 119.653,208.891 120.32,211.057 119.5,213.5C 121.053,214.439 122.387,215.606 123.5,217C 122.586,218.406 121.92,219.906 121.5,221.5C 119.287,219.042 118.121,216.042 118,212.5C 116.306,209.642 114.139,207.309 111.5,205.5 Z"/></g>
<g><path style="opacity:1" fill="#939393" d="M 322.5,215.5 C 324.104,216.287 324.771,217.62 324.5,219.5C 322.265,219.795 320.265,219.461 318.5,218.5C 320.199,218.66 321.866,218.494 323.5,218C 322.748,217.329 322.414,216.496 322.5,215.5 Z"/></g>
<g><path style="opacity:1" fill="#838383" d="M 318.5,218.5 C 315.962,219.043 313.628,220.043 311.5,221.5C 312.979,217.944 315.312,216.944 318.5,218.5 Z"/></g>
<g><path style="opacity:1" fill="#383838" d="M 150.5,206.5 C 150.167,207.167 149.833,207.833 149.5,208.5C 145.711,209.596 145.711,210.263 149.5,210.5C 149.819,212.75 149.319,214.75 148,216.5C 146.23,215.724 144.397,215.89 142.5,217C 144.556,217.311 146.556,217.811 148.5,218.5C 149.583,219.365 149.749,220.365 149,221.5C 146.473,223.097 143.806,224.43 141,225.5C 139.606,224.387 138.439,223.053 137.5,221.5C 136.534,223.396 136.201,225.396 136.5,227.5C 135.532,225.393 135.198,223.059 135.5,220.5C 131.351,220.871 127.351,221.871 123.5,223.5C 122.893,223.376 122.56,223.043 122.5,222.5C 123.508,219.972 125.174,217.805 127.5,216C 134.5,212.5 141.5,209 148.5,205.5C 149.183,205.863 149.85,206.196 150.5,206.5 Z"/></g>
<g><path style="opacity:1" fill="#202020" d="M 347.5,230.5 C 346.503,234.137 344.836,234.804 342.5,232.5C 342.833,231.833 343.167,231.167 343.5,230.5C 344.833,229.167 346.167,229.167 347.5,230.5 Z"/></g>
<g><path style="opacity:1" fill="#777777" d="M 154.5,230.5 C 153.717,234.41 151.384,236.743 147.5,237.5C 148.46,235.539 149.793,233.873 151.5,232.5C 152.5,231.833 153.5,231.167 154.5,230.5 Z"/></g>
<g><path style="opacity:1" fill="#0f0f0f" d="M 154.5,230.5 C 156.415,230.216 158.081,230.549 159.5,231.5C 159.5,231.833 159.5,232.167 159.5,232.5C 155.651,235.403 152.317,238.737 149.5,242.5C 148.71,241.206 147.71,240.039 146.5,239C 147.056,238.617 147.389,238.117 147.5,237.5C 151.384,236.743 153.717,234.41 154.5,230.5 Z"/></g>
<g><path style="opacity:1" fill="#838383" d="M 159.5,231.5 C 160.779,232.968 162.446,233.635 164.5,233.5C 164.5,234.5 164.5,235.5 164.5,236.5C 166.167,236.5 167.833,236.5 169.5,236.5C 169.263,237.791 169.596,238.791 170.5,239.5C 167.5,243.167 164.167,246.5 160.5,249.5C 161.882,246.606 163.882,244.106 166.5,242C 166.272,241.601 165.938,241.435 165.5,241.5C 166.29,240.206 167.29,239.039 168.5,238C 167.833,237.833 167.167,237.667 166.5,237.5C 164.471,238.844 162.471,240.177 160.5,241.5C 160.5,240.5 160.5,239.5 160.5,238.5C 162.728,237.678 163.395,236.345 162.5,234.5C 159.195,236.475 156.195,238.809 153.5,241.5C 155.5,238.5 157.5,235.5 159.5,232.5C 159.5,232.167 159.5,231.833 159.5,231.5 Z"/></g>
<g><path style="opacity:1" fill="#a0a0a0" d="M 343.5,230.5 C 343.167,231.167 342.833,231.833 342.5,232.5C 344.808,235.815 347.141,239.149 349.5,242.5C 348.504,242.414 347.671,242.748 347,243.5C 344.833,241.333 342.667,239.167 340.5,237C 341.167,236.667 341.833,236.333 342.5,236C 341.619,235.292 340.953,234.458 340.5,233.5C 340.856,231.81 341.856,230.81 343.5,230.5 Z"/></g>
<g><path style="opacity:1" fill="#858585" d="M 334.5,236.5 C 333.588,237.738 333.421,239.072 334,240.5C 336,242.5 338,244.5 340,246.5C 340.5,246 341,245.5 341.5,245C 339.833,243.333 338.167,241.667 336.5,240C 337.252,239.329 337.586,238.496 337.5,237.5C 340.429,240.087 343.429,242.754 346.5,245.5C 347.688,246.364 348.855,247.364 350,248.5C 351.667,244.5 353.333,244.5 355,248.5C 355.383,247.944 355.883,247.611 356.5,247.5C 357.557,249.941 358.89,252.275 360.5,254.5C 359.556,256.137 360.223,257.137 362.5,257.5C 363.478,257.811 364.145,258.478 364.5,259.5C 363.674,260.451 363.508,261.451 364,262.5C 364.69,261.262 365.19,261.262 365.5,262.5C 366.358,265.05 367.358,267.55 368.5,270C 369.449,270.617 370.282,270.451 371,269.5C 371.49,268.207 371.657,266.873 371.5,265.5C 373.452,270.254 371.786,272.587 366.5,272.5C 365.783,270.047 364.616,267.713 363,265.5C 362.308,266.025 361.808,266.692 361.5,267.5C 362.946,269.618 363.613,271.951 363.5,274.5C 364.5,274.5 365.5,274.5 366.5,274.5C 364.558,275.241 362.891,275.241 361.5,274.5C 360.645,271.825 359.478,269.158 358,266.5C 357.5,267.5 357,268.5 356.5,269.5C 357.702,271.78 358.702,274.114 359.5,276.5C 358.833,276.833 358.167,277.167 357.5,277.5C 356.167,275.167 354.833,272.833 353.5,270.5C 351.992,268.819 350.992,266.819 350.5,264.5C 348.95,260.78 346.783,257.447 344,254.5C 343.617,255.056 343.117,255.389 342.5,255.5C 341.74,253.015 340.74,253.015 339.5,255.5C 338.094,255.027 337.427,254.027 337.5,252.5C 338.23,251.288 339.23,250.288 340.5,249.5C 339.575,248.438 338.575,248.438 337.5,249.5C 337.205,245.871 335.205,243.871 331.5,243.5C 332.833,242.167 332.833,240.833 331.5,239.5C 332.1,238.1 333.1,237.1 334.5,236.5 Z"/></g>
<g><path style="opacity:1" fill="#656565" d="M 347.5,230.5 C 349.167,231.5 350.5,232.833 351.5,234.5C 353.826,236.455 356.159,238.455 358.5,240.5C 358.733,242.062 359.4,243.395 360.5,244.5C 358.596,244.738 357.262,245.738 356.5,247.5C 355.883,247.611 355.383,247.944 355,248.5C 353.333,244.5 351.667,244.5 350,248.5C 348.855,247.364 347.688,246.364 346.5,245.5C 347.9,244.9 348.9,243.9 349.5,242.5C 347.141,239.149 344.808,235.815 342.5,232.5C 344.836,234.804 346.503,234.137 347.5,230.5 Z"/></g>
<g><path style="opacity:1" fill="#ededed" d="M 351.5,234.5 C 351.769,239.552 350.103,239.719 346.5,235C 347,234.5 347.5,234 348,233.5C 349.011,234.337 350.178,234.67 351.5,234.5 Z"/></g>
<g><path style="opacity:1" fill="#454545" d="M 340.5,233.5 C 340.953,234.458 341.619,235.292 342.5,236C 341.833,236.333 341.167,236.667 340.5,237C 342.667,239.167 344.833,241.333 347,243.5C 347.671,242.748 348.504,242.414 349.5,242.5C 348.9,243.9 347.9,244.9 346.5,245.5C 343.429,242.754 340.429,240.087 337.5,237.5C 338.598,236.603 338.598,235.77 337.5,235C 338.244,233.961 339.244,233.461 340.5,233.5 Z"/></g>
<g><path style="opacity:1" fill="#404040" d="M 334.5,236.5 C 335.391,237.11 336.391,237.443 337.5,237.5C 337.586,238.496 337.252,239.329 336.5,240C 338.167,241.667 339.833,243.333 341.5,245C 341,245.5 340.5,246 340,246.5C 338,244.5 336,242.5 334,240.5C 333.421,239.072 333.588,237.738 334.5,236.5 Z"/></g>
<g><path style="opacity:1" fill="#111111" d="M 160.5,238.5 C 158.507,240.467 156.507,242.467 154.5,244.5C 153.614,243.675 153.281,242.675 153.5,241.5C 156.195,238.809 159.195,236.475 162.5,234.5C 163.395,236.345 162.728,237.678 160.5,238.5 Z"/></g>
<g><path style="opacity:1" fill="#454545" d="M 198.5,231.5 C 197.635,239.466 197.302,247.466 197.5,255.5C 196.345,248.679 196.179,241.679 197,234.5C 197.232,233.263 197.732,232.263 198.5,231.5 Z"/></g>
<g><path style="opacity:1" fill="#131313" d="M 165.5,241.5 C 162.832,243.336 160.666,245.669 159,248.5C 158.25,247.874 157.416,247.374 156.5,247C 158.464,245.549 159.797,243.716 160.5,241.5C 162.471,240.177 164.471,238.844 166.5,237.5C 167.167,237.667 167.833,237.833 168.5,238C 167.29,239.039 166.29,240.206 165.5,241.5 Z"/></g>
<g><path style="opacity:1" fill="#5a5a5a" d="M 159.5,232.5 C 157.5,235.5 155.5,238.5 153.5,241.5C 153.281,242.675 153.614,243.675 154.5,244.5C 156.507,242.467 158.507,240.467 160.5,238.5C 160.5,239.5 160.5,240.5 160.5,241.5C 159.797,243.716 158.464,245.549 156.5,247C 157.416,247.374 158.25,247.874 159,248.5C 160.666,245.669 162.832,243.336 165.5,241.5C 165.938,241.435 166.272,241.601 166.5,242C 163.882,244.106 161.882,246.606 160.5,249.5C 159.518,250.141 158.518,250.807 157.5,251.5C 156.583,250.873 155.583,250.539 154.5,250.5C 153.067,249.872 151.733,248.372 150.5,246C 151.451,245.282 151.617,244.449 151,243.5C 149.924,246.079 148.091,247.746 145.5,248.5C 145.833,247.833 146.167,247.167 146.5,246.5C 146.863,244.089 145.863,242.589 143.5,242C 144,241.5 144.5,241 145,240.5C 146.33,241.582 147.83,242.249 149.5,242.5C 152.317,238.737 155.651,235.403 159.5,232.5 Z"/></g>
<g><path style="opacity:1" fill="#202020" d="M 331.5,239.5 C 332.833,240.833 332.833,242.167 331.5,243.5C 331.167,243.5 330.833,243.5 330.5,243.5C 327.726,244.723 325.059,246.223 322.5,248C 321.663,249.011 321.33,250.178 321.5,251.5C 319.8,251.626 318.3,252.293 317,253.5C 314.868,253.323 313.868,252.323 314,250.5C 319.23,245.749 325.064,242.082 331.5,239.5 Z"/></g>
<g><path style="opacity:1" fill="#191919" d="M 146.5,246.5 C 146.167,247.167 145.833,247.833 145.5,248.5C 143.488,251.205 141.488,253.872 139.5,256.5C 139.158,255.662 138.492,255.328 137.5,255.5C 136.89,254.609 136.557,253.609 136.5,252.5C 137.397,253.598 138.23,253.598 139,252.5C 140.562,250.496 141.062,248.496 140.5,246.5C 140.908,245.357 141.575,244.357 142.5,243.5C 143.852,244.524 145.185,245.524 146.5,246.5 Z"/></g>
<g><path style="opacity:1" fill="#585858" d="M 173.5,240.5 C 178.557,243.355 183.223,246.688 187.5,250.5C 183,248.917 178.666,246.75 174.5,244C 173.663,242.989 173.33,241.822 173.5,240.5 Z"/></g>
<g><path style="opacity:1" fill="#808080" d="M 330.5,243.5 C 329.088,247.181 326.088,249.848 321.5,251.5C 321.33,250.178 321.663,249.011 322.5,248C 325.059,246.223 327.726,244.723 330.5,243.5 Z"/></g>
<g><path style="opacity:1" fill="#181818" d="M 360.5,244.5 C 361.744,247.415 363.411,250.082 365.5,252.5C 365.218,253.778 364.551,254.778 363.5,255.5C 362.662,255.842 362.328,256.508 362.5,257.5C 360.223,257.137 359.556,256.137 360.5,254.5C 358.89,252.275 357.557,249.941 356.5,247.5C 357.262,245.738 358.596,244.738 360.5,244.5 Z"/></g>
<g><path style="opacity:1" fill="#747474" d="M 140.5,246.5 C 141.062,248.496 140.562,250.496 139,252.5C 138.23,253.598 137.397,253.598 136.5,252.5C 137.351,250.118 138.684,248.118 140.5,246.5 Z"/></g>
<g><path style="opacity:1" fill="#121212" d="M 170.5,239.5 C 171.609,239.557 172.609,239.89 173.5,240.5C 173.33,241.822 173.663,242.989 174.5,244C 178.666,246.75 183,248.917 187.5,250.5C 188.738,250.81 188.738,251.31 187.5,252C 185.34,253.332 183.34,254.832 181.5,256.5C 179.435,256.483 177.435,256.15 175.5,255.5C 172.666,251.296 169.166,250.296 165,252.5C 164.035,250.74 162.868,250.406 161.5,251.5C 162.612,252.265 163.279,253.265 163.5,254.5C 160.194,253.913 159.194,252.247 160.5,249.5C 164.167,246.5 167.5,243.167 170.5,239.5 Z"/></g>
<g><path style="opacity:1" fill="#969696" d="M 337.5,249.5 C 337.167,250.167 336.833,250.833 336.5,251.5C 335.262,250.588 333.928,250.421 332.5,251C 334.751,251.748 336.084,253.248 336.5,255.5C 332.665,253.292 329.498,254.292 327,258.5C 325.187,257.391 324.354,258.058 324.5,260.5C 323.596,259.791 323.263,258.791 323.5,257.5C 321.897,257.688 320.563,257.188 319.5,256C 320.449,255.383 321.282,255.549 322,256.5C 326.437,252.361 331.604,250.028 337.5,249.5 Z"/></g>
<g><path style="opacity:1" fill="#c7c7c7" d="M 336.5,251.5 C 336.5,252.167 336.833,252.5 337.5,252.5C 337.427,254.027 338.094,255.027 339.5,255.5C 342.239,259.304 344.739,263.304 347,267.5C 347.72,265.944 348.887,264.944 350.5,264.5C 350.992,266.819 351.992,268.819 353.5,270.5C 351.853,272.326 349.853,273.66 347.5,274.5C 348.463,273.637 348.463,272.97 347.5,272.5C 346.583,273.127 345.583,273.461 344.5,273.5C 346.113,272.162 346.613,270.495 346,268.5C 343.301,263.744 340.134,259.411 336.5,255.5C 336.084,253.248 334.751,251.748 332.5,251C 333.928,250.421 335.262,250.588 336.5,251.5 Z"/></g>
<g><path style="opacity:1" fill="#292929" d="M 337.5,252.5 C 336.833,252.5 336.5,252.167 336.5,251.5C 336.833,250.833 337.167,250.167 337.5,249.5C 338.575,248.438 339.575,248.438 340.5,249.5C 339.23,250.288 338.23,251.288 337.5,252.5 Z"/></g>
<g><path style="opacity:1" fill="#e8e8e8" d="M 342.5,255.5 C 341.5,255.5 340.5,255.5 339.5,255.5C 340.74,253.015 341.74,253.015 342.5,255.5 Z"/></g>
<g><path style="opacity:1" fill="#e3e3e3" d="M 137.5,255.5 C 138.492,255.328 139.158,255.662 139.5,256.5C 138.5,258.5 137.5,260.5 136.5,262.5C 135.357,262.092 134.357,261.425 133.5,260.5C 134.154,258.142 135.487,256.475 137.5,255.5 Z"/></g>
<g><path style="opacity:1" fill="#151515" d="M 347.5,250.5 C 349.811,253.767 352.144,257.1 354.5,260.5C 354.192,261.308 353.692,261.975 353,262.5C 350.71,259.42 348.543,256.253 346.5,253C 347.252,252.329 347.586,251.496 347.5,250.5 Z"/></g>
<g><path style="opacity:1" fill="#131313" d="M 352.5,248.5 C 355.178,251.332 357.512,254.499 359.5,258C 358.216,258.684 357.049,258.517 356,257.5C 354.374,255.083 352.874,252.583 351.5,250C 352.056,249.617 352.389,249.117 352.5,248.5 Z"/></g>
<g><path style="opacity:1" fill="#888888" d="M 154.5,250.5 C 155.583,250.539 156.583,250.873 157.5,251.5C 158.518,250.807 159.518,250.141 160.5,249.5C 159.194,252.247 160.194,253.913 163.5,254.5C 162.488,255.872 161.488,257.205 160.5,258.5C 160.539,256.641 159.706,255.308 158,254.5C 155.443,257.392 153.276,260.559 151.5,264C 152.416,264.278 153.082,264.778 153.5,265.5C 151.57,265.771 150.236,266.771 149.5,268.5C 148.778,268.918 148.278,269.584 148,270.5C 147.299,268.238 146.132,267.238 144.5,267.5C 146.366,264.457 146.699,261.457 145.5,258.5C 147.14,255.851 148.807,253.184 150.5,250.5C 150.192,249.692 149.692,249.025 149,248.5C 145.714,251.474 143.88,254.807 143.5,258.5C 143.369,262.6 141.702,264.933 138.5,265.5C 139.667,267.833 140.833,270.167 142,272.5C 142.419,271.328 143.085,270.328 144,269.5C 144.485,272.172 143.318,273.505 140.5,273.5C 140.5,274.833 140.5,276.167 140.5,277.5C 141.833,277.5 143.167,277.5 144.5,277.5C 144.5,277.833 144.5,278.167 144.5,278.5C 141.575,279.866 139.909,278.866 139.5,275.5C 138.209,275.737 137.209,275.404 136.5,274.5C 137.552,274.649 138.552,274.483 139.5,274C 138.54,272.581 137.707,271.081 137,269.5C 136.444,271.595 135.944,271.762 135.5,270C 137.316,267.597 137.649,265.097 136.5,262.5C 137.5,260.5 138.5,258.5 139.5,256.5C 141.488,253.872 143.488,251.205 145.5,248.5C 148.091,247.746 149.924,246.079 151,243.5C 151.617,244.449 151.451,245.282 150.5,246C 151.733,248.372 153.067,249.872 154.5,250.5 Z"/></g>
<g><path style="opacity:1" fill="#171717" d="M 145.5,258.5 C 144.833,258.5 144.167,258.5 143.5,258.5C 143.88,254.807 145.714,251.474 149,248.5C 149.692,249.025 150.192,249.692 150.5,250.5C 148.807,253.184 147.14,255.851 145.5,258.5 Z"/></g>
<g><path style="opacity:1" fill="#151515" d="M 154.5,250.5 C 154.414,251.496 154.748,252.329 155.5,253C 152.963,255.906 150.796,259.073 149,262.5C 148.308,261.975 147.808,261.308 147.5,260.5C 149.363,256.75 151.697,253.417 154.5,250.5 Z"/></g>
<g><path style="opacity:1" fill="#131313" d="M 171.5,254.5 C 169.621,254.393 169.288,254.893 170.5,256C 172.925,257.213 175.259,258.379 177.5,259.5C 173.052,264.284 169.386,269.617 166.5,275.5C 165.849,276.091 165.182,276.757 164.5,277.5C 162.155,274.823 159.488,272.49 156.5,270.5C 158.869,263.294 162.702,256.961 168,251.5C 169.145,252.636 170.312,253.636 171.5,254.5 Z"/></g>
<g><path style="opacity:1" fill="#717171" d="M 171.5,254.5 C 172.833,254.833 174.167,255.167 175.5,255.5C 177.435,256.15 179.435,256.483 181.5,256.5C 180.205,257.488 178.872,258.488 177.5,259.5C 175.259,258.379 172.925,257.213 170.5,256C 169.288,254.893 169.621,254.393 171.5,254.5 Z"/></g>
<g><path style="opacity:1" fill="#7d7d7d" d="M 365.5,252.5 C 367.448,254.32 368.448,256.654 368.5,259.5C 367.609,258.739 366.942,257.739 366.5,256.5C 365.675,255.614 364.675,255.281 363.5,255.5C 364.551,254.778 365.218,253.778 365.5,252.5 Z"/></g>
<g><path style="opacity:1" fill="#e4e4e4" d="M 363.5,255.5 C 364.675,255.281 365.675,255.614 366.5,256.5C 366.942,257.739 367.609,258.739 368.5,259.5C 368.19,261.144 367.19,262.144 365.5,262.5C 365.19,261.262 364.69,261.262 364,262.5C 363.508,261.451 363.674,260.451 364.5,259.5C 364.145,258.478 363.478,257.811 362.5,257.5C 362.328,256.508 362.662,255.842 363.5,255.5 Z"/></g>
<g><path style="opacity:1" fill="#121212" d="M 160.5,258.5 C 158.887,261.286 157.054,263.953 155,266.5C 154.617,265.944 154.117,265.611 153.5,265.5C 153.082,264.778 152.416,264.278 151.5,264C 153.276,260.559 155.443,257.392 158,254.5C 159.706,255.308 160.539,256.641 160.5,258.5 Z"/></g>
<g><path style="opacity:1" fill="#181818" d="M 368.5,259.5 C 370.008,261.181 371.008,263.181 371.5,265.5C 371.657,266.873 371.49,268.207 371,269.5C 370.282,270.451 369.449,270.617 368.5,270C 367.358,267.55 366.358,265.05 365.5,262.5C 367.19,262.144 368.19,261.144 368.5,259.5 Z"/></g>
<g><path style="opacity:1" fill="#181818" d="M 350.5,264.5 C 348.887,264.944 347.72,265.944 347,267.5C 344.739,263.304 342.239,259.304 339.5,255.5C 340.5,255.5 341.5,255.5 342.5,255.5C 343.117,255.389 343.617,255.056 344,254.5C 346.783,257.447 348.95,260.78 350.5,264.5 Z"/></g>
<g><path style="opacity:1" fill="#f0f0f0" d="M 153.5,265.5 C 153.405,267.786 152.738,269.786 151.5,271.5C 150.094,271.027 149.427,270.027 149.5,268.5C 150.236,266.771 151.57,265.771 153.5,265.5 Z"/></g>
<g><path style="opacity:1" fill="#111111" d="M 336.5,255.5 C 340.134,259.411 343.301,263.744 346,268.5C 346.613,270.495 346.113,272.162 344.5,273.5C 340.934,272.434 337.934,273.434 335.5,276.5C 335.672,275.508 335.338,274.842 334.5,274.5C 332.145,269.12 328.812,264.454 324.5,260.5C 324.354,258.058 325.187,257.391 327,258.5C 329.498,254.292 332.665,253.292 336.5,255.5 Z"/></g>
<g><path style="opacity:1" fill="#7f7f7f" d="M 332.5,266.5 C 331.193,264.777 331.193,262.943 332.5,261C 339.88,258.879 342.213,261.379 339.5,268.5C 337.579,269.641 335.579,269.808 333.5,269C 332.748,268.329 332.414,267.496 332.5,266.5 Z"/></g>
<g><path style="opacity:1" fill="#131313" d="M 332.5,266.5 C 332.351,265.448 332.517,264.448 333,263.5C 333.85,264.424 334.85,264.424 336,263.5C 337.301,264.098 338.135,265.098 338.5,266.5C 336.54,267.519 334.54,267.519 332.5,266.5 Z"/></g>
<g><path style="opacity:1" fill="#424242" d="M 136.5,252.5 C 136.557,253.609 136.89,254.609 137.5,255.5C 135.487,256.475 134.154,258.142 133.5,260.5C 134.357,261.425 135.357,262.092 136.5,262.5C 137.649,265.097 137.316,267.597 135.5,270C 135.944,271.762 136.444,271.595 137,269.5C 137.707,271.081 138.54,272.581 139.5,274C 138.552,274.483 137.552,274.649 136.5,274.5C 133.809,273.106 131.476,271.273 129.5,269C 129.63,267.941 130.13,267.108 131,266.5C 132.011,267.337 133.178,267.67 134.5,267.5C 134.33,266.178 134.663,265.011 135.5,264C 134.022,262.807 132.688,262.307 131.5,262.5C 132.67,258.827 134.337,255.493 136.5,252.5 Z"/></g>
<g><path style="opacity:1" fill="#727272" d="M 169.5,263.5 C 170.712,265.264 170.379,266.93 168.5,268.5C 161.972,269.996 159.972,267.496 162.5,261C 164.5,260.333 166.5,260.333 168.5,261C 169.252,261.671 169.586,262.504 169.5,263.5 Z"/></g>
<g><path style="opacity:1" fill="#101010" d="M 169.5,263.5 C 168.807,267.17 166.807,268.17 163.5,266.5C 163.865,265.098 164.699,264.098 166,263.5C 167.261,264.658 168.427,264.658 169.5,263.5 Z"/></g>
<g><path style="opacity:1" fill="#151515" d="M 366.5,272.5 C 366.5,273.167 366.5,273.833 366.5,274.5C 365.5,274.5 364.5,274.5 363.5,274.5C 363.613,271.951 362.946,269.618 361.5,267.5C 361.808,266.692 362.308,266.025 363,265.5C 364.616,267.713 365.783,270.047 366.5,272.5 Z"/></g>
<g><path style="opacity:1" fill="#1b1b1b" d="M 196.5,276.5 C 196.631,277.239 196.464,277.906 196,278.5C 189.519,274.223 183.352,270.556 177.5,267.5C 178.314,265.727 179.648,265.227 181.5,266C 186.403,269.752 191.403,273.252 196.5,276.5 Z"/></g>
<g><path style="opacity:1" fill="#161616" d="M 361.5,274.5 C 361.688,276.103 361.188,277.437 360,278.5C 359.536,277.906 359.369,277.239 359.5,276.5C 358.702,274.114 357.702,271.78 356.5,269.5C 357,268.5 357.5,267.5 358,266.5C 359.478,269.158 360.645,271.825 361.5,274.5 Z"/></g>
<g><path style="opacity:1" fill="#565656" d="M 143.5,258.5 C 144.167,258.5 144.833,258.5 145.5,258.5C 146.699,261.457 146.366,264.457 144.5,267.5C 146.132,267.238 147.299,268.238 148,270.5C 148.278,269.584 148.778,268.918 149.5,268.5C 149.427,270.027 150.094,271.027 151.5,271.5C 151.369,272.239 151.536,272.906 152,273.5C 154.352,275.03 156.519,276.697 158.5,278.5C 155.2,276.892 151.867,275.225 148.5,273.5C 147.818,274.243 147.151,274.909 146.5,275.5C 145.833,276.167 145.167,276.833 144.5,277.5C 143.167,277.5 141.833,277.5 140.5,277.5C 140.5,276.167 140.5,274.833 140.5,273.5C 143.318,273.505 144.485,272.172 144,269.5C 143.085,270.328 142.419,271.328 142,272.5C 140.833,270.167 139.667,267.833 138.5,265.5C 141.702,264.933 143.369,262.6 143.5,258.5 Z"/></g>
<g><path style="opacity:1" fill="#e5e5e5" d="M 303.5,265.5 C 303.16,268.144 303.827,270.477 305.5,272.5C 304.019,273.944 304.352,274.611 306.5,274.5C 304.649,275.866 304.316,277.533 305.5,279.5C 309.855,275.991 314.522,272.991 319.5,270.5C 320.167,270.5 320.833,270.5 321.5,270.5C 322.153,271.807 322.82,273.14 323.5,274.5C 316.765,279.521 310.099,284.521 303.5,289.5C 302.566,290.568 302.232,291.901 302.5,293.5C 301.218,294.708 301.218,296.042 302.5,297.5C 306.906,293.754 311.573,290.42 316.5,287.5C 315.793,289.134 314.627,290.468 313,291.5C 312.517,292.448 312.351,293.448 312.5,294.5C 310.833,294.5 309.167,294.5 307.5,294.5C 307.822,296.722 307.155,298.556 305.5,300C 309.763,298.867 310.263,299.7 307,302.5C 305.667,301.833 304.667,300.833 304,299.5C 303.667,300.5 303.333,301.5 303,302.5C 301.538,300.012 300.538,297.345 300,294.5C 299.617,295.056 299.117,295.389 298.5,295.5C 300.188,285.374 301.854,275.374 303.5,265.5 Z"/></g>
<g><path style="opacity:1" fill="#252525" d="M 324.5,267.5 C 322.58,268.065 320.913,269.065 319.5,270.5C 314.522,272.991 309.855,275.991 305.5,279.5C 304.316,277.533 304.649,275.866 306.5,274.5C 311.419,272.132 316.086,269.299 320.5,266C 322.352,265.227 323.686,265.727 324.5,267.5 Z"/></g>
<g><path style="opacity:1" fill="#aeaeae" d="M 175.5,255.5 C 174.167,255.167 172.833,254.833 171.5,254.5C 170.312,253.636 169.145,252.636 168,251.5C 162.702,256.961 158.869,263.294 156.5,270.5C 159.488,272.49 162.155,274.823 164.5,277.5C 165.182,276.757 165.849,276.091 166.5,275.5C 166.64,277.124 165.973,278.29 164.5,279C 165.056,279.383 165.389,279.883 165.5,280.5C 165.737,281.791 165.404,282.791 164.5,283.5C 164.5,282.5 164.5,281.5 164.5,280.5C 162.315,280.296 160.315,279.63 158.5,278.5C 156.519,276.697 154.352,275.03 152,273.5C 151.536,272.906 151.369,272.239 151.5,271.5C 152.738,269.786 153.405,267.786 153.5,265.5C 154.117,265.611 154.617,265.944 155,266.5C 157.054,263.953 158.887,261.286 160.5,258.5C 161.488,257.205 162.488,255.872 163.5,254.5C 163.279,253.265 162.612,252.265 161.5,251.5C 162.868,250.406 164.035,250.74 165,252.5C 169.166,250.296 172.666,251.296 175.5,255.5 Z"/></g>
<g><path style="opacity:1" fill="#858585" d="M 177.5,267.5 C 183.352,270.556 189.519,274.223 196,278.5C 196.464,277.906 196.631,277.239 196.5,276.5C 196.833,276.5 197.167,276.5 197.5,276.5C 197.567,277.959 197.234,279.292 196.5,280.5C 190.871,277.226 185.204,273.893 179.5,270.5C 176.552,271.42 175.552,273.087 176.5,275.5C 176.5,276.167 176.5,276.833 176.5,277.5C 175.363,276.211 174.03,275.211 172.5,274.5C 173.811,271.865 175.478,269.531 177.5,267.5 Z"/></g>
<g><path style="opacity:1" fill="#e4e4e4" d="M 158.5,278.5 C 159.81,280.148 161.143,281.814 162.5,283.5C 162,283.833 161.5,284.167 161,284.5C 158.709,283.013 156.209,282.013 153.5,281.5C 151.916,280.618 150.249,279.785 148.5,279C 147.177,278.184 146.511,277.017 146.5,275.5C 147.151,274.909 147.818,274.243 148.5,273.5C 151.867,275.225 155.2,276.892 158.5,278.5 Z"/></g>
<g><path style="opacity:1" fill="#1c1c1c" d="M 146.5,275.5 C 146.511,277.017 147.177,278.184 148.5,279C 150.249,279.785 151.916,280.618 153.5,281.5C 155.578,284.051 158.244,285.884 161.5,287C 162.337,288.011 162.67,289.178 162.5,290.5C 160.692,290.509 159.025,290.009 157.5,289C 153.5,286.333 149.5,283.667 145.5,281C 144.748,280.329 144.414,279.496 144.5,278.5C 144.5,278.167 144.5,277.833 144.5,277.5C 145.167,276.833 145.833,276.167 146.5,275.5 Z"/></g>
<g><path style="opacity:1" fill="#202020" d="M 328.5,273.5 C 329.167,274.167 329.833,274.833 330.5,275.5C 330.719,276.675 330.386,277.675 329.5,278.5C 324.963,281.263 320.63,284.263 316.5,287.5C 311.573,290.42 306.906,293.754 302.5,297.5C 301.218,296.042 301.218,294.708 302.5,293.5C 309.934,288.274 317.601,283.274 325.5,278.5C 326.696,276.855 327.696,275.189 328.5,273.5 Z"/></g>
<g><path style="opacity:1" fill="#101010" d="M 353.5,270.5 C 354.833,272.833 356.167,275.167 357.5,277.5C 357.226,279.981 355.893,281.647 353.5,282.5C 347.735,282.528 344.068,285.194 342.5,290.5C 341.5,290.5 340.5,290.5 339.5,290.5C 339.552,288.097 339.219,285.764 338.5,283.5C 339.082,282.069 339.915,280.736 341,279.5C 343.352,277.97 345.519,276.303 347.5,274.5C 349.853,273.66 351.853,272.326 353.5,270.5 Z"/></g>
<g><path style="opacity:1" fill="#2a2a2a" d="M 196.5,280.5 C 197.776,281.386 197.776,282.386 196.5,283.5C 190.749,280.208 185.249,276.541 180,272.5C 178.401,273.071 177.234,274.071 176.5,275.5C 175.552,273.087 176.552,271.42 179.5,270.5C 185.204,273.893 190.871,277.226 196.5,280.5 Z"/></g>
<g><path style="opacity:1" fill="#232323" d="M 172.5,274.5 C 174.03,275.211 175.363,276.211 176.5,277.5C 183.959,283.401 191.626,289.068 199.5,294.5C 200.127,295.417 200.461,296.417 200.5,297.5C 191.038,290.93 181.371,284.597 171.5,278.5C 171.433,277.041 171.766,275.708 172.5,274.5 Z"/></g>
<g><path style="opacity:1" fill="#1f1f1f" d="M 321.5,270.5 C 324.654,271.474 325.654,273.474 324.5,276.5C 317.815,280.509 311.482,285.009 305.5,290C 304.563,290.692 303.897,290.525 303.5,289.5C 310.099,284.521 316.765,279.521 323.5,274.5C 322.82,273.14 322.153,271.807 321.5,270.5 Z"/></g>
<g><path style="opacity:1" fill="#7f7f7f" d="M 344.5,273.5 C 345.583,273.461 346.583,273.127 347.5,272.5C 348.463,272.97 348.463,273.637 347.5,274.5C 345.519,276.303 343.352,277.97 341,279.5C 339.915,280.736 339.082,282.069 338.5,283.5C 337.262,281.155 336.262,278.821 335.5,276.5C 337.934,273.434 340.934,272.434 344.5,273.5 Z"/></g>
<g><path style="opacity:1" fill="#7c7c7c" d="M 158.5,278.5 C 160.315,279.63 162.315,280.296 164.5,280.5C 164.5,281.5 164.5,282.5 164.5,283.5C 163.935,285.952 163.268,288.285 162.5,290.5C 162.67,289.178 162.337,288.011 161.5,287C 158.244,285.884 155.578,284.051 153.5,281.5C 156.209,282.013 158.709,283.013 161,284.5C 161.5,284.167 162,283.833 162.5,283.5C 161.143,281.814 159.81,280.148 158.5,278.5 Z"/></g>
<g><path style="opacity:1" fill="#e3e3e3" d="M 198.5,271.5 C 200.175,281.887 202.508,292.22 205.5,302.5C 204.312,301.316 203.145,301.316 202,302.5C 201.802,300.618 201.302,298.952 200.5,297.5C 200.461,296.417 200.127,295.417 199.5,294.5C 191.626,289.068 183.959,283.401 176.5,277.5C 176.5,276.833 176.5,276.167 176.5,275.5C 177.234,274.071 178.401,273.071 180,272.5C 185.249,276.541 190.749,280.208 196.5,283.5C 197.776,282.386 197.776,281.386 196.5,280.5C 197.234,279.292 197.567,277.959 197.5,276.5C 198.038,274.883 198.371,273.216 198.5,271.5 Z"/></g>
<g><path style="opacity:1" fill="#6e6e6e" d="M 353.5,282.5 C 350.001,285.414 346.334,288.081 342.5,290.5C 344.068,285.194 347.735,282.528 353.5,282.5 Z"/></g>
<g><path style="opacity:1" fill="#a6a6a6" d="M 324.5,267.5 C 326.316,269.118 327.649,271.118 328.5,273.5C 327.696,275.189 326.696,276.855 325.5,278.5C 317.601,283.274 309.934,288.274 302.5,293.5C 302.232,291.901 302.566,290.568 303.5,289.5C 303.897,290.525 304.563,290.692 305.5,290C 311.482,285.009 317.815,280.509 324.5,276.5C 325.654,273.474 324.654,271.474 321.5,270.5C 320.833,270.5 320.167,270.5 319.5,270.5C 320.913,269.065 322.58,268.065 324.5,267.5 Z"/></g>
<g><path style="opacity:1" fill="#0c0c0c" d="M 263.5,196.5 C 265.515,197.924 267.848,198.59 270.5,198.5C 283.651,202.982 293.484,211.315 300,223.5C 301.025,228.268 302.358,232.934 304,237.5C 304.333,246.837 304.167,256.17 303.5,265.5C 301.854,275.374 300.188,285.374 298.5,295.5C 297.484,302.399 294.484,308.232 289.5,313C 279.849,317.491 270.515,322.491 261.5,328C 259.482,328.505 257.482,329.005 255.5,329.5C 250.797,329.563 246.13,329.229 241.5,328.5C 236.808,326.645 232.474,324.145 228.5,321C 223.42,319.196 218.42,317.196 213.5,315C 209.79,311.465 207.123,307.299 205.5,302.5C 202.508,292.22 200.175,281.887 198.5,271.5C 198.167,266.167 197.833,260.833 197.5,255.5C 197.302,247.466 197.635,239.466 198.5,231.5C 199.565,226.036 201.732,221.036 205,216.5C 220.549,198.594 240.049,191.927 263.5,196.5 Z"/></g>
<g><path style="opacity:1" fill="#7b7b7b" d="M 274.5,293.5 C 276.833,293.5 279.167,293.5 281.5,293.5C 280.129,294.787 278.295,295.453 276,295.5C 274.167,295.333 272.333,295.167 270.5,295C 272.058,294.79 273.391,294.29 274.5,293.5 Z"/></g>
<g><path style="opacity:1" fill="#c9c9c9" d="M 281.5,293.5 C 279.167,293.5 276.833,293.5 274.5,293.5C 270.771,292.987 267.104,292.154 263.5,291C 259.7,288.397 255.533,286.564 251,285.5C 244.867,287.991 238.7,290.491 232.5,293C 228.249,294.195 223.915,294.695 219.5,294.5C 218.167,294.167 218.167,293.833 219.5,293.5C 223.884,292.99 228.218,292.157 232.5,291C 238.615,288.129 244.948,285.962 251.5,284.5C 258.7,287.26 266.033,289.76 273.5,292C 283.418,293.455 290.918,289.955 296,281.5C 297.657,274.245 298.824,266.912 299.5,259.5C 298.543,249.708 293.21,243.875 283.5,242C 269.527,240.768 255.527,240.268 241.5,240.5C 238.941,240.802 236.607,240.468 234.5,239.5C 252.188,238.509 269.854,239.009 287.5,241C 296.099,244.11 300.766,250.276 301.5,259.5C 300.823,266.915 299.657,274.248 298,281.5C 294.852,288.825 289.352,292.825 281.5,293.5 Z"/></g>
<g><path style="opacity:1" fill="#9a9a9a" d="M 203.5,279.5 C 206.689,286.693 212.022,291.36 219.5,293.5C 218.167,293.833 218.167,294.167 219.5,294.5C 221.292,295.309 223.292,295.809 225.5,296C 222.199,296.997 218.866,297.33 215.5,297C 216.167,296.667 216.833,296.333 217.5,296C 215.782,295.654 214.115,295.154 212.5,294.5C 210.468,291.631 208.134,288.964 205.5,286.5C 204.054,284.382 203.387,282.049 203.5,279.5 Z"/></g>
<g><path style="opacity:1" fill="#b6b6b6" d="M 234.5,239.5 C 236.607,240.468 238.941,240.802 241.5,240.5C 232.982,241.294 224.315,242.128 215.5,243C 206.57,245.429 201.904,251.262 201.5,260.5C 202.496,266.804 203.162,273.138 203.5,279.5C 199.863,270.398 199.196,261.064 201.5,251.5C 203.471,249.192 205.471,246.858 207.5,244.5C 209.845,242.669 212.512,241.502 215.5,241C 221.827,240.349 228.16,239.849 234.5,239.5 Z"/></g>
<g><path style="opacity:1" fill="#373737" d="M 207.5,244.5 C 205.471,246.858 203.471,249.192 201.5,251.5C 200.912,249.795 200.579,248.128 200.5,246.5C 202.149,245.352 203.649,244.019 205,242.5C 205.708,243.381 206.542,244.047 207.5,244.5 Z"/></g>
<g><path style="opacity:1" fill="#202020" d="M 241.5,240.5 C 255.527,240.268 269.527,240.768 283.5,242C 293.21,243.875 298.543,249.708 299.5,259.5C 298.824,266.912 297.657,274.245 296,281.5C 290.918,289.955 283.418,293.455 273.5,292C 266.033,289.76 258.7,287.26 251.5,284.5C 244.948,285.962 238.615,288.129 232.5,291C 228.218,292.157 223.884,292.99 219.5,293.5C 212.022,291.36 206.689,286.693 203.5,279.5C 203.162,273.138 202.496,266.804 201.5,260.5C 201.904,251.262 206.57,245.429 215.5,243C 224.315,242.128 232.982,241.294 241.5,240.5 Z"/></g>
<g><path style="opacity:1" fill="#eaeaea" d="M 232.5,253.5 C 228.336,253.941 224.503,255.274 221,257.5C 218.934,263.037 219.267,268.37 222,273.5C 223.11,275.037 224.61,275.703 226.5,275.5C 227.239,275.369 227.906,275.536 228.5,276C 226.913,276.862 225.246,277.529 223.5,278C 227.053,278.598 230.386,277.931 233.5,276C 232.167,275.667 230.833,275.333 229.5,275C 232.745,272.425 236.245,271.591 240,272.5C 241.72,271.616 242.886,270.283 243.5,268.5C 244.793,265.321 245.46,261.988 245.5,258.5C 249.082,259.584 249.416,261.417 246.5,264C 248.313,263.954 249.979,264.12 251.5,264.5C 250.271,265.281 248.938,265.781 247.5,266C 249.78,266.233 251.78,267.066 253.5,268.5C 254.052,266.997 254.052,265.331 253.5,263.5C 255.323,266.308 257.323,268.975 259.5,271.5C 259.418,273.252 260.251,274.252 262,274.5C 263.333,273.833 264.667,273.167 266,272.5C 268.659,273.217 271.159,274.217 273.5,275.5C 274.416,275.457 275.083,275.124 275.5,274.5C 276.167,274.167 276.833,273.833 277.5,273.5C 276.637,274.94 276.637,276.274 277.5,277.5C 276.311,278.429 274.978,278.762 273.5,278.5C 271.606,275.813 270.939,275.813 271.5,278.5C 269.654,278.222 268.32,278.889 267.5,280.5C 268.028,282.336 268.694,284.003 269.5,285.5C 272.712,283.347 276.045,283.014 279.5,284.5C 268.957,286.106 268.957,287.106 279.5,287.5C 279.369,288.239 279.536,288.906 280,289.5C 280.977,288.226 281.811,288.226 282.5,289.5C 279.024,290.643 275.358,290.81 271.5,290C 264.685,286.923 257.685,284.423 250.5,282.5C 242.399,285.051 234.399,287.884 226.5,291C 221.696,292.031 217.363,291.198 213.5,288.5C 214.552,288.649 215.552,288.483 216.5,288C 215.402,287.23 215.402,286.397 216.5,285.5C 217.833,285.5 219.167,285.5 220.5,285.5C 218.958,284.837 217.291,284.17 215.5,283.5C 215.667,283.167 215.833,282.833 216,282.5C 220.079,283.629 224.245,283.796 228.5,283C 224.416,282.769 220.416,282.102 216.5,281C 215.475,278.929 214.642,276.762 214,274.5C 211.866,276.578 212.032,278.412 214.5,280C 213.551,280.617 212.718,280.451 212,279.5C 212.134,275.203 213.467,271.203 216,267.5C 216.789,261.785 217.456,256.118 218,250.5C 217.015,252.175 216.181,253.842 215.5,255.5C 215.611,253.352 214.944,253.019 213.5,254.5C 213.167,254 212.833,253.5 212.5,253C 214.509,251.177 215.843,249.01 216.5,246.5C 217.873,246.343 219.207,246.51 220.5,247C 220.043,247.414 219.709,247.914 219.5,248.5C 220.274,249.711 221.107,249.711 222,248.5C 222.317,250.301 222.984,250.634 224,249.5C 223.923,250.738 224.089,251.738 224.5,252.5C 227.567,250.904 230.234,251.237 232.5,253.5 Z"/></g>
<g><path style="opacity:1" fill="#f0f0f0" d="M 282.5,289.5 C 281.811,288.226 280.977,288.226 280,289.5C 279.536,288.906 279.369,288.239 279.5,287.5C 279.328,286.508 279.662,285.842 280.5,285.5C 285.109,285.888 288.109,283.888 289.5,279.5C 291.744,270.743 292.911,261.743 293,252.5C 292.667,252.167 292.333,251.833 292,251.5C 291.986,257.747 290.986,263.747 289,269.5C 288.027,267.608 287.36,265.608 287,263.5C 286.333,264.833 285.667,264.833 285,263.5C 285.23,257.708 283.897,252.375 281,247.5C 281.019,250.244 281.686,252.911 283,255.5C 282.679,261.703 284.179,267.369 287.5,272.5C 286.593,274.657 285.927,276.99 285.5,279.5C 282.08,281.222 278.414,281.889 274.5,281.5C 271.412,281.197 269.746,282.53 269.5,285.5C 268.694,284.003 268.028,282.336 267.5,280.5C 268.32,278.889 269.654,278.222 271.5,278.5C 272.167,278.5 272.833,278.5 273.5,278.5C 274.978,278.762 276.311,278.429 277.5,277.5C 276.637,276.274 276.637,274.94 277.5,273.5C 278.455,271.254 279.122,268.921 279.5,266.5C 279.665,263.482 279.498,260.482 279,257.5C 278.722,256.584 278.222,255.918 277.5,255.5C 276.508,255.672 275.842,255.338 275.5,254.5C 274.359,252.771 272.693,251.771 270.5,251.5C 267.088,252.02 263.755,252.853 260.5,254C 259.748,254.671 259.414,255.504 259.5,256.5C 257.901,256.232 256.568,256.566 255.5,257.5C 254.504,257.414 253.671,257.748 253,258.5C 252.22,260.387 252.387,262.054 253.5,263.5C 254.052,265.331 254.052,266.997 253.5,268.5C 251.78,267.066 249.78,266.233 247.5,266C 248.938,265.781 250.271,265.281 251.5,264.5C 249.979,264.12 248.313,263.954 246.5,264C 249.416,261.417 249.082,259.584 245.5,258.5C 244.508,258.672 243.842,258.338 243.5,257.5C 241.562,255.837 239.228,255.171 236.5,255.5C 235.395,254.4 234.062,253.733 232.5,253.5C 230.234,251.237 227.567,250.904 224.5,252.5C 224.089,251.738 223.923,250.738 224,249.5C 222.984,250.634 222.317,250.301 222,248.5C 221.107,249.711 220.274,249.711 219.5,248.5C 219.709,247.914 220.043,247.414 220.5,247C 219.207,246.51 217.873,246.343 216.5,246.5C 215.843,249.01 214.509,251.177 212.5,253C 212.833,253.5 213.167,254 213.5,254.5C 214.944,253.019 215.611,253.352 215.5,255.5C 216.225,261.275 215.059,266.608 212,271.5C 209.232,265.845 207.898,259.845 208,253.5C 207.13,254.108 206.63,254.941 206.5,256C 207.928,264.207 209.428,272.373 211,280.5C 212.076,283.079 213.909,284.746 216.5,285.5C 215.402,286.397 215.402,287.23 216.5,288C 215.552,288.483 214.552,288.649 213.5,288.5C 209.612,286.762 207.112,283.762 206,279.5C 204.2,271.576 203.534,263.576 204,255.5C 205.579,249.59 209.412,246.09 215.5,245C 239.524,241.875 263.524,241.875 287.5,245C 293.98,248.124 297.313,253.291 297.5,260.5C 296.872,267.268 295.705,273.935 294,280.5C 292.058,285.944 288.225,288.944 282.5,289.5 Z"/></g>
<g><path style="opacity:1" fill="#212121" d="M 279.5,284.5 C 280.167,284.5 280.5,284.833 280.5,285.5C 279.662,285.842 279.328,286.508 279.5,287.5C 268.957,287.106 268.957,286.106 279.5,284.5 Z"/></g>
<g><path style="opacity:1" fill="#2f2f2f" d="M 220.5,285.5 C 223.607,285.351 226.607,285.851 229.5,287C 227.5,287.5 225.5,288 223.5,288.5C 221.825,288.132 220.825,287.132 220.5,285.5 Z"/></g>
<g><path style="opacity:1" fill="#939393" d="M 287.5,272.5 C 288.924,274.515 289.59,276.848 289.5,279.5C 288.109,283.888 285.109,285.888 280.5,285.5C 280.5,284.833 280.167,284.5 279.5,284.5C 276.045,283.014 272.712,283.347 269.5,285.5C 269.746,282.53 271.412,281.197 274.5,281.5C 277.64,282.641 280.973,282.808 284.5,282C 285.999,281.162 286.332,280.329 285.5,279.5C 285.927,276.99 286.593,274.657 287.5,272.5 Z"/></g>
<g><path style="opacity:1" fill="#2d2d2d" d="M 285.5,279.5 C 286.332,280.329 285.999,281.162 284.5,282C 280.973,282.808 277.64,282.641 274.5,281.5C 278.414,281.889 282.08,281.222 285.5,279.5 Z"/></g>
<g><path style="opacity:1" fill="#303030" d="M 273.5,278.5 C 272.833,278.5 272.167,278.5 271.5,278.5C 270.939,275.813 271.606,275.813 273.5,278.5 Z"/></g>
<g><path style="opacity:1" fill="#232323" d="M 247.5,275.5 C 250.288,275.077 252.288,276.077 253.5,278.5C 250.553,279.658 247.553,280.158 244.5,280C 245.222,278.249 246.222,276.749 247.5,275.5 Z"/></g>
<g><path style="opacity:1" fill="#6e6e6e" d="M 243.5,268.5 C 242.886,270.283 241.72,271.616 240,272.5C 236.245,271.591 232.745,272.425 229.5,275C 230.833,275.333 232.167,275.667 233.5,276C 230.386,277.931 227.053,278.598 223.5,278C 225.246,277.529 226.913,276.862 228.5,276C 227.906,275.536 227.239,275.369 226.5,275.5C 227.806,274.533 228.473,273.199 228.5,271.5C 233.6,271.028 237.933,269.028 241.5,265.5C 242.176,266.602 242.842,267.602 243.5,268.5 Z"/></g>
<g><path style="opacity:1" fill="#7b7b7b" d="M 275.5,274.5 C 275.083,275.124 274.416,275.457 273.5,275.5C 271.159,274.217 268.659,273.217 266,272.5C 264.667,273.167 263.333,273.833 262,274.5C 260.251,274.252 259.418,273.252 259.5,271.5C 260.043,271.44 260.376,271.107 260.5,270.5C 259.833,269.833 259.167,269.167 258.5,268.5C 259,268.167 259.5,267.833 260,267.5C 265.196,269.946 270.362,272.28 275.5,274.5 Z"/></g>
<g><path style="opacity:1" fill="#393939" d="M 289.5,279.5 C 289.59,276.848 288.924,274.515 287.5,272.5C 284.179,267.369 282.679,261.703 283,255.5C 281.686,252.911 281.019,250.244 281,247.5C 283.897,252.375 285.23,257.708 285,263.5C 285.667,264.833 286.333,264.833 287,263.5C 287.36,265.608 288.027,267.608 289,269.5C 290.986,263.747 291.986,257.747 292,251.5C 292.333,251.833 292.667,252.167 293,252.5C 292.911,261.743 291.744,270.743 289.5,279.5 Z"/></g>
<g><path style="opacity:1" fill="#404040" d="M 277.5,255.5 C 278.222,255.918 278.722,256.584 279,257.5C 279.498,260.482 279.665,263.482 279.5,266.5C 277.918,263.124 277.251,259.458 277.5,255.5 Z"/></g>
<g><path style="opacity:1" fill="#8a8a8a" d="M 255.5,257.5 C 253.919,259.142 253.253,261.142 253.5,263.5C 252.387,262.054 252.22,260.387 253,258.5C 253.671,257.748 254.504,257.414 255.5,257.5 Z"/></g>
<g><path style="opacity:1" fill="#606060" d="M 236.5,255.5 C 239.228,255.171 241.562,255.837 243.5,257.5C 241.473,257.662 239.473,257.495 237.5,257C 236.944,256.617 236.611,256.117 236.5,255.5 Z"/></g>
<g><path style="opacity:1" fill="#494949" d="M 220.5,285.5 C 219.167,285.5 217.833,285.5 216.5,285.5C 213.909,284.746 212.076,283.079 211,280.5C 209.428,272.373 207.928,264.207 206.5,256C 206.63,254.941 207.13,254.108 208,253.5C 207.898,259.845 209.232,265.845 212,271.5C 215.059,266.608 216.225,261.275 215.5,255.5C 216.181,253.842 217.015,252.175 218,250.5C 217.456,256.118 216.789,261.785 216,267.5C 213.467,271.203 212.134,275.203 212,279.5C 212.718,280.451 213.551,280.617 214.5,280C 212.032,278.412 211.866,276.578 214,274.5C 214.642,276.762 215.475,278.929 216.5,281C 220.416,282.102 224.416,282.769 228.5,283C 224.245,283.796 220.079,283.629 216,282.5C 215.833,282.833 215.667,283.167 215.5,283.5C 217.291,284.17 218.958,284.837 220.5,285.5 Z"/></g>
<g><path style="opacity:1" fill="#0d0d0d" d="M 275.5,254.5 C 275.842,255.338 276.508,255.672 277.5,255.5C 277.251,259.458 277.918,263.124 279.5,266.5C 279.122,268.921 278.455,271.254 277.5,273.5C 276.833,273.833 276.167,274.167 275.5,274.5C 270.362,272.28 265.196,269.946 260,267.5C 259.5,267.833 259,268.167 258.5,268.5C 259.167,269.167 259.833,269.833 260.5,270.5C 260.376,271.107 260.043,271.44 259.5,271.5C 257.323,268.975 255.323,266.308 253.5,263.5C 253.253,261.142 253.919,259.142 255.5,257.5C 256.568,256.566 257.901,256.232 259.5,256.5C 264.716,255.031 270.05,254.365 275.5,254.5 Z"/></g>
<g><path style="opacity:1" fill="#0d0d0d" d="M 232.5,253.5 C 234.062,253.733 235.395,254.4 236.5,255.5C 236.611,256.117 236.944,256.617 237.5,257C 239.473,257.495 241.473,257.662 243.5,257.5C 243.842,258.338 244.508,258.672 245.5,258.5C 245.46,261.988 244.793,265.321 243.5,268.5C 242.842,267.602 242.176,266.602 241.5,265.5C 237.933,269.028 233.6,271.028 228.5,271.5C 228.473,273.199 227.806,274.533 226.5,275.5C 224.61,275.703 223.11,275.037 222,273.5C 219.267,268.37 218.934,263.037 221,257.5C 224.503,255.274 228.336,253.941 232.5,253.5 Z"/></g>
<g><path style="opacity:1" fill="#adadad" d="M 275.5,254.5 C 270.05,254.365 264.716,255.031 259.5,256.5C 259.414,255.504 259.748,254.671 260.5,254C 263.755,252.853 267.088,252.02 270.5,251.5C 272.693,251.771 274.359,252.771 275.5,254.5 Z"/></g>
<g><path style="opacity:1" fill="#8c8c8c" d="M 247.5,249.5 C 248.978,249.238 250.311,249.571 251.5,250.5C 250.833,250.833 250.167,251.167 249.5,251.5C 248.287,251.253 247.62,250.586 247.5,249.5 Z"/></g>
<g><path style="opacity:1" fill="#4b4b4b" d="M 242.5,244.5 C 248.176,244.334 253.843,244.501 259.5,245C 252.833,245.779 246.166,246.112 239.5,246C 240.737,245.768 241.737,245.268 242.5,244.5 Z"/></g>
<g><path style="opacity:1" fill="#686868" d="M 293.5,236.5 C 293.5,237.5 293.5,238.5 293.5,239.5C 291.447,239.598 289.78,238.931 288.5,237.5C 290.292,237.634 291.958,237.301 293.5,236.5 Z"/></g>
<g><path style="opacity:1" fill="#727272" d="M 213.5,235.5 C 213.5,234.167 213.5,232.833 213.5,231.5C 209.092,231.062 207.425,233.062 208.5,237.5C 210.292,237.634 211.958,237.301 213.5,236.5C 213.5,237.5 213.5,238.5 213.5,239.5C 209.248,239.725 206.581,237.892 205.5,234C 207.317,227.837 210.484,227.004 215,231.5C 215.773,233.352 215.273,234.686 213.5,235.5 Z"/></g>
<g><path style="opacity:1" fill="#777777" d="M 293.5,235.5 C 293.5,234.167 293.5,232.833 293.5,231.5C 289.515,231.44 287.848,233.44 288.5,237.5C 286.278,237.441 285.278,236.275 285.5,234C 288.478,226.936 291.811,226.769 295.5,233.5C 295.253,234.713 294.586,235.38 293.5,235.5 Z"/></g>
<g><path style="opacity:1" fill="#e9e9e9" d="M 213.5,235.5 C 213.5,235.833 213.5,236.167 213.5,236.5C 211.958,237.301 210.292,237.634 208.5,237.5C 207.425,233.062 209.092,231.062 213.5,231.5C 213.5,232.833 213.5,234.167 213.5,235.5 Z"/></g>
<g><path style="opacity:1" fill="#ececec" d="M 293.5,235.5 C 293.5,235.833 293.5,236.167 293.5,236.5C 291.958,237.301 290.292,237.634 288.5,237.5C 287.848,233.44 289.515,231.44 293.5,231.5C 293.5,232.833 293.5,234.167 293.5,235.5 Z"/></g>
<g><path style="opacity:1" fill="#5f5f5f" d="M 247.5,222.5 C 249.582,222.472 251.416,223.139 253,224.5C 253.226,227.095 253.726,229.595 254.5,232C 250.307,235.633 247.14,234.8 245,229.5C 243.916,226.341 244.75,224.008 247.5,222.5 Z"/></g>
<g><path style="opacity:1" fill="#efefef" d="M 247.5,226.5 C 249.167,226.5 250.833,226.5 252.5,226.5C 253.167,230.5 251.5,232.167 247.5,231.5C 247.5,229.833 247.5,228.167 247.5,226.5 Z"/></g>
<g><path style="opacity:1" fill="#565656" d="M 264.5,211.5 C 267.483,211.138 270.15,212.305 272.5,215C 270.431,215.324 270.098,216.158 271.5,217.5C 269.677,216.498 267.677,216.498 265.5,217.5C 265.36,216.236 265.36,215.069 265.5,214C 267.742,212.993 267.408,212.159 264.5,211.5 Z"/></g>
<g><path style="opacity:1" fill="#6b6b6b" d="M 227.5,203.5 C 232.592,203.497 232.592,204.33 227.5,206C 228.833,206.333 230.167,206.667 231.5,207C 223.588,207.929 216.755,211.096 211,216.5C 211.195,214.255 212.362,212.422 214.5,211C 219.191,208.992 223.524,206.492 227.5,203.5 Z"/></g>
<g><path style="opacity:1" fill="#8d8d8d" d="M 244.5,296.5 C 245.239,296.369 245.906,296.536 246.5,297C 245.377,298.044 244.044,298.71 242.5,299C 242.833,299.333 243.167,299.667 243.5,300C 240.553,301.665 237.553,302.165 234.5,301.5C 237.816,299.834 241.149,298.167 244.5,296.5 Z"/></g>
<g><path style="opacity:1" fill="#848484" d="M 254.5,296.5 C 258.51,297.84 262.51,299.174 266.5,300.5C 266.719,301.675 266.386,302.675 265.5,303.5C 262.618,302.039 259.618,300.873 256.5,300C 255.177,299.184 254.511,298.017 254.5,296.5 Z"/></g>
<g><path style="opacity:1" fill="#8a8a8a" d="M 243.5,303.5 C 244.5,303.5 245.5,303.5 246.5,303.5C 246.719,304.675 246.386,305.675 245.5,306.5C 243.833,307.167 242.167,307.833 240.5,308.5C 239.268,307.855 237.935,307.689 236.5,308C 238.898,306.476 241.231,304.976 243.5,303.5 Z"/></g>
<g><path style="opacity:1" fill="#797979" d="M 254.5,303.5 C 257.884,304.343 260.884,305.843 263.5,308C 263.167,308.5 262.833,309 262.5,309.5C 258.613,308.913 255.946,306.913 254.5,303.5 Z"/></g>
<g><path style="opacity:1" fill="#777777" d="M 290.5,305.5 C 291.376,305.369 292.043,305.702 292.5,306.5C 291.687,307.814 290.687,308.981 289.5,310C 284.526,312.102 279.526,313.769 274.5,315C 277.964,312.953 281.63,311.287 285.5,310C 287.24,308.483 288.906,306.983 290.5,305.5 Z"/></g>
<g><path style="opacity:1" fill="#8a8a8a" d="M 244.5,310.5 C 246.048,310.821 246.715,311.821 246.5,313.5C 244.173,313.247 242.173,313.914 240.5,315.5C 239.167,314.5 239.167,313.5 240.5,312.5C 242.026,312.006 243.359,311.339 244.5,310.5 Z"/></g>
<g><path style="opacity:1" fill="#848484" d="M 255.5,311.5 C 257.827,311.247 259.827,311.914 261.5,313.5C 258.707,314.972 256.707,314.306 255.5,311.5 Z"/></g>
<g><path style="opacity:1" fill="#878787" d="M 231.5,318.5 C 225.604,316.883 219.937,314.717 214.5,312C 215.5,311.5 216.5,311 217.5,310.5C 221.968,313.728 226.635,316.394 231.5,318.5 Z"/></g>
<g><path style="opacity:1" fill="#0d0d0d" d="M 171.5,320.5 C 166.684,321.326 161.684,321.826 156.5,322C 161.746,323.506 167.079,323.839 172.5,323C 178.67,320.46 185.003,318.96 191.5,318.5C 194.843,318.501 197.177,320.001 198.5,323C 196.751,326.522 194.085,327.355 190.5,325.5C 188.034,324.366 185.367,324.199 182.5,325C 181.748,325.671 181.414,326.504 181.5,327.5C 181.907,333.161 182.24,338.828 182.5,344.5C 181.167,344.5 179.833,344.5 178.5,344.5C 175.064,343.218 171.731,343.218 168.5,344.5C 165.482,344.335 162.482,344.502 159.5,345C 162.063,346.079 164.729,346.579 167.5,346.5C 162.319,347.636 156.985,347.636 151.5,346.5C 149.898,344.926 147.898,344.259 145.5,344.5C 142.598,344.177 140.765,342.844 140,340.5C 143.786,338.027 147.619,335.693 151.5,333.5C 148.946,331.292 146.446,328.959 144,326.5C 142.973,323.246 141.473,320.246 139.5,317.5C 140,317.167 140.5,316.833 141,316.5C 150.868,319.954 161.034,321.288 171.5,320.5 Z"/></g>
<g><path style="opacity:1" fill="#090909" d="M 351.5,345.5 C 343.347,344.326 335.347,344.326 327.5,345.5C 324.482,345.296 321.482,344.963 318.5,344.5C 318.5,340.5 318.5,336.5 318.5,332.5C 319.797,330.307 319.797,327.973 318.5,325.5C 314.153,324.066 309.986,324.399 306,326.5C 302.721,325.493 301.888,323.493 303.5,320.5C 304.605,319.4 305.938,318.733 307.5,318.5C 314.581,319.122 321.415,320.789 328,323.5C 329.07,323.472 329.903,323.139 330.5,322.5C 333.518,322.704 336.518,323.037 339.5,323.5C 339.5,322.5 339.5,321.5 339.5,320.5C 346.562,320.185 353.396,318.852 360,316.5C 360.496,318.035 360.33,319.535 359.5,321C 358.171,322.66 357.171,324.493 356.5,326.5C 353.833,328.5 351.5,330.833 349.5,333.5C 353.19,336.675 357.19,339.342 361.5,341.5C 358.416,343.418 355.082,344.751 351.5,345.5 Z"/></g>
<g><path style="opacity:1" fill="#878787" d="M 307.5,318.5 C 311.5,317.167 315.5,317.167 319.5,318.5C 323.116,319.987 326.783,321.32 330.5,322.5C 329.903,323.139 329.07,323.472 328,323.5C 321.415,320.789 314.581,319.122 307.5,318.5 Z"/></g>
<g><path style="opacity:1" fill="#3d3d3d" d="M 319.5,318.5 C 326.063,320.047 332.73,320.714 339.5,320.5C 339.5,321.5 339.5,322.5 339.5,323.5C 336.518,323.037 333.518,322.704 330.5,322.5C 326.783,321.32 323.116,319.987 319.5,318.5 Z"/></g>
<g><path style="opacity:1" fill="#727272" d="M 191.5,318.5 C 185.003,318.96 178.67,320.46 172.5,323C 167.079,323.839 161.746,323.506 156.5,322C 161.684,321.826 166.684,321.326 171.5,320.5C 177.948,317.543 184.615,316.876 191.5,318.5 Z"/></g>
<g><path style="opacity:1" fill="#5a5a5a" d="M 190.5,325.5 C 187.162,325.065 184.162,325.732 181.5,327.5C 181.414,326.504 181.748,325.671 182.5,325C 185.367,324.199 188.034,324.366 190.5,325.5 Z"/></g>
<g><path style="opacity:1" fill="#6a6a6a" d="M 231.5,318.5 C 236.051,320.374 240.385,322.707 244.5,325.5C 248.872,324.151 253.206,324.318 257.5,326C 247.219,328.766 238.553,326.266 231.5,318.5 Z"/></g>
<g><path style="opacity:1" fill="#191919" d="M 199.5,325.5 C 200.649,325.791 201.316,326.624 201.5,328C 202.216,330.792 202.549,333.626 202.5,336.5C 194.975,336.272 188.641,333.438 183.5,328C 187.19,327.419 190.856,327.585 194.5,328.5C 197.048,328.735 198.714,327.735 199.5,325.5 Z"/></g>
<g><path style="opacity:1" fill="#141414" d="M 299.5,325.5 C 301.312,327.116 303.479,328.116 306,328.5C 309.471,327.545 312.971,327.378 316.5,328C 315.5,329 314.5,330 313.5,331C 309.175,333.661 304.508,335.495 299.5,336.5C 298.357,333.502 298.357,330.502 299.5,327.5C 299.5,326.833 299.5,326.167 299.5,325.5 Z"/></g>
<g><path style="opacity:1" fill="#6b6b6b" d="M 241.5,328.5 C 246.13,329.229 250.797,329.563 255.5,329.5C 253.696,330.162 251.696,330.495 249.5,330.5C 246.473,330.713 243.807,330.047 241.5,328.5 Z"/></g>
<g><path style="opacity:1" fill="#cbcbcb" d="M 303.5,320.5 C 301.888,323.493 302.721,325.493 306,326.5C 309.986,324.399 314.153,324.066 318.5,325.5C 319.797,327.973 319.797,330.307 318.5,332.5C 317.833,333.5 317.167,334.5 316.5,335.5C 316.719,334.325 316.386,333.325 315.5,332.5C 314.893,332.624 314.56,332.957 314.5,333.5C 310.706,334.982 307.039,336.649 303.5,338.5C 302.5,338.5 301.5,338.5 300.5,338.5C 299.282,337.839 297.949,337.172 296.5,336.5C 297.23,333.891 297.73,331.224 298,328.5C 298.383,327.944 298.883,327.611 299.5,327.5C 298.357,330.502 298.357,333.502 299.5,336.5C 304.508,335.495 309.175,333.661 313.5,331C 314.5,330 315.5,329 316.5,328C 312.971,327.378 309.471,327.545 306,328.5C 303.479,328.116 301.312,327.116 299.5,325.5C 300.612,323.581 301.946,321.914 303.5,320.5 Z"/></g>
<g><path style="opacity:1" fill="#101010" d="M 192.5,336.5 C 191.365,338.213 189.698,338.88 187.5,338.5C 187.859,340.766 187.192,342.599 185.5,344C 187.5,344.667 189.5,344.667 191.5,344C 190.549,343.282 190.383,342.449 191,341.5C 192.32,341.201 193.82,341.034 195.5,341C 192.937,340.237 192.937,339.737 195.5,339.5C 202.672,341.794 210.005,343.127 217.5,343.5C 227.12,345.022 236.953,345.689 247,345.5C 253.833,345.333 260.667,345.167 267.5,345C 257.167,344.667 246.833,344.333 236.5,344C 245.676,343.83 254.676,343.33 263.5,342.5C 276.034,342.724 288.367,341.391 300.5,338.5C 301.5,338.5 302.5,338.5 303.5,338.5C 305.468,339.819 307.468,339.819 309.5,338.5C 310.308,338.808 310.975,339.308 311.5,340C 309.913,340.862 308.246,341.529 306.5,342C 309.514,343.672 311.514,345.672 312.5,348C 311.377,349.044 310.044,349.71 308.5,350C 309.448,350.483 310.448,350.649 311.5,350.5C 311.334,354.241 309.334,356.407 305.5,357C 308.396,358.698 311.396,358.864 314.5,357.5C 314.859,355.234 314.192,353.401 312.5,352C 313.428,351.612 314.095,350.945 314.5,350C 314.091,344.638 314.091,339.138 314.5,333.5C 314.56,332.957 314.893,332.624 315.5,332.5C 316.386,333.325 316.719,334.325 316.5,335.5C 317.036,343.513 317.703,351.513 318.5,359.5C 316.079,359.878 313.746,360.545 311.5,361.5C 308.903,361.279 308.903,360.779 311.5,360C 311,359.833 310.5,359.667 310,359.5C 301.816,362.783 293.316,364.616 284.5,365C 288.152,365.499 291.818,365.665 295.5,365.5C 287.727,367.217 279.727,368.217 271.5,368.5C 267.818,368.665 264.152,368.499 260.5,368C 264.5,367.667 268.5,367.333 272.5,367C 266.652,366.827 260.985,366.327 255.5,365.5C 256.725,364.848 257.392,363.681 257.5,362C 257.333,360.833 257.167,359.667 257,358.5C 256.243,360.315 255.41,361.981 254.5,363.5C 253.596,364.209 253.263,365.209 253.5,366.5C 248.156,366.334 242.823,366.501 237.5,367C 242.5,367.333 247.5,367.667 252.5,368C 253.737,368.232 254.737,368.732 255.5,369.5C 239.392,369.825 223.392,368.825 207.5,366.5C 205.162,364.96 202.495,364.294 199.5,364.5C 198.833,364.5 198.167,364.5 197.5,364.5C 197.918,363.778 198.584,363.278 199.5,363C 196.833,362 194.167,361 191.5,360C 191.833,359.667 192.167,359.333 192.5,359C 189.905,356.661 187.239,356.327 184.5,358C 185.328,358.915 186.328,359.581 187.5,360C 187.272,360.399 186.938,360.565 186.5,360.5C 185.417,360.461 184.417,360.127 183.5,359.5C 183.167,357.667 182.833,355.833 182.5,354C 183.272,349.183 183.939,344.35 184.5,339.5C 184.214,336.761 184.048,334.094 184,331.5C 186.614,333.556 189.447,335.223 192.5,336.5 Z"/></g>
<g><path style="opacity:1" fill="#4f4f4f" d="M 314.5,333.5 C 314.091,339.138 314.091,344.638 314.5,350C 314.095,350.945 313.428,351.612 312.5,352C 314.192,353.401 314.859,355.234 314.5,357.5C 311.396,358.864 308.396,358.698 305.5,357C 309.334,356.407 311.334,354.241 311.5,350.5C 310.448,350.649 309.448,350.483 308.5,350C 310.044,349.71 311.377,349.044 312.5,348C 311.514,345.672 309.514,343.672 306.5,342C 308.246,341.529 309.913,340.862 311.5,340C 310.975,339.308 310.308,338.808 309.5,338.5C 307.468,339.819 305.468,339.819 303.5,338.5C 307.039,336.649 310.706,334.982 314.5,333.5 Z"/></g>
<g><path style="opacity:1" fill="#555555" d="M 192.5,336.5 C 199.202,338.509 205.868,340.175 212.5,341.5C 214.806,342.038 216.472,342.705 217.5,343.5C 210.005,343.127 202.672,341.794 195.5,339.5C 192.937,339.737 192.937,340.237 195.5,341C 193.82,341.034 192.32,341.201 191,341.5C 190.383,342.449 190.549,343.282 191.5,344C 189.5,344.667 187.5,344.667 185.5,344C 187.192,342.599 187.859,340.766 187.5,338.5C 189.698,338.88 191.365,338.213 192.5,336.5 Z"/></g>
<g><path style="opacity:1" fill="#4e4e4e" d="M 212.5,341.5 C 229.487,342.316 246.487,342.65 263.5,342.5C 254.676,343.33 245.676,343.83 236.5,344C 246.833,344.333 257.167,344.667 267.5,345C 260.667,345.167 253.833,345.333 247,345.5C 236.953,345.689 227.12,345.022 217.5,343.5C 216.472,342.705 214.806,342.038 212.5,341.5 Z"/></g>
<g><path style="opacity:1" fill="#8e8e8e" d="M 168.5,344.5 C 169.552,344.351 170.552,344.517 171.5,345C 169.942,345.21 168.609,345.71 167.5,346.5C 164.729,346.579 162.063,346.079 159.5,345C 162.482,344.502 165.482,344.335 168.5,344.5 Z"/></g>
<g><path style="opacity:1" fill="#737373" d="M 351.5,345.5 C 347.246,346.895 342.746,347.561 338,347.5C 334.195,347.696 330.695,347.03 327.5,345.5C 335.347,344.326 343.347,344.326 351.5,345.5 Z"/></g>
<g><path style="opacity:1" fill="#6f6f6f" d="M 145.5,344.5 C 147.898,344.259 149.898,344.926 151.5,346.5C 149.102,346.741 147.102,346.074 145.5,344.5 Z"/></g>
<g><path style="opacity:1" fill="#525252" d="M 168.5,344.5 C 171.731,343.218 175.064,343.218 178.5,344.5C 175.091,345.903 171.425,346.57 167.5,346.5C 168.609,345.71 169.942,345.21 171.5,345C 170.552,344.517 169.552,344.351 168.5,344.5 Z"/></g>
<g><path style="opacity:1" fill="#535353" d="M 185.5,345.5 C 192.777,346.56 193.11,348.393 186.5,351C 187.747,352.494 187.747,353.994 186.5,355.5C 185.513,352.232 185.18,348.898 185.5,345.5 Z"/></g>
<g><path style="opacity:1" fill="#767676" d="M 285.5,351.5 C 287.5,350.167 289.5,350.167 291.5,351.5C 290.508,351.328 289.842,351.662 289.5,352.5C 287.824,353.183 287.157,354.517 287.5,356.5C 286.833,354.833 286.167,353.167 285.5,351.5 Z"/></g>
<g><path style="opacity:1" fill="#898989" d="M 230.5,362.5 C 230.5,359.167 230.5,355.833 230.5,352.5C 233.448,352.223 236.281,352.556 239,353.5C 238.813,355.801 237.646,356.135 235.5,354.5C 234.571,355.689 234.238,357.022 234.5,358.5C 238.5,358.833 238.5,359.167 234.5,359.5C 234.279,363.795 235.612,364.462 238.5,361.5C 239.583,362.365 239.749,363.365 239,364.5C 235.943,365.451 232.777,365.784 229.5,365.5C 229.263,364.209 229.596,363.209 230.5,362.5 Z"/></g>
<g><path style="opacity:1" fill="#efefef" d="M 291.5,351.5 C 294.618,353.848 295.285,356.848 293.5,360.5C 292.833,358.833 292.167,357.167 291.5,355.5C 290.833,354.5 290.167,353.5 289.5,352.5C 289.842,351.662 290.508,351.328 291.5,351.5 Z"/></g>
<g><path style="opacity:1" fill="#f3f3f3" d="M 230.5,362.5 C 231.166,359.642 231.833,356.642 232.5,353.5C 233.489,357.107 233.823,360.774 233.5,364.5C 231.821,364.715 230.821,364.048 230.5,362.5 Z"/></g>
<g><path style="opacity:1" fill="#d9d9d9" d="M 276.5,357.5 C 277.108,358.8 277.775,360.133 278.5,361.5C 278.253,362.713 277.586,363.38 276.5,363.5C 274.554,361.372 272.721,359.039 271,356.5C 270.788,359.332 270.621,361.998 270.5,364.5C 269.767,360.826 269.101,357.159 268.5,353.5C 270.074,352.369 271.741,352.202 273.5,353C 274.399,354.652 275.399,356.152 276.5,357.5 Z"/></g>
<g><path style="opacity:1" fill="#d6d6d6" d="M 207.5,351.5 C 208.568,350.566 209.901,350.232 211.5,350.5C 211.5,354.5 211.5,358.5 211.5,362.5C 210.167,362.5 208.833,362.5 207.5,362.5C 208.62,358.684 208.62,355.017 207.5,351.5 Z"/></g>
<g><path style="opacity:1" fill="#959595" d="M 243.5,353.5 C 244.568,352.566 245.901,352.232 247.5,352.5C 246.756,356.119 246.423,359.785 246.5,363.5C 248.39,363.703 249.89,363.037 251,361.5C 251.49,362.793 251.657,364.127 251.5,365.5C 249.5,365.5 247.5,365.5 245.5,365.5C 246.089,361.029 245.423,357.029 243.5,353.5 Z"/></g>
<g><path style="opacity:1" fill="#e7e7e7" d="M 285.5,351.5 C 286.167,353.167 286.833,354.833 287.5,356.5C 287.5,358.167 287.5,359.833 287.5,361.5C 287.5,362.167 287.5,362.833 287.5,363.5C 286.5,363.5 285.5,363.5 284.5,363.5C 284.66,360.116 284.327,356.783 283.5,353.5C 283.747,352.287 284.414,351.62 285.5,351.5 Z"/></g>
<g><path style="opacity:1" fill="#0e0e0e" d="M 289.5,352.5 C 290.167,353.5 290.833,354.5 291.5,355.5C 292.113,358.969 290.779,360.969 287.5,361.5C 287.5,359.833 287.5,358.167 287.5,356.5C 287.157,354.517 287.824,353.183 289.5,352.5 Z"/></g>
<g><path style="opacity:1" fill="#eeeeee" d="M 243.5,353.5 C 245.423,357.029 246.089,361.029 245.5,365.5C 243.577,361.971 242.911,357.971 243.5,353.5 Z"/></g>
<g><path style="opacity:1" fill="#898989" d="M 276.5,363.5 C 277.586,363.38 278.253,362.713 278.5,361.5C 277.775,360.133 277.108,358.8 276.5,357.5C 277.165,355.631 277.831,353.631 278.5,351.5C 279.492,355.783 279.826,360.116 279.5,364.5C 278.209,364.737 277.209,364.404 276.5,363.5 Z"/></g>
<g><path style="opacity:1" fill="#d4d4d4" d="M 216.5,351.5 C 218.857,351.337 221.19,351.503 223.5,352C 225.998,354.185 225.998,356.518 223.5,359C 224.289,360.626 225.289,362.126 226.5,363.5C 224.955,364.452 223.288,364.785 221.5,364.5C 221.785,362.712 221.452,361.045 220.5,359.5C 219.571,360.689 219.238,362.022 219.5,363.5C 218.022,363.762 216.689,363.429 215.5,362.5C 216.426,358.906 216.759,355.24 216.5,351.5 Z"/></g>
<g><path style="opacity:1" fill="#191919" d="M 219.5,353.5 C 220.5,353.5 221.5,353.5 222.5,353.5C 222.725,355.716 221.892,357.383 220,358.5C 219.506,356.866 219.34,355.199 219.5,353.5 Z"/></g>
<g><path style="opacity:1" fill="#575757" d="M 197.5,364.5 C 193.698,363.308 190.031,361.975 186.5,360.5C 186.938,360.565 187.272,360.399 187.5,360C 186.328,359.581 185.328,358.915 184.5,358C 187.239,356.327 189.905,356.661 192.5,359C 192.167,359.333 191.833,359.667 191.5,360C 194.167,361 196.833,362 199.5,363C 198.584,363.278 197.918,363.778 197.5,364.5 Z"/></g>
<g><path style="opacity:1" fill="#d3d3d3" d="M 257.5,353.5 C 258.833,353.5 260.167,353.5 261.5,353.5C 262.035,357.437 263.368,361.104 265.5,364.5C 263.955,365.452 262.288,365.785 260.5,365.5C 260.071,361.323 259.071,357.323 257.5,353.5 Z"/></g>
<g><path style="opacity:1" fill="#d0d0d0" d="M 255.5,365.5 C 254.662,365.158 254.328,364.492 254.5,363.5C 255.41,361.981 256.243,360.315 257,358.5C 257.167,359.667 257.333,360.833 257.5,362C 257.392,363.681 256.725,364.848 255.5,365.5 Z"/></g>
<g><path style="opacity:1" fill="#929292" d="M 291.5,355.5 C 292.167,357.167 292.833,358.833 293.5,360.5C 292.089,362.539 290.089,363.539 287.5,363.5C 287.5,362.833 287.5,362.167 287.5,361.5C 290.779,360.969 292.113,358.969 291.5,355.5 Z"/></g>
<g><path style="opacity:1" fill="#6c6c6c" d="M 311.5,361.5 C 306.557,363.889 301.223,365.223 295.5,365.5C 291.818,365.665 288.152,365.499 284.5,365C 293.316,364.616 301.816,362.783 310,359.5C 310.5,359.667 311,359.833 311.5,360C 308.903,360.779 308.903,361.279 311.5,361.5 Z"/></g>
<g><path style="opacity:1" fill="#616161" d="M 199.5,364.5 C 202.495,364.294 205.162,364.96 207.5,366.5C 204.572,366.435 201.905,365.768 199.5,364.5 Z"/></g>
<g><path style="opacity:1" fill="#5b5b5b" d="M 254.5,363.5 C 254.328,364.492 254.662,365.158 255.5,365.5C 260.985,366.327 266.652,366.827 272.5,367C 268.5,367.333 264.5,367.667 260.5,368C 264.152,368.499 267.818,368.665 271.5,368.5C 266.36,369.488 261.026,369.821 255.5,369.5C 254.737,368.732 253.737,368.232 252.5,368C 247.5,367.667 242.5,367.333 237.5,367C 242.823,366.501 248.156,366.334 253.5,366.5C 253.263,365.209 253.596,364.209 254.5,363.5 Z"/></g>
</svg>
