<?xml version="1.0" encoding="UTF-8"?>
<!DOCTYPE svg PUBLIC "-//W3C//DTD SVG 1.1//EN" "http://www.w3.org/Graphics/SVG/1.1/DTD/svg11.dtd">
<svg xmlns="http://www.w3.org/2000/svg" version="1.1" width="1683px" height="336px" style="shape-rendering:geometricPrecision; text-rendering:geometricPrecision; image-rendering:optimizeQuality; fill-rule:evenodd; clip-rule:evenodd" xmlns:xlink="http://www.w3.org/1999/xlink">
<g><path style="opacity:0.95" fill="#fefffe" d="M 59.5,11.5 C 227.5,11.5 395.5,11.5 563.5,11.5C 563.5,26.8333 563.5,42.1667 563.5,57.5C 748.833,57.5 934.167,57.5 1119.5,57.5C 1119.5,42.1667 1119.5,26.8333 1119.5,11.5C 1287.5,11.5 1455.5,11.5 1623.5,11.5C 1623.5,115.833 1623.5,220.167 1623.5,324.5C 1102.17,324.5 580.833,324.5 59.5,324.5C 59.5,220.167 59.5,115.833 59.5,11.5 Z M 79.5,31.5 C 234.167,31.5 388.833,31.5 543.5,31.5C 543.5,46.8333 543.5,62.1667 543.5,77.5C 742.167,77.5 940.833,77.5 1139.5,77.5C 1139.5,62.1667 1139.5,46.8333 1139.5,31.5C 1294.17,31.5 1448.83,31.5 1603.5,31.5C 1603.5,122.5 1603.5,213.5 1603.5,304.5C 1095.5,304.5 587.5,304.5 79.5,304.5C 79.5,213.5 79.5,122.5 79.5,31.5 Z M 273.5,48.5 C 285.435,50.4674 291.435,57.634 291.5,70C 291.575,77.5133 288.908,83.8467 283.5,89C 272.453,93.8718 264.62,90.7052 260,79.5C 256.655,68.3774 259.155,58.8774 267.5,51C 269.611,50.1553 271.611,49.322 273.5,48.5 Z M 323.5,133.5 C 334.465,132.244 344.798,134.077 354.5,139C 362.403,146.84 363.57,155.674 358,165.5C 352.465,171.351 345.631,174.517 337.5,175C 331.175,175.5 324.842,175.666 318.5,175.5C 318.5,161.833 318.5,148.167 318.5,134.5C 320.415,134.784 322.081,134.451 323.5,133.5 Z M 561.5,133.5 C 603.085,132.914 621.918,153.247 618,194.5C 613.24,220.922 597.407,235.088 570.5,237C 562.144,237.665 553.811,237.499 545.5,236.5C 545.5,202.833 545.5,169.167 545.5,135.5C 550.998,135.048 556.331,134.381 561.5,133.5 Z M 734.5,133.5 C 776.652,133.145 795.485,153.812 791,195.5C 786.963,217.871 773.796,231.371 751.5,236C 740.844,237.7 730.177,237.867 719.5,236.5C 719.5,202.833 719.5,169.167 719.5,135.5C 724.654,134.994 729.654,134.327 734.5,133.5 Z M 857.5,133.5 C 868.949,132.156 879.616,134.323 889.5,140C 896.042,146.537 898.209,154.371 896,163.5C 891.372,174.77 882.872,180.604 870.5,181C 863.842,181.5 857.175,181.666 850.5,181.5C 850.5,165.833 850.5,150.167 850.5,134.5C 853.059,134.802 855.393,134.468 857.5,133.5 Z M 1080.5,137.5 C 1086.64,157.072 1093.3,176.572 1100.5,196C 1087.5,196.667 1074.5,196.667 1061.5,196C 1068.94,176.844 1075.27,157.344 1080.5,137.5 Z M 451.5,139.5 C 452.586,139.62 453.253,140.287 453.5,141.5C 459.232,159.953 465.232,178.287 471.5,196.5C 458.816,196.832 446.149,196.499 433.5,195.5C 440.515,177.123 446.515,158.456 451.5,139.5 Z M 318.5,188.5 C 331.798,187.279 344.465,189.446 356.5,195C 366.328,204.014 368.162,214.514 362,226.5C 356.628,232.77 349.795,236.27 341.5,237C 333.841,237.5 326.174,237.666 318.5,237.5C 318.5,221.167 318.5,204.833 318.5,188.5 Z"/></g>
<g><path style="opacity:0.873" fill="#fefffe" d="M 105.5,42.5 C 111.909,42.1827 118.243,42.6827 124.5,44C 125.725,46.6293 125.392,49.1293 123.5,51.5C 110.021,46.0422 100.187,49.7088 94,62.5C 90.829,85.3297 100.496,94.3297 123,89.5C 125.134,91.2871 125.967,93.6205 125.5,96.5C 93.2822,102.45 80.4489,89.4496 87,57.5C 90.9945,49.6584 97.1611,44.6584 105.5,42.5 Z"/></g>
<g><path style="opacity:0.885" fill="#fefffe" d="M 268.5,42.5 C 288.729,40.5646 299.063,49.7313 299.5,70C 298.137,93.351 286.137,102.018 263.5,96C 254.272,90.0437 249.938,81.5437 250.5,70.5C 249.99,56.8273 255.99,47.4939 268.5,42.5 Z M 273.5,48.5 C 271.611,49.322 269.611,50.1553 267.5,51C 259.155,58.8774 256.655,68.3774 260,79.5C 264.62,90.7052 272.453,93.8718 283.5,89C 288.908,83.8467 291.575,77.5133 291.5,70C 291.435,57.634 285.435,50.4674 273.5,48.5 Z"/></g>
<g><path style="opacity:0.867" fill="#fefffe" d="M 133.5,43.5 C 136.167,43.5 138.833,43.5 141.5,43.5C 141.5,61.5 141.5,79.5 141.5,97.5C 138.833,97.5 136.167,97.5 133.5,97.5C 133.5,79.5 133.5,61.5 133.5,43.5 Z"/></g>
<g><path style="opacity:0.913" fill="#fefffe" d="M 146.5,43.5 C 159.833,43.5 173.167,43.5 186.5,43.5C 186.5,45.5 186.5,47.5 186.5,49.5C 181.167,49.5 175.833,49.5 170.5,49.5C 170.5,65.5 170.5,81.5 170.5,97.5C 167.833,97.5 165.167,97.5 162.5,97.5C 162.5,81.5 162.5,65.5 162.5,49.5C 157.167,49.5 151.833,49.5 146.5,49.5C 146.5,47.5 146.5,45.5 146.5,43.5 Z"/></g>
<g><path style="opacity:0.875" fill="#fefffe" d="M 188.5,44.5 C 191.687,43.1944 195.02,43.1944 198.5,44.5C 202.333,52.1667 206.167,59.8333 210,67.5C 214.255,59.9908 218.255,52.3241 222,44.5C 225.125,43.2126 228.291,43.2126 231.5,44.5C 225.414,54.336 219.581,64.336 214,74.5C 213.5,82.1594 213.334,89.8261 213.5,97.5C 210.833,97.5 208.167,97.5 205.5,97.5C 205.666,89.4931 205.5,81.4931 205,73.5C 199.979,63.4456 194.479,53.7789 188.5,44.5 Z"/></g>
<g><path style="opacity:0.89" fill="#fefffe" d="M 307.5,43.5 C 317.5,43.5 327.5,43.5 337.5,43.5C 337.5,45.5 337.5,47.5 337.5,49.5C 330.167,49.5 322.833,49.5 315.5,49.5C 315.5,55.1667 315.5,60.8333 315.5,66.5C 322.167,66.5 328.833,66.5 335.5,66.5C 335.5,68.8333 335.5,71.1667 335.5,73.5C 328.833,73.5 322.167,73.5 315.5,73.5C 315.5,81.5 315.5,89.5 315.5,97.5C 312.833,97.5 310.167,97.5 307.5,97.5C 307.5,79.5 307.5,61.5 307.5,43.5 Z"/></g>
<g><path style="opacity:0.94" fill="#fefffe" d="M 1345.5,118.5 C 1357.15,117.712 1368.48,119.212 1379.5,123C 1381.22,123.523 1382.56,124.523 1383.5,126C 1381.96,130.815 1379.96,135.315 1377.5,139.5C 1363.13,131.896 1348.8,131.729 1334.5,139C 1326.2,148.65 1326.54,157.984 1335.5,167C 1345.71,172.959 1356.37,177.959 1367.5,182C 1389.73,195.426 1394.57,213.592 1382,236.5C 1375.46,244.023 1367.29,248.857 1357.5,251C 1340.2,254.433 1323.7,252.267 1308,244.5C 1308.17,239.14 1309.67,234.14 1312.5,229.5C 1327.56,238.085 1343.22,239.585 1359.5,234C 1369.52,227.096 1372.35,217.929 1368,206.5C 1363.92,201.036 1358.75,196.869 1352.5,194C 1338.44,190.389 1326.27,183.556 1316,173.5C 1310.8,164.883 1309.13,155.55 1311,145.5C 1316.98,129.429 1328.48,120.429 1345.5,118.5 Z"/></g>
<g><path style="opacity:0.956" fill="#fefffe" d="M 321.5,119.5 C 332.594,119.163 343.594,119.996 354.5,122C 374.128,127.614 382.295,140.448 379,160.5C 375.59,170.244 369.09,177.077 359.5,181C 381.954,189.742 389.454,205.576 382,228.5C 377.711,237.454 370.877,243.621 361.5,247C 355.639,248.965 349.639,250.298 343.5,251C 329.151,251.703 314.817,251.536 300.5,250.5C 300.167,207.828 300.5,165.161 301.5,122.5C 308.264,121.278 314.931,120.278 321.5,119.5 Z M 323.5,133.5 C 322.081,134.451 320.415,134.784 318.5,134.5C 318.5,148.167 318.5,161.833 318.5,175.5C 324.842,175.666 331.175,175.5 337.5,175C 345.631,174.517 352.465,171.351 358,165.5C 363.57,155.674 362.403,146.84 354.5,139C 344.798,134.077 334.465,132.244 323.5,133.5 Z M 318.5,188.5 C 318.5,204.833 318.5,221.167 318.5,237.5C 326.174,237.666 333.841,237.5 341.5,237C 349.795,236.27 356.628,232.77 362,226.5C 368.162,214.514 366.328,204.014 356.5,195C 344.465,189.446 331.798,187.279 318.5,188.5 Z"/></g>
<g><path style="opacity:0.948" fill="#fefffe" d="M 552.5,119.5 C 569.93,118.509 586.93,120.676 603.5,126C 626.964,137.413 638.297,156.246 637.5,182.5C 636.541,223.63 615.541,246.463 574.5,251C 558.821,251.675 543.154,251.508 527.5,250.5C 527.5,207.833 527.5,165.167 527.5,122.5C 535.964,121.445 544.297,120.445 552.5,119.5 Z M 561.5,133.5 C 556.331,134.381 550.998,135.048 545.5,135.5C 545.5,169.167 545.5,202.833 545.5,236.5C 553.811,237.499 562.144,237.665 570.5,237C 597.407,235.088 613.24,220.922 618,194.5C 621.918,153.247 603.085,132.914 561.5,133.5 Z"/></g>
<g><path style="opacity:0.937" fill="#fefffe" d="M 726.5,119.5 C 747.652,117.643 767.652,121.477 786.5,131C 803.493,143.823 811.827,160.99 811.5,182.5C 810.319,224.18 788.986,247.013 747.5,251C 731.821,251.675 716.154,251.508 700.5,250.5C 700.5,207.833 700.5,165.167 700.5,122.5C 709.293,121.402 717.96,120.402 726.5,119.5 Z M 734.5,133.5 C 729.654,134.327 724.654,134.994 719.5,135.5C 719.5,169.167 719.5,202.833 719.5,236.5C 730.177,237.867 740.844,237.7 751.5,236C 773.796,231.371 786.963,217.871 791,195.5C 795.485,153.812 776.652,133.145 734.5,133.5 Z"/></g>
<g><path style="opacity:0.952" fill="#fefffe" d="M 854.5,119.5 C 868.118,118.698 881.451,120.198 894.5,124C 908.106,130.033 915.106,140.533 915.5,155.5C 914.592,171.574 906.592,182.408 891.5,188C 898.781,191.948 903.947,197.782 907,205.5C 911.018,220.575 915.184,235.575 919.5,250.5C 913.132,250.83 906.798,250.496 900.5,249.5C 896.378,237.011 892.878,224.344 890,211.5C 886.724,201.555 879.891,196.055 869.5,195C 863.175,194.5 856.842,194.334 850.5,194.5C 850.5,213.167 850.5,231.833 850.5,250.5C 844.5,250.5 838.5,250.5 832.5,250.5C 832.167,207.828 832.5,165.161 833.5,122.5C 840.594,121.245 847.594,120.245 854.5,119.5 Z M 857.5,133.5 C 855.393,134.468 853.059,134.802 850.5,134.5C 850.5,150.167 850.5,165.833 850.5,181.5C 857.175,181.666 863.842,181.5 870.5,181C 882.872,180.604 891.372,174.77 896,163.5C 898.209,154.371 896.042,146.537 889.5,140C 879.616,134.323 868.949,132.156 857.5,133.5 Z"/></g>
<g><path style="opacity:0.945" fill="#fefffe" d="M 442.5,120.5 C 449.833,120.5 457.167,120.5 464.5,120.5C 478.897,163.69 493.897,206.69 509.5,249.5C 502.866,250.497 496.2,250.83 489.5,250.5C 485.167,237.167 480.833,223.833 476.5,210.5C 460.83,210.333 445.163,210.5 429.5,211C 425.005,223.817 420.505,236.65 416,249.5C 409.924,250.476 403.758,250.81 397.5,250.5C 411.927,206.976 426.927,163.643 442.5,120.5 Z M 451.5,139.5 C 446.515,158.456 440.515,177.123 433.5,195.5C 446.149,196.499 458.816,196.832 471.5,196.5C 465.232,178.287 459.232,159.953 453.5,141.5C 453.253,140.287 452.586,139.62 451.5,139.5 Z"/></g>
<g><path style="opacity:0.952" fill="#fefffe" d="M 938.5,120.5 C 962.833,120.5 987.167,120.5 1011.5,120.5C 1011.5,125.5 1011.5,130.5 1011.5,135.5C 993.167,135.5 974.833,135.5 956.5,135.5C 956.5,148.833 956.5,162.167 956.5,175.5C 973.833,175.5 991.167,175.5 1008.5,175.5C 1008.5,180.5 1008.5,185.5 1008.5,190.5C 991.167,190.5 973.833,190.5 956.5,190.5C 956.5,205.5 956.5,220.5 956.5,235.5C 975.833,235.5 995.167,235.5 1014.5,235.5C 1014.5,240.5 1014.5,245.5 1014.5,250.5C 989.167,250.5 963.833,250.5 938.5,250.5C 938.5,207.167 938.5,163.833 938.5,120.5 Z"/></g>
<g><path style="opacity:0.946" fill="#fefffe" d="M 1070.5,120.5 C 1077.86,120.169 1085.2,120.503 1092.5,121.5C 1107.71,164.46 1122.71,207.46 1137.5,250.5C 1130.91,250.811 1124.41,250.478 1118,249.5C 1113.6,236.795 1109.1,224.129 1104.5,211.5C 1088.83,210.167 1073.17,210.167 1057.5,211.5C 1053.17,224.167 1048.83,236.833 1044.5,249.5C 1038.2,250.496 1031.87,250.83 1025.5,250.5C 1040.49,207.177 1055.49,163.844 1070.5,120.5 Z M 1080.5,137.5 C 1075.27,157.344 1068.94,176.844 1061.5,196C 1074.5,196.667 1087.5,196.667 1100.5,196C 1093.3,176.572 1086.64,157.072 1080.5,137.5 Z"/></g>
<g><path style="opacity:0.946" fill="#fefffe" d="M 1161.5,120.5 C 1169.17,120.5 1176.83,120.5 1184.5,120.5C 1191.69,141.579 1199.19,162.579 1207,183.5C 1211.64,197.407 1215.98,211.407 1220,225.5C 1230.95,190.325 1243.28,155.658 1257,121.5C 1264.75,120.518 1272.58,120.185 1280.5,120.5C 1283.03,163.842 1285.7,207.175 1288.5,250.5C 1282.5,250.5 1276.5,250.5 1270.5,250.5C 1268.37,214.185 1266.54,177.852 1265,141.5C 1252.81,177.734 1239.65,213.568 1225.5,249C 1220.58,249.802 1215.75,249.635 1211,248.5C 1198.53,213.762 1186.87,178.762 1176,143.5C 1173.68,179.144 1171.51,214.811 1169.5,250.5C 1163.5,250.5 1157.5,250.5 1151.5,250.5C 1154.74,207.148 1158.07,163.815 1161.5,120.5 Z"/></g>
</svg>
