<?xml version="1.0" encoding="UTF-8"?>
<!DOCTYPE svg PUBLIC "-//W3C//DTD SVG 1.1//EN" "http://www.w3.org/Graphics/SVG/1.1/DTD/svg11.dtd">
<svg xmlns="http://www.w3.org/2000/svg" version="1.1" width="500px" height="500px" style="shape-rendering:geometricPrecision; text-rendering:geometricPrecision; image-rendering:optimizeQuality; fill-rule:evenodd; clip-rule:evenodd" xmlns:xlink="http://www.w3.org/1999/xlink">
<g><path style="opacity:1" fill="#1f2122" d="M -0.5,-0.5 C 166.167,-0.5 332.833,-0.5 499.5,-0.5C 499.5,166.167 499.5,332.833 499.5,499.5C 332.833,499.5 166.167,499.5 -0.5,499.5C -0.5,332.833 -0.5,166.167 -0.5,-0.5 Z"/></g>
<g><path style="opacity:1" fill="#e0e1e1" d="M 190.5,187.5 C 193.304,186.362 196.304,186.195 199.5,187C 198.376,187.249 197.376,187.749 196.5,188.5C 198.349,194.552 200.683,200.385 203.5,206C 203.122,207.635 202.456,209.135 201.5,210.5C 198.009,203.546 195.176,196.213 193,188.5C 192.329,187.748 191.496,187.414 190.5,187.5 Z"/></g>
<g><path style="opacity:1" fill="#dcdcdc" d="M 224.5,187.5 C 227.304,186.362 230.304,186.195 233.5,187C 232.214,190.233 231.547,193.733 231.5,197.5C 231.667,200.833 231.833,204.167 232,207.5C 234.166,209.121 236.666,209.955 239.5,210C 236.036,210.817 232.702,210.483 229.5,209C 228.874,208.25 228.374,207.416 228,206.5C 227.5,200.175 227.334,193.842 227.5,187.5C 226.5,187.5 225.5,187.5 224.5,187.5 Z"/></g>
<g><path style="opacity:1" fill="#ededed" d="M 297.5,186.5 C 301.167,186.5 304.833,186.5 308.5,186.5C 308.826,192.598 308.159,193.265 306.5,188.5C 304.604,187.534 302.604,187.201 300.5,187.5C 300.5,194.833 300.5,202.167 300.5,209.5C 299.972,210.815 298.638,210.815 296.5,209.5C 297.492,202.018 297.825,194.352 297.5,186.5 Z"/></g>
<g><path style="opacity:1" fill="#888989" d="M 297.5,186.5 C 297.825,194.352 297.492,202.018 296.5,209.5C 296.5,202.167 296.5,194.833 296.5,187.5C 292.169,186.451 290.003,188.118 290,192.5C 289.505,190.527 289.338,188.527 289.5,186.5C 292.167,186.5 294.833,186.5 297.5,186.5 Z"/></g>
<g><path style="opacity:1" fill="#d9d9d9" d="M 264.5,186.5 C 266.857,186.337 269.19,186.503 271.5,187C 274.922,188.406 275.255,190.239 272.5,192.5C 271.816,187.732 269.316,186.399 265,188.5C 264.242,190.769 264.409,192.936 265.5,195C 269.274,196.302 272.441,198.469 275,201.5C 276.157,205.346 274.991,208.179 271.5,210C 268.833,210.667 266.167,210.667 263.5,210C 260.211,208.041 259.877,205.875 262.5,203.5C 263.175,208.353 265.842,210.187 270.5,209C 273.265,206.034 272.932,203.367 269.5,201C 266.751,199.877 264.251,198.377 262,196.5C 261.333,193.833 261.333,191.167 262,188.5C 262.995,187.934 263.828,187.267 264.5,186.5 Z"/></g>
<g><path style="opacity:1" fill="#828384" d="M 240.5,187.5 C 242.288,186.378 244.288,186.211 246.5,187C 245.584,187.374 244.75,187.874 244,188.5C 243.961,195.336 243.294,202.003 242,208.5C 242.092,204.743 242.258,200.909 242.5,197C 242.485,193.424 241.818,190.258 240.5,187.5 Z"/></g>
<g><path style="opacity:1" fill="#8e8f8f" d="M 204.5,187.5 C 206.966,186.366 209.633,186.199 212.5,187C 211.234,187.309 210.067,187.809 209,188.5C 207.869,192.894 206.535,197.227 205,201.5C 205.496,196.823 206.329,192.157 207.5,187.5C 206.5,187.5 205.5,187.5 204.5,187.5 Z"/></g>
<g><path style="opacity:1" fill="#f5f5f5" d="M 59.5,230.5 C 59.175,238.019 59.5084,245.352 60.5,252.5C 60.9175,253.222 61.5842,253.722 62.5,254C 57.7058,255.007 55.7058,254.84 56.5,253.5C 56.5,246.167 56.5,238.833 56.5,231.5C 55.448,231.649 54.448,231.483 53.5,231C 55.4727,230.505 57.4727,230.338 59.5,230.5 Z"/></g>
<g><path style="opacity:1" fill="#ededed" d="M 92.5,230.5 C 92.5,238.5 92.5,246.5 92.5,254.5C 90.4727,254.662 88.4727,254.495 86.5,254C 87.448,253.517 88.448,253.351 89.5,253.5C 89.5,246.167 89.5,238.833 89.5,231.5C 88.448,231.649 87.448,231.483 86.5,231C 88.4727,230.505 90.4727,230.338 92.5,230.5 Z"/></g>
<g><path style="opacity:1" fill="#f7f7f8" d="M 154.5,230.5 C 154.5,238.5 154.5,246.5 154.5,254.5C 152.473,254.662 150.473,254.495 148.5,254C 149.448,253.517 150.448,253.351 151.5,253.5C 151.5,246.167 151.5,238.833 151.5,231.5C 150.448,231.649 149.448,231.483 148.5,231C 150.473,230.505 152.473,230.338 154.5,230.5 Z"/></g>
<g><path style="opacity:1" fill="#ededed" d="M 186.5,230.5 C 186.175,238.019 186.508,245.352 187.5,252.5C 187.611,253.117 187.944,253.617 188.5,254C 183.623,254.894 181.956,254.728 183.5,253.5C 183.5,246.167 183.5,238.833 183.5,231.5C 182.448,231.649 181.448,231.483 180.5,231C 182.473,230.505 184.473,230.338 186.5,230.5 Z"/></g>
<g><path style="opacity:1" fill="#e6e6e6" d="M 224.5,249.5 C 224.5,250.833 224.5,252.167 224.5,253.5C 223.434,254.692 222.601,254.359 222,252.5C 219.524,245.573 217.357,238.573 215.5,231.5C 214.706,230.16 216.706,229.993 221.5,231C 220.484,231.519 219.818,232.353 219.5,233.5C 221.173,238.851 222.84,244.184 224.5,249.5 Z"/></g>
<g><path style="opacity:1" fill="#9a9b9b" d="M 226.5,231.5 C 230.967,230.138 232.633,230.138 231.5,231.5C 231.313,233.564 230.813,235.564 230,237.5C 229.349,235.765 229.515,234.098 230.5,232.5C 229.311,231.571 227.978,231.238 226.5,231.5 Z"/></g>
<g><path style="opacity:1" fill="#e8e8e8" d="M 260.5,246.5 C 260.5,246.167 260.5,245.833 260.5,245.5C 259.899,242.032 258.899,238.699 257.5,235.5C 257.443,234.391 257.11,233.391 256.5,232.5C 256.948,230.535 257.948,230.202 259.5,231.5C 262.211,239.136 265.211,246.636 268.5,254C 263.623,254.894 261.956,254.728 263.5,253.5C 263.293,250.759 262.293,248.426 260.5,246.5 Z"/></g>
<g><path style="opacity:1" fill="#eeeeee" d="M 282.5,230.5 C 285.833,230.5 289.167,230.5 292.5,230.5C 292.175,238.019 292.508,245.352 293.5,252.5C 293.611,253.117 293.944,253.617 294.5,254C 289.623,254.894 287.956,254.728 289.5,253.5C 289.5,246.167 289.5,238.833 289.5,231.5C 287.265,231.205 285.265,231.539 283.5,232.5C 282.662,232.158 282.328,231.492 282.5,230.5 Z"/></g>
<g><path style="opacity:1" fill="#dfdfdf" d="M 314.5,231.5 C 317.304,230.362 320.304,230.195 323.5,231C 322.208,234.571 321.542,238.405 321.5,242.5C 321.542,246.595 322.208,250.429 323.5,254C 318.706,255.007 316.706,254.84 317.5,253.5C 317.5,246.167 317.5,238.833 317.5,231.5C 316.5,231.5 315.5,231.5 314.5,231.5 Z"/></g>
<g><path style="opacity:1" fill="#939495" d="M 344.5,231.5 C 347.5,230.167 350.5,230.167 353.5,231.5C 353.167,231.5 352.833,231.5 352.5,231.5C 350.05,231.298 347.717,231.631 345.5,232.5C 345.5,231.833 345.167,231.5 344.5,231.5 Z"/></g>
<g><path style="opacity:1" fill="#e8e9e9" d="M 391.5,247.5 C 391.833,248.5 392.5,249.167 393.5,249.5C 393.785,251.288 393.452,252.955 392.5,254.5C 388.141,247.816 383.807,241.149 379.5,234.5C 379.167,233.5 378.5,232.833 377.5,232.5C 376.737,231.732 375.737,231.232 374.5,231C 376.902,230.186 379.235,230.353 381.5,231.5C 385.256,236.585 388.589,241.918 391.5,247.5 Z"/></g>
<g><path style="opacity:1" fill="#838485" d="M 59.5,230.5 C 62.0593,230.198 64.3926,230.532 66.5,231.5C 66.1667,231.5 65.8333,231.5 65.5,231.5C 63.8333,231.5 62.1667,231.5 60.5,231.5C 59.9197,235.649 60.5864,239.316 62.5,242.5C 62.5,243.167 62.5,243.833 62.5,244.5C 61.8826,244.389 61.3826,244.056 61,243.5C 60.502,246.482 60.3354,249.482 60.5,252.5C 59.5084,245.352 59.175,238.019 59.5,230.5 Z"/></g>
<g><path style="opacity:1" fill="#202223" d="M 65.5,231.5 C 66.5691,234.408 66.7358,237.408 66,240.5C 65.1841,241.823 64.0174,242.489 62.5,242.5C 60.5864,239.316 59.9197,235.649 60.5,231.5C 62.1667,231.5 63.8333,231.5 65.5,231.5 Z"/></g>
<g><path style="opacity:1" fill="#adaeae" d="M 186.5,230.5 C 189.385,230.194 192.052,230.527 194.5,231.5C 193.833,231.5 193.5,231.833 193.5,232.5C 191.621,231.659 189.621,231.325 187.5,231.5C 186.92,235.649 187.586,239.316 189.5,242.5C 189.5,242.833 189.5,243.167 189.5,243.5C 187.612,245.988 186.945,248.988 187.5,252.5C 186.508,245.352 186.175,238.019 186.5,230.5 Z"/></g>
<g><path style="opacity:1" fill="#212324" d="M 193.5,232.5 C 193.665,235.518 193.498,238.518 193,241.5C 191.989,242.337 190.822,242.67 189.5,242.5C 187.586,239.316 186.92,235.649 187.5,231.5C 189.621,231.325 191.621,231.659 193.5,232.5 Z"/></g>
<g><path style="opacity:1" fill="#abacac" d="M 292.5,230.5 C 295.167,230.5 297.833,230.5 300.5,230.5C 300.649,231.552 300.483,232.552 300,233.5C 298.246,231.75 296.079,231.083 293.5,231.5C 293.5,238.5 293.5,245.5 293.5,252.5C 292.508,245.352 292.175,238.019 292.5,230.5 Z"/></g>
<g><path style="opacity:1" fill="#dfdfdf" d="M 414.5,230.5 C 419.158,229.514 422.824,230.848 425.5,234.5C 425.167,235.5 424.5,236.167 423.5,236.5C 423.105,231.987 420.771,230.487 416.5,232C 413.735,234.966 414.068,237.633 417.5,240C 425.972,242.424 427.639,247.091 422.5,254C 418.756,254.929 415.256,254.429 412,252.5C 411.116,250.359 411.616,248.693 413.5,247.5C 413.599,253.022 416.265,254.856 421.5,253C 422.591,250.936 422.758,248.769 422,246.5C 419.749,244.623 417.249,243.123 414.5,242C 410.581,238.173 410.581,234.339 414.5,230.5 Z"/></g>
<g><path style="opacity:1" fill="#dfdfdf" d="M 122.5,230.5 C 126.007,229.994 129.174,230.66 132,232.5C 132.783,234.319 132.283,235.652 130.5,236.5C 129.816,231.732 127.316,230.399 123,232.5C 122.242,234.769 122.409,236.936 123.5,239C 127.312,240.315 130.479,242.482 133,245.5C 133.591,253.885 129.758,256.718 121.5,254C 118.211,252.041 117.877,249.875 120.5,247.5C 121.406,249.386 122.406,251.22 123.5,253C 130.221,253.786 131.888,251.286 128.5,245.5C 125.014,244.348 122.181,242.348 120,239.5C 118.927,235.9 119.76,232.9 122.5,230.5 Z"/></g>
<g><path style="opacity:1" fill="#757676" d="M 282.5,230.5 C 282.328,231.492 282.662,232.158 283.5,232.5C 283.291,233.922 282.791,235.255 282,236.5C 281.211,234.288 281.378,232.288 282.5,230.5 Z"/></g>
<g><path style="opacity:1" fill="#e4e4e5" d="M 344.5,231.5 C 345.167,231.5 345.5,231.833 345.5,232.5C 344.442,233.6 343.608,234.934 343,236.5C 342.333,240.5 342.333,244.5 343,248.5C 345.518,253.752 349.185,254.752 354,251.5C 356.469,244.471 355.969,237.805 352.5,231.5C 352.833,231.5 353.167,231.5 353.5,231.5C 356.452,232.359 358.285,234.359 359,237.5C 360.29,243.272 359.123,248.439 355.5,253C 346.999,256.921 341.499,254.421 339,245.5C 337.615,239.476 339.448,234.81 344.5,231.5 Z"/></g>
<g><path style="opacity:1" fill="#242627" d="M 352.5,231.5 C 355.969,237.805 356.469,244.471 354,251.5C 349.185,254.752 345.518,253.752 343,248.5C 342.333,244.5 342.333,240.5 343,236.5C 343.608,234.934 344.442,233.6 345.5,232.5C 347.717,231.631 350.05,231.298 352.5,231.5 Z"/></g>
<g><path style="opacity:1" fill="#8e8f90" d="M 377.5,232.5 C 378.5,232.833 379.167,233.5 379.5,234.5C 378.51,240.645 378.177,246.978 378.5,253.5C 378.167,254.833 377.833,254.833 377.5,253.5C 377.5,246.5 377.5,239.5 377.5,232.5 Z"/></g>
<g><path style="opacity:1" fill="#959596" d="M 393.5,249.5 C 392.5,249.167 391.833,248.5 391.5,247.5C 392.488,242.36 392.821,237.026 392.5,231.5C 394.084,230.227 394.418,230.227 393.5,231.5C 393.5,237.5 393.5,243.5 393.5,249.5 Z"/></g>
<g><path style="opacity:1" fill="#282a2b" d="M 257.5,235.5 C 258.899,238.699 259.899,242.032 260.5,245.5C 258.167,245.5 255.833,245.5 253.5,245.5C 253.882,241.668 255.215,238.335 257.5,235.5 Z"/></g>
<g><path style="opacity:1" fill="#a4a5a5" d="M 92.5,230.5 C 96.1667,230.5 99.8333,230.5 103.5,230.5C 103.662,232.527 103.495,234.527 103,236.5C 102.727,234.899 102.227,233.399 101.5,232C 98.854,231.503 96.1873,231.336 93.5,231.5C 93.5,234.833 93.5,238.167 93.5,241.5C 104.167,241.833 104.167,242.167 93.5,242.5C 93.5,246.167 93.5,249.833 93.5,253.5C 96.5184,253.665 99.5184,253.498 102.5,253C 103.227,251.601 103.727,250.101 104,248.5C 104.495,250.473 104.662,252.473 104.5,254.5C 100.5,254.5 96.5,254.5 92.5,254.5C 92.5,246.5 92.5,238.5 92.5,230.5 Z"/></g>
<g><path style="opacity:1" fill="#868788" d="M 154.5,230.5 C 158.167,230.5 161.833,230.5 165.5,230.5C 165.629,237.675 164.962,238.009 163.5,231.5C 160.833,231.5 158.167,231.5 155.5,231.5C 155.5,234.833 155.5,238.167 155.5,241.5C 166.167,241.833 166.167,242.167 155.5,242.5C 155.5,246.167 155.5,249.833 155.5,253.5C 158.572,253.817 161.572,253.484 164.5,252.5C 166.159,247.735 166.826,248.402 166.5,254.5C 162.5,254.5 158.5,254.5 154.5,254.5C 154.5,246.5 154.5,238.5 154.5,230.5 Z"/></g>
<g><path style="opacity:1" fill="#e1e1e2" d="M 194.5,231.5 C 196.876,232.512 197.876,234.345 197.5,237C 197.63,240.042 196.297,242.209 193.5,243.5C 195.245,247.408 197.578,250.908 200.5,254C 198.833,254.667 197.167,254.667 195.5,254C 193.097,250.689 191.097,247.189 189.5,243.5C 189.5,243.167 189.5,242.833 189.5,242.5C 190.822,242.67 191.989,242.337 193,241.5C 193.498,238.518 193.665,235.518 193.5,232.5C 193.5,231.833 193.833,231.5 194.5,231.5 Z"/></g>
<g><path style="opacity:1" fill="#e6e6e6" d="M 65.5,231.5 C 65.8333,231.5 66.1667,231.5 66.5,231.5C 69.2856,231.956 70.619,233.623 70.5,236.5C 69.8437,239.333 68.5104,241.833 66.5,244C 68.1017,247.879 70.435,251.212 73.5,254C 71.8333,254.667 70.1667,254.667 68.5,254C 66.3642,250.89 64.3642,247.723 62.5,244.5C 62.5,243.833 62.5,243.167 62.5,242.5C 64.0174,242.489 65.1841,241.823 66,240.5C 66.7358,237.408 66.5691,234.408 65.5,231.5 Z"/></g>
<g><path style="opacity:1" fill="#8d8e8e" d="M 256.5,232.5 C 257.11,233.391 257.443,234.391 257.5,235.5C 255.215,238.335 253.882,241.668 253.5,245.5C 255.833,245.5 258.167,245.5 260.5,245.5C 260.5,245.833 260.5,246.167 260.5,246.5C 255.039,245.326 251.706,247.326 250.5,252.5C 251.729,253.281 253.062,253.781 254.5,254C 249.623,254.894 247.956,254.728 249.5,253.5C 251.261,246.216 253.595,239.216 256.5,232.5 Z"/></g>
<g><path style="opacity:1" fill="#787979" d="M 224.5,253.5 C 224.5,252.167 224.5,250.833 224.5,249.5C 225.6,247.723 226.434,245.723 227,243.5C 227.275,247.162 226.442,250.496 224.5,253.5 Z"/></g>
</svg>
