<?xml version="1.0" encoding="UTF-8"?>
<!DOCTYPE svg PUBLIC "-//W3C//DTD SVG 1.1//EN" "http://www.w3.org/Graphics/SVG/1.1/DTD/svg11.dtd">
<svg xmlns="http://www.w3.org/2000/svg" version="1.1" width="256px" height="256px" style="shape-rendering:geometricPrecision; text-rendering:geometricPrecision; image-rendering:optimizeQuality; fill-rule:evenodd; clip-rule:evenodd" xmlns:xlink="http://www.w3.org/1999/xlink">
<g><path style="opacity:0.004" fill="#000000" d="M 155.5,13.5 C 161.987,12.346 168.654,12.1794 175.5,13C 177.324,13.66 178.657,14.8267 179.5,16.5C 177.158,16.4959 175.158,15.6625 173.5,14C 167.509,13.5005 161.509,13.3338 155.5,13.5 Z"/></g>
<g><path style="opacity:0.004" fill="#000000" d="M 155.5,13.5 C 155.5,14.1667 155.5,14.8333 155.5,15.5C 153.5,15.8333 151.5,16.1667 149.5,16.5C 150.923,14.4551 152.923,13.4551 155.5,13.5 Z"/></g>
<g><path style="opacity:0.004" fill="#000000" d="M 149.5,16.5 C 148.557,19.4001 146.89,21.7334 144.5,23.5C 145.028,20.3119 146.695,17.9786 149.5,16.5 Z"/></g>
<g><path style="opacity:0.005" fill="#000000" d="M 180.5,17.5 C 183.17,19.7585 184.503,22.7585 184.5,26.5C 182.754,31.9096 181.088,37.4096 179.5,43C 179.164,44.0299 178.497,44.5299 177.5,44.5C 179.394,38.3171 181.394,32.1504 183.5,26C 181.657,23.4581 180.657,20.6247 180.5,17.5 Z"/></g>
<g><path style="opacity:1" fill="#f5ad41" d="M 155.5,20.5 C 162.167,20.5 168.833,20.5 175.5,20.5C 170.745,30.5043 166.745,40.8376 163.5,51.5C 161.871,52.6253 160.371,53.9586 159,55.5C 158.163,59.514 157.329,63.514 156.5,67.5C 150.07,85.3411 143.404,103.008 136.5,120.5C 127.374,118.715 123.374,122.381 124.5,131.5C 123.135,133.794 121.135,135.461 118.5,136.5C 119.167,135.167 119.833,133.833 120.5,132.5C 120.665,129.482 120.498,126.482 120,123.5C 119.292,122.619 118.458,121.953 117.5,121.5C 117.5,121.167 117.5,120.833 117.5,120.5C 117.5,119.5 117.5,118.5 117.5,117.5C 119.25,116.341 120.25,114.674 120.5,112.5C 122.111,107.194 123.778,101.861 125.5,96.5C 127.408,95.5144 128.408,93.8477 128.5,91.5C 129.016,88.1012 129.85,84.7679 131,81.5C 135.983,69.2415 140.817,56.9081 145.5,44.5C 147.408,43.5144 148.408,41.8477 148.5,39.5C 149.563,32.5292 151.896,26.1959 155.5,20.5 Z"/></g>
<g><path style="opacity:0.004" fill="#000000" d="M 144.5,23.5 C 143.266,28.0437 141.6,32.377 139.5,36.5C 139.816,31.536 141.483,27.2027 144.5,23.5 Z"/></g>
<g><path style="opacity:0.211" fill="#6b6866" d="M 155.5,13.5 C 161.509,13.3338 167.509,13.5005 173.5,14C 175.158,15.6625 177.158,16.4959 179.5,16.5C 180.167,16.5 180.5,16.8333 180.5,17.5C 180.657,20.6247 181.657,23.4581 183.5,26C 181.394,32.1504 179.394,38.3171 177.5,44.5C 176.076,46.5145 175.41,48.8478 175.5,51.5C 173.031,52.6067 172.031,54.6067 172.5,57.5C 172.768,59.099 172.434,60.4324 171.5,61.5C 169.166,63.1757 168.166,65.509 168.5,68.5C 166.706,70.4282 165.706,72.7616 165.5,75.5C 162.346,80.6221 160.346,86.2888 159.5,92.5C 158.503,92.4701 157.836,92.9701 157.5,94C 156.434,97.0937 155.768,100.26 155.5,103.5C 154.307,103.97 153.64,104.97 153.5,106.5C 153.986,108.304 154.653,109.971 155.5,111.5C 153.584,109.884 152.084,110.218 151,112.5C 148.707,109.866 146.54,109.866 144.5,112.5C 144.5,121.167 144.5,129.833 144.5,138.5C 145.609,139.29 146.942,139.79 148.5,140C 147.212,142.466 147.212,144.966 148.5,147.5C 151.321,148.971 153.821,148.637 156,146.5C 157.508,148.838 159.675,149.838 162.5,149.5C 162.427,151.027 163.094,152.027 164.5,152.5C 165.5,152.5 166.5,152.5 167.5,152.5C 167.351,153.552 167.517,154.552 168,155.5C 169.287,150.736 171.287,150.403 174,154.5C 176.084,151.967 178.084,151.967 180,154.5C 180.483,153.552 180.649,152.552 180.5,151.5C 185.153,152.83 189.82,152.83 194.5,151.5C 196.725,152.061 198.725,153.061 200.5,154.5C 201.524,153.147 202.857,152.48 204.5,152.5C 207.254,152.216 209.92,151.549 212.5,150.5C 211.398,149.824 210.398,149.158 209.5,148.5C 211.262,148.643 212.929,148.309 214.5,147.5C 216.737,149.817 219.07,149.983 221.5,148C 219.616,147.784 217.949,147.117 216.5,146C 218.112,145.28 219.612,145.446 221,146.5C 221.333,145.833 221.667,145.167 222,144.5C 222.608,146.066 223.442,147.4 224.5,148.5C 222.922,150.318 223.422,151.318 226,151.5C 229.682,149.736 233.515,149.236 237.5,150C 239.468,151.544 241.635,152.711 244,153.5C 245.079,156.248 246.246,158.915 247.5,161.5C 245.5,164 244.167,166.834 243.5,170C 244.546,172.971 245.879,175.805 247.5,178.5C 246.246,180.334 245.579,182.334 245.5,184.5C 243.487,187.002 240.821,188.502 237.5,189C 231.513,189.036 225.513,188.869 219.5,188.5C 219.389,187.883 219.056,187.383 218.5,187C 215.953,186.933 213.786,186.099 212,184.5C 210.062,185.86 208.396,185.527 207,183.5C 208.094,181.406 208.428,179.073 208,176.5C 206.395,178.825 204.728,181.158 203,183.5C 202.667,183.167 202.333,182.833 202,182.5C 199.064,184.094 196.231,185.761 193.5,187.5C 193.5,185.833 193.5,184.167 193.5,182.5C 191.8,182.374 190.3,181.707 189,180.5C 187.297,181.7 185.797,181.367 184.5,179.5C 183.943,181.718 183.943,184.051 184.5,186.5C 179.959,186.669 179.626,186.002 183.5,184.5C 182.5,183.667 181.5,182.833 180.5,182C 181.451,181.282 181.617,180.449 181,179.5C 180.333,180.833 179.667,180.833 179,179.5C 179.617,181.095 179.284,182.428 178,183.5C 177.804,181.714 176.971,180.381 175.5,179.5C 174.358,180.826 173.024,181.826 171.5,182.5C 171.611,181.883 171.944,181.383 172.5,181C 170.339,180.415 168.339,179.582 166.5,178.5C 166.5,177.833 166.5,177.167 166.5,176.5C 167.301,174.958 167.634,173.292 167.5,171.5C 169.5,171.5 171.5,171.5 173.5,171.5C 174.801,172.882 175.634,174.548 176,176.5C 177.011,177.337 178.178,177.67 179.5,177.5C 177.648,170.42 175.648,163.42 173.5,156.5C 172.833,156.5 172.167,156.5 171.5,156.5C 170.178,156.33 169.011,156.663 168,157.5C 165.854,162.764 164.02,168.098 162.5,173.5C 161.566,174.568 161.232,175.901 161.5,177.5C 161.167,177.5 160.833,177.5 160.5,177.5C 161.029,173.808 160.029,170.642 157.5,168C 160.194,165.347 161.027,162.18 160,158.5C 158.103,156.984 155.936,156.317 153.5,156.5C 152.5,156.5 151.5,156.5 150.5,156.5C 150.167,156.5 149.833,156.5 149.5,156.5C 149.254,153.53 147.588,152.197 144.5,152.5C 144.649,151.448 144.483,150.448 144,149.5C 143.385,151.116 142.385,152.449 141,153.5C 140.833,152.667 140.667,151.833 140.5,151C 142.371,148.1 143.704,145.267 144.5,142.5C 144.062,141.494 143.396,141.494 142.5,142.5C 141.833,135.011 141.167,127.678 140.5,120.5C 139.167,120.5 137.833,120.5 136.5,120.5C 143.404,103.008 150.07,85.3411 156.5,67.5C 159.128,62.3649 161.461,57.0316 163.5,51.5C 166.745,40.8376 170.745,30.5043 175.5,20.5C 168.833,20.5 162.167,20.5 155.5,20.5C 155.783,19.7109 156.283,19.0442 157,18.5C 159.967,18.9859 163.134,19.1526 166.5,19C 168.125,18.1475 168.458,17.1475 167.5,16C 169.167,15.6667 170.833,15.3333 172.5,15C 170,14.8333 167.5,14.6667 165,14.5C 162.05,14.5676 159.383,15.2343 157,16.5C 156.617,15.944 156.117,15.6107 155.5,15.5C 155.5,14.8333 155.5,14.1667 155.5,13.5 Z"/></g>
<g><path style="opacity:0.004" fill="#000000" d="M 139.5,36.5 C 138.122,42.6511 135.789,48.3178 132.5,53.5C 134.438,48.5165 136.105,43.3499 137.5,38C 137.836,36.9701 138.503,36.4701 139.5,36.5 Z"/></g>
<g><path style="opacity:0.596" fill="#b98f51" d="M 148.5,39.5 C 148.408,41.8477 147.408,43.5144 145.5,44.5C 145.75,42.326 146.75,40.6594 148.5,39.5 Z"/></g>
<g><path style="opacity:0.004" fill="#000000" d="M 177.5,44.5 C 177.59,47.1522 176.924,49.4855 175.5,51.5C 175.41,48.8478 176.076,46.5145 177.5,44.5 Z"/></g>
<g><path style="opacity:0.005" fill="#000000" d="M 175.5,51.5 C 175.545,54.0772 174.545,56.0772 172.5,57.5C 172.031,54.6067 173.031,52.6067 175.5,51.5 Z"/></g>
<g><path style="opacity:0.004" fill="#000000" d="M 132.5,53.5 C 132.524,57.7867 131.19,61.4533 128.5,64.5C 128.472,60.2452 129.805,56.5785 132.5,53.5 Z"/></g>
<g><path style="opacity:0.991" fill="#d19b4b" d="M 163.5,51.5 C 161.461,57.0316 159.128,62.3649 156.5,67.5C 157.329,63.514 158.163,59.514 159,55.5C 160.371,53.9586 161.871,52.6253 163.5,51.5 Z"/></g>
<g><path style="opacity:0.004" fill="#000000" d="M 171.5,61.5 C 171.818,64.4815 170.818,66.8148 168.5,68.5C 168.166,65.509 169.166,63.1757 171.5,61.5 Z"/></g>
<g><path style="opacity:0.004" fill="#000000" d="M 128.5,64.5 C 128.821,67.5769 127.821,69.9103 125.5,71.5C 125.706,68.7616 126.706,66.4282 128.5,64.5 Z"/></g>
<g><path style="opacity:0.004" fill="#000000" d="M 168.5,68.5 C 168.821,71.5769 167.821,73.9103 165.5,75.5C 165.706,72.7616 166.706,70.4282 168.5,68.5 Z"/></g>
<g><path style="opacity:0.004" fill="#000000" d="M 125.5,71.5 C 124.853,77.7631 122.853,83.4298 119.5,88.5C 120.346,82.2888 122.346,76.6221 125.5,71.5 Z"/></g>
<g><path style="opacity:0.004" fill="#000000" d="M 165.5,75.5 C 164.853,81.7631 162.853,87.4298 159.5,92.5C 160.346,86.2888 162.346,80.6221 165.5,75.5 Z"/></g>
<g><path style="opacity:0.119" fill="#696867" d="M 155.5,20.5 C 151.896,26.1959 149.563,32.5292 148.5,39.5C 146.75,40.6594 145.75,42.326 145.5,44.5C 140.817,56.9081 135.983,69.2415 131,81.5C 129.85,84.7679 129.016,88.1012 128.5,91.5C 126.75,92.6594 125.75,94.326 125.5,96.5C 123.778,101.861 122.111,107.194 120.5,112.5C 118.592,113.486 117.592,115.152 117.5,117.5C 117.5,118.5 117.5,119.5 117.5,120.5C 115.521,118.832 113.188,118.166 110.5,118.5C 107.665,118.251 104.832,118.251 102,118.5C 101.667,119.167 101.333,119.833 101,120.5C 100.333,119.167 99.6667,119.167 99,120.5C 98.6667,121.833 98.3333,123.167 98,124.5C 95.9851,122.522 96.1517,120.688 98.5,119C 97.944,118.617 97.6107,118.117 97.5,117.5C 102.362,117.212 106.696,115.546 110.5,112.5C 111.944,110.392 112.61,108.059 112.5,105.5C 115.789,100.318 118.122,94.6511 119.5,88.5C 122.853,83.4298 124.853,77.7631 125.5,71.5C 127.821,69.9103 128.821,67.5769 128.5,64.5C 131.19,61.4533 132.524,57.7867 132.5,53.5C 135.789,48.3178 138.122,42.6511 139.5,36.5C 141.6,32.377 143.266,28.0437 144.5,23.5C 146.89,21.7334 148.557,19.4001 149.5,16.5C 151.5,16.1667 153.5,15.8333 155.5,15.5C 156.117,15.6107 156.617,15.944 157,16.5C 159.383,15.2343 162.05,14.5676 165,14.5C 167.5,14.6667 170,14.8333 172.5,15C 170.833,15.3333 169.167,15.6667 167.5,16C 168.458,17.1475 168.125,18.1475 166.5,19C 163.134,19.1526 159.967,18.9859 157,18.5C 156.283,19.0442 155.783,19.7109 155.5,20.5 Z"/></g>
<g><path style="opacity:0.004" fill="#000000" d="M 119.5,88.5 C 118.122,94.6511 115.789,100.318 112.5,105.5C 114.438,100.517 116.105,95.3499 117.5,90C 117.836,88.9701 118.503,88.4701 119.5,88.5 Z"/></g>
<g><path style="opacity:0.004" fill="#000000" d="M 159.5,92.5 C 158.412,96.3257 157.079,99.9924 155.5,103.5C 155.768,100.26 156.434,97.0937 157.5,94C 157.836,92.9701 158.503,92.4701 159.5,92.5 Z"/></g>
<g><path style="opacity:0.6" fill="#b98e50" d="M 128.5,91.5 C 128.408,93.8477 127.408,95.5144 125.5,96.5C 125.75,94.326 126.75,92.6594 128.5,91.5 Z"/></g>
<g><path style="opacity:0.004" fill="#000000" d="M 155.5,103.5 C 155.49,110.314 158.823,112.814 165.5,111C 167.852,109.272 170.519,108.439 173.5,108.5C 177.433,108.846 181.1,110.012 184.5,112C 198.006,112.169 211.34,112.669 224.5,113.5C 219.516,113.136 214.683,113.803 210,115.5C 201.279,113.815 192.445,112.981 183.5,113C 180.106,112.425 176.939,111.258 174,109.5C 170.045,111.318 165.878,112.651 161.5,113.5C 159.403,113.023 157.403,112.357 155.5,111.5C 154.653,109.971 153.986,108.304 153.5,106.5C 153.64,104.97 154.307,103.97 155.5,103.5 Z"/></g>
<g><path style="opacity:0.004" fill="#000000" d="M 69.5,109.5 C 63.0729,106.08 57.4063,106.914 52.5,112C 47.3288,114.412 42.8288,113.579 39,109.5C 33.6184,107.501 28.9517,108.501 25,112.5C 22.6666,123.583 20.8333,134.75 19.5,146C 19.796,147.888 20.296,149.722 21,151.5C 23.493,154.331 26.6597,155.998 30.5,156.5C 34.1746,155.65 37.5079,154.317 40.5,152.5C 40.0557,154.113 39.0557,155.28 37.5,156C 28.914,159.635 22.414,157.468 18,149.5C 19.7867,138.036 21.1201,126.369 22,114.5C 23.2515,112.999 24.2515,111.332 25,109.5C 28.1206,108.468 31.1206,107.134 34,105.5C 38.4679,107.652 42.9679,109.652 47.5,111.5C 51.7301,108.8 56.2301,106.467 61,104.5C 64.7548,104.788 67.5881,106.455 69.5,109.5 Z"/></g>
<g><path style="opacity:0.004" fill="#000000" d="M 112.5,105.5 C 112.61,108.059 111.944,110.392 110.5,112.5C 106.696,115.546 102.362,117.212 97.5,117.5C 96.0262,116.325 94.3596,115.325 92.5,114.5C 85.8581,113.669 79.1915,113.169 72.5,113C 71.944,112.617 71.6107,112.117 71.5,111.5C 76.5012,112.778 81.5012,112.778 86.5,111.5C 91.4919,111.886 95.9919,113.552 100,116.5C 102.597,114.573 105.43,113.073 108.5,112C 109.719,109.677 111.052,107.51 112.5,105.5 Z"/></g>
<g><path style="opacity:0.902" fill="#0b0b0b" d="M 144.5,112.5 C 145.833,112.5 147.167,112.5 148.5,112.5C 148.5,121.167 148.5,129.833 148.5,138.5C 147.167,138.5 145.833,138.5 144.5,138.5C 144.5,129.833 144.5,121.167 144.5,112.5 Z"/></g>
<g><path style="opacity:0.004" fill="#000000" d="M 224.5,113.5 C 226.179,113.285 227.179,113.952 227.5,115.5C 225.821,115.715 224.821,115.048 224.5,113.5 Z"/></g>
<g><path style="opacity:0.498" fill="#b48c52" d="M 120.5,112.5 C 120.25,114.674 119.25,116.341 117.5,117.5C 117.592,115.152 118.592,113.486 120.5,112.5 Z"/></g>
<g><path style="opacity:0.004" fill="#000000" d="M 227.5,115.5 C 230.797,115.632 232.463,117.298 232.5,120.5C 230.5,119.167 228.833,117.5 227.5,115.5 Z"/></g>
<g><path style="opacity:0.919" fill="#131211" d="M 110.5,118.5 C 113.188,118.166 115.521,118.832 117.5,120.5C 117.5,120.833 117.5,121.167 117.5,121.5C 114.982,123.105 112.149,124.438 109,125.5C 108.333,127.833 108.333,130.167 109,132.5C 109.671,133.252 110.504,133.586 111.5,133.5C 111.5,134.833 111.5,136.167 111.5,137.5C 110.833,137.5 110.167,137.5 109.5,137.5C 105.799,135.803 104.132,132.803 104.5,128.5C 104.333,123.757 106.333,120.423 110.5,118.5 Z"/></g>
<g><path style="opacity:0.004" fill="#000000" d="M 232.5,120.5 C 233.15,120.804 233.817,121.137 234.5,121.5C 235.434,124.267 236.1,127.1 236.5,130C 235.53,136.394 233.863,142.56 231.5,148.5C 247.211,148.566 251.878,155.733 245.5,170C 248.337,174.023 249.004,178.357 247.5,183C 247.164,184.03 246.497,184.53 245.5,184.5C 245.579,182.334 246.246,180.334 247.5,178.5C 245.879,175.805 244.546,172.971 243.5,170C 244.167,166.834 245.5,164 247.5,161.5C 246.246,158.915 245.079,156.248 244,153.5C 241.635,152.711 239.468,151.544 237.5,150C 233.515,149.236 229.682,149.736 226,151.5C 223.422,151.318 222.922,150.318 224.5,148.5C 225.552,148.649 226.552,148.483 227.5,148C 231.989,142.96 233.989,136.96 233.5,130C 233.344,126.8 233.011,123.633 232.5,120.5 Z"/></g>
<g><path style="opacity:0.948" fill="#0e0e0e" d="M 136.5,120.5 C 137.833,120.5 139.167,120.5 140.5,120.5C 140.666,127.175 140.5,133.842 140,140.5C 136.702,144.165 132.535,145.498 127.5,144.5C 127.5,143.5 127.5,142.5 127.5,141.5C 127.833,141.5 128.167,141.5 128.5,141.5C 131.206,141.425 133.873,141.092 136.5,140.5C 136.657,139.127 136.49,137.793 136,136.5C 133.837,137.768 131.67,137.768 129.5,136.5C 130.551,135.778 131.218,134.778 131.5,133.5C 133.144,133.714 134.644,133.38 136,132.5C 136.801,129.633 136.634,126.966 135.5,124.5C 135.433,123.041 135.766,121.708 136.5,120.5 Z"/></g>
<g><path style="opacity:0.323" fill="#63605c" d="M 117.5,121.5 C 118.458,121.953 119.292,122.619 120,123.5C 120.498,126.482 120.665,129.482 120.5,132.5C 119.833,132.5 119.5,132.167 119.5,131.5C 119.662,129.473 119.495,127.473 119,125.5C 117.333,124.167 115.667,124.167 114,125.5C 113.338,127.813 112.838,130.146 112.5,132.5C 111.833,132.5 111.5,132.833 111.5,133.5C 110.504,133.586 109.671,133.252 109,132.5C 108.333,130.167 108.333,127.833 109,125.5C 112.149,124.438 114.982,123.105 117.5,121.5 Z"/></g>
<g><path style="opacity:0.999" fill="#eea943" d="M 132.5,130.5 C 131.89,131.391 131.557,132.391 131.5,133.5C 130.178,133.67 129.011,133.337 128,132.5C 127.333,129.833 127.333,127.167 128,124.5C 129.444,122.845 131.278,122.178 133.5,122.5C 133.599,125.237 133.265,127.904 132.5,130.5 Z"/></g>
<g><path style="opacity:0.181" fill="#646464" d="M 69.5,109.5 C 70.8333,109.5 71.5,110.167 71.5,111.5C 71.6107,112.117 71.944,112.617 72.5,113C 79.1915,113.169 85.8581,113.669 92.5,114.5C 94.3596,115.325 96.0262,116.325 97.5,117.5C 97.6107,118.117 97.944,118.617 98.5,119C 96.1517,120.688 95.9851,122.522 98,124.5C 98.3333,123.167 98.6667,121.833 99,120.5C 99.6667,119.167 100.333,119.167 101,120.5C 101.333,119.833 101.667,119.167 102,118.5C 104.832,118.251 107.665,118.251 110.5,118.5C 106.333,120.423 104.333,123.757 104.5,128.5C 104.132,132.803 105.799,135.803 109.5,137.5C 109.5,137.833 109.5,138.167 109.5,138.5C 108.504,138.586 107.671,138.252 107,137.5C 104.272,139.574 102.606,141.908 102,144.5C 101.549,142.071 100.715,141.904 99.5,144C 100.293,145.085 100.96,146.252 101.5,147.5C 100.282,147.109 99.4482,147.776 99,149.5C 98.6667,148.167 98.3333,146.833 98,145.5C 97.8091,147.708 97.3091,149.708 96.5,151.5C 96.5858,150.504 96.2524,149.671 95.5,149C 77.8065,148.156 60.1398,148.489 42.5,150C 41.6195,150.708 40.9528,151.542 40.5,152.5C 37.5079,154.317 34.1746,155.65 30.5,156.5C 26.6597,155.998 23.493,154.331 21,151.5C 20.296,149.722 19.796,147.888 19.5,146C 20.8333,134.75 22.6666,123.583 25,112.5C 28.9517,108.501 33.6184,107.501 39,109.5C 42.8288,113.579 47.3288,114.412 52.5,112C 57.4063,106.914 63.0729,106.08 69.5,109.5 Z"/></g>
<g><path style="opacity:0.927" fill="#131313" d="M 85.5,118.5 C 89.1958,118.695 92.0291,120.362 94,123.5C 94.4993,128.489 94.6659,133.489 94.5,138.5C 92.8333,138.5 91.1667,138.5 89.5,138.5C 89.6658,133.821 89.4992,129.155 89,124.5C 87.3333,123.167 85.6667,123.167 84,124.5C 83.5008,129.155 83.3342,133.821 83.5,138.5C 81.8333,138.5 80.1667,138.5 78.5,138.5C 78.3338,132.491 78.5005,126.491 79,120.5C 80.2504,119.427 81.5838,119.427 83,120.5C 84.301,120.361 85.1344,119.695 85.5,118.5 Z"/></g>
<g><path style="opacity:0.942" fill="#101010" d="M 59.5,111.5 C 60.8333,111.5 62.1667,111.5 63.5,111.5C 63.1826,114.572 63.5159,117.572 64.5,120.5C 69.5035,117.559 73.0035,118.893 75,124.5C 75.6667,128.833 75.6667,133.167 75,137.5C 73.6439,138.38 72.1439,138.714 70.5,138.5C 70.6658,133.821 70.4992,129.155 70,124.5C 68,123.167 66,123.167 64,124.5C 63.5008,129.155 63.3342,133.821 63.5,138.5C 62.1667,138.5 60.8333,138.5 59.5,138.5C 59.5,129.5 59.5,120.5 59.5,111.5 Z"/></g>
<g><path style="opacity:0.927" fill="#141414" d="M 44.5,118.5 C 49.5672,118.054 53.4006,120.054 56,124.5C 57.3515,132.133 54.3515,137.133 47,139.5C 38.692,137.13 36.192,131.797 39.5,123.5C 41.1493,121.667 42.8159,120 44.5,118.5 Z"/></g>
<g><path style="opacity:0.254" fill="#5e5e5e" d="M 44.5,123.5 C 50.9886,122.632 53.4886,125.299 52,131.5C 49.633,134.932 46.9663,135.265 44,132.5C 43.2642,129.408 43.4309,126.408 44.5,123.5 Z"/></g>
<g><path style="opacity:0.939" fill="#0d0d0d" d="M 31.5,120.5 C 32.8333,120.5 34.1667,120.5 35.5,120.5C 35.6663,127.508 35.4996,134.508 35,141.5C 33.1482,145.077 30.4815,146.077 27,144.5C 26.5172,143.552 26.3505,142.552 26.5,141.5C 27.9305,141.579 29.2638,141.246 30.5,140.5C 31.4967,133.866 31.83,127.2 31.5,120.5 Z"/></g>
<g><path style="opacity:0.778" fill="#111111" d="M 32.5,112.5 C 36.35,112.701 37.35,114.534 35.5,118C 33.0446,118.772 31.3779,117.939 30.5,115.5C 30.9424,114.261 31.6091,113.261 32.5,112.5 Z"/></g>
<g><path style="opacity:0.245" fill="#626262" d="M 224.5,113.5 C 224.821,115.048 225.821,115.715 227.5,115.5C 228.833,117.5 230.5,119.167 232.5,120.5C 233.011,123.633 233.344,126.8 233.5,130C 233.989,136.96 231.989,142.96 227.5,148C 226.552,148.483 225.552,148.649 224.5,148.5C 223.442,147.4 222.608,146.066 222,144.5C 221.667,145.167 221.333,145.833 221,146.5C 219.612,145.446 218.112,145.28 216.5,146C 217.949,147.117 219.616,147.784 221.5,148C 219.07,149.983 216.737,149.817 214.5,147.5C 212.929,148.309 211.262,148.643 209.5,148.5C 207.621,149.341 205.621,149.675 203.5,149.5C 201.064,149.683 198.897,149.016 197,147.5C 195.951,148.517 194.784,148.684 193.5,148C 194.451,147.282 194.617,146.449 194,145.5C 192.135,147.673 189.969,148.007 187.5,146.5C 186.304,146.846 186.304,147.346 187.5,148C 185.336,148.433 183.336,147.933 181.5,146.5C 178.988,147.756 176.488,147.756 174,146.5C 170.869,149.042 167.869,149.042 165,146.5C 163.955,147.373 163.122,148.373 162.5,149.5C 159.675,149.838 157.508,148.838 156,146.5C 153.821,148.637 151.321,148.971 148.5,147.5C 147.212,144.966 147.212,142.466 148.5,140C 146.942,139.79 145.609,139.29 144.5,138.5C 145.833,138.5 147.167,138.5 148.5,138.5C 148.5,129.833 148.5,121.167 148.5,112.5C 147.167,112.5 145.833,112.5 144.5,112.5C 146.54,109.866 148.707,109.866 151,112.5C 152.084,110.218 153.584,109.884 155.5,111.5C 157.403,112.357 159.403,113.023 161.5,113.5C 165.878,112.651 170.045,111.318 174,109.5C 176.939,111.258 180.106,112.425 183.5,113C 192.445,112.981 201.279,113.815 210,115.5C 214.683,113.803 219.516,113.136 224.5,113.5 Z"/></g>
<g><path style="opacity:0.45" fill="#2d2d2d" d="M 182.5,120.5 C 182.5,126.167 182.5,131.833 182.5,137.5C 183.5,137.5 184.5,137.5 185.5,137.5C 184.911,133.029 185.577,129.029 187.5,125.5C 187.666,129.514 187.499,133.514 187,137.5C 185.301,138.406 183.467,138.739 181.5,138.5C 181.177,132.31 181.51,126.31 182.5,120.5 Z"/></g>
<g><path style="opacity:0.912" fill="#141414" d="M 216.5,118.5 C 221.897,118.561 225.23,121.228 226.5,126.5C 226.43,127.772 226.097,128.938 225.5,130C 221.789,130.175 218.122,130.675 214.5,131.5C 216.786,135.675 220.119,136.675 224.5,134.5C 224.5,135.833 224.5,137.167 224.5,138.5C 213.406,140.073 208.739,135.406 210.5,124.5C 212.034,121.937 214.034,119.937 216.5,118.5 Z"/></g>
<g><path style="opacity:0.916" fill="#131313" d="M 197.5,118.5 C 205.971,117.974 209.638,121.974 208.5,130.5C 204.445,130.176 200.445,130.509 196.5,131.5C 196.977,132.478 197.643,133.311 198.5,134C 201.531,134.495 204.531,134.329 207.5,133.5C 207.424,137.641 205.257,139.308 201,138.5C 193.239,136.997 190.572,132.33 193,124.5C 194.209,122.184 195.709,120.184 197.5,118.5 Z"/></g>
<g><path style="opacity:0.942" fill="#0a0a0a" d="M 187.5,125.5 C 185.577,129.029 184.911,133.029 185.5,137.5C 184.5,137.5 183.5,137.5 182.5,137.5C 182.5,131.833 182.5,126.167 182.5,120.5C 185.585,121.1 188.585,120.434 191.5,118.5C 191.5,120.167 191.5,121.833 191.5,123.5C 189.62,123.229 188.287,123.896 187.5,125.5 Z"/></g>
<g><path style="opacity:0.919" fill="#141414" d="M 158.5,119.5 C 166.344,119.068 169.344,122.568 167.5,130C 163.848,130.499 160.182,130.665 156.5,130.5C 156.5,131.5 156.5,132.5 156.5,133.5C 159.526,134.577 162.526,134.577 165.5,133.5C 167.217,134.668 167.884,136.335 167.5,138.5C 153.425,140.06 149.092,134.226 154.5,121C 156.058,120.79 157.391,120.29 158.5,119.5 Z"/></g>
<g><path style="opacity:0.929" fill="#0f0f0f" d="M 172.5,114.5 C 173.5,114.5 174.5,114.5 175.5,114.5C 175.5,116.5 175.5,118.5 175.5,120.5C 177.167,120.5 178.833,120.5 180.5,120.5C 180.5,121.5 180.5,122.5 180.5,123.5C 178.833,123.5 177.167,123.5 175.5,123.5C 175.335,126.85 175.502,130.183 176,133.5C 177.011,134.337 178.178,134.67 179.5,134.5C 179.5,135.833 179.5,137.167 179.5,138.5C 177.208,138.756 175.041,138.423 173,137.5C 171.621,132.964 171.121,128.297 171.5,123.5C 170.5,123.5 169.5,123.5 168.5,123.5C 169.152,120.191 170.485,117.191 172.5,114.5 Z"/></g>
<g><path style="opacity:0.355" fill="#4b4b4b" d="M 198.5,123.5 C 202.241,122.599 204.241,123.932 204.5,127.5C 201.833,127.5 199.167,127.5 196.5,127.5C 196.527,125.801 197.194,124.467 198.5,123.5 Z"/></g>
<g><path style="opacity:0.576" fill="#907855" d="M 136.5,120.5 C 135.766,121.708 135.433,123.041 135.5,124.5C 135.088,126.887 134.088,128.887 132.5,130.5C 133.265,127.904 133.599,125.237 133.5,122.5C 131.278,122.178 129.444,122.845 128,124.5C 127.333,127.167 127.333,129.833 128,132.5C 129.011,133.337 130.178,133.67 131.5,133.5C 131.218,134.778 130.551,135.778 129.5,136.5C 127.548,135.215 125.882,133.549 124.5,131.5C 123.374,122.381 127.374,118.715 136.5,120.5 Z"/></g>
<g><path style="opacity:0.358" fill="#565656" d="M 157.5,123.5 C 159.977,123.051 161.977,123.717 163.5,125.5C 161.167,126.833 158.833,126.833 156.5,125.5C 156.863,124.817 157.196,124.15 157.5,123.5 Z"/></g>
<g><path style="opacity:0.354" fill="#585858" d="M 215.5,123.5 C 217.977,123.051 219.977,123.717 221.5,125.5C 219.604,126.466 217.604,126.799 215.5,126.5C 215.5,125.5 215.5,124.5 215.5,123.5 Z"/></g>
<g><path style="opacity:1" fill="#e6a545" d="M 119.5,131.5 C 118.188,132.145 117.188,133.145 116.5,134.5C 115.311,135.429 113.978,135.762 112.5,135.5C 112.5,134.5 112.5,133.5 112.5,132.5C 112.838,130.146 113.338,127.813 114,125.5C 115.667,124.167 117.333,124.167 119,125.5C 119.495,127.473 119.662,129.473 119.5,131.5 Z"/></g>
<g><path style="opacity:0.439" fill="#656360" d="M 135.5,124.5 C 136.634,126.966 136.801,129.633 136,132.5C 134.644,133.38 133.144,133.714 131.5,133.5C 131.557,132.391 131.89,131.391 132.5,130.5C 134.088,128.887 135.088,126.887 135.5,124.5 Z"/></g>
<g><path style="opacity:1" fill="#f6ad41" d="M 124.5,131.5 C 125.882,133.549 127.548,135.215 129.5,136.5C 129.371,138.216 129.038,139.883 128.5,141.5C 128.167,141.5 127.833,141.5 127.5,141.5C 125.406,146.526 123.906,151.859 123,157.5C 117.337,170.326 112.17,183.326 107.5,196.5C 103.736,199.445 102.069,203.445 102.5,208.5C 101.302,211.426 100.302,214.426 99.5,217.5C 92.9779,217.823 86.6446,217.49 80.5,216.5C 80.6987,212.22 82.032,208.553 84.5,205.5C 86.8205,202.323 88.1538,198.656 88.5,194.5C 88.3284,193.508 88.6618,192.842 89.5,192.5C 90.4745,191.365 91.6412,190.365 93,189.5C 94.2137,184.886 95.2137,180.22 96,175.5C 98.5541,172.305 100.054,168.638 100.5,164.5C 105.356,156.405 108.689,147.738 110.5,138.5C 112.857,138.663 115.19,138.497 117.5,138C 118.056,137.617 118.389,137.117 118.5,136.5C 121.135,135.461 123.135,133.794 124.5,131.5 Z"/></g>
<g><path style="opacity:0.529" fill="#8e7756" d="M 119.5,131.5 C 119.5,132.167 119.833,132.5 120.5,132.5C 119.833,133.833 119.167,135.167 118.5,136.5C 116.236,137.219 113.903,137.552 111.5,137.5C 111.5,136.167 111.5,134.833 111.5,133.5C 111.5,132.833 111.833,132.5 112.5,132.5C 112.5,133.5 112.5,134.5 112.5,135.5C 113.978,135.762 115.311,135.429 116.5,134.5C 117.188,133.145 118.188,132.145 119.5,131.5 Z"/></g>
<g><path style="opacity:0.409" fill="#5f5d5a" d="M 129.5,136.5 C 131.67,137.768 133.837,137.768 136,136.5C 136.49,137.793 136.657,139.127 136.5,140.5C 133.873,141.092 131.206,141.425 128.5,141.5C 129.038,139.883 129.371,138.216 129.5,136.5 Z"/></g>
<g><path style="opacity:0.197" fill="#686765" d="M 140.5,120.5 C 141.167,127.678 141.833,135.011 142.5,142.5C 143.396,141.494 144.062,141.494 144.5,142.5C 143.704,145.267 142.371,148.1 140.5,151C 140.667,151.833 140.833,152.667 141,153.5C 142.385,152.449 143.385,151.116 144,149.5C 144.483,150.448 144.649,151.448 144.5,152.5C 147.588,152.197 149.254,153.53 149.5,156.5C 148.5,156.5 147.5,156.5 146.5,156.5C 146.175,163.687 146.509,170.687 147.5,177.5C 147.5,177.833 147.5,178.167 147.5,178.5C 145.5,178.5 143.5,178.5 141.5,178.5C 142.172,177.733 143.005,177.066 144,176.5C 144.499,172.848 144.665,169.182 144.5,165.5C 141.833,165.5 139.167,165.5 136.5,165.5C 136.5,166.833 136.5,168.167 136.5,169.5C 137.833,169.5 139.167,169.5 140.5,169.5C 140.5,171.167 140.5,172.833 140.5,174.5C 138.833,174.5 137.167,174.5 135.5,174.5C 134.609,173.89 133.609,173.557 132.5,173.5C 128.938,167.264 130.271,162.597 136.5,159.5C 138.861,159.674 141.194,160.007 143.5,160.5C 143.5,159.167 143.5,157.833 143.5,156.5C 141.167,156.5 138.833,156.5 136.5,156.5C 134.073,156.523 131.74,157.023 129.5,158C 128.748,158.671 128.414,159.504 128.5,160.5C 126.452,162.456 125.452,164.956 125.5,168C 125.307,170.008 125.974,171.508 127.5,172.5C 127.957,174.773 129.29,176.106 131.5,176.5C 131.5,177.167 131.833,177.5 132.5,177.5C 132.5,177.833 132.5,178.167 132.5,178.5C 130.8,178.626 129.3,179.293 128,180.5C 126.311,179.142 124.978,177.475 124,175.5C 123.289,177.367 123.789,178.867 125.5,180C 123.874,179.805 122.207,179.805 120.5,180C 117.968,180.612 117.135,182.112 118,184.5C 119.869,181.309 122.369,180.642 125.5,182.5C 125.5,183.5 125.5,184.5 125.5,185.5C 123.089,185.137 121.589,186.137 121,188.5C 116.28,200.398 111.78,212.398 107.5,224.5C 105.5,224.5 104.5,225.5 104.5,227.5C 95.2868,229.791 85.9535,230.124 76.5,228.5C 73.647,225.625 71.9803,222.125 71.5,218C 74.0611,209.482 76.7278,200.982 79.5,192.5C 82.8535,187.43 84.8535,181.763 85.5,175.5C 87.821,173.91 88.821,171.577 88.5,168.5C 91.1905,165.453 92.5238,161.787 92.5,157.5C 94.256,155.751 95.5894,153.751 96.5,151.5C 97.3091,149.708 97.8091,147.708 98,145.5C 98.3333,146.833 98.6667,148.167 99,149.5C 99.4482,147.776 100.282,147.109 101.5,147.5C 100.96,146.252 100.293,145.085 99.5,144C 100.715,141.904 101.549,142.071 102,144.5C 102.606,141.908 104.272,139.574 107,137.5C 107.671,138.252 108.504,138.586 109.5,138.5C 105.885,146.966 102.885,155.633 100.5,164.5C 99.5028,164.47 98.8361,164.97 98.5,166C 94.9559,174.689 91.9559,183.523 89.5,192.5C 88.6618,192.842 88.3284,193.508 88.5,194.5C 86.0103,197.626 84.677,201.292 84.5,205.5C 82.032,208.553 80.6987,212.22 80.5,216.5C 79.9569,216.56 79.6236,216.893 79.5,217.5C 86.3222,218.818 92.9888,218.818 99.5,217.5C 100.302,214.426 101.302,211.426 102.5,208.5C 104.664,204.823 106.33,200.823 107.5,196.5C 112.17,183.326 117.337,170.326 123,157.5C 123.906,151.859 125.406,146.526 127.5,141.5C 127.5,142.5 127.5,143.5 127.5,144.5C 132.535,145.498 136.702,144.165 140,140.5C 140.5,133.842 140.666,127.175 140.5,120.5 Z"/></g>
<g><path style="opacity:0.011" fill="#787878" d="M 203.5,149.5 C 203.557,150.609 203.89,151.609 204.5,152.5C 202.857,152.48 201.524,153.147 200.5,154.5C 198.725,153.061 196.725,152.061 194.5,151.5C 189.82,152.83 185.153,152.83 180.5,151.5C 180.649,152.552 180.483,153.552 180,154.5C 178.084,151.967 176.084,151.967 174,154.5C 171.287,150.403 169.287,150.736 168,155.5C 167.517,154.552 167.351,153.552 167.5,152.5C 166.5,152.5 165.5,152.5 164.5,152.5C 165.718,151.839 167.051,151.172 168.5,150.5C 166.604,149.534 164.604,149.201 162.5,149.5C 163.122,148.373 163.955,147.373 165,146.5C 167.869,149.042 170.869,149.042 174,146.5C 176.488,147.756 178.988,147.756 181.5,146.5C 183.336,147.933 185.336,148.433 187.5,148C 186.304,147.346 186.304,146.846 187.5,146.5C 189.969,148.007 192.135,147.673 194,145.5C 194.617,146.449 194.451,147.282 193.5,148C 194.784,148.684 195.951,148.517 197,147.5C 198.897,149.016 201.064,149.683 203.5,149.5 Z"/></g>
<g><path style="opacity:0.004" fill="#000000" d="M 96.5,151.5 C 95.5894,153.751 94.256,155.751 92.5,157.5C 94.8841,151.61 92.8841,148.944 86.5,149.5C 83.1228,149.952 79.7895,150.618 76.5,151.5C 69.2594,149.64 61.9261,149.14 54.5,150C 49.9892,151.29 45.3226,152.123 40.5,152.5C 40.9528,151.542 41.6195,150.708 42.5,150C 60.1398,148.489 77.8065,148.156 95.5,149C 96.2524,149.671 96.5858,150.504 96.5,151.5 Z"/></g>
<g><path style="opacity:0.004" fill="#000000" d="M 209.5,148.5 C 210.398,149.158 211.398,149.824 212.5,150.5C 209.92,151.549 207.254,152.216 204.5,152.5C 203.89,151.609 203.557,150.609 203.5,149.5C 205.621,149.675 207.621,149.341 209.5,148.5 Z"/></g>
<g><path style="opacity:0.004" fill="#000000" d="M 162.5,149.5 C 164.604,149.201 166.604,149.534 168.5,150.5C 167.051,151.172 165.718,151.839 164.5,152.5C 163.094,152.027 162.427,151.027 162.5,149.5 Z"/></g>
<g><path style="opacity:0.949" fill="#dda147" d="M 118.5,136.5 C 118.389,137.117 118.056,137.617 117.5,138C 115.19,138.497 112.857,138.663 110.5,138.5C 108.689,147.738 105.356,156.405 100.5,164.5C 102.885,155.633 105.885,146.966 109.5,138.5C 109.5,138.167 109.5,137.833 109.5,137.5C 110.167,137.5 110.833,137.5 111.5,137.5C 113.903,137.552 116.236,137.219 118.5,136.5 Z"/></g>
<g><path style="opacity:0.004" fill="#000000" d="M 92.5,157.5 C 92.5238,161.787 91.1905,165.453 88.5,168.5C 88.4715,164.245 89.8048,160.579 92.5,157.5 Z"/></g>
<g><path style="opacity:0.985" fill="#efcb28" d="M 188.5,156.5 C 188.5,157.5 188.5,158.5 188.5,159.5C 187.5,159.5 186.5,159.5 185.5,159.5C 185.5,161.833 185.5,164.167 185.5,166.5C 186.5,166.5 187.5,166.5 188.5,166.5C 189.833,167.5 189.833,168.5 188.5,169.5C 187.167,169.5 185.833,169.5 184.5,169.5C 184.5,172.167 184.5,174.833 184.5,177.5C 183.5,177.5 182.5,177.5 181.5,177.5C 181.5,170.5 181.5,163.5 181.5,156.5C 183.833,156.5 186.167,156.5 188.5,156.5 Z"/></g>
<g><path style="opacity:0.7" fill="#e16d3f" d="M 232.5,156.5 C 234.833,156.5 237.167,156.5 239.5,156.5C 239.5,157.833 239.5,159.167 239.5,160.5C 237.194,160.007 234.861,159.674 232.5,159.5C 232.5,158.5 232.5,157.5 232.5,156.5 Z"/></g>
<g><path style="opacity:0.969" fill="#e29937" d="M 171.5,156.5 C 172.167,156.5 172.833,156.5 173.5,156.5C 173.5,161.5 173.5,166.5 173.5,171.5C 171.5,171.5 169.5,171.5 167.5,171.5C 168.11,170.609 168.443,169.609 168.5,168.5C 169.833,168.5 171.167,168.5 172.5,168.5C 172.657,167.127 172.49,165.793 172,164.5C 171.23,163.402 170.397,163.402 169.5,164.5C 170.639,161.996 171.306,159.33 171.5,156.5 Z"/></g>
<g><path style="opacity:0.388" fill="#d97042" d="M 136.5,156.5 C 138.833,156.5 141.167,156.5 143.5,156.5C 143.5,157.833 143.5,159.167 143.5,160.5C 141.194,160.007 138.861,159.674 136.5,159.5C 136.5,158.5 136.5,157.5 136.5,156.5 Z"/></g>
<g><path style="opacity:0.745" fill="#de7d40" d="M 188.5,156.5 C 193.006,156.008 195.339,158.008 195.5,162.5C 194.698,166.489 192.364,168.823 188.5,169.5C 189.833,168.5 189.833,167.5 188.5,166.5C 192.5,164.167 192.5,161.833 188.5,159.5C 188.5,158.5 188.5,157.5 188.5,156.5 Z"/></g>
<g><path style="opacity:0.806" fill="#e2cc39" d="M 149.5,156.5 C 149.833,156.5 150.167,156.5 150.5,156.5C 150.28,163.88 149.28,170.88 147.5,177.5C 146.509,170.687 146.175,163.687 146.5,156.5C 147.5,156.5 148.5,156.5 149.5,156.5 Z"/></g>
<g><path style="opacity:0.296" fill="#6b6763" d="M 153.5,159.5 C 154.209,160.404 155.209,160.737 156.5,160.5C 156.634,162.292 156.301,163.958 155.5,165.5C 154.167,165.5 152.833,165.5 151.5,165.5C 151.025,162.918 151.692,160.918 153.5,159.5 Z"/></g>
<g><path style="opacity:0.295" fill="#7b6e5d" d="M 188.5,159.5 C 192.5,161.833 192.5,164.167 188.5,166.5C 187.5,166.5 186.5,166.5 185.5,166.5C 185.5,164.167 185.5,161.833 185.5,159.5C 186.5,159.5 187.5,159.5 188.5,159.5 Z"/></g>
<g><path style="opacity:0.898" fill="#df7940" d="M 153.5,156.5 C 155.936,156.317 158.103,156.984 160,158.5C 161.027,162.18 160.194,165.347 157.5,168C 160.029,170.642 161.029,173.808 160.5,177.5C 159.614,178.776 158.614,178.776 157.5,177.5C 156.833,175.167 156.167,172.833 155.5,170.5C 154.311,169.571 152.978,169.238 151.5,169.5C 152.568,168.566 153.901,168.232 155.5,168.5C 155.5,167.5 155.5,166.5 155.5,165.5C 156.301,163.958 156.634,162.292 156.5,160.5C 155.209,160.737 154.209,160.404 153.5,159.5C 153.5,158.5 153.5,157.5 153.5,156.5 Z"/></g>
<g><path style="opacity:0.986" fill="#f2d72d" d="M 200.5,156.5 C 200.5,163.5 200.5,170.5 200.5,177.5C 199.791,178.404 198.791,178.737 197.5,178.5C 197.5,171.167 197.5,163.833 197.5,156.5C 198.5,156.5 199.5,156.5 200.5,156.5 Z"/></g>
<g><path style="opacity:0.881" fill="#eec523" d="M 136.5,156.5 C 136.5,157.5 136.5,158.5 136.5,159.5C 130.271,162.597 128.938,167.264 132.5,173.5C 132.737,174.791 132.404,175.791 131.5,176.5C 129.29,176.106 127.957,174.773 127.5,172.5C 127.307,168.434 127.64,164.434 128.5,160.5C 128.414,159.504 128.748,158.671 129.5,158C 131.74,157.023 134.073,156.523 136.5,156.5 Z"/></g>
<g><path style="opacity:0.815" fill="#dfb933" d="M 219.5,156.5 C 220.128,163.913 219.461,170.913 217.5,177.5C 216.509,170.687 216.175,163.687 216.5,156.5C 217.5,156.5 218.5,156.5 219.5,156.5 Z"/></g>
<g><path style="opacity:0.859" fill="#e38938" d="M 219.5,156.5 C 220.492,163.648 220.825,170.981 220.5,178.5C 219.209,178.737 218.209,178.404 217.5,177.5C 219.461,170.913 220.128,163.913 219.5,156.5 Z"/></g>
<g><path style="opacity:0.91" fill="#d5a832" d="M 200.5,156.5 C 202.369,158.635 203.036,161.302 202.5,164.5C 204.833,164.5 207.167,164.5 209.5,164.5C 209.5,165.833 209.5,167.167 209.5,168.5C 206.833,168.5 204.167,168.5 201.5,168.5C 201.81,171.713 201.477,174.713 200.5,177.5C 200.5,170.5 200.5,163.5 200.5,156.5 Z"/></g>
<g><path style="opacity:0.427" fill="#948e56" d="M 224.5,161.5 C 223.586,164.728 223.253,168.061 223.5,171.5C 222.84,170.036 222.507,168.369 222.5,166.5C 222.556,164.36 223.223,162.694 224.5,161.5 Z"/></g>
<g><path style="opacity:0.376" fill="#b9af4a" d="M 128.5,160.5 C 127.64,164.434 127.307,168.434 127.5,172.5C 125.974,171.508 125.307,170.008 125.5,168C 125.452,164.956 126.452,162.456 128.5,160.5 Z"/></g>
<g><path style="opacity:0.957" fill="#dcb12b" d="M 150.5,156.5 C 151.5,156.5 152.5,156.5 153.5,156.5C 153.5,157.5 153.5,158.5 153.5,159.5C 151.692,160.918 151.025,162.918 151.5,165.5C 152.833,165.5 154.167,165.5 155.5,165.5C 155.5,166.5 155.5,167.5 155.5,168.5C 153.901,168.232 152.568,168.566 151.5,169.5C 151.664,172.187 151.497,174.854 151,177.5C 149.989,178.337 148.822,178.67 147.5,178.5C 147.5,178.167 147.5,177.833 147.5,177.5C 149.28,170.88 150.28,163.88 150.5,156.5 Z"/></g>
<g><path style="opacity:0.376" fill="#7e725a" d="M 168.5,168.5 C 168.232,166.901 168.566,165.568 169.5,164.5C 170.397,163.402 171.23,163.402 172,164.5C 172.49,165.793 172.657,167.127 172.5,168.5C 171.167,168.5 169.833,168.5 168.5,168.5 Z"/></g>
<g><path style="opacity:0.004" fill="#000000" d="M 88.5,168.5 C 88.821,171.577 87.821,173.91 85.5,175.5C 85.7061,172.762 86.7061,170.428 88.5,168.5 Z"/></g>
<g><path style="opacity:0.164" fill="#676665" d="M 151.5,169.5 C 152.978,169.238 154.311,169.571 155.5,170.5C 156.167,172.833 156.833,175.167 157.5,177.5C 158.614,178.776 159.614,178.776 160.5,177.5C 160.833,177.5 161.167,177.5 161.5,177.5C 162.919,178.451 164.585,178.784 166.5,178.5C 168.339,179.582 170.339,180.415 172.5,181C 171.944,181.383 171.611,181.883 171.5,182.5C 170.571,183.315 169.571,184.148 168.5,185C 177.675,186.779 177.341,187.779 167.5,188C 172.098,188.141 176.098,189.641 179.5,192.5C 178.5,192.5 177.5,192.5 176.5,192.5C 174.833,192.5 173.167,192.5 171.5,192.5C 170.5,192.5 169.5,192.5 168.5,192.5C 165.833,192.5 163.167,192.5 160.5,192.5C 160.5,193.5 160.5,194.5 160.5,195.5C 161.919,196.451 163.585,196.784 165.5,196.5C 165.5,202.5 165.5,208.5 165.5,214.5C 166.5,214.5 167.5,214.5 168.5,214.5C 168.918,215.222 169.584,215.722 170.5,216C 167.816,218.84 164.482,220.34 160.5,220.5C 160.5,221.5 160.5,222.5 160.5,223.5C 164.219,222.641 167.886,222.641 171.5,223.5C 157.299,224.334 142.966,224.667 128.5,224.5C 122.323,223.155 118.657,219.322 117.5,213C 118.933,204.143 122.267,196.143 127.5,189C 126.571,187.923 125.904,186.756 125.5,185.5C 125.5,184.5 125.5,183.5 125.5,182.5C 122.369,180.642 119.869,181.309 118,184.5C 117.135,182.112 117.968,180.612 120.5,180C 122.207,179.805 123.874,179.805 125.5,180C 123.789,178.867 123.289,177.367 124,175.5C 124.978,177.475 126.311,179.142 128,180.5C 129.3,179.293 130.8,178.626 132.5,178.5C 135.5,178.5 138.5,178.5 141.5,178.5C 143.5,178.5 145.5,178.5 147.5,178.5C 148.822,178.67 149.989,178.337 151,177.5C 151.497,174.854 151.664,172.187 151.5,169.5 Z"/></g>
<g><path style="opacity:0.99" fill="#d87443" d="M 173.5,156.5 C 175.648,163.42 177.648,170.42 179.5,177.5C 178.178,177.67 177.011,177.337 176,176.5C 175.634,174.548 174.801,172.882 173.5,171.5C 173.5,166.5 173.5,161.5 173.5,156.5 Z"/></g>
<g><path style="opacity:0.929" fill="#d46c43" d="M 141.5,178.5 C 138.5,178.5 135.5,178.5 132.5,178.5C 132.5,178.167 132.5,177.833 132.5,177.5C 134.288,177.785 135.955,177.452 137.5,176.5C 136.757,175.818 136.091,175.151 135.5,174.5C 137.167,174.5 138.833,174.5 140.5,174.5C 140.5,172.833 140.5,171.167 140.5,169.5C 139.167,169.5 137.833,169.5 136.5,169.5C 136.5,168.167 136.5,166.833 136.5,165.5C 139.167,165.5 141.833,165.5 144.5,165.5C 144.665,169.182 144.499,172.848 144,176.5C 143.005,177.066 142.172,177.733 141.5,178.5 Z"/></g>
<g><path style="opacity:0.973" fill="#e5b925" d="M 171.5,156.5 C 171.306,159.33 170.639,161.996 169.5,164.5C 168.566,165.568 168.232,166.901 168.5,168.5C 168.443,169.609 168.11,170.609 167.5,171.5C 167.634,173.292 167.301,174.958 166.5,176.5C 165.292,177.234 163.959,177.567 162.5,177.5C 162.5,176.167 162.5,174.833 162.5,173.5C 164.02,168.098 165.854,162.764 168,157.5C 169.011,156.663 170.178,156.33 171.5,156.5 Z"/></g>
<g><path style="opacity:0.534" fill="#bfa338" d="M 188.5,169.5 C 187.791,170.404 186.791,170.737 185.5,170.5C 185.5,173.167 185.5,175.833 185.5,178.5C 183.901,178.768 182.568,178.434 181.5,177.5C 182.5,177.5 183.5,177.5 184.5,177.5C 184.5,174.833 184.5,172.167 184.5,169.5C 185.833,169.5 187.167,169.5 188.5,169.5 Z"/></g>
<g><path style="opacity:0.965" fill="#e8bc25" d="M 232.5,156.5 C 232.5,157.5 232.5,158.5 232.5,159.5C 227.355,162.559 226.188,166.893 229,172.5C 230.113,173.305 231.279,173.972 232.5,174.5C 232.5,175.5 232.5,176.5 232.5,177.5C 231.167,177.5 229.833,177.5 228.5,177.5C 226.14,176.135 224.473,174.135 223.5,171.5C 223.253,168.061 223.586,164.728 224.5,161.5C 225.828,157.83 228.495,156.163 232.5,156.5 Z"/></g>
<g><path style="opacity:0.733" fill="#cb6446" d="M 209.5,168.5 C 209.5,167.167 209.5,165.833 209.5,164.5C 209.5,161.833 209.5,159.167 209.5,156.5C 211.167,156.5 212.833,156.5 214.5,156.5C 214.666,163.508 214.5,170.508 214,177.5C 212.644,178.38 211.144,178.714 209.5,178.5C 209.5,175.167 209.5,171.833 209.5,168.5 Z"/></g>
<g><path style="opacity:0.329" fill="#da6240" d="M 239.5,177.5 C 238.167,177.5 236.833,177.5 235.5,177.5C 235.5,176.5 235.5,175.5 235.5,174.5C 236.708,173.766 238.041,173.433 239.5,173.5C 239.5,174.833 239.5,176.167 239.5,177.5 Z"/></g>
<g><path style="opacity:0.004" fill="#000000" d="M 85.5,175.5 C 84.8535,181.763 82.8535,187.43 79.5,192.5C 80.3457,186.289 82.3457,180.622 85.5,175.5 Z"/></g>
<g><path style="opacity:0.988" fill="#e9a829" d="M 132.5,173.5 C 133.609,173.557 134.609,173.89 135.5,174.5C 136.091,175.151 136.757,175.818 137.5,176.5C 135.955,177.452 134.288,177.785 132.5,177.5C 131.833,177.5 131.5,177.167 131.5,176.5C 132.404,175.791 132.737,174.791 132.5,173.5 Z"/></g>
<g><path style="opacity:0.31" fill="#a3964d" d="M 162.5,173.5 C 162.5,174.833 162.5,176.167 162.5,177.5C 163.959,177.567 165.292,177.234 166.5,176.5C 166.5,177.167 166.5,177.833 166.5,178.5C 164.585,178.784 162.919,178.451 161.5,177.5C 161.232,175.901 161.566,174.568 162.5,173.5 Z"/></g>
<g><path style="opacity:0.38" fill="#c98046" d="M 232.5,174.5 C 233.5,174.5 234.5,174.5 235.5,174.5C 235.5,175.5 235.5,176.5 235.5,177.5C 236.833,177.5 238.167,177.5 239.5,177.5C 235.833,178.833 232.167,178.833 228.5,177.5C 229.833,177.5 231.167,177.5 232.5,177.5C 232.5,176.5 232.5,175.5 232.5,174.5 Z"/></g>
<g><path style="opacity:0.02" fill="#666463" d="M 219.5,188.5 C 220.19,192.49 220.357,196.49 220,200.5C 219.316,202.359 218.316,204.026 217,205.5C 216.648,210.774 215.481,215.774 213.5,220.5C 213.5,221.167 213.167,221.5 212.5,221.5C 208.563,224.433 204.23,225.1 199.5,223.5C 190.197,225.674 180.864,225.674 171.5,223.5C 167.886,222.641 164.219,222.641 160.5,223.5C 160.5,222.5 160.5,221.5 160.5,220.5C 164.482,220.34 167.816,218.84 170.5,216C 169.584,215.722 168.918,215.222 168.5,214.5C 169.167,214.5 169.5,214.167 169.5,213.5C 170.489,208.025 170.822,202.358 170.5,196.5C 172.415,196.784 174.081,196.451 175.5,195.5C 175.833,195.5 176.167,195.5 176.5,195.5C 176.177,201.69 176.51,207.69 177.5,213.5C 178.209,214.404 179.209,214.737 180.5,214.5C 180.825,206.981 180.492,199.648 179.5,192.5C 176.098,189.641 172.098,188.141 167.5,188C 177.341,187.779 177.675,186.779 168.5,185C 169.571,184.148 170.571,183.315 171.5,182.5C 173.024,181.826 174.358,180.826 175.5,179.5C 176.971,180.381 177.804,181.714 178,183.5C 179.284,182.428 179.617,181.095 179,179.5C 179.667,180.833 180.333,180.833 181,179.5C 181.617,180.449 181.451,181.282 180.5,182C 181.5,182.833 182.5,183.667 183.5,184.5C 179.626,186.002 179.959,186.669 184.5,186.5C 183.943,184.051 183.943,181.718 184.5,179.5C 185.797,181.367 187.297,181.7 189,180.5C 190.3,181.707 191.8,182.374 193.5,182.5C 193.5,184.167 193.5,185.833 193.5,187.5C 196.231,185.761 199.064,184.094 202,182.5C 202.333,182.833 202.667,183.167 203,183.5C 204.728,181.158 206.395,178.825 208,176.5C 208.428,179.073 208.094,181.406 207,183.5C 208.396,185.527 210.062,185.86 212,184.5C 213.786,186.099 215.953,186.933 218.5,187C 219.056,187.383 219.389,187.883 219.5,188.5 Z"/></g>
<g><path style="opacity:0.004" fill="#000000" d="M 245.5,184.5 C 245.649,185.552 245.483,186.552 245,187.5C 243.013,188.218 241.179,189.218 239.5,190.5C 233.445,191.491 227.611,191.491 222,190.5C 221.667,194.167 221.333,197.833 221,201.5C 218.402,207.223 216.735,213.223 216,219.5C 215.329,220.252 214.496,220.586 213.5,220.5C 215.481,215.774 216.648,210.774 217,205.5C 218.316,204.026 219.316,202.359 220,200.5C 220.357,196.49 220.19,192.49 219.5,188.5C 225.513,188.869 231.513,189.036 237.5,189C 240.821,188.502 243.487,187.002 245.5,184.5 Z"/></g>
<g><path style="opacity:0.004" fill="#000000" d="M 125.5,185.5 C 125.904,186.756 126.571,187.923 127.5,189C 122.267,196.143 118.933,204.143 117.5,213C 118.657,219.322 122.323,223.155 128.5,224.5C 142.966,224.667 157.299,224.334 171.5,223.5C 180.864,225.674 190.197,225.674 199.5,223.5C 204.23,225.1 208.563,224.433 212.5,221.5C 212.244,223.776 210.91,224.943 208.5,225C 201.321,225.175 194.321,226.008 187.5,227.5C 166.483,225.578 145.483,224.745 124.5,225C 121.544,223.787 119.211,221.787 117.5,219C 116.782,215.539 116.282,212.039 116,208.5C 113.753,214.226 110.92,219.559 107.5,224.5C 111.78,212.398 116.28,200.398 121,188.5C 121.589,186.137 123.089,185.137 125.5,185.5 Z"/></g>
<g><path style="opacity:0.982" fill="#d79e49" d="M 100.5,164.5 C 100.054,168.638 98.5541,172.305 96,175.5C 95.2137,180.22 94.2137,184.886 93,189.5C 91.6412,190.365 90.4745,191.365 89.5,192.5C 91.9559,183.523 94.9559,174.689 98.5,166C 98.8361,164.97 99.5028,164.47 100.5,164.5 Z"/></g>
<g><path style="opacity:0.004" fill="#000000" d="M 79.5,192.5 C 76.7278,200.982 74.0611,209.482 71.5,218C 71.9803,222.125 73.647,225.625 76.5,228.5C 75.1779,228.67 74.0113,228.337 73,227.5C 71.6563,224.329 70.4897,221.162 69.5,218C 71.3949,209.758 74.0616,201.758 77.5,194C 77.8361,192.97 78.5028,192.47 79.5,192.5 Z"/></g>
<g><path style="opacity:0.88" fill="#e4b329" d="M 191.5,192.5 C 191.5,193.5 191.5,194.5 191.5,195.5C 190.5,195.5 189.5,195.5 188.5,195.5C 188.077,197.781 188.744,199.448 190.5,200.5C 190.539,201.583 190.873,202.583 191.5,203.5C 191.043,204.298 190.376,204.631 189.5,204.5C 183.363,202.48 182.029,198.647 185.5,193C 187.473,192.505 189.473,192.338 191.5,192.5 Z"/></g>
<g><path style="opacity:0.624" fill="#de7842" d="M 191.5,192.5 C 192.833,192.5 194.167,192.5 195.5,192.5C 195.5,193.833 195.5,195.167 195.5,196.5C 194.041,196.567 192.708,196.234 191.5,195.5C 191.5,194.5 191.5,193.5 191.5,192.5 Z"/></g>
<g><path style="opacity:0.863" fill="#d96941" d="M 208.5,192.5 C 210.167,192.5 211.833,192.5 213.5,192.5C 213.241,196.068 211.241,197.401 207.5,196.5C 208.234,195.292 208.567,193.959 208.5,192.5 Z"/></g>
<g><path style="opacity:1" fill="#f5b523" d="M 168.5,192.5 C 168.666,199.175 168.5,205.842 168,212.5C 167.501,206.843 167.334,201.176 167.5,195.5C 165.167,195.5 162.833,195.5 160.5,195.5C 160.5,194.5 160.5,193.5 160.5,192.5C 163.167,192.5 165.833,192.5 168.5,192.5 Z"/></g>
<g><path style="opacity:0.714" fill="#dd6340" d="M 171.5,192.5 C 173.167,192.5 174.833,192.5 176.5,192.5C 176.5,193.5 176.5,194.5 176.5,195.5C 176.167,195.5 175.833,195.5 175.5,195.5C 174.167,195.5 172.833,195.5 171.5,195.5C 171.5,194.5 171.5,193.5 171.5,192.5 Z"/></g>
<g><path style="opacity:0.751" fill="#deba33" d="M 176.5,192.5 C 177.5,192.5 178.5,192.5 179.5,192.5C 180.128,199.913 179.461,206.913 177.5,213.5C 176.51,207.69 176.177,201.69 176.5,195.5C 176.5,194.5 176.5,193.5 176.5,192.5 Z"/></g>
<g><path style="opacity:0.3" fill="#716963" d="M 153.5,196.5 C 155.256,197.552 155.923,199.219 155.5,201.5C 153.833,201.5 152.167,201.5 150.5,201.5C 150.5,199.833 150.5,198.167 150.5,196.5C 151.5,196.5 152.5,196.5 153.5,196.5 Z"/></g>
<g><path style="opacity:0.41" fill="#9f8c46" d="M 151.5,195.5 C 152.492,195.328 153.158,195.662 153.5,196.5C 152.5,196.5 151.5,196.5 150.5,196.5C 150.5,198.167 150.5,199.833 150.5,201.5C 149.853,200.726 149.52,199.726 149.5,198.5C 149.64,196.97 150.307,195.97 151.5,195.5 Z"/></g>
<g><path style="opacity:0.908" fill="#de8f3d" d="M 135.5,192.5 C 136.5,192.5 137.5,192.5 138.5,192.5C 139.327,196.807 139.993,201.14 140.5,205.5C 140.768,207.099 140.434,208.432 139.5,209.5C 137.721,207.656 135.388,206.99 132.5,207.5C 132.728,202.27 133.728,197.27 135.5,192.5 Z"/></g>
<g><path style="opacity:0.774" fill="#edcf2c" d="M 151.5,192.5 C 151.5,193.5 151.5,194.5 151.5,195.5C 150.307,195.97 149.64,196.97 149.5,198.5C 149.52,199.726 149.853,200.726 150.5,201.5C 151.694,202.272 152.694,203.272 153.5,204.5C 152.167,204.5 150.833,204.5 149.5,204.5C 149.5,207.5 149.5,210.5 149.5,213.5C 148.504,213.586 147.671,213.252 147,212.5C 146.824,208.312 146.324,204.312 145.5,200.5C 145.5,197.833 145.5,195.167 145.5,192.5C 147.5,192.5 149.5,192.5 151.5,192.5 Z"/></g>
<g><path style="opacity:0.675" fill="#c2934f" d="M 88.5,194.5 C 88.1538,198.656 86.8205,202.323 84.5,205.5C 84.677,201.292 86.0103,197.626 88.5,194.5 Z"/></g>
<g><path style="opacity:0.963" fill="#cb974d" d="M 107.5,196.5 C 106.33,200.823 104.664,204.823 102.5,208.5C 102.069,203.445 103.736,199.445 107.5,196.5 Z"/></g>
<g><path style="opacity:0.359" fill="#6e6a60" d="M 134.5,200.5 C 136.176,201.183 136.843,202.517 136.5,204.5C 135.325,204.719 134.325,204.386 133.5,203.5C 134.127,202.583 134.461,201.583 134.5,200.5 Z"/></g>
<g><path style="opacity:0.906" fill="#e4b826" d="M 135.5,192.5 C 133.728,197.27 132.728,202.27 132.5,207.5C 131.678,209.389 130.845,211.389 130,213.5C 128.644,214.38 127.144,214.714 125.5,214.5C 127.637,208.354 129.471,202.021 131,195.5C 131.908,193.561 133.408,192.561 135.5,192.5 Z"/></g>
<g><path style="opacity:0.892" fill="#e58e36" d="M 179.5,192.5 C 180.492,199.648 180.825,206.981 180.5,214.5C 179.209,214.737 178.209,214.404 177.5,213.5C 179.461,206.913 180.128,199.913 179.5,192.5 Z"/></g>
<g><path style="opacity:0.739" fill="#ebaa2a" d="M 208.5,192.5 C 208.567,193.959 208.234,195.292 207.5,196.5C 206.511,201.975 206.178,207.642 206.5,213.5C 205.5,213.5 204.5,213.5 203.5,213.5C 203.5,207.5 203.5,201.5 203.5,195.5C 201.167,195.5 198.833,195.5 196.5,195.5C 196.5,194.5 196.5,193.5 196.5,192.5C 200.5,192.5 204.5,192.5 208.5,192.5 Z"/></g>
<g><path style="opacity:0.439" fill="#bf8a43" d="M 207.5,196.5 C 207.5,202.5 207.5,208.5 207.5,214.5C 205.901,214.768 204.568,214.434 203.5,213.5C 204.5,213.5 205.5,213.5 206.5,213.5C 206.178,207.642 206.511,201.975 207.5,196.5 Z"/></g>
<g><path style="opacity:0.57" fill="#c4b846" d="M 145.5,200.5 C 146.324,204.312 146.824,208.312 147,212.5C 147.671,213.252 148.504,213.586 149.5,213.5C 148.432,214.434 147.099,214.768 145.5,214.5C 145.5,209.833 145.5,205.167 145.5,200.5 Z"/></g>
<g><path style="opacity:0.973" fill="#dd7e40" d="M 151.5,192.5 C 160.103,193.023 161.769,196.857 156.5,204C 158.97,207.035 160.304,210.535 160.5,214.5C 159.022,214.762 157.689,214.429 156.5,213.5C 155.993,210.578 154.993,207.911 153.5,205.5C 153.5,205.167 153.5,204.833 153.5,204.5C 152.694,203.272 151.694,202.272 150.5,201.5C 152.167,201.5 153.833,201.5 155.5,201.5C 155.923,199.219 155.256,197.552 153.5,196.5C 153.158,195.662 152.492,195.328 151.5,195.5C 151.5,194.5 151.5,193.5 151.5,192.5 Z"/></g>
<g><path style="opacity:0.348" fill="#ad8d43" d="M 196.5,195.5 C 198.833,195.5 201.167,195.5 203.5,195.5C 203.5,201.5 203.5,207.5 203.5,213.5C 202.511,208.025 202.178,202.358 202.5,196.5C 200.265,196.795 198.265,196.461 196.5,195.5 Z"/></g>
<g><path style="opacity:0.643" fill="#d79c33" d="M 168.5,192.5 C 169.5,192.5 170.5,192.5 171.5,192.5C 171.5,193.5 171.5,194.5 171.5,195.5C 169.547,201.074 168.88,207.074 169.5,213.5C 169.5,214.167 169.167,214.5 168.5,214.5C 167.5,214.5 166.5,214.5 165.5,214.5C 165.5,208.5 165.5,202.5 165.5,196.5C 163.585,196.784 161.919,196.451 160.5,195.5C 162.833,195.5 165.167,195.5 167.5,195.5C 167.334,201.176 167.501,206.843 168,212.5C 168.5,205.842 168.666,199.175 168.5,192.5 Z"/></g>
<g><path style="opacity:0.388" fill="#b58347" d="M 171.5,195.5 C 172.833,195.5 174.167,195.5 175.5,195.5C 174.081,196.451 172.415,196.784 170.5,196.5C 170.822,202.358 170.489,208.025 169.5,213.5C 168.88,207.074 169.547,201.074 171.5,195.5 Z"/></g>
<g><path style="opacity:0.408" fill="#a18d44" d="M 153.5,204.5 C 153.5,204.833 153.5,205.167 153.5,205.5C 152.5,205.5 151.5,205.5 150.5,205.5C 150.806,208.385 150.473,211.052 149.5,213.5C 149.5,210.5 149.5,207.5 149.5,204.5C 150.833,204.5 152.167,204.5 153.5,204.5 Z"/></g>
<g><path style="opacity:0.916" fill="#e07440" d="M 190.5,200.5 C 196.025,202.26 197.858,205.927 196,211.5C 194.989,212.337 193.822,212.67 192.5,212.5C 192.5,211.5 192.5,210.5 192.5,209.5C 192.5,208.167 192.5,206.833 192.5,205.5C 191.209,205.737 190.209,205.404 189.5,204.5C 190.376,204.631 191.043,204.298 191.5,203.5C 190.873,202.583 190.539,201.583 190.5,200.5 Z"/></g>
<g><path style="opacity:0.953" fill="#e7c127" d="M 187.5,210.5 C 188.567,212.879 187.567,213.879 184.5,213.5C 183.427,212.749 183.26,211.749 184,210.5C 185.292,209.209 186.458,209.209 187.5,210.5 Z"/></g>
<g><path style="opacity:0.69" fill="#d86742" d="M 140.5,205.5 C 142.515,207.707 143.515,210.374 143.5,213.5C 140.5,213.833 139.167,212.5 139.5,209.5C 140.434,208.432 140.768,207.099 140.5,205.5 Z"/></g>
<g><path style="opacity:0.8" fill="#d89a36" d="M 192.5,209.5 C 192.5,210.5 192.5,211.5 192.5,212.5C 191.508,214.026 190.008,214.693 188,214.5C 186.615,214.486 185.449,214.152 184.5,213.5C 187.567,213.879 188.567,212.879 187.5,210.5C 189.292,210.634 190.958,210.301 192.5,209.5 Z"/></g>
<g><path style="opacity:0.652" fill="#b38b51" d="M 80.5,216.5 C 86.6446,217.49 92.9779,217.823 99.5,217.5C 92.9888,218.818 86.3222,218.818 79.5,217.5C 79.6236,216.893 79.9569,216.56 80.5,216.5 Z"/></g>
<g><path style="opacity:0.004" fill="#000000" d="M 107.5,224.5 C 106.833,225.833 105.833,226.833 104.5,227.5C 104.5,225.5 105.5,224.5 107.5,224.5 Z"/></g>
<g><path style="opacity:0.005" fill="#000000" d="M 104.5,227.5 C 103.517,228.85 102.184,229.85 100.5,230.5C 93.5237,231.664 86.5237,231.831 79.5,231C 78.4293,230.148 77.4293,229.315 76.5,228.5C 85.9535,230.124 95.2868,229.791 104.5,227.5 Z"/></g>
</svg>
