<?xml version="1.0" encoding="UTF-8"?>
<!DOCTYPE svg PUBLIC "-//W3C//DTD SVG 1.1//EN" "http://www.w3.org/Graphics/SVG/1.1/DTD/svg11.dtd">
<svg xmlns="http://www.w3.org/2000/svg" version="1.1" width="500px" height="500px" style="shape-rendering:geometricPrecision; text-rendering:geometricPrecision; image-rendering:optimizeQuality; fill-rule:evenodd; clip-rule:evenodd" xmlns:xlink="http://www.w3.org/1999/xlink">
<g><path style="opacity:0.964" fill="#010000" d="M 292.5,78.5 C 320.833,78.5 349.167,78.5 377.5,78.5C 377.5,107.5 377.5,136.5 377.5,165.5C 373.894,165.789 370.394,165.456 367,164.5C 367.477,139.267 367.31,114.434 366.5,90C 341.836,89.5 317.169,89.3334 292.5,89.5C 292.5,85.8333 292.5,82.1667 292.5,78.5 Z"/></g>
<g><path style="opacity:0.874" fill="#020101" d="M 254.5,112.5 C 256.716,114.621 259.216,114.954 262,113.5C 262.499,109.514 262.666,105.514 262.5,101.5C 267.844,101.334 273.177,101.501 278.5,102C 282.333,107.833 286.167,113.667 290,119.5C 290.499,113.509 290.666,107.509 290.5,101.5C 293.167,101.5 295.833,101.5 298.5,101.5C 298.667,112.172 298.5,122.839 298,133.5C 295.599,134.602 293.099,134.769 290.5,134C 286.667,128.167 282.833,122.333 279,116.5C 278.501,122.491 278.334,128.491 278.5,134.5C 273.171,133.345 267.838,133.178 262.5,134C 262.371,130.045 262.371,125.878 262.5,121.5C 258.952,121.095 255.619,121.595 252.5,123C 253.343,126.806 253.343,130.472 252.5,134C 250.167,134.667 247.833,134.667 245.5,134C 244.718,131.26 244.218,128.426 244,125.5C 238.692,134.359 231.192,136.859 221.5,133C 218.667,131.5 216.5,129.333 215,126.5C 212.568,133.302 207.735,135.802 200.5,134C 198.697,133.363 197.364,132.197 196.5,130.5C 197.502,128.49 198.502,126.49 199.5,124.5C 201.79,126.967 203.957,126.967 206,124.5C 206.5,116.841 206.666,109.174 206.5,101.5C 209.167,101.5 211.833,101.5 214.5,101.5C 214.336,104.187 214.503,106.854 215,109.5C 221.534,100.492 229.701,98.6585 239.5,104C 241.359,105.558 242.859,107.391 244,109.5C 244.497,106.854 244.664,104.187 244.5,101.5C 247.247,101.187 249.914,101.52 252.5,102.5C 252.718,105.609 252.718,108.776 252.5,112C 253.326,114.742 253.992,114.909 254.5,112.5 Z M 225.5,109.5 C 235.083,108.606 238.583,112.939 236,122.5C 228.856,128.776 224.022,127.276 221.5,118C 222.181,114.807 223.514,111.974 225.5,109.5 Z"/></g>
<g><path style="opacity:0.004" fill="#000000" d="M 254.5,112.5 C 253.833,111.167 253.833,111.167 254.5,112.5 Z"/></g>
<g><path style="opacity:0.917" fill="#010000" d="M 119.5,114.5 C 123.167,114.5 126.833,114.5 130.5,114.5C 130.333,141.835 130.5,169.169 131,196.5C 154.682,197.832 178.515,197.832 202.5,196.5C 203.442,196.608 204.275,196.941 205,197.5C 205.667,200.833 205.667,204.167 205,207.5C 176.574,208.495 148.074,208.829 119.5,208.5C 119.5,177.167 119.5,145.833 119.5,114.5 Z"/></g>
<g><path style="opacity:0.859" fill="#020101" d="M 173.5,153.5 C 181.165,153.584 186.998,156.917 191,163.5C 195.457,155.023 202.29,152.19 211.5,155C 218.801,157.563 219.301,161.063 213,165.5C 205.089,159.064 200.256,160.898 198.5,171C 199.559,179.418 203.726,181.585 211,177.5C 211.167,177.167 211.333,176.833 211.5,176.5C 209.314,175.779 207.147,175.113 205,174.5C 204.505,172.527 204.338,170.527 204.5,168.5C 209.5,168.5 214.5,168.5 219.5,168.5C 219.5,163.833 219.5,159.167 219.5,154.5C 222.167,154.5 224.833,154.5 227.5,154.5C 227.5,162.833 227.5,171.167 227.5,179.5C 230.833,179.5 234.167,179.5 237.5,179.5C 237.5,171.167 237.5,162.833 237.5,154.5C 256.568,154.038 275.568,154.538 294.5,156C 298.714,160.2 299.548,165.034 297,170.5C 295.786,172.049 294.286,173.215 292.5,174C 295.118,176.739 297.618,179.573 300,182.5C 300.5,173.173 300.666,163.839 300.5,154.5C 312.83,155.66 325.163,155.827 337.5,155C 337.548,157.127 337.715,159.294 338,161.5C 335.717,162.719 333.384,162.719 331,161.5C 327.831,162.506 326.997,164.506 328.5,167.5C 331.303,166.753 333.97,166.586 336.5,167C 337.435,169.381 337.768,171.881 337.5,174.5C 334.167,174.5 330.833,174.5 327.5,174.5C 327.5,176.167 327.5,177.833 327.5,179.5C 330.833,179.5 334.167,179.5 337.5,179.5C 337.838,182.011 337.838,184.345 337.5,186.5C 322.992,187.149 308.325,187.316 293.5,187C 290.067,183.958 287.234,180.458 285,176.5C 284.667,179.833 284.333,183.167 284,186.5C 281.619,187.435 279.119,187.768 276.5,187.5C 276.666,179.16 276.5,170.827 276,162.5C 274.301,161.594 272.467,161.261 270.5,161.5C 270.817,170.085 270.483,178.585 269.5,187C 266.621,187.874 263.955,187.54 261.5,186C 262.151,182.082 262.484,178.082 262.5,174C 262.638,169.656 262.138,165.489 261,161.5C 256.077,161.505 250.911,162.005 245.5,163C 245.259,164.562 245.759,166.062 247,167.5C 250,167.5 253,167.5 256,167.5C 256.497,169.81 256.663,172.143 256.5,174.5C 253.167,174.5 249.833,174.5 246.5,174.5C 246.579,175.93 246.246,177.264 245.5,178.5C 249.107,179.489 252.774,179.823 256.5,179.5C 256.768,182.119 256.435,184.619 255.5,187C 243.833,186.333 232.167,186.333 220.5,187C 219.736,184.931 219.236,182.764 219,180.5C 212.705,187.914 205.205,189.414 196.5,185C 194.291,183.127 192.458,180.96 191,178.5C 186.27,186.193 179.437,189.026 170.5,187C 159.691,181.241 156.858,172.741 162,161.5C 164.954,157.35 168.787,154.683 173.5,153.5 Z M 284.5,161.5 C 289.241,161.161 290.574,163.161 288.5,167.5C 287.264,168.246 285.93,168.579 284.5,168.5C 284.5,166.167 284.5,163.833 284.5,161.5 Z M 318.5,162.5 C 319.167,164.819 319.334,167.153 319,169.5C 318.581,168.328 317.915,167.328 317,166.5C 314.534,167.788 312.034,167.788 309.5,166.5C 308.571,165.311 308.238,163.978 308.5,162.5C 311.791,162.458 315.125,162.458 318.5,162.5 Z M 172.5,162.5 C 182.319,162.445 185.485,167.112 182,176.5C 176.879,180.875 172.545,180.209 169,174.5C 167.745,169.738 168.912,165.738 172.5,162.5 Z M 308.5,174.5 C 312.182,174.335 315.848,174.501 319.5,175C 319.307,176.645 319.14,178.479 319,180.5C 315.606,179.544 312.106,179.211 308.5,179.5C 308.5,177.833 308.5,176.167 308.5,174.5 Z"/></g>
<g><path style="opacity:0.004" fill="#000000" d="M 247.5,163.5 C 248.525,163.897 248.692,164.563 248,165.5C 247.536,164.906 247.369,164.239 247.5,163.5 Z"/></g>
<g><path style="opacity:0.004" fill="#000000" d="M 208.5,176.5 C 209.833,177.167 209.833,177.167 208.5,176.5 Z"/></g>
<g><path style="opacity:0.249" fill="#dd674d" d="M 228.5,239.5 C 231.518,239.335 234.518,239.502 237.5,240C 238.288,243.076 238.788,246.242 239,249.5C 242.399,241.029 248.566,237.862 257.5,240C 262.589,242.583 263.755,246.416 261,251.5C 257.729,248.708 254.396,248.375 251,250.5C 250.333,252.167 250.333,253.833 251,255.5C 254.773,256.517 258.606,256.517 262.5,255.5C 262.664,258.187 262.497,260.854 262,263.5C 252.464,268.655 244.798,266.655 239,257.5C 238.818,260.226 238.318,262.893 237.5,265.5C 234.188,266.618 230.855,266.618 227.5,265.5C 227.197,256.749 227.53,248.082 228.5,239.5 Z M 250.5,242.5 C 253.206,242.575 255.873,242.908 258.5,243.5C 258.5,244.5 258.5,245.5 258.5,246.5C 252.142,244.445 248.142,246.612 246.5,253C 248.495,259.044 252.495,261.21 258.5,259.5C 258.5,260.5 258.5,261.5 258.5,262.5C 246.265,265.088 241.099,260.421 243,248.5C 244.707,245.41 247.207,243.41 250.5,242.5 Z M 231.5,242.5 C 232.822,242.33 233.989,242.663 235,243.5C 235.667,249.833 235.667,256.167 235,262.5C 233.887,263.711 232.72,263.711 231.5,262.5C 230.208,255.777 230.208,249.111 231.5,242.5 Z"/></g>
<g><path style="opacity:0.682" fill="#e56d4f" d="M 282.5,239.5 C 285.518,239.335 288.518,239.502 291.5,240C 295.051,246.27 298.218,252.77 301,259.5C 301.187,252.919 301.687,246.419 302.5,240C 309.385,238.902 316.051,239.569 322.5,242C 323.701,242.903 324.535,244.069 325,245.5C 325.163,243.324 325.996,241.491 327.5,240C 338.593,239.675 349.593,239.675 360.5,240C 361.893,241.171 362.727,242.671 363,244.5C 367.197,239.159 372.364,238.159 378.5,241.5C 379.308,241.192 379.975,240.692 380.5,240C 387.5,239.333 394.5,239.333 401.5,240C 404.379,241.666 405.212,244.166 404,247.5C 402,248.167 400,248.833 398,249.5C 397.667,254.5 397.333,259.5 397,264.5C 393.889,265.961 390.723,266.294 387.5,265.5C 386.671,260.533 386.171,255.533 386,250.5C 384.559,249.74 383.059,249.074 381.5,248.5C 380.5,249.833 379.5,251.167 378.5,252.5C 382.305,260.905 379.472,265.572 370,266.5C 367.499,266.416 365.166,265.75 363,264.5C 358.883,267.007 354.883,267.007 351,264.5C 350.667,259.167 350.333,253.833 350,248.5C 348.301,249.406 346.467,249.739 344.5,249.5C 345.087,255.303 344.42,260.803 342.5,266C 339.208,266.936 336.208,266.436 333.5,264.5C 332.167,260.5 332.167,256.5 333.5,252.5C 333.167,251.833 332.833,251.167 332.5,250.5C 330.368,249.402 328.202,248.402 326,247.5C 325.305,249.722 324.472,251.889 323.5,254C 325.03,257.561 326.697,261.061 328.5,264.5C 321.159,268.41 316.325,266.41 314,258.5C 313.5,259 313,259.5 312.5,260C 313.833,261.667 313.833,263.333 312.5,265C 310.109,265.287 307.776,265.787 305.5,266.5C 301.236,266.231 296.902,266.064 292.5,266C 288.833,261.333 285.167,261.333 281.5,266C 278.833,266.667 276.167,266.667 273.5,266C 271.842,265.275 271.342,264.108 272,262.5C 275.417,254.727 278.917,247.06 282.5,239.5 Z M 307.5,242.5 C 308.473,242.987 309.473,243.487 310.5,244C 309.167,246.667 309.167,249.333 310.5,252C 317.441,252.718 319.107,250.051 315.5,244C 320.496,243.336 322.33,245.502 321,250.5C 319.978,251.354 319.145,252.354 318.5,253.5C 322.136,256.081 323.47,259.414 322.5,263.5C 321.5,263 320.5,262.5 319.5,262C 314.392,250.627 310.892,250.794 309,262.5C 307.701,262.966 306.201,262.966 304.5,262.5C 304.334,256.491 304.501,250.491 305,244.5C 305.995,243.934 306.828,243.267 307.5,242.5 Z M 331.5,242.5 C 336.784,243.122 342.117,243.789 347.5,244.5C 345.659,245.23 343.825,245.897 342,246.5C 341.667,251.5 341.333,256.5 341,261.5C 339.644,262.38 338.144,262.714 336.5,262.5C 336.666,257.489 336.499,252.489 336,247.5C 334.084,246.072 331.917,245.072 329.5,244.5C 330.243,243.818 330.909,243.151 331.5,242.5 Z M 370.5,242.5 C 372.936,242.749 374.936,243.749 376.5,245.5C 375.091,245.654 373.424,245.821 371.5,246C 370.643,246.689 369.977,247.522 369.5,248.5C 371.673,251.172 374.173,253.506 377,255.5C 378.06,260.619 375.893,263.286 370.5,263.5C 368.67,263.224 367.003,262.557 365.5,261.5C 367.686,260.779 369.853,260.113 372,259.5C 372.667,258.167 372.667,256.833 372,255.5C 363.985,251.709 363.485,247.376 370.5,242.5 Z M 384.5,242.5 C 389.182,243.703 393.849,243.703 398.5,242.5C 399.5,242.833 400.167,243.5 400.5,244.5C 398.659,245.23 396.825,245.897 395,246.5C 394.809,252.083 394.309,257.583 393.5,263C 392.216,263.684 391.049,263.517 390,262.5C 389.607,257.799 389.607,253.132 390,248.5C 389.692,247.692 389.192,247.025 388.5,246.5C 386.465,245.959 384.465,245.292 382.5,244.5C 383.243,243.818 383.909,243.151 384.5,242.5 Z M 283.5,243.5 C 286.119,243.232 288.619,243.565 291,244.5C 293.309,250.432 295.809,256.266 298.5,262C 295.967,262.852 293.967,262.186 292.5,260C 288.833,259.333 285.167,259.333 281.5,260C 280.521,262.403 279.021,263.236 277,262.5C 278.549,256.044 280.716,249.71 283.5,243.5 Z M 354.5,243.5 C 355.833,243.5 357.167,243.5 358.5,243.5C 359.447,248.194 359.78,252.86 359.5,257.5C 359.616,260.271 358.449,262.271 356,263.5C 354.542,257.012 354.042,250.345 354.5,243.5 Z M 362.5,252.5 C 364.01,253.836 365.677,255.003 367.5,256C 364.428,256.8 362.761,255.633 362.5,252.5 Z"/></g>
<g><path style="opacity:0.563" fill="#e2694c" d="M 106.5,239.5 C 110.675,239.188 114.675,239.855 118.5,241.5C 118.868,245.976 119.368,250.31 120,254.5C 120.195,249.582 120.695,244.749 121.5,240C 128.385,238.902 135.051,239.569 141.5,242C 145.099,245.681 145.432,249.681 142.5,254C 143.667,256.167 144.833,258.333 146,260.5C 148.791,253.445 151.958,246.612 155.5,240C 159.317,238.977 162.817,239.477 166,241.5C 168.667,247.5 171.333,253.5 174,259.5C 174.187,252.919 174.687,246.419 175.5,240C 182.036,238.989 188.369,239.656 194.5,242C 195.333,242.833 196.167,243.667 197,244.5C 197.273,242.671 198.107,241.171 199.5,240C 202.5,239.333 205.5,239.333 208.5,240C 209.435,242.381 209.768,244.881 209.5,247.5C 211.167,247.5 212.833,247.5 214.5,247.5C 214.337,245.143 214.503,242.81 215,240.5C 218.892,238.933 222.558,239.267 226,241.5C 226.167,243.167 226.333,244.833 226.5,246.5C 225.57,252.743 225.237,258.909 225.5,265C 217.279,268.88 213.612,266.38 214.5,257.5C 212.833,257.5 211.167,257.5 209.5,257.5C 209.663,259.857 209.497,262.19 209,264.5C 198.636,268.484 194.636,264.817 197,253.5C 194.087,256.373 190.587,257.706 186.5,257.5C 186.663,259.857 186.497,262.19 186,264.5C 184.915,265.293 183.748,265.96 182.5,266.5C 177.206,265.825 171.872,265.658 166.5,266C 162.413,261.484 158.413,261.484 154.5,266C 149.167,266.667 143.833,266.667 138.5,266C 136.094,264.378 134.261,262.211 133,259.5C 132.749,261.433 132.249,263.266 131.5,265C 128.167,265.667 124.833,265.667 121.5,265C 120.736,262.931 120.236,260.764 120,258.5C 119.764,260.764 119.264,262.931 118.5,265C 111.049,267.309 104.216,266.143 98,261.5C 92.3512,250.931 95.1845,243.598 106.5,239.5 Z M 108.5,248.5 C 115.531,248.519 115.864,249.019 109.5,250C 108.283,251.648 107.45,253.481 107,255.5C 106.167,252.829 106.667,250.496 108.5,248.5 Z M 133.5,244.5 C 137.313,242.571 139.646,243.738 140.5,248C 140.318,250.343 139.318,252.176 137.5,253.5C 139.459,255.554 140.959,257.887 142,260.5C 142.12,264.011 140.786,264.345 138,261.5C 136.802,258.274 134.969,255.441 132.5,253C 137.356,250.468 137.689,247.635 133.5,244.5 Z M 219.5,242.5 C 220.15,242.804 220.817,243.137 221.5,243.5C 222.496,249.798 222.83,256.132 222.5,262.5C 220.833,262.5 219.167,262.5 217.5,262.5C 217.5,259.833 217.5,257.167 217.5,254.5C 213.833,254.5 210.167,254.5 206.5,254.5C 206.813,257.247 206.48,259.914 205.5,262.5C 204.28,263.711 203.113,263.711 202,262.5C 201.5,256.175 201.334,249.842 201.5,243.5C 203.144,243.286 204.644,243.62 206,244.5C 205.556,249.441 207.723,251.775 212.5,251.5C 214.1,251.449 215.6,251.116 217,250.5C 217.117,247.496 217.951,244.829 219.5,242.5 Z M 178.5,242.5 C 183.232,242.378 187.898,242.878 192.5,244C 195.167,247 195.167,250 192.5,253C 189.133,253.8 185.966,254.966 183,256.5C 182.667,258.5 182.333,260.5 182,262.5C 181,263.833 180,263.833 179,262.5C 178.342,260.2 177.842,257.867 177.5,255.5C 178.297,251.202 178.63,246.868 178.5,242.5 Z M 158.5,242.5 C 160.722,242.178 162.556,242.845 164,244.5C 166,249.167 168,253.833 170,258.5C 170.662,264.608 169.162,265.108 165.5,260C 163.833,259.833 162.167,259.667 160.5,259.5C 156.662,260.035 152.995,261.035 149.5,262.5C 151.452,255.271 154.452,248.604 158.5,242.5 Z M 124.5,242.5 C 126.604,242.201 128.604,242.534 130.5,243.5C 127.54,247.122 127.873,250.289 131.5,253C 130.333,253.5 129.5,254.333 129,255.5C 128.667,257.833 128.333,260.167 128,262.5C 126.667,263.833 125.333,263.833 124,262.5C 123.208,255.753 123.374,249.086 124.5,242.5 Z M 106.5,242.5 C 109.807,242.063 112.807,242.73 115.5,244.5C 106.927,244.235 103.093,248.235 104,256.5C 105.907,260.01 108.74,261.176 112.5,260C 113.866,257.618 113.533,255.452 111.5,253.5C 112.723,252.386 114.056,252.219 115.5,253C 116.451,256.057 116.784,259.223 116.5,262.5C 110.39,264.551 104.89,263.551 100,259.5C 96.3657,251.39 98.5323,245.723 106.5,242.5 Z"/></g>
<g><path style="opacity:0.855" fill="#e27150" d="M 184.5,244.5 C 190.02,245.044 191.354,247.544 188.5,252C 182.202,252.495 180.868,249.995 184.5,244.5 Z"/></g>
<g><path style="opacity:0.91" fill="#e56444" d="M 285.5,247.5 C 286.675,247.281 287.675,247.614 288.5,248.5C 289.407,251.057 290.407,253.557 291.5,256C 289.063,257.375 286.397,257.875 283.5,257.5C 283.576,254.027 284.242,250.694 285.5,247.5 Z"/></g>
<g><path style="opacity:0.657" fill="#e76545" d="M 159.5,247.5 C 160.376,247.369 161.043,247.702 161.5,248.5C 162.5,251.167 163.5,253.833 164.5,256.5C 161.914,257.48 159.247,257.813 156.5,257.5C 156.698,253.908 157.698,250.574 159.5,247.5 Z"/></g>
<g><path style="opacity:0.935" fill="#de6045" d="M 228.5,274.5 C 231.518,274.335 234.518,274.502 237.5,275C 238.288,278.076 238.788,281.242 239,284.5C 244.225,274.142 251.892,271.808 262,277.5C 264.323,286.366 261.823,288.366 254.5,283.5C 250.601,284.819 249.601,287.319 251.5,291C 254.916,291.893 258.083,291.393 261,289.5C 262.557,292.294 262.89,295.294 262,298.5C 252.475,303.659 244.808,301.659 239,292.5C 240.205,301.219 236.705,303.885 228.5,300.5C 227.198,291.774 227.198,283.108 228.5,274.5 Z M 230.5,278.5 C 232.167,278.5 233.833,278.5 235.5,278.5C 235.666,284.842 235.5,291.175 235,297.5C 233.644,298.38 232.144,298.714 230.5,298.5C 230.5,291.833 230.5,285.167 230.5,278.5 Z M 251.5,277.5 C 253.806,277.993 256.139,278.326 258.5,278.5C 258.5,279.5 258.5,280.5 258.5,281.5C 252.43,279.516 248.43,281.516 246.5,287.5C 248.196,293.943 252.196,296.276 258.5,294.5C 258.5,295.5 258.5,296.5 258.5,297.5C 244.733,299.585 239.899,294.252 244,281.5C 246.255,279.501 248.755,278.168 251.5,277.5 Z"/></g>
<g><path style="opacity:0.932" fill="#df6246" d="M 282.5,274.5 C 285.518,274.335 288.518,274.502 291.5,275C 295.326,281.487 298.492,288.321 301,295.5C 301.186,288.586 301.686,281.753 302.5,275C 308.891,274.242 315.224,274.576 321.5,276C 325.913,279.737 326.58,284.07 323.5,289C 325.03,292.561 326.697,296.061 328.5,299.5C 321.141,303.401 316.308,301.401 314,293.5C 312.957,295.701 312.123,298.034 311.5,300.5C 310.833,300.833 310.167,301.167 309.5,301.5C 305.236,300.375 300.736,300.375 296,301.5C 292.749,300.544 289.749,299.21 287,297.5C 284.443,297.581 282.61,298.747 281.5,301C 278.438,301.741 275.438,301.575 272.5,300.5C 271.628,298.534 271.795,296.534 273,294.5C 275.924,287.655 279.09,280.988 282.5,274.5 Z M 305.5,278.5 C 307.527,278.338 309.527,278.505 311.5,279C 309.556,281.153 309.056,283.653 310,286.5C 315.885,288.447 318.052,286.447 316.5,280.5C 315.624,279.749 314.624,279.249 313.5,279C 317.858,277.541 320.858,278.874 322.5,283C 321.36,284.973 320.027,286.807 318.5,288.5C 321.773,291.047 323.44,294.38 323.5,298.5C 322.448,298.649 321.448,298.483 320.5,298C 318.623,295.749 317.123,293.249 316,290.5C 314.267,288.398 312.267,288.065 310,289.5C 309.667,292.167 309.333,294.833 309,297.5C 307.887,298.711 306.72,298.711 305.5,297.5C 304.21,291.112 304.21,284.778 305.5,278.5 Z M 283.5,278.5 C 286.119,278.232 288.619,278.565 291,279.5C 293.309,285.432 295.809,291.266 298.5,297C 295.967,297.852 293.967,297.186 292.5,295C 288.833,294.333 285.167,294.333 281.5,295C 280.383,296.892 278.716,297.725 276.5,297.5C 278.548,291.068 280.882,284.735 283.5,278.5 Z"/></g>
<g><path style="opacity:0.933" fill="#e2613e" d="M 285.5,282.5 C 286.675,282.281 287.675,282.614 288.5,283.5C 289.407,286.057 290.407,288.557 291.5,291C 288.5,293 285.5,293 282.5,291C 283.798,288.273 284.798,285.44 285.5,282.5 Z"/></g>
<g><path style="opacity:0.931" fill="#e26a4d" d="M 327.5,274.5 C 338.597,274.674 349.597,274.841 360.5,275C 361.893,276.171 362.727,277.671 363,279.5C 364.719,276.08 367.552,274.414 371.5,274.5C 373.95,274.761 376.283,275.428 378.5,276.5C 379.308,276.192 379.975,275.692 380.5,275C 387.833,274.333 395.167,274.333 402.5,275C 406.093,280.32 404.76,283.487 398.5,284.5C 397.671,289.467 397.171,294.467 397,299.5C 394.539,300.218 392.039,300.885 389.5,301.5C 388.833,301.167 388.167,300.833 387.5,300.5C 387.101,294.739 386.101,289.239 384.5,284C 381.51,283.332 379.51,284.498 378.5,287.5C 382.382,295.66 379.715,300.327 370.5,301.5C 367.749,301.146 365.083,300.479 362.5,299.5C 358.916,301.877 355.25,302.043 351.5,300C 350.691,294.583 350.191,289.083 350,283.5C 348.301,284.406 346.467,284.739 344.5,284.5C 344.828,289.875 344.495,295.208 343.5,300.5C 339.81,301.996 336.31,301.663 333,299.5C 332.501,294.511 332.334,289.511 332.5,284.5C 330.5,284.167 328.5,283.833 326.5,283.5C 326.682,281.409 326.348,279.409 325.5,277.5C 326.193,276.482 326.859,275.482 327.5,274.5 Z M 382.5,278.5 C 388.537,278.171 394.537,278.504 400.5,279.5C 398.892,280.318 397.225,280.985 395.5,281.5C 394.812,287.052 394.146,292.552 393.5,298C 392.216,298.684 391.049,298.517 390,297.5C 389.85,292.428 389.683,287.428 389.5,282.5C 386.862,281.417 384.529,280.084 382.5,278.5 Z M 354.5,278.5 C 355.833,278.5 357.167,278.5 358.5,278.5C 358.666,284.842 358.5,291.175 358,297.5C 357.586,297.957 357.086,298.291 356.5,298.5C 354.758,296.594 353.758,294.26 353.5,291.5C 354.135,287.103 354.469,282.77 354.5,278.5 Z M 329.5,278.5 C 335.537,278.171 341.537,278.504 347.5,279.5C 345.659,280.23 343.825,280.897 342,281.5C 341.667,286.5 341.333,291.5 341,296.5C 340.072,298.335 338.906,298.668 337.5,297.5C 336.671,292.533 336.171,287.533 336,282.5C 333.575,281.357 331.408,280.024 329.5,278.5 Z M 370.5,277.5 C 372.936,277.749 374.936,278.749 376.5,280.5C 374.979,280.88 373.313,281.046 371.5,281C 370.643,281.689 369.977,282.522 369.5,283.5C 371.522,286.356 374.022,288.689 377,290.5C 378.042,295.634 375.876,298.301 370.5,298.5C 367.729,298.616 365.729,297.449 364.5,295C 366.443,295.305 368.443,295.305 370.5,295C 371.516,294.481 372.182,293.647 372.5,292.5C 370.611,290.087 368.444,287.754 366,285.5C 364.797,281.222 366.297,278.556 370.5,277.5 Z M 361.5,287.5 C 364.116,288.48 366.449,289.98 368.5,292C 366.243,291.563 363.91,291.063 361.5,290.5C 361.5,289.5 361.5,288.5 361.5,287.5 Z"/></g>
<g><path style="opacity:0.898" fill="#e06749" d="M 106.5,274.5 C 110.675,274.188 114.675,274.855 118.5,276.5C 119.324,279.785 119.824,283.118 120,286.5C 120.203,282.579 120.703,278.745 121.5,275C 127.902,274.182 134.235,274.516 140.5,276C 144.85,279.583 145.517,283.749 142.5,288.5C 143.577,290.912 144.744,293.246 146,295.5C 148.791,288.445 151.958,281.612 155.5,275C 158.894,274.248 162.227,274.415 165.5,275.5C 168.816,281.615 171.65,287.948 174,294.5C 174.187,287.919 174.687,281.419 175.5,275C 181.569,274.196 187.569,274.529 193.5,276C 194.667,277.167 195.833,278.333 197,279.5C 197.273,277.671 198.107,276.171 199.5,275C 202.5,274.333 205.5,274.333 208.5,275C 209.274,277.405 209.774,279.905 210,282.5C 211.333,283.833 212.667,283.833 214,282.5C 214.226,279.905 214.726,277.405 215.5,275C 219.317,273.977 222.817,274.477 226,276.5C 226.667,284.167 226.667,291.833 226,299.5C 222.692,301.993 219.192,302.159 215.5,300C 214.565,297.619 214.232,295.119 214.5,292.5C 212.833,292.5 211.167,292.5 209.5,292.5C 210.079,301.621 206.246,303.954 198,299.5C 197.393,296.798 197.56,294.132 198.5,291.5C 198.444,290.263 197.944,289.263 197,288.5C 194.087,291.373 190.587,292.706 186.5,292.5C 186.663,294.857 186.497,297.19 186,299.5C 184.527,301.007 182.693,301.674 180.5,301.5C 175.91,301.146 171.243,300.979 166.5,301C 164.771,299.073 162.605,297.907 160,297.5C 157.339,298.792 154.672,300.125 152,301.5C 147.867,301.433 143.7,301.433 139.5,301.5C 136.433,300.053 134.266,297.72 133,294.5C 132.868,300.954 129.702,303.121 123.5,301C 122.069,300.535 120.903,299.701 120,298.5C 111.646,303.053 103.979,302.053 97,295.5C 92.9495,285.131 96.1161,278.131 106.5,274.5 Z M 108.5,283.5 C 115.531,283.519 115.864,284.019 109.5,285C 108.897,286.825 108.23,288.659 107.5,290.5C 106.154,287.9 106.488,285.567 108.5,283.5 Z M 201.5,278.5 C 203.144,278.286 204.644,278.62 206,279.5C 206.236,281.764 206.736,283.931 207.5,286C 210.76,286.784 213.927,286.617 217,285.5C 217.497,283.19 217.663,280.857 217.5,278.5C 219.167,278.5 220.833,278.5 222.5,278.5C 222.5,284.833 222.5,291.167 222.5,297.5C 220.833,297.5 219.167,297.5 217.5,297.5C 217.5,294.833 217.5,292.167 217.5,289.5C 213.833,289.5 210.167,289.5 206.5,289.5C 206.813,292.247 206.48,294.914 205.5,297.5C 204.28,298.711 203.113,298.711 202,297.5C 201.5,291.175 201.334,284.842 201.5,278.5 Z M 178.5,278.5 C 182.846,278.334 187.179,278.501 191.5,279C 194.379,280.666 195.212,283.166 194,286.5C 190.493,288.578 186.826,290.245 183,291.5C 182.503,293.81 182.337,296.143 182.5,298.5C 181.167,298.5 179.833,298.5 178.5,298.5C 178.027,291.724 178.027,285.058 178.5,278.5 Z M 156.5,278.5 C 159.119,278.232 161.619,278.565 164,279.5C 166.113,285.553 168.613,291.386 171.5,297C 168.967,297.852 166.967,297.186 165.5,295C 163.667,294.833 161.833,294.667 160,294.5C 156.208,294.973 152.708,295.973 149.5,297.5C 151.548,291.068 153.882,284.735 156.5,278.5 Z M 123.5,278.5 C 125.604,278.201 127.604,278.534 129.5,279.5C 126.947,287.12 129.113,289.12 136,285.5C 136.896,282.975 136.396,280.808 134.5,279C 139.59,278.171 141.424,280.338 140,285.5C 138.978,286.354 138.145,287.354 137.5,288.5C 140.401,291.295 141.901,294.628 142,298.5C 141.333,297.167 140.667,297.167 140,298.5C 138.414,296.33 137.08,293.996 136,291.5C 133.892,288.21 131.559,287.877 129,290.5C 128.667,292.833 128.333,295.167 128,297.5C 126.667,297.5 125.333,297.5 124,297.5C 123.5,291.175 123.334,284.842 123.5,278.5 Z M 107.5,277.5 C 110.753,277.562 113.753,278.396 116.5,280C 109.289,278.598 104.622,281.265 102.5,288C 103.998,293.19 107.331,295.523 112.5,295C 113.866,292.618 113.533,290.452 111.5,288.5C 112.723,287.386 114.056,287.219 115.5,288C 116.451,291.057 116.784,294.223 116.5,297.5C 111.272,299.288 106.272,298.788 101.5,296C 95.9568,287.202 97.9568,281.035 107.5,277.5 Z"/></g>
<g><path style="opacity:0.824" fill="#e86849" d="M 184.5,279.5 C 190.02,280.044 191.354,282.544 188.5,287C 182.158,287.592 180.824,285.092 184.5,279.5 Z"/></g>
<g><path style="opacity:0.8" fill="#e76643" d="M 158.5,282.5 C 159.675,282.281 160.675,282.614 161.5,283.5C 162.794,285.88 163.794,288.38 164.5,291C 163.788,292.442 162.621,293.275 161,293.5C 159.56,292.852 158.06,292.519 156.5,292.5C 156.959,289.123 157.626,285.789 158.5,282.5 Z"/></g>
<g><path style="opacity:0.959" fill="#df6844" d="M 386.5,321.5 C 387.224,325.365 387.891,329.365 388.5,333.5C 390.396,334.466 392.396,334.799 394.5,334.5C 394.5,328.833 394.5,323.167 394.5,317.5C 397.167,317.167 399.833,316.833 402.5,316.5C 402.5,315.167 402.5,313.833 402.5,312.5C 395.833,312.5 389.167,312.5 382.5,312.5C 382.5,313.833 382.5,315.167 382.5,316.5C 383.93,316.421 385.264,316.754 386.5,317.5C 387.773,318.257 387.773,318.923 386.5,319.5C 385.003,318.694 383.336,318.028 381.5,317.5C 380.526,315.257 380.192,312.924 380.5,310.5C 387.841,310.334 395.174,310.5 402.5,311C 405.158,317.156 403.158,319.656 396.5,318.5C 396.807,324.093 396.473,329.593 395.5,335C 392.571,335.777 389.737,335.61 387,334.5C 386.501,330.179 386.334,325.846 386.5,321.5 Z"/></g>
<g><path style="opacity:1" fill="#f26543" d="M 228.5,310.5 C 231.5,310.5 234.5,310.5 237.5,310.5C 237.33,311.822 237.663,312.989 238.5,314C 237.686,320.753 237.186,327.586 237,334.5C 233.461,336.138 230.294,335.638 227.5,333C 228.317,325.472 228.65,317.972 228.5,310.5 Z"/></g>
<g><path style="opacity:1" fill="#f36443" d="M 248.5,310.5 C 252.637,310.146 256.637,310.646 260.5,312C 261.435,314.381 261.768,316.881 261.5,319.5C 258.183,318.779 254.849,318.612 251.5,319C 248.833,321.667 248.833,324.333 251.5,327C 254.849,327.388 258.183,327.221 261.5,326.5C 261.663,328.857 261.497,331.19 261,333.5C 253.333,337.094 246.666,335.76 241,329.5C 237.743,320.756 240.243,314.423 248.5,310.5 Z"/></g>
<g><path style="opacity:1" fill="#f56242" d="M 176.5,310.5 C 181.511,310.334 186.511,310.501 191.5,311C 197.098,313.695 198.598,317.862 196,323.5C 192.965,325.97 189.465,327.304 185.5,327.5C 186.84,335.234 183.84,337.568 176.5,334.5C 175.201,326.442 175.201,318.442 176.5,310.5 Z M 185.5,317.5 C 187.465,317.948 187.798,318.948 186.5,320.5C 185.614,319.675 185.281,318.675 185.5,317.5 Z"/></g>
<g><path style="opacity:1" fill="#f46341" d="M 327.5,310.5 C 334.841,310.334 342.174,310.5 349.5,311C 351.638,316.72 349.638,319.22 343.5,318.5C 343.666,323.844 343.499,329.177 343,334.5C 340,335.833 337,335.833 334,334.5C 333.501,329.177 333.334,323.844 333.5,318.5C 327.602,318.614 325.602,315.947 327.5,310.5 Z"/></g>
<g><path style="opacity:1" fill="#f26343" d="M 351.5,310.5 C 354.777,310.216 357.943,310.549 361,311.5C 360.637,319.454 360.47,327.454 360.5,335.5C 357.552,335.777 354.719,335.444 352,334.5C 351.5,326.507 351.334,318.507 351.5,310.5 Z"/></g>
<g><path style="opacity:1" fill="#f46343" d="M 199.5,310.5 C 202.187,310.336 204.854,310.503 207.5,311C 208.435,313.381 208.768,315.881 208.5,318.5C 210.833,318.5 213.167,318.5 215.5,318.5C 215.5,315.833 215.5,313.167 215.5,310.5C 218.518,310.335 221.518,310.502 224.5,311C 225.059,311.725 225.392,312.558 225.5,313.5C 224.379,320.314 224.212,327.314 225,334.5C 216.842,337.826 213.676,335.159 215.5,326.5C 213.167,326.5 210.833,326.5 208.5,326.5C 210.324,335.159 207.158,337.826 199,334.5C 198.2,326.421 198.367,318.421 199.5,310.5 Z"/></g>
<g><path style="opacity:1" fill="#f46444" d="M 367.5,310.5 C 371.839,309.846 375.673,310.846 379,313.5C 379.851,316.053 379.518,318.386 378,320.5C 376.401,318.964 374.567,318.464 372.5,319C 374.641,320.308 376.641,321.808 378.5,323.5C 381.862,328.864 380.529,332.697 374.5,335C 370.428,335.956 366.595,335.456 363,333.5C 362.503,331.19 362.337,328.857 362.5,326.5C 364.827,326.247 366.827,326.914 368.5,328.5C 368.833,328.167 369.167,327.833 369.5,327.5C 361.448,322.439 360.782,316.773 367.5,310.5 Z"/></g>
<g><path style="opacity:1" fill="#fc6240" d="M 320.5,311.5 C 321.167,311.5 321.5,311.833 321.5,312.5C 321.594,318.697 322.094,324.697 323,330.5C 322.282,331.451 321.449,331.617 320.5,331C 319.359,329.383 318.526,327.55 318,325.5C 317.667,326.833 317.333,328.167 317,329.5C 316.484,326.966 315.317,324.8 313.5,323C 314.167,322.667 314.833,322.333 315.5,322C 314.584,321.722 313.918,321.222 313.5,320.5C 313.5,319.833 313.833,319.5 314.5,319.5C 317.099,317.416 316.599,315.749 313,314.5C 310.393,316.704 309.893,319.371 311.5,322.5C 310.511,323.468 309.844,324.635 309.5,326C 310.332,328.478 310.499,330.978 310,333.5C 308.615,332.449 307.615,331.116 307,329.5C 306.581,330.672 305.915,331.672 305,332.5C 304.5,325.842 304.334,319.175 304.5,312.5C 310.026,312.821 315.36,312.488 320.5,311.5 Z M 314.5,319.5 C 313.833,319.5 313.5,319.833 313.5,320.5C 312.218,319.292 312.218,317.958 313.5,316.5C 315.519,317.133 315.853,318.133 314.5,319.5 Z"/></g>
<g><path style="opacity:1" fill="#f36544" d="M 104.5,310.5 C 109.214,310.353 113.881,310.686 118.5,311.5C 120.134,318.887 117.801,320.887 111.5,317.5C 104.894,319.265 103.894,322.598 108.5,327.5C 108.347,325.5 108.68,323.333 109.5,321C 111,320.833 112.5,320.667 114,320.5C 115.981,320.629 117.647,321.296 119,322.5C 119.667,326.167 119.667,329.833 119,333.5C 112.879,336.149 106.712,335.982 100.5,333C 93.1475,323.931 94.4808,316.431 104.5,310.5 Z"/></g>
<g><path style="opacity:1" fill="#fc6341" d="M 386.5,321.5 C 386.5,320.833 386.5,320.167 386.5,319.5C 387.773,318.923 387.773,318.257 386.5,317.5C 385.264,316.754 383.93,316.421 382.5,316.5C 382.5,315.167 382.5,313.833 382.5,312.5C 389.167,312.5 395.833,312.5 402.5,312.5C 402.5,313.833 402.5,315.167 402.5,316.5C 399.833,316.833 397.167,317.167 394.5,317.5C 394.5,323.167 394.5,328.833 394.5,334.5C 392.396,334.799 390.396,334.466 388.5,333.5C 387.891,329.365 387.224,325.365 386.5,321.5 Z"/></g>
<g><path style="opacity:1" fill="#f66442" d="M 282.5,310.5 C 285.777,310.216 288.943,310.549 292,311.5C 295.069,318.874 298.236,326.208 301.5,333.5C 301.291,334.086 300.957,334.586 300.5,335C 296.372,336.281 293.039,335.281 290.5,332C 286.541,330.638 283.541,331.638 281.5,335C 278.571,335.777 275.737,335.61 273,334.5C 275.651,326.397 278.818,318.397 282.5,310.5 Z M 286.5,322.5 C 287.267,323.172 287.934,324.005 288.5,325C 286.939,325.188 286.272,324.355 286.5,322.5 Z"/></g>
<g><path style="opacity:1" fill="#ec6646" d="M 320.5,311.5 C 315.36,312.488 310.026,312.821 304.5,312.5C 304.334,319.175 304.5,325.842 305,332.5C 305.915,331.672 306.581,330.672 307,329.5C 307.615,331.116 308.615,332.449 310,333.5C 310.499,330.978 310.332,328.478 309.5,326C 309.844,324.635 310.511,323.468 311.5,322.5C 309.893,319.371 310.393,316.704 313,314.5C 316.599,315.749 317.099,317.416 314.5,319.5C 315.853,318.133 315.519,317.133 313.5,316.5C 312.218,317.958 312.218,319.292 313.5,320.5C 313.918,321.222 314.584,321.722 315.5,322C 314.833,322.333 314.167,322.667 313.5,323C 315.317,324.8 316.484,326.966 317,329.5C 317.333,328.167 317.667,326.833 318,325.5C 318.526,327.55 319.359,329.383 320.5,331C 321.449,331.617 322.282,331.451 323,330.5C 322.094,324.697 321.594,318.697 321.5,312.5C 325.133,315.893 325.467,319.726 322.5,324C 323.971,327.403 325.638,330.737 327.5,334C 324.706,335.557 321.706,335.89 318.5,335C 316.959,332.084 315.293,329.251 313.5,326.5C 314.525,334.817 311.192,337.484 303.5,334.5C 302.335,326.855 302.169,319.188 303,311.5C 308.802,310.229 314.636,310.229 320.5,311.5 Z M 314.5,319.5 C 313.833,319.5 313.5,319.833 313.5,320.5C 312.218,319.292 312.218,317.958 313.5,316.5C 315.519,317.133 315.853,318.133 314.5,319.5 Z"/></g>
<g><path style="opacity:0.613" fill="#f46443" d="M 122.5,310.5 C 128.593,310.139 134.593,310.639 140.5,312C 144.074,315.524 144.407,319.358 141.5,323.5C 143,326.5 144.5,329.5 146,332.5C 149.275,325.616 152.275,318.616 155,311.5C 158.073,310.383 161.24,310.216 164.5,311C 168.307,318.24 171.64,325.74 174.5,333.5C 174.291,334.086 173.957,334.586 173.5,335C 170.833,335.667 168.167,335.667 165.5,335C 163.459,331.638 160.459,330.638 156.5,332C 155.833,333 155.167,334 154.5,335C 148.833,334.333 143.167,334.333 137.5,335C 136.04,331.911 134.207,329.078 132,326.5C 131.782,329.426 131.282,332.26 130.5,335C 127.833,335.667 125.167,335.667 122.5,335C 121.181,326.833 121.181,318.667 122.5,310.5 Z M 159.5,322.5 C 161.332,323.14 161.665,324.14 160.5,325.5C 159.614,324.675 159.281,323.675 159.5,322.5 Z M 131.5,316.5 C 135.337,317.203 135.503,318.536 132,320.5C 131.51,319.207 131.343,317.873 131.5,316.5 Z"/></g>
<g><path style="opacity:1" fill="#e66c51" d="M 350.5,356.5 C 351.319,359.305 351.819,362.305 352,365.5C 352.77,366.598 353.603,366.598 354.5,365.5C 354.5,366.833 354.5,368.167 354.5,369.5C 355.833,369.5 357.167,369.5 358.5,369.5C 358.5,362.833 358.5,356.167 358.5,349.5C 359.531,351.961 360.198,354.627 360.5,357.5C 361.791,357.263 362.791,357.596 363.5,358.5C 362.662,358.842 362.328,359.508 362.5,360.5C 361.883,360.611 361.383,360.944 361,361.5C 360.503,364.146 360.336,366.813 360.5,369.5C 362.292,369.634 363.958,369.301 365.5,368.5C 369.783,370.259 373.617,369.592 377,366.5C 377.667,364.833 377.667,363.167 377,361.5C 373.996,359.661 371.496,357.327 369.5,354.5C 371.483,352.976 373.816,351.976 376.5,351.5C 373.28,348.9 369.947,348.9 366.5,351.5C 365.306,353.516 365.306,355.516 366.5,357.5C 366.19,358.738 365.69,358.738 365,357.5C 364.505,355.527 364.338,353.527 364.5,351.5C 363.5,351.5 362.5,351.5 361.5,351.5C 361.263,350.209 361.596,349.209 362.5,348.5C 362.859,350.831 363.526,350.665 364.5,348C 369.049,344.854 373.716,344.687 378.5,347.5C 379.5,347 380.5,346.5 381.5,346C 388.94,345.072 396.274,345.406 403.5,347C 404.591,349.064 404.758,351.231 404,353.5C 401.763,354.056 399.763,355.056 398,356.5C 397.805,361.418 397.305,366.251 396.5,371C 394.109,371.287 391.776,371.787 389.5,372.5C 388.833,372.167 388.167,371.833 387.5,371.5C 386.671,366.533 386.171,361.533 386,356.5C 384.667,355.833 383.333,355.167 382,354.5C 381.021,356.32 379.521,357.487 377.5,358C 381.751,362.669 381.418,367.003 376.5,371C 371.727,373.152 367.061,372.985 362.5,370.5C 358.633,373.133 354.799,373.133 351,370.5C 350.501,365.845 350.334,361.179 350.5,356.5 Z M 365.5,368.5 C 366.949,366.836 368.949,366.002 371.5,366C 372.554,364.612 372.72,363.112 372,361.5C 370.008,360.335 368.175,359.002 366.5,357.5C 365.306,355.516 365.306,353.516 366.5,351.5C 369.947,348.9 373.28,348.9 376.5,351.5C 373.816,351.976 371.483,352.976 369.5,354.5C 371.496,357.327 373.996,359.661 377,361.5C 377.667,363.167 377.667,364.833 377,366.5C 373.617,369.592 369.783,370.259 365.5,368.5 Z M 383.5,349.5 C 389.167,349.5 394.833,349.5 400.5,349.5C 400.5,350.5 400.5,351.5 400.5,352.5C 398.5,352.5 396.5,352.5 394.5,352.5C 394.5,358.167 394.5,363.833 394.5,369.5C 392.856,369.714 391.356,369.38 390,368.5C 389.233,364.442 389.4,360.442 390.5,356.5C 389,353.142 386.333,351.309 382.5,351C 383.056,350.617 383.389,350.117 383.5,349.5 Z M 363.5,358.5 C 364.527,360.194 365.861,361.527 367.5,362.5C 365.447,362.598 363.78,361.931 362.5,360.5C 362.328,359.508 362.662,358.842 363.5,358.5 Z"/></g>
<g><path style="opacity:0.976" fill="#ea6346" d="M 362.5,348.5 C 361.596,349.209 361.263,350.209 361.5,351.5C 362.5,351.5 363.5,351.5 364.5,351.5C 364.338,353.527 364.505,355.527 365,357.5C 365.69,358.738 366.19,358.738 366.5,357.5C 368.175,359.002 370.008,360.335 372,361.5C 372.72,363.112 372.554,364.612 371.5,366C 368.949,366.002 366.949,366.836 365.5,368.5C 363.958,369.301 362.292,369.634 360.5,369.5C 360.336,366.813 360.503,364.146 361,361.5C 361.383,360.944 361.883,360.611 362.5,360.5C 363.78,361.931 365.447,362.598 367.5,362.5C 365.861,361.527 364.527,360.194 363.5,358.5C 362.791,357.596 361.791,357.263 360.5,357.5C 360.198,354.627 359.531,351.961 358.5,349.5C 356.549,349.227 355.049,349.893 354,351.5C 353.716,356.406 353.883,361.073 354.5,365.5C 353.603,366.598 352.77,366.598 352,365.5C 351.819,362.305 351.319,359.305 350.5,356.5C 350.631,355.761 350.464,355.094 350,354.5C 348.612,354.214 347.112,354.548 345.5,355.5C 344.167,354.5 344.167,353.5 345.5,352.5C 346.478,352.189 347.145,351.522 347.5,350.5C 341.5,349.167 335.5,349.167 329.5,350.5C 330.602,351.176 331.602,351.842 332.5,352.5C 332.027,353.906 331.027,354.573 329.5,354.5C 328.5,354.5 327.5,354.5 326.5,354.5C 326.682,352.409 326.348,350.409 325.5,348.5C 325.977,347.522 326.643,346.689 327.5,346C 338.767,345.992 349.767,345.992 360.5,346C 361.381,346.708 362.047,347.542 362.5,348.5 Z M 363.5,358.5 C 364.527,360.194 365.861,361.527 367.5,362.5C 365.447,362.598 363.78,361.931 362.5,360.5C 362.328,359.508 362.662,358.842 363.5,358.5 Z"/></g>
<g><path style="opacity:0.859" fill="#df654b" d="M 228.5,345.5 C 231.518,345.335 234.518,345.502 237.5,346C 238.288,349.076 238.788,352.242 239,355.5C 243.392,346.03 250.559,343.197 260.5,347C 262.471,349.865 263.137,352.865 262.5,356C 262,356.5 261.5,357 261,357.5C 257.729,354.708 254.396,354.375 251,356.5C 250.257,358.441 250.424,360.274 251.5,362C 254.877,362.369 258.21,362.369 261.5,362C 264.237,368.191 262.237,371.525 255.5,372C 248.037,373.019 242.537,370.185 239,363.5C 240.205,372.219 236.705,374.885 228.5,371.5C 227.198,362.774 227.198,354.108 228.5,345.5 Z M 248.5,349.5 C 251.518,349.335 254.518,349.502 257.5,350C 257.957,350.414 258.291,350.914 258.5,351.5C 255.553,352.321 252.553,352.821 249.5,353C 245.299,357.392 245.633,361.392 250.5,365C 253.121,365.939 255.788,366.772 258.5,367.5C 246.562,371.401 241.395,367.068 243,354.5C 244.352,352.251 246.185,350.584 248.5,349.5 Z M 230.5,349.5 C 232.451,349.227 233.951,349.893 235,351.5C 235.667,357.167 235.667,362.833 235,368.5C 233.644,369.38 232.144,369.714 230.5,369.5C 230.5,362.833 230.5,356.167 230.5,349.5 Z"/></g>
<g><path style="opacity:0.718" fill="#e3674b" d="M 282.5,345.5 C 285.518,345.335 288.518,345.502 291.5,346C 295.051,352.27 298.218,358.77 301,365.5C 301.187,358.919 301.687,352.419 302.5,346C 309.329,345.227 315.995,345.893 322.5,348C 326.099,351.681 326.432,355.681 323.5,360C 325.484,363.776 326.984,367.61 328,371.5C 324.927,372.617 321.76,372.784 318.5,372C 316.628,369.707 315.128,367.207 314,364.5C 313.816,367.119 312.983,369.619 311.5,372C 305.167,371.333 298.833,371.333 292.5,372C 288.833,367.333 285.167,367.333 281.5,372C 278.438,372.741 275.438,372.575 272.5,371.5C 271.417,370.635 271.251,369.635 272,368.5C 275.03,360.559 278.53,352.892 282.5,345.5 Z M 314.5,350.5 C 318.328,348.651 320.994,349.818 322.5,354C 321.604,356.179 320.271,358.012 318.5,359.5C 321.238,362.309 322.904,365.642 323.5,369.5C 321.61,369.703 320.11,369.037 319,367.5C 317.789,364.241 315.956,361.408 313.5,359C 318.356,356.468 318.689,353.635 314.5,350.5 Z M 305.5,349.5 C 307.288,349.215 308.955,349.548 310.5,350.5C 308.672,354.087 309.339,356.921 312.5,359C 311.584,359.374 310.75,359.874 310,360.5C 309.502,363.482 309.335,366.482 309.5,369.5C 308.07,369.579 306.736,369.246 305.5,368.5C 304.21,362.112 304.21,355.778 305.5,349.5 Z M 284.5,349.5 C 286.604,349.201 288.604,349.534 290.5,350.5C 293.696,356.657 296.029,362.823 297.5,369C 294.395,367.257 290.895,366.09 287,365.5C 285.167,365.667 283.333,365.833 281.5,366C 278.682,370.625 277.182,370.458 277,365.5C 279.257,359.989 281.757,354.656 284.5,349.5 Z"/></g>
<g><path style="opacity:1" fill="#e46346" d="M 285.5,353.5 C 286.675,353.281 287.675,353.614 288.5,354.5C 289.407,357.057 290.407,359.557 291.5,362C 288.5,364 285.5,364 282.5,362C 283.798,359.273 284.798,356.44 285.5,353.5 Z"/></g>
<g><path style="opacity:0.747" fill="#df7054" d="M 332.5,352.5 C 333.822,352.33 334.989,352.663 336,353.5C 336.499,358.823 336.666,364.156 336.5,369.5C 338.144,369.714 339.644,369.38 341,368.5C 341.499,363.177 341.666,357.844 341.5,352.5C 342.833,352.5 344.167,352.5 345.5,352.5C 344.167,353.5 344.167,354.5 345.5,355.5C 344.673,360.651 344.173,365.984 344,371.5C 340.108,373.067 336.442,372.733 333,370.5C 332.783,366.612 332.95,362.946 333.5,359.5C 333.148,356.954 331.815,355.288 329.5,354.5C 331.027,354.573 332.027,353.906 332.5,352.5 Z"/></g>
<g><path style="opacity:0.594" fill="#e4684a" d="M 105.5,345.5 C 108.518,345.335 111.518,345.502 114.5,346C 116.931,346.295 118.764,347.462 120,349.5C 120.309,348.234 120.809,347.067 121.5,346C 128.353,345.039 135.02,345.706 141.5,348C 145.037,351.529 145.37,355.363 142.5,359.5C 143.667,361.833 144.833,364.167 146,366.5C 148.791,359.445 151.958,352.612 155.5,346C 159.244,345.071 162.744,345.571 166,347.5C 168.667,353.5 171.333,359.5 174,365.5C 174.187,358.919 174.687,352.419 175.5,346C 182.441,344.879 189.108,345.712 195.5,348.5C 196.192,349.025 196.692,349.692 197,350.5C 197.273,348.671 198.107,347.171 199.5,346C 207.504,343.49 210.837,346.324 209.5,354.5C 211.144,354.714 212.644,354.38 214,353.5C 214.226,350.905 214.726,348.405 215.5,346C 219.244,345.071 222.744,345.571 226,347.5C 226.667,355.167 226.667,362.833 226,370.5C 222.817,372.523 219.317,373.023 215.5,372C 214.556,369.281 214.223,366.448 214.5,363.5C 212.833,363.5 211.167,363.5 209.5,363.5C 209.813,366.247 209.48,368.914 208.5,371.5C 198.833,374.5 195.5,371.167 198.5,361.5C 198.192,360.692 197.692,360.025 197,359.5C 194.303,362.87 190.803,364.204 186.5,363.5C 188.105,369.486 185.938,372.486 180,372.5C 175.304,372.225 170.47,372.058 165.5,372C 161.92,367.466 158.253,367.466 154.5,372C 148.833,372.667 143.167,372.667 137.5,372C 135.457,370.189 133.957,368.022 133,365.5C 132.562,372.134 129.062,374.3 122.5,372C 121.584,371.626 120.75,371.126 120,370.5C 111.425,374.032 103.758,372.699 97,366.5C 92.7287,356.564 95.5621,349.564 105.5,345.5 Z M 201.5,349.5 C 203.144,349.286 204.644,349.62 206,350.5C 206.236,352.764 206.736,354.931 207.5,357C 210.76,357.784 213.927,357.617 217,356.5C 217.497,354.19 217.663,351.857 217.5,349.5C 219.167,349.5 220.833,349.5 222.5,349.5C 222.5,356.167 222.5,362.833 222.5,369.5C 220.856,369.714 219.356,369.38 218,368.5C 217.503,365.854 217.336,363.187 217.5,360.5C 213.833,360.5 210.167,360.5 206.5,360.5C 206.813,363.247 206.48,365.914 205.5,368.5C 204.28,369.711 203.113,369.711 202,368.5C 201.5,362.175 201.334,355.842 201.5,349.5 Z M 178.5,349.5 C 183.699,349.014 188.699,349.681 193.5,351.5C 196.029,354.221 195.696,356.721 192.5,359C 189.133,359.8 185.966,360.966 183,362.5C 182.503,364.81 182.337,367.143 182.5,369.5C 181.167,369.5 179.833,369.5 178.5,369.5C 178.074,362.777 178.074,356.11 178.5,349.5 Z M 156.5,349.5 C 159.365,349.055 161.865,349.722 164,351.5C 167.042,357.321 169.208,363.155 170.5,369C 167.888,369.741 166.222,368.741 165.5,366C 160.043,364.497 155.376,365.664 151.5,369.5C 150.914,369.291 150.414,368.957 150,368.5C 151.549,362.044 153.716,355.71 156.5,349.5 Z M 134.5,350.5 C 136.377,349.375 138.21,349.709 140,351.5C 140.864,354.739 140.031,357.406 137.5,359.5C 139.726,362.619 141.393,365.952 142.5,369.5C 141.178,369.67 140.011,369.337 139,368.5C 137.669,365.166 135.835,362.166 133.5,359.5C 136.962,356.707 137.295,353.707 134.5,350.5 Z M 123.5,349.5 C 125.527,349.338 127.527,349.505 129.5,350C 127.964,353.24 128.297,356.24 130.5,359C 130,359.5 129.5,360 129,360.5C 128.667,363.167 128.333,365.833 128,368.5C 126.667,369.833 125.333,369.833 124,368.5C 123.5,362.175 123.334,355.842 123.5,349.5 Z M 104.5,349.5 C 108.375,349.085 112.042,349.585 115.5,351C 108.976,349.821 104.643,352.487 102.5,359C 103.72,364.951 107.386,367.451 113.5,366.5C 113.896,363.956 113.229,361.789 111.5,360C 113.134,359.506 114.801,359.34 116.5,359.5C 116.5,362.5 116.5,365.5 116.5,368.5C 110.434,370.42 104.934,369.42 100,365.5C 96.9745,358.742 98.4745,353.409 104.5,349.5 Z"/></g>
<g><path style="opacity:0.933" fill="#e16a4c" d="M 183.5,350.5 C 189.845,350.542 191.512,353.209 188.5,358.5C 186.356,359.953 184.523,359.62 183,357.5C 182.444,355.115 182.61,352.782 183.5,350.5 Z"/></g>
<g><path style="opacity:0.898" fill="#e26647" d="M 159.5,353.5 C 160.376,353.369 161.043,353.702 161.5,354.5C 162.5,357.167 163.5,359.833 164.5,362.5C 161.914,363.48 159.247,363.813 156.5,363.5C 156.698,359.908 157.698,356.574 159.5,353.5 Z"/></g>
<g><path style="opacity:0.6" fill="#de654b" d="M 228.5,380.5 C 231.518,380.335 234.518,380.502 237.5,381C 238.288,384.076 238.788,387.242 239,390.5C 244.269,380.142 251.935,377.809 262,383.5C 262.89,386.706 262.557,389.706 261,392.5C 258.083,390.607 254.916,390.107 251.5,391C 249.601,394.681 250.601,397.181 254.5,398.5C 257.021,397.215 259.687,396.548 262.5,396.5C 262.664,399.187 262.497,401.854 262,404.5C 252.475,409.659 244.808,407.659 239,398.5C 238.818,401.226 238.318,403.893 237.5,406.5C 235.264,406.417 232.93,406.75 230.5,407.5C 229.833,407.167 229.167,406.833 228.5,406.5C 227.198,397.774 227.198,389.108 228.5,380.5 Z M 230.5,384.5 C 232.144,384.286 233.644,384.62 235,385.5C 235.667,391.5 235.667,397.5 235,403.5C 233.644,404.38 232.144,404.714 230.5,404.5C 230.5,397.833 230.5,391.167 230.5,384.5 Z M 248.5,384.5 C 251.777,384.216 254.943,384.549 258,385.5C 258.591,386.483 258.257,387.15 257,387.5C 251.141,385.792 247.641,387.958 246.5,394C 248.162,399.824 251.829,401.991 257.5,400.5C 259.271,401.035 259.604,401.869 258.5,403C 249.827,405.997 244.16,403.164 241.5,394.5C 241.902,389.66 244.235,386.327 248.5,384.5 Z"/></g>
<g><path style="opacity:0.535" fill="#e46a4e" d="M 106.5,380.5 C 110.273,380.263 113.94,380.763 117.5,382C 118.967,383.098 119.801,384.598 120,386.5C 120.251,384.567 120.751,382.734 121.5,381C 127.902,380.182 134.235,380.516 140.5,382C 144.938,385.568 145.605,389.735 142.5,394.5C 143.667,396.833 144.833,399.167 146,401.5C 148.791,394.445 151.958,387.612 155.5,381C 158.5,380.333 161.5,380.333 164.5,381C 168.562,386.959 171.729,393.459 174,400.5C 174.187,393.919 174.687,387.419 175.5,381C 181.569,380.196 187.569,380.529 193.5,382C 195,382.833 196.167,384 197,385.5C 197.273,383.671 198.107,382.171 199.5,381C 202.5,380.333 205.5,380.333 208.5,381C 209.274,383.405 209.774,385.905 210,388.5C 211.333,389.833 212.667,389.833 214,388.5C 214.226,385.905 214.726,383.405 215.5,381C 219.317,379.977 222.817,380.477 226,382.5C 226.667,390.167 226.667,397.833 226,405.5C 218.75,409.543 214.75,407.543 214,399.5C 212.644,398.62 211.144,398.286 209.5,398.5C 209.5,401.167 209.5,403.833 209.5,406.5C 205.741,407.908 202.075,407.742 198.5,406C 197.315,403.224 197.315,400.39 198.5,397.5C 198.444,396.263 197.944,395.263 197,394.5C 194.303,397.87 190.803,399.204 186.5,398.5C 186.663,400.857 186.497,403.19 186,405.5C 184.527,407.007 182.693,407.674 180.5,407.5C 176.046,406.69 171.713,406.69 167.5,407.5C 165.088,405.901 162.588,404.568 160,403.5C 157.301,405.01 154.468,406.344 151.5,407.5C 147.506,407.497 143.506,407.497 139.5,407.5C 136.53,406.363 134.364,404.363 133,401.5C 132.837,403.676 132.004,405.509 130.5,407C 126.668,407.762 123.002,407.262 119.5,405.5C 111.054,409.01 103.554,407.677 97,401.5C 92.9388,391.172 96.1054,384.172 106.5,380.5 Z M 135.5,386.5 C 139.59,385.227 141.09,386.893 140,391.5C 138.978,392.354 138.145,393.354 137.5,394.5C 139.293,397.251 140.959,400.084 142.5,403C 141.584,403.374 140.75,403.874 140,404.5C 138.082,400.996 135.916,397.663 133.5,394.5C 136.353,392.208 137.02,389.542 135.5,386.5 Z M 201.5,384.5 C 203.144,384.286 204.644,384.62 206,385.5C 206.236,387.764 206.736,389.931 207.5,392C 210.76,392.784 213.927,392.617 217,391.5C 217.497,389.19 217.663,386.857 217.5,384.5C 219.167,384.5 220.833,384.5 222.5,384.5C 222.666,390.842 222.5,397.175 222,403.5C 220.887,404.711 219.72,404.711 218.5,403.5C 217.52,400.914 217.187,398.247 217.5,395.5C 213.833,395.5 210.167,395.5 206.5,395.5C 206.664,398.187 206.497,400.854 206,403.5C 204.644,404.38 203.144,404.714 201.5,404.5C 201.5,397.833 201.5,391.167 201.5,384.5 Z M 178.5,384.5 C 183.267,384.191 187.934,384.691 192.5,386C 195.167,388.667 195.167,391.333 192.5,394C 189.133,394.8 185.966,395.966 183,397.5C 182.86,400.043 182.194,402.377 181,404.5C 180.586,404.043 180.086,403.709 179.5,403.5C 178.504,397.202 178.17,390.868 178.5,384.5 Z M 156.5,384.5 C 158.924,384.192 161.257,384.526 163.5,385.5C 165.954,390.912 168.287,396.412 170.5,402C 170.237,403.946 169.237,404.612 167.5,404C 165.997,401.009 163.497,399.843 160,400.5C 158.167,400.833 156.333,401.167 154.5,401.5C 153.585,403.98 152.085,404.647 150,403.5C 151.641,397.079 153.808,390.745 156.5,384.5 Z M 124.5,384.5 C 126.199,384.34 127.866,384.506 129.5,385C 127.964,388.24 128.297,391.24 130.5,394C 129.052,397.385 127.885,400.885 127,404.5C 125.667,403.833 124.667,402.833 124,401.5C 123.215,395.751 123.382,390.084 124.5,384.5 Z M 108.5,383.5 C 111.022,383.878 113.355,384.711 115.5,386C 108.412,384.865 104.078,387.698 102.5,394.5C 103.815,400.476 107.482,402.809 113.5,401.5C 113.896,398.956 113.229,396.789 111.5,395C 115.482,393.813 117.149,395.313 116.5,399.5C 116.351,401.32 115.684,402.82 114.5,404C 101.551,406.058 96.7181,400.892 100,388.5C 102.398,385.892 105.231,384.225 108.5,383.5 Z M 108.5,390.5 C 108.769,392.429 108.269,394.095 107,395.5C 106.401,393.465 106.901,391.799 108.5,390.5 Z"/></g>
<g><path style="opacity:0.929" fill="#e6694c" d="M 183.5,385.5 C 190.289,385.258 191.955,387.925 188.5,393.5C 186.356,394.953 184.523,394.62 183,392.5C 182.297,390.071 182.463,387.738 183.5,385.5 Z"/></g>
<g><path style="opacity:0.651" fill="#e86646" d="M 158.5,388.5 C 161.05,388.561 162.55,389.894 163,392.5C 165.972,397.964 164.472,400.13 158.5,399C 157.328,398.581 156.328,397.915 155.5,397C 157.196,394.413 158.196,391.579 158.5,388.5 Z"/></g>
<g><path style="opacity:0.608" fill="#e3684d" d="M 282.5,380.5 C 285.518,380.335 288.518,380.502 291.5,381C 295.051,387.27 298.218,393.77 301,400.5C 301.187,393.919 301.687,387.419 302.5,381C 309.367,379.966 316.033,380.633 322.5,383C 323.701,383.903 324.535,385.069 325,386.5C 325.163,384.324 325.996,382.491 327.5,381C 338.593,380.675 349.593,380.675 360.5,381C 361.46,382.419 362.293,383.919 363,385.5C 367.597,379.736 372.93,379.07 379,383.5C 379.374,382.584 379.874,381.75 380.5,381C 387.833,380.333 395.167,380.333 402.5,381C 406.298,387.044 404.632,390.211 397.5,390.5C 397.666,395.511 397.499,400.511 397,405.5C 394.539,406.218 392.039,406.885 389.5,407.5C 388.833,407.167 388.167,406.833 387.5,406.5C 386.811,401.282 386.144,396.116 385.5,391C 382.635,390.245 380.302,391.078 378.5,393.5C 383.075,402.453 380.241,407.12 370,407.5C 364.558,405.278 359.058,405.278 353.5,407.5C 352.522,407.023 351.689,406.357 351,405.5C 350.667,400.167 350.333,394.833 350,389.5C 348.301,390.406 346.467,390.739 344.5,390.5C 344.666,395.844 344.499,401.177 344,406.5C 340.108,408.067 336.442,407.733 333,405.5C 332.501,400.511 332.334,395.511 332.5,390.5C 330.064,390.683 327.897,390.016 326,388.5C 325.305,390.722 324.472,392.889 323.5,395C 325.03,398.561 326.697,402.061 328.5,405.5C 321.142,409.401 316.308,407.401 314,399.5C 313.816,402.119 312.983,404.619 311.5,407C 305.691,406.249 300.024,406.416 294.5,407.5C 292.088,405.901 289.588,404.568 287,403.5C 283.363,405.744 279.363,407.077 275,407.5C 273.989,406.663 272.822,406.33 271.5,406.5C 274.394,397.48 278.06,388.813 282.5,380.5 Z M 362.5,393.5 C 364.34,395.168 366.34,396.668 368.5,398C 365.208,398.19 363.208,396.69 362.5,393.5 Z M 382.5,384.5 C 388.537,384.171 394.537,384.504 400.5,385.5C 398.659,386.23 396.825,386.897 395,387.5C 394.501,393.157 394.334,398.824 394.5,404.5C 392.856,404.714 391.356,404.38 390,403.5C 389.228,399.11 389.394,394.777 390.5,390.5C 390,389.5 389.5,388.5 389,387.5C 386.37,387.141 384.203,386.141 382.5,384.5 Z M 368.5,384.5 C 370.857,384.337 373.19,384.503 375.5,385C 375.957,385.414 376.291,385.914 376.5,386.5C 374.979,386.88 373.313,387.046 371.5,387C 370.643,387.689 369.977,388.522 369.5,389.5C 371.496,392.327 373.996,394.661 377,396.5C 378.271,400.166 377.104,402.666 373.5,404C 371.167,404.667 368.833,404.667 366.5,404C 366.043,403.586 365.709,403.086 365.5,402.5C 367.423,401.692 369.423,401.192 371.5,401C 372.059,400.275 372.392,399.442 372.5,398.5C 370.575,396.07 368.408,393.737 366,391.5C 365.333,390.167 365.333,388.833 366,387.5C 367.045,386.627 367.878,385.627 368.5,384.5 Z M 354.5,384.5 C 355.833,384.5 357.167,384.5 358.5,384.5C 358.5,391.167 358.5,397.833 358.5,404.5C 357.178,404.67 356.011,404.337 355,403.5C 354.789,397.782 354.289,392.115 353.5,386.5C 353.863,385.817 354.196,385.15 354.5,384.5 Z M 331.5,384.5 C 336.875,384.172 342.208,384.505 347.5,385.5C 345.659,386.23 343.825,386.897 342,387.5C 341.5,389.5 341,391.5 340.5,393.5C 342.131,397.674 341.464,401.341 338.5,404.5C 337.914,404.291 337.414,403.957 337,403.5C 336.829,398.136 336.329,392.802 335.5,387.5C 333.556,386.811 331.556,386.311 329.5,386C 330.416,385.722 331.082,385.222 331.5,384.5 Z M 314.5,385.5 C 316.646,384.569 318.812,384.903 321,386.5C 321.864,389.739 321.031,392.406 318.5,394.5C 321.238,397.309 322.904,400.642 323.5,404.5C 321.61,404.703 320.11,404.037 319,402.5C 317.802,399.274 315.969,396.441 313.5,394C 316.051,393.578 317.385,392.078 317.5,389.5C 317.439,387.347 316.439,386.014 314.5,385.5 Z M 305.5,384.5 C 307.199,384.34 308.866,384.506 310.5,385C 309.398,387.401 309.231,389.901 310,392.5C 313.333,393.5 313.333,394.5 310,395.5C 309.667,398.167 309.333,400.833 309,403.5C 307.701,403.966 306.201,403.966 304.5,403.5C 304.209,397.077 304.542,390.744 305.5,384.5 Z M 284.5,384.5 C 286.604,384.201 288.604,384.534 290.5,385.5C 293.113,391.058 295.446,396.724 297.5,402.5C 297.167,403.167 296.833,403.833 296.5,404.5C 294.697,403.863 293.364,402.697 292.5,401C 288.833,400.333 285.167,400.333 281.5,401C 280.781,403.556 279.114,404.723 276.5,404.5C 276.343,403.127 276.51,401.793 277,400.5C 279.41,395.094 281.91,389.761 284.5,384.5 Z"/></g>
<g><path style="opacity:0.627" fill="#e16042" d="M 285.5,388.5 C 286.675,388.281 287.675,388.614 288.5,389.5C 293.696,397.803 291.696,400.303 282.5,397C 283.798,394.273 284.798,391.44 285.5,388.5 Z"/></g>
</svg>
