<?xml version="1.0" encoding="UTF-8"?>
<!DOCTYPE svg PUBLIC "-//W3C//DTD SVG 1.1//EN" "http://www.w3.org/Graphics/SVG/1.1/DTD/svg11.dtd">
<svg xmlns="http://www.w3.org/2000/svg" version="1.1" width="300px" height="300px" style="shape-rendering:geometricPrecision; text-rendering:geometricPrecision; image-rendering:optimizeQuality; fill-rule:evenodd; clip-rule:evenodd" xmlns:xlink="http://www.w3.org/1999/xlink">
<g><path style="opacity:0.408" fill="#bbbbbb" d="M 103.5,110.5 C 103.5,110.833 103.5,111.167 103.5,111.5C 98.1254,111.172 92.7921,111.505 87.5,112.5C 86.8728,113.417 86.5394,114.417 86.5,115.5C 85.5,116.167 84.5,116.833 83.5,117.5C 84.5391,114.64 85.8724,111.974 87.5,109.5C 93.1404,109.337 98.4738,109.671 103.5,110.5 Z"/></g>
<g><path style="opacity:0.322" fill="#c5c5c5" d="M 144.5,110.5 C 136.016,111.493 127.349,111.826 118.5,111.5C 117.5,111.5 116.5,111.5 115.5,111.5C 111.5,111.5 107.5,111.5 103.5,111.5C 103.5,111.167 103.5,110.833 103.5,110.5C 117.115,110.221 130.781,110.221 144.5,110.5 Z"/></g>
<g><path style="opacity:0.257" fill="#c8c9c9" d="M 145.5,109.5 C 166.559,110.194 187.559,110.194 208.5,109.5C 208.672,110.492 208.338,111.158 207.5,111.5C 203.5,111.5 199.5,111.5 195.5,111.5C 185.833,111.5 176.167,111.5 166.5,111.5C 159.087,112.128 152.087,111.461 145.5,109.5 Z"/></g>
<g><path style="opacity:0.278" fill="#c0c0c0" d="M 232.5,111.5 C 224.648,111.825 216.982,111.492 209.5,110.5C 215.786,110.543 222.12,110.209 228.5,109.5C 230.026,109.994 231.359,110.661 232.5,111.5 Z"/></g>
<g><path style="opacity:1" fill="#efefef" d="M 103.5,111.5 C 107.5,111.5 111.5,111.5 115.5,111.5C 115.5,111.833 115.5,112.167 115.5,112.5C 106.827,112.334 98.1603,112.5 89.5,113C 88.6195,113.708 87.9528,114.542 87.5,115.5C 87.1667,115.5 86.8333,115.5 86.5,115.5C 86.5394,114.417 86.8728,113.417 87.5,112.5C 92.7921,111.505 98.1254,111.172 103.5,111.5 Z"/></g>
<g><path style="opacity:1" fill="#e6e8e8" d="M 145.5,109.5 C 152.087,111.461 159.087,112.128 166.5,111.5C 166.833,112.167 167.167,112.833 167.5,113.5C 165.167,113.5 162.833,113.5 160.5,113.5C 159.518,114.141 158.518,114.807 157.5,115.5C 156.378,114.37 155.044,113.703 153.5,113.5C 148.167,113.5 142.833,113.5 137.5,113.5C 136.833,113.5 136.167,113.5 135.5,113.5C 129.833,112.833 124.167,112.167 118.5,111.5C 127.349,111.826 136.016,111.493 144.5,110.5C 144.5,109.833 144.833,109.5 145.5,109.5 Z"/></g>
<g><path style="opacity:0.939" fill="#ebecea" d="M 166.5,111.5 C 176.167,111.5 185.833,111.5 195.5,111.5C 194.5,112.167 193.5,112.833 192.5,113.5C 189.833,113.5 187.167,113.5 184.5,113.5C 179.637,113.181 174.97,113.514 170.5,114.5C 169.609,113.89 168.609,113.557 167.5,113.5C 167.167,112.833 166.833,112.167 166.5,111.5 Z"/></g>
<g><path style="opacity:0.946" fill="#e8e8e6" d="M 195.5,111.5 C 199.5,111.5 203.5,111.5 207.5,111.5C 208.167,112.167 208.833,112.833 209.5,113.5C 208.833,113.5 208.167,113.5 207.5,113.5C 204.5,113.5 201.5,113.5 198.5,113.5C 196.5,113.5 194.5,113.5 192.5,113.5C 193.5,112.833 194.5,112.167 195.5,111.5 Z"/></g>
<g><path style="opacity:0.942" fill="#dcdddb" d="M 208.5,109.5 C 209.167,109.5 209.5,109.833 209.5,110.5C 216.982,111.492 224.648,111.825 232.5,111.5C 233.451,112.919 233.784,114.585 233.5,116.5C 232.839,115.282 232.172,113.949 231.5,112.5C 230.893,112.624 230.56,112.957 230.5,113.5C 227.941,113.198 225.607,113.532 223.5,114.5C 221.833,114.5 220.167,114.5 218.5,114.5C 215.713,113.523 212.713,113.19 209.5,113.5C 208.833,112.833 208.167,112.167 207.5,111.5C 208.338,111.158 208.672,110.492 208.5,109.5 Z"/></g>
<g><path style="opacity:0.525" fill="#d8d9d8" d="M 115.5,112.5 C 115.5,112.167 115.5,111.833 115.5,111.5C 116.5,111.5 117.5,111.5 118.5,111.5C 124.167,112.167 129.833,112.833 135.5,113.5C 130.645,114.691 125.645,114.691 120.5,113.5C 118.708,113.634 117.042,113.301 115.5,112.5 Z"/></g>
<g><path style="opacity:0.175" fill="#d2d3d2" d="M 115.5,112.5 C 109.167,113.167 102.833,113.833 96.5,114.5C 93.2613,114.413 90.2613,115.08 87.5,116.5C 87.5,116.167 87.5,115.833 87.5,115.5C 87.9528,114.542 88.6195,113.708 89.5,113C 98.1603,112.5 106.827,112.334 115.5,112.5 Z"/></g>
<g><path style="opacity:0.11" fill="#cacbca" d="M 115.5,112.5 C 117.042,113.301 118.708,113.634 120.5,113.5C 119.5,114.167 118.5,114.833 117.5,115.5C 117.565,115.938 117.399,116.272 117,116.5C 115.806,115.57 114.473,114.903 113,114.5C 110.815,115.758 108.648,115.758 106.5,114.5C 105.261,114.942 104.261,115.609 103.5,116.5C 101.596,116.738 100.262,117.738 99.5,119.5C 98.1667,120.167 97.1667,121.167 96.5,122.5C 94.2729,123.401 93.2729,125.067 93.5,127.5C 93.1667,127.5 92.8333,127.5 92.5,127.5C 92.5858,126.504 92.2524,125.671 91.5,125C 95.1003,122.045 96.767,118.545 96.5,114.5C 102.833,113.833 109.167,113.167 115.5,112.5 Z"/></g>
<g><path style="opacity:0.195" fill="#cecfce" d="M 198.5,113.5 C 201.5,113.5 204.5,113.5 207.5,113.5C 206.167,114.5 206.167,115.5 207.5,116.5C 204.049,116.984 200.716,116.984 197.5,116.5C 197.557,115.391 197.89,114.391 198.5,113.5 Z"/></g>
<g><path style="opacity:0.341" fill="#cccece" d="M 137.5,113.5 C 142.833,113.5 148.167,113.5 153.5,113.5C 153.5,113.833 153.5,114.167 153.5,114.5C 151.5,115.167 149.5,115.833 147.5,116.5C 145.297,116.604 143.297,117.27 141.5,118.5C 140.209,117.458 140.209,116.292 141.5,115C 139.942,114.79 138.609,114.29 137.5,113.5 Z"/></g>
<g><path style="opacity:0.189" fill="#d0d2d1" d="M 160.5,113.5 C 162.833,113.5 165.167,113.5 167.5,113.5C 168.609,113.557 169.609,113.89 170.5,114.5C 168.415,116.884 165.748,118.551 162.5,119.5C 161.491,118.061 161.824,116.728 163.5,115.5C 162.398,114.824 161.398,114.158 160.5,113.5 Z"/></g>
<g><path style="opacity:0.35" fill="#d7d8d7" d="M 170.5,114.5 C 174.97,113.514 179.637,113.181 184.5,113.5C 184.047,114.458 183.381,115.292 182.5,116C 185.036,116.186 187.369,116.686 189.5,117.5C 187.938,117.733 186.605,118.4 185.5,119.5C 184.77,117.955 183.437,117.122 181.5,117C 178.518,116.502 175.518,116.335 172.5,116.5C 172.5,116.167 172.5,115.833 172.5,115.5C 172.5,114.833 172.167,114.5 171.5,114.5C 171.167,114.5 170.833,114.5 170.5,114.5 Z"/></g>
<g><path style="opacity:0.085" fill="#c7c8c7" d="M 207.5,113.5 C 208.167,113.5 208.833,113.5 209.5,113.5C 212.713,113.19 215.713,113.523 218.5,114.5C 217.5,114.5 216.5,114.5 215.5,114.5C 215.737,115.791 215.404,116.791 214.5,117.5C 213.833,117.167 213.167,116.833 212.5,116.5C 210.833,116.5 209.167,116.5 207.5,116.5C 206.167,115.5 206.167,114.5 207.5,113.5 Z"/></g>
<g><path style="opacity:0.376" fill="#d5d5d5" d="M 117.5,115.5 C 119.262,116.262 120.262,117.596 120.5,119.5C 119.292,118.766 117.959,118.433 116.5,118.5C 115.737,117.732 114.737,117.232 113.5,117C 110.183,116.502 106.85,116.335 103.5,116.5C 104.261,115.609 105.261,114.942 106.5,114.5C 108.648,115.758 110.815,115.758 113,114.5C 114.473,114.903 115.806,115.57 117,116.5C 117.399,116.272 117.565,115.938 117.5,115.5 Z"/></g>
<g><path style="opacity:0.072" fill="#d1d1cf" d="M 184.5,113.5 C 187.167,113.5 189.833,113.5 192.5,113.5C 194.5,113.5 196.5,113.5 198.5,113.5C 197.89,114.391 197.557,115.391 197.5,116.5C 196.167,116.5 194.833,116.5 193.5,116.5C 192.041,116.433 190.708,116.766 189.5,117.5C 187.369,116.686 185.036,116.186 182.5,116C 183.381,115.292 184.047,114.458 184.5,113.5 Z"/></g>
<g><path style="opacity:0.965" fill="#e7e9e8" d="M 170.5,114.5 C 170.833,114.5 171.167,114.5 171.5,114.5C 172.167,114.5 172.5,114.833 172.5,115.5C 172.5,115.833 172.5,116.167 172.5,116.5C 172.062,116.435 171.728,116.601 171.5,117C 172.416,117.278 173.082,117.778 173.5,118.5C 167.959,119.03 163.293,121.364 159.5,125.5C 159.5,124.833 159.5,124.167 159.5,123.5C 160.405,122.036 160.405,120.702 159.5,119.5C 160.5,119.5 161.5,119.5 162.5,119.5C 165.748,118.551 168.415,116.884 170.5,114.5 Z"/></g>
<g><path style="opacity:0.63" fill="#e6e7e6" d="M 103.5,116.5 C 106.85,116.335 110.183,116.502 113.5,117C 114.737,117.232 115.737,117.732 116.5,118.5C 116.5,118.833 116.5,119.167 116.5,119.5C 111.637,119.181 106.97,119.514 102.5,120.5C 102.167,120.5 101.833,120.5 101.5,120.5C 101.158,119.662 100.492,119.328 99.5,119.5C 100.262,117.738 101.596,116.738 103.5,116.5 Z"/></g>
<g><path style="opacity:0.11" fill="#e4e5e5" d="M 86.5,115.5 C 86.8333,115.5 87.1667,115.5 87.5,115.5C 87.5,115.833 87.5,116.167 87.5,116.5C 86.2411,120.025 84.2411,123.025 81.5,125.5C 80.6365,126.463 79.9698,126.463 79.5,125.5C 80.5588,123.466 81.5588,121.466 82.5,119.5C 80.9689,118.075 81.3023,117.409 83.5,117.5C 84.5,116.833 85.5,116.167 86.5,115.5 Z"/></g>
<g><path style="opacity:0.894" fill="#e1e5e5" d="M 197.5,116.5 C 200.716,116.984 204.049,116.984 207.5,116.5C 209.167,116.5 210.833,116.5 212.5,116.5C 211.5,118.167 210.167,119.5 208.5,120.5C 206.782,119.776 204.948,119.109 203,118.5C 201.667,120.5 200.333,122.5 199,124.5C 198.329,125.252 197.496,125.586 196.5,125.5C 197.389,123.264 198.722,121.264 200.5,119.5C 200.333,119.167 200.167,118.833 200,118.5C 199.292,119.381 198.458,120.047 197.5,120.5C 197.423,119.25 196.756,118.417 195.5,118C 196.416,117.722 197.082,117.222 197.5,116.5 Z"/></g>
<g><path style="opacity:0.765" fill="#cfd1d0" d="M 223.5,114.5 C 225.607,113.532 227.941,113.198 230.5,113.5C 231.491,119.979 231.824,126.646 231.5,133.5C 231.167,133.5 230.833,133.5 230.5,133.5C 230.715,131.821 230.048,130.821 228.5,130.5C 229.165,126.863 229.832,123.197 230.5,119.5C 229.527,115.852 227.193,114.186 223.5,114.5 Z"/></g>
<g><path style="opacity:0.043" fill="#e2e4e3" d="M 180.5,119.5 C 179.833,119.5 179.5,119.833 179.5,120.5C 179.116,123.05 177.616,124.383 175,124.5C 173.624,124.316 172.791,123.649 172.5,122.5C 173.5,122.5 174.5,122.5 175.5,122.5C 175.473,120.801 174.806,119.467 173.5,118.5C 174.583,118.461 175.583,118.127 176.5,117.5C 178.707,117.891 180.04,118.558 180.5,119.5 Z"/></g>
<g><path style="opacity:0.535" fill="#e8eae9" d="M 116.5,118.5 C 117.959,118.433 119.292,118.766 120.5,119.5C 122.245,121.438 123.245,123.771 123.5,126.5C 122.778,126.918 122.278,127.584 122,128.5C 121.261,126.111 120.095,124.111 118.5,122.5C 117.833,121.5 117.167,120.5 116.5,119.5C 116.5,119.167 116.5,118.833 116.5,118.5 Z"/></g>
<g><path style="opacity:0.918" fill="#e1e4e5" d="M 147.5,116.5 C 149.735,116.205 151.735,116.539 153.5,117.5C 152.784,122.064 152.117,126.731 151.5,131.5C 151.003,127.841 151.003,124.008 151.5,120C 149.899,119.727 148.399,119.227 147,118.5C 144.919,121.087 142.419,123.087 139.5,124.5C 141.129,122.804 140.796,121.804 138.5,121.5C 139.694,120.728 140.694,119.728 141.5,118.5C 143.297,117.27 145.297,116.604 147.5,116.5 Z"/></g>
<g><path style="opacity:0.271" fill="#d9dfde" d="M 153.5,114.5 C 155.22,115.751 155.553,117.251 154.5,119C 155.667,119.5 156.5,120.333 157,121.5C 157.708,120.619 158.542,119.953 159.5,119.5C 160.405,120.702 160.405,122.036 159.5,123.5C 158.5,124.167 157.5,124.833 156.5,125.5C 154.775,125.843 154.275,126.843 155,128.5C 155.278,127.584 155.778,126.918 156.5,126.5C 156.64,128.124 155.973,129.29 154.5,130C 155.128,132.939 155.795,135.772 156.5,138.5C 156.5,139.167 156.167,139.5 155.5,139.5C 154.448,139.649 153.448,139.483 152.5,139C 153.48,131.921 153.813,124.755 153.5,117.5C 151.735,116.539 149.735,116.205 147.5,116.5C 149.5,115.833 151.5,115.167 153.5,114.5 Z"/></g>
<g><path style="opacity:0.937" fill="#f1f5f4" d="M 172.5,116.5 C 175.518,116.335 178.518,116.502 181.5,117C 183.437,117.122 184.77,117.955 185.5,119.5C 182.775,120.713 180.441,122.546 178.5,125C 175.515,125.868 172.515,126.201 169.5,126C 170.756,125.583 171.423,124.75 171.5,123.5C 171.5,122.833 171.833,122.5 172.5,122.5C 172.791,123.649 173.624,124.316 175,124.5C 177.616,124.383 179.116,123.05 179.5,120.5C 180.167,120.5 180.5,120.167 180.5,119.5C 180.04,118.558 178.707,117.891 176.5,117.5C 175.583,118.127 174.583,118.461 173.5,118.5C 173.082,117.778 172.416,117.278 171.5,117C 171.728,116.601 172.062,116.435 172.5,116.5 Z"/></g>
<g><path style="opacity:0.314" fill="#dfe4e3" d="M 193.5,116.5 C 192.374,117.858 192.374,119.192 193.5,120.5C 194.726,119.637 196.06,119.637 197.5,120.5C 197.027,121.906 196.027,122.573 194.5,122.5C 193.833,122.5 193.5,122.833 193.5,123.5C 192.833,123.5 192.5,123.833 192.5,124.5C 191.833,124.5 191.5,124.833 191.5,125.5C 191.591,127.698 190.925,128.031 189.5,126.5C 189.5,123.5 189.5,120.5 189.5,117.5C 190.708,116.766 192.041,116.433 193.5,116.5 Z"/></g>
<g><path style="opacity:0.502" fill="#e5e8e7" d="M 230.5,113.5 C 230.56,112.957 230.893,112.624 231.5,112.5C 232.172,113.949 232.839,115.282 233.5,116.5C 234.382,121.724 234.382,127.39 233.5,133.5C 232.698,134.952 232.198,136.618 232,138.5C 231.506,136.866 231.34,135.199 231.5,133.5C 231.824,126.646 231.491,119.979 230.5,113.5 Z"/></g>
<g><path style="opacity:0.208" fill="#dfe3e3" d="M 188.5,126.5 C 188.5,127.5 188.5,128.5 188.5,129.5C 189.5,129.5 190.5,129.5 191.5,129.5C 191.157,131.225 190.157,131.725 188.5,131C 187.237,129.295 186.903,127.628 187.5,126C 186.5,125.333 185.5,125.333 184.5,126C 183.357,130.235 182.357,134.401 181.5,138.5C 181.655,135.147 180.988,134.814 179.5,137.5C 178.375,136.652 178.375,135.652 179.5,134.5C 181.12,133.159 182.12,131.326 182.5,129C 181.483,127.951 181.316,126.784 182,125.5C 183.74,123.046 185.907,121.546 188.5,121C 187.862,122.707 187.862,124.54 188.5,126.5 Z"/></g>
<g><path style="opacity:0.89" fill="#f1f5f4" d="M 189.5,117.5 C 189.5,120.5 189.5,123.5 189.5,126.5C 189.167,126.5 188.833,126.5 188.5,126.5C 187.862,124.54 187.862,122.707 188.5,121C 185.907,121.546 183.74,123.046 182,125.5C 181.316,126.784 181.483,127.951 182.5,129C 182.12,131.326 181.12,133.159 179.5,134.5C 178.884,133.798 178.884,132.798 179.5,131.5C 179.34,129.801 179.506,128.134 180,126.5C 181.666,124.004 183.5,121.671 185.5,119.5C 186.605,118.4 187.938,117.733 189.5,117.5 Z"/></g>
<g><path style="opacity:0.871" fill="#e8ebeb" d="M 212.5,116.5 C 213.167,116.833 213.833,117.167 214.5,117.5C 211.307,121.847 207.64,125.847 203.5,129.5C 202.761,129.631 202.094,129.464 201.5,129C 203.141,127.871 204.141,126.371 204.5,124.5C 205.5,122.833 206.833,121.5 208.5,120.5C 210.167,119.5 211.5,118.167 212.5,116.5 Z"/></g>
<g><path style="opacity:0.878" fill="#d8dcdb" d="M 99.5,119.5 C 100.492,119.328 101.158,119.662 101.5,120.5C 101.833,121.833 102.167,121.833 102.5,120.5C 104.379,120.393 104.712,120.893 103.5,122C 105.473,122.495 107.473,122.662 109.5,122.5C 109.294,124.549 108.461,124.883 107,123.5C 105.698,124.085 104.531,124.751 103.5,125.5C 101.879,127.23 100.545,129.23 99.5,131.5C 99.6633,129.143 99.4966,126.81 99,124.5C 97.9887,125.337 96.8221,125.67 95.5,125.5C 96.1098,124.609 96.4431,123.609 96.5,122.5C 97.1667,121.167 98.1667,120.167 99.5,119.5 Z"/></g>
<g><path style="opacity:0.898" fill="#e6e8e7" d="M 109.5,122.5 C 112.695,122.513 114.362,124.18 114.5,127.5C 114.457,128.416 114.124,129.083 113.5,129.5C 112.833,129.5 112.167,129.5 111.5,129.5C 112.562,128.425 112.562,127.425 111.5,126.5C 108.982,126.477 106.316,126.144 103.5,125.5C 104.531,124.751 105.698,124.085 107,123.5C 108.461,124.883 109.294,124.549 109.5,122.5 Z"/></g>
<g><path style="opacity:0.933" fill="#e0e4e3" d="M 185.5,119.5 C 183.5,121.671 181.666,124.004 180,126.5C 179.506,128.134 179.34,129.801 179.5,131.5C 178.698,130.048 178.198,128.382 178,126.5C 173.096,126.532 168.929,128.199 165.5,131.5C 165.672,130.508 165.338,129.842 164.5,129.5C 165.63,127.685 166.296,125.685 166.5,123.5C 168.167,123.5 169.833,123.5 171.5,123.5C 171.423,124.75 170.756,125.583 169.5,126C 172.515,126.201 175.515,125.868 178.5,125C 180.441,122.546 182.775,120.713 185.5,119.5 Z"/></g>
<g><path style="opacity:0.155" fill="#d8dbda" d="M 103.5,125.5 C 106.316,126.144 108.982,126.477 111.5,126.5C 112.562,127.425 112.562,128.425 111.5,129.5C 109.073,128.939 106.573,129.272 104,130.5C 104.355,129.041 104.189,127.707 103.5,126.5C 103.5,126.167 103.5,125.833 103.5,125.5 Z"/></g>
<g><path style="opacity:0.894" fill="#e3e5e7" d="M 138.5,121.5 C 140.796,121.804 141.129,122.804 139.5,124.5C 137.147,127.248 134.814,129.914 132.5,132.5C 131.298,131.595 129.964,131.595 128.5,132.5C 131.755,128.905 135.088,125.238 138.5,121.5 Z"/></g>
<g><path style="opacity:0.922" fill="#eef1f1" d="M 196.5,125.5 C 194.833,126.833 193.167,128.167 191.5,129.5C 190.5,129.5 189.5,129.5 188.5,129.5C 188.5,128.5 188.5,127.5 188.5,126.5C 188.833,126.5 189.167,126.5 189.5,126.5C 190.925,128.031 191.591,127.698 191.5,125.5C 192.167,125.5 192.5,125.167 192.5,124.5C 192.5,123.833 192.833,123.5 193.5,123.5C 194.167,123.5 194.5,123.167 194.5,122.5C 196.027,122.573 197.027,121.906 197.5,120.5C 198.458,120.047 199.292,119.381 200,118.5C 200.167,118.833 200.333,119.167 200.5,119.5C 198.722,121.264 197.389,123.264 196.5,125.5 Z"/></g>
<g><path style="opacity:0.984" fill="#d7dad9" d="M 82.5,119.5 C 81.5588,121.466 80.5588,123.466 79.5,125.5C 79.9698,126.463 80.6365,126.463 81.5,125.5C 80.6167,128.704 78.9501,131.371 76.5,133.5C 76.5394,132.417 76.8728,131.417 77.5,130.5C 77.0302,129.537 76.3635,129.537 75.5,130.5C 75.3893,129.883 75.056,129.383 74.5,129C 77.0389,125.636 79.7056,122.469 82.5,119.5 Z"/></g>
<g><path style="opacity:0.886" fill="#dee1e0" d="M 118.5,122.5 C 120.095,124.111 121.261,126.111 122,128.5C 122.278,127.584 122.778,126.918 123.5,126.5C 122.643,128.862 122.309,131.196 122.5,133.5C 123.557,133.906 124.891,133.906 126.5,133.5C 127.525,133.897 127.692,134.563 127,135.5C 125.887,136.305 124.721,136.972 123.5,137.5C 121.126,135.139 120.293,132.473 121,129.5C 119.654,131.913 119.154,134.247 119.5,136.5C 119.157,131.858 118.824,127.191 118.5,122.5 Z"/></g>
<g><path style="opacity:0.412" fill="#e6e9e7" d="M 103.5,126.5 C 104.189,127.707 104.355,129.041 104,130.5C 106.573,129.272 109.073,128.939 111.5,129.5C 112.167,129.5 112.833,129.5 113.5,129.5C 113.389,130.117 113.056,130.617 112.5,131C 110.527,131.495 108.527,131.662 106.5,131.5C 106.5,132.5 106.5,133.5 106.5,134.5C 105.711,134.783 105.044,135.283 104.5,136C 107.036,136.186 109.369,136.686 111.5,137.5C 108.552,137.777 105.719,137.444 103,136.5C 102.768,137.737 102.268,138.737 101.5,139.5C 101.438,134.924 102.105,130.591 103.5,126.5 Z"/></g>
<g><path style="opacity:0.449" fill="#ecefef" d="M 159.5,123.5 C 159.5,124.167 159.5,124.833 159.5,125.5C 158.629,128.112 157.963,130.779 157.5,133.5C 156.76,135.255 156.426,136.922 156.5,138.5C 155.795,135.772 155.128,132.939 154.5,130C 155.973,129.29 156.64,128.124 156.5,126.5C 156.5,126.167 156.5,125.833 156.5,125.5C 157.5,124.833 158.5,124.167 159.5,123.5 Z"/></g>
<g><path style="opacity:0.992" fill="#dee2e0" d="M 76.5,133.5 C 74.9239,136.926 73.0906,140.26 71,143.5C 70.5007,148.489 70.3341,153.489 70.5,158.5C 69.5139,154.03 69.1805,149.363 69.5,144.5C 69.5394,143.417 69.8728,142.417 70.5,141.5C 70.0302,140.537 69.3635,140.537 68.5,141.5C 69.9201,137.219 72.2534,133.552 75.5,130.5C 76.3635,129.537 77.0302,129.537 77.5,130.5C 76.8728,131.417 76.5394,132.417 76.5,133.5 Z"/></g>
<g><path style="opacity:0.425" fill="#d9ddde" d="M 148.5,137.5 C 147.833,139.167 147.167,140.833 146.5,142.5C 145.833,142.833 145.167,143.167 144.5,143.5C 143.829,142.153 143.829,140.986 144.5,140C 140.78,138.608 138.78,139.775 138.5,143.5C 136.019,142.304 136.019,140.804 138.5,139C 140.473,138.505 142.473,138.338 144.5,138.5C 144.817,135.428 144.484,132.428 143.5,129.5C 141.736,131.278 139.736,132.611 137.5,133.5C 139.04,129.905 141.707,128.072 145.5,128C 145.371,130.416 145.704,132.916 146.5,135.5C 146.747,136.713 147.414,137.38 148.5,137.5 Z M 144.5,143.5 C 142.5,143.5 140.5,143.5 138.5,143.5C 138.78,139.775 140.78,138.608 144.5,140C 143.829,140.986 143.829,142.153 144.5,143.5 Z"/></g>
<g><path style="opacity:0.263" fill="#e5e8e8" d="M 132.5,132.5 C 130.5,134.833 128.5,137.167 126.5,139.5C 125.833,139.5 125.167,139.5 124.5,139.5C 123.496,142.045 123.163,145.379 123.5,149.5C 122.833,148.167 122.167,146.833 121.5,145.5C 122.413,143.914 122.413,142.414 121.5,141C 122.085,139.698 122.751,138.531 123.5,137.5C 124.721,136.972 125.887,136.305 127,135.5C 127.692,134.563 127.525,133.897 126.5,133.5C 126.842,132.662 127.508,132.328 128.5,132.5C 129.964,131.595 131.298,131.595 132.5,132.5 Z"/></g>
<g><path style="opacity:0.394" fill="#dfe1e1" d="M 204.5,124.5 C 204.141,126.371 203.141,127.871 201.5,129C 202.094,129.464 202.761,129.631 203.5,129.5C 202.833,130.5 202.167,131.5 201.5,132.5C 200.719,130.372 199.719,130.205 198.5,132C 200.706,134.037 202.706,136.203 204.5,138.5C 201.392,137.227 199.059,135.061 197.5,132C 199.32,129.014 201.653,126.514 204.5,124.5 Z"/></g>
<g><path style="opacity:0.578" fill="#eaedec" d="M 123.5,137.5 C 122.751,138.531 122.085,139.698 121.5,141C 122.413,142.414 122.413,143.914 121.5,145.5C 120.167,146.833 118.833,148.167 117.5,149.5C 113.537,150.44 109.537,150.607 105.5,150C 107.541,148.259 109.708,148.092 112,149.5C 113.878,148.947 115.378,147.947 116.5,146.5C 116.918,145.778 117.584,145.278 118.5,145C 118.167,144.667 117.833,144.333 117.5,144C 119.291,141.894 119.958,139.394 119.5,136.5C 119.154,134.247 119.654,131.913 121,129.5C 120.293,132.473 121.126,135.139 123.5,137.5 Z"/></g>
<g><path style="opacity:0.718" fill="#eaeeef" d="M 153.5,117.5 C 153.813,124.755 153.48,131.921 152.5,139C 153.448,139.483 154.448,139.649 155.5,139.5C 156.568,140.434 157.901,140.768 159.5,140.5C 156.64,141.244 153.64,141.911 150.5,142.5C 150.167,141.833 149.833,141.167 149.5,140.5C 148.482,141.193 147.482,141.859 146.5,142.5C 147.167,140.833 147.833,139.167 148.5,137.5C 150.379,136.105 151.379,134.105 151.5,131.5C 152.117,126.731 152.784,122.064 153.5,117.5 Z"/></g>
<g><path style="opacity:0.776" fill="#dce2e2" d="M 157.5,133.5 C 158.404,134.209 158.737,135.209 158.5,136.5C 160.483,136.843 161.817,136.176 162.5,134.5C 163.725,135.937 164.725,137.604 165.5,139.5C 166.577,140.705 167.91,141.372 169.5,141.5C 169.5,141.833 169.5,142.167 169.5,142.5C 168.167,142.5 167.5,143.167 167.5,144.5C 166.391,144.443 165.391,144.11 164.5,143.5C 164.912,141.027 163.912,139.694 161.5,139.5C 160.749,138.427 159.749,138.26 158.5,139C 159.056,139.383 159.389,139.883 159.5,140.5C 157.901,140.768 156.568,140.434 155.5,139.5C 156.167,139.5 156.5,139.167 156.5,138.5C 156.426,136.922 156.76,135.255 157.5,133.5 Z"/></g>
<g><path style="opacity:0.974" fill="#e7eaea" d="M 208.5,147.5 C 208.611,148.117 208.944,148.617 209.5,149C 207.45,150.332 205.45,150.498 203.5,149.5C 203.167,149.5 202.833,149.5 202.5,149.5C 202.715,147.821 202.048,146.821 200.5,146.5C 198.186,144.523 195.853,142.523 193.5,140.5C 192.692,140.808 192.025,141.308 191.5,142C 192.337,143.011 192.67,144.178 192.5,145.5C 191.566,146.568 191.232,147.901 191.5,149.5C 190.512,146.924 189.512,144.257 188.5,141.5C 189.763,139.57 191.43,137.903 193.5,136.5C 198.793,139.797 203.793,143.463 208.5,147.5 Z"/></g>
<g><path style="opacity:0.937" fill="#e7eeee" d="M 138.5,143.5 C 140.5,143.5 142.5,143.5 144.5,143.5C 141.038,144.482 137.371,144.815 133.5,144.5C 133.027,143.094 132.027,142.427 130.5,142.5C 131.11,141.609 131.443,140.609 131.5,139.5C 132.596,136.614 134.596,134.614 137.5,133.5C 139.736,132.611 141.736,131.278 143.5,129.5C 144.484,132.428 144.817,135.428 144.5,138.5C 142.473,138.338 140.473,138.505 138.5,139C 136.019,140.804 136.019,142.304 138.5,143.5 Z"/></g>
<g><path style="opacity:0.933" fill="#ebf0ef" d="M 164.5,129.5 C 165.338,129.842 165.672,130.508 165.5,131.5C 166.344,134.255 167.344,136.921 168.5,139.5C 168.833,140.167 169.167,140.833 169.5,141.5C 167.91,141.372 166.577,140.705 165.5,139.5C 164.725,137.604 163.725,135.937 162.5,134.5C 162.12,132.302 162.787,130.635 164.5,129.5 Z"/></g>
<g><path style="opacity:0.847" fill="#e9eaea" d="M 201.5,132.5 C 206.851,136.851 211.517,141.851 215.5,147.5C 215.376,148.107 215.043,148.44 214.5,148.5C 213.883,148.611 213.383,148.944 213,149.5C 212.8,147.68 211.966,146.347 210.5,145.5C 207.757,143.761 205.757,141.427 204.5,138.5C 202.706,136.203 200.706,134.037 198.5,132C 199.719,130.205 200.719,130.372 201.5,132.5 Z"/></g>
<g><path style="opacity:0.253" fill="#d1d4d3" d="M 95.5,125.5 C 96.0216,129.79 96.0216,134.29 95.5,139C 96.448,139.483 97.448,139.649 98.5,139.5C 98.2053,137.265 98.5386,135.265 99.5,133.5C 100.426,138.334 100.426,143.334 99.5,148.5C 98.3221,147.338 97.1554,146.338 96,145.5C 95.8019,147.382 95.3019,149.048 94.5,150.5C 94.1739,141.983 94.5073,133.65 95.5,125.5 Z"/></g>
<g><path style="opacity:0.392" fill="#d6dad9" d="M 230.5,133.5 C 230.833,133.5 231.167,133.5 231.5,133.5C 231.34,135.199 231.506,136.866 232,138.5C 232.198,136.618 232.698,134.952 233.5,133.5C 233.643,137.728 233.976,142.395 234.5,147.5C 233.787,149.776 233.287,152.109 233,154.5C 232.617,155.056 232.117,155.389 231.5,155.5C 232.567,150.218 232.733,144.885 232,139.5C 231.79,141.058 231.29,142.391 230.5,143.5C 230.5,140.167 230.5,136.833 230.5,133.5 Z"/></g>
<g><path style="opacity:0.788" fill="#e7ecec" d="M 161.5,139.5 C 163.912,139.694 164.912,141.027 164.5,143.5C 165.038,145.117 165.371,146.784 165.5,148.5C 164.896,151.218 163.563,153.551 161.5,155.5C 162.929,152.692 163.595,149.692 163.5,146.5C 161.824,144.233 161.157,141.9 161.5,139.5 Z"/></g>
<g><path style="opacity:0.792" fill="#e4e8e7" d="M 106.5,134.5 C 112.498,134.087 114.831,136.587 113.5,142C 110.697,142.615 108.364,143.782 106.5,145.5C 104.401,146.517 103.401,147.85 103.5,149.5C 102.795,146.911 102.795,144.244 103.5,141.5C 106.562,141.156 109.562,140.489 112.5,139.5C 112.137,138.817 111.804,138.15 111.5,137.5C 109.369,136.686 107.036,136.186 104.5,136C 105.044,135.283 105.711,134.783 106.5,134.5 Z"/></g>
<g><path style="opacity:0.933" fill="#dce0e2" d="M 159.5,140.5 C 160.598,141.601 160.765,142.934 160,144.5C 152.551,140.809 148.718,143.143 148.5,151.5C 147.603,150.319 147.103,148.319 147,145.5C 146.802,147.382 146.302,149.048 145.5,150.5C 145.768,148.901 145.434,147.568 144.5,146.5C 145.6,145.395 146.267,144.062 146.5,142.5C 147.482,141.859 148.482,141.193 149.5,140.5C 149.833,141.167 150.167,141.833 150.5,142.5C 153.64,141.911 156.64,141.244 159.5,140.5 Z"/></g>
<g><path style="opacity:0.659" fill="#eaeeee" d="M 181.5,138.5 C 182.369,140.717 182.702,143.05 182.5,145.5C 181.5,146.167 180.5,146.833 179.5,147.5C 179.768,145.901 179.434,144.568 178.5,143.5C 178.5,142.833 178.167,142.5 177.5,142.5C 177.5,142.167 177.5,141.833 177.5,141.5C 178.674,140.486 179.34,139.153 179.5,137.5C 180.988,134.814 181.655,135.147 181.5,138.5 Z"/></g>
<g><path style="opacity:0.22" fill="#dadede" d="M 124.5,139.5 C 125.167,139.5 125.833,139.5 126.5,139.5C 126.47,140.497 126.97,141.164 128,141.5C 129.077,140.571 130.244,139.904 131.5,139.5C 131.443,140.609 131.11,141.609 130.5,142.5C 128.852,143.81 127.186,145.143 125.5,146.5C 124.526,144.257 124.192,141.924 124.5,139.5 Z"/></g>
<g><path style="opacity:0.753" fill="#dee5e5" d="M 168.5,139.5 C 171.877,139.068 174.877,139.735 177.5,141.5C 177.5,141.833 177.5,142.167 177.5,142.5C 178.167,142.5 178.5,142.833 178.5,143.5C 179.434,144.568 179.768,145.901 179.5,147.5C 179.5,148.167 179.5,148.833 179.5,149.5C 178.292,148.766 176.959,148.433 175.5,148.5C 175.5,146.167 175.5,143.833 175.5,141.5C 173.5,141.5 171.5,141.5 169.5,141.5C 169.167,140.833 168.833,140.167 168.5,139.5 Z M 176.5,144.5 C 178.337,144.639 178.67,145.306 177.5,146.5C 176.702,146.043 176.369,145.376 176.5,144.5 Z"/></g>
<g><path style="opacity:0.886" fill="#f0f4f6" d="M 161.5,139.5 C 161.157,141.9 161.824,144.233 163.5,146.5C 162.883,146.389 162.383,146.056 162,145.5C 161.814,148.036 161.314,150.369 160.5,152.5C 160.662,150.473 160.495,148.473 160,146.5C 159.184,145.177 158.017,144.511 156.5,144.5C 154.486,144.392 152.82,145.058 151.5,146.5C 150.539,148.265 150.205,150.265 150.5,152.5C 149.833,152.167 149.167,151.833 148.5,151.5C 148.718,143.143 152.551,140.809 160,144.5C 160.765,142.934 160.598,141.601 159.5,140.5C 159.389,139.883 159.056,139.383 158.5,139C 159.749,138.26 160.749,138.427 161.5,139.5 Z M 156.5,144.5 C 157.476,145.815 158.476,147.148 159.5,148.5C 158.998,149.716 158.665,150.883 158.5,152C 153.087,153.9 150.753,152.067 151.5,146.5C 152.82,145.058 154.486,144.392 156.5,144.5 Z"/></g>
<g><path style="opacity:0.51" fill="#ecf7f8" d="M 146.5,142.5 C 146.267,144.062 145.6,145.395 144.5,146.5C 143.167,146.5 141.833,146.5 140.5,146.5C 139.833,146.833 139.167,147.167 138.5,147.5C 136.401,146.388 134.067,145.721 131.5,145.5C 131.842,144.662 132.508,144.328 133.5,144.5C 137.371,144.815 141.038,144.482 144.5,143.5C 145.167,143.167 145.833,142.833 146.5,142.5 Z"/></g>
<g><path style="opacity:0.157" fill="#d4dbdb" d="M 131.5,145.5 C 134.067,145.721 136.401,146.388 138.5,147.5C 135.668,148.271 135.335,148.938 137.5,149.5C 137.5,150.167 137.5,150.833 137.5,151.5C 134.167,151.5 130.833,151.5 127.5,151.5C 127.5,150.167 126.833,149.5 125.5,149.5C 126.708,146.956 128.708,145.622 131.5,145.5 Z"/></g>
<g><path style="opacity:0.435" fill="#e4e9ea" d="M 156.5,144.5 C 158.017,144.511 159.184,145.177 160,146.5C 160.495,148.473 160.662,150.473 160.5,152.5C 160.179,154.048 159.179,154.715 157.5,154.5C 154.921,154.606 152.588,153.939 150.5,152.5C 150.205,150.265 150.539,148.265 151.5,146.5C 150.753,152.067 153.087,153.9 158.5,152C 158.665,150.883 158.998,149.716 159.5,148.5C 158.476,147.148 157.476,145.815 156.5,144.5 Z"/></g>
<g><path style="opacity:0.904" fill="#f1f6f5" d="M 69.5,144.5 C 68.5233,147.287 68.19,150.287 68.5,153.5C 67.8333,156.167 67.1667,158.833 66.5,161.5C 66.4268,156.454 66.0934,151.62 65.5,147C 65.8588,144.704 66.8588,142.871 68.5,141.5C 69.3635,140.537 70.0302,140.537 70.5,141.5C 69.8728,142.417 69.5394,143.417 69.5,144.5 Z"/></g>
<g><path style="opacity:0.937" fill="#edf1f1" d="M 124.5,139.5 C 124.192,141.924 124.526,144.257 125.5,146.5C 127.186,145.143 128.852,143.81 130.5,142.5C 132.027,142.427 133.027,143.094 133.5,144.5C 132.508,144.328 131.842,144.662 131.5,145.5C 128.708,145.622 126.708,146.956 125.5,149.5C 124.833,149.5 124.167,149.5 123.5,149.5C 123.163,145.379 123.496,142.045 124.5,139.5 Z"/></g>
<g><path style="opacity:0.704" fill="#dce0e1" d="M 163.5,146.5 C 163.595,149.692 162.929,152.692 161.5,155.5C 159.516,156.156 157.516,156.822 155.5,157.5C 153.149,156.827 150.816,156.16 148.5,155.5C 148.369,154.624 148.702,153.957 149.5,153.5C 152.066,155.599 154.733,155.932 157.5,154.5C 159.179,154.715 160.179,154.048 160.5,152.5C 161.314,150.369 161.814,148.036 162,145.5C 162.383,146.056 162.883,146.389 163.5,146.5 Z"/></g>
<g><path style="opacity:0.525" fill="#eaf1f1" d="M 169.5,141.5 C 171.5,141.5 173.5,141.5 175.5,141.5C 175.5,143.833 175.5,146.167 175.5,148.5C 175.209,149.649 174.376,150.316 173,150.5C 170.863,149.923 168.696,149.59 166.5,149.5C 165.833,149.5 165.5,149.167 165.5,148.5C 165.371,146.784 165.038,145.117 164.5,143.5C 165.391,144.11 166.391,144.443 167.5,144.5C 168.072,147.244 169.738,148.077 172.5,147C 173.517,145.951 173.684,144.784 173,143.5C 171.687,144.287 170.52,143.954 169.5,142.5C 169.5,142.167 169.5,141.833 169.5,141.5 Z"/></g>
<g><path style="opacity:0.68" fill="#e4e7e8" d="M 188.5,141.5 C 189.512,144.257 190.512,146.924 191.5,149.5C 187.493,150.16 183.493,150.16 179.5,149.5C 179.5,148.833 179.5,148.167 179.5,147.5C 180.5,146.833 181.5,146.167 182.5,145.5C 183.799,147.099 185.465,147.599 187.5,147C 187.673,145.091 188.007,143.257 188.5,141.5 Z"/></g>
<g><path style="opacity:0.114" fill="#cfd1d0" d="M 228.5,130.5 C 230.048,130.821 230.715,131.821 230.5,133.5C 230.5,136.833 230.5,140.167 230.5,143.5C 230.665,147.182 230.499,150.848 230,154.5C 229.617,155.056 229.117,155.389 228.5,155.5C 229.806,147.136 229.806,138.803 228.5,130.5 Z"/></g>
<g><path style="opacity:0.839" fill="#dadedd" d="M 111.5,137.5 C 111.804,138.15 112.137,138.817 112.5,139.5C 109.562,140.489 106.562,141.156 103.5,141.5C 102.795,144.244 102.795,146.911 103.5,149.5C 103.401,147.85 104.401,146.517 106.5,145.5C 106.962,146.88 107.962,147.547 109.5,147.5C 111.782,146.777 114.116,146.443 116.5,146.5C 115.378,147.947 113.878,148.947 112,149.5C 109.708,148.092 107.541,148.259 105.5,150C 109.537,150.607 113.537,150.44 117.5,149.5C 116.833,150.167 116.167,150.833 115.5,151.5C 111.167,151.5 106.833,151.5 102.5,151.5C 102.5,154.167 102.5,156.833 102.5,159.5C 103.833,159.5 105.167,159.5 106.5,159.5C 106.389,160.117 106.056,160.617 105.5,161C 107.119,161.236 108.119,162.069 108.5,163.5C 108.062,163.435 107.728,163.601 107.5,164C 109.32,164.2 110.653,165.034 111.5,166.5C 109.871,168.06 108.704,167.727 108,165.5C 107.283,166.044 106.783,166.711 106.5,167.5C 105.604,168.506 104.938,168.506 104.5,167.5C 103.965,165.554 102.632,164.554 100.5,164.5C 100.5,163.833 100.5,163.167 100.5,162.5C 100.523,154.817 100.857,147.15 101.5,139.5C 102.268,138.737 102.768,137.737 103,136.5C 105.719,137.444 108.552,137.777 111.5,137.5 Z"/></g>
<g><path style="opacity:0.441" fill="#d1d7d8" d="M 140.5,146.5 C 141.833,146.5 143.167,146.5 144.5,146.5C 145.434,147.568 145.768,148.901 145.5,150.5C 147.353,152.691 147.687,155.025 146.5,157.5C 145.609,158.11 144.609,158.443 143.5,158.5C 142.833,158.5 142.5,158.167 142.5,157.5C 143.376,157.631 144.043,157.298 144.5,156.5C 143.691,154.929 143.357,153.262 143.5,151.5C 142.209,151.737 141.209,151.404 140.5,150.5C 141.354,149.368 141.354,148.035 140.5,146.5 Z"/></g>
<g><path style="opacity:0.786" fill="#d7d9d8" d="M 92.5,127.5 C 92.8333,127.5 93.1667,127.5 93.5,127.5C 93.2031,140.883 93.5364,154.216 94.5,167.5C 93.8826,167.611 93.3826,167.944 93,168.5C 92.5639,166.153 92.0639,163.819 91.5,161.5C 91.789,149.717 92.1223,138.384 92.5,127.5 Z"/></g>
<g><path style="opacity:0.553" fill="#cacecd" d="M 121.5,145.5 C 122.167,146.833 122.833,148.167 123.5,149.5C 124.167,149.5 124.833,149.5 125.5,149.5C 126.833,149.5 127.5,150.167 127.5,151.5C 123.718,151.914 120.051,151.914 116.5,151.5C 116.167,151.5 115.833,151.5 115.5,151.5C 116.167,150.833 116.833,150.167 117.5,149.5C 118.833,148.167 120.167,146.833 121.5,145.5 Z"/></g>
<g><path style="opacity:0.945" fill="#d8dbda" d="M 210.5,145.5 C 211.966,146.347 212.8,147.68 213,149.5C 213.383,148.944 213.883,148.611 214.5,148.5C 215.585,153.17 213.918,156.17 209.5,157.5C 210.702,155.608 212.035,153.774 213.5,152C 208.316,151.826 203.316,151.326 198.5,150.5C 198.81,149.262 199.31,149.262 200,150.5C 200.49,149.207 200.657,147.873 200.5,146.5C 202.048,146.821 202.715,147.821 202.5,149.5C 202.833,150.833 203.167,150.833 203.5,149.5C 205.45,150.498 207.45,150.332 209.5,149C 208.944,148.617 208.611,148.117 208.5,147.5C 209.167,146.833 209.833,146.167 210.5,145.5 Z"/></g>
<g><path style="opacity:0.272" fill="#c8cac9" d="M 99.5,148.5 C 99.5,149.5 99.5,150.5 99.5,151.5C 97.4857,155.468 97.1524,159.635 98.5,164C 97.7562,165.039 96.7562,165.539 95.5,165.5C 94.5546,160.595 94.2213,155.595 94.5,150.5C 95.3019,149.048 95.8019,147.382 96,145.5C 97.1554,146.338 98.3221,147.338 99.5,148.5 Z"/></g>
<g><path style="opacity:0.11" fill="#e2e7e8" d="M 137.5,149.5 C 138.391,150.11 139.391,150.443 140.5,150.5C 141.209,151.404 142.209,151.737 143.5,151.5C 143.357,153.262 143.691,154.929 144.5,156.5C 144.043,157.298 143.376,157.631 142.5,157.5C 140.678,157.831 139.011,158.498 137.5,159.5C 138.914,157.402 138.248,156.402 135.5,156.5C 134.789,154.799 133.455,153.799 131.5,153.5C 133.969,152.683 136.635,152.183 139.5,152C 138.906,151.536 138.239,151.369 137.5,151.5C 137.5,150.833 137.5,150.167 137.5,149.5 Z"/></g>
<g><path style="opacity:0.165" fill="#d5dbdb" d="M 192.5,145.5 C 192.892,147.179 193.392,148.846 194,150.5C 194.383,149.944 194.883,149.611 195.5,149.5C 195.611,150.117 195.944,150.617 196.5,151C 195,151.5 193.5,152 192,152.5C 188.559,151.618 185.059,151.284 181.5,151.5C 181.167,151.5 180.833,151.5 180.5,151.5C 176.622,151.695 172.956,151.695 169.5,151.5C 168.29,151.068 167.29,150.401 166.5,149.5C 168.696,149.59 170.863,149.923 173,150.5C 174.376,150.316 175.209,149.649 175.5,148.5C 176.959,148.433 178.292,148.766 179.5,149.5C 183.493,150.16 187.493,150.16 191.5,149.5C 191.232,147.901 191.566,146.568 192.5,145.5 Z"/></g>
<g><path style="opacity:0.886" fill="#f0f2f1" d="M 231.5,155.5 C 230.542,155.953 229.708,156.619 229,157.5C 228.536,156.906 228.369,156.239 228.5,155.5C 229.117,155.389 229.617,155.056 230,154.5C 230.499,150.848 230.665,147.182 230.5,143.5C 231.29,142.391 231.79,141.058 232,139.5C 232.733,144.885 232.567,150.218 231.5,155.5 Z"/></g>
<g><path style="opacity:0.714" fill="#e7edeb" d="M 69.5,144.5 C 69.1805,149.363 69.5139,154.03 70.5,158.5C 70.5,162.833 70.5,167.167 70.5,171.5C 69.8333,172.167 69.1667,172.833 68.5,173.5C 68.969,166.686 68.969,160.019 68.5,153.5C 68.19,150.287 68.5233,147.287 69.5,144.5 Z"/></g>
<g><path style="opacity:0.996" fill="#f0f3f3" d="M 116.5,151.5 C 120.051,151.914 123.718,151.914 127.5,151.5C 130.833,151.5 134.167,151.5 137.5,151.5C 138.239,151.369 138.906,151.536 139.5,152C 136.635,152.183 133.969,152.683 131.5,153.5C 131.167,153.5 130.833,153.5 130.5,153.5C 128.034,152.366 125.367,152.199 122.5,153C 120.595,154.421 118.595,155.588 116.5,156.5C 116.5,154.833 116.5,153.167 116.5,151.5 Z"/></g>
<g><path style="opacity:0.218" fill="#dee3e3" d="M 115.5,151.5 C 115.833,151.5 116.167,151.5 116.5,151.5C 116.5,153.167 116.5,154.833 116.5,156.5C 115.778,156.082 115.278,155.416 115,154.5C 112.056,158.114 108.223,159.447 103.5,158.5C 103.5,156.5 103.5,154.5 103.5,152.5C 106.909,152.249 110.242,152.583 113.5,153.5C 114.522,153.145 115.189,152.478 115.5,151.5 Z"/></g>
<g><path style="opacity:0.281" fill="#d6dbdb" d="M 165.5,148.5 C 165.5,149.167 165.833,149.5 166.5,149.5C 167.29,150.401 168.29,151.068 169.5,151.5C 167.487,153.773 165.32,156.106 163,158.5C 162.517,159.448 162.351,160.448 162.5,161.5C 161.033,165.429 160.699,169.429 161.5,173.5C 160.539,175.265 160.205,177.265 160.5,179.5C 160.167,179.5 159.833,179.5 159.5,179.5C 159.824,172.646 159.491,165.979 158.5,159.5C 157.167,159.5 155.833,159.5 154.5,159.5C 152.692,159.509 151.025,159.009 149.5,158C 152.46,158.32 155.46,158.32 158.5,158C 160.119,157.764 161.119,156.931 161.5,155.5C 163.563,153.551 164.896,151.218 165.5,148.5 Z"/></g>
<g><path style="opacity:0.994" fill="#eaf1f0" d="M 169.5,151.5 C 172.956,151.695 176.622,151.695 180.5,151.5C 177.286,152.282 173.952,153.115 170.5,154C 168.937,154.759 167.937,155.926 167.5,157.5C 167.5,158.167 167.167,158.5 166.5,158.5C 164.57,158.771 163.236,159.771 162.5,161.5C 162.351,160.448 162.517,159.448 163,158.5C 165.32,156.106 167.487,153.773 169.5,151.5 Z"/></g>
<g><path style="opacity:0.22" fill="#dae1e1" d="M 180.5,151.5 C 180.833,151.5 181.167,151.5 181.5,151.5C 183.299,152.748 185.133,153.748 187,154.5C 187.718,153.549 188.551,153.383 189.5,154C 188.167,155.333 186.833,156.667 185.5,158C 181.514,158.499 177.514,158.666 173.5,158.5C 173.918,157.778 174.584,157.278 175.5,157C 174.5,156.5 173.5,156 172.5,155.5C 171.15,156.95 169.484,157.617 167.5,157.5C 167.937,155.926 168.937,154.759 170.5,154C 173.952,153.115 177.286,152.282 180.5,151.5 Z M 177.5,154.5 C 179.288,154.215 180.955,154.548 182.5,155.5C 181.667,155.833 180.833,156.167 180,156.5C 178.624,156.316 177.791,155.649 177.5,154.5 Z"/></g>
<g><path style="opacity:0.784" fill="#ecf0f1" d="M 148.5,151.5 C 149.167,151.833 149.833,152.167 150.5,152.5C 152.588,153.939 154.921,154.606 157.5,154.5C 154.733,155.932 152.066,155.599 149.5,153.5C 148.702,153.957 148.369,154.624 148.5,155.5C 148.672,156.492 148.338,157.158 147.5,157.5C 147.167,157.5 146.833,157.5 146.5,157.5C 147.687,155.025 147.353,152.691 145.5,150.5C 146.302,149.048 146.802,147.382 147,145.5C 147.103,148.319 147.603,150.319 148.5,151.5 Z"/></g>
<g><path style="opacity:0.937" fill="#ecf0ef" d="M 148.5,155.5 C 150.816,156.16 153.149,156.827 155.5,157.5C 157.516,156.822 159.516,156.156 161.5,155.5C 161.119,156.931 160.119,157.764 158.5,158C 155.46,158.32 152.46,158.32 149.5,158C 151.025,159.009 152.692,159.509 154.5,159.5C 154.158,160.338 153.492,160.672 152.5,160.5C 150.716,160.107 149.05,159.441 147.5,158.5C 147.5,158.167 147.5,157.833 147.5,157.5C 148.338,157.158 148.672,156.492 148.5,155.5 Z"/></g>
<g><path style="opacity:0.963" fill="#f2f4f3" d="M 103.5,125.5 C 103.5,125.833 103.5,126.167 103.5,126.5C 102.105,130.591 101.438,134.924 101.5,139.5C 100.857,147.15 100.523,154.817 100.5,162.5C 99.7109,162.217 99.0442,161.717 98.5,161C 99.4505,157.943 99.7839,154.777 99.5,151.5C 99.5,150.5 99.5,149.5 99.5,148.5C 100.426,143.334 100.426,138.334 99.5,133.5C 99.5,132.833 99.5,132.167 99.5,131.5C 100.545,129.23 101.879,127.23 103.5,125.5 Z"/></g>
<g><path style="opacity:0.089" fill="#d5d7d6" d="M 130.5,153.5 C 128.177,154.058 125.843,154.725 123.5,155.5C 122.873,156.417 122.539,157.417 122.5,158.5C 122.167,158.5 121.833,158.5 121.5,158.5C 119.219,158.923 117.552,158.256 116.5,156.5C 118.595,155.588 120.595,154.421 122.5,153C 125.367,152.199 128.034,152.366 130.5,153.5 Z"/></g>
<g><path style="opacity:1" fill="#f0f4f4" d="M 195.5,149.5 C 196.609,149.557 197.609,149.89 198.5,150.5C 203.316,151.326 208.316,151.826 213.5,152C 212.035,153.774 210.702,155.608 209.5,157.5C 208.395,158.6 207.062,159.267 205.5,159.5C 203.833,158.833 202.167,158.167 200.5,157.5C 202.167,157.5 203.833,157.5 205.5,157.5C 207.729,156.945 209.395,155.611 210.5,153.5C 205.198,152.337 199.864,152.171 194.5,153C 192.959,154.371 191.625,155.871 190.5,157.5C 189.25,157.577 188.417,158.244 188,159.5C 187.501,164.823 187.334,170.156 187.5,175.5C 187.5,176.833 187.5,178.167 187.5,179.5C 187.5,179.833 187.5,180.167 187.5,180.5C 187.167,180.5 186.833,180.5 186.5,180.5C 186.5,173.5 186.5,166.5 186.5,159.5C 184.5,159.5 182.5,159.5 180.5,159.5C 176.845,158.925 173.845,159.925 171.5,162.5C 171.5,163.167 171.167,163.5 170.5,163.5C 169.539,165.265 169.205,167.265 169.5,169.5C 168.532,167.393 168.198,165.059 168.5,162.5C 169.27,160.065 170.937,158.731 173.5,158.5C 177.514,158.666 181.514,158.499 185.5,158C 186.833,156.667 188.167,155.333 189.5,154C 188.551,153.383 187.718,153.549 187,154.5C 185.133,153.748 183.299,152.748 181.5,151.5C 185.059,151.284 188.559,151.618 192,152.5C 193.5,152 195,151.5 196.5,151C 195.944,150.617 195.611,150.117 195.5,149.5 Z M 205.5,157.5 C 203.833,157.5 202.167,157.5 200.5,157.5C 200.158,156.662 199.492,156.328 198.5,156.5C 199.841,154.88 201.674,153.88 204,153.5C 204.41,154.901 204.91,156.234 205.5,157.5 Z"/></g>
<g><path style="opacity:0.314" fill="#d8ddde" d="M 205.5,157.5 C 204.91,156.234 204.41,154.901 204,153.5C 201.674,153.88 199.841,154.88 198.5,156.5C 198.167,156.5 197.833,156.5 197.5,156.5C 195.61,156.297 194.11,156.963 193,158.5C 192.049,158.116 191.216,157.783 190.5,157.5C 191.625,155.871 192.959,154.371 194.5,153C 199.864,152.171 205.198,152.337 210.5,153.5C 209.395,155.611 207.729,156.945 205.5,157.5 Z M 205.5,157.5 C 203.833,157.5 202.167,157.5 200.5,157.5C 200.158,156.662 199.492,156.328 198.5,156.5C 199.841,154.88 201.674,153.88 204,153.5C 204.41,154.901 204.91,156.234 205.5,157.5 Z"/></g>
<g><path style="opacity:1" fill="#f9fbfb" d="M 96.5,122.5 C 96.4431,123.609 96.1098,124.609 95.5,125.5C 94.5073,133.65 94.1739,141.983 94.5,150.5C 94.2213,155.595 94.5546,160.595 95.5,165.5C 95.9731,166.906 96.9731,167.573 98.5,167.5C 97.2946,168.686 95.9613,168.686 94.5,167.5C 93.5364,154.216 93.2031,140.883 93.5,127.5C 93.2729,125.067 94.2729,123.401 96.5,122.5 Z"/></g>
<g><path style="opacity:1" fill="#f4f8f7" d="M 115.5,151.5 C 115.189,152.478 114.522,153.145 113.5,153.5C 110.242,152.583 106.909,152.249 103.5,152.5C 103.5,154.5 103.5,156.5 103.5,158.5C 108.223,159.447 112.056,158.114 115,154.5C 115.278,155.416 115.778,156.082 116.5,156.5C 117.552,158.256 119.219,158.923 121.5,158.5C 121.737,159.791 121.404,160.791 120.5,161.5C 118.678,159.766 116.345,158.766 113.5,158.5C 111.253,159.374 108.92,159.708 106.5,159.5C 105.167,159.5 103.833,159.5 102.5,159.5C 102.5,156.833 102.5,154.167 102.5,151.5C 106.833,151.5 111.167,151.5 115.5,151.5 Z"/></g>
<g><path style="opacity:0.936" fill="#f8fcfc" d="M 198.5,156.5 C 199.492,156.328 200.158,156.662 200.5,157.5C 202.167,158.167 203.833,158.833 205.5,159.5C 202.167,159.5 198.833,159.5 195.5,159.5C 195.5,160.5 195.5,161.5 195.5,162.5C 198.5,162.5 201.5,162.5 204.5,162.5C 202.5,163.167 200.5,163.833 198.5,164.5C 198.167,164.5 197.833,164.5 197.5,164.5C 191.931,161.308 192.264,158.975 198.5,157.5C 198.5,157.167 198.5,156.833 198.5,156.5 Z"/></g>
<g><path style="opacity:0.58" fill="#d9dddf" d="M 137.5,159.5 C 135.548,161.742 133.215,162.076 130.5,160.5C 130.336,163.187 130.503,165.854 131,168.5C 131.671,167.748 132.504,167.414 133.5,167.5C 132.595,168.964 132.595,170.298 133.5,171.5C 132.292,172.234 130.959,172.567 129.5,172.5C 129.5,168.167 129.5,163.833 129.5,159.5C 132.167,159.5 134.833,159.5 137.5,159.5 Z"/></g>
<g><path style="opacity:0.859" fill="#ecf4f3" d="M 146.5,157.5 C 146.833,157.5 147.167,157.5 147.5,157.5C 147.5,157.833 147.5,158.167 147.5,158.5C 146.128,160.089 144.461,161.422 142.5,162.5C 141.45,163.429 141.45,164.095 142.5,164.5C 142.573,166.027 141.906,167.027 140.5,167.5C 139.833,166.5 139.167,165.5 138.5,164.5C 140.144,162.519 141.81,160.519 143.5,158.5C 144.609,158.443 145.609,158.11 146.5,157.5 Z"/></g>
<g><path style="opacity:0.2" fill="#d7dfdf" d="M 147.5,158.5 C 149.05,159.441 150.716,160.107 152.5,160.5C 153.884,161.801 155.384,161.801 157,160.5C 157.692,161.437 157.525,162.103 156.5,162.5C 155.5,162.5 154.5,162.5 153.5,162.5C 153.5,163.5 153.5,164.5 153.5,165.5C 151.117,160.119 149.117,160.453 147.5,166.5C 146.5,166.5 145.5,166.5 144.5,166.5C 147.129,163.559 146.462,162.893 142.5,164.5C 141.45,164.095 141.45,163.429 142.5,162.5C 144.461,161.422 146.128,160.089 147.5,158.5 Z"/></g>
<g><path style="opacity:0.41" fill="#dae1e0" d="M 180.5,159.5 C 180.443,160.609 180.11,161.609 179.5,162.5C 178.833,162.5 178.5,162.833 178.5,163.5C 177.834,166.358 177.167,169.358 176.5,172.5C 175.893,172.376 175.56,172.043 175.5,171.5C 176.201,168.437 176.868,165.27 177.5,162C 175.455,161.51 173.455,161.677 171.5,162.5C 173.845,159.925 176.845,158.925 180.5,159.5 Z"/></g>
<g><path style="opacity:0.051" fill="#d9dbdb" d="M 209.5,157.5 C 207.34,161.87 206.007,166.536 205.5,171.5C 206.783,174.635 206.783,177.635 205.5,180.5C 205.167,180.5 204.833,180.5 204.5,180.5C 204.894,179.033 205.227,177.533 205.5,176C 205.316,174.624 204.649,173.791 203.5,173.5C 202.828,172.733 201.995,172.066 201,171.5C 199.094,171.562 197.26,171.562 195.5,171.5C 198.086,170.52 200.753,170.187 203.5,170.5C 205.026,169.508 205.693,168.008 205.5,166C 205.486,164.615 205.152,163.449 204.5,162.5C 201.5,162.5 198.5,162.5 195.5,162.5C 195.5,161.5 195.5,160.5 195.5,159.5C 198.833,159.5 202.167,159.5 205.5,159.5C 207.062,159.267 208.395,158.6 209.5,157.5 Z"/></g>
<g><path style="opacity:0.235" fill="#d2d5d3" d="M 99.5,151.5 C 99.7839,154.777 99.4505,157.943 98.5,161C 99.0442,161.717 99.7109,162.217 100.5,162.5C 100.5,163.167 100.5,163.833 100.5,164.5C 101.167,165.5 101.833,166.5 102.5,167.5C 102.167,167.5 101.833,167.5 101.5,167.5C 100.5,167.5 99.5,167.5 98.5,167.5C 96.9731,167.573 95.9731,166.906 95.5,165.5C 96.7562,165.539 97.7562,165.039 98.5,164C 97.1524,159.635 97.4857,155.468 99.5,151.5 Z"/></g>
<g><path style="opacity:0.655" fill="#dce2e2" d="M 180.5,159.5 C 182.5,159.5 184.5,159.5 186.5,159.5C 186.5,166.5 186.5,173.5 186.5,180.5C 186.167,180.5 185.833,180.5 185.5,180.5C 185.5,174.5 185.5,168.5 185.5,162.5C 183.5,162.5 181.5,162.5 179.5,162.5C 180.11,161.609 180.443,160.609 180.5,159.5 Z"/></g>
<g><path style="opacity:0.218" fill="#e3e6e6" d="M 154.5,159.5 C 155.833,159.5 157.167,159.5 158.5,159.5C 158.824,166.354 158.491,173.021 157.5,179.5C 157.5,179.167 157.5,178.833 157.5,178.5C 157.782,173.073 157.449,167.74 156.5,162.5C 157.525,162.103 157.692,161.437 157,160.5C 155.384,161.801 153.884,161.801 152.5,160.5C 153.492,160.672 154.158,160.338 154.5,159.5 Z"/></g>
<g><path style="opacity:0.533" fill="#d9dedd" d="M 120.5,161.5 C 120.5,161.833 120.5,162.167 120.5,162.5C 120.5,168.5 120.5,174.5 120.5,180.5C 120.167,180.5 119.833,180.5 119.5,180.5C 119.167,178.5 118.833,176.5 118.5,174.5C 118.167,173.833 117.833,173.167 117.5,172.5C 118.622,169.527 119.289,166.694 119.5,164C 117.57,160.393 115.237,159.893 112.5,162.5C 113.524,163.852 114.524,165.185 115.5,166.5C 115.565,166.938 115.399,167.272 115,167.5C 113.429,165.077 111.263,163.744 108.5,163.5C 108.119,162.069 107.119,161.236 105.5,161C 106.056,160.617 106.389,160.117 106.5,159.5C 108.92,159.708 111.253,159.374 113.5,158.5C 116.345,158.766 118.678,159.766 120.5,161.5 Z"/></g>
<g><path style="opacity:0.957" fill="#f1f5f5" d="M 135.5,156.5 C 138.248,156.402 138.914,157.402 137.5,159.5C 134.833,159.5 132.167,159.5 129.5,159.5C 129.5,163.833 129.5,168.167 129.5,172.5C 129.167,172.5 128.833,172.5 128.5,172.5C 127.635,167.933 127.635,163.267 128.5,158.5C 128.369,157.624 128.702,156.957 129.5,156.5C 131.532,157.819 133.532,157.819 135.5,156.5 Z"/></g>
<g><path style="opacity:0.737" fill="#dee1e2" d="M 197.5,156.5 C 197.5,157.167 197.833,157.5 198.5,157.5C 192.264,158.975 191.931,161.308 197.5,164.5C 193.705,165.041 191.705,163.375 191.5,159.5C 190.914,159.709 190.414,160.043 190,160.5C 189.501,165.823 189.334,171.156 189.5,176.5C 188.833,176.167 188.167,175.833 187.5,175.5C 187.334,170.156 187.501,164.823 188,159.5C 188.417,158.244 189.25,157.577 190.5,157.5C 191.216,157.783 192.049,158.116 193,158.5C 194.11,156.963 195.61,156.297 197.5,156.5 Z"/></g>
<g><path style="opacity:0.439" fill="#eaeceb" d="M 204.5,162.5 C 205.152,163.449 205.486,164.615 205.5,166C 205.693,168.008 205.026,169.508 203.5,170.5C 202.5,169.833 201.5,169.167 200.5,168.5C 202.104,167.713 202.771,166.38 202.5,164.5C 201.167,164.5 199.833,164.5 198.5,164.5C 200.5,163.833 202.5,163.167 204.5,162.5 Z"/></g>
<g><path style="opacity:0.956" fill="#f4f7f7" d="M 68.5,153.5 C 68.969,160.019 68.969,166.686 68.5,173.5C 68.5,176.5 68.5,179.5 68.5,182.5C 68.1667,182.5 67.8333,182.5 67.5,182.5C 67.5,181.167 66.8333,180.5 65.5,180.5C 66.4333,174.045 66.7666,167.711 66.5,161.5C 67.1667,158.833 67.8333,156.167 68.5,153.5 Z"/></g>
<g><path style="opacity:0.963" fill="#edeff0" d="M 108.5,163.5 C 111.263,163.744 113.429,165.077 115,167.5C 115.399,167.272 115.565,166.938 115.5,166.5C 117.441,168.316 118.108,170.316 117.5,172.5C 117.833,173.167 118.167,173.833 118.5,174.5C 117.833,174.5 117.167,174.5 116.5,174.5C 115.531,173.691 114.698,172.691 114,171.5C 113.601,171.728 113.435,172.062 113.5,172.5C 113.742,170.544 113.075,168.544 111.5,166.5C 110.653,165.034 109.32,164.2 107.5,164C 107.728,163.601 108.062,163.435 108.5,163.5 Z"/></g>
<g><path style="opacity:0.349" fill="#ebf0f0" d="M 138.5,164.5 C 139.167,165.5 139.833,166.5 140.5,167.5C 140.167,167.5 139.833,167.5 139.5,167.5C 136.029,168.478 134.195,170.812 134,174.5C 133.517,173.552 133.351,172.552 133.5,171.5C 132.595,170.298 132.595,168.964 133.5,167.5C 134.899,166.11 136.566,165.11 138.5,164.5 Z"/></g>
<g><path style="opacity:0.519" fill="#dfe3e4" d="M 153.5,165.5 C 153.66,167.199 153.494,168.866 153,170.5C 150.853,171.113 148.686,171.779 146.5,172.5C 145.45,173.429 145.45,174.095 146.5,174.5C 145.054,175.613 143.387,175.78 141.5,175C 142.056,174.617 142.389,174.117 142.5,173.5C 144.92,171.08 147.92,169.913 151.5,170C 149.5,169.667 147.5,169.333 145.5,169C 146.381,168.292 147.047,167.458 147.5,166.5C 149.117,160.453 151.117,160.119 153.5,165.5 Z"/></g>
<g><path style="opacity:0.945" fill="#e7e9e9" d="M 228.5,155.5 C 228.369,156.239 228.536,156.906 229,157.5C 229.708,156.619 230.542,155.953 231.5,155.5C 230.331,158.511 228.664,161.178 226.5,163.5C 222.925,167.653 219.591,171.986 216.5,176.5C 215.833,176.833 215.167,177.167 214.5,177.5C 218.779,169.894 223.446,162.561 228.5,155.5 Z"/></g>
<g><path style="opacity:0.306" fill="#eff1f1" d="M 101.5,167.5 C 101.833,167.5 102.167,167.5 102.5,167.5C 103.167,167.5 103.833,167.5 104.5,167.5C 104.938,168.506 105.604,168.506 106.5,167.5C 108.738,168.853 110.071,170.853 110.5,173.5C 109.833,173.5 109.167,173.5 108.5,173.5C 108.565,173.062 108.399,172.728 108,172.5C 107.583,173.756 106.75,174.423 105.5,174.5C 105.167,174.5 104.833,174.5 104.5,174.5C 104.5,174.167 104.5,173.833 104.5,173.5C 108.142,171.913 108.142,170.58 104.5,169.5C 103.584,169.543 102.917,169.876 102.5,170.5C 102.167,170.5 101.833,170.5 101.5,170.5C 101.082,169.778 100.416,169.278 99.5,169C 100.416,168.722 101.082,168.222 101.5,167.5 Z"/></g>
<g><path style="opacity:0.945" fill="#eff2f3" d="M 144.5,166.5 C 145.5,166.5 146.5,166.5 147.5,166.5C 147.047,167.458 146.381,168.292 145.5,169C 147.5,169.333 149.5,169.667 151.5,170C 147.92,169.913 144.92,171.08 142.5,173.5C 141.624,173.631 140.957,173.298 140.5,172.5C 141.853,171.476 142.52,170.143 142.5,168.5C 143.5,168.167 144.167,167.5 144.5,166.5 Z"/></g>
<g><path style="opacity:0.723" fill="#dbdfdf" d="M 178.5,163.5 C 180.5,163.5 182.5,163.5 184.5,163.5C 184.5,168.833 184.5,174.167 184.5,179.5C 180.5,179.5 176.5,179.5 172.5,179.5C 171.833,179.5 171.5,179.167 171.5,178.5C 175.514,178.666 179.514,178.499 183.5,178C 183.663,173.464 183.163,168.964 182,164.5C 180.731,165.905 180.231,167.571 180.5,169.5C 179.833,169.833 179.167,170.167 178.5,170.5C 179.082,168.002 179.082,165.669 178.5,163.5 Z"/></g>
<g><path style="opacity:0.62" fill="#e0e6e5" d="M 121.5,158.5 C 121.833,158.5 122.167,158.5 122.5,158.5C 123.289,159.915 123.956,161.415 124.5,163C 123.518,163.381 122.852,164.214 122.5,165.5C 123.651,167.325 124.318,169.325 124.5,171.5C 124.167,171.5 123.833,171.5 123.5,171.5C 122.566,172.568 122.232,173.901 122.5,175.5C 122.5,176.833 122.5,178.167 122.5,179.5C 121.833,173.833 121.167,168.167 120.5,162.5C 120.5,162.167 120.5,161.833 120.5,161.5C 121.404,160.791 121.737,159.791 121.5,158.5 Z"/></g>
<g><path style="opacity:0.365" fill="#f0f2f1" d="M 170.5,163.5 C 170.298,165.989 170.798,168.323 172,170.5C 173.011,171.337 174.178,171.67 175.5,171.5C 175.56,172.043 175.893,172.376 176.5,172.5C 177.167,169.358 177.834,166.358 178.5,163.5C 179.082,165.669 179.082,168.002 178.5,170.5C 178.5,171.5 178.5,172.5 178.5,173.5C 176.473,173.662 174.473,173.495 172.5,173C 170.574,172.578 169.574,171.411 169.5,169.5C 169.205,167.265 169.539,165.265 170.5,163.5 Z"/></g>
<g><path style="opacity:0.278" fill="#dee0df" d="M 94.5,167.5 C 95.9613,168.686 97.2946,168.686 98.5,167.5C 99.5,167.5 100.5,167.5 101.5,167.5C 101.082,168.222 100.416,168.722 99.5,169C 100.416,169.278 101.082,169.778 101.5,170.5C 102.849,171.644 103.183,171.644 102.5,170.5C 102.917,169.876 103.584,169.543 104.5,169.5C 108.142,170.58 108.142,171.913 104.5,173.5C 100.833,173.5 97.1667,173.5 93.5,173.5C 93.5,174.833 93.5,176.167 93.5,177.5C 93.1667,177.5 92.8333,177.5 92.5,177.5C 92.4606,176.417 92.1272,175.417 91.5,174.5C 92.8333,173.167 94.1667,171.833 95.5,170.5C 94.8728,169.583 94.5394,168.583 94.5,167.5 Z"/></g>
<g><path style="opacity:0.431" fill="#d7dbdb" d="M 139.5,167.5 C 139.5,168.5 139.5,169.5 139.5,170.5C 138.167,170.833 138.167,171.167 139.5,171.5C 139.912,173.973 138.912,175.306 136.5,175.5C 135.538,177.986 134.705,177.986 134,175.5C 132.535,179.694 133.702,180.361 137.5,177.5C 137.611,178.117 137.944,178.617 138.5,179C 137.177,179.816 136.511,180.983 136.5,182.5C 134.7,181.527 132.866,180.527 131,179.5C 130.617,180.056 130.117,180.389 129.5,180.5C 129.328,179.508 129.662,178.842 130.5,178.5C 131.167,178.5 131.5,178.167 131.5,177.5C 130.167,176.5 130.167,175.5 131.5,174.5C 131.167,173.167 130.833,173.167 130.5,174.5C 129.833,174.167 129.167,173.833 128.5,173.5C 128.5,173.167 128.5,172.833 128.5,172.5C 128.833,172.5 129.167,172.5 129.5,172.5C 130.959,172.567 132.292,172.234 133.5,171.5C 133.351,172.552 133.517,173.552 134,174.5C 134.195,170.812 136.029,168.478 139.5,167.5 Z"/></g>
<g><path style="opacity:0.187" fill="#d8dddd" d="M 128.5,158.5 C 127.635,163.267 127.635,167.933 128.5,172.5C 128.5,172.833 128.5,173.167 128.5,173.5C 127.539,175.265 127.205,177.265 127.5,179.5C 125.833,179.5 124.167,179.5 122.5,179.5C 122.5,178.167 122.5,176.833 122.5,175.5C 123.434,174.432 123.768,173.099 123.5,171.5C 123.833,171.5 124.167,171.5 124.5,171.5C 126.202,168.848 126.536,166.015 125.5,163C 126.053,161.122 127.053,159.622 128.5,158.5 Z"/></g>
<g><path style="opacity:1" fill="#f5f7f8" d="M 178.5,163.5 C 178.5,162.833 178.833,162.5 179.5,162.5C 181.5,162.5 183.5,162.5 185.5,162.5C 185.5,168.5 185.5,174.5 185.5,180.5C 181.167,180.5 176.833,180.5 172.5,180.5C 172.5,180.167 172.5,179.833 172.5,179.5C 176.5,179.5 180.5,179.5 184.5,179.5C 184.5,174.167 184.5,168.833 184.5,163.5C 182.5,163.5 180.5,163.5 178.5,163.5 Z"/></g>
<g><path style="opacity:0.969" fill="#f6fafa" d="M 198.5,168.5 C 199.167,168.5 199.833,168.5 200.5,168.5C 201.5,169.167 202.5,169.833 203.5,170.5C 200.753,170.187 198.086,170.52 195.5,171.5C 197.26,171.562 199.094,171.562 201,171.5C 201.995,172.066 202.828,172.733 203.5,173.5C 199.685,174.082 196.351,173.248 193.5,171C 195.175,170.015 196.842,169.181 198.5,168.5 Z"/></g>
<g><path style="opacity:0.569" fill="#dcdfe1" d="M 168.5,162.5 C 168.198,165.059 168.532,167.393 169.5,169.5C 169.574,171.411 170.574,172.578 172.5,173C 174.473,173.495 176.473,173.662 178.5,173.5C 178.5,172.5 178.5,171.5 178.5,170.5C 179.167,170.167 179.833,169.833 180.5,169.5C 180.808,171.924 180.474,174.257 179.5,176.5C 178.252,175.96 177.085,175.293 176,174.5C 172.815,175.535 170.149,174.202 168,170.5C 167.199,167.633 167.366,164.966 168.5,162.5 Z"/></g>
<g><path style="opacity:0.257" fill="#f0f3f1" d="M 120.5,162.5 C 121.167,168.167 121.833,173.833 122.5,179.5C 124.167,179.5 125.833,179.5 127.5,179.5C 127.205,177.265 127.539,175.265 128.5,173.5C 129.167,173.833 129.833,174.167 130.5,174.5C 130.833,174.5 131.167,174.5 131.5,174.5C 130.167,175.5 130.167,176.5 131.5,177.5C 130.833,177.5 130.5,177.833 130.5,178.5C 129.662,178.842 129.328,179.508 129.5,180.5C 126.5,180.5 123.5,180.5 120.5,180.5C 120.5,174.5 120.5,168.5 120.5,162.5 Z"/></g>
<g><path style="opacity:0.971" fill="#fbfdfd" d="M 158.5,159.5 C 159.491,165.979 159.824,172.646 159.5,179.5C 156.833,180.833 154.167,180.833 151.5,179.5C 153.5,179.5 155.5,179.5 157.5,179.5C 158.491,173.021 158.824,166.354 158.5,159.5 Z"/></g>
<g><path style="opacity:0.49" fill="#bfc2c1" d="M 226.5,163.5 C 224.317,168.527 221.483,173.193 218,177.5C 217.027,179.392 216.36,181.392 216,183.5C 214.887,184.305 213.721,184.972 212.5,185.5C 213.833,182.5 215.167,179.5 216.5,176.5C 219.591,171.986 222.925,167.653 226.5,163.5 Z"/></g>
<g><path style="opacity:0.061" fill="#dce0df" d="M 116.5,174.5 C 115.833,177.167 114.167,178.833 111.5,179.5C 116.874,173.845 116.208,173.179 109.5,177.5C 109.158,178.338 108.492,178.672 107.5,178.5C 107.5,177.833 107.167,177.5 106.5,177.5C 104.544,179.148 102.211,179.815 99.5,179.5C 99.3284,178.508 99.6618,177.842 100.5,177.5C 102.048,178.734 102.715,178.734 102.5,177.5C 103.694,176.728 104.694,175.728 105.5,174.5C 106.75,174.423 107.583,173.756 108,172.5C 108.399,172.728 108.565,173.062 108.5,173.5C 109.167,174.833 109.833,174.833 110.5,173.5C 111.791,173.737 112.791,173.404 113.5,172.5C 113.435,172.062 113.601,171.728 114,171.5C 114.698,172.691 115.531,173.691 116.5,174.5 Z"/></g>
<g><path style="opacity:0.902" fill="#edefef" d="M 142.5,168.5 C 142.52,170.143 141.853,171.476 140.5,172.5C 140.957,173.298 141.624,173.631 142.5,173.5C 142.389,174.117 142.056,174.617 141.5,175C 143.387,175.78 145.054,175.613 146.5,174.5C 148.216,174.629 149.883,174.962 151.5,175.5C 151.53,176.497 151.03,177.164 150,177.5C 145.973,177.073 141.807,177.073 137.5,177.5C 133.702,180.361 132.535,179.694 134,175.5C 134.705,177.986 135.538,177.986 136.5,175.5C 138.912,175.306 139.912,173.973 139.5,171.5C 139.5,171.167 139.5,170.833 139.5,170.5C 140.778,170.218 141.778,169.551 142.5,168.5 Z"/></g>
<g><path style="opacity:0.839" fill="#e7e9e8" d="M 166.5,158.5 C 161.223,167.03 162.89,173.697 171.5,178.5C 171.5,179.167 171.833,179.5 172.5,179.5C 172.5,179.833 172.5,180.167 172.5,180.5C 171.5,180.5 170.5,180.5 169.5,180.5C 169.158,179.662 168.492,179.328 167.5,179.5C 164.522,178.522 162.522,176.522 161.5,173.5C 160.699,169.429 161.033,165.429 162.5,161.5C 163.236,159.771 164.57,158.771 166.5,158.5 Z"/></g>
<g><path style="opacity:1" fill="#f6f7f7" d="M 104.5,173.5 C 104.5,173.833 104.5,174.167 104.5,174.5C 101.167,174.5 97.8333,174.5 94.5,174.5C 94.5,176.167 94.5,177.833 94.5,179.5C 96.1667,179.5 97.8333,179.5 99.5,179.5C 102.211,179.815 104.544,179.148 106.5,177.5C 107.167,177.5 107.5,177.833 107.5,178.5C 108.492,178.672 109.158,178.338 109.5,177.5C 116.208,173.179 116.874,173.845 111.5,179.5C 107.901,180.344 104.234,180.677 100.5,180.5C 98.1667,180.5 95.8333,180.5 93.5,180.5C 93.5,179.5 93.5,178.5 93.5,177.5C 93.5,176.167 93.5,174.833 93.5,173.5C 97.1667,173.5 100.833,173.5 104.5,173.5 Z"/></g>
<g><path style="opacity:0.653" fill="#d4d5d5" d="M 104.5,174.5 C 104.833,174.5 105.167,174.5 105.5,174.5C 104.694,175.728 103.694,176.728 102.5,177.5C 101.833,177.5 101.167,177.5 100.5,177.5C 99.6618,177.842 99.3284,178.508 99.5,179.5C 97.8333,179.5 96.1667,179.5 94.5,179.5C 94.5,177.833 94.5,176.167 94.5,174.5C 97.8333,174.5 101.167,174.5 104.5,174.5 Z"/></g>
<g><path style="opacity:0.582" fill="#dcdddd" d="M 151.5,175.5 C 152.923,177.545 154.923,178.545 157.5,178.5C 157.5,178.833 157.5,179.167 157.5,179.5C 155.5,179.5 153.5,179.5 151.5,179.5C 151.167,179.5 150.833,179.5 150.5,179.5C 146.203,178.769 141.87,178.102 137.5,177.5C 141.807,177.073 145.973,177.073 150,177.5C 151.03,177.164 151.53,176.497 151.5,175.5 Z"/></g>
<g><path style="opacity:0.651" fill="#e2e6e5" d="M 198.5,168.5 C 196.842,169.181 195.175,170.015 193.5,171C 196.351,173.248 199.685,174.082 203.5,173.5C 203.5,175.5 203.5,177.5 203.5,179.5C 198.167,179.5 192.833,179.5 187.5,179.5C 187.5,178.167 187.5,176.833 187.5,175.5C 188.167,175.833 188.833,176.167 189.5,176.5C 189.611,177.117 189.944,177.617 190.5,178C 194.486,178.499 198.486,178.666 202.5,178.5C 202.649,177.448 202.483,176.448 202,175.5C 199.61,175.24 197.11,175.24 194.5,175.5C 191.021,170.415 192.354,168.082 198.5,168.5 Z"/></g>
<g><path style="opacity:1" fill="#f9faf9" d="M 203.5,173.5 C 204.649,173.791 205.316,174.624 205.5,176C 205.227,177.533 204.894,179.033 204.5,180.5C 198.833,180.5 193.167,180.5 187.5,180.5C 187.5,180.167 187.5,179.833 187.5,179.5C 192.833,179.5 198.167,179.5 203.5,179.5C 203.5,177.5 203.5,175.5 203.5,173.5 Z"/></g>
<g><path style="opacity:0.301" fill="#b3b3b2" d="M 169.5,180.5 C 170.5,180.5 171.5,180.5 172.5,180.5C 176.833,180.5 181.167,180.5 185.5,180.5C 185.833,180.5 186.167,180.5 186.5,180.5C 186.782,181.778 187.449,182.778 188.5,183.5C 187.167,183.5 185.833,183.5 184.5,183.5C 179.156,183.666 173.823,183.499 168.5,183C 169.252,182.329 169.586,181.496 169.5,180.5 Z"/></g>
<g><path style="opacity:0.627" fill="#c1c1c0" d="M 186.5,180.5 C 186.833,180.5 187.167,180.5 187.5,180.5C 193.167,180.5 198.833,180.5 204.5,180.5C 204.833,180.5 205.167,180.5 205.5,180.5C 205.5,181.5 205.5,182.5 205.5,183.5C 200.264,182.947 194.597,182.947 188.5,183.5C 187.449,182.778 186.782,181.778 186.5,180.5 Z"/></g>
<g><path style="opacity:0.075" fill="#c2c2c0" d="M 92.5,177.5 C 92.8333,177.5 93.1667,177.5 93.5,177.5C 93.5,178.5 93.5,179.5 93.5,180.5C 95.8333,180.5 98.1667,180.5 100.5,180.5C 100.443,181.609 100.11,182.609 99.5,183.5C 98.5041,183.586 97.6708,183.252 97,182.5C 94.0614,183.128 91.2281,183.795 88.5,184.5C 86.1667,184.5 83.8333,184.5 81.5,184.5C 81.1667,183.833 80.8333,183.167 80.5,182.5C 83.8499,182.665 87.1832,182.498 90.5,182C 91.0989,180.378 91.7656,178.878 92.5,177.5 Z"/></g>
<g><path style="opacity:0.071" fill="#c6c7c5" d="M 111.5,179.5 C 112.167,180.833 112.833,182.167 113.5,183.5C 108.833,183.5 104.167,183.5 99.5,183.5C 100.11,182.609 100.443,181.609 100.5,180.5C 104.234,180.677 107.901,180.344 111.5,179.5 Z"/></g>
<g><path style="opacity:0.192" fill="#b3b3b3" d="M 136.5,182.5 C 136.833,182.5 137.167,182.5 137.5,182.5C 131.833,183.833 126.167,183.833 120.5,182.5C 120.167,181.833 119.833,181.167 119.5,180.5C 119.833,180.5 120.167,180.5 120.5,180.5C 123.5,180.5 126.5,180.5 129.5,180.5C 130.117,180.389 130.617,180.056 131,179.5C 132.866,180.527 134.7,181.527 136.5,182.5 Z"/></g>
<g><path style="opacity:0.09" fill="#b2b3b3" d="M 150.5,179.5 C 150.833,179.5 151.167,179.5 151.5,179.5C 154.167,180.833 156.833,180.833 159.5,179.5C 159.833,179.5 160.167,179.5 160.5,179.5C 160.586,180.496 160.252,181.329 159.5,182C 160.448,182.483 161.448,182.649 162.5,182.5C 160.052,183.473 157.385,183.806 154.5,183.5C 152.833,183.5 151.167,183.5 149.5,183.5C 149.833,182.167 150.167,180.833 150.5,179.5 Z"/></g>
<g><path style="opacity:0.725" fill="#d3d4d0" d="M 70.5,171.5 C 67.8,181.126 71.1333,184.793 80.5,182.5C 80.8333,183.167 81.1667,183.833 81.5,184.5C 76.706,185.097 72.3727,184.43 68.5,182.5C 68.5,179.5 68.5,176.5 68.5,173.5C 69.1667,172.833 69.8333,172.167 70.5,171.5 Z"/></g>
<g><path style="opacity:0.745" fill="#d4d4d2" d="M 99.5,183.5 C 104.167,183.5 108.833,183.5 113.5,183.5C 115.5,183.5 117.5,183.5 119.5,183.5C 119.5,183.833 119.5,184.167 119.5,184.5C 112.833,184.5 106.167,184.5 99.5,184.5C 95.8333,184.5 92.1667,184.5 88.5,184.5C 91.2281,183.795 94.0614,183.128 97,182.5C 97.6708,183.252 98.5041,183.586 99.5,183.5 Z"/></g>
<g><path style="opacity:0.784" fill="#cacaca" d="M 120.5,182.5 C 126.167,183.833 131.833,183.833 137.5,182.5C 141.452,183.272 145.452,183.605 149.5,183.5C 151.167,183.5 152.833,183.5 154.5,183.5C 154.5,183.833 154.5,184.167 154.5,184.5C 142.833,184.5 131.167,184.5 119.5,184.5C 119.5,184.167 119.5,183.833 119.5,183.5C 119.5,182.833 119.833,182.5 120.5,182.5 Z"/></g>
<g><path style="opacity:0.769" fill="#c8c8c8" d="M 167.5,179.5 C 168.492,179.328 169.158,179.662 169.5,180.5C 169.586,181.496 169.252,182.329 168.5,183C 173.823,183.499 179.156,183.666 184.5,183.5C 184.5,183.833 184.5,184.167 184.5,184.5C 174.5,184.5 164.5,184.5 154.5,184.5C 154.5,184.167 154.5,183.833 154.5,183.5C 157.385,183.806 160.052,183.473 162.5,182.5C 164.071,183.197 165.571,183.53 167,183.5C 168.334,182.122 168.501,180.789 167.5,179.5 Z"/></g>
<g><path style="opacity:0.608" fill="#d0d1cf" d="M 214.5,177.5 C 213.565,179.861 212.232,182.028 210.5,184C 201.84,184.5 193.173,184.666 184.5,184.5C 184.5,184.167 184.5,183.833 184.5,183.5C 185.833,183.5 187.167,183.5 188.5,183.5C 194.597,182.947 200.264,182.947 205.5,183.5C 208.071,181.964 211.071,179.964 214.5,177.5 Z"/></g>
<g><path style="opacity:0.995" fill="#fbfbf8" d="M 67.5,182.5 C 67.8333,182.5 68.1667,182.5 68.5,182.5C 72.3727,184.43 76.706,185.097 81.5,184.5C 83.8333,184.5 86.1667,184.5 88.5,184.5C 92.1667,184.5 95.8333,184.5 99.5,184.5C 99.5,184.833 99.5,185.167 99.5,185.5C 88.8333,185.5 78.1667,185.5 67.5,185.5C 67.5,184.5 67.5,183.5 67.5,182.5 Z"/></g>
<g><path style="opacity:0.971" fill="#fbfdfb" d="M 216.5,176.5 C 215.167,179.5 213.833,182.5 212.5,185.5C 184.167,185.5 155.833,185.5 127.5,185.5C 118.167,185.5 108.833,185.5 99.5,185.5C 99.5,185.167 99.5,184.833 99.5,184.5C 106.167,184.5 112.833,184.5 119.5,184.5C 131.167,184.5 142.833,184.5 154.5,184.5C 164.5,184.5 174.5,184.5 184.5,184.5C 193.173,184.666 201.84,184.5 210.5,184C 212.232,182.028 213.565,179.861 214.5,177.5C 215.167,177.167 215.833,176.833 216.5,176.5 Z"/></g>
<g><path style="opacity:0.455" fill="#d2d2d0" d="M 65.5,180.5 C 66.8333,180.5 67.5,181.167 67.5,182.5C 67.5,183.5 67.5,184.5 67.5,185.5C 78.1667,185.5 88.8333,185.5 99.5,185.5C 108.833,185.5 118.167,185.5 127.5,185.5C 127.5,185.833 127.5,186.167 127.5,186.5C 107.388,186.645 87.5543,186.978 68,187.5C 67.228,187.355 66.5613,187.022 66,186.5C 65.5045,184.527 65.3379,182.527 65.5,180.5 Z"/></g>
<g><path style="opacity:0.444" fill="#cccccc" d="M 127.5,186.5 C 127.5,186.167 127.5,185.833 127.5,185.5C 155.833,185.5 184.167,185.5 212.5,185.5C 192.14,186.183 171.64,186.85 151,187.5C 143.423,186.674 135.59,186.34 127.5,186.5 Z"/></g>
</svg>
