<?xml version="1.0" encoding="UTF-8"?>
<!DOCTYPE svg PUBLIC "-//W3C//DTD SVG 1.1//EN" "http://www.w3.org/Graphics/SVG/1.1/DTD/svg11.dtd">
<svg xmlns="http://www.w3.org/2000/svg" version="1.1" width="500px" height="500px" style="shape-rendering:geometricPrecision; text-rendering:geometricPrecision; image-rendering:optimizeQuality; fill-rule:evenodd; clip-rule:evenodd" xmlns:xlink="http://www.w3.org/1999/xlink">
<g><path style="opacity:1" fill="#febd0c" d="M -0.5,-0.5 C 166.167,-0.5 332.833,-0.5 499.5,-0.5C 499.5,166.167 499.5,332.833 499.5,499.5C 332.833,499.5 166.167,499.5 -0.5,499.5C -0.5,332.833 -0.5,166.167 -0.5,-0.5 Z"/></g>
<g><path style="opacity:1" fill="#d4a930" d="M 239.5,96.5 C 251.007,95.1757 262.673,95.1757 274.5,96.5C 277.99,97.4366 280.99,99.1033 283.5,101.5C 280.689,101.429 278.022,100.762 275.5,99.5C 274.584,99.5427 273.917,99.8761 273.5,100.5C 269.449,103.458 268.116,102.458 269.5,97.5C 264.88,96.5067 260.214,96.1734 255.5,96.5C 250.167,96.5 244.833,96.5 239.5,96.5 Z"/></g>
<g><path style="opacity:1" fill="#7c5e19" d="M 255.5,96.5 C 260.214,96.1734 264.88,96.5067 269.5,97.5C 268.116,102.458 269.449,103.458 273.5,100.5C 273.5,101.5 273.5,102.5 273.5,103.5C 270.975,104.64 268.308,105.307 265.5,105.5C 265.881,104.069 266.881,103.236 268.5,103C 265.028,98.901 260.695,96.7343 255.5,96.5 Z"/></g>
<g><path style="opacity:1" fill="#090404" d="M 239.5,96.5 C 244.833,96.5 250.167,96.5 255.5,96.5C 260.695,96.7343 265.028,98.901 268.5,103C 266.881,103.236 265.881,104.069 265.5,105.5C 267.663,106.744 269.997,107.744 272.5,108.5C 271.082,110.308 269.082,110.975 266.5,110.5C 266.5,111.5 266.5,112.5 266.5,113.5C 270.5,112.833 274.5,112.167 278.5,111.5C 278.768,109.901 278.434,108.568 277.5,107.5C 278.199,104.459 280.199,102.792 283.5,102.5C 284.167,102.5 284.833,102.5 285.5,102.5C 285.804,103.15 286.137,103.817 286.5,104.5C 289.478,105.353 292.478,106.019 295.5,106.5C 297.167,107.167 298.833,107.833 300.5,108.5C 299.587,110.086 299.587,111.586 300.5,113C 304.541,113.173 308.541,113.673 312.5,114.5C 310.841,117.201 311.508,118.868 314.5,119.5C 315.347,120.966 316.68,121.8 318.5,122C 317.207,122.49 315.873,122.657 314.5,122.5C 314.157,124.483 314.824,125.817 316.5,126.5C 318.969,127.317 321.635,127.817 324.5,128C 322.866,128.494 321.199,128.66 319.5,128.5C 319.468,130.619 320.468,131.952 322.5,132.5C 325.641,133.321 328.975,133.821 332.5,134C 332.833,134.333 333.167,134.667 333.5,135C 332.584,135.278 331.918,135.778 331.5,136.5C 330.957,136.56 330.624,136.893 330.5,137.5C 331.295,140.144 331.962,142.811 332.5,145.5C 333.209,146.404 334.209,146.737 335.5,146.5C 336.034,150.102 336.034,153.602 335.5,157C 336.949,158.117 338.616,158.784 340.5,159C 337.532,161.178 337.865,162.344 341.5,162.5C 342.492,162.328 343.158,162.662 343.5,163.5C 341.938,163.733 340.605,164.4 339.5,165.5C 338.504,165.414 337.671,165.748 337,166.5C 335.908,170.431 333.408,172.431 329.5,172.5C 329.5,174.167 329.5,175.833 329.5,177.5C 326.477,177.105 325.477,178.105 326.5,180.5C 325.757,181.182 325.091,181.849 324.5,182.5C 322.712,182.215 321.045,182.548 319.5,183.5C 320.025,184.192 320.692,184.692 321.5,185C 319.067,186.13 316.734,187.296 314.5,188.5C 314.5,189.5 314.5,190.5 314.5,191.5C 313.209,191.263 312.209,191.596 311.5,192.5C 309.824,193.183 309.157,194.517 309.5,196.5C 307.952,196.821 307.285,197.821 307.5,199.5C 305.5,199.5 303.5,199.5 301.5,199.5C 301.131,197.559 300.464,195.725 299.5,194C 301.037,192.89 301.703,191.39 301.5,189.5C 300.5,189.5 299.5,189.5 298.5,189.5C 298.5,188.5 298.5,187.5 298.5,186.5C 300.167,186.5 301.833,186.5 303.5,186.5C 303.5,185.5 303.5,184.5 303.5,183.5C 301.833,183.5 300.167,183.5 298.5,183.5C 298.229,181.179 298.896,179.179 300.5,177.5C 298.116,176.989 296.116,175.989 294.5,174.5C 295.5,174.5 296.5,174.5 297.5,174.5C 296.36,171.975 295.693,169.308 295.5,166.5C 294.5,166.5 293.5,166.5 292.5,166.5C 292.712,164.616 293.712,163.283 295.5,162.5C 294.675,161.614 293.675,161.281 292.5,161.5C 292.714,159.856 292.38,158.356 291.5,157C 292.938,156.781 294.271,156.281 295.5,155.5C 293.977,153.717 291.977,153.051 289.5,153.5C 289.167,153.5 288.833,153.5 288.5,153.5C 287.94,151.199 287.44,148.866 287,146.5C 285.989,145.663 284.822,145.33 283.5,145.5C 283.366,143.708 283.699,142.042 284.5,140.5C 285.404,139.791 285.737,138.791 285.5,137.5C 286.833,137.5 288.167,137.5 289.5,137.5C 289.784,135.585 289.451,133.919 288.5,132.5C 287.081,131.549 285.415,131.216 283.5,131.5C 283.5,132.833 283.5,134.167 283.5,135.5C 281.833,135.5 280.167,135.5 278.5,135.5C 278.5,137.167 278.5,138.833 278.5,140.5C 278.806,143.278 279.806,145.778 281.5,148C 281.355,149.226 281.022,150.393 280.5,151.5C 277.554,152.321 274.554,152.321 271.5,151.5C 270.4,150.442 269.066,149.608 267.5,149C 256.828,146.666 246.162,144.333 235.5,142C 233.934,141.392 232.6,140.558 231.5,139.5C 229.095,138.232 226.428,137.565 223.5,137.5C 220.036,135.714 216.369,134.38 212.5,133.5C 206.311,132.695 199.977,131.862 193.5,131C 192.027,130.29 191.36,129.124 191.5,127.5C 190.167,127.5 188.833,127.5 187.5,127.5C 183.5,127.5 179.5,127.5 175.5,127.5C 175.5,126.167 175.5,124.833 175.5,123.5C 179.702,123.817 183.702,123.483 187.5,122.5C 188.906,122.027 189.573,121.027 189.5,119.5C 190.952,117.148 192.952,116.815 195.5,118.5C 198.337,116.008 200.337,113.008 201.5,109.5C 203.315,108.37 205.315,107.704 207.5,107.5C 207.5,106.5 207.5,105.5 207.5,104.5C 210.167,104.5 212.833,104.5 215.5,104.5C 215.5,103.5 215.5,102.5 215.5,101.5C 221.633,99.3336 227.967,98.0002 234.5,97.5C 236.042,96.6993 237.708,96.366 239.5,96.5 Z"/></g>
<g><path style="opacity:1" fill="#503519" d="M 283.5,101.5 C 283.5,101.833 283.5,102.167 283.5,102.5C 280.199,102.792 278.199,104.459 277.5,107.5C 276.221,106.032 274.554,105.365 272.5,105.5C 272.5,106.5 272.5,107.5 272.5,108.5C 269.997,107.744 267.663,106.744 265.5,105.5C 268.308,105.307 270.975,104.64 273.5,103.5C 273.5,102.5 273.5,101.5 273.5,100.5C 273.917,99.8761 274.584,99.5427 275.5,99.5C 278.022,100.762 280.689,101.429 283.5,101.5 Z"/></g>
<g><path style="opacity:1" fill="#89651e" d="M 234.5,97.5 C 227.967,98.0002 221.633,99.3336 215.5,101.5C 215.5,102.5 215.5,103.5 215.5,104.5C 212.833,104.5 210.167,104.5 207.5,104.5C 207.5,105.5 207.5,106.5 207.5,107.5C 205.315,107.704 203.315,108.37 201.5,109.5C 202.341,107.621 202.675,105.621 202.5,103.5C 206.167,103.5 209.833,103.5 213.5,103.5C 213.281,102.325 213.614,101.325 214.5,100.5C 220.818,97.8035 227.485,96.8035 234.5,97.5 Z"/></g>
<g><path style="opacity:1" fill="#896714" d="M 285.5,102.5 C 289.884,101.576 293.218,102.909 295.5,106.5C 292.478,106.019 289.478,105.353 286.5,104.5C 286.137,103.817 285.804,103.15 285.5,102.5 Z"/></g>
<g><path style="opacity:1" fill="#b1a24b" d="M 277.5,107.5 C 277.5,108.5 277.5,109.5 277.5,110.5C 275.446,110.635 273.779,109.968 272.5,108.5C 272.5,107.5 272.5,106.5 272.5,105.5C 274.554,105.365 276.221,106.032 277.5,107.5 Z"/></g>
<g><path style="opacity:1" fill="#705d2b" d="M 277.5,107.5 C 278.434,108.568 278.768,109.901 278.5,111.5C 274.5,112.167 270.5,112.833 266.5,113.5C 266.5,112.5 266.5,111.5 266.5,110.5C 269.082,110.975 271.082,110.308 272.5,108.5C 273.779,109.968 275.446,110.635 277.5,110.5C 277.5,109.5 277.5,108.5 277.5,107.5 Z"/></g>
<g><path style="opacity:1" fill="#907845" d="M 283.5,113.5 C 283.5,114.5 283.5,115.5 283.5,116.5C 280.715,117.084 279.048,116.084 278.5,113.5C 280.167,112.167 281.833,112.167 283.5,113.5 Z"/></g>
<g><path style="opacity:1" fill="#39220f" d="M 201.5,109.5 C 200.337,113.008 198.337,116.008 195.5,118.5C 192.952,116.815 190.952,117.148 189.5,119.5C 186.001,119.741 185.668,118.908 188.5,117C 190.833,116.667 193.167,116.333 195.5,116C 195.957,115.586 196.291,115.086 196.5,114.5C 194.025,114.036 192.025,113.036 190.5,111.5C 194.127,110.754 197.794,110.087 201.5,109.5 Z"/></g>
<g><path style="opacity:1" fill="#f2bb1c" d="M 188.5,111.5 C 188.657,112.873 188.49,114.207 188,115.5C 184.876,117.68 184.709,120.013 187.5,122.5C 183.702,123.483 179.702,123.817 175.5,123.5C 175.5,124.833 175.5,126.167 175.5,127.5C 179.5,127.5 183.5,127.5 187.5,127.5C 187.5,128.833 187.5,130.167 187.5,131.5C 183.466,131.495 179.466,131.162 175.5,130.5C 174.5,130.5 173.5,130.5 172.5,130.5C 171.116,129.199 169.616,129.199 168,130.5C 167.251,131.635 167.417,132.635 168.5,133.5C 170.115,134.154 171.782,134.654 173.5,135C 170.077,134.855 168.077,136.355 167.5,139.5C 165.883,140.038 164.216,140.371 162.5,140.5C 162.5,138.833 162.5,137.167 162.5,135.5C 163.552,135.649 164.552,135.483 165.5,135C 164.652,128.745 162.819,128.245 160,133.5C 159.505,131.527 159.338,129.527 159.5,127.5C 160.5,127.5 161.5,127.5 162.5,127.5C 162.5,124.833 162.5,122.167 162.5,119.5C 169.5,119.5 176.5,119.5 183.5,119.5C 184.69,116.436 186.357,113.769 188.5,111.5 Z"/></g>
<g><path style="opacity:1" fill="#a9893a" d="M 188.5,111.5 C 189.167,111.5 189.833,111.5 190.5,111.5C 192.025,113.036 194.025,114.036 196.5,114.5C 196.291,115.086 195.957,115.586 195.5,116C 193.167,116.333 190.833,116.667 188.5,117C 185.668,118.908 186.001,119.741 189.5,119.5C 189.573,121.027 188.906,122.027 187.5,122.5C 184.709,120.013 184.876,117.68 188,115.5C 188.49,114.207 188.657,112.873 188.5,111.5 Z"/></g>
<g><path style="opacity:1" fill="#2f2010" d="M 278.5,113.5 C 279.048,116.084 280.715,117.084 283.5,116.5C 283.5,115.5 283.5,114.5 283.5,113.5C 285.466,114.255 285.8,115.421 284.5,117C 286.662,119.522 286.995,122.355 285.5,125.5C 284.313,124.106 283.646,124.273 283.5,126C 283.645,126.772 283.978,127.439 284.5,128C 282.624,129.017 280.624,129.851 278.5,130.5C 279.025,131.192 279.692,131.692 280.5,132C 277.844,133.743 275.178,133.909 272.5,132.5C 274.167,132.5 275.833,132.5 277.5,132.5C 277.5,131.5 277.5,130.5 277.5,129.5C 275.219,129.077 273.552,129.744 272.5,131.5C 271.314,130.295 271.314,128.961 272.5,127.5C 273.833,127.5 275.167,127.5 276.5,127.5C 276.5,126.167 276.5,124.833 276.5,123.5C 274.833,123.5 273.167,123.5 271.5,123.5C 271.5,124.5 271.5,125.5 271.5,126.5C 270.549,125.081 270.216,123.415 270.5,121.5C 271.5,121.5 272.5,121.5 273.5,121.5C 273.5,119.5 273.5,117.5 273.5,115.5C 275.554,115.635 277.221,114.968 278.5,113.5 Z"/></g>
<g><path style="opacity:1" fill="#a59140" d="M 280.5,119.5 C 282.167,119.5 283.833,119.5 285.5,119.5C 285.5,120.833 285.5,122.167 285.5,123.5C 283.833,123.5 282.167,123.5 280.5,123.5C 280.5,122.167 280.5,120.833 280.5,119.5 Z"/></g>
<g><path style="opacity:1" fill="#b9ab4a" d="M 274.5,116.5 C 275.833,116.5 277.167,116.5 278.5,116.5C 278.5,117.5 278.5,118.5 278.5,119.5C 277.167,119.5 275.833,119.5 274.5,119.5C 274.5,118.5 274.5,117.5 274.5,116.5 Z"/></g>
<g><path style="opacity:1" fill="#523215" d="M 314.5,119.5 C 324.227,120.565 324.56,122.232 315.5,124.5C 315.863,125.183 316.196,125.85 316.5,126.5C 314.824,125.817 314.157,124.483 314.5,122.5C 315.873,122.657 317.207,122.49 318.5,122C 316.68,121.8 315.347,120.966 314.5,119.5 Z"/></g>
<g><path style="opacity:1" fill="#d1a62b" d="M 300.5,108.5 C 301.5,108.5 302.5,108.5 303.5,108.5C 303.5,109.5 303.5,110.5 303.5,111.5C 306.85,111.335 310.183,111.502 313.5,112C 316.039,113.099 316.705,114.766 315.5,117C 323.938,117.34 328.272,121.84 328.5,130.5C 330.698,130.12 332.365,130.787 333.5,132.5C 329.833,132.5 326.167,132.5 322.5,132.5C 320.468,131.952 319.468,130.619 319.5,128.5C 321.199,128.66 322.866,128.494 324.5,128C 321.635,127.817 318.969,127.317 316.5,126.5C 316.196,125.85 315.863,125.183 315.5,124.5C 324.56,122.232 324.227,120.565 314.5,119.5C 311.508,118.868 310.841,117.201 312.5,114.5C 308.541,113.673 304.541,113.173 300.5,113C 299.587,111.586 299.587,110.086 300.5,108.5 Z"/></g>
<g><path style="opacity:1" fill="#9e7d33" d="M 272.5,127.5 C 271.833,127.5 271.5,127.167 271.5,126.5C 271.5,125.5 271.5,124.5 271.5,123.5C 273.167,123.5 274.833,123.5 276.5,123.5C 276.5,124.833 276.5,126.167 276.5,127.5C 275.167,127.5 273.833,127.5 272.5,127.5 Z"/></g>
<g><path style="opacity:1" fill="#592604" d="M 172.5,130.5 C 173.5,130.5 174.5,130.5 175.5,130.5C 176.5,131.167 177.5,131.833 178.5,132.5C 177.833,132.5 177.5,132.833 177.5,133.5C 174.853,132.927 172.187,132.26 169.5,131.5C 170.325,130.614 171.325,130.281 172.5,130.5 Z"/></g>
<g><path style="opacity:1" fill="#b2a44c" d="M 272.5,132.5 C 272.5,132.167 272.5,131.833 272.5,131.5C 273.552,129.744 275.219,129.077 277.5,129.5C 277.5,130.5 277.5,131.5 277.5,132.5C 275.833,132.5 274.167,132.5 272.5,132.5 Z"/></g>
<g><path style="opacity:1" fill="#997732" d="M 172.5,130.5 C 171.325,130.281 170.325,130.614 169.5,131.5C 172.187,132.26 174.853,132.927 177.5,133.5C 176.194,134.467 175.527,135.801 175.5,137.5C 172.487,137.107 169.82,137.774 167.5,139.5C 168.077,136.355 170.077,134.855 173.5,135C 171.782,134.654 170.115,134.154 168.5,133.5C 167.417,132.635 167.251,131.635 168,130.5C 169.616,129.199 171.116,129.199 172.5,130.5 Z"/></g>
<g><path style="opacity:1" fill="#957930" d="M 187.5,127.5 C 188.833,127.5 190.167,127.5 191.5,127.5C 191.36,129.124 192.027,130.29 193.5,131C 199.977,131.862 206.311,132.695 212.5,133.5C 207.968,133.182 203.634,133.515 199.5,134.5C 192.429,134.068 185.429,133.401 178.5,132.5C 177.5,131.833 176.5,131.167 175.5,130.5C 179.466,131.162 183.466,131.495 187.5,131.5C 187.5,130.167 187.5,128.833 187.5,127.5 Z"/></g>
<g><path style="opacity:1" fill="#644205" d="M 322.5,132.5 C 326.167,132.5 329.833,132.5 333.5,132.5C 333.833,133.167 334.167,133.833 334.5,134.5C 334.179,136.048 333.179,136.715 331.5,136.5C 331.918,135.778 332.584,135.278 333.5,135C 333.167,134.667 332.833,134.333 332.5,134C 328.975,133.821 325.641,133.321 322.5,132.5 Z"/></g>
<g><path style="opacity:1" fill="#54390d" d="M 288.5,132.5 C 289.451,133.919 289.784,135.585 289.5,137.5C 288.167,137.5 286.833,137.5 285.5,137.5C 285.737,138.791 285.404,139.791 284.5,140.5C 284.616,137.09 282.95,135.756 279.5,136.5C 279.768,138.099 279.434,139.432 278.5,140.5C 278.5,138.833 278.5,137.167 278.5,135.5C 280.167,135.5 281.833,135.5 283.5,135.5C 283.5,134.167 283.5,132.833 283.5,131.5C 285.415,131.216 287.081,131.549 288.5,132.5 Z"/></g>
<g><path style="opacity:1" fill="#af9e51" d="M 288.5,132.5 C 288.5,133.833 288.5,135.167 288.5,136.5C 285.5,136.833 284.167,135.5 284.5,132.5C 285.833,132.5 287.167,132.5 288.5,132.5 Z"/></g>
<g><path style="opacity:1" fill="#7b5b1c" d="M 201.5,135.5 C 203.97,135.654 205.97,136.654 207.5,138.5C 205.801,138.66 204.134,138.494 202.5,138C 201.748,137.329 201.414,136.496 201.5,135.5 Z"/></g>
<g><path style="opacity:1" fill="#594112" d="M 223.5,137.5 C 226.428,137.565 229.095,138.232 231.5,139.5C 228.505,139.706 225.838,139.04 223.5,137.5 Z"/></g>
<g><path style="opacity:1" fill="#724a0e" d="M 207.5,138.5 C 209.898,138.259 211.898,138.926 213.5,140.5C 211.102,140.741 209.102,140.074 207.5,138.5 Z"/></g>
<g><path style="opacity:1" fill="#b49034" d="M 334.5,134.5 C 335.097,134.735 335.43,135.235 335.5,136C 333.915,138.256 333.248,140.756 333.5,143.5C 334.167,144.167 334.833,144.833 335.5,145.5C 334.5,145.5 333.5,145.5 332.5,145.5C 331.962,142.811 331.295,140.144 330.5,137.5C 330.624,136.893 330.957,136.56 331.5,136.5C 333.179,136.715 334.179,136.048 334.5,134.5 Z"/></g>
<g><path style="opacity:1" fill="#bd9534" d="M 284.5,140.5 C 283.699,142.042 283.366,143.708 283.5,145.5C 284.822,145.33 285.989,145.663 287,146.5C 287.44,148.866 287.94,151.199 288.5,153.5C 287.5,153.5 286.5,153.5 285.5,153.5C 285.808,151.076 285.474,148.743 284.5,146.5C 283.52,149.086 283.187,151.753 283.5,154.5C 280.518,154.037 277.518,153.704 274.5,153.5C 273.5,152.833 272.5,152.167 271.5,151.5C 274.554,152.321 277.554,152.321 280.5,151.5C 281.022,150.393 281.355,149.226 281.5,148C 279.806,145.778 278.806,143.278 278.5,140.5C 279.434,139.432 279.768,138.099 279.5,136.5C 282.95,135.756 284.616,137.09 284.5,140.5 Z"/></g>
<g><path style="opacity:1" fill="#846026" d="M 167.5,139.5 C 166.517,140.85 165.184,141.85 163.5,142.5C 162.95,144.657 162.283,146.657 161.5,148.5C 161.279,145.721 161.612,143.054 162.5,140.5C 164.216,140.371 165.883,140.038 167.5,139.5 Z"/></g>
<g><path style="opacity:1" fill="#794912" d="M 161.5,148.5 C 161.169,150.322 160.502,151.989 159.5,153.5C 158.624,153.631 157.957,153.298 157.5,152.5C 158.521,150.812 159.855,149.479 161.5,148.5 Z"/></g>
<g><path style="opacity:1" fill="#3b220f" d="M 332.5,145.5 C 333.5,145.5 334.5,145.5 335.5,145.5C 336.167,145.833 336.833,146.167 337.5,146.5C 337.075,152.14 339.742,154.973 345.5,155C 342.774,155.182 340.107,155.682 337.5,156.5C 339.396,157.466 341.396,157.799 343.5,157.5C 343.635,159.554 342.968,161.221 341.5,162.5C 337.865,162.344 337.532,161.178 340.5,159C 338.616,158.784 336.949,158.117 335.5,157C 336.034,153.602 336.034,150.102 335.5,146.5C 334.209,146.737 333.209,146.404 332.5,145.5 Z"/></g>
<g><path style="opacity:1" fill="#a2782f" d="M 337.5,146.5 C 338.933,148.519 340.267,150.686 341.5,153C 343.134,153.494 344.801,153.66 346.5,153.5C 346.5,154.5 346.5,155.5 346.5,156.5C 345.209,156.263 344.209,156.596 343.5,157.5C 341.396,157.799 339.396,157.466 337.5,156.5C 340.107,155.682 342.774,155.182 345.5,155C 339.742,154.973 337.075,152.14 337.5,146.5 Z"/></g>
<g><path style="opacity:1" fill="#452b13" d="M 223.5,143.5 C 225.948,143.01 227.615,143.843 228.5,146C 227.039,148.298 225.372,150.465 223.5,152.5C 223.624,153.107 223.957,153.44 224.5,153.5C 224.611,154.117 224.944,154.617 225.5,155C 222.854,155.497 220.187,155.664 217.5,155.5C 218.568,154.566 219.901,154.232 221.5,154.5C 221.884,152.071 222.551,149.737 223.5,147.5C 224.552,147.649 225.552,147.483 226.5,147C 225.635,145.641 224.635,144.474 223.5,143.5 Z"/></g>
<g><path style="opacity:1" fill="#71624a" d="M 159.5,153.5 C 161.167,153.5 162.833,153.5 164.5,153.5C 164.5,154.5 164.5,155.5 164.5,156.5C 162.833,156.5 161.167,156.5 159.5,156.5C 159.5,156.167 159.5,155.833 159.5,155.5C 159.5,154.833 159.5,154.167 159.5,153.5 Z"/></g>
<g><path style="opacity:1" fill="#eab825" d="M 333.5,143.5 C 337.322,145.073 341.322,146.573 345.5,148C 346.714,149.979 348.381,151.479 350.5,152.5C 349.663,156.14 349.496,159.806 350,163.5C 348.491,164.09 346.991,164.756 345.5,165.5C 346.376,166.251 347.376,166.751 348.5,167C 348.167,167.333 347.833,167.667 347.5,168C 349.107,169.049 349.773,170.549 349.5,172.5C 348.288,171.77 347.288,170.77 346.5,169.5C 345.833,170.833 345.167,172.167 344.5,173.5C 343.833,172.5 343.167,171.5 342.5,170.5C 340.844,173.018 339.511,173.018 338.5,170.5C 339.779,169.032 341.446,168.365 343.5,168.5C 343.5,166.833 343.5,165.167 343.5,163.5C 345.288,163.785 346.955,163.452 348.5,162.5C 347.311,161.571 345.978,161.238 344.5,161.5C 344.768,159.901 344.434,158.568 343.5,157.5C 344.209,156.596 345.209,156.263 346.5,156.5C 346.5,155.5 346.5,154.5 346.5,153.5C 344.801,153.66 343.134,153.494 341.5,153C 340.267,150.686 338.933,148.519 337.5,146.5C 336.833,146.167 336.167,145.833 335.5,145.5C 334.833,144.833 334.167,144.167 333.5,143.5 Z"/></g>
<g><path style="opacity:1" fill="#fcbd0f" d="M 274.5,153.5 C 277.518,153.704 280.518,154.037 283.5,154.5C 283.187,151.753 283.52,149.086 284.5,146.5C 285.474,148.743 285.808,151.076 285.5,153.5C 286.5,153.5 287.5,153.5 288.5,153.5C 288.833,153.5 289.167,153.5 289.5,153.5C 289.611,154.117 289.944,154.617 290.5,155C 288.866,155.494 287.199,155.66 285.5,155.5C 284.596,156.209 284.263,157.209 284.5,158.5C 288.099,158.262 288.433,159.262 285.5,161.5C 286.242,162.287 287.075,162.953 288,163.5C 287.669,165.019 287.836,166.352 288.5,167.5C 292.387,168.657 293.054,170.657 290.5,173.5C 293.695,174.829 294.028,176.495 291.5,178.5C 292.689,179.429 294.022,179.762 295.5,179.5C 295.5,180.5 295.5,181.5 295.5,182.5C 294.325,182.281 293.325,182.614 292.5,183.5C 294.167,184.167 295.833,184.833 297.5,185.5C 295.896,186.603 294.896,188.103 294.5,190C 295.201,193.231 296.534,196.064 298.5,198.5C 298.804,199.15 299.137,199.817 299.5,200.5C 298.05,201.85 297.383,203.516 297.5,205.5C 299.39,205.703 300.89,205.037 302,203.5C 304.099,205.291 304.599,207.291 303.5,209.5C 303.5,209.833 303.5,210.167 303.5,210.5C 302.92,212.749 301.587,214.415 299.5,215.5C 297.392,220.663 293.392,222.996 287.5,222.5C 288.993,223.141 289.993,224.141 290.5,225.5C 289.209,225.263 288.209,225.596 287.5,226.5C 286.448,226.351 285.448,226.517 284.5,227C 283.111,229.75 281.444,232.25 279.5,234.5C 278.5,234.5 277.5,234.5 276.5,234.5C 276.5,235.5 276.5,236.5 276.5,237.5C 274.833,237.5 273.167,237.5 271.5,237.5C 271.5,238.5 271.5,239.5 271.5,240.5C 267.527,241.984 263.36,242.984 259,243.5C 255.832,243.457 252.832,242.791 250,241.5C 249.586,241.957 249.086,242.291 248.5,242.5C 247.833,241.5 247.167,240.5 246.5,239.5C 244.281,242.574 241.281,243.907 237.5,243.5C 231.649,241.708 225.649,240.375 219.5,239.5C 214.25,239.212 210.25,236.878 207.5,232.5C 207.5,232.167 207.5,231.833 207.5,231.5C 208.124,231.083 208.457,230.416 208.5,229.5C 207.453,227.944 206.786,226.277 206.5,224.5C 210.838,224.378 211.172,224.045 207.5,223.5C 207.896,218.977 206.229,215.643 202.5,213.5C 203.36,211.184 203.86,208.851 204,206.5C 201.527,205.88 199.027,205.214 196.5,204.5C 199.768,203.513 203.102,203.18 206.5,203.5C 206.5,202.167 206.5,200.833 206.5,199.5C 204.167,199.5 201.833,199.5 199.5,199.5C 199.5,199.167 199.5,198.833 199.5,198.5C 198.699,196.958 198.366,195.292 198.5,193.5C 199.5,193.5 200.5,193.5 201.5,193.5C 201.5,192.167 201.5,190.833 201.5,189.5C 199.712,189.785 198.045,189.452 196.5,188.5C 195.209,187.473 195.209,186.473 196.5,185.5C 195.26,180.069 197.593,177.736 203.5,178.5C 206.08,177.385 207.746,175.385 208.5,172.5C 211.751,172.292 214.085,170.792 215.5,168C 222.123,168.86 224.789,166.026 223.5,159.5C 225.167,159.5 226.833,159.5 228.5,159.5C 229.97,154.989 230.97,150.322 231.5,145.5C 238.197,146.006 244.864,146.84 251.5,148C 258.879,150.747 266.546,152.58 274.5,153.5 Z"/></g>
<g><path style="opacity:1" fill="#c18e1e" d="M 285.5,155.5 C 286.678,156.999 288.345,157.999 290.5,158.5C 289.91,159.799 288.91,160.632 287.5,161C 289.044,161.29 290.377,161.956 291.5,163C 290.117,164.271 289.117,165.771 288.5,167.5C 287.836,166.352 287.669,165.019 288,163.5C 287.075,162.953 286.242,162.287 285.5,161.5C 288.433,159.262 288.099,158.262 284.5,158.5C 284.263,157.209 284.596,156.209 285.5,155.5 Z"/></g>
<g><path style="opacity:1" fill="#926a1c" d="M 159.5,155.5 C 159.5,155.833 159.5,156.167 159.5,156.5C 159.737,157.791 159.404,158.791 158.5,159.5C 157.167,160.833 155.833,162.167 154.5,163.5C 153.1,162.9 152.1,161.9 151.5,160.5C 152.978,160.762 154.311,160.429 155.5,159.5C 154.263,158.719 153.263,157.719 152.5,156.5C 154.743,155.526 157.076,155.192 159.5,155.5 Z"/></g>
<g><path style="opacity:1" fill="#7c5616" d="M 224.5,153.5 C 226.942,153.354 227.609,154.187 226.5,156C 224.19,156.497 221.857,156.663 219.5,156.5C 219.52,158.143 218.853,159.476 217.5,160.5C 217.833,161.167 218.167,161.833 218.5,162.5C 216.257,163.474 213.924,163.808 211.5,163.5C 211.586,162.504 211.252,161.671 210.5,161C 212.256,160.798 213.922,160.298 215.5,159.5C 214.147,158.476 213.48,157.143 213.5,155.5C 214.833,155.5 216.167,155.5 217.5,155.5C 220.187,155.664 222.854,155.497 225.5,155C 224.944,154.617 224.611,154.117 224.5,153.5 Z"/></g>
<g><path style="opacity:1" fill="#764b0d" d="M 343.5,157.5 C 344.434,158.568 344.768,159.901 344.5,161.5C 345.978,161.238 347.311,161.571 348.5,162.5C 346.955,163.452 345.288,163.785 343.5,163.5C 343.158,162.662 342.492,162.328 341.5,162.5C 342.968,161.221 343.635,159.554 343.5,157.5 Z"/></g>
<g><path style="opacity:1" fill="#e9b623" d="M 212.5,133.5 C 216.369,134.38 220.036,135.714 223.5,137.5C 225.838,139.04 228.505,139.706 231.5,139.5C 232.6,140.558 233.934,141.392 235.5,142C 246.162,144.333 256.828,146.666 267.5,149C 269.066,149.608 270.4,150.442 271.5,151.5C 272.5,152.167 273.5,152.833 274.5,153.5C 266.546,152.58 258.879,150.747 251.5,148C 244.864,146.84 238.197,146.006 231.5,145.5C 230.97,150.322 229.97,154.989 228.5,159.5C 226.833,159.5 225.167,159.5 223.5,159.5C 224.789,166.026 222.123,168.86 215.5,168C 214.085,170.792 211.751,172.292 208.5,172.5C 207.746,175.385 206.08,177.385 203.5,178.5C 202.77,176.955 201.437,176.122 199.5,176C 201.618,174.451 203.951,173.284 206.5,172.5C 207.246,171.264 207.579,169.93 207.5,168.5C 208.5,168.5 209.5,168.5 210.5,168.5C 210.366,166.708 210.699,165.042 211.5,163.5C 213.924,163.808 216.257,163.474 218.5,162.5C 218.167,161.833 217.833,161.167 217.5,160.5C 218.853,159.476 219.52,158.143 219.5,156.5C 221.857,156.663 224.19,156.497 226.5,156C 227.609,154.187 226.942,153.354 224.5,153.5C 223.957,153.44 223.624,153.107 223.5,152.5C 225.372,150.465 227.039,148.298 228.5,146C 227.615,143.843 225.948,143.01 223.5,143.5C 220.037,142.901 216.704,141.901 213.5,140.5C 211.898,138.926 209.898,138.259 207.5,138.5C 205.97,136.654 203.97,135.654 201.5,135.5C 200.508,135.672 199.842,135.338 199.5,134.5C 203.634,133.515 207.968,133.182 212.5,133.5 Z"/></g>
<g><path style="opacity:1" fill="#835e15" d="M 343.5,163.5 C 343.5,165.167 343.5,166.833 343.5,168.5C 341.446,168.365 339.779,169.032 338.5,170.5C 338.366,168.708 338.699,167.042 339.5,165.5C 340.605,164.4 341.938,163.733 343.5,163.5 Z"/></g>
<g><path style="opacity:1" fill="#443514" d="M 292.5,166.5 C 293.5,166.5 294.5,166.5 295.5,166.5C 295.693,169.308 296.36,171.975 297.5,174.5C 296.5,174.5 295.5,174.5 294.5,174.5C 294.868,171.467 294.202,168.8 292.5,166.5 Z"/></g>
<g><path style="opacity:1" fill="#57401a" d="M 158.5,159.5 C 159.007,160.859 160.007,161.859 161.5,162.5C 159.954,163.684 158.287,164.684 156.5,165.5C 156.709,166.086 157.043,166.586 157.5,167C 155.391,169.788 153.391,172.622 151.5,175.5C 152.953,172.014 153.619,168.347 153.5,164.5C 153.5,163.833 153.833,163.5 154.5,163.5C 155.833,162.167 157.167,160.833 158.5,159.5 Z"/></g>
<g><path style="opacity:1" fill="#583f17" d="M 207.5,165.5 C 207.568,169.676 205.568,172.009 201.5,172.5C 201.821,170.952 202.821,170.285 204.5,170.5C 204.5,168.833 204.5,167.167 204.5,165.5C 205.5,165.5 206.5,165.5 207.5,165.5 Z"/></g>
<g><path style="opacity:1" fill="#8f6c1e" d="M 349.5,172.5 C 348.722,173.156 348.056,173.989 347.5,175C 349.341,180.31 350.008,185.81 349.5,191.5C 348.099,191.029 346.766,190.362 345.5,189.5C 348.789,186.458 349.122,183.125 346.5,179.5C 346.648,176.648 345.314,174.981 342.5,174.5C 339.174,176.64 335.508,177.64 331.5,177.5C 331.5,176.167 331.5,174.833 331.5,173.5C 333.995,172.801 336.328,171.801 338.5,170.5C 339.511,173.018 340.844,173.018 342.5,170.5C 343.167,171.5 343.833,172.5 344.5,173.5C 345.167,172.167 345.833,170.833 346.5,169.5C 347.288,170.77 348.288,171.77 349.5,172.5 Z"/></g>
<g><path style="opacity:1" fill="#826019" d="M 289.5,153.5 C 291.977,153.051 293.977,153.717 295.5,155.5C 294.271,156.281 292.938,156.781 291.5,157C 292.38,158.356 292.714,159.856 292.5,161.5C 293.675,161.281 294.675,161.614 295.5,162.5C 293.712,163.283 292.712,164.616 292.5,166.5C 294.202,168.8 294.868,171.467 294.5,174.5C 296.116,175.989 298.116,176.989 300.5,177.5C 298.896,179.179 298.229,181.179 298.5,183.5C 300.167,183.5 301.833,183.5 303.5,183.5C 303.5,184.5 303.5,185.5 303.5,186.5C 301.833,186.5 300.167,186.5 298.5,186.5C 298.5,187.5 298.5,188.5 298.5,189.5C 299.5,189.5 300.5,189.5 301.5,189.5C 301.703,191.39 301.037,192.89 299.5,194C 300.464,195.725 301.131,197.559 301.5,199.5C 300.609,198.89 299.609,198.557 298.5,198.5C 296.534,196.064 295.201,193.231 294.5,190C 294.896,188.103 295.896,186.603 297.5,185.5C 295.833,184.833 294.167,184.167 292.5,183.5C 293.325,182.614 294.325,182.281 295.5,182.5C 295.5,181.5 295.5,180.5 295.5,179.5C 294.022,179.762 292.689,179.429 291.5,178.5C 294.028,176.495 293.695,174.829 290.5,173.5C 293.054,170.657 292.387,168.657 288.5,167.5C 289.117,165.771 290.117,164.271 291.5,163C 290.377,161.956 289.044,161.29 287.5,161C 288.91,160.632 289.91,159.799 290.5,158.5C 288.345,157.999 286.678,156.999 285.5,155.5C 287.199,155.66 288.866,155.494 290.5,155C 289.944,154.617 289.611,154.117 289.5,153.5 Z"/></g>
<g><path style="opacity:1" fill="#8b630d" d="M 153.5,164.5 C 153.619,168.347 152.953,172.014 151.5,175.5C 151.5,175.833 151.5,176.167 151.5,176.5C 151.747,179.939 151.414,183.272 150.5,186.5C 150.784,188.415 150.451,190.081 149.5,191.5C 149.334,184.825 149.5,178.158 150,171.5C 151.682,170.135 151.849,168.635 150.5,167C 151.373,165.955 152.373,165.122 153.5,164.5 Z"/></g>
<g><path style="opacity:1" fill="#553d19" d="M 339.5,165.5 C 338.699,167.042 338.366,168.708 338.5,170.5C 336.328,171.801 333.995,172.801 331.5,173.5C 331.5,174.833 331.5,176.167 331.5,177.5C 335.508,177.64 339.174,176.64 342.5,174.5C 345.314,174.981 346.648,176.648 346.5,179.5C 343.792,178.551 341.126,178.551 338.5,179.5C 337.737,180.719 336.737,181.719 335.5,182.5C 336.246,183.736 336.579,185.07 336.5,186.5C 334.143,186.337 331.81,186.503 329.5,187C 328.385,189.131 327.052,190.965 325.5,192.5C 325.119,191.069 324.119,190.236 322.5,190C 328.169,188.542 328.836,186.042 324.5,182.5C 325.091,181.849 325.757,181.182 326.5,180.5C 325.477,178.105 326.477,177.105 329.5,177.5C 329.5,175.833 329.5,174.167 329.5,172.5C 333.408,172.431 335.908,170.431 337,166.5C 337.671,165.748 338.504,165.414 339.5,165.5 Z"/></g>
<g><path style="opacity:1" fill="#5c4c28" d="M 151.5,176.5 C 152.586,176.62 153.253,177.287 153.5,178.5C 152.954,180.135 152.62,181.801 152.5,183.5C 153.978,183.238 155.311,183.571 156.5,184.5C 154.977,186.283 152.977,186.949 150.5,186.5C 151.414,183.272 151.747,179.939 151.5,176.5 Z"/></g>
<g><path style="opacity:1" fill="#b9983b" d="M 327.5,178.5 C 330.247,178.187 332.914,178.52 335.5,179.5C 333.582,182.106 330.916,183.106 327.5,182.5C 327.5,181.167 327.5,179.833 327.5,178.5 Z"/></g>
<g><path style="opacity:1" fill="#090404" d="M 346.5,179.5 C 349.122,183.125 348.789,186.458 345.5,189.5C 346.766,190.362 348.099,191.029 349.5,191.5C 349.5,195.167 349.5,198.833 349.5,202.5C 347.833,202.5 346.167,202.5 344.5,202.5C 344.5,203.5 344.5,204.5 344.5,205.5C 346.167,205.5 347.833,205.5 349.5,205.5C 349.675,207.621 349.341,209.621 348.5,211.5C 347.799,214.335 347.633,217.335 348,220.5C 345.467,220.95 343.3,221.95 341.5,223.5C 340.382,226.855 340.382,230.188 341.5,233.5C 338.68,234.236 336.68,235.902 335.5,238.5C 335.569,240.278 335.903,242.111 336.5,244C 334.866,244.494 333.199,244.66 331.5,244.5C 331.5,245.5 331.5,246.5 331.5,247.5C 335.5,247.833 335.5,248.167 331.5,248.5C 331.5,249.5 331.5,250.5 331.5,251.5C 330.167,251.5 328.833,251.5 327.5,251.5C 327.5,252.833 327.5,254.167 327.5,255.5C 328.405,256.964 328.405,258.298 327.5,259.5C 323.64,260.644 319.64,261.311 315.5,261.5C 313.497,260.016 311.33,258.683 309,257.5C 300.1,255.666 291.267,253.666 282.5,251.5C 279.484,250.321 276.484,248.987 273.5,247.5C 272.833,247.5 272.167,247.5 271.5,247.5C 273.304,244.358 274.971,241.025 276.5,237.5C 277.5,237.5 278.5,237.5 279.5,237.5C 279.5,236.5 279.5,235.5 279.5,234.5C 280.5,234.5 281.5,234.5 282.5,234.5C 283.672,231.482 285.339,228.815 287.5,226.5C 288.209,225.596 289.209,225.263 290.5,225.5C 292.604,225.799 294.604,225.466 296.5,224.5C 296.291,223.914 295.957,223.414 295.5,223C 298.397,221.285 299.731,218.785 299.5,215.5C 301.587,214.415 302.92,212.749 303.5,210.5C 305.199,210.66 306.866,210.494 308.5,210C 309.252,209.329 309.586,208.496 309.5,207.5C 310.043,207.44 310.376,207.107 310.5,206.5C 309.271,205.719 307.938,205.219 306.5,205C 307.056,204.617 307.389,204.117 307.5,203.5C 308.156,202.722 308.989,202.056 310,201.5C 312.606,203.317 315.44,203.817 318.5,203C 319.337,201.989 319.67,200.822 319.5,199.5C 318.5,199.5 317.5,199.5 316.5,199.5C 316.5,198.5 316.5,197.5 316.5,196.5C 317.791,196.737 318.791,196.404 319.5,195.5C 321.544,194.478 323.544,193.478 325.5,192.5C 327.052,190.965 328.385,189.131 329.5,187C 331.81,186.503 334.143,186.337 336.5,186.5C 336.579,185.07 336.246,183.736 335.5,182.5C 336.737,181.719 337.737,180.719 338.5,179.5C 341.126,178.551 343.792,178.551 346.5,179.5 Z"/></g>
<g><path style="opacity:1" fill="#e3b534" d="M 151.5,160.5 C 152.1,161.9 153.1,162.9 154.5,163.5C 153.833,163.5 153.5,163.833 153.5,164.5C 152.373,165.122 151.373,165.955 150.5,167C 151.849,168.635 151.682,170.135 150,171.5C 149.5,178.158 149.334,184.825 149.5,191.5C 149.5,194.5 149.5,197.5 149.5,200.5C 148.781,191.649 148.114,182.649 147.5,173.5C 147.738,168.66 149.071,164.327 151.5,160.5 Z"/></g>
<g><path style="opacity:1" fill="#7b5d1a" d="M 211.5,163.5 C 210.699,165.042 210.366,166.708 210.5,168.5C 209.5,168.5 208.5,168.5 207.5,168.5C 207.579,169.93 207.246,171.264 206.5,172.5C 203.951,173.284 201.618,174.451 199.5,176C 201.437,176.122 202.77,176.955 203.5,178.5C 197.593,177.736 195.26,180.069 196.5,185.5C 193.14,185.616 189.807,185.949 186.5,186.5C 187.791,185.527 187.791,184.527 186.5,183.5C 188.743,182.526 191.076,182.192 193.5,182.5C 193.5,180.833 193.5,179.167 193.5,177.5C 195.167,177.5 196.833,177.5 198.5,177.5C 198.241,175.011 199.241,173.344 201.5,172.5C 205.568,172.009 207.568,169.676 207.5,165.5C 208.605,164.4 209.938,163.733 211.5,163.5 Z"/></g>
<g><path style="opacity:1" fill="#b88f2e" d="M 196.5,185.5 C 195.209,186.473 195.209,187.473 196.5,188.5C 198.045,189.452 199.712,189.785 201.5,189.5C 201.5,190.833 201.5,192.167 201.5,193.5C 200.5,193.5 199.5,193.5 198.5,193.5C 198.366,195.292 198.699,196.958 199.5,198.5C 196.918,196.417 196.918,194.083 199.5,191.5C 198.667,191.167 197.833,190.833 197,190.5C 193.979,192.038 190.812,192.538 187.5,192C 186.594,190.301 186.261,188.467 186.5,186.5C 189.807,185.949 193.14,185.616 196.5,185.5 Z"/></g>
<g><path style="opacity:1" fill="#a88a35" d="M 324.5,182.5 C 328.836,186.042 328.169,188.542 322.5,190C 324.119,190.236 325.119,191.069 325.5,192.5C 323.5,192.5 321.5,192.5 319.5,192.5C 319.5,190.5 319.5,188.5 319.5,186.5C 320.552,186.649 321.552,186.483 322.5,186C 321.952,184.404 322.618,183.237 324.5,182.5 Z"/></g>
<g><path style="opacity:1" fill="#473513" d="M 324.5,182.5 C 322.618,183.237 321.952,184.404 322.5,186C 321.552,186.483 320.552,186.649 319.5,186.5C 319.5,188.5 319.5,190.5 319.5,192.5C 321.5,192.5 323.5,192.5 325.5,192.5C 323.544,193.478 321.544,194.478 319.5,195.5C 317.497,193.018 314.831,192.018 311.5,192.5C 312.209,191.596 313.209,191.263 314.5,191.5C 314.5,190.5 314.5,189.5 314.5,188.5C 316.734,187.296 319.067,186.13 321.5,185C 320.692,184.692 320.025,184.192 319.5,183.5C 321.045,182.548 322.712,182.215 324.5,182.5 Z"/></g>
<g><path style="opacity:1" fill="#5b3d15" d="M 186.5,186.5 C 186.261,188.467 186.594,190.301 187.5,192C 190.812,192.538 193.979,192.038 197,190.5C 197.833,190.833 198.667,191.167 199.5,191.5C 196.918,194.083 196.918,196.417 199.5,198.5C 199.5,198.833 199.5,199.167 199.5,199.5C 201.369,200.165 203.369,200.831 205.5,201.5C 202.232,202.487 198.898,202.82 195.5,202.5C 197.195,200.61 197.528,198.277 196.5,195.5C 193.664,194.224 190.664,193.558 187.5,193.5C 187.756,195.912 186.756,197.579 184.5,198.5C 185.325,199.386 186.325,199.719 187.5,199.5C 187.737,200.791 187.404,201.791 186.5,202.5C 186.179,200.952 185.179,200.285 183.5,200.5C 183.5,199.5 183.5,198.5 183.5,197.5C 183.577,196.25 184.244,195.417 185.5,195C 183.697,192.897 181.364,192.064 178.5,192.5C 179.209,191.596 180.209,191.263 181.5,191.5C 181.5,190.5 181.5,189.5 181.5,188.5C 183.554,188.635 185.221,187.968 186.5,186.5 Z"/></g>
<g><path style="opacity:1" fill="#d6ac38" d="M 178.5,192.5 C 181.364,192.064 183.697,192.897 185.5,195C 184.244,195.417 183.577,196.25 183.5,197.5C 181.718,198.72 179.718,199.386 177.5,199.5C 177.5,198.5 177.5,197.5 177.5,196.5C 178.675,196.719 179.675,196.386 180.5,195.5C 179.388,194.735 178.721,193.735 178.5,192.5 Z"/></g>
<g><path style="opacity:1" fill="#5e4410" d="M 311.5,192.5 C 311.539,193.583 311.873,194.583 312.5,195.5C 311.675,196.386 310.675,196.719 309.5,196.5C 309.157,194.517 309.824,193.183 311.5,192.5 Z"/></g>
<g><path style="opacity:1" fill="#bfa33b" d="M 311.5,192.5 C 314.831,192.018 317.497,193.018 319.5,195.5C 318.791,196.404 317.791,196.737 316.5,196.5C 315.183,198.287 315.516,199.954 317.5,201.5C 316.667,201.833 315.833,202.167 315,202.5C 313.2,201.622 311.367,200.955 309.5,200.5C 309.5,199.167 309.5,197.833 309.5,196.5C 310.675,196.719 311.675,196.386 312.5,195.5C 311.873,194.583 311.539,193.583 311.5,192.5 Z"/></g>
<g><path style="opacity:1" fill="#a17e3a" d="M 178.5,192.5 C 178.721,193.735 179.388,194.735 180.5,195.5C 179.675,196.386 178.675,196.719 177.5,196.5C 177.5,197.5 177.5,198.5 177.5,199.5C 179.718,199.386 181.718,198.72 183.5,197.5C 183.5,198.5 183.5,199.5 183.5,200.5C 185.179,200.285 186.179,200.952 186.5,202.5C 182.616,202.576 178.95,201.91 175.5,200.5C 175.62,197.422 176.62,194.755 178.5,192.5 Z"/></g>
<g><path style="opacity:1" fill="#5e4917" d="M 309.5,196.5 C 309.5,197.833 309.5,199.167 309.5,200.5C 311.367,200.955 313.2,201.622 315,202.5C 315.833,202.167 316.667,201.833 317.5,201.5C 315.516,199.954 315.183,198.287 316.5,196.5C 316.5,197.5 316.5,198.5 316.5,199.5C 317.5,199.5 318.5,199.5 319.5,199.5C 319.67,200.822 319.337,201.989 318.5,203C 315.44,203.817 312.606,203.317 310,201.5C 308.989,202.056 308.156,202.722 307.5,203.5C 307.5,202.5 307.5,201.5 307.5,200.5C 305.265,200.795 303.265,200.461 301.5,199.5C 303.5,199.5 305.5,199.5 307.5,199.5C 307.285,197.821 307.952,196.821 309.5,196.5 Z"/></g>
<g><path style="opacity:1" fill="#685835" d="M 149.5,200.5 C 151.5,200.5 153.5,200.5 155.5,200.5C 155.5,201.5 155.5,202.5 155.5,203.5C 153.5,203.5 151.5,203.5 149.5,203.5C 149.5,202.5 149.5,201.5 149.5,200.5 Z"/></g>
<g><path style="opacity:1" fill="#d2ac2f" d="M 298.5,198.5 C 299.609,198.557 300.609,198.89 301.5,199.5C 303.265,200.461 305.265,200.795 307.5,200.5C 307.5,201.5 307.5,202.5 307.5,203.5C 305.952,203.821 305.285,204.821 305.5,206.5C 307.099,206.232 308.432,206.566 309.5,207.5C 307.858,209.081 305.858,209.747 303.5,209.5C 304.599,207.291 304.099,205.291 302,203.5C 300.89,205.037 299.39,205.703 297.5,205.5C 297.383,203.516 298.05,201.85 299.5,200.5C 299.137,199.817 298.804,199.15 298.5,198.5 Z"/></g>
<g><path style="opacity:1" fill="#bba95f" d="M 349.5,202.5 C 349.5,203.5 349.5,204.5 349.5,205.5C 347.833,205.5 346.167,205.5 344.5,205.5C 344.5,204.5 344.5,203.5 344.5,202.5C 346.167,202.5 347.833,202.5 349.5,202.5 Z"/></g>
<g><path style="opacity:1" fill="#967122" d="M 199.5,199.5 C 201.833,199.5 204.167,199.5 206.5,199.5C 206.5,200.833 206.5,202.167 206.5,203.5C 203.102,203.18 199.768,203.513 196.5,204.5C 199.027,205.214 201.527,205.88 204,206.5C 203.86,208.851 203.36,211.184 202.5,213.5C 201.583,211.338 201.583,209.005 202.5,206.5C 200.167,206.5 197.833,206.5 195.5,206.5C 195.5,205.167 195.5,203.833 195.5,202.5C 198.898,202.82 202.232,202.487 205.5,201.5C 203.369,200.831 201.369,200.165 199.5,199.5 Z"/></g>
<g><path style="opacity:1" fill="#624c20" d="M 307.5,203.5 C 307.389,204.117 307.056,204.617 306.5,205C 307.938,205.219 309.271,205.719 310.5,206.5C 310.376,207.107 310.043,207.44 309.5,207.5C 308.432,206.566 307.099,206.232 305.5,206.5C 305.285,204.821 305.952,203.821 307.5,203.5 Z"/></g>
<g><path style="opacity:1" fill="#070403" d="M 178.5,132.5 C 185.429,133.401 192.429,134.068 199.5,134.5C 199.842,135.338 200.508,135.672 201.5,135.5C 201.414,136.496 201.748,137.329 202.5,138C 204.134,138.494 205.801,138.66 207.5,138.5C 209.102,140.074 211.102,140.741 213.5,140.5C 216.704,141.901 220.037,142.901 223.5,143.5C 224.635,144.474 225.635,145.641 226.5,147C 225.552,147.483 224.552,147.649 223.5,147.5C 222.551,149.737 221.884,152.071 221.5,154.5C 219.901,154.232 218.568,154.566 217.5,155.5C 216.167,155.5 214.833,155.5 213.5,155.5C 213.48,157.143 214.147,158.476 215.5,159.5C 213.922,160.298 212.256,160.798 210.5,161C 211.252,161.671 211.586,162.504 211.5,163.5C 209.938,163.733 208.605,164.4 207.5,165.5C 206.5,165.5 205.5,165.5 204.5,165.5C 204.5,167.167 204.5,168.833 204.5,170.5C 202.821,170.285 201.821,170.952 201.5,172.5C 199.241,173.344 198.241,175.011 198.5,177.5C 196.833,177.5 195.167,177.5 193.5,177.5C 193.5,179.167 193.5,180.833 193.5,182.5C 191.076,182.192 188.743,182.526 186.5,183.5C 187.791,184.527 187.791,185.527 186.5,186.5C 185.221,187.968 183.554,188.635 181.5,188.5C 181.5,189.5 181.5,190.5 181.5,191.5C 180.209,191.263 179.209,191.596 178.5,192.5C 176.62,194.755 175.62,197.422 175.5,200.5C 178.95,201.91 182.616,202.576 186.5,202.5C 187.404,201.791 187.737,200.791 187.5,199.5C 186.325,199.719 185.325,199.386 184.5,198.5C 186.756,197.579 187.756,195.912 187.5,193.5C 190.664,193.558 193.664,194.224 196.5,195.5C 197.528,198.277 197.195,200.61 195.5,202.5C 195.5,203.833 195.5,205.167 195.5,206.5C 197.833,206.5 200.167,206.5 202.5,206.5C 201.583,209.005 201.583,211.338 202.5,213.5C 203.974,215.979 204.974,218.646 205.5,221.5C 204.167,221.5 202.833,221.5 201.5,221.5C 200.596,222.209 200.263,223.209 200.5,224.5C 203.487,224.422 204.153,225.589 202.5,228C 203.707,229.3 204.374,230.8 204.5,232.5C 205.5,232.5 206.5,232.5 207.5,232.5C 206.37,234.374 205.37,236.374 204.5,238.5C 205.325,239.386 206.325,239.719 207.5,239.5C 207.328,241.492 207.995,243.158 209.5,244.5C 207.12,246.603 207.787,247.77 211.5,248C 210.642,249.57 209.975,251.237 209.5,253C 210.707,254.3 211.374,255.8 211.5,257.5C 211.336,260.187 211.503,262.854 212,265.5C 212.257,267.907 213.424,269.573 215.5,270.5C 215.5,270.833 215.5,271.167 215.5,271.5C 216.791,272.473 216.791,273.473 215.5,274.5C 218.238,275.237 219.905,276.904 220.5,279.5C 220.795,281.735 220.461,283.735 219.5,285.5C 216.924,285.668 214.091,286.001 211,286.5C 208.498,286.662 206.331,285.995 204.5,284.5C 199.497,281.829 194.497,279.162 189.5,276.5C 189.5,276.167 189.5,275.833 189.5,275.5C 189.67,274.178 189.337,273.011 188.5,272C 186.527,271.505 184.527,271.338 182.5,271.5C 181.596,270.791 181.263,269.791 181.5,268.5C 177.686,269.019 175.686,267.353 175.5,263.5C 173.98,259.722 172.313,256.056 170.5,252.5C 169.167,252.5 167.833,252.5 166.5,252.5C 166.5,251.167 166.5,249.833 166.5,248.5C 167.675,248.719 168.675,248.386 169.5,247.5C 167.955,246.548 166.288,246.215 164.5,246.5C 165.575,242.062 163.908,240.062 159.5,240.5C 159.307,237.692 158.64,235.025 157.5,232.5C 156.167,226.5 158.5,224.167 164.5,225.5C 164.5,224.167 164.5,222.833 164.5,221.5C 165.949,219.389 166.949,217.056 167.5,214.5C 170.192,212.794 172.859,211.128 175.5,209.5C 174.551,207.263 173.884,204.929 173.5,202.5C 171.473,202.338 169.473,202.505 167.5,203C 166.027,203.71 165.36,204.876 165.5,206.5C 167.199,206.34 168.866,206.506 170.5,207C 166.707,208.685 163.207,210.851 160,213.5C 159.506,215.134 159.34,216.801 159.5,218.5C 159.5,218.833 159.5,219.167 159.5,219.5C 158.833,219.5 158.167,219.5 157.5,219.5C 155.988,217.683 153.988,216.683 151.5,216.5C 150.382,213.822 150.382,211.155 151.5,208.5C 150.453,206.944 149.786,205.277 149.5,203.5C 151.5,203.5 153.5,203.5 155.5,203.5C 155.5,202.5 155.5,201.5 155.5,200.5C 153.5,200.5 151.5,200.5 149.5,200.5C 149.5,197.5 149.5,194.5 149.5,191.5C 150.451,190.081 150.784,188.415 150.5,186.5C 152.977,186.949 154.977,186.283 156.5,184.5C 155.311,183.571 153.978,183.238 152.5,183.5C 152.62,181.801 152.954,180.135 153.5,178.5C 153.253,177.287 152.586,176.62 151.5,176.5C 151.5,176.167 151.5,175.833 151.5,175.5C 153.391,172.622 155.391,169.788 157.5,167C 157.043,166.586 156.709,166.086 156.5,165.5C 158.287,164.684 159.954,163.684 161.5,162.5C 160.007,161.859 159.007,160.859 158.5,159.5C 159.404,158.791 159.737,157.791 159.5,156.5C 161.167,156.5 162.833,156.5 164.5,156.5C 164.5,155.5 164.5,154.5 164.5,153.5C 162.833,153.5 161.167,153.5 159.5,153.5C 160.502,151.989 161.169,150.322 161.5,148.5C 162.283,146.657 162.95,144.657 163.5,142.5C 165.184,141.85 166.517,140.85 167.5,139.5C 169.82,137.774 172.487,137.107 175.5,137.5C 175.527,135.801 176.194,134.467 177.5,133.5C 177.5,132.833 177.833,132.5 178.5,132.5 Z"/></g>
<g><path style="opacity:1" fill="#634b15" d="M 309.5,207.5 C 309.586,208.496 309.252,209.329 308.5,210C 306.866,210.494 305.199,210.66 303.5,210.5C 303.5,210.167 303.5,209.833 303.5,209.5C 305.858,209.747 307.858,209.081 309.5,207.5 Z"/></g>
<g><path style="opacity:1" fill="#bb9a36" d="M 175.5,209.5 C 171.825,209.5 169.159,211.167 167.5,214.5C 166.949,217.056 165.949,219.389 164.5,221.5C 161.612,222.01 159.279,221.344 157.5,219.5C 158.167,219.5 158.833,219.5 159.5,219.5C 160.601,220.598 161.934,220.765 163.5,220C 165.02,218.115 166.02,215.949 166.5,213.5C 165.5,212.167 164.5,212.167 163.5,213.5C 162.511,215.586 161.178,217.253 159.5,218.5C 159.34,216.801 159.506,215.134 160,213.5C 163.207,210.851 166.707,208.685 170.5,207C 168.866,206.506 167.199,206.34 165.5,206.5C 165.36,204.876 166.027,203.71 167.5,203C 169.473,202.505 171.473,202.338 173.5,202.5C 173.884,204.929 174.551,207.263 175.5,209.5 Z"/></g>
<g><path style="opacity:1" fill="#523a0a" d="M 175.5,209.5 C 172.859,211.128 170.192,212.794 167.5,214.5C 169.159,211.167 171.825,209.5 175.5,209.5 Z"/></g>
<g><path style="opacity:1" fill="#ecc02e" d="M 159.5,219.5 C 159.5,219.167 159.5,218.833 159.5,218.5C 161.178,217.253 162.511,215.586 163.5,213.5C 164.5,212.167 165.5,212.167 166.5,213.5C 166.02,215.949 165.02,218.115 163.5,220C 161.934,220.765 160.601,220.598 159.5,219.5 Z"/></g>
<g><path style="opacity:1" fill="#bc9630" d="M 348.5,211.5 C 348.247,213.827 348.914,215.827 350.5,217.5C 349.607,220.084 349.274,222.751 349.5,225.5C 348.167,225.5 346.833,225.5 345.5,225.5C 344.817,223.824 343.483,223.157 341.5,223.5C 343.3,221.95 345.467,220.95 348,220.5C 347.633,217.335 347.799,214.335 348.5,211.5 Z"/></g>
<g><path style="opacity:1" fill="#463515" d="M 151.5,216.5 C 153.988,216.683 155.988,217.683 157.5,219.5C 159.279,221.344 161.612,222.01 164.5,221.5C 164.5,222.833 164.5,224.167 164.5,225.5C 158.5,224.167 156.167,226.5 157.5,232.5C 154.824,229.314 155.158,226.481 158.5,224C 157.906,223.536 157.239,223.369 156.5,223.5C 155.178,220.966 153.511,218.633 151.5,216.5 Z"/></g>
<g><path style="opacity:1" fill="#543f17" d="M 299.5,215.5 C 299.731,218.785 298.397,221.285 295.5,223C 295.957,223.414 296.291,223.914 296.5,224.5C 294.604,225.466 292.604,225.799 290.5,225.5C 289.993,224.141 288.993,223.141 287.5,222.5C 293.392,222.996 297.392,220.663 299.5,215.5 Z"/></g>
<g><path style="opacity:1" fill="#876416" d="M 156.5,223.5 C 157.239,223.369 157.906,223.536 158.5,224C 155.158,226.481 154.824,229.314 157.5,232.5C 158.64,235.025 159.307,237.692 159.5,240.5C 163.908,240.062 165.575,242.062 164.5,246.5C 164.5,246.833 164.5,247.167 164.5,247.5C 162.396,247.799 160.396,247.466 158.5,246.5C 159.682,244.533 159.015,243.2 156.5,242.5C 156.359,237.2 154.692,232.2 151.5,227.5C 153.772,226.866 155.439,225.532 156.5,223.5 Z"/></g>
<g><path style="opacity:1" fill="#8e6a1a" d="M 202.5,213.5 C 206.229,215.643 207.896,218.977 207.5,223.5C 211.172,224.045 210.838,224.378 206.5,224.5C 206.786,226.277 207.453,227.944 208.5,229.5C 208.457,230.416 208.124,231.083 207.5,231.5C 207.19,230.262 206.69,230.262 206,231.5C 204.921,228.937 204.421,226.271 204.5,223.5C 202.821,223.715 201.821,223.048 201.5,221.5C 202.833,221.5 204.167,221.5 205.5,221.5C 204.974,218.646 203.974,215.979 202.5,213.5 Z"/></g>
<g><path style="opacity:1" fill="#866610" d="M 287.5,226.5 C 285.339,228.815 283.672,231.482 282.5,234.5C 281.5,234.5 280.5,234.5 279.5,234.5C 281.444,232.25 283.111,229.75 284.5,227C 285.448,226.517 286.448,226.351 287.5,226.5 Z"/></g>
<g><path style="opacity:1" fill="#997811" d="M 345.5,225.5 C 345.721,226.735 346.388,227.735 347.5,228.5C 344.866,229.807 343.2,231.807 342.5,234.5C 342.337,232.143 342.503,229.81 343,227.5C 343.417,226.244 344.25,225.577 345.5,225.5 Z"/></g>
<g><path style="opacity:1" fill="#4e3918" d="M 201.5,221.5 C 201.821,223.048 202.821,223.715 204.5,223.5C 204.421,226.271 204.921,228.937 206,231.5C 206.69,230.262 207.19,230.262 207.5,231.5C 207.5,231.833 207.5,232.167 207.5,232.5C 206.5,232.5 205.5,232.5 204.5,232.5C 204.374,230.8 203.707,229.3 202.5,228C 204.153,225.589 203.487,224.422 200.5,224.5C 200.263,223.209 200.596,222.209 201.5,221.5 Z"/></g>
<g><path style="opacity:1" fill="#f0bb1d" d="M 349.5,172.5 C 350.829,177.624 351.495,183.124 351.5,189C 350.758,201.258 350.758,213.425 351.5,225.5C 349.805,229.37 349.305,233.37 350,237.5C 350.889,236.112 351.389,236.278 351.5,238C 350.852,239.44 350.519,240.94 350.5,242.5C 348.515,243.924 345.848,244.924 342.5,245.5C 342.67,246.822 342.337,247.989 341.5,249C 342.956,249.423 343.456,250.256 343,251.5C 342.586,251.043 342.086,250.709 341.5,250.5C 339.146,251.06 336.813,251.727 334.5,252.5C 334.709,253.086 335.043,253.586 335.5,254C 334.094,256.445 332.76,258.945 331.5,261.5C 327.612,264.101 323.612,266.101 319.5,267.5C 318.427,266.749 318.26,265.749 319,264.5C 321.531,262.097 324.364,260.43 327.5,259.5C 328.405,258.298 328.405,256.964 327.5,255.5C 329.482,255.005 331.482,254.505 333.5,254C 332.62,252.644 332.286,251.144 332.5,249.5C 335.254,249.216 337.92,248.549 340.5,247.5C 339.593,244.579 339.26,241.579 339.5,238.5C 343.186,238.87 344.186,237.537 342.5,234.5C 343.2,231.807 344.866,229.807 347.5,228.5C 346.388,227.735 345.721,226.735 345.5,225.5C 346.833,225.5 348.167,225.5 349.5,225.5C 349.274,222.751 349.607,220.084 350.5,217.5C 348.914,215.827 348.247,213.827 348.5,211.5C 349.341,209.621 349.675,207.621 349.5,205.5C 349.5,204.5 349.5,203.5 349.5,202.5C 349.5,198.833 349.5,195.167 349.5,191.5C 350.008,185.81 349.341,180.31 347.5,175C 348.056,173.989 348.722,173.156 349.5,172.5 Z"/></g>
<g><path style="opacity:1" fill="#87690e" d="M 279.5,234.5 C 279.5,235.5 279.5,236.5 279.5,237.5C 278.5,237.5 277.5,237.5 276.5,237.5C 276.5,236.5 276.5,235.5 276.5,234.5C 277.5,234.5 278.5,234.5 279.5,234.5 Z"/></g>
<g><path style="opacity:1" fill="#9e7517" d="M 276.5,237.5 C 274.971,241.025 273.304,244.358 271.5,247.5C 268.753,247.813 266.086,247.48 263.5,246.5C 266.477,244.849 269.143,242.849 271.5,240.5C 271.5,239.5 271.5,238.5 271.5,237.5C 273.167,237.5 274.833,237.5 276.5,237.5 Z"/></g>
<g><path style="opacity:1" fill="#543e1d" d="M 219.5,239.5 C 225.649,240.375 231.649,241.708 237.5,243.5C 237.5,243.833 237.5,244.167 237.5,244.5C 232.674,243.985 228.007,242.985 223.5,241.5C 219.823,241.2 218.156,242.866 218.5,246.5C 223.629,247.614 223.629,248.281 218.5,248.5C 216.708,247.691 214.708,247.191 212.5,247C 214.025,245.991 215.692,245.491 217.5,245.5C 217.617,243.516 216.95,241.85 215.5,240.5C 216.689,239.571 218.022,239.238 219.5,239.5 Z"/></g>
<g><path style="opacity:1" fill="#edb927" d="M 271.5,240.5 C 269.143,242.849 266.477,244.849 263.5,246.5C 266.086,247.48 268.753,247.813 271.5,247.5C 272.167,247.5 272.833,247.5 273.5,247.5C 273.511,249.017 274.177,250.184 275.5,251C 277.81,251.497 280.143,251.663 282.5,251.5C 282.804,252.15 283.137,252.817 283.5,253.5C 286.107,254.318 288.774,254.818 291.5,255C 292.167,255.667 292.833,256.333 293.5,257C 291.527,257.495 289.527,257.662 287.5,257.5C 282.948,257.047 278.615,255.714 274.5,253.5C 268.407,251.318 262.074,249.318 255.5,247.5C 250.231,246.731 244.898,245.731 239.5,244.5C 238.833,244.5 238.167,244.5 237.5,244.5C 237.5,244.167 237.5,243.833 237.5,243.5C 241.281,243.907 244.281,242.574 246.5,239.5C 247.167,240.5 247.833,241.5 248.5,242.5C 249.086,242.291 249.586,241.957 250,241.5C 252.832,242.791 255.832,243.457 259,243.5C 263.36,242.984 267.527,241.984 271.5,240.5 Z"/></g>
<g><path style="opacity:1" fill="#77520c" d="M 239.5,244.5 C 244.898,245.731 250.231,246.731 255.5,247.5C 250.821,247.666 246.155,247.499 241.5,247C 240.244,246.583 239.577,245.75 239.5,244.5 Z"/></g>
<g><path style="opacity:1" fill="#060203" d="M 237.5,244.5 C 238.167,244.5 238.833,244.5 239.5,244.5C 239.577,245.75 240.244,246.583 241.5,247C 246.155,247.499 250.821,247.666 255.5,247.5C 255.577,248.75 256.244,249.583 257.5,250C 259.473,250.495 261.473,250.662 263.5,250.5C 263.285,252.179 263.952,253.179 265.5,253.5C 268.241,254.083 270.908,255.083 273.5,256.5C 278.12,257.493 282.786,257.827 287.5,257.5C 290.124,258.494 292.79,259.494 295.5,260.5C 296.842,261.793 298.509,262.626 300.5,263C 304.17,263.548 307.837,264.048 311.5,264.5C 312.568,265.434 313.901,265.768 315.5,265.5C 314.833,268.167 314.167,270.833 313.5,273.5C 311.5,273.5 309.5,273.5 307.5,273.5C 307.5,274.833 307.5,276.167 307.5,277.5C 303.895,279.49 300.228,281.49 296.5,283.5C 295.702,283.957 295.369,284.624 295.5,285.5C 294.5,285.5 293.5,285.5 292.5,285.5C 289.076,285.57 286.076,286.736 283.5,289C 281.527,289.495 279.527,289.662 277.5,289.5C 276.078,289.709 274.745,290.209 273.5,291C 259.176,292.083 244.842,292.916 230.5,293.5C 231.01,290.612 230.344,288.279 228.5,286.5C 228.201,284.545 227.201,283.211 225.5,282.5C 225.5,281.5 225.5,280.5 225.5,279.5C 224.49,276.756 224.824,274.423 226.5,272.5C 224.709,271.83 223.042,271.163 221.5,270.5C 222.376,270.631 223.043,270.298 223.5,269.5C 222.167,268.833 220.833,268.167 219.5,267.5C 220.348,265.591 220.682,263.591 220.5,261.5C 216.5,260.833 216.5,260.167 220.5,259.5C 220.5,258.5 220.5,257.5 220.5,256.5C 219.5,256.5 218.5,256.5 217.5,256.5C 218.335,255.057 219.668,254.057 221.5,253.5C 220.5,252.833 219.5,252.167 218.5,251.5C 217.347,250.313 217.347,249.313 218.5,248.5C 223.629,248.281 223.629,247.614 218.5,246.5C 218.156,242.866 219.823,241.2 223.5,241.5C 228.007,242.985 232.674,243.985 237.5,244.5 Z"/></g>
<g><path style="opacity:1" fill="#745617" d="M 341.5,223.5 C 343.483,223.157 344.817,223.824 345.5,225.5C 344.25,225.577 343.417,226.244 343,227.5C 342.503,229.81 342.337,232.143 342.5,234.5C 344.186,237.537 343.186,238.87 339.5,238.5C 339.26,241.579 339.593,244.579 340.5,247.5C 337.92,248.549 335.254,249.216 332.5,249.5C 332.286,251.144 332.62,252.644 333.5,254C 331.482,254.505 329.482,255.005 327.5,255.5C 327.5,254.167 327.5,252.833 327.5,251.5C 328.833,251.5 330.167,251.5 331.5,251.5C 331.5,250.5 331.5,249.5 331.5,248.5C 335.5,248.167 335.5,247.833 331.5,247.5C 331.5,246.5 331.5,245.5 331.5,244.5C 333.199,244.66 334.866,244.494 336.5,244C 335.903,242.111 335.569,240.278 335.5,238.5C 336.68,235.902 338.68,234.236 341.5,233.5C 340.382,230.188 340.382,226.855 341.5,223.5 Z"/></g>
<g><path style="opacity:1" fill="#b78e2c" d="M 255.5,247.5 C 262.074,249.318 268.407,251.318 274.5,253.5C 271.5,253.5 268.5,253.5 265.5,253.5C 263.952,253.179 263.285,252.179 263.5,250.5C 261.473,250.662 259.473,250.495 257.5,250C 256.244,249.583 255.577,248.75 255.5,247.5 Z"/></g>
<g><path style="opacity:1" fill="#79570e" d="M 273.5,247.5 C 276.484,248.987 279.484,250.321 282.5,251.5C 280.143,251.663 277.81,251.497 275.5,251C 274.177,250.184 273.511,249.017 273.5,247.5 Z"/></g>
<g><path style="opacity:1" fill="#6f4f22" d="M 164.5,246.5 C 166.288,246.215 167.955,246.548 169.5,247.5C 168.675,248.386 167.675,248.719 166.5,248.5C 166.5,249.833 166.5,251.167 166.5,252.5C 167.833,252.5 169.167,252.5 170.5,252.5C 172.313,256.056 173.98,259.722 175.5,263.5C 173.958,262.699 172.292,262.366 170.5,262.5C 170.5,260.833 170.5,259.167 170.5,257.5C 168.167,256.167 165.833,254.833 163.5,253.5C 163.325,251.379 163.659,249.379 164.5,247.5C 164.5,247.167 164.5,246.833 164.5,246.5 Z"/></g>
<g><path style="opacity:1" fill="#755922" d="M 207.5,232.5 C 210.25,236.878 214.25,239.212 219.5,239.5C 218.022,239.238 216.689,239.571 215.5,240.5C 216.95,241.85 217.617,243.516 217.5,245.5C 215.692,245.491 214.025,245.991 212.5,247C 214.708,247.191 216.708,247.691 218.5,248.5C 217.347,249.313 217.347,250.313 218.5,251.5C 219.5,252.167 220.5,252.833 221.5,253.5C 219.668,254.057 218.335,255.057 217.5,256.5C 216.134,254.649 214.467,254.316 212.5,255.5C 213.602,256.176 214.602,256.842 215.5,257.5C 214.167,257.5 212.833,257.5 211.5,257.5C 211.374,255.8 210.707,254.3 209.5,253C 209.975,251.237 210.642,249.57 211.5,248C 207.787,247.77 207.12,246.603 209.5,244.5C 207.995,243.158 207.328,241.492 207.5,239.5C 206.325,239.719 205.325,239.386 204.5,238.5C 205.37,236.374 206.37,234.374 207.5,232.5 Z"/></g>
<g><path style="opacity:1" fill="#362209" d="M 265.5,253.5 C 268.5,253.5 271.5,253.5 274.5,253.5C 278.615,255.714 282.948,257.047 287.5,257.5C 282.786,257.827 278.12,257.493 273.5,256.5C 270.908,255.083 268.241,254.083 265.5,253.5 Z"/></g>
<g><path style="opacity:1" fill="#ac8923" d="M 282.5,251.5 C 291.267,253.666 300.1,255.666 309,257.5C 311.33,258.683 313.497,260.016 315.5,261.5C 309.102,259.244 302.435,257.911 295.5,257.5C 295.5,258.5 295.5,259.5 295.5,260.5C 292.79,259.494 290.124,258.494 287.5,257.5C 289.527,257.662 291.527,257.495 293.5,257C 292.833,256.333 292.167,255.667 291.5,255C 288.774,254.818 286.107,254.318 283.5,253.5C 283.137,252.817 282.804,252.15 282.5,251.5 Z"/></g>
<g><path style="opacity:1" fill="#edc125" d="M 315.5,261.5 C 315.918,262.222 316.584,262.722 317.5,263C 315.564,263.813 313.564,264.313 311.5,264.5C 311.047,263.542 310.381,262.708 309.5,262C 304.816,261.565 300.149,261.065 295.5,260.5C 295.5,259.5 295.5,258.5 295.5,257.5C 302.435,257.911 309.102,259.244 315.5,261.5 Z"/></g>
<g><path style="opacity:1" fill="#aa8523" d="M 295.5,260.5 C 300.149,261.065 304.816,261.565 309.5,262C 310.381,262.708 311.047,263.542 311.5,264.5C 307.837,264.048 304.17,263.548 300.5,263C 298.509,262.626 296.842,261.793 295.5,260.5 Z"/></g>
<g><path style="opacity:1" fill="#b99022" d="M 327.5,259.5 C 324.364,260.43 321.531,262.097 319,264.5C 318.26,265.749 318.427,266.749 319.5,267.5C 318.652,273.789 314.985,276.289 308.5,275C 309.883,276.461 309.549,277.294 307.5,277.5C 307.5,276.167 307.5,274.833 307.5,273.5C 309.5,273.5 311.5,273.5 313.5,273.5C 315.549,273.294 315.883,272.461 314.5,271C 319.369,270.026 319.702,268.193 315.5,265.5C 313.901,265.768 312.568,265.434 311.5,264.5C 313.564,264.313 315.564,263.813 317.5,263C 316.584,262.722 315.918,262.222 315.5,261.5C 319.64,261.311 323.64,260.644 327.5,259.5 Z"/></g>
<g><path style="opacity:1" fill="#2d1b0a" d="M 211.5,257.5 C 212.833,257.5 214.167,257.5 215.5,257.5C 215.179,259.048 214.179,259.715 212.5,259.5C 212.5,260.833 212.5,262.167 212.5,263.5C 213.5,263.5 214.5,263.5 215.5,263.5C 215.579,264.93 215.246,266.264 214.5,267.5C 215.833,268.167 217.167,268.833 218.5,269.5C 217.675,270.386 216.675,270.719 215.5,270.5C 213.424,269.573 212.257,267.907 212,265.5C 211.503,262.854 211.336,260.187 211.5,257.5 Z"/></g>
<g><path style="opacity:1" fill="#b2913f" d="M 217.5,256.5 C 218.5,256.5 219.5,256.5 220.5,256.5C 220.5,257.5 220.5,258.5 220.5,259.5C 216.5,260.167 216.5,260.833 220.5,261.5C 220.682,263.591 220.348,265.591 219.5,267.5C 220.833,268.167 222.167,268.833 223.5,269.5C 223.043,270.298 222.376,270.631 221.5,270.5C 219.621,271.341 217.621,271.675 215.5,271.5C 215.5,271.167 215.5,270.833 215.5,270.5C 216.675,270.719 217.675,270.386 218.5,269.5C 217.167,268.833 215.833,268.167 214.5,267.5C 215.246,266.264 215.579,264.93 215.5,263.5C 214.5,263.5 213.5,263.5 212.5,263.5C 212.5,262.167 212.5,260.833 212.5,259.5C 214.179,259.715 215.179,259.048 215.5,257.5C 214.602,256.842 213.602,256.176 212.5,255.5C 214.467,254.316 216.134,254.649 217.5,256.5 Z"/></g>
<g><path style="opacity:1" fill="#6c460b" d="M 315.5,265.5 C 319.702,268.193 319.369,270.026 314.5,271C 315.883,272.461 315.549,273.294 313.5,273.5C 314.167,270.833 314.833,268.167 315.5,265.5 Z"/></g>
<g><path style="opacity:1" fill="#725a18" d="M 182.5,271.5 C 184.527,271.338 186.527,271.505 188.5,272C 189.337,273.011 189.67,274.178 189.5,275.5C 187.5,275.5 185.5,275.5 183.5,275.5C 183.567,274.041 183.234,272.708 182.5,271.5 Z"/></g>
<g><path style="opacity:1" fill="#755624" d="M 221.5,270.5 C 223.042,271.163 224.709,271.83 226.5,272.5C 224.824,274.423 224.49,276.756 225.5,279.5C 225.067,276.741 223.4,275.408 220.5,275.5C 220.5,276.833 220.5,278.167 220.5,279.5C 219.905,276.904 218.238,275.237 215.5,274.5C 216.791,273.473 216.791,272.473 215.5,271.5C 217.621,271.675 219.621,271.341 221.5,270.5 Z"/></g>
<g><path style="opacity:1" fill="#e5b626" d="M 163.5,253.5 C 165.833,254.833 168.167,256.167 170.5,257.5C 170.5,259.167 170.5,260.833 170.5,262.5C 172.292,262.366 173.958,262.699 175.5,263.5C 175.686,267.353 177.686,269.019 181.5,268.5C 181.263,269.791 181.596,270.791 182.5,271.5C 183.234,272.708 183.567,274.041 183.5,275.5C 185.5,275.5 187.5,275.5 189.5,275.5C 189.5,275.833 189.5,276.167 189.5,276.5C 190.11,277.391 190.443,278.391 190.5,279.5C 186.873,278.208 183.207,276.875 179.5,275.5C 178.098,274.158 178.431,273.324 180.5,273C 179.23,272.1 178.23,270.934 177.5,269.5C 175.5,268.833 173.5,268.167 171.5,267.5C 170.571,266.311 170.238,264.978 170.5,263.5C 169.5,263.5 168.5,263.5 167.5,263.5C 167.657,262.127 167.49,260.793 167,259.5C 165.064,257.963 163.897,255.963 163.5,253.5 Z"/></g>
<g><path style="opacity:1" fill="#e4bd4a" d="M 225.5,279.5 C 225.5,280.5 225.5,281.5 225.5,282.5C 225.5,283.5 225.5,284.5 225.5,285.5C 224.5,285.5 223.5,285.5 222.5,285.5C 222.741,283.102 222.074,281.102 220.5,279.5C 220.5,278.167 220.5,276.833 220.5,275.5C 223.4,275.408 225.067,276.741 225.5,279.5 Z"/></g>
<g><path style="opacity:1" fill="#cfa62f" d="M 307.5,277.5 C 305.718,279.606 304.385,281.939 303.5,284.5C 300.833,284.833 298.167,285.167 295.5,285.5C 295.369,284.624 295.702,283.957 296.5,283.5C 300.228,281.49 303.895,279.49 307.5,277.5 Z"/></g>
<g><path style="opacity:1" fill="#2b1f08" d="M 204.5,284.5 C 206.331,285.995 208.498,286.662 211,286.5C 214.091,286.001 216.924,285.668 219.5,285.5C 218.929,286.973 218.929,288.64 219.5,290.5C 218.167,290.5 216.833,290.5 215.5,290.5C 212.781,288.014 209.447,286.847 205.5,287C 204.748,286.329 204.414,285.496 204.5,284.5 Z"/></g>
<g><path style="opacity:1" fill="#d1a122" d="M 189.5,276.5 C 194.497,279.162 199.497,281.829 204.5,284.5C 204.414,285.496 204.748,286.329 205.5,287C 209.447,286.847 212.781,288.014 215.5,290.5C 217.948,291.473 220.615,291.806 223.5,291.5C 223.5,290.5 223.5,289.5 223.5,288.5C 224.5,288.5 225.5,288.5 226.5,288.5C 226.421,289.93 226.754,291.264 227.5,292.5C 226.051,293.172 224.718,293.839 223.5,294.5C 219.881,293.82 216.214,293.32 212.5,293C 211.833,292 211.167,291 210.5,290C 205.59,290.379 201.923,288.546 199.5,284.5C 196.473,282.701 193.473,281.035 190.5,279.5C 190.443,278.391 190.11,277.391 189.5,276.5 Z"/></g>
<g><path style="opacity:1" fill="#6c4f10" d="M 292.5,285.5 C 292.047,286.458 291.381,287.292 290.5,288C 285.479,289.501 280.479,291.001 275.5,292.5C 276.167,291.5 276.833,290.5 277.5,289.5C 279.527,289.662 281.527,289.495 283.5,289C 286.076,286.736 289.076,285.57 292.5,285.5 Z"/></g>
<g><path style="opacity:1" fill="#755812" d="M 220.5,279.5 C 222.074,281.102 222.741,283.102 222.5,285.5C 223.5,285.5 224.5,285.5 225.5,285.5C 225.5,284.5 225.5,283.5 225.5,282.5C 227.201,283.211 228.201,284.545 228.5,286.5C 229.388,289.054 229.721,291.721 229.5,294.5C 227.5,294.5 225.5,294.5 223.5,294.5C 224.718,293.839 226.051,293.172 227.5,292.5C 226.754,291.264 226.421,289.93 226.5,288.5C 225.5,288.5 224.5,288.5 223.5,288.5C 223.5,289.5 223.5,290.5 223.5,291.5C 220.615,291.806 217.948,291.473 215.5,290.5C 216.833,290.5 218.167,290.5 219.5,290.5C 218.929,288.64 218.929,286.973 219.5,285.5C 220.461,283.735 220.795,281.735 220.5,279.5 Z"/></g>
<g><path style="opacity:1" fill="#201306" d="M 228.5,286.5 C 230.344,288.279 231.01,290.612 230.5,293.5C 244.842,292.916 259.176,292.083 273.5,291C 274.745,290.209 276.078,289.709 277.5,289.5C 276.833,290.5 276.167,291.5 275.5,292.5C 260.439,295.583 245.105,296.25 229.5,294.5C 229.721,291.721 229.388,289.054 228.5,286.5 Z"/></g>
<g><path style="opacity:1" fill="#d5aa34" d="M 292.5,285.5 C 293.5,285.5 294.5,285.5 295.5,285.5C 293.396,287.099 291.396,288.932 289.5,291C 286.274,292.199 282.941,292.699 279.5,292.5C 279.5,293.5 279.5,294.5 279.5,295.5C 272.733,295.179 266.066,295.846 259.5,297.5C 249.182,296.766 238.848,296.266 228.5,296C 226.618,295.802 224.952,295.302 223.5,294.5C 225.5,294.5 227.5,294.5 229.5,294.5C 245.105,296.25 260.439,295.583 275.5,292.5C 280.479,291.001 285.479,289.501 290.5,288C 291.381,287.292 292.047,286.458 292.5,285.5 Z"/></g>
<g><path style="opacity:1" fill="#f9bd15" d="M 249.5,325.5 C 243.31,325.177 237.31,325.51 231.5,326.5C 231.171,340.344 231.504,354.01 232.5,367.5C 234.167,367.5 235.833,367.5 237.5,367.5C 237.833,367.5 238.167,367.5 238.5,367.5C 239.485,363.366 239.818,359.032 239.5,354.5C 241.621,354.325 243.621,354.659 245.5,355.5C 245.833,356.5 246.5,357.167 247.5,357.5C 247.592,361.684 249.259,365.017 252.5,367.5C 254.924,367.808 257.257,367.474 259.5,366.5C 259.058,365.261 258.391,364.261 257.5,363.5C 256.812,359.777 255.812,356.111 254.5,352.5C 254.703,350.792 255.536,349.459 257,348.5C 257.494,346.866 257.66,345.199 257.5,343.5C 260.98,337.069 259.646,331.736 253.5,327.5C 254.091,326.849 254.757,326.182 255.5,325.5C 258.768,324.513 262.102,324.18 265.5,324.5C 267.598,329.965 268.931,335.798 269.5,342C 270.371,343.769 271.704,344.436 273.5,344C 271.274,342.38 269.94,340.214 269.5,337.5C 270.847,333.942 271.847,330.275 272.5,326.5C 278.045,323.063 284.045,320.73 290.5,319.5C 292.167,319.667 293.833,319.833 295.5,320C 292.833,320.333 290.167,320.667 287.5,321C 290.167,322 290.167,323 287.5,324C 290.146,324.497 292.813,324.664 295.5,324.5C 295.5,325.5 295.5,326.5 295.5,327.5C 296.552,327.649 297.552,327.483 298.5,327C 299.364,324.929 300.697,323.262 302.5,322C 301.376,321.751 300.376,321.251 299.5,320.5C 303.445,319.509 307.445,319.176 311.5,319.5C 311.5,320.5 311.5,321.5 311.5,322.5C 320.042,322.79 328.542,322.457 337,321.5C 341.429,322.177 342.263,324.01 339.5,327C 340.576,328.726 340.743,330.559 340,332.5C 336.471,333.131 332.971,333.964 329.5,335C 331.136,345.598 332.136,356.431 332.5,367.5C 333.167,356.833 333.833,346.167 334.5,335.5C 335.499,348.817 335.833,362.15 335.5,375.5C 341.313,375.344 341.646,376.011 336.5,377.5C 333.579,376.593 330.579,376.26 327.5,376.5C 327.5,377.833 327.5,379.167 327.5,380.5C 330.385,380.194 333.052,380.527 335.5,381.5C 332.833,381.5 330.167,381.5 327.5,381.5C 327.649,382.552 327.483,383.552 327,384.5C 320.606,382.473 314.106,382.14 307.5,383.5C 307.577,387.215 307.244,390.881 306.5,394.5C 305.699,396.042 305.366,397.708 305.5,399.5C 303.265,399.795 301.265,399.461 299.5,398.5C 300.167,397.833 300.833,397.167 301.5,396.5C 302.167,396.5 302.5,396.167 302.5,395.5C 302.337,393.143 302.503,390.81 303,388.5C 303.333,389.5 303.667,390.5 304,391.5C 305.422,388.97 305.755,386.303 305,383.5C 304.667,384.167 304.333,384.833 304,385.5C 303.51,384.207 303.343,382.873 303.5,381.5C 296.8,381.17 290.134,381.503 283.5,382.5C 282.372,383.262 281.205,383.929 280,384.5C 278.989,383.663 277.822,383.33 276.5,383.5C 276.167,383.5 275.833,383.5 275.5,383.5C 274.833,383.5 274.167,383.5 273.5,383.5C 272.833,383.5 272.167,383.5 271.5,383.5C 268.191,383.692 265.691,382.359 264,379.5C 261.333,380.167 258.667,380.833 256,381.5C 255.275,380.941 254.442,380.608 253.5,380.5C 250.874,380.622 248.874,381.622 247.5,383.5C 245.5,383.5 243.5,383.5 241.5,383.5C 241.227,385.451 241.893,386.951 243.5,388C 242.643,388.689 241.977,389.522 241.5,390.5C 242.52,392.432 242.687,394.432 242,396.5C 241.085,395.672 240.419,394.672 240,393.5C 239.333,395.5 238.667,397.5 238,399.5C 226.298,399.77 214.465,399.437 202.5,398.5C 202.167,397.5 201.5,396.833 200.5,396.5C 195.175,399.363 189.508,400.196 183.5,399C 186.167,398.333 186.167,397.667 183.5,397C 184.784,396.316 185.951,396.483 187,397.5C 187.667,396.5 187.667,395.5 187,394.5C 185.951,395.517 184.784,395.684 183.5,395C 182.315,393.647 180.981,392.48 179.5,391.5C 178.614,392.325 178.281,393.325 178.5,394.5C 177.5,394.5 176.5,394.5 175.5,394.5C 175.587,391.402 175.087,391.068 174,393.5C 172.796,392.141 171.296,391.141 169.5,390.5C 169.381,388.074 169.047,385.74 168.5,383.5C 165.833,383.5 163.167,383.5 160.5,383.5C 160.167,383.5 159.833,383.5 159.5,383.5C 158.176,388.234 158.176,393.067 159.5,398C 162.167,398.667 164.833,398.667 167.5,398C 169.604,397.209 170.937,395.709 171.5,393.5C 172.919,394.005 173.585,395.005 173.5,396.5C 168.689,399.405 163.356,400.238 157.5,399C 156.773,397.601 156.273,396.101 156,394.5C 154.256,395.649 154.089,396.983 155.5,398.5C 151.217,399.492 146.884,399.826 142.5,399.5C 142.167,394.167 141.833,388.833 141.5,383.5C 142.5,383.5 143.5,383.5 144.5,383.5C 144.797,387.767 144.464,391.934 143.5,396C 146.429,396.777 149.263,396.61 152,395.5C 151.745,391.469 151.579,387.469 151.5,383.5C 155.584,384.055 156.251,383.055 153.5,380.5C 150.242,379.583 146.909,379.249 143.5,379.5C 143.5,378.167 143.5,376.833 143.5,375.5C 140.833,375.5 138.167,375.5 135.5,375.5C 135.768,356.865 135.768,338.198 135.5,319.5C 137.199,319.34 138.866,319.506 140.5,320C 142.019,322.927 144.353,323.927 147.5,323C 147.167,322.667 146.833,322.333 146.5,322C 150.833,321.333 155.167,321.333 159.5,322C 157.833,322.333 156.167,322.667 154.5,323C 158.5,323.333 162.5,323.667 166.5,324C 167.337,325.011 167.67,326.178 167.5,327.5C 169.39,327.297 170.89,327.963 172,329.5C 172.287,331.891 172.787,334.224 173.5,336.5C 171.429,338.93 171.096,341.597 172.5,344.5C 173.736,343.754 175.07,343.421 176.5,343.5C 176.336,346.187 176.503,348.854 177,351.5C 177.333,346.167 177.667,340.833 178,335.5C 178.333,341.833 178.667,348.167 179,354.5C 180.825,355.571 181.992,354.904 182.5,352.5C 180.557,342.357 179.891,332.023 180.5,321.5C 182.277,321.214 183.944,320.547 185.5,319.5C 187.048,321.376 189.048,322.376 191.5,322.5C 191.281,321.325 191.614,320.325 192.5,319.5C 194.741,319.498 197.074,319.832 199.5,320.5C 197.829,322.51 197.162,324.843 197.5,327.5C 196.5,327.5 195.5,327.5 194.5,327.5C 194.334,335.507 194.5,343.507 195,351.5C 195.915,352.328 196.581,353.328 197,354.5C 198.43,351.502 198.93,348.502 198.5,345.5C 199.466,347.396 199.799,349.396 199.5,351.5C 201.167,351.5 202.833,351.5 204.5,351.5C 204.5,352.833 204.5,354.167 204.5,355.5C 205.5,355.5 206.5,355.5 207.5,355.5C 208.806,344.504 208.806,333.504 207.5,322.5C 212.833,322.5 218.167,322.5 223.5,322.5C 223.281,321.325 223.614,320.325 224.5,319.5C 224.833,320 225.167,320.5 225.5,321C 223.943,325.198 224.276,329.198 226.5,333C 225.512,344.419 225.179,355.919 225.5,367.5C 226.5,367.5 227.5,367.5 228.5,367.5C 228.333,353.496 228.5,339.496 229,325.5C 229.374,324.584 229.874,323.75 230.5,323C 235.323,322.919 239.99,322.085 244.5,320.5C 245.442,320.608 246.275,320.941 247,321.5C 249.522,319.338 252.355,319.005 255.5,320.5C 253.892,321.318 252.225,321.985 250.5,322.5C 249.614,323.325 249.281,324.325 249.5,325.5 Z"/></g>
<g><path style="opacity:1" fill="#d19f32" d="M 216.5,351.5 C 216.833,351.5 217.167,351.5 217.5,351.5C 217.665,354.518 217.498,357.518 217,360.5C 214.931,362.085 212.764,363.419 210.5,364.5C 213.391,360.6 215.391,356.266 216.5,351.5 Z"/></g>
<g><path style="opacity:1" fill="#211207" d="M 191.5,326.5 C 191.5,326.833 191.5,327.167 191.5,327.5C 189.833,327.5 188.167,327.5 186.5,327.5C 185.797,338.408 186.964,349.075 190,359.5C 190.505,357.482 191.005,355.482 191.5,353.5C 192.892,355.273 194.059,357.273 195,359.5C 196.11,361.037 197.61,361.703 199.5,361.5C 199.5,363.167 199.5,364.833 199.5,366.5C 196.673,366.416 194.006,365.75 191.5,364.5C 190.92,362.251 189.587,360.585 187.5,359.5C 186.698,358.048 186.198,356.382 186,354.5C 185.5,345.173 185.334,335.839 185.5,326.5C 187.5,326.5 189.5,326.5 191.5,326.5 Z"/></g>
<g><path style="opacity:1" fill="#f6bd1e" d="M 152.5,348.5 C 156.75,347.919 160.416,348.919 163.5,351.5C 163.5,354.167 163.5,356.833 163.5,359.5C 159.127,359.982 154.794,360.648 150.5,361.5C 149.903,356.706 150.57,352.373 152.5,348.5 Z"/></g>
<g><path style="opacity:1" fill="#c69f33" d="M 191.5,326.5 C 189.5,326.5 187.5,326.5 185.5,326.5C 185.334,335.839 185.5,345.173 186,354.5C 186.198,356.382 186.698,358.048 187.5,359.5C 188.08,361.749 189.413,363.415 191.5,364.5C 194.006,365.75 196.673,366.416 199.5,366.5C 199.5,364.833 199.5,363.167 199.5,361.5C 197.61,361.703 196.11,361.037 195,359.5C 194.059,357.273 192.892,355.273 191.5,353.5C 191.5,344.833 191.5,336.167 191.5,327.5C 193.047,336.283 193.881,345.283 194,354.5C 195.717,355.988 196.884,357.821 197.5,360C 200.888,360.659 204.221,360.492 207.5,359.5C 206.599,361.727 204.933,362.727 202.5,362.5C 202.5,364.167 202.5,365.833 202.5,367.5C 194.717,368.475 188.717,365.808 184.5,359.5C 183.501,348.186 183.168,336.853 183.5,325.5C 186.385,325.194 189.052,325.527 191.5,326.5 Z"/></g>
<g><path style="opacity:1" fill="#cfa436" d="M 257.5,343.5 C 257.66,345.199 257.494,346.866 257,348.5C 255.536,349.459 254.703,350.792 254.5,352.5C 255.812,356.111 256.812,359.777 257.5,363.5C 254.307,360.298 251.974,356.465 250.5,352C 253.032,349.304 255.365,346.471 257.5,343.5 Z"/></g>
<g><path style="opacity:1" fill="#836b2a" d="M 240.5,347.5 C 241.833,347.5 243.167,347.5 244.5,347.5C 243.791,348.404 242.791,348.737 241.5,348.5C 241.5,349.833 241.5,351.167 241.5,352.5C 243.167,352.5 244.833,352.5 246.5,352.5C 246.629,354.216 246.962,355.883 247.5,357.5C 246.5,357.167 245.833,356.5 245.5,355.5C 244.448,353.744 242.781,353.077 240.5,353.5C 240.5,351.5 240.5,349.5 240.5,347.5 Z"/></g>
<g><path style="opacity:1" fill="#110304" d="M 143.5,326.5 C 145.5,326.5 147.5,326.5 149.5,326.5C 149.5,340.167 149.5,353.833 149.5,367.5C 147.5,367.5 145.5,367.5 143.5,367.5C 143.5,353.833 143.5,340.167 143.5,326.5 Z"/></g>
<g><path style="opacity:1" fill="#201106" d="M 167.5,331.5 C 167.557,332.609 167.89,333.609 168.5,334.5C 169.067,339.296 167.401,342.962 163.5,345.5C 166.076,347.218 168.41,349.218 170.5,351.5C 170.665,354.85 170.498,358.183 170,361.5C 169.623,362.942 168.79,363.942 167.5,364.5C 162.716,366.538 157.716,367.538 152.5,367.5C 152.5,365.833 152.5,364.167 152.5,362.5C 156.308,362.837 159.974,362.337 163.5,361C 164.818,357.731 164.818,354.565 163.5,351.5C 160.416,348.919 156.75,347.919 152.5,348.5C 152.5,346.833 152.5,345.167 152.5,343.5C 155.5,343.5 158.5,343.5 161.5,343.5C 164.414,334.198 161.081,330.198 151.5,331.5C 151.5,329.833 151.5,328.167 151.5,326.5C 154.187,326.336 156.854,326.503 159.5,327C 162.252,328.45 164.919,329.95 167.5,331.5 Z"/></g>
<g><path style="opacity:1" fill="#c9a335" d="M 282.5,332.5 C 282.301,335.941 282.801,339.274 284,342.5C 289.595,342.064 293.428,344.398 295.5,349.5C 292.701,347.698 289.701,346.365 286.5,345.5C 286.517,347.565 286.85,349.565 287.5,351.5C 285.571,351.769 283.905,351.269 282.5,350C 283.167,349.667 283.833,349.333 284.5,349C 283.263,348.768 282.263,348.268 281.5,347.5C 282.586,347.38 283.253,346.713 283.5,345.5C 281.941,343.111 280.607,340.611 279.5,338C 279.492,335.449 280.492,333.616 282.5,332.5 Z"/></g>
<g><path style="opacity:1" fill="#1a0a07" d="M 249.5,327.5 C 255.852,330.871 258.519,336.204 257.5,343.5C 255.365,346.471 253.032,349.304 250.5,352C 251.974,356.465 254.307,360.298 257.5,363.5C 258.391,364.261 259.058,365.261 259.5,366.5C 257.257,367.474 254.924,367.808 252.5,367.5C 251.873,363.58 250.207,360.247 247.5,357.5C 246.962,355.883 246.629,354.216 246.5,352.5C 244.833,352.5 243.167,352.5 241.5,352.5C 241.5,351.167 241.5,349.833 241.5,348.5C 242.791,348.737 243.791,348.404 244.5,347.5C 247.561,347.556 249.728,346.222 251,343.5C 251.667,340.833 251.667,338.167 251,335.5C 250.578,333.574 249.411,332.574 247.5,332.5C 245.393,331.532 243.059,331.198 240.5,331.5C 240.5,329.833 240.5,328.167 240.5,326.5C 243.518,326.704 246.518,327.037 249.5,327.5 Z"/></g>
<g><path style="opacity:1" fill="#170804" d="M 215.5,326.5 C 216.469,334.748 216.802,343.082 216.5,351.5C 215.391,356.266 213.391,360.6 210.5,364.5C 208.072,366.043 205.406,367.043 202.5,367.5C 202.5,365.833 202.5,364.167 202.5,362.5C 204.933,362.727 206.599,361.727 207.5,359.5C 210.246,348.755 211.246,337.755 210.5,326.5C 212.167,326.5 213.833,326.5 215.5,326.5 Z"/></g>
<g><path style="opacity:1" fill="#c2a03f" d="M 168.5,334.5 C 169.664,337.84 169.664,341.34 168.5,345C 169.033,347.226 169.7,349.393 170.5,351.5C 168.41,349.218 166.076,347.218 163.5,345.5C 167.401,342.962 169.067,339.296 168.5,334.5 Z"/></g>
<g><path style="opacity:1" fill="#c59e37" d="M 247.5,332.5 C 249.411,332.574 250.578,333.574 251,335.5C 251.667,338.167 251.667,340.833 251,343.5C 249.728,346.222 247.561,347.556 244.5,347.5C 243.167,347.5 241.833,347.5 240.5,347.5C 242.292,346.691 244.292,346.191 246.5,346C 249.953,341.768 250.286,337.268 247.5,332.5 Z"/></g>
<g><path style="opacity:1" fill="#190a07" d="M 283.5,326.5 C 283.5,328.5 283.5,330.5 283.5,332.5C 283.167,332.5 282.833,332.5 282.5,332.5C 280.492,333.616 279.492,335.449 279.5,338C 280.607,340.611 281.941,343.111 283.5,345.5C 283.253,346.713 282.586,347.38 281.5,347.5C 278.763,347.141 276.763,345.807 275.5,343.5C 275.318,341.325 274.651,339.325 273.5,337.5C 274.271,333.349 276.271,330.016 279.5,327.5C 280.708,326.766 282.041,326.433 283.5,326.5 Z"/></g>
<g><path style="opacity:1" fill="#d6b136" d="M 249.5,327.5 C 250.833,327.5 252.167,327.5 253.5,327.5C 259.646,331.736 260.98,337.069 257.5,343.5C 258.519,336.204 255.852,330.871 249.5,327.5 Z"/></g>
<g><path style="opacity:1" fill="#f8c018" d="M 247.5,332.5 C 250.286,337.268 249.953,341.768 246.5,346C 244.292,346.191 242.292,346.691 240.5,347.5C 239.352,343.019 239.185,338.352 240,333.5C 242.381,332.565 244.881,332.232 247.5,332.5 Z"/></g>
<g><path style="opacity:1" fill="#a17f31" d="M 337.5,326.5 C 338.451,327.919 338.784,329.585 338.5,331.5C 334.5,331.5 330.5,331.5 326.5,331.5C 326.828,343.678 326.495,355.678 325.5,367.5C 325.5,355.167 325.5,342.833 325.5,330.5C 329.5,330.5 333.5,330.5 337.5,330.5C 337.5,329.167 337.5,327.833 337.5,326.5 Z"/></g>
<g><path style="opacity:1" fill="#130306" d="M 337.5,326.5 C 337.5,327.833 337.5,329.167 337.5,330.5C 333.5,330.5 329.5,330.5 325.5,330.5C 325.5,342.833 325.5,355.167 325.5,367.5C 323.5,367.5 321.5,367.5 319.5,367.5C 319.5,355.167 319.5,342.833 319.5,330.5C 315.5,330.5 311.5,330.5 307.5,330.5C 307.5,329.167 307.5,327.833 307.5,326.5C 317.5,326.5 327.5,326.5 337.5,326.5 Z"/></g>
<g><path style="opacity:1" fill="#a87d2b" d="M 337.5,326.5 C 327.5,326.5 317.5,326.5 307.5,326.5C 307.5,327.833 307.5,329.167 307.5,330.5C 311.5,330.5 315.5,330.5 319.5,330.5C 319.5,342.833 319.5,355.167 319.5,367.5C 318.505,355.678 318.172,343.678 318.5,331.5C 314.5,331.5 310.5,331.5 306.5,331.5C 306.5,329.5 306.5,327.5 306.5,325.5C 317.014,325.172 327.347,325.506 337.5,326.5 Z"/></g>
<g><path style="opacity:1" fill="#3d2706" d="M 231.5,326.5 C 233.833,326.5 236.167,326.5 238.5,326.5C 238.5,340.167 238.5,353.833 238.5,367.5C 238.167,367.5 237.833,367.5 237.5,367.5C 237.5,354.167 237.5,340.833 237.5,327.5C 235.833,327.5 234.167,327.5 232.5,327.5C 232.5,340.833 232.5,354.167 232.5,367.5C 231.504,354.01 231.171,340.344 231.5,326.5 Z"/></g>
<g><path style="opacity:1" fill="#0a0203" d="M 237.5,367.5 C 235.833,367.5 234.167,367.5 232.5,367.5C 232.5,354.167 232.5,340.833 232.5,327.5C 234.167,327.5 235.833,327.5 237.5,327.5C 237.5,340.833 237.5,354.167 237.5,367.5 Z"/></g>
<g><path style="opacity:1" fill="#856428" d="M 215.5,326.5 C 217.468,334.433 218.135,342.766 217.5,351.5C 217.167,351.5 216.833,351.5 216.5,351.5C 216.802,343.082 216.469,334.748 215.5,326.5 Z"/></g>
<g><path style="opacity:1" fill="#dbb341" d="M 143.5,326.5 C 149.319,325.347 155.319,325.181 161.5,326C 164.005,327.38 166.005,329.214 167.5,331.5C 164.919,329.95 162.252,328.45 159.5,327C 156.854,326.503 154.187,326.336 151.5,326.5C 151.5,328.167 151.5,329.833 151.5,331.5C 161.081,330.198 164.414,334.198 161.5,343.5C 158.5,343.5 155.5,343.5 152.5,343.5C 150.854,338.073 149.854,332.406 149.5,326.5C 147.5,326.5 145.5,326.5 143.5,326.5 Z"/></g>
<g><path style="opacity:1" fill="#f9be12" d="M 151.5,333.5 C 154.5,333.5 157.5,333.5 160.5,333.5C 160.5,336.167 160.5,338.833 160.5,341.5C 157.5,341.5 154.5,341.5 151.5,341.5C 151.5,338.833 151.5,336.167 151.5,333.5 Z"/></g>
<g><path style="opacity:1" fill="#a17f36" d="M 149.5,326.5 C 149.854,332.406 150.854,338.073 152.5,343.5C 152.5,345.167 152.5,346.833 152.5,348.5C 150.57,352.373 149.903,356.706 150.5,361.5C 150.795,363.735 150.461,365.735 149.5,367.5C 149.5,353.833 149.5,340.167 149.5,326.5 Z"/></g>
<g><path style="opacity:1" fill="#af8930" d="M 291.5,326.5 C 289.833,326.5 288.167,326.5 286.5,326.5C 286.5,328.167 286.5,329.833 286.5,331.5C 288.833,331.5 291.167,331.5 293.5,331.5C 293.5,330.167 293.5,328.833 293.5,327.5C 294.167,327.5 294.833,327.5 295.5,327.5C 294.85,329.435 294.517,331.435 294.5,333.5C 290.865,332.886 287.198,332.552 283.5,332.5C 283.5,330.5 283.5,328.5 283.5,326.5C 286.167,325.167 288.833,325.167 291.5,326.5 Z"/></g>
<g><path style="opacity:1" fill="#0d0205" d="M 191.5,327.5 C 191.5,336.167 191.5,344.833 191.5,353.5C 191.005,355.482 190.505,357.482 190,359.5C 186.964,349.075 185.797,338.408 186.5,327.5C 188.167,327.5 189.833,327.5 191.5,327.5 Z"/></g>
<g><path style="opacity:1" fill="#9c7925" d="M 279.5,327.5 C 276.271,330.016 274.271,333.349 273.5,337.5C 274.651,339.325 275.318,341.325 275.5,343.5C 271.85,339.399 271.517,334.899 274.5,330C 276.078,328.906 277.745,328.072 279.5,327.5 Z"/></g>
<g><path style="opacity:1" fill="#1e0a02" d="M 291.5,326.5 C 291.842,327.338 292.508,327.672 293.5,327.5C 293.5,328.833 293.5,330.167 293.5,331.5C 291.167,331.5 288.833,331.5 286.5,331.5C 286.5,329.833 286.5,328.167 286.5,326.5C 288.167,326.5 289.833,326.5 291.5,326.5 Z"/></g>
<g><path style="opacity:1" fill="#d8b64f" d="M 231.5,326.5 C 237.31,325.51 243.31,325.177 249.5,325.5C 249.5,326.167 249.5,326.833 249.5,327.5C 246.518,327.037 243.518,326.704 240.5,326.5C 240.5,328.167 240.5,329.833 240.5,331.5C 243.059,331.198 245.393,331.532 247.5,332.5C 244.881,332.232 242.381,332.565 240,333.5C 239.185,338.352 239.352,343.019 240.5,347.5C 240.5,349.5 240.5,351.5 240.5,353.5C 242.781,353.077 244.448,353.744 245.5,355.5C 243.621,354.659 241.621,354.325 239.5,354.5C 239.818,359.032 239.485,363.366 238.5,367.5C 238.5,353.833 238.5,340.167 238.5,326.5C 236.167,326.5 233.833,326.5 231.5,326.5 Z"/></g>
<g><path style="opacity:1" fill="#958124" d="M 247.5,357.5 C 250.207,360.247 251.873,363.58 252.5,367.5C 249.259,365.017 247.592,361.684 247.5,357.5 Z"/></g>
<g><path style="opacity:1" fill="#714d16" d="M 187.5,359.5 C 189.587,360.585 190.92,362.251 191.5,364.5C 189.413,363.415 188.08,361.749 187.5,359.5 Z"/></g>
<g><path style="opacity:1" fill="#7d540a" d="M 279.5,361.5 C 277.833,361.5 276.167,361.5 274.5,361.5C 274.365,363.554 275.032,365.221 276.5,366.5C 275.5,366.5 274.5,366.5 273.5,366.5C 273.5,364.5 273.5,362.5 273.5,360.5C 275.735,360.205 277.735,360.539 279.5,361.5 Z"/></g>
<g><path style="opacity:1" fill="#967427" d="M 279.5,361.5 C 282.167,361.5 284.833,361.5 287.5,361.5C 286.766,362.708 286.433,364.041 286.5,365.5C 290.129,365.518 293.129,364.184 295.5,361.5C 295.489,363.017 294.823,364.184 293.5,365C 291.341,365.912 289.175,366.745 287,367.5C 285.883,366.051 285.216,364.384 285,362.5C 284.802,364.382 284.302,366.048 283.5,367.5C 283.5,365.833 283.5,364.167 283.5,362.5C 281.901,362.768 280.568,362.434 279.5,361.5 Z"/></g>
<g><path style="opacity:1" fill="#1a0d04" d="M 295.5,349.5 C 296.833,353.5 296.833,357.5 295.5,361.5C 293.129,364.184 290.129,365.518 286.5,365.5C 286.433,364.041 286.766,362.708 287.5,361.5C 290.387,359.282 291.221,356.282 290,352.5C 289.329,351.748 288.496,351.414 287.5,351.5C 286.85,349.565 286.517,347.565 286.5,345.5C 289.701,346.365 292.701,347.698 295.5,349.5 Z"/></g>
<g><path style="opacity:1" fill="#27110a" d="M 279.5,361.5 C 280.568,362.434 281.901,362.768 283.5,362.5C 283.5,364.167 283.5,365.833 283.5,367.5C 281.05,367.702 278.717,367.369 276.5,366.5C 275.032,365.221 274.365,363.554 274.5,361.5C 276.167,361.5 277.833,361.5 279.5,361.5 Z"/></g>
<g><path style="opacity:1" fill="#dbae42" d="M 163.5,351.5 C 164.818,354.565 164.818,357.731 163.5,361C 159.974,362.337 156.308,362.837 152.5,362.5C 152.5,364.167 152.5,365.833 152.5,367.5C 157.716,367.538 162.716,366.538 167.5,364.5C 167.5,365.5 167.5,366.5 167.5,367.5C 159.352,368.715 151.352,368.715 143.5,367.5C 145.5,367.5 147.5,367.5 149.5,367.5C 150.461,365.735 150.795,363.735 150.5,361.5C 154.794,360.648 159.127,359.982 163.5,359.5C 163.5,356.833 163.5,354.167 163.5,351.5 Z"/></g>
<g><path style="opacity:1" fill="#f0bb25" d="M 271.5,383.5 C 272.726,387.633 272.726,391.633 271.5,395.5C 270.859,394.518 270.193,393.518 269.5,392.5C 270.311,391.784 270.978,390.95 271.5,390C 270.344,387.845 268.844,386.011 267,384.5C 264.485,389.208 262.652,394.208 261.5,399.5C 258.833,399.5 256.167,399.5 253.5,399.5C 253.813,396.753 253.48,394.086 252.5,391.5C 250.997,390.948 249.331,390.948 247.5,391.5C 247.5,388.833 247.5,386.167 247.5,383.5C 248.874,381.622 250.874,380.622 253.5,380.5C 254.442,380.608 255.275,380.941 256,381.5C 258.667,380.833 261.333,380.167 264,379.5C 265.691,382.359 268.191,383.692 271.5,383.5 Z"/></g>
<g><path style="opacity:1" fill="#edb82d" d="M 335.5,381.5 C 335.343,382.873 335.51,384.207 336,385.5C 336.71,384.027 337.876,383.36 339.5,383.5C 339.5,384.167 339.833,384.5 340.5,384.5C 340.808,386.924 340.474,389.257 339.5,391.5C 336.8,389.766 334.8,387.432 333.5,384.5C 332.232,383.572 330.899,383.405 329.5,384C 330.806,387.802 330.806,391.635 329.5,395.5C 330.723,396.614 332.056,396.781 333.5,396C 332.223,393.534 332.223,391.034 333.5,388.5C 336.172,390.673 338.506,393.173 340.5,396C 341.437,396.692 342.103,396.525 342.5,395.5C 342.237,391.4 342.57,387.4 343.5,383.5C 344.5,383.5 345.5,383.5 346.5,383.5C 346.579,387.95 345.912,392.283 344.5,396.5C 342.566,396.901 341.066,397.901 340,399.5C 338.885,396.775 337.218,394.442 335,392.5C 335.676,394.963 335.509,397.13 334.5,399C 332.029,399.706 329.695,399.373 327.5,398C 328.622,394.591 328.789,391.091 328,387.5C 327.395,389.481 326.395,389.815 325,388.5C 324.994,391.264 323.828,393.264 321.5,394.5C 319.936,398.455 316.936,400.122 312.5,399.5C 310.833,399.333 309.167,399.167 307.5,399C 308.167,398.667 308.833,398.333 309.5,398C 308.186,397.015 307.186,395.848 306.5,394.5C 307.244,390.881 307.577,387.215 307.5,383.5C 314.106,382.14 320.606,382.473 327,384.5C 327.483,383.552 327.649,382.552 327.5,381.5C 330.167,381.5 332.833,381.5 335.5,381.5 Z"/></g>
<g><path style="opacity:1" fill="#79460f" d="M 321.5,394.5 C 320.833,394.5 320.167,394.5 319.5,394.5C 316.803,396.925 313.803,396.925 310.5,394.5C 309.167,391.5 309.167,388.5 310.5,385.5C 314.55,382.798 318.383,383.132 322,386.5C 322.602,389.221 322.435,391.887 321.5,394.5 Z"/></g>
<g><path style="opacity:1" fill="#6c4011" d="M 251.5,383.5 C 252.833,383.5 254.167,383.5 255.5,383.5C 257.549,393.902 259.216,393.902 260.5,383.5C 261.873,383.343 263.207,383.51 264.5,384C 262.809,388.261 260.476,392.095 257.5,395.5C 255.876,391.239 253.876,387.239 251.5,383.5 Z"/></g>
<g><path style="opacity:1" fill="#855d1d" d="M 208.5,384.5 C 207.699,386.042 207.366,387.708 207.5,389.5C 209.5,390.167 211.5,390.833 213.5,391.5C 211.5,391.5 209.5,391.5 207.5,391.5C 208.096,393.398 208.096,395.065 207.5,396.5C 205.825,392.116 206.158,388.116 208.5,384.5 Z"/></g>
<g><path style="opacity:1" fill="#c79625" d="M 187.5,383.5 C 188.568,384.434 189.901,384.768 191.5,384.5C 191.763,388.6 191.43,392.6 190.5,396.5C 190.062,394.362 189.895,392.028 190,389.5C 189.676,387.431 188.842,387.098 187.5,388.5C 185.104,386.494 185.104,384.828 187.5,383.5 Z"/></g>
<g><path style="opacity:1" fill="#bb9045" d="M 205.5,383.5 C 204.903,388.294 205.57,392.627 207.5,396.5C 206.151,397.797 204.818,397.63 203.5,396C 204.14,391.732 204.807,387.565 205.5,383.5 Z"/></g>
<g><path style="opacity:1" fill="#c8973c" d="M 275.5,383.5 C 275.833,383.5 276.167,383.5 276.5,383.5C 276.5,388.167 276.5,392.833 276.5,397.5C 275.209,397.737 274.209,397.404 273.5,396.5C 274.376,396.631 275.043,396.298 275.5,395.5C 274.173,391.47 274.173,387.47 275.5,383.5 Z"/></g>
<g><path style="opacity:1" fill="#ac7f3a" d="M 196.5,383.5 C 197.776,384.386 197.776,385.386 196.5,386.5C 195.833,386.167 195.167,385.833 194.5,385.5C 193.243,388.844 193.243,392.177 194.5,395.5C 193.426,397.534 192.093,397.867 190.5,396.5C 192.423,392.971 193.089,388.971 192.5,384.5C 194.099,384.768 195.432,384.434 196.5,383.5 Z"/></g>
<g><path style="opacity:1" fill="#3e1500" d="M 205.5,383.5 C 206.791,383.263 207.791,383.596 208.5,384.5C 206.158,388.116 205.825,392.116 207.5,396.5C 205.57,392.627 204.903,388.294 205.5,383.5 Z"/></g>
<g><path style="opacity:1" fill="#623015" d="M 213.5,391.5 C 211.5,390.833 209.5,390.167 207.5,389.5C 209.5,389.5 211.5,389.5 213.5,389.5C 213.643,387.738 213.309,386.071 212.5,384.5C 213.723,383.386 215.056,383.219 216.5,384C 215.167,388 215.167,392 216.5,396C 215.056,396.781 213.723,396.614 212.5,395.5C 213.246,394.264 213.579,392.93 213.5,391.5 Z"/></g>
<g><path style="opacity:1" fill="#eeb825" d="M 302.5,395.5 C 301.883,395.389 301.383,395.056 301,394.5C 300.667,390.833 300.333,387.167 300,383.5C 299.768,387.555 299.268,391.555 298.5,395.5C 299.325,396.386 300.325,396.719 301.5,396.5C 300.833,397.167 300.167,397.833 299.5,398.5C 297.508,398.672 295.842,398.005 294.5,396.5C 289.52,400.04 284.353,400.373 279,397.5C 277.538,397.994 276.038,398.327 274.5,398.5C 272.97,398.36 271.97,397.693 271.5,396.5C 272.167,396.5 272.833,396.5 273.5,396.5C 274.209,397.404 275.209,397.737 276.5,397.5C 276.5,392.833 276.5,388.167 276.5,383.5C 277.822,383.33 278.989,383.663 280,384.5C 281.205,383.929 282.372,383.262 283.5,382.5C 290.134,381.503 296.8,381.17 303.5,381.5C 303.343,382.873 303.51,384.207 304,385.5C 304.333,384.833 304.667,384.167 305,383.5C 305.755,386.303 305.422,388.97 304,391.5C 303.667,390.5 303.333,389.5 303,388.5C 302.503,390.81 302.337,393.143 302.5,395.5 Z"/></g>
<g><path style="opacity:1" fill="#734608" d="M 284.5,383.5 C 286.467,383.261 288.301,383.594 290,384.5C 290.688,385.332 290.521,385.998 289.5,386.5C 288.109,385.355 286.776,385.355 285.5,386.5C 287.761,388.455 289.761,390.622 291.5,393C 291.265,393.873 290.931,394.707 290.5,395.5C 287.966,396.777 285.466,396.777 283,395.5C 282.251,394.365 282.417,393.365 283.5,392.5C 285.179,394.104 287.179,394.771 289.5,394.5C 289.471,391.344 287.804,389.678 284.5,389.5C 283.306,387.484 283.306,385.484 284.5,383.5 Z"/></g>
<g><path style="opacity:1" fill="#491601" d="M 273.5,383.5 C 274.167,383.5 274.833,383.5 275.5,383.5C 274.173,387.47 274.173,391.47 275.5,395.5C 275.043,396.298 274.376,396.631 273.5,396.5C 273.5,392.167 273.5,387.833 273.5,383.5 Z"/></g>
<g><path style="opacity:1" fill="#471406" d="M 339.5,383.5 C 340.833,383.5 342.167,383.5 343.5,383.5C 342.57,387.4 342.237,391.4 342.5,395.5C 341.711,395.217 341.044,394.717 340.5,394C 341.818,390.731 341.818,387.565 340.5,384.5C 339.833,384.5 339.5,384.167 339.5,383.5 Z"/></g>
<g><path style="opacity:1" fill="#3f1202" d="M 187.5,383.5 C 190.5,383.5 193.5,383.5 196.5,383.5C 195.432,384.434 194.099,384.768 192.5,384.5C 193.089,388.971 192.423,392.971 190.5,396.5C 191.43,392.6 191.763,388.6 191.5,384.5C 189.901,384.768 188.568,384.434 187.5,383.5 Z"/></g>
<g><path style="opacity:1" fill="#4a1804" d="M 225.5,383.5 C 227.833,383.5 230.167,383.5 232.5,383.5C 232.631,384.239 232.464,384.906 232,385.5C 230.301,384.594 228.467,384.261 226.5,384.5C 226.5,386.167 226.5,387.833 226.5,389.5C 233.167,389.833 233.167,390.167 226.5,390.5C 226.5,392.167 226.5,393.833 226.5,395.5C 228.903,395.552 231.236,395.219 233.5,394.5C 233.5,395.167 233.5,395.833 233.5,396.5C 230.833,396.5 228.167,396.5 225.5,396.5C 225.5,392.167 225.5,387.833 225.5,383.5 Z"/></g>
<g><path style="opacity:1" fill="#693f0a" d="M 144.5,383.5 C 146.833,383.5 149.167,383.5 151.5,383.5C 151.579,387.469 151.745,391.469 152,395.5C 149.263,396.61 146.429,396.777 143.5,396C 144.464,391.934 144.797,387.767 144.5,383.5 Z"/></g>
<g><path style="opacity:1" fill="#c7a34a" d="M 146.5,385.5 C 147.833,385.5 149.167,385.5 150.5,385.5C 150.5,386.833 150.5,388.167 150.5,389.5C 149.167,389.5 147.833,389.5 146.5,389.5C 146.5,388.167 146.5,386.833 146.5,385.5 Z"/></g>
<g><path style="opacity:1" fill="#ecbd38" d="M 319.5,394.5 C 312.379,395.551 310.046,392.717 312.5,386C 319.775,384.775 322.109,387.608 319.5,394.5 Z"/></g>
<g><path style="opacity:1" fill="#daba63" d="M 146.5,391.5 C 147.833,391.5 149.167,391.5 150.5,391.5C 150.5,392.5 150.5,393.5 150.5,394.5C 149.167,394.5 147.833,394.5 146.5,394.5C 146.5,393.5 146.5,392.5 146.5,391.5 Z"/></g>
<g><path style="opacity:1" fill="#e2b230" d="M 159.5,383.5 C 160.74,387.699 160.74,391.866 159.5,396C 162.554,396.821 165.554,396.655 168.5,395.5C 166.78,395.254 164.78,395.254 162.5,395.5C 162.5,393.833 162.5,392.167 162.5,390.5C 169.167,390.167 169.167,389.833 162.5,389.5C 162.5,388.167 162.5,386.833 162.5,385.5C 164.167,385.5 165.833,385.5 167.5,385.5C 168.338,385.158 168.672,384.492 168.5,383.5C 169.047,385.74 169.381,388.074 169.5,390.5C 171.296,391.141 172.796,392.141 174,393.5C 175.087,391.068 175.587,391.402 175.5,394.5C 175.5,395.833 174.833,396.5 173.5,396.5C 173.585,395.005 172.919,394.005 171.5,393.5C 170.937,395.709 169.604,397.209 167.5,398C 164.833,398.667 162.167,398.667 159.5,398C 158.176,393.067 158.176,388.234 159.5,383.5 Z"/></g>
<g><path style="opacity:1" fill="#63350c" d="M 159.5,383.5 C 159.833,383.5 160.167,383.5 160.5,383.5C 162.833,384.167 165.167,384.833 167.5,385.5C 165.833,385.5 164.167,385.5 162.5,385.5C 162.5,386.833 162.5,388.167 162.5,389.5C 169.167,389.833 169.167,390.167 162.5,390.5C 162.5,392.167 162.5,393.833 162.5,395.5C 164.78,395.254 166.78,395.254 168.5,395.5C 165.554,396.655 162.554,396.821 159.5,396C 160.74,391.866 160.74,387.699 159.5,383.5 Z"/></g>
<g><path style="opacity:1" fill="#3b0c06" d="M 160.5,383.5 C 163.167,383.5 165.833,383.5 168.5,383.5C 168.672,384.492 168.338,385.158 167.5,385.5C 165.167,384.833 162.833,384.167 160.5,383.5 Z"/></g>
<g><path style="opacity:1" fill="#b78b2f" d="M 271.5,383.5 C 272.167,383.5 272.833,383.5 273.5,383.5C 273.5,387.833 273.5,392.167 273.5,396.5C 272.833,396.5 272.167,396.5 271.5,396.5C 271.5,396.167 271.5,395.833 271.5,395.5C 272.726,391.633 272.726,387.633 271.5,383.5 Z"/></g>
<g><path style="opacity:1" fill="#7e5010" d="M 340.5,384.5 C 341.818,387.565 341.818,390.731 340.5,394C 341.044,394.717 341.711,395.217 342.5,395.5C 342.103,396.525 341.437,396.692 340.5,396C 338.506,393.173 336.172,390.673 333.5,388.5C 332.223,391.034 332.223,393.534 333.5,396C 332.056,396.781 330.723,396.614 329.5,395.5C 330.806,391.635 330.806,387.802 329.5,384C 330.899,383.405 332.232,383.572 333.5,384.5C 334.8,387.432 336.8,389.766 339.5,391.5C 340.474,389.257 340.808,386.924 340.5,384.5 Z"/></g>
<g><path style="opacity:1" fill="#b68d30" d="M 232.5,383.5 C 233.404,384.209 233.737,385.209 233.5,386.5C 232.022,386.238 230.689,386.571 229.5,387.5C 230.325,388.386 231.325,388.719 232.5,388.5C 232.5,389.5 232.5,390.5 232.5,391.5C 230.833,391.5 229.167,391.5 227.5,391.5C 227.5,392.5 227.5,393.5 227.5,394.5C 229.2,394.374 230.7,393.707 232,392.5C 233.03,392.836 233.53,393.503 233.5,394.5C 231.236,395.219 228.903,395.552 226.5,395.5C 226.5,393.833 226.5,392.167 226.5,390.5C 233.167,390.167 233.167,389.833 226.5,389.5C 226.5,387.833 226.5,386.167 226.5,384.5C 228.467,384.261 230.301,384.594 232,385.5C 232.464,384.906 232.631,384.239 232.5,383.5 Z"/></g>
<g><path style="opacity:1" fill="#511d08" d="M 302.5,395.5 C 302.5,396.167 302.167,396.5 301.5,396.5C 300.325,396.719 299.325,396.386 298.5,395.5C 299.268,391.555 299.768,387.555 300,383.5C 300.333,387.167 300.667,390.833 301,394.5C 301.383,395.056 301.883,395.389 302.5,395.5 Z"/></g>
<g><path style="opacity:1" fill="#c18d46" d="M 225.5,383.5 C 225.5,387.833 225.5,392.167 225.5,396.5C 228.167,396.5 230.833,396.5 233.5,396.5C 230.313,397.806 226.98,397.806 223.5,396.5C 224.114,392.033 224.78,387.7 225.5,383.5 Z"/></g>
</svg>
