<?xml version="1.0" encoding="UTF-8"?>
<!DOCTYPE svg PUBLIC "-//W3C//DTD SVG 1.1//EN" "http://www.w3.org/Graphics/SVG/1.1/DTD/svg11.dtd">
<svg xmlns="http://www.w3.org/2000/svg" version="1.1" width="233px" height="241px" style="shape-rendering:geometricPrecision; text-rendering:geometricPrecision; image-rendering:optimizeQuality; fill-rule:evenodd; clip-rule:evenodd" xmlns:xlink="http://www.w3.org/1999/xlink">
<g><path style="opacity:1" fill="#fbfbfb" d="M -0.5,-0.5 C 35.8333,-0.5 72.1667,-0.5 108.5,-0.5C 58.8849,6.46713 24.8849,33.1338 6.5,79.5C 5.07619,81.5145 4.40953,83.8478 4.5,86.5C 2.58878,93.5426 0.922116,100.543 -0.5,107.5C -0.5,71.5 -0.5,35.5 -0.5,-0.5 Z"/></g>
<g><path style="opacity:1" fill="#0b0b0b" d="M 108.5,-0.5 C 116.5,-0.5 124.5,-0.5 132.5,-0.5C 168.072,6.27591 197.239,23.6092 220,51.5C 225.755,59.3408 229.588,68.0075 231.5,77.5C 227.154,77.6657 222.821,77.499 218.5,77C 197.396,36.1021 163.729,14.9355 117.5,13.5C 85.9026,14.6373 59.9026,26.9706 39.5,50.5C 37.4131,51.5846 36.0798,53.2512 35.5,55.5C 18.5991,76.3871 11.4324,100.387 14,127.5C 14.3311,142.529 18.4977,156.196 26.5,168.5C 28.0052,177.332 30.6719,177.665 34.5,169.5C 47.2055,141.753 60.2055,114.086 73.5,86.5C 75.2451,84.9674 76.2451,82.9674 76.5,80.5C 80.523,70.1203 85.3564,60.1203 91,50.5C 100.386,71.0572 110.052,91.3905 120,111.5C 129.307,91.0889 139.14,71.0889 149.5,51.5C 151,53.8333 152.5,56.1667 154,58.5C 171.574,97.5088 189.741,136.175 208.5,174.5C 209.167,175.833 209.833,175.833 210.5,174.5C 212.507,170.188 215.174,166.522 218.5,163.5C 222.768,162.627 227.102,162.294 231.5,162.5C 231.833,162.5 232.167,162.5 232.5,162.5C 232.5,162.833 232.5,163.167 232.5,163.5C 220.126,192.544 199.792,214.211 171.5,228.5C 169.033,228.755 167.033,229.755 165.5,231.5C 154.314,235.462 142.981,238.462 131.5,240.5C 123.833,240.5 116.167,240.5 108.5,240.5C 104.02,239.479 99.353,238.813 94.5,238.5C 94.8143,235.053 95.6476,231.72 97,228.5C 97.7724,227.151 98.9391,226.318 100.5,226C 115.596,227.128 130.596,226.295 145.5,223.5C 148.199,223.534 150.699,222.867 153,221.5C 153.941,219.011 153.441,217.011 151.5,215.5C 147.677,205.851 143.844,196.184 140,186.5C 137.239,179.9 133.906,173.567 130,167.5C 128.491,160.243 129.825,153.577 134,147.5C 135,146.167 136,146.167 137,147.5C 143.337,162.203 149.67,176.869 156,191.5C 160.197,199.112 164.197,206.779 168,214.5C 179.448,208.718 189.448,201.051 198,191.5C 198.167,190.5 198.333,189.5 198.5,188.5C 191.353,171.542 183.686,154.876 175.5,138.5C 175.245,136.033 174.245,134.033 172.5,132.5C 169.37,125.123 166.036,117.79 162.5,110.5C 162.245,108.033 161.245,106.033 159.5,104.5C 156.728,96.9524 153.394,89.6191 149.5,82.5C 148.914,82.7093 148.414,83.0426 148,83.5C 125.466,131.904 103.466,180.57 82,229.5C 81.6532,231.18 80.6532,232.18 79,232.5C 70.9185,230.374 63.4185,227.041 56.5,222.5C 53.5,220.333 50.5,218.167 47.5,216C 46.1317,210.886 47.2984,206.386 51,202.5C 58.6212,205.812 65.6212,210.145 72,215.5C 72.3333,215.167 72.6667,214.833 73,214.5C 85.3797,187.747 97.713,161.081 110,134.5C 112,130.167 112,125.833 110,121.5C 103.363,108.561 97.0294,95.5606 91,82.5C 90.0853,83.3279 89.4186,84.3279 89,85.5C 74.515,118.345 59.515,151.011 44,183.5C 40.9917,190.19 37.4917,196.523 33.5,202.5C 13.7504,181.333 2.41704,156.333 -0.5,127.5C -0.5,120.833 -0.5,114.167 -0.5,107.5C 0.922116,100.543 2.58878,93.5426 4.5,86.5C 5.92381,84.4855 6.59047,82.1522 6.5,79.5C 24.8849,33.1338 58.8849,6.46713 108.5,-0.5 Z"/></g>
<g><path style="opacity:1" fill="#fbfbfb" d="M 132.5,-0.5 C 165.833,-0.5 199.167,-0.5 232.5,-0.5C 232.5,53.8333 232.5,108.167 232.5,162.5C 232.167,162.5 231.833,162.5 231.5,162.5C 227.689,161.355 223.689,161.188 219.5,162C 218.944,162.383 218.611,162.883 218.5,163.5C 215.174,166.522 212.507,170.188 210.5,174.5C 209.833,175.833 209.167,175.833 208.5,174.5C 189.741,136.175 171.574,97.5088 154,58.5C 152.5,56.1667 151,53.8333 149.5,51.5C 139.14,71.0889 129.307,91.0889 120,111.5C 110.052,91.3905 100.386,71.0572 91,50.5C 85.3564,60.1203 80.523,70.1203 76.5,80.5C 74.7549,82.0326 73.7549,84.0326 73.5,86.5C 60.2055,114.086 47.2055,141.753 34.5,169.5C 33.2652,169.721 32.2652,170.388 31.5,171.5C 30.2742,169.722 28.6075,168.722 26.5,168.5C 18.4977,156.196 14.3311,142.529 14,127.5C 11.4324,100.387 18.5991,76.3871 35.5,55.5C 37.5869,54.4154 38.9202,52.7488 39.5,50.5C 59.9026,26.9706 85.9026,14.6373 117.5,13.5C 163.729,14.9355 197.396,36.1021 218.5,77C 222.821,77.499 227.154,77.6657 231.5,77.5C 229.588,68.0075 225.755,59.3408 220,51.5C 197.239,23.6092 168.072,6.27591 132.5,-0.5 Z"/></g>
<g><path style="opacity:1" fill="#8f8f8f" d="M 39.5,50.5 C 38.9202,52.7488 37.5869,54.4154 35.5,55.5C 36.0798,53.2512 37.4131,51.5846 39.5,50.5 Z"/></g>
<g><path style="opacity:1" fill="#5f5f5f" d="M 6.5,79.5 C 6.59047,82.1522 5.92381,84.4855 4.5,86.5C 4.40953,83.8478 5.07619,81.5145 6.5,79.5 Z"/></g>
<g><path style="opacity:1" fill="#6b6b6b" d="M 76.5,80.5 C 76.2451,82.9674 75.2451,84.9674 73.5,86.5C 73.7549,84.0326 74.7549,82.0326 76.5,80.5 Z"/></g>
<g><path style="opacity:1" fill="#f9f9f9" d="M 159.5,104.5 C 159.755,106.967 160.755,108.967 162.5,110.5C 166.036,117.79 169.37,125.123 172.5,132.5C 172.755,134.967 173.755,136.967 175.5,138.5C 183.686,154.876 191.353,171.542 198.5,188.5C 198.333,189.5 198.167,190.5 198,191.5C 189.448,201.051 179.448,208.718 168,214.5C 164.197,206.779 160.197,199.112 156,191.5C 149.67,176.869 143.337,162.203 137,147.5C 136,146.167 135,146.167 134,147.5C 129.825,153.577 128.491,160.243 130,167.5C 133.906,173.567 137.239,179.9 140,186.5C 143.844,196.184 147.677,205.851 151.5,215.5C 152.218,217.137 152.384,218.803 152,220.5C 149.706,221.422 147.539,222.422 145.5,223.5C 130.596,226.295 115.596,227.128 100.5,226C 98.9391,226.318 97.7724,227.151 97,228.5C 95.6476,231.72 94.8143,235.053 94.5,238.5C 99.353,238.813 104.02,239.479 108.5,240.5C 72.1667,240.5 35.8333,240.5 -0.5,240.5C -0.5,202.833 -0.5,165.167 -0.5,127.5C 2.41704,156.333 13.7504,181.333 33.5,202.5C 37.4917,196.523 40.9917,190.19 44,183.5C 59.515,151.011 74.515,118.345 89,85.5C 89.4186,84.3279 90.0853,83.3279 91,82.5C 97.0294,95.5606 103.363,108.561 110,121.5C 112,125.833 112,130.167 110,134.5C 97.713,161.081 85.3797,187.747 73,214.5C 72.6667,214.833 72.3333,215.167 72,215.5C 65.6212,210.145 58.6212,205.812 51,202.5C 47.2984,206.386 46.1317,210.886 47.5,216C 50.5,218.167 53.5,220.333 56.5,222.5C 63.4185,227.041 70.9185,230.374 79,232.5C 80.6532,232.18 81.6532,231.18 82,229.5C 103.466,180.57 125.466,131.904 148,83.5C 148.414,83.0426 148.914,82.7093 149.5,82.5C 153.394,89.6191 156.728,96.9524 159.5,104.5 Z"/></g>
<g><path style="opacity:1" fill="#909090" d="M 159.5,104.5 C 161.245,106.033 162.245,108.033 162.5,110.5C 160.755,108.967 159.755,106.967 159.5,104.5 Z"/></g>
<g><path style="opacity:1" fill="#8b8b8b" d="M 172.5,132.5 C 174.245,134.033 175.245,136.033 175.5,138.5C 173.755,136.967 172.755,134.967 172.5,132.5 Z"/></g>
<g><path style="opacity:1" fill="#7b7b7b" d="M 231.5,162.5 C 227.102,162.294 222.768,162.627 218.5,163.5C 218.611,162.883 218.944,162.383 219.5,162C 223.689,161.188 227.689,161.355 231.5,162.5 Z"/></g>
<g><path style="opacity:1" fill="#fafafa" d="M 232.5,163.5 C 232.5,189.167 232.5,214.833 232.5,240.5C 198.833,240.5 165.167,240.5 131.5,240.5C 142.981,238.462 154.314,235.462 165.5,231.5C 167.967,231.245 169.967,230.245 171.5,228.5C 199.792,214.211 220.126,192.544 232.5,163.5 Z"/></g>
<g><path style="opacity:1" fill="#cbcbcb" d="M 26.5,168.5 C 28.6075,168.722 30.2742,169.722 31.5,171.5C 32.2652,170.388 33.2652,169.721 34.5,169.5C 30.6719,177.665 28.0052,177.332 26.5,168.5 Z"/></g>
<g><path style="opacity:1" fill="#424242" d="M 151.5,215.5 C 153.441,217.011 153.941,219.011 153,221.5C 150.699,222.867 148.199,223.534 145.5,223.5C 147.539,222.422 149.706,221.422 152,220.5C 152.384,218.803 152.218,217.137 151.5,215.5 Z"/></g>
<g><path style="opacity:1" fill="#808080" d="M 171.5,228.5 C 169.967,230.245 167.967,231.245 165.5,231.5C 167.033,229.755 169.033,228.755 171.5,228.5 Z"/></g>
</svg>
