<?xml version="1.0" encoding="UTF-8"?>
<!DOCTYPE svg PUBLIC "-//W3C//DTD SVG 1.1//EN" "http://www.w3.org/Graphics/SVG/1.1/DTD/svg11.dtd">
<svg xmlns="http://www.w3.org/2000/svg" version="1.1" width="559px" height="447px" style="shape-rendering:geometricPrecision; text-rendering:geometricPrecision; image-rendering:optimizeQuality; fill-rule:evenodd; clip-rule:evenodd" xmlns:xlink="http://www.w3.org/1999/xlink">
<g><path style="opacity:0.131" fill="#a534dd" d="M 165.5,129.5 C 167.948,128.527 170.615,128.194 173.5,128.5C 247.167,128.333 320.834,128.5 394.5,129C 398.908,129.916 401.908,132.416 403.5,136.5C 402.167,135.5 400.833,134.5 399.5,133.5C 397.727,132.108 395.727,130.941 393.5,130C 317.501,129.5 241.501,129.333 165.5,129.5 Z"/></g>
<g><path style="opacity:1" fill="#bd91f4" d="M 165.5,130.5 C 216.669,130.168 267.669,130.501 318.5,131.5C 266.664,131.168 214.997,131.501 163.5,132.5C 162.833,132.5 162.167,132.5 161.5,132.5C 161.5,132.167 161.5,131.833 161.5,131.5C 162.708,130.766 164.041,130.433 165.5,130.5 Z"/></g>
<g><path style="opacity:1" fill="#cf81f1" d="M 165.5,130.5 C 165.5,130.167 165.5,129.833 165.5,129.5C 241.501,129.333 317.501,129.5 393.5,130C 395.727,130.941 397.727,132.108 399.5,133.5C 398.167,133.5 396.833,133.5 395.5,133.5C 395.082,132.778 394.416,132.278 393.5,132C 368.502,131.5 343.502,131.333 318.5,131.5C 267.669,130.501 216.669,130.168 165.5,130.5 Z"/></g>
<g><path style="opacity:1" fill="#efcafb" d="M 163.5,132.5 C 214.997,131.501 266.664,131.168 318.5,131.5C 343.502,131.333 368.502,131.5 393.5,132C 394.416,132.278 395.082,132.778 395.5,133.5C 397.229,134.236 398.229,135.57 398.5,137.5C 396.302,137.12 394.635,137.787 393.5,139.5C 388.127,143.844 382.794,148.177 377.5,152.5C 374.146,154.863 370.812,157.196 367.5,159.5C 366.448,159.649 365.448,159.483 364.5,159C 369.421,155.387 374.088,151.554 378.5,147.5C 379.922,147.291 381.255,146.791 382.5,146C 386.238,142.816 389.905,139.649 393.5,136.5C 394.239,136.631 394.906,136.464 395.5,136C 394.167,135.333 392.833,134.667 391.5,134C 359.502,133.5 327.502,133.333 295.5,133.5C 251.67,132.501 207.67,132.168 163.5,132.5 Z"/></g>
<g><path style="opacity:1" fill="#ebcdfd" d="M 167.5,134.5 C 209.997,133.501 252.663,133.168 295.5,133.5C 327.502,133.333 359.502,133.5 391.5,134C 392.833,134.667 394.167,135.333 395.5,136C 394.906,136.464 394.239,136.631 393.5,136.5C 392.234,135.91 390.901,135.41 389.5,135C 371.503,134.5 353.503,134.333 335.5,134.5C 279.5,134.5 223.5,134.5 167.5,134.5 Z"/></g>
<g><path style="opacity:1" fill="#d7b6fb" d="M 167.5,134.5 C 223.5,134.5 279.5,134.5 335.5,134.5C 335.5,134.833 335.5,135.167 335.5,135.5C 330.167,135.5 324.833,135.5 319.5,135.5C 268.496,135.167 217.496,135.5 166.5,136.5C 169.62,139.958 173.286,142.625 177.5,144.5C 178.167,145.5 178.833,146.5 179.5,147.5C 174.882,145.185 170.549,142.352 166.5,139C 164.963,137.89 164.297,136.39 164.5,134.5C 165.5,134.5 166.5,134.5 167.5,134.5 Z"/></g>
<g><path style="opacity:1" fill="#e6b4f5" d="M 335.5,135.5 C 335.5,135.167 335.5,134.833 335.5,134.5C 353.503,134.333 371.503,134.5 389.5,135C 390.901,135.41 392.234,135.91 393.5,136.5C 389.905,139.649 386.238,142.816 382.5,146C 381.255,146.791 379.922,147.291 378.5,147.5C 379.973,145.605 381.64,143.939 383.5,142.5C 385.392,141.298 387.226,139.965 389,138.5C 389.617,137.551 389.451,136.718 388.5,136C 370.836,135.5 353.17,135.333 335.5,135.5 Z"/></g>
<g><path style="opacity:1" fill="#e67eea" d="M 399.5,133.5 C 400.833,134.5 402.167,135.5 403.5,136.5C 403.5,136.833 403.5,137.167 403.5,137.5C 403.5,139.5 403.5,141.5 403.5,143.5C 403.5,198.5 403.5,253.5 403.5,308.5C 403.167,308.5 402.833,308.5 402.5,308.5C 402.5,285.833 402.5,263.167 402.5,240.5C 402.667,206.165 402.5,171.832 402,137.5C 400.519,136.529 399.685,135.196 399.5,133.5 Z"/></g>
<g><path style="opacity:1" fill="#be92f9" d="M 319.5,135.5 C 319.5,135.833 319.5,136.167 319.5,136.5C 270.166,136.333 220.832,136.5 171.5,137C 170.434,138.159 170.767,138.992 172.5,139.5C 172.833,139.5 173.167,139.5 173.5,139.5C 174.833,141.167 176.167,142.833 177.5,144.5C 173.286,142.625 169.62,139.958 166.5,136.5C 217.496,135.5 268.496,135.167 319.5,135.5 Z"/></g>
<g><path style="opacity:0.993" fill="#da8ff4" d="M 319.5,136.5 C 319.5,136.167 319.5,135.833 319.5,135.5C 324.833,135.5 330.167,135.5 335.5,135.5C 353.17,135.333 370.836,135.5 388.5,136C 389.451,136.718 389.617,137.551 389,138.5C 387.226,139.965 385.392,141.298 383.5,142.5C 383.557,141.391 383.89,140.391 384.5,139.5C 384.833,139.5 385.167,139.5 385.5,139.5C 386.478,139.189 387.145,138.522 387.5,137.5C 364.843,136.5 342.176,136.167 319.5,136.5 Z"/></g>
<g><path style="opacity:0.783" fill="#a263f1" d="M 319.5,136.5 C 319.5,136.833 319.5,137.167 319.5,137.5C 270.155,136.838 221.155,137.505 172.5,139.5C 170.767,138.992 170.434,138.159 171.5,137C 220.832,136.5 270.166,136.333 319.5,136.5 Z"/></g>
<g><path style="opacity:0.711" fill="#c761e9" d="M 319.5,137.5 C 319.5,137.167 319.5,136.833 319.5,136.5C 342.176,136.167 364.843,136.5 387.5,137.5C 387.145,138.522 386.478,139.189 385.5,139.5C 369.2,137.515 352.534,136.848 335.5,137.5C 330.167,137.5 324.833,137.5 319.5,137.5 Z"/></g>
<g><path style="opacity:0.116" fill="#8124e2" d="M 319.5,137.5 C 324.833,137.5 330.167,137.5 335.5,137.5C 335.5,137.833 335.5,138.167 335.5,138.5C 281.331,138.168 227.331,138.501 173.5,139.5C 173.167,139.5 172.833,139.5 172.5,139.5C 221.155,137.505 270.155,136.838 319.5,137.5 Z"/></g>
<g><path style="opacity:0.059" fill="#ac28cf" d="M 335.5,138.5 C 335.5,138.167 335.5,137.833 335.5,137.5C 352.534,136.848 369.2,137.515 385.5,139.5C 385.167,139.5 384.833,139.5 384.5,139.5C 368.342,138.504 352.009,138.17 335.5,138.5 Z"/></g>
<g><path style="opacity:0.535" fill="#6a19db" d="M 173.5,128.5 C 170.615,128.194 167.948,128.527 165.5,129.5C 165.5,129.833 165.5,130.167 165.5,130.5C 164.041,130.433 162.708,130.766 161.5,131.5C 157.783,132.92 155.45,135.587 154.5,139.5C 153.833,189.833 153.167,240.167 152.5,290.5C 152.789,244.992 152.456,199.492 151.5,154C 151.189,145.756 152.689,137.923 156,130.5C 161.731,127.808 167.564,127.141 173.5,128.5 Z"/></g>
<g><path style="opacity:0.988" fill="#b386fc" d="M 177.5,144.5 C 179.404,144.738 180.738,145.738 181.5,147.5C 180.833,147.5 180.167,147.5 179.5,147.5C 178.833,146.5 178.167,145.5 177.5,144.5 Z"/></g>
<g><path style="opacity:1" fill="#dd87f0" d="M 383.5,142.5 C 381.64,143.939 379.973,145.605 378.5,147.5C 377.833,147.5 377.167,147.5 376.5,147.5C 378.023,144.636 380.357,142.969 383.5,142.5 Z"/></g>
<g><path style="opacity:1" fill="#cbb1f9" d="M 167.5,142.5 C 172.901,145.204 177.568,148.871 181.5,153.5C 180.833,153.5 180.167,153.5 179.5,153.5C 177.977,150.636 175.643,148.969 172.5,148.5C 170.833,146.5 169.167,144.5 167.5,142.5 Z"/></g>
<g><path style="opacity:1" fill="#b586fd" d="M 181.5,147.5 C 183.027,147.427 184.027,148.094 184.5,149.5C 182.973,149.573 181.973,148.906 181.5,147.5 Z"/></g>
<g><path style="opacity:1" fill="#af82f9" d="M 172.5,148.5 C 175.643,148.969 177.977,150.636 179.5,153.5C 176.883,152.214 174.55,150.547 172.5,148.5 Z"/></g>
<g><path style="opacity:1" fill="#ead6fd" d="M 163.5,132.5 C 207.67,132.168 251.67,132.501 295.5,133.5C 252.663,133.168 209.997,133.501 167.5,134.5C 166.5,134.5 165.5,134.5 164.5,134.5C 164.297,136.39 164.963,137.89 166.5,139C 170.549,142.352 174.882,145.185 179.5,147.5C 181.612,150.063 184.279,151.896 187.5,153C 188.305,154.113 188.972,155.279 189.5,156.5C 187.784,156.371 186.117,156.038 184.5,155.5C 184.027,154.094 183.027,153.427 181.5,153.5C 177.568,148.871 172.901,145.204 167.5,142.5C 165.601,139.6 162.934,137.934 159.5,137.5C 160.111,135.225 161.445,133.559 163.5,132.5 Z"/></g>
<g><path style="opacity:1" fill="#cbadf8" d="M 179.5,147.5 C 180.167,147.5 180.833,147.5 181.5,147.5C 181.973,148.906 182.973,149.573 184.5,149.5C 186.389,150.604 188.055,151.937 189.5,153.5C 189.973,154.906 190.973,155.573 192.5,155.5C 192.833,156.167 193.167,156.833 193.5,157.5C 192.167,157.167 190.833,156.833 189.5,156.5C 188.972,155.279 188.305,154.113 187.5,153C 184.279,151.896 181.612,150.063 179.5,147.5 Z"/></g>
<g><path style="opacity:0.796" fill="#7a2de0" d="M 173.5,139.5 C 184.321,144.997 194.321,151.664 203.5,159.5C 202.167,159.5 200.833,159.5 199.5,159.5C 198.395,158.4 197.062,157.733 195.5,157.5C 195.027,156.094 194.027,155.427 192.5,155.5C 192.027,154.094 191.027,153.427 189.5,153.5C 188.055,151.937 186.389,150.604 184.5,149.5C 184.027,148.094 183.027,147.427 181.5,147.5C 180.738,145.738 179.404,144.738 177.5,144.5C 176.167,142.833 174.833,141.167 173.5,139.5 Z"/></g>
<g><path style="opacity:1" fill="#ac7cff" d="M 179.5,153.5 C 180.167,153.5 180.833,153.5 181.5,153.5C 181.833,154.167 182.167,154.833 182.5,155.5C 180.973,155.573 179.973,154.906 179.5,153.5 Z"/></g>
<g><path style="opacity:1" fill="#b687fd" d="M 189.5,153.5 C 191.027,153.427 192.027,154.094 192.5,155.5C 190.973,155.573 189.973,154.906 189.5,153.5 Z"/></g>
<g><path style="opacity:1" fill="#b081f6" d="M 192.5,155.5 C 194.027,155.427 195.027,156.094 195.5,157.5C 195.167,157.5 194.833,157.5 194.5,157.5C 194.167,157.5 193.833,157.5 193.5,157.5C 193.167,156.833 192.833,156.167 192.5,155.5 Z"/></g>
<g><path style="opacity:1" fill="#b689fb" d="M 181.5,153.5 C 183.027,153.427 184.027,154.094 184.5,155.5C 186.806,157.139 188.806,159.139 190.5,161.5C 187.467,159.984 184.8,157.984 182.5,155.5C 182.167,154.833 181.833,154.167 181.5,153.5 Z"/></g>
<g><path style="opacity:0.322" fill="#af29cd" d="M 384.5,139.5 C 383.89,140.391 383.557,141.391 383.5,142.5C 380.357,142.969 378.023,144.636 376.5,147.5C 375.078,147.709 373.745,148.209 372.5,149C 365.759,154.617 358.759,159.783 351.5,164.5C 351.5,163.5 351.5,162.5 351.5,161.5C 362.357,153.908 373.357,146.575 384.5,139.5 Z"/></g>
<g><path style="opacity:0.643" fill="#772be3" d="M 172.5,148.5 C 174.55,150.547 176.883,152.214 179.5,153.5C 179.973,154.906 180.973,155.573 182.5,155.5C 184.8,157.984 187.467,159.984 190.5,161.5C 193.601,164.933 197.268,167.6 201.5,169.5C 202.167,170.833 203.167,171.833 204.5,172.5C 204.672,173.492 204.338,174.158 203.5,174.5C 189.812,165.647 176.812,155.814 164.5,145C 163.668,144.312 163.002,144.479 162.5,145.5C 163.393,148.084 163.726,150.751 163.5,153.5C 162.502,176.327 162.169,199.327 162.5,222.5C 162.167,222.5 161.833,222.5 161.5,222.5C 161.5,214.167 161.5,205.833 161.5,197.5C 161.5,179.167 161.5,160.833 161.5,142.5C 163.308,142.491 164.975,142.991 166.5,144C 168.114,146.127 170.114,147.627 172.5,148.5 Z"/></g>
<g><path style="opacity:1" fill="#b37dfb" d="M 195.5,157.5 C 197.062,157.733 198.395,158.4 199.5,159.5C 199.5,159.833 199.5,160.167 199.5,160.5C 197.596,160.262 196.262,159.262 195.5,157.5 Z"/></g>
<g><path style="opacity:1" fill="#da7ef1" d="M 376.5,147.5 C 368.478,153.861 360.478,160.194 352.5,166.5C 351.833,166.5 351.5,166.833 351.5,167.5C 345.898,170.442 340.564,173.775 335.5,177.5C 335.414,176.504 335.748,175.671 336.5,175C 341.882,171.982 346.882,168.482 351.5,164.5C 358.759,159.783 365.759,154.617 372.5,149C 373.745,148.209 375.078,147.709 376.5,147.5 Z"/></g>
<g><path style="opacity:1" fill="#d2aefa" d="M 194.5,157.5 C 194.833,157.5 195.167,157.5 195.5,157.5C 196.262,159.262 197.596,160.262 199.5,160.5C 200.872,161.512 202.205,162.512 203.5,163.5C 204.585,165.587 206.251,166.92 208.5,167.5C 209.492,167.328 210.158,167.662 210.5,168.5C 211.585,170.587 213.251,171.92 215.5,172.5C 216.167,173.5 216.833,174.5 217.5,175.5C 210.718,171.268 204.051,166.768 197.5,162C 195.859,160.871 194.859,159.371 194.5,157.5 Z"/></g>
<g><path style="opacity:1" fill="#ecb9f7" d="M 376.5,147.5 C 377.167,147.5 377.833,147.5 378.5,147.5C 374.088,151.554 369.421,155.387 364.5,159C 365.448,159.483 366.448,159.649 367.5,159.5C 364.527,161.806 361.86,164.473 359.5,167.5C 356.63,168.433 354.296,170.1 352.5,172.5C 352.167,172.5 351.833,172.5 351.5,172.5C 351.369,171.761 351.536,171.094 352,170.5C 355.004,168.326 357.837,165.992 360.5,163.5C 360.167,163.167 359.833,162.833 359.5,162.5C 357.275,164.11 354.941,165.443 352.5,166.5C 360.478,160.194 368.478,153.861 376.5,147.5 Z"/></g>
<g><path style="opacity:0.965" fill="#e184f4" d="M 377.5,152.5 C 378.167,152.5 378.833,152.5 379.5,152.5C 372.842,157.497 366.175,162.497 359.5,167.5C 361.86,164.473 364.527,161.806 367.5,159.5C 370.812,157.196 374.146,154.863 377.5,152.5 Z"/></g>
<g><path style="opacity:1" fill="#b786fb" d="M 203.5,163.5 C 205.749,164.08 207.415,165.413 208.5,167.5C 206.251,166.92 204.585,165.587 203.5,163.5 Z"/></g>
<g><path style="opacity:1" fill="#b57ffa" d="M 190.5,161.5 C 194.732,163.4 198.399,166.067 201.5,169.5C 197.268,167.6 193.601,164.933 190.5,161.5 Z"/></g>
<g><path style="opacity:0.078" fill="#bc34d5" d="M 386.5,147.5 C 387.167,147.5 387.833,147.5 388.5,147.5C 386.098,150.215 383.432,152.715 380.5,155C 371.471,161.509 362.471,168.009 353.5,174.5C 352.833,174.5 352.167,174.5 351.5,174.5C 351.833,173.833 352.167,173.167 352.5,172.5C 355.37,171.567 357.704,169.9 359.5,167.5C 366.175,162.497 372.842,157.497 379.5,152.5C 381.404,152.262 382.738,151.262 383.5,149.5C 383.973,148.094 384.973,147.427 386.5,147.5 Z"/></g>
<g><path style="opacity:0.529" fill="#8a29de" d="M 199.5,160.5 C 199.5,160.167 199.5,159.833 199.5,159.5C 200.833,159.5 202.167,159.5 203.5,159.5C 216.119,168.121 228.452,177.121 240.5,186.5C 239.167,186.5 237.833,186.5 236.5,186.5C 234.833,185.833 233.167,185.167 231.5,184.5C 229.557,181.529 226.891,179.529 223.5,178.5C 221.2,176.016 218.533,174.016 215.5,172.5C 214.415,170.413 212.749,169.08 210.5,168.5C 210.158,167.662 209.492,167.328 208.5,167.5C 207.415,165.413 205.749,164.08 203.5,163.5C 202.205,162.512 200.872,161.512 199.5,160.5 Z"/></g>
<g><path style="opacity:0.384" fill="#d23dcb" d="M 393.5,143.5 C 394.209,142.596 395.209,142.263 396.5,142.5C 396.832,196.669 396.499,250.669 395.5,304.5C 396.162,250.49 395.496,196.823 393.5,143.5 Z"/></g>
<g><path style="opacity:1" fill="#e2c5fb" d="M 184.5,155.5 C 186.117,156.038 187.784,156.371 189.5,156.5C 190.833,156.833 192.167,157.167 193.5,157.5C 193.833,157.5 194.167,157.5 194.5,157.5C 194.859,159.371 195.859,160.871 197.5,162C 204.051,166.768 210.718,171.268 217.5,175.5C 219.033,177.245 221.033,178.245 223.5,178.5C 225.8,180.984 228.467,182.984 231.5,184.5C 232.5,185.833 233.5,187.167 234.5,188.5C 232.956,188.297 231.622,187.63 230.5,186.5C 229.893,186.624 229.56,186.957 229.5,187.5C 227.745,186.096 225.745,185.096 223.5,184.5C 222.833,184.5 222.167,184.5 221.5,184.5C 218.224,180.529 214.224,177.529 209.5,175.5C 208.738,173.738 207.404,172.738 205.5,172.5C 204.738,170.738 203.404,169.738 201.5,169.5C 198.399,166.067 194.732,163.4 190.5,161.5C 188.806,159.139 186.806,157.139 184.5,155.5 Z"/></g>
<g><path style="opacity:1" fill="#b982f7" d="M 201.5,169.5 C 203.404,169.738 204.738,170.738 205.5,172.5C 205.167,172.5 204.833,172.5 204.5,172.5C 203.167,171.833 202.167,170.833 201.5,169.5 Z"/></g>
<g><path style="opacity:0.984" fill="#d979f3" d="M 359.5,167.5 C 357.704,169.9 355.37,171.567 352.5,172.5C 354.296,170.1 356.63,168.433 359.5,167.5 Z"/></g>
<g><path style="opacity:1" fill="#be82f7" d="M 210.5,168.5 C 212.749,169.08 214.415,170.413 215.5,172.5C 213.251,171.92 211.585,170.587 210.5,168.5 Z"/></g>
<g><path style="opacity:1" fill="#e79dee" d="M 393.5,139.5 C 395.144,139.286 396.644,139.62 398,140.5C 398.5,155.496 398.667,170.496 398.5,185.5C 398.167,185.5 397.833,185.5 397.5,185.5C 397.829,170.99 397.496,156.657 396.5,142.5C 395.399,141.402 394.066,141.235 392.5,142C 390.237,143.617 388.237,145.45 386.5,147.5C 384.973,147.427 383.973,148.094 383.5,149.5C 381.596,149.738 380.262,150.738 379.5,152.5C 378.833,152.5 378.167,152.5 377.5,152.5C 382.794,148.177 388.127,143.844 393.5,139.5 Z"/></g>
<g><path style="opacity:0.969" fill="#df7ef3" d="M 383.5,149.5 C 382.738,151.262 381.404,152.262 379.5,152.5C 380.262,150.738 381.596,149.738 383.5,149.5 Z"/></g>
<g><path style="opacity:0.753" fill="#d268e3" d="M 396.5,142.5 C 395.209,142.263 394.209,142.596 393.5,143.5C 392.127,145.207 390.461,146.54 388.5,147.5C 387.833,147.5 387.167,147.5 386.5,147.5C 388.237,145.45 390.237,143.617 392.5,142C 394.066,141.235 395.399,141.402 396.5,142.5 Z"/></g>
<g><path style="opacity:1" fill="#bb86fb" d="M 205.5,172.5 C 207.404,172.738 208.738,173.738 209.5,175.5C 207.596,175.262 206.262,174.262 205.5,172.5 Z"/></g>
<g><path style="opacity:1" fill="#ddc4fd" d="M 161.5,132.5 C 162.167,132.5 162.833,132.5 163.5,132.5C 161.445,133.559 160.111,135.225 159.5,137.5C 158.883,137.611 158.383,137.944 158,138.5C 157.5,194.166 157.333,249.832 157.5,305.5C 157.5,305.833 157.5,306.167 157.5,306.5C 156.501,251.002 156.168,195.336 156.5,139.5C 157.433,136.63 159.1,134.296 161.5,132.5 Z"/></g>
<g><path style="opacity:1" fill="#c994f8" d="M 215.5,172.5 C 218.533,174.016 221.2,176.016 223.5,178.5C 221.033,178.245 219.033,177.245 217.5,175.5C 216.833,174.5 216.167,173.5 215.5,172.5 Z"/></g>
<g><path style="opacity:0.91" fill="#d66fea" d="M 350.5,172.5 C 350.833,172.5 351.167,172.5 351.5,172.5C 351.833,172.5 352.167,172.5 352.5,172.5C 352.167,173.167 351.833,173.833 351.5,174.5C 346.188,178.137 340.854,181.804 335.5,185.5C 335.5,185.167 335.5,184.833 335.5,184.5C 335.5,184.167 335.5,183.833 335.5,183.5C 339.3,181.528 342.967,179.361 346.5,177C 348.041,175.629 349.375,174.129 350.5,172.5 Z"/></g>
<g><path style="opacity:1" fill="#f6ddfe" d="M 159.5,137.5 C 158.521,170.136 158.188,202.802 158.5,235.5C 158.831,259.006 158.498,282.339 157.5,305.5C 157.333,249.832 157.5,194.166 158,138.5C 158.383,137.944 158.883,137.611 159.5,137.5 Z"/></g>
<g><path style="opacity:0.412" fill="#ab28d0" d="M 351.5,161.5 C 351.5,162.5 351.5,163.5 351.5,164.5C 346.882,168.482 341.882,171.982 336.5,175C 335.748,175.671 335.414,176.504 335.5,177.5C 329.652,180.015 324.652,183.682 320.5,188.5C 317.796,188.67 316.129,190.003 315.5,192.5C 303.542,200.155 291.875,208.321 280.5,217C 279.207,217.49 277.873,217.657 276.5,217.5C 276.027,216.094 275.027,215.427 273.5,215.5C 272.198,213.178 270.198,211.845 267.5,211.5C 266.5,210.167 265.5,208.833 264.5,207.5C 266.117,208.038 267.784,208.371 269.5,208.5C 272.736,210.056 275.736,212.056 278.5,214.5C 303.04,197.069 327.373,179.402 351.5,161.5 Z"/></g>
<g><path style="opacity:1" fill="#f4cefb" d="M 351.5,172.5 C 351.167,172.5 350.833,172.5 350.5,172.5C 345.849,175.232 341.183,178.066 336.5,181C 335.748,181.671 335.414,182.504 335.5,183.5C 335.5,183.833 335.5,184.167 335.5,184.5C 331.791,184.679 329.124,186.346 327.5,189.5C 325.447,190.534 323.78,192.034 322.5,194C 321.552,194.483 320.552,194.649 319.5,194.5C 317.938,194.733 316.605,195.4 315.5,196.5C 313.053,196.615 311.053,197.615 309.5,199.5C 309.5,199.167 309.5,198.833 309.5,198.5C 310.167,197.167 311.167,196.167 312.5,195.5C 313.552,195.649 314.552,195.483 315.5,195C 327.748,186.056 339.748,176.889 351.5,167.5C 351.5,166.833 351.833,166.5 352.5,166.5C 354.941,165.443 357.275,164.11 359.5,162.5C 359.833,162.833 360.167,163.167 360.5,163.5C 357.837,165.992 355.004,168.326 352,170.5C 351.536,171.094 351.369,171.761 351.5,172.5 Z"/></g>
<g><path style="opacity:0.039" fill="#c521c3" d="M 403.5,137.5 C 404.268,138.263 404.768,139.263 405,140.5C 405.5,180.499 405.667,220.499 405.5,260.5C 404.833,221.5 404.167,182.5 403.5,143.5C 403.5,141.5 403.5,139.5 403.5,137.5 Z"/></g>
<g><path style="opacity:1" fill="#eaacf8" d="M 350.5,172.5 C 349.375,174.129 348.041,175.629 346.5,177C 342.967,179.361 339.3,181.528 335.5,183.5C 335.414,182.504 335.748,181.671 336.5,181C 341.183,178.066 345.849,175.232 350.5,172.5 Z"/></g>
<g><path style="opacity:1" fill="#d4baf8" d="M 159.5,137.5 C 162.934,137.934 165.601,139.6 167.5,142.5C 165.634,141.986 163.8,141.32 162,140.5C 161.228,140.645 160.561,140.978 160,141.5C 159.5,172.832 159.333,204.165 159.5,235.5C 159.167,235.5 158.833,235.5 158.5,235.5C 158.188,202.802 158.521,170.136 159.5,137.5 Z"/></g>
<g><path style="opacity:0.129" fill="#6610d9" d="M 163.5,153.5 C 163.519,155.06 163.852,156.56 164.5,158C 163.848,181.307 163.181,204.473 162.5,227.5C 162.5,225.833 162.5,224.167 162.5,222.5C 162.169,199.327 162.502,176.327 163.5,153.5 Z"/></g>
<g><path style="opacity:1" fill="#c083fa" d="M 209.5,175.5 C 214.224,177.529 218.224,180.529 221.5,184.5C 217.134,181.984 213.134,178.984 209.5,175.5 Z"/></g>
<g><path style="opacity:1" fill="#d4b3fe" d="M 156.5,139.5 C 156.168,195.336 156.501,251.002 157.5,306.5C 157.5,307.5 157.5,308.5 157.5,309.5C 156.094,309.027 155.427,308.027 155.5,306.5C 155.168,250.664 155.501,194.998 156.5,139.5 Z"/></g>
<g><path style="opacity:1" fill="#c586fb" d="M 223.5,178.5 C 226.891,179.529 229.557,181.529 231.5,184.5C 228.467,182.984 225.8,180.984 223.5,178.5 Z"/></g>
<g><path style="opacity:1" fill="#d57af0" d="M 335.5,177.5 C 330.786,181.546 325.786,185.212 320.5,188.5C 324.652,183.682 329.652,180.015 335.5,177.5 Z"/></g>
<g><path style="opacity:1" fill="#e5aff5" d="M 351.5,167.5 C 339.748,176.889 327.748,186.056 315.5,195C 314.552,195.483 313.552,195.649 312.5,195.5C 313.694,194.728 314.694,193.728 315.5,192.5C 317.389,191.396 319.055,190.063 320.5,188.5C 325.786,185.212 330.786,181.546 335.5,177.5C 340.564,173.775 345.898,170.442 351.5,167.5 Z"/></g>
<g><path style="opacity:1" fill="#bf79f3" d="M 221.5,184.5 C 222.167,184.5 222.833,184.5 223.5,184.5C 224.167,185.5 224.833,186.5 225.5,187.5C 223.596,187.262 222.262,186.262 221.5,184.5 Z"/></g>
<g><path style="opacity:1" fill="#b788fb" d="M 167.5,142.5 C 169.167,144.5 170.833,146.5 172.5,148.5C 170.114,147.627 168.114,146.127 166.5,144C 164.975,142.991 163.308,142.491 161.5,142.5C 161.5,160.833 161.5,179.167 161.5,197.5C 160.502,233.996 160.168,270.663 160.5,307.5C 159.502,283.672 159.169,259.672 159.5,235.5C 159.333,204.165 159.5,172.832 160,141.5C 160.561,140.978 161.228,140.645 162,140.5C 163.8,141.32 165.634,141.986 167.5,142.5 Z"/></g>
<g><path style="opacity:1" fill="#ca8dfa" d="M 231.5,184.5 C 233.167,185.167 234.833,185.833 236.5,186.5C 238.183,187.853 239.516,189.52 240.5,191.5C 239.833,191.5 239.167,191.5 238.5,191.5C 237.564,190.026 236.23,189.026 234.5,188.5C 233.5,187.167 232.5,185.833 231.5,184.5 Z"/></g>
<g><path style="opacity:1" fill="#e9acf5" d="M 335.5,184.5 C 335.5,184.833 335.5,185.167 335.5,185.5C 332.605,186.399 329.938,187.733 327.5,189.5C 329.124,186.346 331.791,184.679 335.5,184.5 Z"/></g>
<g><path style="opacity:1" fill="#b467f1" d="M 227.5,189.5 C 229.027,189.427 230.027,190.094 230.5,191.5C 228.973,191.573 227.973,190.906 227.5,189.5 Z"/></g>
<g><path style="opacity:1" fill="#d09bf7" d="M 223.5,184.5 C 225.745,185.096 227.745,186.096 229.5,187.5C 230.5,187.833 231.167,188.5 231.5,189.5C 233.167,191.5 234.833,193.5 236.5,195.5C 234.246,194.585 232.246,193.252 230.5,191.5C 230.027,190.094 229.027,189.427 227.5,189.5C 226.833,188.833 226.167,188.167 225.5,187.5C 224.833,186.5 224.167,185.5 223.5,184.5 Z"/></g>
<g><path style="opacity:1" fill="#d378f1" d="M 320.5,188.5 C 319.055,190.063 317.389,191.396 315.5,192.5C 316.129,190.003 317.796,188.67 320.5,188.5 Z"/></g>
<g><path style="opacity:1" fill="#dd87f1" d="M 335.5,185.5 C 331.348,188.417 327.348,191.584 323.5,195C 322.099,195.41 320.766,195.91 319.5,196.5C 319.5,195.833 319.5,195.167 319.5,194.5C 320.552,194.649 321.552,194.483 322.5,194C 323.78,192.034 325.447,190.534 327.5,189.5C 329.938,187.733 332.605,186.399 335.5,185.5 Z"/></g>
<g><path style="opacity:1" fill="#deb3f6" d="M 231.5,189.5 C 234.427,190.757 236.761,192.757 238.5,195.5C 237.833,195.5 237.167,195.5 236.5,195.5C 234.833,193.5 233.167,191.5 231.5,189.5 Z"/></g>
<g><path style="opacity:1" fill="#c281f4" d="M 240.5,191.5 C 242.933,191.273 244.599,192.273 245.5,194.5C 243.566,193.89 241.899,192.89 240.5,191.5 Z"/></g>
<g><path style="opacity:1" fill="#f1d0fd" d="M 229.5,187.5 C 229.56,186.957 229.893,186.624 230.5,186.5C 231.622,187.63 232.956,188.297 234.5,188.5C 236.23,189.026 237.564,190.026 238.5,191.5C 240.951,194.277 243.951,196.277 247.5,197.5C 248.5,198.167 249.5,198.833 250.5,199.5C 250.414,200.496 250.748,201.329 251.5,202C 256.037,205.372 260.703,208.539 265.5,211.5C 267.031,212.925 266.698,213.591 264.5,213.5C 256.221,206.871 247.555,200.871 238.5,195.5C 236.761,192.757 234.427,190.757 231.5,189.5C 231.167,188.5 230.5,187.833 229.5,187.5 Z"/></g>
<g><path style="opacity:1" fill="#deb2f8" d="M 238.5,191.5 C 239.167,191.5 239.833,191.5 240.5,191.5C 241.899,192.89 243.566,193.89 245.5,194.5C 246.167,195.5 246.833,196.5 247.5,197.5C 243.951,196.277 240.951,194.277 238.5,191.5 Z"/></g>
<g><path style="opacity:0.604" fill="#9d30d9" d="M 236.5,186.5 C 237.833,186.5 239.167,186.5 240.5,186.5C 250.385,193.602 260.051,200.935 269.5,208.5C 267.784,208.371 266.117,208.038 264.5,207.5C 263.18,206.058 261.514,205.392 259.5,205.5C 258.055,203.937 256.389,202.604 254.5,201.5C 254.027,200.094 253.027,199.427 251.5,199.5C 250.089,197.086 248.089,195.419 245.5,194.5C 244.599,192.273 242.933,191.273 240.5,191.5C 239.516,189.52 238.183,187.853 236.5,186.5 Z"/></g>
<g><path style="opacity:0.447" fill="#8d24d7" d="M 204.5,172.5 C 204.833,172.5 205.167,172.5 205.5,172.5C 206.262,174.262 207.596,175.262 209.5,175.5C 213.134,178.984 217.134,181.984 221.5,184.5C 222.262,186.262 223.596,187.262 225.5,187.5C 226.167,188.167 226.833,188.833 227.5,189.5C 227.973,190.906 228.973,191.573 230.5,191.5C 232.246,193.252 234.246,194.585 236.5,195.5C 237.891,197.89 239.891,199.557 242.5,200.5C 242.5,201.167 242.833,201.5 243.5,201.5C 244.116,202.798 244.116,203.798 243.5,204.5C 229.86,194.853 216.527,184.853 203.5,174.5C 204.338,174.158 204.672,173.492 204.5,172.5 Z"/></g>
<g><path style="opacity:1" fill="#c47cfa" d="M 236.5,195.5 C 237.167,195.5 237.833,195.5 238.5,195.5C 239.916,197.179 241.25,198.846 242.5,200.5C 239.891,199.557 237.891,197.89 236.5,195.5 Z"/></g>
<g><path style="opacity:1" fill="#eab1f8" d="M 319.5,194.5 C 319.5,195.167 319.5,195.833 319.5,196.5C 316.518,198.474 313.518,200.474 310.5,202.5C 311.838,200.304 313.505,198.304 315.5,196.5C 316.605,195.4 317.938,194.733 319.5,194.5 Z"/></g>
<g><path style="opacity:1" fill="#cc89f5" d="M 245.5,194.5 C 248.089,195.419 250.089,197.086 251.5,199.5C 251.167,199.5 250.833,199.5 250.5,199.5C 249.5,198.833 248.5,198.167 247.5,197.5C 246.833,196.5 246.167,195.5 245.5,194.5 Z"/></g>
<g><path style="opacity:1" fill="#e1b1f5" d="M 250.5,199.5 C 250.833,199.5 251.167,199.5 251.5,199.5C 251.973,200.906 252.973,201.573 254.5,201.5C 256.389,202.604 258.055,203.937 259.5,205.5C 261.806,207.139 263.806,209.139 265.5,211.5C 260.703,208.539 256.037,205.372 251.5,202C 250.748,201.329 250.414,200.496 250.5,199.5 Z"/></g>
<g><path style="opacity:1" fill="#d18ef7" d="M 251.5,199.5 C 253.027,199.427 254.027,200.094 254.5,201.5C 252.973,201.573 251.973,200.906 251.5,199.5 Z"/></g>
<g><path style="opacity:1" fill="#d87cf0" d="M 319.5,196.5 C 315.46,200.542 311.127,204.209 306.5,207.5C 304.754,209.252 302.754,210.585 300.5,211.5C 302.86,208.473 305.527,205.806 308.5,203.5C 309.167,203.167 309.833,202.833 310.5,202.5C 313.518,200.474 316.518,198.474 319.5,196.5 Z"/></g>
<g><path style="opacity:1" fill="#c97cfb" d="M 242.5,200.5 C 244.933,200.273 246.599,201.273 247.5,203.5C 245.938,203.267 244.605,202.6 243.5,201.5C 242.833,201.5 242.5,201.167 242.5,200.5 Z"/></g>
<g><path style="opacity:1" fill="#d47df2" d="M 315.5,192.5 C 314.694,193.728 313.694,194.728 312.5,195.5C 311.167,196.167 310.167,197.167 309.5,198.5C 308.078,198.709 306.745,199.209 305.5,200C 297.612,206.429 289.612,212.595 281.5,218.5C 279.545,219.93 277.879,219.597 276.5,217.5C 277.873,217.657 279.207,217.49 280.5,217C 291.875,208.321 303.542,200.155 315.5,192.5 Z"/></g>
<g><path style="opacity:0.592" fill="#b22dcc" d="M 351.5,174.5 C 352.167,174.5 352.833,174.5 353.5,174.5C 339.808,185.519 325.808,196.186 311.5,206.5C 309.784,206.629 308.117,206.962 306.5,207.5C 311.127,204.209 315.46,200.542 319.5,196.5C 320.766,195.91 322.099,195.41 323.5,195C 327.348,191.584 331.348,188.417 335.5,185.5C 340.854,181.804 346.188,178.137 351.5,174.5 Z"/></g>
<g><path style="opacity:1" fill="#e6aff9" d="M 309.5,198.5 C 309.5,198.833 309.5,199.167 309.5,199.5C 300.81,205.865 292.143,212.198 283.5,218.5C 282.833,218.5 282.167,218.5 281.5,218.5C 289.612,212.595 297.612,206.429 305.5,200C 306.745,199.209 308.078,198.709 309.5,198.5 Z"/></g>
<g><path style="opacity:1" fill="#f4ccfb" d="M 315.5,196.5 C 313.505,198.304 311.838,200.304 310.5,202.5C 309.833,202.833 309.167,203.167 308.5,203.5C 306.071,203.585 304.071,204.585 302.5,206.5C 300.338,208.86 298.338,211.193 296.5,213.5C 293.5,215.5 290.5,217.5 287.5,219.5C 286.833,219.5 286.167,219.5 285.5,219.5C 284.508,219.672 283.842,219.338 283.5,218.5C 292.143,212.198 300.81,205.865 309.5,199.5C 311.053,197.615 313.053,196.615 315.5,196.5 Z"/></g>
<g><path style="opacity:1" fill="#dfabfa" d="M 238.5,195.5 C 247.555,200.871 256.221,206.871 264.5,213.5C 264.5,213.833 264.5,214.167 264.5,214.5C 263.833,214.5 263.167,214.5 262.5,214.5C 262.027,213.094 261.027,212.427 259.5,212.5C 257.704,210.1 255.37,208.433 252.5,207.5C 250.611,206.396 248.945,205.063 247.5,203.5C 246.599,201.273 244.933,200.273 242.5,200.5C 241.25,198.846 239.916,197.179 238.5,195.5 Z"/></g>
<g><path style="opacity:1" fill="#f4c1f2" d="M 398.5,137.5 C 399.496,137.414 400.329,137.748 401,138.5C 401.5,167.831 401.667,197.165 401.5,226.5C 400.668,197.67 400.168,168.67 400,139.5C 399.833,194.335 399.333,249.002 398.5,303.5C 398.5,264.167 398.5,224.833 398.5,185.5C 398.667,170.496 398.5,155.496 398,140.5C 396.644,139.62 395.144,139.286 393.5,139.5C 394.635,137.787 396.302,137.12 398.5,137.5 Z"/></g>
<g><path style="opacity:1" fill="#e8a9f4" d="M 308.5,203.5 C 305.527,205.806 302.86,208.473 300.5,211.5C 298.938,211.733 297.605,212.4 296.5,213.5C 298.338,211.193 300.338,208.86 302.5,206.5C 304.071,204.585 306.071,203.585 308.5,203.5 Z"/></g>
<g><path style="opacity:0.998" fill="#b889f8" d="M 161.5,131.5 C 161.5,131.833 161.5,132.167 161.5,132.5C 159.1,134.296 157.433,136.63 156.5,139.5C 155.501,194.998 155.168,250.664 155.5,306.5C 154.501,251.002 154.168,195.336 154.5,139.5C 155.45,135.587 157.783,132.92 161.5,131.5 Z"/></g>
<g><path style="opacity:1" fill="#d288f4" d="M 259.5,205.5 C 261.514,205.392 263.18,206.058 264.5,207.5C 265.5,208.833 266.5,210.167 267.5,211.5C 266.833,211.5 266.167,211.5 265.5,211.5C 263.806,209.139 261.806,207.139 259.5,205.5 Z"/></g>
<g><path style="opacity:1" fill="#cb77f6" d="M 252.5,207.5 C 255.37,208.433 257.704,210.1 259.5,212.5C 256.63,211.567 254.296,209.9 252.5,207.5 Z"/></g>
<g><path style="opacity:0.659" fill="#a129d1" d="M 243.5,201.5 C 244.605,202.6 245.938,203.267 247.5,203.5C 248.945,205.063 250.611,206.396 252.5,207.5C 254.296,209.9 256.63,211.567 259.5,212.5C 259.973,213.906 260.973,214.573 262.5,214.5C 265.776,218.471 269.776,221.471 274.5,223.5C 274.833,224.167 275.167,224.833 275.5,225.5C 274.167,225.167 272.833,224.833 271.5,224.5C 262.129,217.821 252.796,211.154 243.5,204.5C 244.116,203.798 244.116,202.798 243.5,201.5 Z"/></g>
<g><path style="opacity:1" fill="#d98df7" d="M 267.5,211.5 C 270.198,211.845 272.198,213.178 273.5,215.5C 271.147,214.66 269.147,213.326 267.5,211.5 Z"/></g>
<g><path style="opacity:1" fill="#cf80f5" d="M 259.5,212.5 C 261.027,212.427 262.027,213.094 262.5,214.5C 260.973,214.573 259.973,213.906 259.5,212.5 Z"/></g>
<g><path style="opacity:0.969" fill="#d16beb" d="M 300.5,211.5 C 296.194,215.321 291.527,218.655 286.5,221.5C 286.833,220.833 287.167,220.167 287.5,219.5C 290.5,217.5 293.5,215.5 296.5,213.5C 297.605,212.4 298.938,211.733 300.5,211.5 Z"/></g>
<g><path style="opacity:1" fill="#d18af1" d="M 273.5,215.5 C 275.027,215.427 276.027,216.094 276.5,217.5C 274.973,217.573 273.973,216.906 273.5,215.5 Z"/></g>
<g><path style="opacity:0.188" fill="#ab23cb" d="M 311.5,206.5 C 301.545,213.158 291.878,220.325 282.5,228C 278.041,229.094 274.374,227.927 271.5,224.5C 272.833,224.833 274.167,225.167 275.5,225.5C 277.611,226.742 279.611,226.742 281.5,225.5C 281.833,224.5 282.5,223.833 283.5,223.5C 284.5,222.833 285.5,222.167 286.5,221.5C 291.527,218.655 296.194,215.321 300.5,211.5C 302.754,210.585 304.754,209.252 306.5,207.5C 308.117,206.962 309.784,206.629 311.5,206.5 Z"/></g>
<g><path style="opacity:1" fill="#cf7df4" d="M 262.5,214.5 C 263.167,214.5 263.833,214.5 264.5,214.5C 267.833,217.5 271.167,220.5 274.5,223.5C 269.776,221.471 265.776,218.471 262.5,214.5 Z"/></g>
<g><path style="opacity:1" fill="#eec1f9" d="M 265.5,211.5 C 266.167,211.5 266.833,211.5 267.5,211.5C 269.147,213.326 271.147,214.66 273.5,215.5C 273.973,216.906 274.973,217.573 276.5,217.5C 277.879,219.597 279.545,219.93 281.5,218.5C 282.167,218.5 282.833,218.5 283.5,218.5C 283.842,219.338 284.508,219.672 285.5,219.5C 284.4,220.605 283.733,221.938 283.5,223.5C 282.5,223.833 281.833,224.5 281.5,225.5C 278.892,225.6 276.558,224.933 274.5,223.5C 271.167,220.5 267.833,217.5 264.5,214.5C 264.5,214.167 264.5,213.833 264.5,213.5C 266.698,213.591 267.031,212.925 265.5,211.5 Z"/></g>
<g><path style="opacity:1" fill="#de92ef" d="M 285.5,219.5 C 286.167,219.5 286.833,219.5 287.5,219.5C 287.167,220.167 286.833,220.833 286.5,221.5C 285.5,222.167 284.5,222.833 283.5,223.5C 283.733,221.938 284.4,220.605 285.5,219.5 Z"/></g>
<g><path style="opacity:1" fill="#d775f6" d="M 274.5,223.5 C 276.558,224.933 278.892,225.6 281.5,225.5C 279.611,226.742 277.611,226.742 275.5,225.5C 275.167,224.833 274.833,224.167 274.5,223.5 Z"/></g>
<g><path style="opacity:1" fill="#f4b1f5" d="M 395.5,133.5 C 396.833,133.5 398.167,133.5 399.5,133.5C 399.685,135.196 400.519,136.529 402,137.5C 402.5,171.832 402.667,206.165 402.5,240.5C 402.167,240.5 401.833,240.5 401.5,240.5C 401.5,235.833 401.5,231.167 401.5,226.5C 401.667,197.165 401.5,167.831 401,138.5C 400.329,137.748 399.496,137.414 398.5,137.5C 398.229,135.57 397.229,134.236 395.5,133.5 Z"/></g>
<g><path style="opacity:1" fill="#fcaeef" d="M 401.5,240.5 C 401.833,240.5 402.167,240.5 402.5,240.5C 402.5,263.167 402.5,285.833 402.5,308.5C 401.061,310.36 399.395,312.027 397.5,313.5C 398.391,311.391 399.558,309.391 401,307.5C 401.5,285.169 401.667,262.836 401.5,240.5 Z"/></g>
<g><path style="opacity:1" fill="#f398e6" d="M 397.5,185.5 C 397.833,185.5 398.167,185.5 398.5,185.5C 398.5,224.833 398.5,264.167 398.5,303.5C 399.024,307.31 397.357,309.31 393.5,309.5C 393.833,308.5 394.5,307.833 395.5,307.5C 396.117,307.389 396.617,307.056 397,306.5C 397.5,266.168 397.667,225.835 397.5,185.5 Z"/></g>
<g><path style="opacity:0.969" fill="#c27cfd" d="M 161.5,197.5 C 161.5,205.833 161.5,214.167 161.5,222.5C 161.183,250.877 161.517,279.211 162.5,307.5C 161.833,307.5 161.167,307.5 160.5,307.5C 160.168,270.663 160.502,233.996 161.5,197.5 Z"/></g>
<g><path style="opacity:0.347" fill="#9f37e0" d="M 161.5,222.5 C 161.833,222.5 162.167,222.5 162.5,222.5C 162.5,224.167 162.5,225.833 162.5,227.5C 162.333,253.169 162.5,278.835 163,304.5C 163.692,305.025 164.192,305.692 164.5,306.5C 177.817,307.499 191.15,307.833 204.5,307.5C 191.677,308.495 178.677,308.829 165.5,308.5C 164.391,308.443 163.391,308.11 162.5,307.5C 161.517,279.211 161.183,250.877 161.5,222.5 Z"/></g>
<g><path style="opacity:0.794" fill="#f778e5" d="M 396.5,142.5 C 397.496,156.657 397.829,170.99 397.5,185.5C 397.667,225.835 397.5,266.168 397,306.5C 396.617,307.056 396.117,307.389 395.5,307.5C 395.5,306.833 395.5,306.167 395.5,305.5C 395.5,305.167 395.5,304.833 395.5,304.5C 396.499,250.669 396.832,196.669 396.5,142.5 Z"/></g>
<g><path style="opacity:1" fill="#e4bcf6" d="M 158.5,235.5 C 158.833,235.5 159.167,235.5 159.5,235.5C 159.169,259.672 159.502,283.672 160.5,307.5C 160.833,308.167 161.167,308.833 161.5,309.5C 160.957,309.56 160.624,309.893 160.5,310.5C 161.193,311.518 161.859,312.518 162.5,313.5C 160.251,312.92 158.585,311.587 157.5,309.5C 157.5,308.5 157.5,307.5 157.5,306.5C 157.5,306.167 157.5,305.833 157.5,305.5C 158.498,282.339 158.831,259.006 158.5,235.5 Z"/></g>
<g><path style="opacity:0.6" fill="#ec4ecf" d="M 403.5,143.5 C 404.167,182.5 404.833,221.5 405.5,260.5C 405.667,275.837 405.5,291.17 405,306.5C 404.722,307.416 404.222,308.082 403.5,308.5C 403.5,253.5 403.5,198.5 403.5,143.5 Z"/></g>
<g><path style="opacity:1" fill="#fccef5" d="M 401.5,226.5 C 401.5,231.167 401.5,235.833 401.5,240.5C 401.667,262.836 401.5,285.169 401,307.5C 399.558,309.391 398.391,311.391 397.5,313.5C 396.5,313.5 395.5,313.5 394.5,313.5C 394.953,312.542 395.619,311.708 396.5,311C 394.893,311.019 393.226,311.185 391.5,311.5C 391.833,310.833 392.167,310.167 392.5,309.5C 392.833,309.5 393.167,309.5 393.5,309.5C 397.357,309.31 399.024,307.31 398.5,303.5C 399.333,249.002 399.833,194.335 400,139.5C 400.168,168.67 400.668,197.67 401.5,226.5 Z"/></g>
<g><path style="opacity:0.353" fill="#b851e4" d="M 154.5,139.5 C 154.168,195.336 154.501,251.002 155.5,306.5C 155.427,308.027 156.094,309.027 157.5,309.5C 158.585,311.587 160.251,312.92 162.5,313.5C 163.209,314.404 164.209,314.737 165.5,314.5C 166.209,315.404 167.209,315.737 168.5,315.5C 213.833,316.167 259.167,316.833 304.5,317.5C 258.165,317.667 211.832,317.5 165.5,317C 160.988,316.492 157.488,314.325 155,310.5C 153.474,303.93 152.64,297.264 152.5,290.5C 153.167,240.167 153.833,189.833 154.5,139.5 Z"/></g>
<g><path style="opacity:0.664" fill="#cb50e1" d="M 204.5,307.5 C 242.5,307.5 280.5,307.5 318.5,307.5C 292.167,308.167 265.833,308.833 239.5,309.5C 214.661,309.831 189.994,309.498 165.5,308.5C 178.677,308.829 191.677,308.495 204.5,307.5 Z"/></g>
<g><path style="opacity:0.642" fill="#ec54d5" d="M 395.5,305.5 C 395.5,306.167 395.5,306.833 395.5,307.5C 394.5,307.833 393.833,308.5 393.5,309.5C 393.167,309.5 392.833,309.5 392.5,309.5C 341.5,309.5 290.5,309.5 239.5,309.5C 265.833,308.833 292.167,308.167 318.5,307.5C 343.169,307.667 367.836,307.5 392.5,307C 393.527,306.487 394.527,305.987 395.5,305.5 Z"/></g>
<g><path style="opacity:1" fill="#eeaaf1" d="M 160.5,307.5 C 161.167,307.5 161.833,307.5 162.5,307.5C 163.391,308.11 164.391,308.443 165.5,308.5C 189.994,309.498 214.661,309.831 239.5,309.5C 290.5,309.5 341.5,309.5 392.5,309.5C 392.167,310.167 391.833,310.833 391.5,311.5C 316.5,311.5 241.5,311.5 166.5,311.5C 164.95,310.559 163.284,309.893 161.5,309.5C 161.167,308.833 160.833,308.167 160.5,307.5 Z"/></g>
<g><path style="opacity:1" fill="#fad8fe" d="M 161.5,309.5 C 163.284,309.893 164.95,310.559 166.5,311.5C 184.662,312.332 202.995,312.832 221.5,313C 201.836,313.5 182.169,313.667 162.5,313.5C 161.859,312.518 161.193,311.518 160.5,310.5C 160.624,309.893 160.957,309.56 161.5,309.5 Z"/></g>
<g><path style="opacity:1" fill="#fbcbf8" d="M 394.5,313.5 C 318.335,314.499 242.002,314.833 165.5,314.5C 164.209,314.737 163.209,314.404 162.5,313.5C 182.169,313.667 201.836,313.5 221.5,313C 202.995,312.832 184.662,312.332 166.5,311.5C 241.5,311.5 316.5,311.5 391.5,311.5C 393.226,311.185 394.893,311.019 396.5,311C 395.619,311.708 394.953,312.542 394.5,313.5 Z"/></g>
<g><path style="opacity:0.373" fill="#f052d1" d="M 402.5,308.5 C 402.833,308.5 403.167,308.5 403.5,308.5C 402.349,313.149 399.349,315.982 394.5,317C 364.502,317.5 334.502,317.667 304.5,317.5C 259.167,316.833 213.833,316.167 168.5,315.5C 244.501,315.667 320.501,315.5 396.5,315C 397.056,314.617 397.389,314.117 397.5,313.5C 399.395,312.027 401.061,310.36 402.5,308.5 Z"/></g>
<g><path style="opacity:1" fill="#ee8ee3" d="M 394.5,313.5 C 395.5,313.5 396.5,313.5 397.5,313.5C 397.389,314.117 397.056,314.617 396.5,315C 320.501,315.5 244.501,315.667 168.5,315.5C 167.209,315.737 166.209,315.404 165.5,314.5C 242.002,314.833 318.335,314.499 394.5,313.5 Z"/></g>
</svg>
