<?xml version="1.0" encoding="UTF-8"?>
<!DOCTYPE svg PUBLIC "-//W3C//DTD SVG 1.1//EN" "http://www.w3.org/Graphics/SVG/1.1/DTD/svg11.dtd">
<svg xmlns="http://www.w3.org/2000/svg" version="1.1" width="500px" height="500px" style="shape-rendering:geometricPrecision; text-rendering:geometricPrecision; image-rendering:optimizeQuality; fill-rule:evenodd; clip-rule:evenodd" xmlns:xlink="http://www.w3.org/1999/xlink">
<g><path style="opacity:0.998" fill="#39ba07" d="M 242.5,91.5 C 276.859,90.4171 301.693,105.084 317,135.5C 330.646,174.223 320.813,205.39 287.5,229C 251.531,246.862 219.698,241.362 192,212.5C 170,181.167 170,149.833 192,118.5C 205.328,102.755 222.161,93.7554 242.5,91.5 Z M 231.5,126.5 C 250.804,139.823 270.138,153.157 289.5,166.5C 270.471,180.028 251.305,193.362 232,206.5C 231.5,179.835 231.333,153.169 231.5,126.5 Z"/></g>
<g><path style="opacity:0.979" fill="#39ba07" d="M 73.5,298.5 C 85.5783,296.666 91.9116,301.666 92.5,313.5C 88.5,313.5 84.5,313.5 80.5,313.5C 80.8362,309 78.8362,307.167 74.5,308C 72.4848,309.555 72.1515,311.389 73.5,313.5C 77.8741,315.236 82.2075,317.069 86.5,319C 91.9992,325.875 91.6658,332.542 85.5,339C 77.7847,342.789 69.7847,343.456 61.5,341C 56.4361,338.371 54.4361,334.204 55.5,328.5C 59.5,328.5 63.5,328.5 67.5,328.5C 67.4887,331.822 69.1554,333.489 72.5,333.5C 75.2708,333.616 77.2708,332.449 78.5,330C 77.9535,329.075 77.2868,328.242 76.5,327.5C 72.1259,325.764 67.7925,323.931 63.5,322C 57.8105,314.829 58.4772,308.162 65.5,302C 68.1579,300.522 70.8245,299.355 73.5,298.5 Z"/></g>
<g><path style="opacity:0.986" fill="#39ba07" d="M 235.5,298.5 C 239.182,298.335 242.848,298.501 246.5,299C 247.436,302.197 247.103,305.364 245.5,308.5C 241.937,306.963 238.603,307.296 235.5,309.5C 233.56,313.139 234.56,315.139 238.5,315.5C 240.552,315.384 241.885,314.384 242.5,312.5C 246.459,311.34 250.459,311.173 254.5,312C 253.663,313.011 253.33,314.178 253.5,315.5C 255.167,315.5 256.833,315.5 258.5,315.5C 258.384,318.86 258.051,322.193 257.5,325.5C 255.5,325.5 253.5,325.5 251.5,325.5C 250.616,330.804 249.949,336.137 249.5,341.5C 240.852,342.466 232.186,342.632 223.5,342C 220.898,341.117 218.731,339.617 217,337.5C 214.563,328.536 217.73,322.702 226.5,320C 222.673,316.692 221.506,312.526 223,307.5C 225.878,302.65 230.044,299.65 235.5,298.5 Z M 232.5,325.5 C 234.833,325.5 237.167,325.5 239.5,325.5C 239.425,328.206 239.092,330.873 238.5,333.5C 234.993,334.006 231.826,333.34 229,331.5C 228.651,328.669 229.817,326.669 232.5,325.5 Z"/></g>
<g><path style="opacity:0.979" fill="#39ba07" d="M 279.5,298.5 C 291.578,296.666 297.912,301.666 298.5,313.5C 294.5,313.5 290.5,313.5 286.5,313.5C 286.836,309 284.836,307.167 280.5,308C 278.485,309.555 278.152,311.389 279.5,313.5C 283.874,315.236 288.207,317.069 292.5,319C 297.999,325.875 297.666,332.542 291.5,339C 283.785,342.789 275.785,343.456 267.5,341C 262.436,338.371 260.436,334.204 261.5,328.5C 265.5,328.5 269.5,328.5 273.5,328.5C 273.489,331.822 275.155,333.489 278.5,333.5C 281.271,333.616 283.271,332.449 284.5,330C 283.953,329.075 283.287,328.242 282.5,327.5C 278.126,325.764 273.793,323.931 269.5,322C 263.811,314.829 264.477,308.162 271.5,302C 274.158,300.522 276.825,299.355 279.5,298.5 Z"/></g>
<g><path style="opacity:0.984" fill="#39ba07" d="M 94.5,299.5 C 111.5,299.5 128.5,299.5 145.5,299.5C 143.383,313.537 141.049,327.537 138.5,341.5C 134.5,341.5 130.5,341.5 126.5,341.5C 128.285,330.792 130.285,320.125 132.5,309.5C 127.88,308.507 123.214,308.173 118.5,308.5C 116.777,319.174 114.943,329.841 113,340.5C 109.27,341.46 105.437,341.793 101.5,341.5C 103.037,330.482 104.703,319.482 106.5,308.5C 102.167,308.5 97.8333,308.5 93.5,308.5C 93.9629,305.518 94.2962,302.518 94.5,299.5 Z"/></g>
<g><path style="opacity:0.985" fill="#39ba07" d="M 149.5,299.5 C 153.5,299.5 157.5,299.5 161.5,299.5C 159.833,310.167 158.167,320.833 156.5,331.5C 163.167,331.5 169.833,331.5 176.5,331.5C 176.54,334.881 176.207,338.214 175.5,341.5C 164.5,341.5 153.5,341.5 142.5,341.5C 145.049,327.537 147.383,313.537 149.5,299.5 Z"/></g>
<g><path style="opacity:0.991" fill="#39bb07" d="M 184.5,299.5 C 188.5,299.5 192.5,299.5 196.5,299.5C 194.575,310.126 192.908,320.793 191.5,331.5C 198.167,331.5 204.833,331.5 211.5,331.5C 211.167,334.833 210.833,338.167 210.5,341.5C 199.5,341.5 188.5,341.5 177.5,341.5C 179.833,327.5 182.167,313.5 184.5,299.5 Z"/></g>
<g><path style="opacity:0.982" fill="#39ba07" d="M 300.5,299.5 C 324.502,299.333 348.502,299.5 372.5,300C 371.782,302.461 371.115,304.961 370.5,307.5C 363.858,308.331 357.191,308.831 350.5,309C 349.577,311.041 349.244,313.208 349.5,315.5C 355.5,315.5 361.5,315.5 367.5,315.5C 367.54,318.881 367.207,322.214 366.5,325.5C 360.158,325.334 353.825,325.5 347.5,326C 346.577,328.041 346.244,330.208 346.5,332.5C 353.167,332.5 359.833,332.5 366.5,332.5C 366.351,333.552 366.517,334.552 367,335.5C 373.167,323.833 379.333,312.167 385.5,300.5C 390.719,299.196 395.886,299.196 401,300.5C 403.333,313.833 405.667,327.167 408,340.5C 410.394,327.132 412.894,313.799 415.5,300.5C 419.5,299.167 423.5,299.167 427.5,300.5C 425.5,310.5 423.5,320.5 421.5,330.5C 428.468,331.497 435.468,331.83 442.5,331.5C 441.949,334.807 441.616,338.14 441.5,341.5C 426.152,341.833 410.819,341.499 395.5,340.5C 394.77,337.891 394.27,335.224 394,332.5C 389.921,331.371 385.755,331.204 381.5,332C 379.833,335 378.167,338 376.5,341C 361.837,341.5 347.17,341.667 332.5,341.5C 334.285,330.792 336.285,320.125 338.5,309.5C 333.88,308.507 329.214,308.173 324.5,308.5C 322.777,319.174 320.943,329.841 319,340.5C 315.27,341.46 311.437,341.793 307.5,341.5C 309.037,330.482 310.703,319.482 312.5,308.5C 308.167,308.5 303.833,308.5 299.5,308.5C 299.963,305.518 300.296,302.518 300.5,299.5 Z M 390.5,312.5 C 391.475,315.311 392.142,318.311 392.5,321.5C 390.473,321.662 388.473,321.495 386.5,321C 388.246,318.341 389.58,315.508 390.5,312.5 Z"/></g>
<g><path style="opacity:0.964" fill="#39ba07" d="M 181.5,382.5 C 183.167,382.5 184.833,382.5 186.5,382.5C 185.885,388.189 185.052,393.856 184,399.5C 182.23,401.418 180.063,401.918 177.5,401C 178.78,394.82 180.113,388.653 181.5,382.5 Z"/></g>
<g><path style="opacity:0.964" fill="#39ba07" d="M 189.5,382.5 C 191.857,382.337 194.19,382.503 196.5,383C 197.858,386.073 199.025,389.24 200,392.5C 201.362,389.353 202.195,386.02 202.5,382.5C 204.604,382.201 206.604,382.534 208.5,383.5C 206.984,389.411 205.984,395.411 205.5,401.5C 202.753,401.813 200.086,401.48 197.5,400.5C 196.236,397.875 195.069,395.208 194,392.5C 193.304,395.478 192.804,398.478 192.5,401.5C 190.5,401.5 188.5,401.5 186.5,401.5C 187.629,395.188 188.629,388.855 189.5,382.5 Z"/></g>
<g><path style="opacity:0.947" fill="#39ba07" d="M 211.5,382.5 C 216.167,382.5 220.833,382.5 225.5,382.5C 225.5,384.167 225.5,385.833 225.5,387.5C 221.685,386.918 218.351,387.752 215.5,390C 218.146,390.497 220.813,390.664 223.5,390.5C 223.5,391.833 223.5,393.167 223.5,394.5C 220.813,394.336 218.146,394.503 215.5,395C 214.833,397 214.167,399 213.5,401C 211.866,401.494 210.199,401.66 208.5,401.5C 209.114,395.097 210.114,388.764 211.5,382.5 Z"/></g>
<g><path style="opacity:0.964" fill="#39ba07" d="M 228.5,382.5 C 230.167,382.5 231.833,382.5 233.5,382.5C 232.885,388.189 232.052,393.856 231,399.5C 229.23,401.418 227.063,401.918 224.5,401C 225.78,394.82 227.113,388.653 228.5,382.5 Z"/></g>
<g><path style="opacity:0.964" fill="#39ba07" d="M 236.5,382.5 C 238.857,382.337 241.19,382.503 243.5,383C 244.858,386.073 246.025,389.24 247,392.5C 248.362,389.353 249.195,386.02 249.5,382.5C 251.604,382.201 253.604,382.534 255.5,383.5C 253.984,389.411 252.984,395.411 252.5,401.5C 249.753,401.813 247.086,401.48 244.5,400.5C 243.236,397.875 242.069,395.208 241,392.5C 240.304,395.478 239.804,398.478 239.5,401.5C 237.5,401.5 235.5,401.5 233.5,401.5C 234.629,395.188 235.629,388.855 236.5,382.5 Z"/></g>
<g><path style="opacity:0.976" fill="#39ba07" d="M 258.5,382.5 C 260.167,382.5 261.833,382.5 263.5,382.5C 263.123,388.554 262.29,394.554 261,400.5C 259.301,401.406 257.467,401.739 255.5,401.5C 256.114,395.097 257.114,388.764 258.5,382.5 Z"/></g>
<g><path style="opacity:0.931" fill="#39ba07" d="M 283.5,385.5 C 281.544,387.148 279.211,387.815 276.5,387.5C 275.963,392.186 275.296,396.853 274.5,401.5C 272.5,401.5 270.5,401.5 268.5,401.5C 269.383,396.868 270.05,392.202 270.5,387.5C 268.833,387.5 267.167,387.5 265.5,387.5C 265.5,385.833 265.5,384.167 265.5,382.5C 271.5,382.5 277.5,382.5 283.5,382.5C 283.5,383.5 283.5,384.5 283.5,385.5 Z"/></g>
<g><path style="opacity:0.954" fill="#39ba07" d="M 283.5,385.5 C 284.404,384.791 284.737,383.791 284.5,382.5C 289.544,382.173 294.544,382.506 299.5,383.5C 298.754,384.736 298.421,386.07 298.5,387.5C 295.5,387.5 292.5,387.5 289.5,387.5C 289.5,388.5 289.5,389.5 289.5,390.5C 292.167,390.5 294.833,390.5 297.5,390.5C 297.67,391.822 297.337,392.989 296.5,394C 293.028,393.943 290.028,394.943 287.5,397C 290.482,397.498 293.482,397.665 296.5,397.5C 296.5,398.833 296.5,400.167 296.5,401.5C 291.5,401.5 286.5,401.5 281.5,401.5C 282.384,396.196 283.051,390.863 283.5,385.5 Z"/></g>
<g><path style="opacity:0.952" fill="#39bb06" d="M 304.5,382.5 C 308.753,381.854 311.586,383.52 313,387.5C 314.353,386.315 315.52,384.981 316.5,383.5C 318.833,382.167 321.167,382.167 323.5,383.5C 320.833,386.5 318.167,389.5 315.5,392.5C 317.293,395.251 318.959,398.084 320.5,401C 315.925,402.297 312.758,400.797 311,396.5C 308.928,401.143 305.428,402.643 300.5,401C 303.167,398 305.833,395 308.5,392C 306.467,389.104 305.134,385.937 304.5,382.5 Z"/></g>
</svg>
