<?xml version="1.0" encoding="UTF-8"?>
<!DOCTYPE svg PUBLIC "-//W3C//DTD SVG 1.1//EN" "http://www.w3.org/Graphics/SVG/1.1/DTD/svg11.dtd">
<svg xmlns="http://www.w3.org/2000/svg" version="1.1" width="500px" height="500px" style="shape-rendering:geometricPrecision; text-rendering:geometricPrecision; image-rendering:optimizeQuality; fill-rule:evenodd; clip-rule:evenodd" xmlns:xlink="http://www.w3.org/1999/xlink">
<g><path style="opacity:1" fill="#fefefe" d="M -0.5,-0.5 C 166.167,-0.5 332.833,-0.5 499.5,-0.5C 499.5,166.167 499.5,332.833 499.5,499.5C 332.833,499.5 166.167,499.5 -0.5,499.5C -0.5,332.833 -0.5,166.167 -0.5,-0.5 Z"/></g>
<g><path style="opacity:1" fill="#202223" d="M 328.5,173.5 C 345.167,173.5 361.833,173.5 378.5,173.5C 378.5,174.833 378.5,176.167 378.5,177.5C 375.482,177.335 372.482,177.502 369.5,178C 364.076,180.017 362.242,183.85 364,189.5C 369.037,203.07 374.204,216.57 379.5,230C 372.253,230.812 365.086,230.646 358,229.5C 352.587,214.261 346.587,199.261 340,184.5C 337.255,180.233 333.422,177.899 328.5,177.5C 328.5,176.167 328.5,174.833 328.5,173.5 Z"/></g>
<g><path style="opacity:1" fill="#232526" d="M 426.5,173.5 C 440.167,173.5 453.833,173.5 467.5,173.5C 467.292,177.144 465.292,179.311 461.5,180C 458.96,182.205 456.793,184.705 455,187.5C 448.747,201.26 443.08,215.26 438,229.5C 436.644,230.38 435.144,230.714 433.5,230.5C 436.694,220.754 440.194,211.087 444,201.5C 449.419,185.103 443.586,177.103 426.5,177.5C 426.5,176.167 426.5,174.833 426.5,173.5 Z"/></g>
<g><path style="opacity:1" fill="#393b3c" d="M 114.5,217.5 C 114.56,216.957 114.893,216.624 115.5,216.5C 118.515,220.712 120.015,225.379 120,230.5C 118.445,225.989 116.612,221.656 114.5,217.5 Z"/></g>
<g><path style="opacity:1" fill="#242627" d="M 178.5,216.5 C 178.182,221.032 178.515,225.366 179.5,229.5C 178.749,230.573 177.749,230.74 176.5,230C 177.142,225.399 177.809,220.899 178.5,216.5 Z"/></g>
<g><path style="opacity:1" fill="#848686" d="M 157.5,217.5 C 158.097,216.861 158.93,216.528 160,216.5C 162.737,216.376 163.571,217.376 162.5,219.5C 161.158,217.995 159.492,217.328 157.5,217.5 Z"/></g>
<g><path style="opacity:1" fill="#bebebf" d="M 178.5,216.5 C 180.288,216.215 181.955,216.548 183.5,217.5C 182.443,217.906 181.109,217.906 179.5,217.5C 179.5,221.5 179.5,225.5 179.5,229.5C 178.515,225.366 178.182,221.032 178.5,216.5 Z"/></g>
<g><path style="opacity:1" fill="#3f4142" d="M 135.5,216.5 C 136.8,218.223 137.467,220.39 137.5,223C 137.333,225.167 137.167,227.333 137,229.5C 135.569,225.365 135.069,221.032 135.5,216.5 Z"/></g>
<g><path style="opacity:1" fill="#3c3e3f" d="M 157.5,217.5 C 157.343,218.873 157.51,220.207 158,221.5C 159.667,222.5 161.333,223.5 163,224.5C 163.49,225.793 163.657,227.127 163.5,228.5C 162.833,227.5 162.167,226.5 161.5,225.5C 159.608,224.298 157.774,222.965 156,221.5C 155.227,219.648 155.727,218.314 157.5,217.5 Z"/></g>
<g><path style="opacity:1" fill="#a7a8a8" d="M 161.5,225.5 C 162.167,226.5 162.833,227.5 163.5,228.5C 162.688,229.993 161.355,230.66 159.5,230.5C 156.818,230.923 155.652,229.923 156,227.5C 157.444,229.155 159.278,229.822 161.5,229.5C 161.5,228.167 161.5,226.833 161.5,225.5 Z"/></g>
<g><path style="opacity:1" fill="#272829" d="M 33.5,243.5 C 34.8048,245.397 35.4714,247.731 35.5,250.5C 35.1667,252.833 34.8333,255.167 34.5,257.5C 33.5067,252.88 33.1734,248.214 33.5,243.5 Z"/></g>
<g><path style="opacity:1" fill="#252728" d="M 91.5,243.5 C 91.5,248.167 91.5,252.833 91.5,257.5C 90.7611,257.631 90.0944,257.464 89.5,257C 90.8333,252.667 90.8333,248.333 89.5,244C 90.0944,243.536 90.7611,243.369 91.5,243.5 Z"/></g>
<g><path style="opacity:1" fill="#363839" d="M 109.5,243.5 C 110.805,245.397 111.471,247.731 111.5,250.5C 111.167,252.833 110.833,255.167 110.5,257.5C 109.507,252.88 109.173,248.214 109.5,243.5 Z"/></g>
<g><path style="opacity:1" fill="#353738" d="M 127.5,244.5 C 128.209,243.596 129.209,243.263 130.5,243.5C 131.668,248.158 132.501,252.824 133,257.5C 131.434,252.944 129.601,248.61 127.5,244.5 Z"/></g>
<g><path style="opacity:1" fill="#292b2c" d="M 188.5,244.5 C 189.251,243.427 190.251,243.26 191.5,244C 190.167,248.333 190.167,252.667 191.5,257C 190.5,257.667 189.5,257.667 188.5,257C 189.822,252.733 189.822,248.566 188.5,244.5 Z"/></g>
<g><path style="opacity:1" fill="#afb0b0" d="M 91.5,243.5 C 93.924,243.192 96.2573,243.526 98.5,244.5C 96.7805,244.746 94.7805,244.746 92.5,244.5C 92.5,248.5 92.5,252.5 92.5,256.5C 94.5273,256.338 96.5273,256.505 98.5,257C 96.1902,257.497 93.8568,257.663 91.5,257.5C 91.5,252.833 91.5,248.167 91.5,243.5 Z"/></g>
<g><path style="opacity:1" fill="#424445" d="M 172.5,243.5 C 173.805,245.397 174.471,247.731 174.5,250.5C 174.167,252.833 173.833,255.167 173.5,257.5C 172.507,252.88 172.173,248.214 172.5,243.5 Z"/></g>
<g><path style="opacity:1" fill="#a2a3a3" d="M 73.5,248.5 C 72.8333,247.5 72.1667,246.5 71.5,245.5C 73.0106,243.559 75.0106,243.059 77.5,244C 78.4506,244.718 78.6172,245.551 78,246.5C 76.8904,244.963 75.3904,244.297 73.5,244.5C 73.5,245.833 73.5,247.167 73.5,248.5 Z"/></g>
<g><path style="opacity:1" fill="#999a9b" d="M 247.5,247.5 C 246.833,246.833 246.167,246.167 245.5,245.5C 246.312,244.007 247.645,243.34 249.5,243.5C 252.476,243.13 253.476,244.13 252.5,246.5C 251.158,244.995 249.492,244.328 247.5,244.5C 247.5,245.5 247.5,246.5 247.5,247.5 Z"/></g>
<g><path style="opacity:1" fill="#252728" d="M 115.5,244.5 C 117.898,245.882 118.065,247.549 116,249.5C 115.506,247.866 115.34,246.199 115.5,244.5 Z"/></g>
<g><path style="opacity:1" fill="#404243" d="M 224.5,244.5 C 225.793,243.355 226.959,243.689 228,245.5C 229.752,248.672 231.752,251.672 234,254.5C 234.667,255.5 234.667,256.5 234,257.5C 230.97,252.985 227.803,248.651 224.5,244.5 Z"/></g>
<g><path style="opacity:1" fill="#494a4b" d="M 39.5,244.5 C 41.9755,246.121 42.1422,248.121 40,250.5C 39.5045,248.527 39.3379,246.527 39.5,244.5 Z"/></g>
<g><path style="opacity:1" fill="#38393a" d="M 212.5,255.5 C 212.167,255.5 211.833,255.5 211.5,255.5C 211.335,252.15 211.502,248.817 212,245.5C 213.818,248.722 213.984,252.055 212.5,255.5 Z"/></g>
<g><path style="opacity:1" fill="#525354" d="M 53.5,243.5 C 54.8048,245.397 55.4714,247.731 55.5,250.5C 55.1667,252.833 54.8333,255.167 54.5,257.5C 53.5067,252.88 53.1734,248.214 53.5,243.5 Z"/></g>
<g><path style="opacity:1" fill="#3a3c3d" d="M 71.5,245.5 C 72.1667,246.5 72.8333,247.5 73.5,248.5C 75.3925,249.702 77.2258,251.035 79,252.5C 78.5403,257.62 77.8736,257.62 77,252.5C 75.3333,251.5 73.6667,250.5 72,249.5C 71.51,248.207 71.3433,246.873 71.5,245.5 Z"/></g>
<g><path style="opacity:1" fill="#3a3b3c" d="M 245.5,245.5 C 246.167,246.167 246.833,246.833 247.5,247.5C 249,249.179 250.833,250.512 253,251.5C 253.49,252.793 253.657,254.127 253.5,255.5C 252.833,254.833 252.167,254.167 251.5,253.5C 249.645,251.967 247.812,250.3 246,248.5C 245.517,247.552 245.351,246.552 245.5,245.5 Z"/></g>
<g><path style="opacity:1" fill="#3c3d3e" d="M 153.5,244.5 C 155.772,248.452 157.772,252.618 159.5,257C 158.552,257.483 157.552,257.649 156.5,257.5C 155.808,253.109 154.808,248.776 153.5,244.5 Z"/></g>
<g><path style="opacity:1" fill="#494b4c" d="M 37.5,251.5 C 39.797,252.835 41.797,254.668 43.5,257C 42.5,257.667 41.5,257.667 40.5,257C 39.2423,255.259 38.2423,253.426 37.5,251.5 Z"/></g>
<g><path style="opacity:1" fill="#3e4041" d="M 113.5,250.5 C 115.303,252.481 116.97,254.648 118.5,257C 117.551,257.617 116.718,257.451 116,256.5C 114.441,254.783 113.608,252.783 113.5,250.5 Z"/></g>
<g><path style="opacity:1" fill="#8d8e8e" d="M 211.5,255.5 C 211.833,255.5 212.167,255.5 212.5,255.5C 211.508,257.026 210.008,257.693 208,257.5C 203.83,257.21 201.997,254.877 202.5,250.5C 202.365,248.192 203.031,246.192 204.5,244.5C 204.467,247.899 204.633,251.565 205,255.5C 207.163,256.768 209.33,256.768 211.5,255.5 Z"/></g>
<g><path style="opacity:1" fill="#a4a5a5" d="M 251.5,253.5 C 252.167,254.167 252.833,254.833 253.5,255.5C 253.389,256.117 253.056,256.617 252.5,257C 250.5,257.667 248.5,257.667 246.5,257C 245.483,255.951 245.316,254.784 246,253.5C 246.928,256.035 248.762,257.035 251.5,256.5C 251.5,255.5 251.5,254.5 251.5,253.5 Z"/></g>
<g><path style="opacity:1" fill="#212324" d="M 368.5,257.5 C 375.344,256.181 382.344,256.181 389.5,257.5C 394.706,271.951 400.206,286.284 406,300.5C 411.333,286.5 416.667,272.5 422,258.5C 423.418,256.637 425.251,256.137 427.5,257C 418.167,280.667 408.833,304.333 399.5,328C 397.112,328.865 395.612,328.032 395,325.5C 386.433,302.616 377.6,279.949 368.5,257.5 Z"/></g>
</svg>
