<?xml version="1.0" encoding="UTF-8"?>
<!DOCTYPE svg PUBLIC "-//W3C//DTD SVG 1.1//EN" "http://www.w3.org/Graphics/SVG/1.1/DTD/svg11.dtd">
<svg xmlns="http://www.w3.org/2000/svg" version="1.1" width="500px" height="500px" style="shape-rendering:geometricPrecision; text-rendering:geometricPrecision; image-rendering:optimizeQuality; fill-rule:evenodd; clip-rule:evenodd" xmlns:xlink="http://www.w3.org/1999/xlink">
<g><path style="opacity:1" fill="#fefefe" d="M -0.5,-0.5 C 166.167,-0.5 332.833,-0.5 499.5,-0.5C 499.5,166.167 499.5,332.833 499.5,499.5C 332.833,499.5 166.167,499.5 -0.5,499.5C -0.5,332.833 -0.5,166.167 -0.5,-0.5 Z"/></g>
<g><path style="opacity:1" fill="#8a8b8c" d="M 132.5,127.5 C 131.167,127.5 129.833,127.5 128.5,127.5C 128.5,129.833 128.5,132.167 128.5,134.5C 127.527,132.052 127.194,129.385 127.5,126.5C 129.415,126.216 131.081,126.549 132.5,127.5 Z"/></g>
<g><path style="opacity:1" fill="#212324" d="M 132.5,127.5 C 158.5,127.5 184.5,127.5 210.5,127.5C 212.5,127.5 214.5,127.5 216.5,127.5C 216.5,129.833 216.5,132.167 216.5,134.5C 208.771,134.176 201.437,135.676 194.5,139C 191.114,141.869 189.781,145.536 190.5,150C 190.323,154.382 191.156,158.548 193,162.5C 201.332,183.33 209.165,204.33 216.5,225.5C 204.678,226.495 192.678,226.828 180.5,226.5C 170.773,201.489 160.939,176.489 151,151.5C 146.164,142.147 138.664,136.48 128.5,134.5C 128.5,132.167 128.5,129.833 128.5,127.5C 129.833,127.5 131.167,127.5 132.5,127.5 Z"/></g>
<g><path style="opacity:1" fill="#a6a7a7" d="M 210.5,127.5 C 212.607,126.532 214.941,126.198 217.5,126.5C 217.806,129.385 217.473,132.052 216.5,134.5C 216.5,132.167 216.5,129.833 216.5,127.5C 214.5,127.5 212.5,127.5 210.5,127.5 Z"/></g>
<g><path style="opacity:1" fill="#232526" d="M 299.5,127.5 C 323.5,127.5 347.5,127.5 371.5,127.5C 371.808,129.924 371.474,132.257 370.5,134.5C 360.724,138.107 353.224,144.44 348,153.5C 337.746,177.26 328.08,201.26 319,225.5C 317.647,226.704 315.981,227.371 314,227.5C 312.5,227.333 311,227.167 309.5,227C 318.385,206.679 325.885,185.845 332,164.5C 334.732,152.665 330.899,143.831 320.5,138C 313.712,135.673 306.712,134.506 299.5,134.5C 299.5,132.167 299.5,129.833 299.5,127.5 Z"/></g>
<g><path style="opacity:1" fill="#585a5b" d="M 216.5,225.5 C 217.043,225.56 217.376,225.893 217.5,226.5C 205.006,227.825 192.673,227.825 180.5,226.5C 192.678,226.828 204.678,226.495 216.5,225.5 Z"/></g>
<g><path style="opacity:1" fill="#212324" d="M 198.5,271.5 C 210.518,271.168 222.518,271.501 234.5,272.5C 244,297.5 253.5,322.5 263,347.5C 272.853,322.946 282.52,298.279 292,273.5C 294.456,271.679 297.289,271.012 300.5,271.5C 284.971,312.915 269.138,354.248 253,395.5C 250.667,396.833 248.333,396.833 246,395.5C 229.862,354.248 214.029,312.915 198.5,271.5 Z"/></g>
</svg>
